<?xml version="1.0" encoding="UTF-8" standalone="no"?>
<!DOCTYPE svg PUBLIC "-//W3C//DTD SVG 1.1//EN" "http://www.w3.org/Graphics/SVG/1.1/DTD/svg11.dtd">
<svg width="100%" height="100%" viewBox="0 0 7871 4444" version="1.1" xmlns="http://www.w3.org/2000/svg" xmlns:xlink="http://www.w3.org/1999/xlink" xml:space="preserve" xmlns:serif="http://www.serif.com/" style="fill-rule:evenodd;clip-rule:evenodd;stroke-linecap:round;stroke-linejoin:round;stroke-miterlimit:1.5;">
    <g transform="matrix(0.203343,0,0,0.278792,-172682,-88362.3)">
        <g transform="matrix(0.839617,0,0,0.688689,198344,80849.1)">
            <g>
                <g transform="matrix(4.9178,0,0,3.23787,-1.64495e+06,139005)">
                    <path d="M492934,69655.5C492934,69655.5 492849,69783.8 492869,69814.6C492877,69826.7 492876,69834.1 492907,69842.4C492953,69855.1 493020,69837.5 493058,69839.9C493113,69843.4 493197,69879.9 493225,69843.9C493254,69808 493244,69681.1 493209,69640.8C493186,69614.4 493145,69589.5 493086,69590.3C493055,69590.7 493024,69606.3 492998,69617.2C492973,69628 492934,69655.5 492934,69655.5Z" style="fill:rgb(81,68,41);"/>
                </g>
                <g transform="matrix(4.9178,0,0,3.58691,-1.64503e+06,114719)">
                    <path d="M493189,69748.4C493156,69746.8 493041,69791.9 493041,69791.9L493020,69820.1C493020,69820.1 493072,69816.3 493098,69818C493129,69820 493184,69834.8 493208,69832.1C493223,69830.4 493244,69815.6 493240,69801.7C493237,69787.7 493214,69749.6 493189,69748.4Z" style="fill:rgb(50,41,15);"/>
                </g>
            </g>
            <g transform="matrix(4.9178,0,0,3.58691,-1.64495e+06,114715)">
                <path d="M495968,69735.1C495969,69785 496110,69768.3 496178,69774C496235,69778.7 496307,69775 496367,69750.3C496432,69724.3 496532,69656.9 496565,69617.5C496584,69595.9 496603,69548.7 496579,69532.9C496543,69509.2 496495,69459.9 496424,69461.3C496354,69462.6 496293,69466.8 496216,69515.4C496138,69564 495967,69685.2 495968,69735.1Z" style="fill:rgb(57,59,56);fill-opacity:0.9;"/>
            </g>
            <g>
                <g transform="matrix(4.9178,0,0,3.58691,-1.64495e+06,114715)">
                    <path d="M496504,69802.5C496504,69802.5 496636,69806.8 496696,69809C496751,69811 496814,69813.9 496863,69815.4C496906,69816.7 496949,69823.1 496991,69817.9C497052,69810.2 497183,69796.1 497241,69750.7C497300,69704.7 497337,69673.8 497368,69641.4C497380,69629.4 497429,69588.7 497419,69575.4C497409,69562.1 497357,69529.5 497315,69519.5C497227,69498.4 497095,69481.7 497023,69472.8C496940,69462.4 496829,69460 496770,69475.2C496712,69490.4 496640,69550.7 496603,69581.7C496576,69604.2 496550,69661.5 496550,69661.5L496508,69756.9L496504,69802.5Z" style="fill:rgb(97,102,104);fill-opacity:0.9;"/>
                </g>
                <g transform="matrix(4.9178,0,0,3.58691,-1.64495e+06,114715)">
                    <path d="M496544,69675.9C496566,69652.2 496614,69593.2 496656,69583.4C496697,69573.6 496753,69598.3 496793,69617.4C496832,69636 496872,69674.9 496895,69697.6C496910,69713 496927,69735.4 496930,69753.3C496933,69771.1 496931,69798.9 496914,69804.9C496885,69814.9 496811,69811.3 496760,69813.1C496709,69814.9 496656,69810.1 496615,69807.6C496579,69805.5 496528,69810.1 496511,69798.1C496495,69786.1 496516,69746.5 496521,69726.1C496526,69708.4 496531,69689.3 496544,69675.9Z" style="fill:rgb(50,41,23);"/>
                </g>
                <g transform="matrix(4.9178,0,0,3.58691,-1.64495e+06,114715)">
                    <path d="M496835,69644C496876,69636.3 496911,69603.6 496953,69599.7C496998,69595.5 497104,69618.7 497104,69618.7C497104,69618.7 497348,69604.9 497398,69594.3C497414,69590.8 497420,69565.9 497402,69554.9C497376,69539.2 497301,69521.7 497232,69507.3C497156,69491.7 497059,69475.4 496984,69470.6C496917,69466.3 496836,69465.2 496783,69478.7C496734,69491.7 496700,69523.4 496671,69548.1C496650,69565.2 496615,69595.6 496622,69611.9C496628,69628.2 496678,69641.3 496709,69645.9C496744,69651.3 496794,69651.7 496835,69644Z" style="fill:rgb(100,99,93);fill-opacity:0.89;"/>
                </g>
            </g>
            <g>
                <g transform="matrix(4.9178,0,0,3.58691,-1.64495e+06,114715)">
                    <path d="M493257,69197C493194,69182 493004,69178.4 492895,69210.9C492869,69218.5 492795,69241.1 492758,69262.6C492718,69286.1 492716,69308.4 492716,69308.4C492652,69306.2 492604,69317.7 492580,69349.5C492534,69328.7 492493,69397 492493,69397C492493,69397 492443,69416.2 492411,69441.8C492387,69461.2 492386,69482.4 492358,69512.1C492358,69512.1 492320,69558.9 492269,69599.7C492238,69624.5 492196,69636.3 492171,69665.1C492122,69720.2 492114,69777.1 492128,69795.3C492146,69817 492242,69837.2 492348,69826.4C492454,69815.5 492591,69805.4 492591,69805.4C492591,69805.4 492714,69789.2 492770,69765.6C492856,69729.9 493033,69629.6 493103,69591C493134,69574.2 493171,69565.6 493191,69534.3C493237,69464.9 493251,69357.5 493271,69300.6C493283,69266 493291,69205.1 493257,69197Z" style="fill:rgb(62,44,16);fill-opacity:0.91;"/>
                </g>
                <g transform="matrix(4.99396,0,0,3.9372,-1.6825e+06,90321.1)">
                    <path d="M492655,69782.5C492655,69782.5 492713,69717.8 492751,69697.6C492795,69673.8 492889,69645.5 492919,69640.2C492928,69638.6 492937,69657.9 492931,69665.7C492923,69678 492891,69701.5 492867,69714.1C492836,69730.6 492781,69754.3 492746,69764.6C492717,69772.9 492655,69782.5 492655,69782.5Z" style="fill:rgb(47,27,2);"/>
                </g>
                <g transform="matrix(4.9178,0,0,3.58691,-1.64495e+06,114715)">
                    <path d="M492590,69697.6L492515,69663.6L492505,69631.7L492530,69612.6L492485,69570.1L492458,69559.5L492466,69502.2L492407,69553.2L492386,69619L492468,69659.3L492590,69697.6Z" style="fill:rgb(35,20,4);fill-opacity:0.93;"/>
                </g>
            </g>
            <g>
                <g transform="matrix(4.9178,0,0,3.58691,-1.64495e+06,114715)">
                    <path d="M496280,69421C496266,69382.2 496273,69283.5 496315,69255.4C496359,69225.7 496546,69242.6 496546,69242.6C496546,69242.6 496620,69265.5 496645,69288.4C496676,69317.4 496724,69333.7 496748,69384.2C496757,69402 496773,69457.4 496762,69473.8C496749,69493.1 496680,69520.5 496658,69532.9C496643,69540.7 496628,69551.1 496612,69549.5C496571,69545.4 496464,69529.5 496409,69508.1C496361,69489.4 496295,69459.7 496280,69421Z" style="fill:rgb(86,87,83);fill-opacity:0.84;"/>
                </g>
                <g transform="matrix(4.9178,0,0,3.58691,-1.64495e+06,114715)">
                    <path d="M496627,69321.1L496684,69414.9L496647,69406.7L496594,69401.3L496567,69364.6L496600,69329.2L496627,69321.1Z" style="fill:rgb(130,109,85);"/>
                </g>
                <g transform="matrix(4.9178,0,0,3.58691,-1.64495e+06,114715)">
                    <path d="M496438,69409.4C496466,69408.5 496498,69403.5 496525,69416.2C496553,69429.1 496585,69464.2 496604,69486.9C496612,69497 496653,69529 496641,69535.8C496628,69542.6 496611,69549.7 496596,69549.4C496571,69549 496525,69540.8 496490,69533.1C496451,69524.7 496395,69512.3 496366,69499.1C496346,69489.9 496316,69454.3 496316,69454.3C496316,69454.3 496341,69427.7 496358,69421.6C496378,69414.1 496411,69410.3 496438,69409.4Z" style="fill:rgb(49,43,29);"/>
                </g>
            </g>
            <g>
                <g transform="matrix(4.9178,0,0,3.58691,-1.64495e+06,114715)">
                    <path d="M500273,69532.9C500335,69491.8 500430,69504.9 500490,69529.1C500517,69539.8 500552,69583.7 500590,69628.7C500634,69680.5 500663,69702.4 500679,69733.5C500690,69756.6 500698,69804.1 500673,69810.8C500617,69825.8 500439,69828.3 500360,69828.7C500305,69829 500249,69815.9 500199,69813.2C500152,69810.6 500114,69802.1 500104,69781.7C500063,69700.9 500208,69575 500273,69532.9Z" style="fill:rgb(114,98,70);fill-opacity:0.91;"/>
                </g>
                <g transform="matrix(4.9178,0,0,3.58691,-1.64495e+06,114715)">
                    <path d="M500689,69770.5C500689,69770.5 500630,69705.8 500594,69681.9C500558,69657.8 500503,69635.8 500471,69626.2C500448,69619.5 500412,69621 500399,69624.5C500387,69628 500312,69671.5 500293,69682.8C500274,69694.1 500199,69707.1 500185,69721C500171,69735 500122,69774.8 500121,69788.9C500120,69802.9 500164,69807.7 500187,69810.6C500220,69814.8 500275,69811.4 500317,69814.1C500357,69816.8 500396,69826.4 500436,69827.2C500481,69828 500548,69820.5 500585,69819.3C500610,69818.6 500658,69820.2 500658,69820.2C500658,69820.2 500691,69798.7 500689,69770.5Z" style="fill:rgb(61,49,22);fill-opacity:0.92;"/>
                </g>
            </g>
            <g>
                <g transform="matrix(4.9178,0,0,3.58691,-1.64495e+06,114715)">
                    <path d="M496736,69416.8C496784,69331.4 496859,69266.5 496960,69221.9L497122,69221.9L497479,69138.9L497599,69151.4L497740,69217.7C497740,69217.7 497813,69242.6 497819,69271.6C497825,69300.7 497813,69368.3 497776,69392C497728,69422.2 497535,69453.4 497535,69453.4C497535,69453.4 497470,69508.5 497413,69512.2C497328,69517.7 497064,69483.2 497064,69483.2L496824,69474.9L496736,69416.8Z" style="fill:rgb(105,106,102);"/>
                </g>
                <g transform="matrix(4.9178,0,0,3.58691,-1.64495e+06,114715)">
                    <path d="M497066,69494.3C497059,69485 497088,69457.2 497139,69436.9C497187,69418.1 497254,69406.8 497281,69399.1C497320,69388.1 497360,69377.4 497400,69373.6C497455,69368.6 497558,69380.4 497613,69368.6C497652,69359.9 497701,69324.4 497728,69302.3C497751,69283.6 497799,69247.9 497799,69247.9C497799,69247.9 497825,69273.7 497822,69288.7C497816,69311.1 497796,69360.8 497767,69382.1C497737,69404.2 497677,69409.4 497641,69421.2C497604,69433.4 497567,69444.2 497535,69456.4C497511,69465.2 497474,69496 497452,69505.6C497428,69516.1 497393,69519.9 497349,69513.1C497333,69510.6 497301,69503.8 497252,69504.1C497171,69504.6 497074,69505.4 497066,69494.3Z" style="fill:rgb(49,41,23);"/>
                </g>
            </g>
            <g>
                <g transform="matrix(4.9178,0,0,3.58691,-1.64495e+06,114715)">
                    <path d="M500308,69415.3C500355,69462 500441,69522.1 500505,69518.6C500571,69515.2 500612,69476.9 500641,69439.2C500664,69409.6 500682,69335.9 500682,69335.9C500682,69335.9 500675,69313.1 500639,69286C500618,69269.7 500588,69244.2 500540,69242.6C500411,69238.5 500291,69215.7 500249,69246.1C500206,69276.5 500262,69369.3 500308,69415.3Z" style="fill:rgb(98,98,94);fill-opacity:0.93;"/>
                </g>
                <g transform="matrix(4.9178,0,0,3.58691,-1.64495e+06,114715)">
                    <path d="M500570,69501.6L500506,69459.5L500436,69408.6L500317,69406.4L500373,69478.6L500485,69512.6L500570,69501.6Z" style="fill:rgb(65,55,29);"/>
                </g>
            </g>
            <g>
                <g transform="matrix(4.9178,0,0,3.58691,-1.64495e+06,114715)">
                    <path d="M500729,69725.6C500763,69772.4 500787,69848.4 500844,69855.6C500943,69868.1 501209,69870.7 501310,69859.8C501361,69854.2 501417,69813.5 501448,69790.1C501470,69773.1 501494,69719.6 501494,69719.6C501494,69719.6 501499,69654.6 501494,69628.3C501489,69604.1 501461,69562 501461,69562C501461,69562 501465,69434.4 501464,69388.6C501463,69354.7 501467,69315 501456,69287.2C501435,69237.3 501358,69215.1 501309,69188.6C501276,69170.4 501134,69114.3 501079,69139.8C500901,69222.7 500777,69302.3 500744,69327.2C500711,69352.1 500659,69404.4 500640,69449.2C500620,69494.1 500620,69556.8 500626,69596.2C500632,69630.7 500658,69660.7 500681,69689.5" style="fill:rgb(67,14,0);fill-opacity:0.9;"/>
                </g>
                <g transform="matrix(4.9178,0,0,3.58691,-1.64495e+06,114715)">
                    <path d="M501489,69692C501486,69664 501457,69629.5 501436,69612.3C501416,69596.2 501388,69587.7 501363,69589.1C501333,69590.8 501292,69609.3 501257,69622.3C501215,69637.8 501161,69671.5 501114,69682C501069,69692.1 501008,69670.4 500975,69685.3C500943,69699.7 500919,69750 500915,69771.6C500912,69790.1 500934,69808 500952,69814.7C500982,69826.3 501059,69834.6 501098,69841.3C501126,69846.2 501155,69854.8 501184,69854.5C501231,69854.2 501336,69852.5 501381,69839.2C501411,69830.3 501438,69804.3 501457,69780.3C501476,69756.7 501493,69720 501489,69692Z" style="fill:rgb(51,43,23);"/>
                </g>
                <g transform="matrix(4.9178,0,0,3.58691,-1.64495e+06,114715)">
                    <path d="M500759,69519.4C500759,69519.4 500709,69485.4 500712,69463.3C500715,69441.2 500743,69386.7 500776,69386.7C500809,69386.7 500876,69381.2 500882,69396.6C500888,69412.1 500833,69459.1 500812,69479.6C500797,69495.2 500759,69519.4 500759,69519.4Z" style="fill:rgb(140,121,88);"/>
                </g>
            </g>
            <g transform="matrix(0.879016,0,0,1,95098.9,2.18279e-11)">
                <g transform="matrix(4.9178,0,0,3.58691,-1.64495e+06,114715)">
                    <path d="M493721,68417L493615,68543.1L493542,68592.8L493529,68655.9L493406,68884.8L493416,68944.6L493330,68984.4L493257,69103.8C493257,69103.8 493251,69236.5 493224,69283C493196,69329.5 493118,69339.4 493091,69382.5C493064,69425.7 493068,69511.9 493075,69552C493080,69587 493130,69622.9 493130,69622.9L493171,69707.7L493229,69828.9C493229,69828.9 493290,69925.3 493331,69957.2C493363,69982.5 493402,70006.5 493440,70015.2C493482,70025.2 493619,69989.8 493619,69989.8C493619,69989.8 493730,69962.7 493778,69959.9C493821,69957.4 493907,69973.2 493907,69973.2C493907,69973.2 494004,69959.8 494052,69963.1C494083,69965.3 494123,69977.5 494159,69982.4C494210,69989.4 494322,70001.2 494361,70005C494412,70009.9 494472,70004.5 494514,70005.4C494567,70006.6 494649,69998 494707,70000C494769,70002.2 494845,69985.7 494909,69986.4C494957,69987 495022,69983.5 495095,69986C495172,69988.7 495257,69997.2 495312,69993.5C495391,69988.1 495466,69962.3 495543,69943.3C495606,69927.6 495661,69894.6 495720,69862.2C495791,69823.8 495908,69757.9 495967,69712.6C496016,69674.3 496077,69581.6 496077,69581.6C496077,69581.6 496144,69521.9 496173,69518.6C496203,69515.3 496273,69472.2 496299,69441C496321,69415.8 496332,69365 496335,69331.2C496338,69291.4 496328,69171.5 496328,69171.5C496328,69171.5 496323,69092.7 496309,69054.1C496294,69009.1 496236,68901.4 496236,68901.4C496236,68901.4 496147,68835.1 496120,68818.5C496094,68801.9 495981,68758.7 495981,68758.7L495881,68702.3L495629,68612.7L495447,68493.3L495234,68417L495009,68373.8L494856,68297.5L494554,68224.5L494116,68201.3L493901,68231.2L493715,68300.8L493721,68417Z" style="fill:rgb(50,39,14);fill-opacity:0.93;"/>
                </g>
                <g transform="matrix(4.9178,0,0,3.58691,-1.64495e+06,114715)">
                    <path d="M495123,69986.5C495253,70005.2 495397,69990.6 495525,69949.2C495664,69904.2 495862,69781.9 495957,69716.9C496014,69677.5 496040,69603.9 496094,69559.3C496153,69509.5 496276,69495 496314,69418.3C496351,69341.5 496331,69185.3 496318,69098.9C496307,69027.8 496235,68899.8 496235,68899.8C496235,68899.8 495818,69186 495667,69273.1C495559,69334.8 495424,69370.6 495326,69422.4C495240,69468.3 495161,69527.3 495082,69584.2C494985,69653.3 494739,69770.1 494746,69837.2C494753,69904.2 494993,69967.8 495123,69986.5Z" style="fill:rgb(52,49,41);"/>
                </g>
                <g transform="matrix(4.9178,0,0,3.58691,-1.64495e+06,114715)">
                    <path d="M493696,68464.3C493696,68464.3 493886,68365 493987,68377.2C494134,68395.2 494391,68530.7 494580,68572.1C494756,68610.9 494975,68607.4 495119,68626.1C495228,68640.2 495338,68652.7 495443,68684.1C495551,68716.6 495689,68769.9 495770,68821C495836,68862.6 495888,68955.7 495932,68991.1C495961,69014.2 496035,69032.9 496035,69032.9L496237,68895.7C496237,68895.7 496057,68775.8 495981,68733.3C495911,68693.9 495824,68679.3 495754,68640.9C495681,68600.8 495598,68550.3 495525,68518.2C495459,68488.8 495384,68467.8 495318,68448.4C495256,68430.3 495204,68415 495131,68402.1C495053,68388.2 494954,68330.7 494864,68301.8C494768,68271.3 494663,68234.3 494559,68219.6C494436,68202.1 494242,68193.3 494122,68196.8C494028,68199.6 493915,68209.6 493841,68240.7C493797,68258.9 493723,68286.8 493701,68320.6C493678,68354.5 493696,68464.3 493696,68464.3Z" style="fill:rgb(89,78,55);fill-opacity:0.95;"/>
                </g>
                <g transform="matrix(4.9178,0,0,3.58691,-1.64495e+06,114715)">
                    <path d="M493311,69322.9C493322,69365 493293,69424.8 493308,69469.6C493330,69532.1 493405,69643.3 493440,69697.9C493458,69726.8 493485,69763.4 493516,69778.3C493546,69792.8 493696,69836.2 493829,69876C493950,69912.1 494041,69958.7 494041,69958.7C494041,69958.7 493866,69978 493760,69986.1C493734,69988.1 493684,69975 493637,69980.9C493548,69992 493449,70022.2 493406,70007.2C493340,69984.4 493280,69898 493240,69845.5C493206,69800.2 493184,69736.2 493165,69692C493150,69655.8 493092,69595.8 493080,69550.4C493067,69503.8 493064,69456.2 493082,69396C493097,69349.5 493246,69220.6 493246,69220.6C493246,69220.6 493300,69280.7 493311,69322.9Z" style="fill:rgb(44,36,17);"/>
                </g>
                <g transform="matrix(4.9178,0,0,3.58691,-1.64495e+06,114715)">
                    <path d="M495112,69980.7C495112,69980.7 495031,69827.2 495019,69766.7C495010,69717.4 495043,69667.5 495040,69617.3C495036,69553.8 494999,69439 494995,69385.1C494990,69331.2 494978,69157 494978,69157C494978,69157 494932,69082.3 494887,69078.2C494841,69074 494785,69071.2 494754,69045C494723,69018.7 494717,68934.4 494659,68924.7C494600,68915 494447,68966.2 494401,68986.9C494356,69007.6 494236,68995.2 494140,69024.2C494045,69053.3 493887,69061.6 493783,69127.9C493680,69194.3 493609,69302.1 493572,69376.8C493535,69451.4 493551,69472.1 493535,69517.8C493515,69573.1 493443,69650.5 493452,69708.6C493460,69766.7 493465,69799.9 493501,69816.4C493563,69844.8 493752,69873.1 493821,69878.6C493875,69883 493917,69932.9 493970,69945C494061,69965.7 494234,69998.9 494368,70003.1C494444,70005.4 494576,70002.4 494708,69997.9C494910,69991 495112,69980.7 495112,69980.7Z" style="fill:rgb(44,24,9);fill-opacity:0.9;"/>
                </g>
            </g>
            <g>
                <g transform="matrix(4.9178,0,0,3.58691,-1.64495e+06,114715)">
                    <path d="M496920,69856.2C496931,69821.3 497006,69710.3 497063,69667.8C497109,69633.9 497267,69588.6 497267,69588.6C497267,69588.6 497395,69596.3 497444,69613C497492,69629.6 497561,69674.5 497562,69711.8C497562,69748.3 497529,69802.7 497491,69827.4C497448,69855.8 497367,69875.2 497302,69881.8C497221,69890.1 497002,69877.2 497002,69877.2C497002,69877.2 496912,69883.6 496920,69856.2Z" style="fill:rgb(83,84,81);fill-opacity:0.9;"/>
                </g>
                <g transform="matrix(4.9178,0,0,3.58691,-1.64495e+06,114715)">
                    <path d="M497544,69738.3C497544,69738.3 497452,69739.7 497429,69746.5C497406,69753.3 497370,69766.2 497341,69780.5C497311,69794.7 497278,69824 497249,69832.1C497221,69840.3 497171,69849.8 497152,69857.9C497142,69861.8 497123,69880.6 497133,69881C497160,69882.2 497244,69889.2 497313,69884C497341,69881.9 497367,69871 497385,69867.4C497442,69856.6 497481,69828.9 497514,69807.6C497536,69794.2 497557,69745.1 497557,69745.1L497544,69738.3Z" style="fill:rgb(40,37,18);"/>
                </g>
            </g>
            <g transform="matrix(0.915193,0,0,1,69170.4,2.18279e-11)">
                <g transform="matrix(4.9178,0,0,3.58691,-1.64495e+06,114715)">
                    <path d="M498934,68363.9L498825,68380.5L498679,68473.4L498569,68513.2L498446,68645.9L498407,68665.8L498314,68675.8L497982,68901.4L497969,69020.9L497939,69127L497829,69286.3L497759,69382.5L497647,69419L497544,69455.5L497484,69535.2L497474,69594.9L497524,69684.5L497560,69734.3L497620,69813.9L497803,69830.5L497919,69940L498048,69983.1L498251,69976.5L498546,69993.1L498845,69969.8L498994,69963.2L499103,69996.4L499170,69946.6L499435,70006.3L499574,70029.6L499684,70046.2L499953,69930L500042,69847.1L500109,69784L500265,69671.2L500341,69545.1L500295,69369.3L500225,69246.5L500288,69107.1L500265,68981.1L499936,68685.7L499631,68417L499498,68324.1L499385,68261L499223,68247.8L499083,68257.7L498934,68363.9Z" style="fill:rgb(57,37,25);fill-opacity:0.89;"/>
                </g>
                <g transform="matrix(4.9178,0,0,3.58691,-1.64495e+06,114715)">
                    <path d="M498021,69484.9C498079,69529.9 498118,69590.5 498125,69649.9C498130,69698.4 498100,69752.6 498109,69788.4C498118,69822.1 498180,69865 498180,69865L498252,69998.1C498252,69998.1 498171,70012 498093,69997C498021,69983.1 497952,69940.6 497917,69930.9C497864,69916.3 497846,69858.2 497789,69839.8C497768,69833 497697,69829.2 497662,69826C497636,69823.6 497578,69820.4 497578,69820.4C497578,69820.4 497580,69727.3 497563,69695C497547,69666 497476,69626.3 497476,69626.3C497469,69534.8 497488,69494.6 497536,69455.1C497561,69435.3 497637,69446.3 497691,69432.8C497748,69418.3 497781,69380 497781,69380C497781,69380 497964,69439.9 498021,69484.9Z" style="fill:rgb(62,56,38);"/>
                </g>
                <g transform="matrix(4.9178,0,0,3.58691,-1.64495e+06,114715)">
                    <path d="M499291,68310.7C499248,68275 499090,68292.3 499012,68310.7C498941,68327.4 498887,68385.4 498824,68420.9C498760,68456.5 498692,68485.2 498630,68524.6C498562,68567.8 498473,68647.7 498416,68680.1C498376,68702.3 498327,68681.5 498286,68700.4C498218,68731.7 498047,68831.9 497994,68894.6C497945,68953.2 497998,69023.8 497969,69094.8C497953,69133.4 497922,69205.6 497886,69252C497846,69304.3 497801,69330.2 497807,69360.6C497816,69417.8 497966,69421 498027,69438.3C498073,69451.6 498128,69488.3 498169,69464.2C498284,69398.4 498565,69161.8 498714,69043C498833,68948.4 498972,68837.8 499064,68751.4C499137,68682.2 499227,68598 499265,68524.6C499298,68460.7 499333,68346.3 499291,68310.7Z" style="fill:rgb(37,9,16);fill-opacity:0.55;"/>
                </g>
                <g transform="matrix(4.9178,0,0,3.58691,-1.64495e+06,114715)">
                    <path d="M499631,68417C499631,68417 499320,68603.8 499206,68693C499110,68768.4 499036,68868.6 498947,68952.3C498856,69037.6 498767,69132.9 498662,69205C498537,69291.4 498271,69401.6 498195,69470.7C498159,69504.4 498199,69570.7 498208,69619.8C498223,69702.9 498175,69926.5 498286,69969.7C498362,69999.2 498467,69980.4 498624,69971.8C498766,69964 498958,69967.5 499053,69970C499102,69971.4 499145,69947.6 499202,69951.2C499301,69957.6 499415,69993.2 499479,70002.1C499544,70011.4 499608,70051.5 499673,70041C499766,70026 499959,69968.2 500038,69912C500101,69867.4 500146,69704 500146,69704C500146,69704 500296,69665.4 500312,69599.5C500323,69557 500325,69483.8 500301,69414.3C500288,69376.1 500247,69339 500243,69308.7C500233,69228.4 500313,69186.4 500282,69111.4C500244,69018.5 500109,68850.5 500016,68751.4C499917,68645.5 499694,68463 499694,68463L499631,68417Z" style="fill:rgb(53,27,0);fill-opacity:0.82;"/>
                </g>
                <g transform="matrix(4.9178,0,0,3.58691,-1.64495e+06,114715)">
                    <path d="M500052,68790.5C500052,68790.5 499925,68935 499900,68997.6C499879,69049.7 499922,69114.5 499900,69166.1C499872,69232 499786,69316.1 499731,69393C499676,69470.7 499564,69560.4 499569,69632.7C499575,69705.1 499678,69799.1 499764,69827.2C499849,69855.2 500008,69823.9 500081,69801.2C500134,69785 500166,69731 500204,69691.1C500245,69647.9 500320,69606 500328,69542C500336,69471.8 500271,69362.4 500256,69269.8C500251,69239.4 500287,69195.4 500288,69164.9C500290,69119.6 500291,69052.4 500268,68998.1C500234,68918.7 500052,68790.5 500052,68790.5Z" style="fill:rgb(48,50,46);"/>
                </g>
            </g>
            <g>
                <g transform="matrix(4.9178,0,0,3.58691,-1.64495e+06,114715)">
                    <path d="M492560,68035.1L492663,68005.5L492729,67992.3C492729,67992.3 492724,67965.8 492733,67965.7C494048,67954.1 499250,67921.7 500620,67922.6C500732,67922.7 500953,67971.3 500953,67971.3L500718,67989.1C500725,67996.4 500131,68007.6 499770,68007.6C499137,68007.6 497028,68030.1 497028,68030.1L494489,68035.5C494489,68035.5 493408,68054.4 493087,68054.4C492908,68054.3 492560,68035.1 492560,68035.1Z" style="fill:rgb(114,106,77);"/>
                </g>
                <g transform="matrix(4.9178,0,0,3.58691,-1.64495e+06,114715)">
                    <path d="M492666,68038.7C492626,68038.4 492550,68027.7 492547,68038.7C492544,68049.8 492594,68086.5 492620,68108.4C492658,68141 492721,68210.1 492776,68234.5C492844,68264.9 493006,68272.6 493061,68287.6C493080,68292.7 493108,68324.1 493108,68324.1L500301,68294.2C500301,68294.2 500516,68268.4 500600,68257.7C500704,68244.4 500819,68245.5 500908,68237.8C500985,68231.2 501137,68211.3 501137,68211.3C501137,68211.3 501271,68200.7 501287,68184.7C501303,68168.7 501260,68126.8 501234,68115C501187,68094.6 501080,68066.4 501028,68038.7C500987,68017 500993,67979 500948,67969C500903,67959.1 500759,67979 500759,67979C500759,67979 500489,67994.3 500354,67995.6C499860,68000.2 498334,68009.8 497176,68016.9C496385,68021.8 495765,68025.4 495765,68025.4L492955,68042C492955,68042 492734,68039.3 492666,68038.7Z" style="fill:rgb(61,63,63);"/>
                </g>
            </g>
        </g>
        <g transform="matrix(37.4183,0,0,65.9289,-580245,264717)">
            <g>
                <g>
                    <g transform="matrix(0.131428,0,0,0.0544057,35063.5,-747.772)">
                        <path d="M31113.3,29691.4C31018.7,29679.9 30911.5,29685.1 30794.4,29703.5C30794.4,29703.5 30797.2,29591.6 30796,29566.9C30795.7,29561.8 30792.2,29556.4 30787.3,29557.7C30757.6,29566 30717.3,29566.2 30669.4,29546.8C30630.1,29530.9 30593.6,29482.8 30567.8,29448.9C30543.2,29416.6 30520.7,29376.2 30510.9,29338.9C30501.3,29302.2 30505.6,29258.4 30509,29225.1C30512,29195.7 30525.6,29164.7 30527.7,29133.7C30530.3,29094.4 30520.9,29027.1 30519.3,28978.9C30517.4,28924.2 30510.3,28853 30523,28801.7C30535.5,28751.3 30575.7,28696 30611.8,28661.8C30645.5,28629.9 30693.6,28608.6 30739.9,28596.3C30793.7,28582 30875.1,28572.3 30939.9,28576C31004.7,28579.7 31083.4,28602.3 31134.8,28619.8C31210,28645.5 31261.1,28693.2 31309.2,28746.7C31357.6,28800.6 31379.5,28918.9 31376.3,28975.2C31373.4,29027 31368.6,29054.7 31365.1,29088C31363.5,29104.2 31354.9,29137.4 31354.9,29137.4C31373.8,29152.1 31392.6,29200.1 31393.1,29225.1C31393.7,29257.6 31387.5,29290.2 31374.5,29317.4C31364.7,29337.8 31335.3,29367.5 31316.6,29378C31300.9,29386.9 31262.6,29380.8 31262.6,29380.8C31262.6,29380.8 31256,29387.3 31256,29387.3C31256,29387.3 31220.4,29439 31202,29457.3C31185.6,29473.8 31161.4,29488.2 31145.8,29497.3C31131,29505.9 31119.8,29504 31112.2,29508.6C31108.6,29510.8 31100.8,29512 31099.5,29514.3C31097.6,29517.6 31099.5,29523.1 31099.8,29526.2C31100.8,29540.1 31105.8,29574.8 31108.7,29610.5C31112,29650.7 31113.3,29691.4 31113.3,29691.4Z" style="fill:rgb(89,60,24);"/>
                    </g>
                    <g transform="matrix(0.131428,0,0,0.0544057,35063.5,-747.772)">
                        <path d="M30571.1,29115.7L30525.9,29054C30525.9,29054 30496,28864.2 30525.3,28789.5C30554.6,28714.8 30621.3,28633.3 30700.7,28609.5C30751.9,28594.1 30820.9,28576.9 30899.3,28577.1C30968.2,28577.3 31045.9,28592.7 31101.7,28611.3C31052.9,28607.3 31000.5,28602.8 30956.2,28602.5C30882.1,28601.9 30820.6,28608.8 30765.9,28631.9C30711.2,28654.9 30664.4,28690.9 30627.9,28741C30591.4,28791 30560.8,28867.9 30557,28930.3C30554.8,28967.1 30556.3,28994 30558.8,29024.6C30560.9,29050.2 30564.7,29074.5 30571.1,29115.7Z" style="fill:rgb(130,85,26);"/>
                    </g>
                    <g transform="matrix(0.0452053,0.0136469,-0.0479455,0.0272155,38682,-149.881)">
                        <path d="M31163.2,19596.4C31163.2,19596.4 31000,19646.4 30851.8,19690.8C30777.8,19713 30614.6,19796.4 30498,19883C30407.4,19950.3 30380.6,19982.3 30345.1,20041.3C30309.9,20099.7 30284,20171.3 30284.9,20236.9C30285.7,20302.5 30320.9,20382.4 30350.2,20435C30374.8,20479 30693.8,20727.5 30693.8,20727.5L30926.3,20771.7C30926.3,20771.7 30618.4,20430.5 30610.2,20419.3C30607.3,20415.3 30600.4,20415.9 30596.7,20417.6C30586.5,20422.3 30559.6,20449.1 30548.8,20447.7C30534.5,20445.7 30524.6,20428.2 30515.8,20411.2C30505.9,20392.1 30502.3,20373.1 30491,20342.8C30478.1,20308.7 30469.3,20284.9 30477.8,20278C30488.8,20268.9 30506.4,20275.7 30520.8,20282.2C30529.7,20286.2 30537.8,20286.7 30537.8,20286.7C30537.8,20286.7 30551.8,20289.8 30561,20284.2C30568.8,20279.4 30580.6,20265.9 30585.6,20258.5C30593.5,20247 30596.9,20234.2 30608.1,20215C30629.6,20177.9 30639.1,20110.3 30649,20067.4C30656.8,20033.2 30652.4,19989.3 30667.3,19957.5C30682.3,19925.6 30715.6,19892.7 30748.5,19870.9C30781.4,19849.1 30828.6,19832.6 30864.7,19826.6C30880,19824 30900.7,19819.1 30916.8,19819.3C30930.9,19819.4 30961.8,19827.5 30961.8,19827.5L31163.2,19596.4Z" style="fill:rgb(178,19,13);stroke:black;stroke-width:2.05px;"/>
                    </g>
                    <g transform="matrix(0.131428,0,0,0.0544057,35063.5,-747.772)">
                        <path d="M30576.1,29177.8C30574.8,29170.6 30574.7,29157.5 30572.9,29143.9C30570.5,29125.5 30568.5,29101.1 30565.6,29077.7C30563.3,29058.7 30559.8,29041.1 30558.3,29022.2C30553,28955.3 30553.7,28891.3 30586,28815C30614.7,28747 30666.7,28681.5 30735.7,28645.9C30804.8,28610.3 30864.2,28603.6 30932.2,28602.7C30998.6,28601.9 31109.2,28599.6 31174.4,28634.9C31246.8,28674.1 31309,28749.1 31338.5,28800.4C31365.3,28846.9 31371.1,28882.6 31375.3,28927.8C31379.6,28972.5 31367.9,29016.8 31365.5,29044.8C31362.2,29084.7 31357.1,29109.5 31350.1,29146.5C31342.3,29187.9 31324.1,29237.2 31302.6,29289.1C31282.5,29337.9 31284.1,29337.3 31267.8,29371.4C31253,29402.5 31223.2,29439.9 31193.1,29466.1C31162.1,29493 31145.7,29499.6 31127.6,29507.4C31115.1,29512.8 31092.5,29517.9 31084.4,29513C31081.1,29510.9 31076.7,29508.3 31074.9,29505.6C31073.3,29502.9 31075,29499.5 31072.3,29499.5C31069.8,29499.4 31066.3,29502.1 31061.6,29504.6C31059.5,29505.7 31055.5,29506.7 31053.9,29508.3C31050.8,29511.3 31045.3,29514.4 31038.9,29516.6C31025.8,29521 31006.9,29519.7 30993.3,29520.1C30969,29520.7 30931.3,29517.9 30901.5,29510.1C30871.3,29502.3 30838.2,29491.5 30812.1,29473.2C30782.2,29452.2 30742.7,29408.3 30724.3,29389C30715.9,29380.2 30701.7,29357.5 30701.7,29357.5L30697.8,29347C30697.8,29347 30695.6,29355 30692.2,29355.5C30687.5,29356.2 30672.2,29356.4 30668.1,29354.2C30664.7,29352.5 30664.6,29346.2 30665.8,29342.6C30668.3,29334.9 30681.7,29320.7 30689.2,29302.1C30698.5,29279.2 30701.4,29269.4 30702,29252.2C30702.5,29238.1 30706,29205.7 30703.9,29180.4C30702,29157.9 30696.6,29150.1 30690.3,29139.1C30684.6,29129.1 30679.3,29118.3 30666.1,29114.3C30648.1,29108.7 30637.5,29109.5 30626.3,29117.5C30615.2,29125.5 30594.7,29160 30585.9,29173.2C30583.4,29176.9 30576.7,29181.3 30576.1,29177.8Z" style="fill:rgb(38,24,7);"/>
                    </g>
                </g>
                <g>
                    <g transform="matrix(0.131428,0,0,0.0544057,35063.5,-747.772)">
                        <path d="M31436.5,31082.1C31436.5,31082.1 31437.6,31165.1 31438.8,31205.8C31440.2,31253.5 31417.3,31309.3 31375.4,31328C31352.3,31338.3 31311.9,31352.7 31271.1,31359.9C31197,31372.9 31110.5,31375.3 31047.1,31380.2C30960.3,31387 30878.3,31380.8 30785.8,31373.9C30669,31365.2 30526.4,31344.5 30414.8,31309.3L30412.5,30961.2C30412.5,30961.2 30466.5,31023.9 30491.4,31045.8C30512.9,31064.7 30538.9,31077.3 30565.3,31090.1C30598.3,31106.1 30636.8,31124.5 30687.9,31139.6C30750.2,31158 30835.8,31168.1 30896.4,31171.9C31016.5,31179.4 31156.4,31169.1 31245.1,31147.5C31314.4,31130.6 31381.4,31111.3 31436.5,31082.1Z" style="fill:rgb(33,21,6);"/>
                    </g>
                    <g>
                        <g transform="matrix(0.131428,0,0,0.0544057,35063.5,-747.772)">
                            <path d="M31454.8,31037C31453.9,31017.7 31450.7,30988.5 31450.5,30949.4C31450.5,30945 31450.2,30926.8 31450.2,30926.8C31453.2,30925.8 31478.8,30910.7 31491.6,30899.7C31504.6,30888.7 31522,30871.2 31527.7,30860.7C31534.4,30848.6 31546.5,30833.6 31553.1,30818.5C31561.1,30800.2 31570.9,30775.4 31575.9,30750.8C31585.2,30705.5 31587.2,30654.2 31583.2,30588.8C31572.6,30417.9 31557.1,30301.3 31536.8,30191.7C31520.4,30102.8 31502.3,30003.4 31461.7,29931.2C31444.6,29900.7 31415.1,29856.9 31383.4,29826C31338.9,29782.7 31326.6,29773.8 31292.6,29756.6C31272.2,29746.3 31247,29731 31218.4,29720C31185,29707.1 31147.7,29698.8 31118.4,29692.3C31068.9,29681.2 31023.6,29682.1 30966.4,29683.5C30905,29685 30840.8,29692.6 30793.8,29703.3C30753.2,29712.5 30715.9,29733.2 30678.6,29749C30642.6,29764.3 30603.3,29786.8 30573.5,29815.6C30536.5,29851.3 30473.1,29907.9 30456.6,29963.3C30429,30055.9 30408.6,30235.8 30400.5,30373.2C30390.8,30539.6 30405.7,30955.9 30405.7,30955.9C30405.7,30955.9 30462.3,31034.5 30502.3,31059.7C30553.3,31092 30638.1,31132.5 30712,31149.6C30791.6,31168 30824.5,31173.1 30943,31177.1C31045.4,31180.6 31150.2,31168.3 31214.7,31156.3C31288.9,31142.6 31393.5,31111.4 31430.2,31087.3C31440,31080.8 31448.3,31075.1 31452.8,31066.1C31458.1,31055.3 31455.2,31046.5 31454.8,31037Z" style="fill:rgb(47,47,47);"/>
                        </g>
                        <g transform="matrix(0.131428,0,0,0.0544057,35063.5,-747.772)">
                            <path d="M30936.5,31002.9C30936.5,31002.9 31026.1,30980.1 31063.1,30966.9C31096,30955.1 31127.1,30938.9 31158.5,30923.7C31193.5,30906.7 31239.7,30883.1 31263,30868.5C31273.9,30861.7 31289.3,30845 31298.4,30836C31310.2,30824.4 31344.1,30795 31344.1,30795C31344.1,30795 31307.9,30876.5 31276,30906C31241.5,30937.8 31188.5,30971.5 31137,30986.2C31080.5,31002.3 30995.5,31008.6 30936.5,31002.9Z" style="fill:rgb(43,28,8);"/>
                        </g>
                        <g transform="matrix(0.131428,0,0,0.0544057,35063.5,-747.772)">
                            <path d="M31450.3,30919.1C31450.3,30919.1 31470.5,30855.9 31473.6,30823C31477.6,30779.5 31478.3,30712.9 31474.5,30658C31467.7,30558.8 31432.5,30228 31432.5,30228C31432.5,30228 31435.2,30556.5 31436.3,30645.9C31436.8,30685.3 31437,30724.9 31439.1,30764.3C31441.4,30809.8 31450.3,30919.1 31450.3,30919.1Z" style="fill:rgb(33,21,6);"/>
                        </g>
                        <g transform="matrix(0.131428,0,0,0.0544057,35063.5,-747.772)">
                            <path d="M30458.1,30963.1C30458.1,30963.1 30484.6,30949.4 30504.1,30929.2C30526.5,30906.1 30543,30875 30555.9,30854.1C30579.9,30815 30588.4,30778.2 30602.4,30728.4C30609.1,30704.7 30615,30680.1 30620,30655.7C30643,30542.8 30680.4,30201.3 30680.4,30201.3C30680.4,30201.3 30683.9,30311.4 30683.1,30422C30682.9,30450.4 30682.8,30479 30682.5,30506C30682,30553.7 30681.2,30596.5 30679.4,30625.2C30674.6,30703.1 30656.8,30792.1 30632.7,30856.4C30609.4,30918.3 30542.3,30971.3 30458.1,30963.1Z" style="fill:rgb(35,23,7);"/>
                        </g>
                        <g transform="matrix(0.131428,0,0,0.0544057,35063.5,-747.772)">
                            <path d="M30782.6,29706.4C30736.7,29718.2 30688.7,29744 30655.2,29761.1C30629.1,29774.4 30608.3,29787.1 30581.6,29809C30560.3,29826.5 30530.7,29854.3 30512.7,29876C30512.7,29876 30537.8,29868.9 30547.8,29863.3C30558,29857.6 30572.2,29840.7 30582.8,29834.9C30608.7,29820.9 30664.4,29796.6 30694.8,29781.2C30716.1,29770.4 30752.6,29751.3 30768.6,29739.4C30779.7,29731.3 30782.6,29706.4 30782.6,29706.4Z" style="fill:rgb(192,54,44);"/>
                        </g>
                    </g>
                </g>
            </g>
            <g>
                <g>
                    <g transform="matrix(0.131428,0,0,0.0544057,35063.5,-747.772)">
                        <path d="M29746.9,29741.6C29741.9,29722.3 29739.1,29696.7 29737.1,29676.8C29735,29655.7 29736.7,29624.6 29733.1,29611.3C29731.1,29604 29721.3,29598.8 29712.7,29601.1C29658.9,29615.4 29510.3,29560.1 29489.7,29388.3C29489.7,29388.3 29459.9,29308.3 29458.6,29268.8C29457.8,29245.3 29462.4,29219.2 29469,29195.4C29473.5,29179.2 29479.8,29163.8 29482.9,29152.1C29488.9,29129.4 29489.3,29114.4 29479.4,29098.6C29469.7,29083.3 29455.9,29064.9 29453.3,29045.9C29448.5,29011.7 29441.8,28940.9 29453.6,28890.4C29466.2,28836.2 29503.6,28740.1 29552.4,28702C29589.9,28672.7 29630,28637.2 29686.6,28610.4C29739.4,28585.5 29797.1,28569.2 29845.8,28561.4C29894.3,28553.7 30001.3,28546.8 30050.7,28557.7C30097.2,28568 30128.6,28580.9 30158.6,28594.2C30221,28621.9 30251.9,28649.8 30262.5,28672.9C30265.9,28680.2 30262.2,28692.5 30269.1,28698.8C30283.1,28711.5 30320.8,28727.5 30351.8,28756.2C30385.5,28787.5 30411.1,28826.4 30423.8,28860.8C30449.3,28930.3 30455.2,29049.3 30432.5,29133.3C30420.3,29178.6 30395.5,29250 30359.8,29305C30325.3,29358.1 30310.7,29370 30279.5,29395.6C30233.7,29433.2 30197.1,29480 30158.5,29535.3C30123.6,29585.2 30124.9,29737.6 30124.9,29737.6C30132,29726.2 29969.5,29718.1 29969.5,29718.1C29969.5,29718.1 29911.1,29718.8 29882.5,29719.6C29835.5,29721 29788.9,29733.1 29746.9,29741.6Z" style="fill:rgb(150,88,39);"/>
                    </g>
                    <g transform="matrix(0.128923,-0.0105702,0.0213795,0.0446851,34703,247.014)">
                        <path d="M29512.2,20142C29503.9,20130.6 29491.6,20107.7 29491.3,20088.6C29490.7,20056.5 29508.7,19949.7 29508.7,19949.7C29508.7,19949.7 29516.5,19909.7 29525.1,19887.2C29544.7,19836.2 29575.5,19781.1 29597.7,19755.3C29610.6,19740.4 29627.7,19720.2 29649.2,19704C29682.9,19678.7 29715.3,19661.2 29761,19640C29815.6,19614.5 29900.6,19600.6 29969.1,19601.4C30033.8,19602.1 30102.5,19612.1 30171.8,19644.6C30238.4,19675.9 30295.6,19734.2 30295.6,19734.2C30295.6,19734.2 30240.5,19698.4 30175.4,19677C30120.5,19658.9 30062.2,19654.4 30057.7,19654C29976,19647.2 29928.1,19656.9 29892.4,19665.4C29869.9,19670.7 29762.5,19720.7 29726.8,19751.8C29701.5,19773.8 29668.4,19811.2 29637.4,19866.9C29625.1,19889 29608.4,19935 29599.4,19975.4C29593.9,19999.7 29594,20016.3 29591.6,20040.3C29587.1,20084.4 29586,20144.4 29586,20144.4C29586,20144.4 29564.9,20170.5 29551.7,20169.1C29538.5,20167.8 29521.6,20154.8 29512.2,20142Z" style="fill:rgb(178,19,13);stroke:black;stroke-width:1.18px;"/>
                    </g>
                    <g transform="matrix(0.131428,0,0,0.0544057,35063.5,-747.772)">
                        <path d="M29489.7,29388.3C29492.2,29318.1 29511.7,29241.2 29525.4,29197.8C29528.3,29188.9 29531.3,29171.6 29530.1,29161.5C29528.7,29150.6 29524.8,29146.5 29520.5,29137.9C29516.2,29129.3 29513.7,29113.4 29510.5,29107.4C29508.8,29104.2 29503.4,29104.7 29500,29103.3C29496.2,29101.6 29491.9,29101.1 29487.7,29097.7C29477.4,29089.4 29462.7,29072.5 29462.7,29072.5C29462.7,29072.5 29474.9,29091.8 29481.6,29102.7C29488.5,29113.9 29486.4,29129.6 29484.2,29144.7C29482.7,29154.5 29476.1,29167 29471.7,29181.7C29464.1,29207.3 29457.7,29238.2 29458.3,29263.1C29459.2,29303.1 29489.7,29388.3 29489.7,29388.3Z" style="fill:rgb(217,163,94);"/>
                    </g>
                    <g transform="matrix(0.131428,0,0,0.0544057,35063.5,-747.772)">
                        <path d="M29941.3,29193.4C29965.7,29226.2 30006.9,29258.9 30032.1,29276.1C30046.8,29286 30075.2,29297.8 30092.9,29296.7C30110.8,29295.5 30132.6,29292.2 30149,29283.1C30165.4,29273.9 30180.8,29256.6 30191.4,29241.8C30205.8,29221.4 30235.5,29154 30235.5,29154C30235.5,29154 30223.2,29240.4 30216.2,29266.2C30212.2,29281 30202.1,29295.7 30193.7,29308.8C30183.2,29325.3 30170,29331.2 30170,29331.2C30155.1,29325.2 30137.7,29321.4 30112.4,29323.5C30102.1,29324.4 30084.4,29329.4 30071.3,29337.7C30058.4,29345.8 30045.7,29356.9 30045.7,29356.9C30000.1,29303.3 29967.8,29248.6 29941.3,29193.4Z" style="fill:rgb(53,34,10);"/>
                    </g>
                    <g transform="matrix(0.131428,0,0,0.0544057,35063.5,-747.772)">
                        <path d="M29507,28939C29507.7,28942.2 29511.6,28951.2 29515.4,28968.3C29518.8,28983.5 29523.2,29013.9 29528.1,29031.2C29533.7,29050.9 29542.2,29078.1 29549,29086.5C29551.3,29089.3 29555.3,29078.5 29554.3,29074.1C29546.3,29038.4 29536.4,28964.7 29543.2,28914.9C29550,28865.1 29565.7,28828 29595.1,28775.4C29623.2,28725 29667.9,28695.6 29730.9,28655.5C29788.1,28619 29841,28604.5 29902.8,28592.6C29944.8,28584.5 29970.1,28581.1 30030.6,28582.1C30073,28582.7 30111.6,28588.5 30133.1,28593.5C30175,28603.2 30205.5,28611 30224.9,28630.2C30232.3,28637.5 30247.2,28649.1 30253.1,28659C30261.7,28673.4 30260.3,28685.7 30264.8,28689.2C30271.3,28694.2 30275,28702.3 30281.5,28707.2C30297.3,28719.5 30323.6,28726.4 30360,28762.6C30388.4,28790.9 30409.7,28828.8 30419.3,28852.5C30442,28908.8 30448.1,28957.8 30448.7,29007.6C30449.3,29055.4 30441,29107.5 30428,29153.2C30415.2,29198.3 30402.2,29249 30379.5,29285.9C30367.4,29305.8 30338.4,29339 30323.8,29356.9C30312.8,29370.5 30295.4,29383.8 30289,29390.8C30286.9,29393 30285,29398.9 30285,29398.9C30285,29398.9 30325.3,29412.1 30342,29424C30358.8,29436 30378.1,29461.2 30385.7,29470.7C30413,29504.5 30422.6,29543.4 30430.7,29582.8C30439.9,29627.1 30442.6,29701 30440.5,29736.6C30439.3,29757.3 30433.3,29783.8 30427.1,29793.6C30422.9,29800.3 30408.5,29802.4 30403.5,29796.2C30389.3,29778.5 30341.8,29687.1 30341.8,29687.1C30341.8,29687.1 30336.2,29733.7 30320.2,29790.5C30307.9,29833.9 30287.6,29887.5 30282.4,29906.5C30278.4,29921.1 30267.3,29949.3 30265.8,29964.4C30264.1,29981.1 30279.4,30004.9 30279.4,30004.9C30272.9,30002.9 30265.3,30001.9 30259.9,30000.5C30249.4,29997.8 30241.9,29995.1 30231.7,29990.8C30162,29961.1 30123.8,29917.9 30105.2,29862.4C30103.1,29856.3 30105.1,29844.6 30107.1,29835.6C30108.6,29828.9 30111.9,29823.8 30110.2,29823.7C30108.4,29823.7 30099,29829.6 30096.5,29835.2C30095.2,29838.2 30098.8,29879.6 30087.6,29877.2C30084.9,29876.7 30081.1,29873.5 30076.7,29868.7C30064.6,29855.4 30048.1,29829.6 30039.7,29814.1C30026.6,29790.1 30014.2,29762 30009.3,29731.4C30004.1,29698.8 30001.2,29656.2 30008.6,29618.3C30019.6,29561.1 30048,29515.7 30048,29515.7C30048,29515.7 30024.8,29532.3 29993,29542C29961.7,29551.6 29921.9,29554.3 29898.8,29554.2C29852.9,29554 29791,29537 29761.8,29514.6C29736.1,29494.8 29719,29479.4 29700.5,29456.3C29681.5,29432.4 29656.5,29401 29652,29380.9C29650.8,29375.1 29660.8,29371.7 29664.6,29366.2C29669.8,29358.8 29669.8,29348.8 29673.9,29335.6C29682.9,29306.8 29687.1,29273.3 29684.7,29245.9C29682.3,29219.5 29677.4,29195.9 29659.3,29171C29646.2,29153 29628.2,29150.9 29616.3,29151.1C29604.5,29151.3 29593.9,29163.9 29588.1,29172.4C29580.9,29183.1 29573.1,29219.2 29573.1,29219.2C29573.1,29219.2 29540,29175.4 29531.1,29157C29519.8,29133.6 29506.2,29091.2 29504.6,29069.9C29501.5,29027.7 29504.9,28968.8 29504.9,28968.8L29507,28939ZM29507,28939C29506.8,28938.1 29506.8,28937.6 29507.1,28937.5L29507,28939ZM30193.9,29467.9C30193.9,29467.9 30211.6,29445.2 30212.6,29431.6C30213.8,29414 30213.5,29383.9 30201.5,29362.4C30194.7,29350.3 30183.2,29338 30168.6,29331.1C30157.9,29326 30144.3,29324.9 30135.3,29323.9C30093.9,29319.5 30060.1,29339.8 30039.1,29364.4C30018.4,29388.6 30010.3,29413.2 30012.1,29445.6C30012.9,29461 30019.1,29473.8 30029,29488.7C30037.2,29501.2 30049.4,29512.7 30049.4,29512.7C30049.4,29512.7 30059.3,29497.9 30069.8,29486.5C30080.2,29475.1 30091.2,29467.2 30100.7,29462.3C30119.6,29452.7 30140.1,29453 30163.2,29454.9C30174.3,29455.8 30193.9,29467.9 30193.9,29467.9Z" style="fill:rgb(73,42,0);"/>
                    </g>
                </g>
                <g>
                    <g>
                        <g transform="matrix(0.131428,0,0,0.0544057,35063.5,-747.772)">
                            <path d="M30415.7,30969.8C30476.1,30961.5 30508.4,30924.6 30526.4,30880.9C30551.7,30819.7 30565.5,30696.3 30567.2,30602.6C30569.2,30498.1 30552.9,30351.9 30538.1,30254.3C30525.8,30173.6 30502.4,30077.2 30478.4,30016.8C30459.7,29970 30422.5,29931.2 30395.3,29898.2C30372.6,29870.6 30310.7,29824.6 30310.7,29824.6C30310.7,29824.6 30233.8,29779.8 30149.4,29752.3C30072.2,29727.1 29986.9,29719 29982.6,29718.6C29953.3,29715.9 29922.7,29716.2 29893.2,29717.1C29847.8,29718.4 29803.6,29723 29760,29735.5C29667.7,29762 29587.2,29796.7 29513.7,29853.6C29471.6,29886.1 29437.3,29912.8 29406.3,29971.7C29386.6,30009.2 29359.4,30059.7 29346.1,30108.6C29336.3,30144.8 29316.6,30199.5 29300.6,30252.7C29280.9,30318.3 29267.3,30413.3 29252.8,30491.5C29238.5,30568.1 29212.6,30656 29213.4,30721.9C29213.8,30757.4 29213.1,30802.4 29220.6,30838.1C29225.5,30861.3 29232.9,30891.2 29248.5,30904.2C29268.7,30921 29308.5,30941.4 29341.7,30939.2C29393.7,30935.8 29446.3,30933.1 29446.3,30933.1C29446.3,30933.1 29444.9,30971.4 29450.7,30985.9C29458.6,31005.8 29468.8,31025.2 29481.3,31038.8C29493.2,31051.7 29509.7,31060.1 29525.7,31067.4C29578.8,31091.8 29684.4,31129.6 29816.3,31144.8C29927.5,31157.5 30025.6,31156.8 30125.7,31137.3C30180.4,31126.7 30263.8,31111.1 30326.9,31084.6C30379.3,31062.6 30417.1,31028.1 30417.1,31028.1L30415.7,30969.8Z" style="fill:rgb(63,41,14);"/>
                        </g>
                        <g transform="matrix(0.0694268,0.0461953,-0.111594,0.0287399,39425.3,-993.013)">
                            <path d="M27367.7,21496.8C27358.2,21491.5 27351.1,21484.6 27344.7,21472.6C27334,21452.6 27283.4,21441.2 27271.2,21411.9C27262.1,21390 27249,21361.5 27241.7,21323.8C27233.9,21283.1 27229,21238 27231.6,21196.4C27233,21174.4 27238.6,21123.9 27243.5,21093.4C27248.5,21063.2 27261.3,21013.2 27261.3,21013.2C27261.3,21013.2 27383.2,21018.2 27413.7,20980C27414.4,20979.2 27415,20978.4 27415.7,20977.6C27415.6,20996.8 27415,21003.4 27411.3,21033.1C27407.6,21062.6 27423.5,21059.6 27431.7,21108.9C27434,21123 27435.9,21122 27437.5,21136.6C27441.2,21170 27442.9,21197.3 27450.6,21205.1C27461.6,21216 27457,21221.3 27473.9,21226.9C27521.2,21242.7 27521.4,21244.6 27522,21248.8C27522.4,21251.4 27503.6,21319.5 27468.1,21366.8C27455.2,21384 27471.9,21394.6 27459.4,21396C27434.7,21398.7 27424.6,21375.8 27395.3,21414.9C27366.4,21453.4 27369.4,21475.2 27367.7,21496.8Z" style="fill:rgb(48,21,28);stroke:black;stroke-width:1.09px;"/>
                        </g>
                        <g transform="matrix(0.131428,0,0,0.0544057,35063.5,-747.772)">
                            <path d="M30412.7,30972.1C30412.7,30972.1 30434.6,30976.4 30440.3,30969.1C30447.2,30960.1 30457.1,30945.6 30456.7,30928C30454.4,30840.1 30437.2,30619.1 30426.5,30441.7C30418.5,30310.6 30413.4,30207.3 30413.4,30207.3C30413.4,30207.3 30404.3,30365.7 30404.2,30439.4C30404.1,30566.8 30412.7,30972.1 30412.7,30972.1Z" style="fill:rgb(57,37,11);"/>
                        </g>
                        <g transform="matrix(0.131428,0,0,0.0544057,35063.5,-747.772)">
                            <path d="M29419.6,30926.5L29451,30932.5C29462.8,30932.1 29477.7,30929.9 29487.8,30922.6C29503,30911.7 29514.8,30895.8 29524.1,30880.3C29534.9,30862 29548.5,30829.6 29553,30813.2C29573,30740 29577.2,30680.7 29588.4,30606.3C29604.5,30500.2 29615.5,30354 29619.6,30231.9C29619.6,30231.9 29570.2,30556.7 29554.3,30649.4C29546,30698 29532.7,30755.3 29518.9,30793C29507.2,30824.8 29489.5,30853.2 29471.4,30875.6C29456.2,30894.6 29419.6,30926.5 29419.6,30926.5Z" style="fill:rgb(58,38,12);"/>
                        </g>
                    </g>
                    <g transform="matrix(0.131428,0,0,0.0544057,35063.5,-747.772)">
                        <path d="M29324.8,30936.8C29305.6,30960.8 29284.3,30989.2 29279.4,31016.1C29274.1,31044.9 29267.3,31081.2 29263.1,31114C29257.6,31157.2 29246.3,31275.3 29246.3,31275.3C29246.3,31275.3 29253.6,31283.8 29275.2,31285.4C29291.3,31286.6 29319.5,31279.8 29336.4,31285.1C29351.9,31289.9 29375,31307.5 29391.3,31313.9C29445.8,31335.3 29494.7,31350.4 29533.8,31358.1C29628.1,31376.7 29751.4,31391.5 29880.9,31392.6C30065.1,31394.1 30161,31382.4 30240,31374.4C30279.3,31370.4 30325.1,31356.6 30354.7,31344.5C30378,31334.9 30417.2,31301.6 30417.2,31301.6L30419,31269.9L30415.7,31029C30380.1,31051.8 30343.4,31073.4 30302.4,31088.6C30258.1,31105 30198.3,31118.3 30149.7,31127.5C30049.6,31146.5 29929.3,31154.3 29813.6,31139.5C29752.9,31131.8 29688.8,31118.1 29632.2,31101.5C29585,31087.7 29546.8,31074.4 29505.5,31050.9C29481.5,31037.2 29463.3,31005.3 29454.6,30984.9C29447.3,30968 29452.6,30929.3 29452.6,30929.3L29324.8,30936.8Z" style="fill:rgb(9,13,24);fill-opacity:0.94;"/>
                    </g>
                </g>
            </g>
            <g>
                <g>
                    <g>
                        <g transform="matrix(0.131428,0,0,0.0544057,35063.5,-747.772)">
                            <path d="M28245.9,31006.9C28244.3,30999.4 28241.5,30990.3 28242.8,30978.4C28243.8,30969.5 28244.9,30959.1 28245.3,30954.7C28245.9,30948.3 28250.7,30930.3 28250.7,30930.3C28250.7,30930.3 28219,30926.8 28205.2,30923.9C28192.4,30921.3 28167.6,30913.1 28167.6,30913.1C28134.4,30941.6 28111,30975 28096.4,31004.1C28082.3,31032.1 28074.9,31063 28066.3,31093.4C28048.7,31155.3 28060.8,31291.9 28060.8,31291.9C28060.8,31291.9 28118,31292 28136.1,31293C28149.7,31293.8 28158.7,31290.9 28176.7,31296.9C28187.9,31300.7 28196.4,31308.3 28205,31310.8C28254.3,31325.2 28355.9,31367 28434.5,31375C28490.9,31380.7 28581.2,31391.7 28672.3,31394.8C28785.9,31398.6 28901.5,31393.3 28964.5,31387.9C29021.7,31383 29073,31377 29116.8,31363.8C29157,31351.7 29208.4,31337.3 29231.9,31312.5C29253.5,31289.7 29259,31249.2 29261.2,31217.3C29264.1,31173.6 29250.4,31022.8 29250.4,31022.8C29250.4,31022.8 29240.7,31044.6 29226.5,31061.4C29217.1,31072.5 29207.3,31077.6 29195.2,31083.1C29156.3,31100.4 29100.1,31123.3 28999.3,31144C28920.2,31160.2 28882.4,31161.5 28812.7,31163.4C28741.6,31165.3 28647.9,31159.6 28582.7,31151.5C28528.5,31144.7 28479.5,31133.2 28424.1,31115.3C28393.1,31105.2 28364.1,31093.3 28325.9,31075.2C28302,31063.8 28274.9,31045 28261.5,31033.6C28253.7,31026.9 28248.7,31020.1 28245.9,31006.9Z" style="fill:rgb(41,25,5);stroke:black;stroke-width:1.09px;"/>
                        </g>
                        <g>
                            <g transform="matrix(0.131428,0,0,0.0544057,35063.5,-747.772)">
                                <path d="M28572.2,29704.4C28572.2,29704.4 28515,29716.5 28482.3,29730.1C28438.6,29748.2 28388.6,29767 28317.2,29812.6C28288.3,29831.1 28252.5,29866.2 28222.7,29900.4C28195.6,29931.5 28173.6,29961.2 28163.9,29989.5C28152.4,30022.7 28137.9,30050 28128.9,30094.1L28107.7,30836.2C28108.1,30854.3 28132.1,30890.9 28143.2,30901.8C28149.4,30907.7 28156.8,30912.7 28164.8,30916.1C28174.2,30920.2 28185.2,30924.1 28199.9,30926.4C28222.9,30930 28245.8,30930.3 28247.3,30932.9C28247.3,30932.9 28240,30969.7 28240.1,30991.4C28240.1,30991.9 28239.9,31014.1 28247.2,31024.2C28256.8,31037.6 28265.9,31041.6 28278.4,31049.7C28289.7,31057.1 28299.8,31065.7 28316.4,31074.9C28330.2,31082.5 28348.9,31090.1 28373.5,31100.8C28417.5,31119.9 28470.9,31133.4 28502,31141.4C28567.4,31158.3 28624.2,31162.3 28691.7,31165.7C28740.6,31168.1 28782.4,31168 28826.9,31167.2C28861.2,31166.7 28892.6,31164.8 28926.5,31160.7C28967.8,31155.6 29003.2,31146.7 29034.2,31140.2C29094.3,31127.5 29142.9,31111.3 29187.3,31091.1C29221.3,31075.7 29236.9,31063.9 29250.2,31028L29238.8,30915.2C29238.8,30915.2 29262,30902 29284.3,30879.6C29307.8,30856 29330.8,30822.6 29340,30798.6C29360,30746.5 29355.3,30652.3 29355.1,30612.7C29355,30594.8 29348.5,30576.5 29352.7,30565.6C29357.5,30553.2 29376.5,30538.8 29376.3,30527.2C29374.7,30449.7 29357.6,30190.5 29346.4,30101.4C29341.8,30064.6 29329.8,30039.9 29315,30005.4C29289.6,29946.4 29247.5,29896.2 29212.4,29858.4C29166.6,29809.1 29094.8,29778.7 29041.5,29752.1C29000.6,29731.6 28901.5,29702.2 28901.5,29702.2C28794.1,29695.2 28684.1,29696.7 28572.2,29704.4Z" style="fill:rgb(67,43,13);fill-opacity:0.99;stroke:black;stroke-width:1.09px;"/>
                            </g>
                            <g transform="matrix(0.131428,0,0,0.0544057,35063.5,-747.772)">
                                <path d="M29209.6,30584.6C29252.6,30585.9 29311.4,30582.1 29351,30567.3C29355.9,30619.5 29357.4,30671.8 29353.8,30723.9C29349.9,30778.4 29340.6,30805.1 29321.1,30834.1C29307.8,30854.1 29288.6,30876 29274.2,30888.9C29262.8,30899.2 29238.6,30915.4 29238.6,30915.4C29238.6,30915.4 29220.8,30823.4 29218.8,30778.9C29216.3,30723.7 29209.6,30584.6 29209.6,30584.6Z" style="fill:rgb(101,44,5);stroke:black;stroke-width:1.09px;"/>
                            </g>
                            <g transform="matrix(0.131428,0,0,0.0544057,35063.5,-747.772)">
                                <path d="M29227.5,30581.6C29227.5,30581.6 29227.2,30473 29225.5,30424.9C29224.4,30392.1 29224.2,30328 29221.6,30272.6C29218.4,30206.9 29212.8,30151.9 29212.8,30151.9C29212.8,30151.9 29207.8,30206.5 29205.6,30272.2C29203.7,30325.9 29204.5,30388.8 29204,30421C29203.3,30471.2 29206.6,30582.1 29206.6,30582.1L29227.5,30581.6Z" style="fill:rgb(58,37,11);stroke:black;stroke-width:1.09px;"/>
                            </g>
                            <g transform="matrix(0.131428,0,0,0.0544057,35063.5,-747.772)">
                                <path d="M28289.1,30594.7L28324.5,30165.4L28308.2,30594.6L28289.1,30594.7Z" style="fill:rgb(60,39,12);stroke:black;stroke-width:1.09px;"/>
                            </g>
                            <g transform="matrix(0.131428,0,0,0.0544057,35063.5,-747.772)">
                                <path d="M28309,30595.6C28309,30595.6 28136.9,30595.4 28136.9,30595.4L28120.2,30863.6C28133.5,30912.3 28179.1,30929.3 28248,30931.4C28248,30931.4 28277.7,30843.1 28285.2,30809.2C28291.3,30781.1 28295.4,30754.2 28298.4,30727.4C28302.4,30691.8 28309,30595.6 28309,30595.6Z" style="fill:rgb(101,44,5);stroke:black;stroke-width:1.09px;"/>
                            </g>
                        </g>
                    </g>
                    <g transform="matrix(0.131203,0.00317935,-0.00768034,0.0543127,35215.3,-355.482)">
                        <path d="M28367.2,21235.3C28363.7,21207 28360.1,21178.4 28357.6,21152.5C28355.1,21126.3 28340.6,21106.9 28347.7,21084.4C28354.5,21062.7 28392.9,21049.3 28400.5,21022.4C28411.8,20982.8 28491.4,20939.3 28491.4,20939.3L28554.2,20904.5C28554.2,20904.5 28610.6,20897.7 28617.6,20899.4C28630.7,20902.4 28622.1,20877.8 28630.3,20872C28641.3,20864.2 28683.5,20852.8 28683.5,20852.8C28683.5,20852.8 28679.4,20861 28674.1,20866.2L28646.8,20893.6C28642.1,20898.2 28649.8,20904.2 28629.4,20917.8C28615.7,20926.9 28561.2,20937.3 28547.3,20940.2C28557.6,20950.5 28579.8,20940.9 28578.4,20965.7C28576.9,20990.4 28563.1,20992 28526.8,21001.1C28512.6,21004.7 28509,21003.1 28505.6,21003.6C28498.8,21004.8 28503.2,21007.6 28507.5,21012.9C28514.8,21022.1 28513.3,21029.6 28549.8,21027.9C28558.6,21027.4 28558,21025 28566.6,21024.1C28587.5,21022 28583.5,21014 28605.1,20998.6C28613,20993 28608.5,21024.4 28608.2,21026.6C28600,21045.2 28600,21045 28588.3,21061.4C28562,21098.3 28550.5,21088.2 28524.3,21082.6C28498.4,21077 28468.2,21049.7 28449.7,21062.1C28448.2,21063.1 28448.9,21063.7 28447.2,21064.5C28445,21065.7 28442.7,21070.9 28442.2,21071.4C28425,21088.6 28424.6,21113.4 28419.8,21120.5C28418.3,21122.7 28401.9,21167.4 28401.2,21168.4C28396.8,21174.2 28380.2,21216.3 28367.2,21235.3Z" style="fill:rgb(104,23,20);stroke:black;stroke-width:1.09px;"/>
                    </g>
                    <g transform="matrix(0.131428,0,0,0.0651351,35057.7,-461.798)">
                        <path d="M29009.3,21618.7C28985.7,21624 28959.6,21637.9 28935.9,21639.8C28909.1,21641.9 28848.1,21643.3 28813.3,21643C28786.8,21642.8 28733.1,21641.2 28733.1,21641.2C28733.1,21641.2 28696,21639.5 28680.1,21638.6C28666.2,21637.7 28652.4,21636.8 28638.6,21635.3C28622.9,21633.7 28603,21631.3 28585.8,21628.6C28568.9,21625.9 28552.1,21622.6 28535.4,21618.8C28512.2,21613.5 28474.1,21605.2 28446.2,21596.8C28422.7,21589.7 28406.6,21583 28406.6,21583C28406.6,21583 28425.7,21545.7 28440.8,21515.4C28455,21487 28450.6,21484.8 28496.9,21415.3C28528.8,21367.5 28544.1,21343 28487.8,21331.8C28484.6,21331.1 28440.8,21333.4 28431.7,21319.6C28408.1,21284.3 28441,21273.3 28448.4,21268C28502.5,21229.4 28539.5,21295.1 28566.8,21231.6C28590.7,21175.8 28598.8,21179.3 28610.8,21119.3C28614.1,21102.7 28651,21097.1 28659.4,21055.5C28662.9,21038 28723.5,21056.4 28732.2,21073.7C28735.3,21079.9 28777.4,21101.3 28805.1,21082.9C28861.5,21045.3 28876.6,21135.8 28861.2,21158.7C28859.6,21161.2 28864.1,21162.1 28850.6,21193.7C28845.5,21205.6 28835,21257.8 28833.9,21263.5C28833.3,21266.7 28819.9,21333.4 28846.1,21302.9C28857.3,21289.8 28969.9,21194.9 28991.8,21187.6C29137.5,21139 29140.5,21137.5 29152.7,21131.4C29175.3,21120.1 29228.1,21185.5 29184.5,21219.5C29153.7,21243.4 29155.9,21244.7 29126.9,21271.1C29100,21295.5 29005.2,21338.1 28946.2,21345.4C28912.8,21349.6 28813.5,21440 28806.6,21460.8C28804.6,21466.8 28801.1,21464.5 28761.1,21524.6C28753.2,21536.3 28757.6,21537 28762.3,21545.8L28802,21548.8C28870.3,21579.2 28899.1,21509.8 28956.9,21586.8C28965.7,21598.6 28990.8,21607.1 29009.3,21618.7Z" style="fill:rgb(19,54,58);stroke:black;stroke-width:0.99px;"/>
                    </g>
                    <g>
                        <g transform="matrix(0.131428,0,0,0.0544057,35063.5,-747.772)">
                            <path d="M28876.2,28527.2C28854.9,28517.7 28841.8,28516.8 28795.6,28519.6C28764.2,28521.5 28738,28528.9 28714.5,28533.8C28700.3,28536.8 28611.4,28530.1 28550.4,28552.4C28493.3,28573.3 28458.2,28627.6 28426.7,28630.7C28391.2,28634.1 28359.4,28623.5 28337.6,28631.4C28319.8,28637.8 28311.1,28662.4 28304.7,28677.7C28298.3,28693.1 28295.5,28719.5 28298.7,28729.4C28302,28739.3 28336.2,28755.3 28336.2,28755.3C28336.2,28755.3 28311.5,28775.8 28290.6,28805.1C28271.1,28832.5 28255.5,28867.8 28249.9,28893.4C28240.1,28938.8 28236.2,28992.6 28241.7,29023C28245.3,29043.1 28284,29083.1 28284,29083.1L28304.7,29142.9C28304.7,29142.9 28271.4,29159.3 28258.9,29183.6C28246.3,29207.8 28245.3,29246.1 28251.5,29288.4C28255.8,29318.2 28277.1,29348.8 28288.5,29361C28306.3,29379.8 28320.5,29386 28336.2,29394.5C28350.6,29402.4 28377,29405.1 28377,29405.1C28377,29405.1 28392.7,29427.5 28398.7,29435.6C28410.3,29450.9 28426.7,29473.7 28454,29500.7C28483.5,29529.9 28579.5,29574.5 28579.5,29574.5L28572.7,29704.4C28690.1,29695.8 28800.2,29694.5 28901.5,29702.1L28900.1,29542.3C28900.1,29542.3 28963.5,29496.8 28987.7,29475.1C29009.3,29455.8 29045.5,29411.8 29045.5,29411.8C29045.5,29411.8 29077.5,29419.6 29107.6,29410.1C29135.4,29401.4 29156.8,29384.4 29174.1,29367.3C29190.8,29350.9 29203.8,29332.5 29211.6,29307.8C29218,29287.6 29222.8,29272.2 29222.6,29253.9C29222.4,29233.6 29219.7,29203.5 29210.2,29186.3C29201.1,29169.8 29165.9,29151.2 29165.9,29151.2C29165.9,29151.2 29178.1,29125.2 29184.7,29090.1C29192.1,29050.2 29197.8,29010.8 29195,28972.3C29194,28957.8 29191.9,28933.3 29187.2,28914.4C29179.5,28883.3 29168.2,28859.3 29168.2,28859.3C29168.2,28859.3 29190.4,28857.2 29198,28850.4C29206,28843.2 29208.9,28816.3 29202,28802.5C29189.4,28777.4 29170.2,28747.7 29125.1,28700.2C29095.5,28669 29056.9,28649.1 29029.7,28633.6C29007.7,28621 28982.7,28610.9 28959,28605.9C28944.1,28602.8 28931.3,28603.8 28925.7,28599.2C28915.5,28591 28941.1,28577.9 28938.7,28565.5C28938.3,28563.7 28936.2,28556.9 28933.5,28553.3C28929.8,28548.2 28924.9,28546.2 28920.1,28543.4C28911.9,28538.7 28899.1,28541.8 28889.7,28536.9C28882.8,28533.3 28880.8,28529.2 28876.2,28527.2Z" style="fill:rgb(94,47,15);stroke:black;stroke-width:1.09px;"/>
                        </g>
                        <g transform="matrix(0.131428,0,0,0.0544057,35063.5,-747.772)">
                            <path d="M28877.4,28605.8C28874.6,28597.1 28902.6,28596.7 28909.9,28592.2C28918.7,28586.7 28932.6,28572.5 28931.9,28565.2C28931.2,28557.8 28916.8,28550.3 28906.5,28548.8C28889.8,28546.5 28850.1,28545.2 28830.5,28546.9C28816.5,28548.2 28801.5,28553.7 28789,28559.3C28773.5,28566.1 28762.1,28576.4 28745.6,28578.7C28723.6,28581.6 28681.6,28575.3 28644.3,28583.2C28601.5,28592.2 28575.9,28600 28550.7,28614.2C28518.3,28632.5 28479.2,28663.6 28458,28680.5C28448.9,28687.7 28442.6,28701.2 28436.2,28706.5C28431.6,28710.3 28431.3,28713.3 28419.4,28712.4C28408.5,28711.5 28396.1,28704.2 28382,28702C28362.5,28699 28341.8,28701.1 28334.9,28703C28329.7,28704.3 28304.9,28709.3 28303.7,28719.5C28302.6,28729.7 28312.7,28732.4 28321.8,28738.2C28327.8,28741.9 28349.7,28740.4 28363,28745.5C28374.9,28750 28383.5,28756.9 28387.8,28761.5C28390.5,28764.3 28389.2,28767 28387.8,28768.8C28382.5,28775.5 28370.5,28787.1 28359.1,28802.4C28340.4,28827.3 28320,28860.5 28309.9,28887.5C28301.9,28909.1 28292.8,28942.1 28289.1,28972.3C28285.2,29003.6 28283.5,29021 28287.2,29040.5C28290,29055.3 28298,29092.6 28303.9,29111.4C28308.9,29127.1 28330.1,29160.2 28341.9,29187.2C28344.6,29193.2 28353,29200.8 28359,29219C28365.4,29238.4 28369.7,29268.7 28375.7,29283.3C28395.7,29331.4 28396.3,29334.1 28412.2,29356.1C28435.2,29388.1 28473,29443.2 28514.1,29475.3C28543,29498 28610.1,29533.6 28635,29546.5C28643.3,29550.8 28657.3,29559.5 28662.8,29554.9C28668.3,29550.2 28665.7,29524.7 28668.2,29518.8C28669.4,29515.9 28675.1,29517.8 28677.7,29519.7C28684.6,29524.6 28693.1,29545.9 28705.7,29553C28720.1,29561 28743.8,29569.3 28763.7,29567.9C28775.4,29567 28793.3,29565 28807,29555.8C28827.6,29541.9 28842.5,29519.2 28842.5,29519.2C28842.5,29519.2 28844.1,29506.4 28846.4,29504.2C28848.6,29501.9 28854,29503.2 28855.8,29505.9C28858.7,29510.1 28860,29529.1 28868.7,29532C28873.3,29533.5 28887.1,29533.6 28893.9,29532.2C28899.6,29531 28905,29527.4 28909.6,29523.5C28917.5,29517 28936.2,29506.3 28948,29496.7C28962.8,29484.7 28985.1,29464.9 28998.5,29451.6C29017.9,29432.3 29035.1,29415.2 29052.2,29389C29071.9,29358.5 29100.7,29287.6 29106.5,29275.9C29107.1,29274.6 29139.6,29184.8 29151.6,29138C29163.6,29091.6 29179.9,29052.3 29181.9,29009.1C29183.6,28969.4 29174,28917.5 29169.5,28891.1C29167.8,28881.3 29154.8,28862.9 29152.8,28854.3C29151.9,28850.5 29151,28844.4 29154.4,28842.7C29157.8,28841 29167.2,28845.5 29173.4,28844C29179.9,28842.5 29190.7,28840.3 29193.4,28833.7C29198.2,28822 29193.5,28813.1 29190.2,28803.6C29186.3,28792.2 29180.2,28779.9 29169.9,28765.5C29149.1,28736.6 29117.2,28703.7 29093.8,28683.1C29061.1,28654.3 29025.5,28637.8 28992.2,28624.9C28962.3,28613.3 28920.2,28605.5 28893.7,28605.5C28888.3,28605.5 28878.5,28609.2 28877.4,28605.8Z" style="fill:rgb(49,32,10);stroke:black;stroke-width:1.09px;"/>
                        </g>
                    </g>
                </g>
            </g>
            <g>
                <g>
                    <g transform="matrix(0.131428,0,0,0.0544057,35063.5,-747.772)">
                        <path d="M26932.5,29829.8C26921.8,29839.3 26918,29843.7 26911.5,29851.3C26889,29877.7 26850.2,29932.7 26831,29995.1C26818.7,30035.2 26793.8,30113.7 26779.9,30197.9C26759.2,30323.9 26751.7,30407.4 26746.5,30456.4C26745.3,30467.9 26745.1,30485 26749.2,30492C26753,30498.6 26760,30504.8 26760,30504.8C26760,30504.8 26754.6,30635.2 26755.6,30715.5C26756,30749.4 26768.8,30796.5 26789.7,30834.5C26809.9,30871.3 26838.3,30899.7 26838.3,30899.7C26868.1,30915.8 26899.6,30926.9 26933,30932C26933,30932 26914.4,30990.8 26913.2,31008.6C26912.2,31022.4 26912.8,31033.1 26925.5,31038.5C26925.5,31038.5 26911.9,31062.2 26902.5,31090.5C26894.6,31114.4 26890.9,31141.8 26888.9,31159C26884.9,31193.7 26879.3,31233 26892.4,31263.3C26905.5,31293.6 26934.3,31325.4 26966.7,31340.8C27007.8,31360.2 27078.4,31379.3 27137.1,31381.8C27203.4,31384.6 27360.3,31396.4 27502.6,31394.3C27655.6,31392 27719.8,31386.1 27788.6,31378.2C27830.7,31373.3 27882.9,31365.6 27917.2,31349.5C27929.9,31343.5 27949.7,31336.7 27963.4,31324C27982.8,31305.9 27991,31298.8 27994.3,31281.6C27996.4,31270.7 27999.8,31253 28000.6,31230.1C28002.1,31187.1 28003.8,31165.9 27998.7,31135.9C27993.6,31106.7 27979.8,31075.3 27978.2,31055.8C27977.2,31043.6 27986.7,31033 27986.5,31026.7C27986.2,31007.3 27975.4,30941.9 27975.4,30941.9C27975.4,30941.9 28031.6,30924.4 28056.6,30911.3C28081.6,30898.2 28107.2,30884.3 28123.4,30860.7C28143.2,30831.9 28164.4,30786.5 28169.7,30742.7C28176,30689.9 28166.5,30574.8 28165.7,30519.7C28165.1,30475.6 28164.4,30445.6 28162.5,30408.5C28160.5,30369.8 28156,30317.4 28153.6,30287C28148.3,30223.3 28127.7,30097.1 28127.7,30097.1C28127.7,30097.1 28113.7,30041 28091.7,29988.7C28075.6,29950.3 28052.2,29916.1 28042.1,29896.6C28026.8,29867 27984.3,29820.6 27984.3,29820.6C27965,29847 27943.8,29873.8 27920.7,29897.3C27891,29927.5 27859,29952.8 27832.4,29969.6C27808.4,29984.8 27775.1,29998.3 27754.4,30005.2C27739.5,30010.2 27719.3,30012 27705.7,30011.7C27688.9,30011.5 27657.6,30005.7 27657.6,30005.7C27657.6,30005.7 27666.6,29969.8 27671.7,29952C27678.8,29927.1 27700.5,29856.1 27700.5,29856.1C27700.5,29856.1 27677.1,29894.4 27643.9,29930.7C27620.7,29956 27591.7,29979.7 27573,29991.5C27555.9,30002.3 27539.5,30012.3 27521,30019.2C27493,30029.7 27461.7,30033.9 27428.3,30028.8C27392.8,30023.3 27350,30002.3 27329.5,29985.9C27314.3,29973.8 27311.2,29972.9 27290.8,29951.9C27269.9,29930.3 27251.6,29899.2 27244.3,29888.8C27226.5,29863.3 27214.6,29847.2 27214.6,29847.2C27214.6,29847.2 27216,29865.9 27219.7,29887.1C27223,29905.5 27228.3,29925.8 27231,29936.6C27234.7,29951.5 27245.5,29980.4 27245.5,29980.4C27245.5,29980.4 27212.2,29984.1 27178.9,29984.4C27159.3,29984.6 27140.3,29984.5 27126.7,29979.2C27089.1,29964.8 27048,29937.6 27020.2,29893.2L26994.9,29827.1C26990.3,29810.7 26983.9,29811 26976.6,29818.5C26964.2,29826.8 26949.5,29830.6 26932.5,29829.8Z" style="fill:rgb(97,56,22);stroke:black;stroke-width:1.09px;"/>
                    </g>
                    <g transform="matrix(0.282017,0,0,0.114496,30868.3,-1532.35)">
                        <path d="M27804.5,21571.9C27799.6,21574.9 27795,21577.9 27791.1,21581C27756.4,21607.9 27767.3,21712.4 27739.6,21740.5C27712.8,21767.9 27684.7,21779.9 27660.6,21750C27631,21713.3 27603.5,21627.2 27549.9,21586.3C27522.6,21565.5 27477.4,21541.7 27435,21523.5C27440,21491.8 27437.8,21476.1 27481.2,21471.7C27511.5,21468.7 27544.8,21414.4 27549.7,21387.2C27550.8,21381.4 27544,21335.8 27577.4,21358.1C27590,21366.5 27599.5,21360.6 27610.9,21406.2C27611.8,21409.9 27614.6,21407.1 27643,21441.1C27660.1,21461.7 27611.4,21486.6 27602.2,21532.9C27596.6,21560.7 27600.7,21562.5 27625.5,21576.7C27643.9,21587.2 27694.4,21593.3 27699.8,21582.5C27702.6,21576.9 27767.4,21564.4 27775.6,21556.3C27779.6,21552.2 27790.9,21559.7 27804.5,21571.9Z" style="fill:rgb(16,33,41);stroke:black;stroke-width:0.51px;"/>
                    </g>
                    <g transform="matrix(0.131428,0,0,0.0544057,35063.5,-747.772)">
                        <path d="M26964.5,30141.6C26964.5,30141.6 26959.6,30169.5 26957.4,30212.2C26955.9,30239.5 26954.4,30277.6 26954.3,30309.4C26954.2,30364.1 26956.5,30540.7 26956.5,30540.7L26974.1,30542.1C26974.1,30542.1 26974.3,30381.7 26973.5,30315C26972.8,30254.7 26964.5,30141.6 26964.5,30141.6Z" style="fill:rgb(73,39,9);stroke:black;stroke-width:1.09px;"/>
                    </g>
                    <g transform="matrix(0.131428,0,0,0.0544057,35063.5,-747.772)">
                        <path d="M26760.7,30504.5C26760.7,30504.5 26843.5,30525.7 26879,30532C26907.4,30537.1 26974.1,30542.3 26974.1,30542.3C26974.1,30542.3 26971.7,30626.1 26966,30695.9C26963.4,30728.6 26958,30756.7 26955.8,30777.2C26950.3,30829.5 26933.8,30932 26933.8,30932C26900.4,30929.5 26867.6,30915.8 26837.8,30898.6C26837.8,30898.6 26796.1,30850.3 26783.2,30823.3C26770.6,30797.1 26758.8,30759.2 26757.2,30729.5C26756.5,30715.9 26755.6,30708.6 26755.6,30684.5C26755.6,30614 26760.7,30504.5 26760.7,30504.5Z" style="fill:rgb(142,100,67);stroke:black;stroke-width:1.09px;"/>
                    </g>
                    <g transform="matrix(0.131428,0,0,0.0544057,35063.5,-747.772)">
                        <path d="M27937.6,30565.9C27937.6,30565.9 27934.5,30406 27936.1,30334.6C27937.6,30269 27947.3,30137.6 27947.3,30137.6C27947.3,30137.6 27951.4,30267.6 27952.8,30334C27954.3,30405 27956.2,30563.8 27956.2,30563.8L27937.6,30565.9Z" style="fill:rgb(73,39,9);stroke:black;stroke-width:1.09px;"/>
                    </g>
                    <g transform="matrix(0.131428,0,0,0.0544057,35063.5,-747.772)">
                        <path d="M28165.3,30502.7C28165.3,30502.7 28085.5,30535.7 28049,30545.3C28015.5,30554.1 27937.6,30565.9 27937.6,30565.9C27937.6,30565.9 27938.1,30652.8 27942,30720.2C27943.8,30751.7 27946.2,30767.4 27949.1,30789.7C27956.6,30849 27975.7,30942.1 27975.7,30942.1C27975.7,30942.1 28012.2,30932.3 28049.3,30914.9C28079.9,30900.6 28110.8,30880.5 28122.4,30862.4C28145.4,30826.7 28165.1,30783.7 28169.8,30739.6C28176.1,30680.2 28165.3,30502.7 28165.3,30502.7Z" style="fill:rgb(148,102,65);stroke:black;stroke-width:1.09px;"/>
                    </g>
                </g>
                <g>
                    <g transform="matrix(0.131428,0,0,0.0544057,35063.5,-747.772)">
                        <path d="M27403.5,28545.8C27351.9,28550.7 27321.8,28559.5 27272.6,28577C27223.4,28594.4 27164.6,28620.9 27124.8,28656.9C27098,28681.1 27077.1,28706.8 27055.1,28739.2C27041.1,28759.7 27026.7,28779.3 27009.9,28814.4C26981.1,28874.9 26974.7,28916.1 26972.5,28983.7C26971.2,29021.3 26974.3,29062.5 26960.7,29096C26948.4,29126.3 26915.3,29159.3 26896.3,29183.9C26880.5,29204.4 26868.2,29207.9 26846.7,29243.5C26828.6,29273.2 26816.9,29313.4 26813.8,29332.3C26808.2,29367.3 26839.2,29405.9 26857.2,29425.8C26873.5,29443.5 26887.1,29454.5 26886.1,29472.6C26885,29490.8 26867,29518 26852.7,29534.6C26829.5,29561.5 26801.4,29597.7 26791.8,29627.4C26783.1,29653.9 26783.4,29689.3 26794.7,29712.8C26809,29742.7 26849.8,29794.7 26877.1,29808.2C26884.4,29811.8 26890.2,29811.5 26900.9,29814.1C26908.3,29815.9 26922.2,29825.4 26933.5,29828.6C26942.1,29831 26948.2,29827.6 26955.2,29827.1C26974.4,29825.8 26981.9,29806.1 26988.8,29816.4C27000.6,29834 26998.2,29857.8 27019.6,29892.8C27036.2,29920 27061.8,29940.5 27080.1,29952.2C27123.1,29979.6 27159.3,29983.3 27245.7,29980.9C27226.6,29935.7 27213.7,29884.1 27209.5,29839C27209.5,29839 27234.2,29875.3 27263,29914.8C27284.1,29943.7 27308.6,29968 27326.4,29981.4C27362.1,30008.4 27407.3,30030.5 27452,30028.4C27476.8,30027.2 27504.2,30026.1 27531.4,30014.6C27555.6,30004.3 27578.7,29988 27599.4,29970.8C27613.4,29959.2 27634.8,29942 27653.5,29920.4C27679.8,29890 27702,29855.4 27702,29855.4C27702,29855.4 27688.4,29913.5 27680.5,29938.6C27673.4,29961.1 27657.5,30004.3 27657.5,30004.3C27657.5,30004.3 27702.8,30015.1 27747.2,30005.8C27798,29995.2 27835.1,29970.1 27860.2,29950.3C27878.2,29936 27899.2,29917.7 27917.5,29899C27937.3,29878.7 27979,29828.7 27979,29828.7C27979,29828.7 27989.2,29811.6 28003.4,29800C28010.6,29794.1 28017.6,29791.2 28025.6,29787.6C28053.2,29775.4 28069.2,29765.2 28094.2,29734.3C28114.8,29708.9 28129.6,29666.1 28126.1,29636.3C28122.2,29602.7 28103.3,29557.6 28070.6,29533.1C28040.5,29510.6 28027.1,29469.3 28045.8,29423.3C28062.3,29382.5 28073.7,29312.3 28061.7,29268.8C28049.6,29225.4 28009.2,29195.9 27976.4,29161.7C27958.3,29142.9 27927.9,29116.9 27919.4,29086.1C27913.1,29063.2 27914.5,29031.5 27912.1,28990.2C27909.3,28941.2 27902.2,28881.4 27887.6,28844C27875.2,28812.4 27862.1,28776.7 27841.8,28743.8C27816.6,28703.1 27782.8,28666.3 27755.9,28639.7C27708.6,28592.8 27667.2,28576.2 27603,28558.7C27542.8,28542.2 27457.2,28540.6 27403.5,28545.8Z" style="fill:rgb(178,95,12);stroke:black;stroke-width:1.09px;"/>
                    </g>
                    <g transform="matrix(0.131428,0,0,0.0544057,35063.5,-747.772)">
                        <path d="M27232.1,28667.3C27189,28691.2 27162.5,28730.3 27127.4,28771.9C27105.3,28798.2 27077.8,28845.4 27060.9,28891.1C27047.1,28928.4 27042,28963.3 27039.7,28995.7C27035.9,29047.2 27028.1,29099.7 27008.4,29147.4C26987.5,29198.4 26923,29255.8 26911,29302.6C26900.4,29344.4 26921.5,29385.9 26943.5,29428.1C26956.2,29452.5 26959.8,29493 26952.9,29523.3C26948.7,29542.1 26936,29556.7 26927.3,29570.7C26912.8,29594.2 26877.5,29619.1 26863.5,29664.6C26850.2,29707.5 26861.6,29744.5 26874.8,29772.6C26888.1,29800.6 26913.4,29821.5 26933.3,29828.1C26943.3,29831.4 26958.9,29828.2 26970,29822.3C26978.4,29817.9 26982.7,29809.6 26988.5,29814.9C26996.7,29822.4 27000.2,29852.7 27010.9,29876.7C27022.3,29902.1 27028.1,29908.4 27040.7,29921C27066.7,29947.2 27099.5,29972.7 27133.8,29981.3C27162.3,29988.4 27246,29980.5 27246,29980.5C27236.4,29958.2 27231.4,29938.3 27226.6,29918.1C27221.2,29895.1 27216.6,29871.9 27214.7,29847.1C27214.7,29847.1 27244.3,29887.5 27260.9,29913.6C27279,29941.9 27300.5,29962.2 27325.1,29982.7C27341.6,29996.5 27370.3,30013.4 27399.1,30021.8C27422.7,30028.6 27444.3,30033.9 27472.4,30030.1C27519.5,30023.8 27540.2,30012.5 27571,29993.1C27602.3,29973.4 27629.7,29947.6 27656.7,29916.5C27683.5,29885.8 27700.8,29855.1 27700.8,29855.1C27700.8,29855.1 27682.9,29912.7 27675.6,29937.7C27668.9,29960.5 27656.9,30005.2 27656.9,30005.2C27674.7,30008.8 27691.7,30012.2 27708.8,30011.8C27743.6,30011.1 27777.6,30000.4 27810.8,29982.6C27838.7,29967.7 27858.3,29952.6 27904.4,29912.7C27934.1,29887.1 27985.4,29820.5 27985.4,29820.5C27985.4,29820.5 28007,29791.9 28019.8,29770.1C28032.8,29748 28038.2,29732.8 28038.7,29708.2C28039.3,29677.1 28036.7,29652.7 28019.1,29629.5C28008.4,29615.5 27968.5,29592.6 27959,29562.9C27947.1,29525.6 27952.4,29511 27959.4,29483.2C27969,29445.1 27981.6,29380.5 27970.9,29339.6C27960.1,29298.7 27932.7,29287.4 27897,29253.2C27881.8,29238.6 27861,29211 27852.4,29174.6C27840.3,29122.9 27840.7,29107.5 27841.9,29060.4C27842.9,29019.9 27841.8,28972.1 27832.8,28932.1C27823.2,28889.4 27803.3,28853.8 27779.4,28812.5C27759.7,28778.7 27719.9,28727.6 27675.8,28689.9C27649.4,28667.4 27619.3,28653.2 27597.4,28640.6C27547.3,28611.8 27479.4,28604.3 27421.9,28608.5C27361,28613 27281.2,28640 27232.1,28667.3Z" style="fill:rgb(125,62,14);stroke:black;stroke-width:1.09px;"/>
                    </g>
                </g>
            </g>
            <g>
                <g>
                    <g transform="matrix(0.131428,0,0,0.0544057,35063.5,-747.772)">
                        <path d="M26603.2,28951.6C26621.5,28945.1 26641.6,28948.2 26654.6,28964.5C26654.6,28964.5 26676.1,28985.8 26679.6,29003.8C26685.4,29033.2 26687.5,29080.4 26671.4,29113.5C26664.1,29128.6 26646,29150.6 26629.4,29165.5C26609.4,29183.5 26590.5,29193.7 26578.7,29202.5C26567.7,29210.8 26547.9,29210.2 26537.8,29214.5C26531.7,29217.1 26529.7,29220.8 26529.3,29225.3C26528.4,29234.8 26525.8,29271.4 26513.8,29292.8C26502.4,29313.2 26473.6,29348.8 26442.8,29372C26425.6,29385 26410.4,29391.5 26394.7,29397.9C26386,29401.4 26375.3,29406.2 26365.6,29408C26358.9,29409.3 26352,29407.3 26348.8,29410.2C26345,29413.5 26346.2,29419.5 26346.4,29425C26346.7,29430.7 26346.1,29435.9 26346.3,29440.6C26347.1,29466.1 26351.3,29565.9 26351.3,29565.9C26351.3,29565.9 26245.8,29552.6 26189.1,29553.9C26126.8,29555.3 25995.6,29561.7 25995.6,29561.7C25995.6,29561.7 25998.9,29508.5 25999.7,29477.5C26000.5,29446.4 26000.5,29375 26000.5,29375C26016.8,29384.1 26044.4,29395.9 26060.2,29400.1C26071.6,29403.1 26089,29410.9 26094.7,29401.8C26096,29393.2 26098.5,29387.6 26102.5,29386.9C26105.8,29386.3 26111,29391.4 26114.9,29394.3C26124.3,29401.6 26133.5,29411.3 26148.7,29413.7C26156.3,29414.9 26169.8,29416.4 26182.4,29414.8C26195,29413.2 26199.1,29411.9 26206.7,29408.4C26215.3,29404.6 26225.6,29397.9 26232.5,29391.7C26238.9,29386.1 26243.3,29379.6 26248.3,29371.5C26248.3,29371.5 26256,29383.5 26260.6,29388C26265.8,29393.1 26271.7,29401.3 26279.9,29402.5C26288.4,29403.8 26311.5,29394.3 26311.5,29394.3C26311.5,29394.3 26357.1,29369.3 26377.7,29353.5C26402.8,29334.2 26440.2,29308.1 26461.4,29277.2C26475.7,29256.3 26508.3,29214.3 26527.5,29173.1C26551.3,29122 26557,29108.5 26568.5,29075C26581.1,29038.1 26603.2,28951.6 26603.2,28951.6Z" style="fill:rgb(88,42,7);stroke:black;stroke-width:1.09px;"/>
                    </g>
                    <g transform="matrix(0.131428,0,0,0.0544057,35063.5,-747.772)">
                        <path d="M25745.9,28968.9C25745.9,28968.9 25736,28923.9 25733.1,28897.7C25729.8,28867.4 25724,28824.2 25724.6,28781.8C25725.4,28729 25738.9,28641.8 25774,28583.4C25795,28548.4 25842,28478.1 25911.5,28432.8C26015.2,28365.4 26091.3,28358.8 26172.6,28354.3C26243.2,28350.5 26330.5,28369.1 26398.8,28406.3C26476.9,28448.8 26495,28474.2 26529.6,28516C26563.9,28557.4 26594,28606.4 26607.3,28656.9C26621.9,28712.1 26623.3,28785.1 26617.7,28847.8C26611.7,28916.1 26597.9,28977.4 26571.9,29063.1C26548.1,29141.8 26502.2,29230.4 26452.9,29287.3C26430.9,29312.7 26387.5,29350.9 26345.9,29375.4C26311.6,29395.5 26297,29402.4 26281.3,29402.5C26269,29402.7 26247.8,29371.5 26247.8,29371.5C26240.2,29387.1 26220.2,29404.3 26201.7,29410.6C26182.5,29417.1 26155,29417.6 26138.6,29410.8C26124.9,29405 26110.6,29387.8 26103.1,29386.9C26097.3,29386.2 26099.8,29402.2 26089.8,29405.2C26079.7,29408.2 26070.1,29403.5 26047.5,29395.9C26019.7,29386.5 25968.9,29360.2 25927.5,29322.1C25871,29270.2 25840.4,29204.4 25840.4,29204.4C25819.5,29170.7 25801.3,29129 25786.2,29090.7C25770.4,29050.5 25758,29013.4 25745.9,28968.9Z" style="fill:rgb(46,26,10);stroke:black;stroke-width:1.09px;"/>
                    </g>
                    <g transform="matrix(0.131428,0,0,0.0544057,35063.5,-747.772)">
                        <path d="M25826.2,28502.8C25876.5,28418.1 25941.7,28370.7 26024.1,28340.3C26056.3,28328.4 26090.4,28316.3 26130.9,28310.8C26186.7,28303.2 26250.5,28305.6 26300.4,28316.5C26350,28327.3 26399,28342.6 26444.4,28367.7C26477.5,28386.1 26504.6,28409.3 26526.2,28428.6C26574,28471.4 26603,28535 26618.3,28590.7C26632.8,28643.8 26622.9,28767 26622.9,28767C26621.8,28642.1 26560.5,28531.1 26476.4,28457.4C26422.4,28410.1 26344.7,28375.7 26274.4,28361.5C26204.1,28347.3 26108.1,28351.2 26038,28373.3C26008.2,28382.7 25963.3,28401.6 25926.3,28425.3C25870.6,28461 25826.2,28502.8 25826.2,28502.8Z" style="fill:rgb(178,19,13);stroke:black;stroke-width:1.09px;"/>
                    </g>
                    <g transform="matrix(0.131428,0,0,0.0544057,35063.5,-747.772)">
                        <path d="M25745.5,28969.1C25714.4,28973.5 25685.6,29009.8 25679.7,29035.4C25672.5,29066.7 25675.7,29113.9 25691.5,29143.8C25698.3,29156.7 25715.4,29177.3 25731.7,29190.8C25748.5,29204.5 25764.5,29210.9 25774.8,29215.3C25792.6,29222.9 25813.9,29218.8 25827.2,29213.2L25840.6,29203.5C25840.6,29203.5 25826.8,29181.7 25813.9,29154.8C25800.1,29125.9 25786.9,29091.1 25778.7,29070.9C25765.4,29038.1 25745.5,28969.1 25745.5,28969.1Z" style="fill:rgb(88,43,14);stroke:black;stroke-width:1.09px;"/>
                    </g>
                </g>
                <g>
                    <g transform="matrix(0.131428,0,0,0.0544057,35063.5,-747.772)">
                        <path d="M25605.3,31002C25620.6,31028.1 25640.7,31047.8 25661.8,31062.3C25687.5,31080 25734.1,31101.2 25763.1,31110.9C25807.9,31125.9 25837.1,31136.7 25885,31143.1C25928.7,31149 25971.9,31158.5 26025,31158.3C26078.8,31158.1 26138.3,31162.4 26207.4,31158.9C26271.7,31155.6 26340.2,31146.4 26392,31138.6C26433.8,31132.3 26473.8,31122.4 26510.7,31108.6C26546.1,31095.4 26580.4,31074.6 26605.5,31057.1C26625.9,31042.8 26640.3,31038.6 26656.6,31006.1C26661.4,30996.5 26666.2,30974.4 26674.1,30972.4C26694.5,30967.3 26696.5,30975.4 26732,30957.6C26738.5,30954.4 26753.3,30944.2 26768,30939.1C26774.5,30943.7 26797.5,30961.7 26815.6,30989.6C26833,31016.4 26843.5,31037.1 26848.7,31061.1C26861.6,31120.8 26864.9,31220.6 26850.1,31293.8C26850.1,31293.8 26796.1,31291.9 26771,31297.7C26736.5,31305.7 26687.2,31332.5 26643.5,31344.6C26598.4,31357.1 26543,31365.1 26499.8,31372.6C26469.2,31377.9 26411.8,31388 26371.6,31390.5C26310.4,31394.2 26220.8,31396.4 26132.8,31394.8C26019.5,31392.7 25910.1,31386.5 25866.1,31383.2C25810.3,31378.9 25735.6,31364.8 25692.9,31351.1C25662,31341.2 25609.7,31300.9 25609.7,31300.9C25605.1,31272.2 25600.4,31242.6 25599.6,31211.1C25597.6,31134.9 25606.2,31055.9 25606.2,31012.4C25606.2,31010.8 25605.3,31003.8 25605.3,31002Z" style="fill:rgb(48,28,8);stroke:black;stroke-width:1.09px;"/>
                    </g>
                    <g>
                        <g transform="matrix(0.120902,0.0175696,-0.0444796,0.0524502,36228.7,-696.251)">
                            <path d="M26780.1,20798C26801.2,20787.3 26900.4,20791 26913.6,20801.1C26932.3,20815.3 26955.1,20883.5 26971.3,20886.8C26992.9,20891.2 27028.7,20855.9 27063.5,20855.2C27098.3,20854.5 27118.9,20869.8 27142.6,20885C27168.9,20901.8 27202.7,20937.1 27221.3,20956.3C27228.7,20963.9 27232.9,20971.4 27239.4,20979.6C27244.1,20985.4 27253.4,21000.4 27253.4,21000.4C27253.4,21000.4 27216.6,20996 27176.3,20982.5C27173.4,20981.6 27150.1,20973.8 27141.3,20968C27117.2,20951.9 27122.4,20941.8 27123.8,20938.8C27143.6,20899.3 27137.9,20896.3 27132.6,20893.7C27126.1,20890.4 27118.7,20886.7 27046.6,20922.8C27040.8,20925.7 27034.6,20928.2 27033.5,20928.6C27010.6,20937.8 27022,20939.3 27001.1,20951.8C26990.4,20958.3 26923.4,20969.5 26903.7,20956.6C26884,20943.7 26896.4,20901.7 26890.4,20878.8C26884.9,20858.3 26889.1,20862.9 26867.4,20819.3C26861.2,20807.1 26834.1,20819.4 26804.7,20804.8C26796.4,20800.6 26784.6,20798.8 26780.1,20798Z" style="fill:rgb(239,95,32);stroke:black;stroke-width:1.09px;"/>
                        </g>
                        <g transform="matrix(0.131428,0,0,0.0544057,35063.5,-747.772)">
                            <path d="M26838.2,30898.9C26838.2,30898.9 26820.6,30910.7 26798.4,30923C26770.2,30938.7 26735.6,30955.8 26732,30957.6C26696.5,30975.4 26694.5,30967.3 26674.1,30972.4C26667.8,30974 26666.4,30984.6 26664,30993.9C26663.4,30996.2 26663.7,31000 26662.7,31001.9C26646.5,31034.5 26633.2,31039.4 26613.9,31053.6C26589.7,31071.5 26551.8,31094.3 26517.5,31107.9C26481,31122.3 26457.2,31129.8 26395,31140.2C26335,31150.2 26269.6,31157.9 26206.5,31161.2C26135.3,31164.8 26067.2,31160 26022.2,31160.7C25976.6,31161.5 25889.5,31145.5 25886.3,31145.2C25822.8,31138.1 25788.2,31121.9 25739.9,31105.2C25713.4,31096 25675.4,31077.4 25653.1,31061.8C25634.4,31048.6 25617.1,31030.8 25606.4,31011.3C25606.7,30983.3 25609.7,30932.1 25609.7,30932.1C25609.7,30932.1 25568.5,30917 25534.8,30893.4C25498.6,30867.9 25475.1,30847.3 25457.5,30821.5C25428.4,30778.9 25417.5,30721.3 25414.4,30681.5C25412.3,30654.9 25413.5,30623.8 25414,30594.5C25414.4,30566.5 25418,30525.9 25418,30525.9C25418,30525.9 25432.3,30378.5 25439.1,30319.4C25452.3,30204.2 25472.8,30087.8 25472.8,30087.8C25472.8,30087.8 25497.5,30005.5 25520.2,29939.5C25538.1,29887.7 25566,29835.7 25583.9,29808C25616.9,29756.9 25670.3,29723.8 25730.3,29693.1C25799.3,29657.7 25872.3,29641.8 25872.3,29641.8C25890.8,29602.7 25929.4,29574 25998.3,29561.4C25998.3,29561.4 26131.3,29553 26190.9,29553.8C26241.8,29554.5 26355.5,29566.1 26355.5,29566.1C26355.5,29566.1 26405,29579.3 26422.7,29592.7C26440.6,29606.2 26462,29645.3 26462,29645.3C26462,29645.3 26502.1,29655.1 26544.9,29672C26569,29681.5 26590,29692.9 26615,29707C26661.1,29732.9 26697.8,29765 26721.2,29789.5C26749.8,29819.2 26783.5,29871.1 26804.7,29918.4C26822.2,29957.4 26830.1,29995.5 26830.1,29995.5C26830.1,29995.5 26794.2,30116.6 26783.3,30178.6C26769.5,30257.1 26747.4,30466.3 26747.4,30466.3C26747.4,30466.3 26743.3,30496.2 26760.1,30504.1C26760.1,30504.1 26753.7,30642.9 26755.4,30693.6C26757,30743 26762.6,30760.3 26774,30801.7C26786.5,30847 26838.2,30898.9 26838.2,30898.9Z" style="fill:rgb(76,38,9);stroke:black;stroke-width:0.98px;"/>
                        </g>
                        <g transform="matrix(0.131428,0,0,0.0544057,35063.5,-747.772)">
                            <path d="M26641,30109.2C26641,30109.2 26667.2,30405.4 26676.1,30546.7C26684.8,30683.9 26698.5,30970.3 26698.5,30970.3C26698.5,30970.3 26677.8,30968.8 26671.8,30974.5C26665.8,30980.2 26662.7,31000.9 26662.7,31000.9C26662.7,31000.9 26647.5,30729.4 26645.2,30603.8C26642.4,30456.3 26641,30109.2 26641,30109.2Z" style="fill:rgb(60,30,8);stroke:black;stroke-width:1.09px;"/>
                        </g>
                        <g transform="matrix(0.111669,0,0,0.0896174,35522.3,-998.444)">
                            <path d="M26080.8,20968.5C26083,20967.8 26085.6,20967 26086.6,20966.3C26096.6,20959.6 26093.7,20957.5 26094.4,20945.5C26088.3,20945 26083.3,20947.3 26086.6,20942.4C26092.8,20933.2 26119.4,20933 26122.4,20918C26125.5,20902.3 26131.4,20910.8 26145.1,20918.6C26147.5,20919.9 26184.3,20923.6 26188.1,20918C26188.5,20917.2 26188.6,20917.4 26195.8,20910.2C26206,20906.1 26204.8,20903.1 26219.7,20900.6C26236.8,20897.8 26256.6,20906.4 26279.4,20886.9C26293.5,20874.8 26295.2,20871.9 26299.1,20864.2C26306.1,20850.6 26329.2,20830.8 26335.7,20807.6C26339.7,20805.3 26343.9,20803.5 26348.2,20802C26360.2,20807.7 26375.8,20814.7 26389.1,20817.4C26470.4,20833.7 26469.9,20839.2 26552.3,20834.9C26562.3,20834.4 26580.1,20822.8 26602.5,20822.1C26760.1,20816.6 26765.4,20824.1 26775,20808.1C26777.3,20804.2 26781.7,20800.9 26787.3,20798C26791.8,20798.9 26796.4,20800.6 26804.7,20804.8C26834.1,20819.4 26861.2,20807.1 26867.4,20819.3C26889.1,20862.9 26885.2,20859 26890.7,20879.9C26896.8,20902.9 26884,20944.5 26903.7,20957.3C26923.4,20970.2 26992.7,20957.5 27003.4,20951.1C27024.3,20938.6 27010.6,20937.8 27033.5,20928.6C27034.6,20928.2 27040.8,20925.7 27046.6,20922.8C27118.7,20886.7 27126.1,20890.4 27132.6,20893.7C27137.9,20896.3 27143.6,20899.3 27123.8,20938.8C27122.4,20941.8 27110,20944.9 27118,20947.6C27120.4,20948.4 27117.2,20951.9 27141.3,20968C27150.1,20973.8 27173.4,20981.6 27176.3,20982.5C27216.6,20996 27224.8,20997.9 27253.6,20999.1C27257,21029.1 27257.9,21062.3 27260.2,21091C27263,21125.6 27251.3,21155.5 27256,21190.6C27070.4,21181.4 27088.2,21183.3 27028.4,21190.7C26994.5,21195 26956.6,21189.7 26908.3,21197.7C26900.3,21199.1 26661.8,21201.6 26648.3,21211.7C26645.8,21213.6 26600.8,21236.4 26590,21252.5C26581.8,21264.9 26523,21314.4 26482.8,21322.5C26479,21323.2 26464.2,21332 26456,21347C26443.9,21368.9 26466.7,21370.6 26481.2,21372.8C26498.6,21375.3 26526.9,21373.8 26546.1,21372.8C26567.7,21371.8 26581.3,21375 26612.9,21356C26645.5,21336.4 26654.5,21329.9 26666.7,21322.7C26672.9,21319.1 26680.9,21316.8 26686.1,21313.1C26691.1,21309.6 26700.2,21308.9 26704.1,21309.2C26722.1,21310.8 26754.1,21310.3 26771.8,21307.2C26785.1,21304.9 26797.3,21298.3 26810.3,21294.9C26828.1,21290.3 26856.7,21283.8 26879.5,21283.2C26923.4,21282.1 27040.9,21278.9 27066.8,21287.5C27131.3,21309 27192.1,21288.1 27177.6,21331.8C27172.5,21347.1 27136.1,21341.3 27072.7,21353.9C27042.5,21360 26882.9,21361.9 26876.8,21367.9C26843.2,21401.5 26882.6,21411.4 26886.1,21412.2C27063.4,21456.5 27081.6,21428 27118.1,21433.2C27120,21433.5 27117.9,21438.3 27139.1,21442.5C27150.9,21444.9 27138.5,21451.3 27136.8,21453C27126.6,21463.2 27125.4,21460.4 27103,21469.4C27095.1,21472.5 26966.7,21486.7 26964.3,21486.8C26905.6,21491 26903,21483 26851.2,21511.3C26765.8,21557.9 26761.3,21550.9 26688,21615.1C26685.9,21616.9 26685.1,21615.2 26658.8,21634.9C26654.2,21638.4 26616.9,21666.4 26602.9,21680.4C26601.5,21681.8 26600.1,21681 26591.8,21686.9C26570.5,21689 26546.4,21690.8 26518.4,21692.5C26398.9,21699.8 26270,21678.5 26209.8,21672C26148.1,21665.4 26092,21646.4 26053.2,21611.8C26113.6,21605.1 26146.1,21634.3 26166.5,21633.4C26176,21632.9 26174.4,21608.2 26175.7,21606.2C26186.2,21590.5 26173.4,21512.9 26157.1,21529.3C26148.6,21537.8 26122.1,21532.8 26132.6,21490.8C26146.3,21435.8 26178.1,21454.6 26234.4,21457.6C26241.5,21457.9 26280.1,21459 26302.1,21460.5C26371.3,21465.3 26580,21500.8 26650.2,21486.1C26751.1,21465.1 26839,21458.5 26847.6,21447.2C26856.1,21436 26838.2,21448.9 26701.5,21418.5C26664.1,21410.2 26657.8,21409.2 26649,21413.9C26640.2,21418.5 26651.4,21441.4 26648.9,21446.6C26646.7,21451.1 26641.5,21446.4 26633.8,21445.3C26575,21436.9 26547.3,21441.2 26512.9,21438.9C26484.2,21437 26470.9,21433.4 26427.5,21431.3C26407.9,21430.4 26338,21419.9 26288.8,21424.4C26285.1,21424.7 26245.5,21428.3 26243.3,21429C26242.2,21429.4 26164.8,21437.9 26118.6,21431.3C26116.1,21431 26114.6,21407.4 26126.8,21403.4C26151.7,21395.1 26141.3,21380.3 26132.6,21378.9C26105.2,21374.3 26151.7,21364.6 26195.5,21360.2C26212.7,21358.5 26212.6,21358.7 26228.2,21350.9C26229.8,21350.1 26228.5,21339.4 26200.2,21345.1C26196,21345.9 26151.6,21354.8 26147.7,21356.7C26111.4,21374.9 26111,21373.8 26070.8,21375.4C26071.3,21372.2 26075.8,21340 26080.1,21335.8C26081.3,21334.5 26093.5,21322.4 26094.1,21319.4C26098,21300 26145.7,21258.3 26239.8,21274C26285,21281.5 26435.1,21260.1 26452,21257.7C26487.4,21252.6 26560.9,21219.3 26537.1,21213.4C26475.8,21198 26460.2,21186.5 26434.5,21199.4C26361.5,21235.9 26328,21226.2 26300.4,21230.8C26190.1,21249.2 26186.1,21228 26145.4,21248.3C26142.7,21249.7 26117,21262.5 26110.4,21263.5C26066.5,21269.8 26069.5,21295.8 26044,21304.3C26010.8,21315.3 26046.5,21266.3 26056.8,21235.5C26070.8,21193.6 26070.2,21193.9 26079,21150.4C26091.2,21089 26077.3,21086.4 26080.8,20968.5Z" style="fill:rgb(0,49,50);stroke:black;stroke-width:0.83px;"/>
                        </g>
                        <g transform="matrix(0.131428,0,0,0.0544057,35063.5,-747.772)">
                            <path d="M25609.8,30932.2C25609.8,30932.2 25623.5,30583.1 25627.7,30440C25631.3,30318 25635.2,30074 25635.2,30074C25635.2,30074 25609.1,30305.7 25599.8,30421.9C25588.6,30561.4 25568,30910.9 25568,30910.9L25609.8,30932.2Z" style="fill:rgb(54,27,5);stroke:black;stroke-width:1.09px;"/>
                        </g>
                    </g>
                </g>
            </g>
            <g>
                <g>
                    <g transform="matrix(0.131428,0,0,0.0544057,35063.5,-747.772)">
                        <path d="M24571.2,29701.7C24571.2,29701.7 24360.8,29702.1 24283.8,29786.1C24208.4,29868.3 24193.7,30185.5 24190.7,30204.8C24177,30293.2 24164.5,30389 24155,30479.7C24145.8,30567.5 24138.1,30648.9 24135.2,30736.1C24145,30850.4 24200.2,30925.8 24294.2,30959.1L24287,31224.6C24297.2,31295 24348,31334.2 24403.5,31339.9C24660.9,31392.7 24937.5,31391.9 25249.9,31367C25372.9,31357 25494.9,31340.7 25608.1,31298.3C25608.1,31298.3 25597.6,31265.7 25597.6,31248.8C25597.7,31187.8 25608.6,30931.9 25608.6,30931.9C25608.6,30931.9 25557.1,30908 25512.1,30872.7C25473.8,30842.5 25442,30803.5 25432,30768.5C25422.7,30735.9 25416.8,30700.4 25415.9,30650.7C25414.2,30553.5 25430.6,30434.4 25438.5,30352.3C25446.8,30266.3 25472.7,30089.2 25472.7,30089.2C25462.7,30023.7 25448,29967.9 25417.4,29916.7C25395.9,29880.8 25368.4,29850.1 25343.9,29825C25290.7,29770.7 25195.4,29730.7 25126.8,29707.4L24571.2,29701.7Z" style="fill:rgb(52,30,12);stroke:black;stroke-width:1.09px;"/>
                    </g>
                    <g transform="matrix(0.131428,0,0,0.0544057,34990,-273.096)">
                        <path d="M25914.3,21104.4C25971.9,21157.2 26023.1,21272.1 26018.5,21298.7C25991.2,21277.7 25944.9,21202.5 25879.5,21134.7C25846.8,21100.7 25806.2,21073.9 25781.2,21049.6C25764.5,21033.3 25710.1,20990.8 25718.1,20994C25727.7,20997.8 25777.1,21013.1 25794.9,21023.4C25827.5,21042.2 25874.7,21068 25914.3,21104.4Z" style="fill:rgb(192,54,44);stroke:black;stroke-width:1.09px;"/>
                    </g>
                    <g transform="matrix(0.130946,0.00465611,-0.0112478,0.0542061,35246.6,-384.966)">
                        <path d="M24862.8,21552.1C24817.9,21551.8 24732.5,21550.9 24732.5,21550.9C24732.5,21550.9 24729.4,21506.2 24731.8,21464.8C24736.9,21376 24758.2,21242.9 24766.6,21193.8C24772,21162.7 24791.3,21141.5 24830.5,21118.2C24846.1,21108.9 24864.1,21101 24877.9,21097C24889,21093.7 24900.9,21090.5 24900.9,21090.5C24900.9,21090.5 24888.7,21137.1 24877.3,21195.7C24871.9,21223.7 24859.6,21256.3 24852.6,21315.6C24848.3,21352.1 24844.9,21395.5 24846.1,21458C24847,21504.6 24852.7,21526.2 24862.8,21552.1Z" style="fill:rgb(13,73,65);stroke:black;stroke-width:1.09px;"/>
                    </g>
                    <g transform="matrix(0.131428,0,0,0.0544057,35063.5,-747.772)">
                        <path d="M24317.2,30255.5C24318.3,30283.7 24323,30307 24323.7,30335.2C24327.8,30520.3 24315,30709.4 24298.8,30906.4C24282,30858 24272.9,30790.5 24269.6,30731.5C24266.2,30670.3 24272,30603.1 24278.4,30539.2C24286.3,30459.9 24317.2,30255.5 24317.2,30255.5Z" style="fill:rgb(32,21,8);stroke:black;stroke-width:1.09px;"/>
                    </g>
                    <g transform="matrix(0.131428,0,0,0.0544057,35063.5,-747.772)">
                        <path d="M24297.1,30961.1C24298.5,30962 24297.2,31002.1 24318.3,31035.5C24334.1,31060.4 24379.2,31077.1 24400.3,31084.6C24471.9,31109.9 24555.6,31136.1 24666.9,31141.5C24777.3,31146.8 24917.9,31133.2 24999.6,31111C25064,31093.6 25146,31065.3 25176,31009.2C25206.1,30953.2 25188.8,30843.2 25186.2,30777.6C25183,30700.3 25172,30594.7 25176,30510.3C25178.6,30457.8 25182.4,30364.5 25191.9,30294.5C25200,30234.6 25214.1,30193.2 25214.1,30193.2C25214.1,30193.2 25223.7,30445.1 25235.1,30553.8C25245.4,30651.7 25255.8,30777.4 25282.5,30845.3C25303.5,30898.7 25354.3,30937.5 25395.2,30961.1C25434.3,30983.6 25487.6,30980.2 25524.2,30975.8C25551.3,30972.6 25609.7,30933.1 25609.7,30933.1C25609.7,30933.1 25599,31135.9 25598.8,31196.5C25598.8,31229.7 25609.1,31301 25609.1,31301C25484.9,31346.4 25342.5,31359.1 25206.4,31369.8C25090.3,31379 24970.5,31383.7 24857.4,31383.1C24747.4,31382.4 24614.7,31376.8 24527.9,31366C24462.7,31357.8 24382.1,31343.4 24341.6,31320.2C24311,31302.7 24289.4,31254.4 24289.3,31223.7C24285,31137.3 24289,31049.5 24297.1,30961.1Z" style="fill:rgb(32,21,8);stroke:black;stroke-width:1.09px;"/>
                    </g>
                </g>
                <g>
                    <g transform="matrix(0.131428,0,0,0.0544057,35063.5,-747.772)">
                        <path d="M25288.2,29040.3C25288.2,29040.3 25307.4,29092.1 25316.5,29157.1C25319,29175 25319.7,29192.6 25320.5,29210.9C25321.8,29241.9 25319.7,29276.2 25316.5,29296.4C25311.4,29329.7 25289.5,29385.2 25266.9,29425.2C25242.9,29467.6 25218.4,29493.4 25218.4,29493.4C25218.4,29493.4 25238.4,29464.7 25245.4,29442.5C25253.9,29415.2 25264,29372.7 25269.7,29329.6C25272.2,29311.3 25273.9,29296.3 25275.2,29283.4C25277.2,29262.3 25277.8,29247 25277.9,29231.9C25278,29215.6 25279.6,29210.5 25277.9,29193.1C25277.6,29189.2 25273.6,29180.6 25270.8,29173.4C25268.7,29167.8 25268.6,29160.6 25268.2,29157C25266.5,29142.6 25268.6,29118.1 25272,29101.7C25273.3,29095.5 25279,29081.5 25281.9,29070.8C25286.4,29053.9 25288.2,29040.3 25288.2,29040.3Z" style="fill:rgb(255,172,61);stroke:black;stroke-width:1.09px;"/>
                    </g>
                    <g transform="matrix(0.131428,0,0,0.0544057,35063.5,-747.772)">
                        <path d="M25121.7,29566.8C25121.7,29566.8 25174,29541.7 25193.4,29525.2C25213.5,29508.1 25238.6,29476.3 25246.4,29446.8C25251.9,29426 25262.1,29390.2 25266.9,29350.6C25269.3,29330.7 25275.1,29281.2 25275.1,29281.2C25275.1,29281.2 25279.4,29215 25278.4,29193.5C25277.9,29183.8 25268.8,29178.3 25268.7,29152C25268.6,29141.5 25268.7,29126.9 25270.8,29114.6C25273.5,29098.8 25281.2,29081.7 25284.9,29056.8C25291.1,29015.7 25290.5,28961.5 25286.1,28922C25280.5,28872.6 25273.7,28830 25255.2,28791.2C25236.6,28752.4 25200.9,28709.5 25170.3,28685.3C25139.2,28660.7 25087.4,28646.4 25087.4,28646.4C25154.6,28693.2 25216.1,28773.4 25235.1,28861.2C25254,28949 25251.3,29083.3 25193.1,29163.3C25193.1,29163.3 25176.7,29124.4 25154.9,29107.4C25140,29095.9 25119.7,29102.6 25112,29107.4C25103.2,29112.8 25082.2,29134.3 25076.4,29162.1C25069.4,29194.9 25078.4,29234.2 25078.4,29234.2C25078.4,29234.2 25084.9,29275 25090.8,29294.7C25096.7,29314.4 25113.8,29352.7 25113.8,29352.7L25121.7,29566.8Z" style="fill:rgb(190,113,49);stroke:black;stroke-width:1.09px;"/>
                    </g>
                    <g transform="matrix(0.131428,0,0,0.0544057,35063.5,-747.772)">
                        <path d="M24947,30097.3L24936.4,30250.6C25020.9,30215.4 25097.9,30130.7 25127.7,30015C25130,30006.2 25134.4,29962 25136.3,29952.7L25114.1,29352.1C25114.1,29352.1 25097.5,29321.8 25087.4,29282.3C25074.1,29230.6 25068.1,29163.9 25086,29137.5C25091.6,29129.3 25098.6,29116.6 25109.2,29109.6C25117.7,29104 25129.4,29103.5 25137.4,29101.6C25157.9,29096.6 25192.5,29158.3 25192.5,29167.4C25236.9,29104.5 25253.9,28980.3 25245.8,28904.4C25237.8,28828.5 25201.9,28758.7 25151.7,28702.2C25134.5,28682.9 25114.3,28665 25091.9,28649.1C25048.8,28618.6 24997.4,28596 24943.7,28586.6C24855.3,28571.1 24697.8,28574.8 24618.3,28610.1C24540.3,28644.7 24477.1,28712.4 24435.3,28789.3C24393.5,28866.2 24389.5,28972.2 24371.2,29061.9C24347.8,29176.5 24331,29357.8 24302.6,29484.3C24276.1,29602.6 24226.3,29729.1 24210,29826.3C24200,29885.6 24177.5,29961.3 24182.5,30020.5C24184,30037.5 24188.5,30052.8 24192.9,30064.9C24196.3,30074.3 24201.3,30083.9 24208.9,30093.2C24219.5,30106.2 24236.5,30117.7 24248.8,30127.8C24266.1,30142.1 24313.1,30179.3 24313.1,30179.3L24337.8,29955.8C24342.8,30012.4 24344.8,30069.1 24361.3,30114.4C24371.6,30142.5 24387.5,30172.4 24410.7,30188C24448.3,30213.3 24507.4,30233.4 24578.3,30244.8C24662.5,30258.5 24780,30272.9 24841.5,30248.3C24872.4,30235.9 24890,30217.2 24905.4,30190.3C24918.9,30166.7 24930.9,30136.8 24947,30097.3Z" style="fill:rgb(31,23,9);stroke:black;stroke-width:1.09px;"/>
                    </g>
                    <g transform="matrix(0.131428,0,0,0.0544057,34986,-286.062)">
                        <path d="M25516.2,20126.6C25503,20114.9 25466.6,20087.3 25465.5,20092C25465.5,20092 25546.2,20096.5 25582.6,20109.3C25621.5,20123 25666.8,20150 25699.4,20174.2C25725.5,20193.5 25757.6,20228.9 25775,20256.7C25793.5,20286.2 25823.1,20305.6 25823.2,20358.8C25759.5,20343.9 25776.1,20305.8 25750.2,20281.6C25723.1,20256.4 25688.7,20232.2 25660.7,20207.3C25627.3,20177.6 25546.9,20153.5 25516.2,20126.6Z" style="fill:rgb(178,19,13);stroke:black;stroke-width:1.09px;"/>
                    </g>
                </g>
            </g>
        </g>
    </g>
</svg>
