<?xml version="1.0" encoding="UTF-8" standalone="no"?><!DOCTYPE svg PUBLIC "-//W3C//DTD SVG 1.1//EN" "http://www.w3.org/Graphics/SVG/1.1/DTD/svg11.dtd"><svg width="100%" height="100%" viewBox="0 0 4523 1637" version="1.1" xmlns="http://www.w3.org/2000/svg" xmlns:xlink="http://www.w3.org/1999/xlink" xml:space="preserve" xmlns:serif="http://www.serif.com/" style="fill-rule:evenodd;clip-rule:evenodd;stroke-linejoin:round;stroke-miterlimit:2;"><g id="Group---TEXT" serif:id="Group - TEXT"></g><g id="Group---TEXT---LOGO" serif:id="Group - TEXT &amp; LOGO"><rect id="Gabe-McWilliams---RIGHT---Withered" serif:id="Gabe McWilliams - RIGHT - Withered" x="-0" y="-0" width="4522.49" height="1636.85" style="fill:none;"/><g id="Gabe-McWilliams---RIGHT---Withered1" serif:id="Gabe McWilliams - RIGHT - Withered"><g id="A" transform="matrix(1,0,0,0.793766,0,181.555)"><g transform="matrix(231.619,0,0,231.619,996.884,1779.34)"><path d="M0.081,-0l-0,-0.728l0.164,0l0.158,0.418c0.005,0.012 0.01,0.028 0.016,0.047c0.005,0.019 0.011,0.039 0.017,0.062c0.007,0.022 0.013,0.043 0.018,0.065c0.006,0.021 0.011,0.041 0.015,0.058l-0.024,0c0.005,-0.016 0.01,-0.035 0.015,-0.056c0.006,-0.022 0.012,-0.043 0.018,-0.066c0.006,-0.022 0.012,-0.043 0.018,-0.062c0.005,-0.02 0.011,-0.036 0.015,-0.048l0.157,-0.418l0.164,0l0,0.728l-0.11,-0l-0,-0.391c-0,-0.016 -0,-0.034 -0,-0.054c0,-0.021 0.001,-0.043 0.001,-0.066c0.001,-0.024 0.001,-0.047 0.002,-0.071c0.001,-0.024 0.001,-0.047 0.001,-0.069l0.009,0c-0.007,0.024 -0.014,0.049 -0.022,0.074c-0.007,0.025 -0.015,0.049 -0.022,0.073c-0.008,0.023 -0.015,0.045 -0.021,0.064c-0.007,0.02 -0.013,0.036 -0.017,0.049l-0.149,0.391l-0.096,0l-0.15,-0.391c-0.005,-0.013 -0.011,-0.029 -0.017,-0.048c-0.006,-0.019 -0.013,-0.04 -0.021,-0.063c-0.007,-0.023 -0.015,-0.048 -0.023,-0.073c-0.007,-0.025 -0.015,-0.05 -0.023,-0.076l0.01,0c0,0.02 0.001,0.042 0.001,0.065c0.001,0.024 0.001,0.047 0.002,0.071c0,0.024 0.001,0.046 0.001,0.067c0.001,0.022 0.001,0.041 0.001,0.057l-0,0.391l-0.108,0Z" style="fill:#b8470b;fill-rule:nonzero;"/></g><g transform="matrix(231.619,0,0,231.619,1208.26,1779.34)"><path d="M0.025,-0l0.259,-0.728l0.137,0l0.263,0.728l-0.12,-0l-0.142,-0.405c-0.011,-0.033 -0.023,-0.071 -0.036,-0.116c-0.013,-0.045 -0.029,-0.098 -0.046,-0.16l0.023,-0c-0.017,0.063 -0.032,0.117 -0.045,0.162c-0.013,0.045 -0.025,0.083 -0.035,0.114l-0.138,0.405l-0.12,-0Zm0.14,-0.192l0,-0.093l0.379,0l-0,0.093l-0.379,0Z" style="fill:#b8470b;fill-rule:nonzero;"/></g><g transform="matrix(231.619,0,0,231.619,1363.99,1779.34)"><path d="M0.383,0.01c-0.063,-0 -0.119,-0.015 -0.169,-0.045c-0.049,-0.03 -0.088,-0.073 -0.116,-0.128c-0.029,-0.056 -0.043,-0.123 -0.043,-0.2c0,-0.078 0.014,-0.145 0.043,-0.201c0.028,-0.056 0.067,-0.098 0.117,-0.128c0.049,-0.03 0.105,-0.045 0.168,-0.045c0.038,-0 0.074,0.005 0.108,0.016c0.034,0.011 0.064,0.027 0.09,0.048c0.027,0.022 0.049,0.047 0.066,0.078c0.018,0.03 0.03,0.064 0.036,0.103l-0.112,0c-0.005,-0.023 -0.013,-0.044 -0.024,-0.062c-0.012,-0.017 -0.026,-0.032 -0.043,-0.045c-0.016,-0.012 -0.035,-0.021 -0.055,-0.028c-0.021,-0.006 -0.042,-0.009 -0.065,-0.009c-0.042,0 -0.079,0.011 -0.112,0.032c-0.033,0.021 -0.059,0.052 -0.078,0.092c-0.019,0.041 -0.028,0.09 -0.028,0.149c-0,0.058 0.009,0.108 0.028,0.148c0.019,0.041 0.045,0.072 0.078,0.092c0.033,0.021 0.07,0.031 0.112,0.031c0.022,0 0.044,-0.003 0.064,-0.009c0.021,-0.007 0.04,-0.016 0.056,-0.028c0.017,-0.012 0.031,-0.027 0.043,-0.045c0.011,-0.018 0.019,-0.038 0.024,-0.062l0.112,0c-0.005,0.036 -0.017,0.069 -0.034,0.099c-0.017,0.03 -0.038,0.056 -0.065,0.078c-0.026,0.022 -0.056,0.039 -0.09,0.051c-0.034,0.012 -0.071,0.018 -0.111,0.018Z" style="fill:#b8470b;fill-rule:nonzero;"/></g><g transform="matrix(231.619,0,0,231.619,1533.86,1779.34)"><path d="M0.081,-0l-0,-0.728l0.111,0l0,0.308l0.36,0l0,-0.308l0.112,0l-0,0.728l-0.112,-0l0,-0.324l-0.36,-0l0,0.324l-0.111,-0Z" style="fill:#b8470b;fill-rule:nonzero;"/></g><g transform="matrix(231.619,0,0,231.619,1706.33,1779.34)"><rect x="0.081" y="-0.728" width="0.112" height="0.728" style="fill:#b8470b;fill-rule:nonzero;"/></g><g transform="matrix(231.619,0,0,231.619,1769.44,1779.34)"><path d="M0.081,-0l-0,-0.728l0.128,0l0.274,0.433c0.009,0.015 0.019,0.032 0.03,0.052c0.012,0.02 0.024,0.042 0.037,0.067c0.012,0.025 0.025,0.052 0.037,0.081l-0.013,0c-0.003,-0.027 -0.005,-0.055 -0.007,-0.082c-0.001,-0.027 -0.002,-0.053 -0.003,-0.076c-0.001,-0.024 -0.001,-0.044 -0.001,-0.061l0,-0.414l0.113,0l-0,0.728l-0.129,-0l-0.246,-0.387c-0.013,-0.022 -0.026,-0.043 -0.038,-0.064c-0.013,-0.022 -0.026,-0.046 -0.042,-0.074c-0.015,-0.029 -0.033,-0.063 -0.055,-0.103l0.018,-0c0.001,0.035 0.003,0.069 0.004,0.1c0.002,0.031 0.003,0.059 0.004,0.083c0.001,0.024 0.002,0.043 0.002,0.057l-0,0.388l-0.113,-0Z" style="fill:#b8470b;fill-rule:nonzero;"/></g><g transform="matrix(231.619,0,0,231.619,1944.62,1779.34)"><path d="M0.081,-0l-0,-0.728l0.457,0l0,0.096l-0.346,0l0,0.217l0.322,0l-0,0.095l-0.322,0l0,0.224l0.35,0l-0,0.096l-0.461,0Z" style="fill:#b8470b;fill-rule:nonzero;"/></g><g transform="matrix(231.619,0,0,231.619,2084.29,1779.34)"></g><g transform="matrix(231.619,0,0,231.619,2146.04,1779.34)"><path d="M0.081,-0l-0,-0.728l0.111,0l0,0.632l0.329,0l0,0.096l-0.44,-0Z" style="fill:#b8470b;fill-rule:nonzero;"/></g><g transform="matrix(231.619,0,0,231.619,2277.01,1779.34)"><path d="M0.081,-0l-0,-0.728l0.457,0l0,0.096l-0.346,0l0,0.217l0.322,0l-0,0.095l-0.322,0l0,0.224l0.35,0l-0,0.096l-0.461,0Z" style="fill:#b8470b;fill-rule:nonzero;"/></g><g transform="matrix(231.619,0,0,231.619,2416.68,1779.34)"><path d="M0.025,-0l0.259,-0.728l0.137,0l0.263,0.728l-0.12,-0l-0.142,-0.405c-0.011,-0.033 -0.023,-0.071 -0.036,-0.116c-0.013,-0.045 -0.029,-0.098 -0.046,-0.16l0.023,-0c-0.017,0.063 -0.032,0.117 -0.045,0.162c-0.013,0.045 -0.025,0.083 -0.035,0.114l-0.138,0.405l-0.12,-0Zm0.14,-0.192l0,-0.093l0.379,0l-0,0.093l-0.379,0Z" style="fill:#b8470b;fill-rule:nonzero;"/></g><g transform="matrix(231.619,0,0,231.619,2580.89,1779.34)"><path d="M0.081,-0l-0,-0.728l0.26,0c0.056,0 0.103,0.01 0.14,0.03c0.038,0.019 0.066,0.046 0.084,0.08c0.019,0.035 0.028,0.074 0.028,0.119c0,0.045 -0.009,0.084 -0.028,0.118c-0.019,0.034 -0.047,0.06 -0.084,0.078c-0.037,0.019 -0.084,0.028 -0.141,0.028l-0.196,0l0,-0.095l0.185,0c0.036,0 0.065,-0.005 0.087,-0.015c0.022,-0.011 0.038,-0.025 0.049,-0.045c0.01,-0.019 0.015,-0.042 0.015,-0.069c0,-0.027 -0.005,-0.051 -0.015,-0.071c-0.011,-0.02 -0.027,-0.035 -0.049,-0.046c-0.022,-0.011 -0.051,-0.016 -0.087,-0.016l-0.137,-0l0,0.632l-0.111,0Zm0.413,0l-0.176,-0.329l0.123,0l0.18,0.329l-0.127,0Z" style="fill:#b8470b;fill-rule:nonzero;"/></g><g transform="matrix(231.619,0,0,231.619,2730.97,1779.34)"><path d="M0.081,-0l-0,-0.728l0.128,0l0.274,0.433c0.009,0.015 0.019,0.032 0.03,0.052c0.012,0.02 0.024,0.042 0.037,0.067c0.012,0.025 0.025,0.052 0.037,0.081l-0.013,0c-0.003,-0.027 -0.005,-0.055 -0.007,-0.082c-0.001,-0.027 -0.002,-0.053 -0.003,-0.076c-0.001,-0.024 -0.001,-0.044 -0.001,-0.061l0,-0.414l0.113,0l-0,0.728l-0.129,-0l-0.246,-0.387c-0.013,-0.022 -0.026,-0.043 -0.038,-0.064c-0.013,-0.022 -0.026,-0.046 -0.042,-0.074c-0.015,-0.029 -0.033,-0.063 -0.055,-0.103l0.018,-0c0.001,0.035 0.003,0.069 0.004,0.1c0.002,0.031 0.003,0.059 0.004,0.083c0.001,0.024 0.002,0.043 0.002,0.057l-0,0.388l-0.113,-0Z" style="fill:#b8470b;fill-rule:nonzero;"/></g><g transform="matrix(231.619,0,0,231.619,2906.16,1779.34)"><rect x="0.081" y="-0.728" width="0.112" height="0.728" style="fill:#b8470b;fill-rule:nonzero;"/></g><g transform="matrix(231.619,0,0,231.619,2969.26,1779.34)"><path d="M0.081,-0l-0,-0.728l0.128,0l0.274,0.433c0.009,0.015 0.019,0.032 0.03,0.052c0.012,0.02 0.024,0.042 0.037,0.067c0.012,0.025 0.025,0.052 0.037,0.081l-0.013,0c-0.003,-0.027 -0.005,-0.055 -0.007,-0.082c-0.001,-0.027 -0.002,-0.053 -0.003,-0.076c-0.001,-0.024 -0.001,-0.044 -0.001,-0.061l0,-0.414l0.113,0l-0,0.728l-0.129,-0l-0.246,-0.387c-0.013,-0.022 -0.026,-0.043 -0.038,-0.064c-0.013,-0.022 -0.026,-0.046 -0.042,-0.074c-0.015,-0.029 -0.033,-0.063 -0.055,-0.103l0.018,-0c0.001,0.035 0.003,0.069 0.004,0.1c0.002,0.031 0.003,0.059 0.004,0.083c0.001,0.024 0.002,0.043 0.002,0.057l-0,0.388l-0.113,-0Z" style="fill:#b8470b;fill-rule:nonzero;"/></g><g transform="matrix(231.619,0,0,231.619,3144.45,1779.34)"><path d="M0.386,0.01c-0.066,-0 -0.123,-0.015 -0.173,-0.046c-0.05,-0.03 -0.088,-0.073 -0.116,-0.129c-0.028,-0.055 -0.042,-0.122 -0.042,-0.198c0,-0.078 0.014,-0.145 0.042,-0.2c0.028,-0.056 0.067,-0.099 0.116,-0.129c0.05,-0.03 0.105,-0.045 0.168,-0.045c0.039,-0 0.076,0.005 0.11,0.017c0.034,0.012 0.065,0.028 0.091,0.049c0.027,0.022 0.049,0.047 0.067,0.077c0.017,0.029 0.029,0.061 0.035,0.097l-0.115,-0c-0.006,-0.022 -0.015,-0.041 -0.027,-0.058c-0.011,-0.017 -0.025,-0.031 -0.04,-0.044c-0.016,-0.012 -0.034,-0.021 -0.054,-0.027c-0.02,-0.007 -0.042,-0.01 -0.066,-0.01c-0.041,0 -0.077,0.011 -0.11,0.031c-0.033,0.021 -0.059,0.052 -0.078,0.092c-0.019,0.041 -0.028,0.091 -0.028,0.149c-0,0.059 0.009,0.108 0.028,0.149c0.019,0.04 0.045,0.071 0.079,0.092c0.033,0.021 0.071,0.031 0.114,0.031c0.039,0 0.073,-0.008 0.102,-0.023c0.029,-0.016 0.052,-0.039 0.068,-0.068c0.016,-0.029 0.024,-0.064 0.024,-0.103l0.029,0.005l-0.207,-0l-0,-0.092l0.287,-0l-0,0.083c-0,0.062 -0.013,0.115 -0.039,0.16c-0.027,0.044 -0.062,0.079 -0.108,0.103c-0.046,0.025 -0.098,0.037 -0.157,0.037Z" style="fill:#b8470b;fill-rule:nonzero;"/></g><g transform="matrix(231.619,0,0,231.619,3317.6,1779.34)"></g><g transform="matrix(231.619,0,0,231.619,3379.35,1779.34)"><path d="M0.283,0.01c-0.049,0 -0.091,-0.009 -0.126,-0.027c-0.035,-0.018 -0.062,-0.042 -0.081,-0.072c-0.019,-0.03 -0.029,-0.064 -0.029,-0.102c0,-0.031 0.006,-0.058 0.019,-0.08c0.012,-0.023 0.03,-0.044 0.052,-0.064c0.022,-0.019 0.047,-0.039 0.076,-0.06l0.118,-0.083c0.009,-0.007 0.019,-0.015 0.028,-0.023c0.01,-0.009 0.018,-0.019 0.024,-0.031c0.007,-0.012 0.01,-0.025 0.01,-0.04c0,-0.021 -0.007,-0.039 -0.021,-0.052c-0.014,-0.014 -0.034,-0.021 -0.059,-0.021c-0.017,-0 -0.032,0.003 -0.045,0.01c-0.013,0.007 -0.023,0.016 -0.03,0.029c-0.007,0.012 -0.01,0.026 -0.01,0.042c-0,0.018 0.004,0.035 0.012,0.051c0.008,0.016 0.019,0.033 0.034,0.051c0.014,0.018 0.03,0.037 0.048,0.059l0.339,0.403l-0.123,-0l-0.279,-0.328c-0.024,-0.028 -0.046,-0.055 -0.066,-0.079c-0.02,-0.025 -0.036,-0.05 -0.048,-0.075c-0.012,-0.025 -0.018,-0.052 -0.018,-0.082c-0,-0.033 0.007,-0.062 0.022,-0.088c0.016,-0.026 0.037,-0.046 0.065,-0.061c0.028,-0.015 0.06,-0.022 0.097,-0.022c0.037,-0 0.069,0.007 0.096,0.022c0.027,0.014 0.048,0.034 0.063,0.058c0.014,0.025 0.022,0.052 0.022,0.082c-0,0.022 -0.004,0.043 -0.013,0.062c-0.008,0.019 -0.019,0.037 -0.034,0.053c-0.014,0.016 -0.031,0.032 -0.05,0.046l-0.146,0.107c-0.027,0.02 -0.046,0.039 -0.058,0.056c-0.011,0.018 -0.017,0.037 -0.017,0.058c-0,0.022 0.005,0.042 0.016,0.058c0.01,0.017 0.025,0.03 0.044,0.039c0.019,0.009 0.041,0.014 0.065,0.014c0.028,-0 0.056,-0.006 0.082,-0.018c0.026,-0.012 0.05,-0.029 0.071,-0.051c0.021,-0.022 0.037,-0.048 0.05,-0.079c0.012,-0.031 0.018,-0.065 0.018,-0.104l0.097,0c0,0.047 -0.005,0.087 -0.016,0.12c-0.01,0.032 -0.023,0.058 -0.038,0.079c-0.015,0.02 -0.03,0.036 -0.043,0.048l-0.024,0.023c-0.025,0.024 -0.055,0.042 -0.09,0.054c-0.035,0.012 -0.07,0.018 -0.104,0.018Z" style="fill:#b8470b;fill-rule:nonzero;"/></g><g transform="matrix(231.619,0,0,231.619,3530.67,1779.34)"></g><g transform="matrix(231.619,0,0,231.619,3592.42,1779.34)"><path d="M0.081,-0l-0,-0.728l0.457,0l0,0.096l-0.346,0l0,0.217l0.322,0l-0,0.095l-0.322,0l0,0.224l0.35,0l-0,0.096l-0.461,0Z" style="fill:#b8470b;fill-rule:nonzero;"/></g><g transform="matrix(231.619,0,0,231.619,3732.09,1779.34)"><path d="M0.317,-0l-0.18,-0l0,-0.097l0.174,-0c0.055,-0 0.101,-0.011 0.137,-0.031c0.037,-0.021 0.064,-0.051 0.082,-0.091c0.018,-0.04 0.028,-0.088 0.028,-0.146c-0,-0.057 -0.01,-0.105 -0.028,-0.144c-0.018,-0.04 -0.045,-0.07 -0.08,-0.09c-0.036,-0.021 -0.08,-0.031 -0.133,-0.031l-0.184,-0l0,-0.098l0.191,0c0.072,0 0.133,0.015 0.184,0.044c0.051,0.029 0.09,0.071 0.118,0.125c0.027,0.054 0.041,0.119 0.041,0.194c-0,0.076 -0.014,0.141 -0.041,0.196c-0.028,0.054 -0.068,0.096 -0.12,0.125c-0.052,0.029 -0.115,0.044 -0.189,0.044Zm-0.125,-0.728l0,0.728l-0.111,-0l-0,-0.728l0.111,0Z" style="fill:#b8470b;fill-rule:nonzero;"/></g><g transform="matrix(231.619,0,0,231.619,3899.24,1779.34)"><path d="M0.386,0.01c-0.066,-0 -0.123,-0.015 -0.173,-0.046c-0.05,-0.03 -0.088,-0.073 -0.116,-0.129c-0.028,-0.055 -0.042,-0.122 -0.042,-0.198c0,-0.078 0.014,-0.145 0.042,-0.2c0.028,-0.056 0.067,-0.099 0.116,-0.129c0.05,-0.03 0.105,-0.045 0.168,-0.045c0.039,-0 0.076,0.005 0.11,0.017c0.034,0.012 0.065,0.028 0.091,0.049c0.027,0.022 0.049,0.047 0.067,0.077c0.017,0.029 0.029,0.061 0.035,0.097l-0.115,-0c-0.006,-0.022 -0.015,-0.041 -0.027,-0.058c-0.011,-0.017 -0.025,-0.031 -0.04,-0.044c-0.016,-0.012 -0.034,-0.021 -0.054,-0.027c-0.02,-0.007 -0.042,-0.01 -0.066,-0.01c-0.041,0 -0.077,0.011 -0.11,0.031c-0.033,0.021 -0.059,0.052 -0.078,0.092c-0.019,0.041 -0.028,0.091 -0.028,0.149c-0,0.059 0.009,0.108 0.028,0.149c0.019,0.04 0.045,0.071 0.079,0.092c0.033,0.021 0.071,0.031 0.114,0.031c0.039,0 0.073,-0.008 0.102,-0.023c0.029,-0.016 0.052,-0.039 0.068,-0.068c0.016,-0.029 0.024,-0.064 0.024,-0.103l0.029,0.005l-0.207,-0l-0,-0.092l0.287,-0l-0,0.083c-0,0.062 -0.013,0.115 -0.039,0.16c-0.027,0.044 -0.062,0.079 -0.108,0.103c-0.046,0.025 -0.098,0.037 -0.157,0.037Z" style="fill:#b8470b;fill-rule:nonzero;"/></g><g transform="matrix(231.619,0,0,231.619,4072.39,1779.34)"><path d="M0.081,-0l-0,-0.728l0.457,0l0,0.096l-0.346,0l0,0.217l0.322,0l-0,0.095l-0.322,0l0,0.224l0.35,0l-0,0.096l-0.461,0Z" style="fill:#b8470b;fill-rule:nonzero;"/></g><g transform="matrix(231.619,0,0,231.619,4212.06,1779.34)"></g><g transform="matrix(231.619,0,0,231.619,4273.81,1779.34)"><path d="M0.025,-0l0.259,-0.728l0.137,0l0.263,0.728l-0.12,-0l-0.142,-0.405c-0.011,-0.033 -0.023,-0.071 -0.036,-0.116c-0.013,-0.045 -0.029,-0.098 -0.046,-0.16l0.023,-0c-0.017,0.063 -0.032,0.117 -0.045,0.162c-0.013,0.045 -0.025,0.083 -0.035,0.114l-0.138,0.405l-0.12,-0Zm0.14,-0.192l0,-0.093l0.379,0l-0,0.093l-0.379,0Z" style="fill:#b8470b;fill-rule:nonzero;"/></g><g transform="matrix(231.619,0,0,231.619,4438.03,1779.34)"><rect x="0.081" y="-0.728" width="0.112" height="0.728" style="fill:#b8470b;fill-rule:nonzero;"/></g><g transform="matrix(231.619,0,0,231.619,4501.14,1779.34)"></g><g transform="matrix(231.619,0,0,231.619,4562.89,1779.34)"></g></g><g><g id="A1" serif:id="A" transform="matrix(1,0,0,0.894444,-4.54747e-13,-135.696)"><g transform="matrix(632.722,0,0,632.722,986.488,1170.3)"><path d="M0.388,0.01c-0.068,-0 -0.127,-0.015 -0.179,-0.046c-0.051,-0.03 -0.091,-0.073 -0.12,-0.128c-0.029,-0.056 -0.043,-0.122 -0.043,-0.199c-0,-0.078 0.015,-0.146 0.045,-0.202c0.03,-0.055 0.07,-0.098 0.121,-0.128c0.051,-0.029 0.109,-0.044 0.173,-0.044c0.041,-0 0.079,0.006 0.114,0.017c0.035,0.012 0.067,0.029 0.095,0.051c0.027,0.022 0.05,0.048 0.067,0.078c0.017,0.029 0.029,0.062 0.034,0.098l-0.152,0c-0.005,-0.017 -0.012,-0.033 -0.021,-0.047c-0.01,-0.014 -0.021,-0.025 -0.034,-0.035c-0.013,-0.01 -0.028,-0.017 -0.045,-0.022c-0.017,-0.005 -0.035,-0.008 -0.056,-0.008c-0.037,0 -0.07,0.009 -0.099,0.028c-0.028,0.019 -0.051,0.046 -0.067,0.082c-0.016,0.036 -0.024,0.079 -0.024,0.131c0,0.051 0.008,0.095 0.024,0.131c0.016,0.036 0.038,0.063 0.067,0.082c0.028,0.019 0.062,0.028 0.101,0.028c0.035,0 0.065,-0.006 0.091,-0.019c0.025,-0.012 0.044,-0.031 0.057,-0.054c0.014,-0.023 0.02,-0.051 0.02,-0.083l0.032,0.005l-0.189,-0l-0,-0.114l0.302,0l0,0.091c0,0.064 -0.013,0.119 -0.04,0.164c-0.027,0.046 -0.064,0.081 -0.112,0.106c-0.047,0.024 -0.101,0.037 -0.162,0.037Z" style="fill:#efc893;fill-rule:nonzero;"/></g><g transform="matrix(632.722,0,0,632.722,1461.34,1170.3)"><path d="M0.215,0.011c-0.035,-0 -0.066,-0.007 -0.093,-0.019c-0.028,-0.012 -0.049,-0.03 -0.065,-0.054c-0.016,-0.025 -0.024,-0.055 -0.024,-0.091c0,-0.03 0.006,-0.056 0.017,-0.076c0.011,-0.02 0.026,-0.037 0.046,-0.049c0.019,-0.013 0.041,-0.022 0.066,-0.029c0.024,-0.006 0.05,-0.011 0.077,-0.013c0.032,-0.004 0.057,-0.007 0.076,-0.009c0.02,-0.003 0.034,-0.008 0.043,-0.014c0.009,-0.006 0.014,-0.014 0.014,-0.026l-0,-0.003c-0,-0.015 -0.004,-0.028 -0.01,-0.039c-0.007,-0.011 -0.017,-0.019 -0.029,-0.025c-0.013,-0.006 -0.029,-0.008 -0.047,-0.008c-0.019,-0 -0.035,0.002 -0.049,0.008c-0.014,0.006 -0.025,0.013 -0.034,0.023c-0.009,0.009 -0.016,0.02 -0.02,0.032l-0.134,-0.023c0.009,-0.031 0.025,-0.058 0.047,-0.08c0.021,-0.023 0.049,-0.04 0.081,-0.051c0.032,-0.012 0.069,-0.018 0.109,-0.018c0.03,0 0.058,0.004 0.086,0.011c0.028,0.007 0.052,0.017 0.074,0.032c0.022,0.015 0.04,0.034 0.053,0.058c0.013,0.023 0.019,0.051 0.019,0.084l0,0.368l-0.139,-0l0,-0.076l-0.005,0c-0.008,0.017 -0.02,0.032 -0.035,0.045c-0.014,0.013 -0.032,0.023 -0.053,0.031c-0.02,0.007 -0.044,0.011 -0.071,0.011Zm0.041,-0.103c0.023,-0 0.044,-0.005 0.061,-0.014c0.017,-0.009 0.031,-0.021 0.041,-0.037c0.01,-0.016 0.015,-0.033 0.015,-0.052l-0,-0.059c-0.005,0.003 -0.011,0.006 -0.02,0.008c-0.009,0.003 -0.018,0.005 -0.029,0.007c-0.011,0.002 -0.021,0.004 -0.032,0.006c-0.01,0.001 -0.02,0.003 -0.028,0.004c-0.018,0.002 -0.034,0.006 -0.047,0.012c-0.014,0.006 -0.024,0.014 -0.032,0.023c-0.008,0.01 -0.011,0.022 -0.011,0.037c-0,0.014 0.003,0.026 0.01,0.036c0.008,0.009 0.017,0.017 0.03,0.022c0.012,0.004 0.026,0.007 0.042,0.007Z" style="fill:#efc893;fill-rule:nonzero;"/></g><g transform="matrix(632.722,0,0,632.722,1828.67,1170.3)"><path d="M0.368,0.009c-0.029,0 -0.054,-0.005 -0.075,-0.015c-0.02,-0.01 -0.037,-0.022 -0.05,-0.037c-0.013,-0.015 -0.023,-0.03 -0.029,-0.044l-0.008,-0l0,0.087l-0.144,-0l0,-0.728l0.147,0l-0,0.274l0.005,-0c0.006,-0.015 0.016,-0.029 0.028,-0.045c0.013,-0.015 0.029,-0.028 0.05,-0.038c0.02,-0.011 0.046,-0.016 0.077,-0.016c0.041,0 0.078,0.011 0.111,0.032c0.033,0.02 0.06,0.052 0.08,0.093c0.02,0.042 0.031,0.094 0.031,0.156c-0,0.061 -0.01,0.112 -0.03,0.154c-0.019,0.041 -0.046,0.073 -0.079,0.095c-0.034,0.021 -0.072,0.032 -0.114,0.032Zm-0.045,-0.117c0.026,-0 0.047,-0.007 0.065,-0.021c0.017,-0.014 0.03,-0.034 0.039,-0.058c0.009,-0.025 0.013,-0.054 0.013,-0.085c0,-0.032 -0.004,-0.061 -0.013,-0.085c-0.009,-0.025 -0.022,-0.044 -0.039,-0.058c-0.018,-0.013 -0.039,-0.02 -0.065,-0.02c-0.025,-0 -0.046,0.006 -0.064,0.02c-0.017,0.013 -0.031,0.032 -0.04,0.056c-0.009,0.025 -0.013,0.053 -0.013,0.087c-0,0.032 0.004,0.061 0.013,0.086c0.01,0.024 0.023,0.043 0.041,0.057c0.017,0.014 0.038,0.021 0.063,0.021Z" style="fill:#efc893;fill-rule:nonzero;"/></g><g transform="matrix(632.722,0,0,632.722,2227.52,1170.3)"><path d="M0.062,-0l0,-0.546l0.142,0l0,0.095l0.006,0c0.01,-0.033 0.027,-0.059 0.05,-0.076c0.024,-0.018 0.051,-0.026 0.082,-0.026c0.007,-0 0.015,0 0.024,0.001c0.009,0.001 0.016,0.002 0.023,0.004l0,0.131c-0.006,-0.003 -0.016,-0.005 -0.028,-0.006c-0.013,-0.001 -0.024,-0.002 -0.035,-0.002c-0.023,0 -0.043,0.005 -0.06,0.015c-0.018,0.009 -0.032,0.023 -0.042,0.04c-0.01,0.017 -0.015,0.037 -0.015,0.059l-0,0.311l-0.147,0Z" style="fill:#efc893;fill-rule:nonzero;"/></g><g transform="matrix(632.722,0,0,632.722,2487.97,1170.3)"><path d="M0.062,-0l0,-0.546l0.147,0l-0,0.546l-0.147,-0Zm0.074,-0.617c-0.022,-0 -0.041,-0.007 -0.057,-0.022c-0.016,-0.015 -0.024,-0.033 -0.024,-0.053c0,-0.021 0.008,-0.039 0.024,-0.054c0.016,-0.014 0.035,-0.022 0.057,-0.022c0.022,0 0.041,0.008 0.057,0.022c0.015,0.015 0.023,0.033 0.023,0.054c0,0.02 -0.008,0.038 -0.023,0.053c-0.016,0.015 -0.035,0.022 -0.057,0.022Z" style="fill:#efc893;fill-rule:nonzero;"/></g><g transform="matrix(632.722,0,0,632.722,2659.43,1170.3)"><path d="M0.309,0.011c-0.055,-0 -0.103,-0.012 -0.144,-0.035c-0.04,-0.022 -0.071,-0.055 -0.093,-0.097c-0.021,-0.042 -0.032,-0.092 -0.032,-0.149c-0,-0.056 0.01,-0.106 0.032,-0.148c0.021,-0.042 0.052,-0.075 0.091,-0.099c0.04,-0.024 0.086,-0.036 0.139,-0.036c0.036,0 0.069,0.006 0.1,0.017c0.031,0.012 0.058,0.029 0.081,0.052c0.024,0.023 0.042,0.051 0.055,0.086c0.013,0.035 0.02,0.075 0.02,0.122l-0,0.041l-0.458,0l-0,-0.092l0.387,0l-0.069,0.025c0,-0.029 -0.004,-0.053 -0.013,-0.074c-0.009,-0.021 -0.021,-0.038 -0.038,-0.049c-0.018,-0.012 -0.039,-0.017 -0.064,-0.017c-0.025,-0 -0.047,0.005 -0.064,0.017c-0.018,0.012 -0.032,0.028 -0.041,0.048c-0.009,0.02 -0.014,0.043 -0.014,0.068l0,0.065c0,0.032 0.006,0.058 0.016,0.08c0.011,0.021 0.026,0.037 0.045,0.048c0.019,0.011 0.041,0.016 0.067,0.016c0.017,0 0.032,-0.002 0.046,-0.007c0.014,-0.005 0.026,-0.012 0.036,-0.022c0.01,-0.009 0.018,-0.021 0.023,-0.035l0.133,0.025c-0.009,0.03 -0.024,0.056 -0.046,0.079c-0.022,0.022 -0.049,0.04 -0.082,0.052c-0.033,0.012 -0.07,0.019 -0.113,0.019Z" style="fill:#efc893;fill-rule:nonzero;"/></g><g transform="matrix(632.722,0,0,632.722,3036.34,1170.3)"><rect x="0.062" y="-0.728" width="0.146" height="0.728" style="fill:#efc893;fill-rule:nonzero;"/></g><g transform="matrix(632.722,0,0,632.722,3207.81,1170.3)"></g><g transform="matrix(632.722,0,0,632.722,3357.65,1170.3)"></g></g><g id="A2" serif:id="A" transform="matrix(1,0,0,0.867895,0,-95.4166)"><g transform="matrix(622.698,0,0,622.698,974.277,1694.65)"><path d="M0.066,-0l-0,-0.728l0.229,0l0.117,0.334c0.005,0.016 0.011,0.036 0.017,0.061c0.007,0.025 0.013,0.051 0.02,0.08c0.006,0.029 0.012,0.057 0.018,0.084c0.006,0.026 0.01,0.05 0.014,0.07l-0.029,-0c0.004,-0.02 0.009,-0.043 0.014,-0.07c0.006,-0.026 0.012,-0.054 0.018,-0.083c0.007,-0.029 0.013,-0.055 0.02,-0.081c0.006,-0.025 0.012,-0.045 0.017,-0.061l0.116,-0.334l0.229,0l0,0.728l-0.15,-0l0,-0.343c0,-0.016 0.001,-0.036 0.001,-0.059c0.001,-0.024 0.001,-0.05 0.002,-0.077c0.001,-0.028 0.002,-0.055 0.002,-0.083c0.001,-0.028 0.001,-0.054 0.001,-0.079l0.01,-0c-0.006,0.027 -0.013,0.055 -0.021,0.084c-0.007,0.028 -0.015,0.056 -0.022,0.083c-0.008,0.027 -0.015,0.052 -0.022,0.075c-0.007,0.022 -0.013,0.041 -0.018,0.056l-0.12,0.343l-0.126,-0l-0.122,-0.343c-0.005,-0.015 -0.011,-0.033 -0.018,-0.056c-0.006,-0.022 -0.014,-0.047 -0.022,-0.074c-0.007,-0.026 -0.015,-0.054 -0.023,-0.083c-0.007,-0.029 -0.015,-0.057 -0.022,-0.085l0.012,-0c0,0.023 0.001,0.049 0.001,0.077c0.001,0.027 0.003,0.136 0.004,0.16c0.001,0.024 0.001,0.045 0.001,0.061l-0,0.343l-0.148,-0Z" style="fill:#efc893;fill-rule:nonzero;"/></g><g transform="matrix(622.698,0,0,622.698,1554.41,1694.65)"><path d="M0.306,0.011c-0.054,-0 -0.102,-0.012 -0.142,-0.036c-0.039,-0.023 -0.07,-0.056 -0.092,-0.098c-0.021,-0.042 -0.032,-0.092 -0.032,-0.148c-0,-0.056 0.011,-0.105 0.032,-0.148c0.022,-0.042 0.053,-0.075 0.092,-0.098c0.04,-0.024 0.088,-0.036 0.142,-0.036c0.033,0 0.063,0.004 0.09,0.013c0.027,0.008 0.052,0.02 0.073,0.036c0.021,0.016 0.038,0.035 0.052,0.057c0.014,0.023 0.023,0.048 0.028,0.076l-0.136,0.025c-0.003,-0.014 -0.008,-0.027 -0.014,-0.038c-0.006,-0.011 -0.013,-0.021 -0.022,-0.029c-0.009,-0.008 -0.019,-0.014 -0.031,-0.018c-0.011,-0.004 -0.024,-0.006 -0.038,-0.006c-0.026,-0 -0.048,0.007 -0.066,0.021c-0.017,0.014 -0.031,0.033 -0.04,0.058c-0.009,0.025 -0.013,0.054 -0.013,0.087c-0,0.032 0.004,0.061 0.013,0.086c0.009,0.025 0.023,0.045 0.04,0.059c0.018,0.014 0.04,0.021 0.066,0.021c0.014,0 0.027,-0.002 0.039,-0.006c0.012,-0.004 0.022,-0.011 0.031,-0.019c0.009,-0.008 0.017,-0.018 0.023,-0.03c0.006,-0.012 0.01,-0.025 0.013,-0.04l0.136,0.025c-0.005,0.029 -0.014,0.055 -0.028,0.078c-0.014,0.022 -0.031,0.042 -0.052,0.058c-0.021,0.016 -0.046,0.028 -0.073,0.037c-0.028,0.008 -0.058,0.013 -0.091,0.013Z" style="fill:#efc893;fill-rule:nonzero;"/></g><g transform="matrix(622.698,0,0,622.698,1889.78,1694.65)"><path d="M0.219,-0l-0.195,-0.728l0.163,0l0.084,0.358c0.007,0.03 0.013,0.062 0.019,0.096c0.006,0.034 0.011,0.069 0.017,0.103c0.005,0.034 0.01,0.067 0.016,0.099l-0.027,-0c0.006,-0.032 0.012,-0.065 0.018,-0.099c0.006,-0.034 0.012,-0.069 0.018,-0.103c0.006,-0.034 0.013,-0.066 0.02,-0.096l0.089,-0.358l0.155,0l0.089,0.358c0.007,0.03 0.014,0.062 0.02,0.096c0.006,0.034 0.012,0.069 0.018,0.103c0.006,0.034 0.012,0.067 0.018,0.099l-0.027,-0c0.005,-0.032 0.011,-0.065 0.016,-0.099c0.006,-0.034 0.011,-0.069 0.017,-0.103c0.006,-0.034 0.013,-0.066 0.019,-0.096l0.085,-0.358l0.163,0l-0.196,0.728l-0.17,-0l-0.097,-0.372c-0.01,-0.041 -0.019,-0.086 -0.026,-0.135c-0.008,-0.048 -0.016,-0.097 -0.025,-0.148l0.037,-0c-0.01,0.05 -0.018,0.098 -0.025,0.146c-0.006,0.047 -0.015,0.093 -0.026,0.137l-0.096,0.372l-0.171,-0Z" style="fill:#efc893;fill-rule:nonzero;"/></g><g transform="matrix(622.698,0,0,622.698,2535.89,1694.65)"><path d="M0.062,-0l0,-0.546l0.147,0l-0,0.546l-0.147,-0Zm0.074,-0.617c-0.022,-0 -0.041,-0.007 -0.057,-0.022c-0.016,-0.015 -0.024,-0.033 -0.024,-0.053c0,-0.021 0.008,-0.039 0.024,-0.054c0.016,-0.014 0.035,-0.022 0.057,-0.022c0.022,0 0.041,0.008 0.057,0.022c0.015,0.015 0.023,0.033 0.023,0.054c0,0.02 -0.008,0.038 -0.023,0.053c-0.016,0.015 -0.035,0.022 -0.057,0.022Z" style="fill:#efc893;fill-rule:nonzero;"/></g><g transform="matrix(622.698,0,0,622.698,2704.64,1694.65)"><rect x="0.062" y="-0.728" width="0.146" height="0.728" style="fill:#efc893;fill-rule:nonzero;"/></g><g transform="matrix(622.698,0,0,622.698,2873.38,1694.65)"><rect x="0.062" y="-0.728" width="0.146" height="0.728" style="fill:#efc893;fill-rule:nonzero;"/></g><g transform="matrix(622.698,0,0,622.698,3042.13,1694.65)"><path d="M0.062,-0l0,-0.546l0.147,0l-0,0.546l-0.147,-0Zm0.074,-0.617c-0.022,-0 -0.041,-0.007 -0.057,-0.022c-0.016,-0.015 -0.024,-0.033 -0.024,-0.053c0,-0.021 0.008,-0.039 0.024,-0.054c0.016,-0.014 0.035,-0.022 0.057,-0.022c0.022,0 0.041,0.008 0.057,0.022c0.015,0.015 0.023,0.033 0.023,0.054c0,0.02 -0.008,0.038 -0.023,0.053c-0.016,0.015 -0.035,0.022 -0.057,0.022Z" style="fill:#efc893;fill-rule:nonzero;"/></g><g transform="matrix(622.698,0,0,622.698,3210.88,1694.65)"><path d="M0.215,0.011c-0.035,-0 -0.066,-0.007 -0.093,-0.019c-0.028,-0.012 -0.049,-0.03 -0.065,-0.054c-0.016,-0.025 -0.024,-0.055 -0.024,-0.091c0,-0.03 0.006,-0.056 0.017,-0.076c0.011,-0.02 0.026,-0.037 0.046,-0.049c0.019,-0.013 0.041,-0.022 0.066,-0.029c0.024,-0.006 0.05,-0.011 0.077,-0.013c0.032,-0.004 0.057,-0.007 0.076,-0.009c0.02,-0.003 0.034,-0.008 0.043,-0.014c0.009,-0.006 0.014,-0.014 0.014,-0.026l-0,-0.003c-0,-0.015 -0.004,-0.028 -0.01,-0.039c-0.007,-0.011 -0.017,-0.019 -0.029,-0.025c-0.013,-0.006 -0.029,-0.008 -0.047,-0.008c-0.019,-0 -0.035,0.002 -0.049,0.008c-0.014,0.006 -0.025,0.013 -0.034,0.023c-0.009,0.009 -0.016,0.02 -0.02,0.032l-0.134,-0.023c0.009,-0.031 0.025,-0.058 0.047,-0.08c0.021,-0.023 0.049,-0.04 0.081,-0.051c0.032,-0.012 0.069,-0.018 0.109,-0.018c0.03,0 0.058,0.004 0.086,0.011c0.028,0.007 0.052,0.017 0.074,0.032c0.022,0.015 0.04,0.034 0.053,0.058c0.013,0.023 0.019,0.051 0.019,0.084l0,0.368l-0.139,-0l0,-0.076l-0.005,0c-0.008,0.017 -0.02,0.032 -0.035,0.045c-0.014,0.013 -0.032,0.023 -0.053,0.031c-0.02,0.007 -0.044,0.011 -0.071,0.011Zm0.041,-0.103c0.023,-0 0.044,-0.005 0.061,-0.014c0.017,-0.009 0.031,-0.021 0.041,-0.037c0.01,-0.016 0.015,-0.033 0.015,-0.052l-0,-0.059c-0.005,0.003 -0.011,0.006 -0.02,0.008c-0.009,0.003 -0.018,0.005 -0.029,0.007c-0.011,0.002 -0.021,0.004 -0.032,0.006c-0.01,0.001 -0.02,0.003 -0.028,0.004c-0.018,0.002 -0.034,0.006 -0.047,0.012c-0.014,0.006 -0.024,0.014 -0.032,0.023c-0.008,0.01 -0.011,0.022 -0.011,0.037c-0,0.014 0.003,0.026 0.01,0.036c0.008,0.009 0.017,0.017 0.03,0.022c0.012,0.004 0.026,0.007 0.042,0.007Z" style="fill:#efc893;fill-rule:nonzero;"/></g><g transform="matrix(622.698,0,0,622.698,3572.4,1694.65)"><path d="M0.062,-0l0,-0.546l0.136,0l0.008,0.136l-0.011,-0c0.008,-0.034 0.021,-0.061 0.037,-0.082c0.017,-0.021 0.036,-0.037 0.058,-0.047c0.022,-0.01 0.046,-0.015 0.07,-0.015c0.039,-0 0.071,0.012 0.095,0.037c0.024,0.025 0.042,0.064 0.053,0.116l-0.017,-0c0.008,-0.035 0.022,-0.064 0.04,-0.087c0.019,-0.022 0.04,-0.039 0.065,-0.05c0.026,-0.011 0.052,-0.016 0.08,-0.016c0.033,-0 0.063,0.007 0.089,0.022c0.027,0.014 0.047,0.035 0.062,0.063c0.015,0.028 0.023,0.061 0.023,0.101l-0,0.368l-0.146,-0l-0,-0.34c-0,-0.031 -0.009,-0.054 -0.025,-0.069c-0.017,-0.015 -0.038,-0.023 -0.062,-0.023c-0.019,0 -0.034,0.004 -0.048,0.012c-0.014,0.008 -0.024,0.02 -0.031,0.034c-0.007,0.014 -0.011,0.031 -0.011,0.05l0,0.336l-0.142,-0l0,-0.344c0,-0.027 -0.008,-0.048 -0.023,-0.064c-0.016,-0.016 -0.037,-0.024 -0.062,-0.024c-0.017,0 -0.032,0.004 -0.046,0.012c-0.014,0.008 -0.025,0.019 -0.033,0.034c-0.008,0.016 -0.012,0.034 -0.012,0.056l-0,0.33l-0.147,-0Z" style="fill:#efc893;fill-rule:nonzero;"/></g><g transform="matrix(622.698,0,0,622.698,4140.67,1694.65)"><path d="M0.279,0.011c-0.044,-0 -0.083,-0.007 -0.116,-0.019c-0.034,-0.013 -0.062,-0.031 -0.083,-0.055c-0.022,-0.024 -0.036,-0.052 -0.042,-0.086l0.136,-0.024c0.008,0.026 0.02,0.045 0.038,0.057c0.018,0.013 0.042,0.019 0.072,0.019c0.027,0 0.05,-0.005 0.066,-0.016c0.016,-0.01 0.024,-0.024 0.024,-0.04c0,-0.014 -0.006,-0.026 -0.017,-0.035c-0.012,-0.009 -0.029,-0.016 -0.054,-0.021l-0.094,-0.02c-0.052,-0.01 -0.091,-0.029 -0.118,-0.055c-0.026,-0.025 -0.039,-0.059 -0.039,-0.1c0,-0.034 0.01,-0.065 0.029,-0.09c0.019,-0.025 0.046,-0.045 0.08,-0.058c0.034,-0.014 0.075,-0.021 0.121,-0.021c0.043,0 0.08,0.006 0.112,0.018c0.031,0.012 0.057,0.029 0.076,0.051c0.02,0.021 0.033,0.047 0.039,0.077l-0.13,0.023c-0.005,-0.019 -0.016,-0.034 -0.032,-0.046c-0.015,-0.012 -0.037,-0.018 -0.063,-0.018c-0.024,0 -0.044,0.005 -0.061,0.016c-0.016,0.01 -0.024,0.023 -0.024,0.04c-0,0.013 0.005,0.025 0.016,0.034c0.01,0.01 0.028,0.017 0.054,0.023l0.098,0.019c0.053,0.011 0.092,0.028 0.118,0.053c0.026,0.024 0.039,0.056 0.039,0.095c-0,0.035 -0.011,0.067 -0.032,0.094c-0.021,0.026 -0.049,0.047 -0.086,0.062c-0.037,0.015 -0.079,0.023 -0.127,0.023Z" style="fill:#efc893;fill-rule:nonzero;"/></g><g transform="matrix(622.698,0,0,622.698,4489.42,1694.65)"></g><g transform="matrix(622.698,0,0,622.698,4636.89,1694.65)"></g></g></g><g><g><path d="M560.637,781.767c5.915,6.498 21.221,9.088 16.075,-1.252c-0.911,-1.83 1.622,-11.294 -1.936,-14.056c-2.6,-2.017 -4.572,-9.116 -8.674,-12.564c-1.957,-1.644 -10.811,-3.139 -13.167,-3.116c-2.004,0.02 -13.816,4.382 -12.961,5.62c5.782,8.376 5.863,15.308 3.82,18.982c-3.097,5.569 14.288,3.58 16.843,6.386Z" style="fill:#b8470b;"/><path d="M471.19,791.884c1.004,-0.377 11.424,-2.54 16.688,-2.778c8.122,-0.368 11.986,10.074 11.976,12.919c-0.019,5.332 -0.643,11.504 -5.122,14.341c-1.832,1.16 -6.862,8.673 -10.528,12.178c-4.092,3.912 -12.173,11.804 -14.023,11.296c-13.357,-3.67 -21.923,-39.34 1.009,-47.956Z" style="fill:#b8470b;"/><path d="M832.318,816.799c2.047,-3.754 6.762,-7.035 11.601,-9.469c7.259,-3.652 13.772,-12.378 13.772,-12.378c1.441,-0.005 6.115,17.14 5.9,22.459c-0.154,3.819 2.422,16.472 2.984,20.294c0.63,4.289 12.09,26.28 1.558,28.276c-23.333,4.422 -32.086,-23.815 -36.494,-36.127c-0,0 -1.368,-9.301 0.679,-13.055Z" style="fill:#b8470b;"/><path d="M824.359,733.966c4.609,4.159 7.013,8.303 9.925,11.204c3.277,3.266 9.272,7.417 12.922,13.259c3.298,5.278 2.605,13.028 5.806,17.181c3.68,4.773 2.153,13.943 0.749,18.113c-1.091,3.241 -9.176,6.909 -9.176,6.909c-0,0 -11.894,12.069 -16.021,8.265c-2.389,-2.202 -5.072,-5.149 -7.85,-9.615c-3.642,-5.854 -4.431,-9.088 -10.213,-13.216c-1.436,-1.026 -1.778,-14.246 -0.749,-18.114c2.31,-8.683 14.607,-33.986 14.607,-33.986Z" style="fill:#b8470b;"/><path d="M729.171,767.215c0,-0 -3.409,-21.263 -1.872,-29.173c0.287,-1.478 0.983,-7.581 1.531,-11.364c0.861,-5.95 15.404,-9.675 3.636,-24.336c-1.248,-1.554 -14.145,-15.725 -4.046,-24.307c2.551,-2.169 10.39,5.763 13.063,6.377c5.203,1.196 16.431,10.121 24.528,16.011c9.444,6.87 19.649,12.796 26.126,12.754c5.504,-0.035 15.279,4.723 22.861,11.161c2.023,1.718 1.784,4.612 -3.129,14.62c-4.797,9.769 -3.252,25.941 -7.857,32.497c-2.66,3.785 -24.959,-0.073 -30.923,-2.985c-16.86,-8.231 -43.918,-1.255 -43.918,-1.255Z" style="fill:#b8470b;"/><path d="M780.894,781.982c-0,0 23.463,64.07 18.336,71.555c-5.128,7.484 -50.089,-29.734 -50.089,-29.734c2.885,-14.683 1.404,-31.793 -4.459,-51.34c12.151,-1.441 24.241,0.588 36.212,9.519Z" style="fill:#b8470b;"/><path d="M738.082,820.661c-11.715,7.944 -29.72,-7.379 -28.121,-10.377c0,0 4.013,-18.882 6.302,-22.053c3.167,-4.387 19.112,0.9 22.117,6.285c3.295,5.904 -0.298,26.145 -0.298,26.145" style="fill:#b8470b;"/><path d="M742.987,832.785c11.471,5.995 45.518,28.637 49.138,24.694l-61.662,17.946c-23.262,-8.488 -26.147,-16.018 -29.956,-32.06c0.741,2.602 32.543,-15.775 42.48,-10.58Z" style="fill:#b8470b;"/><path d="M732.281,942.25c-9.64,-1.341 -4.723,-22.364 2.382,-28.909c1.92,-1.768 1.945,-10.673 4.517,-10.544c12.502,0.629 66.354,-2.716 83.289,13.376c4.628,4.397 5.24,18.857 -2.32,22.365c-9.108,4.226 -20.665,2.306 -33.211,4.554c-7.942,1.423 -49.89,-0.178 -54.657,-0.842Z" style="fill:#b8470b;"/><path d="M238.986,1420.66c0.825,5.319 -14.909,5.753 -21.403,2.674c-11.096,-5.261 -40.816,-18.098 -45.173,-34.243c-1.631,-6.045 -8.519,-36.654 -8.519,-36.654c0,-0 -8.398,-28.145 -14.619,-36.76c-44.214,-61.215 -86.665,-104.93 -106.295,-135.369c-14.835,-23.002 -18.817,-52.864 -15.131,-76.641c3.687,-23.776 19.096,-51.309 37.758,-66.28c18.563,-14.892 46.055,-26.588 73.674,-26.112c27.451,0.472 45.502,7.081 63.736,19.351c60.318,40.589 179.916,205.813 266.356,299.69l-112.799,-4.984c-0,-0 -49.332,-1.014 -73.36,7.863c-36.676,13.55 -49.733,51.962 -44.225,87.465Zm-98.761,-375.904c-42.926,-0.739 -78.377,33.413 -79.117,76.217c-0.74,42.804 33.51,78.156 76.436,78.895c42.926,0.739 78.377,-33.412 79.117,-76.217c0.74,-42.804 -33.51,-78.155 -76.436,-78.895Z" style="fill:#b8470b;"/><path d="M119.119,1597.61l-0.072,-85.216c1.587,-15.633 39.674,-92.41 48.786,-79.478c27.854,39.532 97.17,39.088 103.727,33.434c9.17,-7.908 6.094,-21.294 -3.063,-42.585c-22.437,-52.163 34.68,-63.204 58.055,-63.431c48.694,-0.475 234.757,-0.117 234.757,-0.117c18.907,1.777 28.826,13.425 30.475,33.745l0.106,90.95l103.309,0.117c9.034,2.806 15.337,8.779 18.758,18.094l0.027,94.298l-594.865,0.189Zm407.036,-201.732c-12.44,0.003 -22.537,10.784 -22.533,24.059c0.004,13.275 10.107,24.05 22.547,24.047c12.44,-0.003 22.536,-10.784 22.533,-24.059c-0.004,-13.275 -10.107,-24.05 -22.547,-24.047Z" style="fill:#8e776a;"/><path d="M119.119,1597.61l-0.072,-85.216c1.587,-15.633 39.674,-92.41 48.786,-79.478c27.854,39.532 97.17,39.088 103.727,33.434c9.17,-7.908 6.094,-21.294 -3.063,-42.585c-22.437,-52.163 34.68,-63.204 58.055,-63.431c48.694,-0.475 234.757,-0.117 234.757,-0.117c18.907,1.777 28.826,13.425 30.475,33.745l0.106,90.95l103.309,0.117c9.034,2.806 15.337,8.779 18.758,18.094l0.027,94.298l-594.865,0.189Zm407.036,-201.732c-12.44,0.003 -22.537,10.784 -22.533,24.059c0.004,13.275 10.107,24.05 22.547,24.047c12.44,-0.003 22.536,-10.784 22.533,-24.059c-0.004,-13.275 -10.107,-24.05 -22.547,-24.047Z" style="fill:#b8470b;"/><path d="M139.804,1069.09c29.459,0.507 52.964,24.768 52.457,54.143c-0.508,29.376 -24.837,52.813 -54.296,52.306c-29.459,-0.508 -52.964,-24.769 -52.457,-54.144c0.508,-29.375 24.837,-52.813 54.296,-52.305Z" style="fill:#b8470b;"/><path d="M353.044,735.065c22.725,0.391 40.857,19.107 40.466,41.768c-0.392,22.661 -19.16,40.741 -41.886,40.35c-22.725,-0.392 -40.858,-19.107 -40.466,-41.768c0.392,-22.661 19.16,-40.741 41.886,-40.35Zm-0.316,18.248c-12.625,-0.217 -23.052,9.827 -23.269,22.417c-0.218,12.589 9.855,22.987 22.481,23.204c12.625,0.218 23.052,-9.827 23.269,-22.416c0.218,-12.59 -9.855,-22.987 -22.481,-23.205Z" style="fill:#b8470b;"/><path d="M537.027,847.61c-2.224,-3.436 -1.678,-12.888 -2.373,-15.106c-1.526,-4.878 4.084,-17.092 -1.66,-21.027c-5.427,-3.716 -10.067,-6.556 -16.167,-6.661c-3.05,-0.053 -2.997,-3.094 -2.997,-3.094c-0,-0 1.764,-4.657 3.155,-6.03c1.946,-1.922 12.382,-7.276 9.862,-18.551c-0.187,-0.838 14.801,3.764 14.801,3.764l15.198,3.304c-0,-0 21.816,9.114 24.295,6.503c4.412,-4.646 -2.577,-27.425 -2.577,-27.425l57.205,-39.363c0,-0 6.352,-3.414 15.666,-8.397c23.407,-12.521 65.517,-34.944 72.509,-37.964c-0,0 -4.468,15.819 0.702,20.109c9.83,8.156 12.071,22.029 0.667,25.828c-12.12,4.037 -3.708,20.557 -3.102,30.512c0.123,2.021 3.402,17.809 3.402,17.809l-43.533,42.532c1.281,5.136 20.915,73.082 21.739,75.932c-0.17,0.018 -0.17,0.051 0.027,0.093l-0.027,-0.093c1.823,-0.193 23.241,1.303 31.018,11.185c1.204,1.53 -4.37,11.217 -6.395,13.026c-4.884,4.363 -3.037,14.958 -6.327,21.133c-1.991,3.738 -18.451,2.746 -34.188,-4.579c-15.052,-7.007 -24.211,-13.764 -31.06,-19.2c-10.697,-8.491 -16.857,-25.794 -27.93,-33.82c-10.682,-7.742 -40.203,-34.572 -50.178,-37.982c-0.371,-0.127 -13.989,-0.188 -17.058,1.32" style="fill:#b8470b;fill-opacity:0.99;"/><path d="M532.318,848.838c-9.109,2.462 -55.279,9.418 -55.279,9.418c-0,0 -23.974,3.266 -30.074,3.161c-6.1,-0.105 -21.403,2.673 -33.656,5.505c-9.656,2.231 -47.631,-1.327 -60.675,17.842c-21.119,31.035 -35.927,133.72 -57.339,167.015c-7.014,10.907 -28.019,14.307 -28.808,13.406c-7.605,-8.672 -48.204,-44.82 -61.315,-50.933c-46.055,-21.475 -87.595,-19.803 -108.489,-9.794c-1.891,0.906 -5.987,-28.003 2.071,-33.713c29.877,-21.172 142.244,-112.033 166.075,-155.181c0.577,-1.046 -2.96,-20.979 -0.628,-22.195c-0.061,-1.228 -0.079,-2.453 -0.053,-3.672c1.115,-52.879 47.226,-94.86 102.906,-93.691c12.99,0.273 43.909,8.661 58.034,19.003c12.829,9.394 72.676,31.675 72.676,31.675c-0,-0 15.917,3.386 22.078,3.937c13.27,1.185 17.393,7.41 22.715,16.828c1.32,2.334 -1.886,6.006 -4.487,6.679c-3.132,0.81 -11.022,-3.815 -14.306,-1.816c-3.284,1.999 -2.558,10.548 -5.397,13.812c-2.84,3.264 -9.339,8.787 -11.641,5.771c-19.134,-25.069 -50.124,2.147 -55.712,11.788c-8.48,14.63 1.936,41.853 17.032,41.417c2.86,-0.083 5.192,0.338 6.84,1.545l4.078,-0.741c-0.044,-0.118 -0.082,-0.236 -0.113,-0.354c-0.61,-2.318 -1.778,-4.938 -0.312,-7.184c2.82,-4.32 12.01,-14.313 17.231,-18.736c3.302,-2.798 6.434,-10.243 10.338,-11.242c4.168,-1.068 8.236,0.057 10.807,-0.467c2.633,-0.536 7.36,3.281 7.36,3.281c-0,0 3.577,4.656 3.914,7.029c0.689,4.85 0.254,9.54 0.624,14.367c0.063,0.819 0.095,2.283 0.357,3.278c0.48,1.814 2.519,7.606 2.519,7.606c-0,0 2.368,4.885 0.629,5.356Zm-179.064,-125.939c-29.459,-0.507 -53.788,22.93 -54.296,52.306c-0.508,29.375 22.997,53.636 52.456,54.143c29.459,0.508 53.788,-22.93 54.296,-52.305c0.508,-29.375 -22.997,-53.636 -52.456,-54.144Z" style="fill:#b8470b;fill-opacity:0.99;"/></g></g><g><path d="M515.693,869.628c3.455,1.799 24.357,4.059 27.057,1.621c8.429,-7.608 -4.885,60.588 4.509,81.893c6.756,15.322 18.195,41.967 33.821,38.911c38.887,-7.605 163.43,28.308 157.231,103.988c-40.487,-52.537 -93.573,-69.363 -153.602,-68.81c1.939,1.124 55.557,61.533 55.557,61.533c0,-0 86.047,69.397 65.105,124.611c-14.465,-40.278 -39.043,-80.757 -39.043,-80.757c0,-0 -23.527,-20.468 -34.693,-19.611c-1.358,30.624 -1.364,68.613 -4.227,110.511c-8.633,-30.987 -16.266,-76.882 -21.878,-119.183c-8.833,-26.132 -31.474,-45.739 -51.084,-66.924c-9.342,29.091 -14.649,60.342 -14.972,94.26c-0.63,36.733 6.994,67.845 22.899,93.317c-16.559,1.28 -32.505,-23.649 -47.56,-86.719c-26.152,9.702 -39.553,41.236 -43.157,89.547c-17.058,-39.251 -9.493,-77.078 29.065,-113.112c13.215,-2.845 17.928,-38.048 17.615,-92.375c-22.816,5.816 -38.183,13.25 -62.498,57.687c-6.475,24.903 -15.292,50.642 -30.791,78.764c4.842,-39.747 16.894,-82.954 30.755,-119.484c-4.334,-16.985 -49.976,17.34 -96.318,73.824c2.995,-36.102 63.7,-100.868 79.687,-102.571c18.165,-1.935 45.79,-13.343 44.815,-11.785l26.423,-53.728c7.502,-3.001 0.578,-77.859 5.284,-75.408Z" style="fill:url(#_Linear1);"/><path d="M626.062,457.161c7.923,6.471 12.064,13.016 12.064,13.016c43.087,13.045 50.651,64.286 36.855,113.049c-1.83,6.467 -1.181,20.074 -1.181,20.074c-0,0 -10.859,-16.989 -16.346,-21.312c-9.954,-7.84 -31.221,-19.296 -42.192,-34.064c-25.671,-34.552 -2.004,-67.709 7.346,-69.278c2.457,-0.412 -0.396,-5.161 -1.906,-6.964c-1.263,-1.505 -2.54,-2.872 -3.831,-4.107c1.98,-3.687 9.008,-5.066 11.588,-7.646c-2.58,2.58 -9.608,3.959 -11.588,7.646c-0.851,-0.814 -1.708,-1.57 -2.57,-2.272c2.243,-2.563 7.062,-4.537 11.761,-8.142Zm26.517,106.273c2.246,-10.523 1.852,-56.416 -10.881,-69.528c-0.989,-1.018 -4.674,-1.671 -4.131,-0.379c8.629,20.548 13.169,27.463 10.34,67.362c-0.203,2.862 3.446,8.287 4.672,2.545Z" style="fill:url(#_Linear2);"/><path d="M479.54,543.906c-1.112,2.192 -2.097,4.523 -2.944,6.984c23.937,20.854 20.453,50.194 3.061,70.118c-9.664,11.07 -33.741,27.639 -60.16,38.243c-16.868,6.771 -27.357,16.698 -27.357,16.698c2.059,-21.37 -3.77,-53.926 4.893,-77.671c9.618,-26.364 42.493,-48.827 67.363,-49.861l4.556,-4.811c0,-0 1.015,-2.186 3.005,-5.461c3.208,2.995 5.677,4.29 7.583,5.761Zm-65.036,103.801l2.247,0.442c7.156,-35.12 21.834,-53.661 46.847,-65.302c0,0 1.143,-3.371 0.24,-3.983c-0.903,-0.612 -5.657,0.313 -5.657,0.313c-41.18,19.382 -46.43,68.53 -43.677,68.53Z" style="fill:url(#_Linear3);"/><path d="M545.728,641.536c-3.07,33.607 -25.447,36.74 -28.289,-7.113c-0,-0 -1.164,-77.112 3.152,-112.784c-17.333,-2.745 -32.729,5.868 -41.051,22.267c-1.906,-1.471 -4.375,-2.766 -7.583,-5.761c6.863,-11.295 25.331,-35.54 53.818,-27.702c10.788,-35.839 32.869,-59.413 60.487,-65.513c17.587,-2.024 31.017,5.058 39.8,12.231c-4.699,3.605 -9.518,5.579 -11.761,8.142c-37.483,-30.515 -84.189,43.567 -76.832,50.022c11.799,10.353 21.328,31.734 11.859,37.769c-3.597,2.292 -15.637,-15.334 -16.156,-17.794l0.028,-0.268c-0.05,0.035 -0.058,0.126 -0.028,0.268c-3.564,33.636 -2.933,87.807 -2.681,105.437c0.019,1.36 3.272,1.365 4.222,0.359c0.346,-0.367 0.909,-3.273 1.302,-6.556c0.95,1.186 2.137,2.503 3.118,2.748c4.217,1.054 4.004,2.483 6.595,4.248Z" style="fill:#d49c52;"/><path d="M536.015,634.54c0.455,-3.805 0.683,-8.116 0.08,-9.566c0.83,-22.955 7.817,-35.753 17.832,-43.554c31.31,-12.248 51.725,0.181 65.952,22.665l5.671,7.245c11.742,26.626 32.413,52.626 57.275,72.94c-2.832,0.139 -15.562,-1.989 -33.473,0.683c-45.674,2.398 -83.47,-19.17 -103.561,-59.07c0.276,3.812 0.345,7.388 0.238,10.717c-0.417,-0.529 -0.97,-1.153 -1.718,-1.901c-3.614,-3.614 -4.647,-2.312 -7.768,-6.473c3.121,4.161 4.154,2.859 7.768,6.473c0.748,0.748 1.301,1.372 1.718,1.901c-0.055,1.711 -0.157,3.357 -0.301,4.936c-2.591,-1.765 -2.378,-3.194 -6.595,-4.248c-0.981,-0.245 -2.168,-1.562 -3.118,-2.748Zm30.111,-24.22c-1.146,0.154 -2.122,1.373 -2.343,2.467c-0.368,1.827 1.446,2.19 1.446,2.19c5.111,-0.444 12.55,-0.474 17.623,2.278c9.085,4.929 26.18,16.524 33.72,34.348c3.264,7.717 6.78,9.113 11.172,12.136c0.985,0.679 3.102,0.205 3.635,-0.107c0.534,-0.311 0.892,-2.444 0.372,-3.508c-3.303,-6.768 -10.104,-5.416 -12.832,-14.084c-4.419,-14.047 -25.083,-32.906 -38.104,-35.549c-3.853,-0.782 -11.85,-0.554 -14.689,-0.171Z" style="fill:url(#_Linear4);"/></g><ellipse cx="220.552" cy="241.48" rx="148.529" ry="138.286" style="fill:url(#_Linear5);"/></g></g><g id="Group---ICONS" serif:id="Group - ICONS"></g><defs><linearGradient id="_Linear1" x1="0" y1="0" x2="1" y2="0" gradientUnits="userSpaceOnUse" gradientTransform="matrix(16.0138,172.781,-172.781,16.0138,514.989,1052.48)"><stop offset="0" style="stop-color:#d49c52;stop-opacity:1"/><stop offset="1" style="stop-color:#ab670e;stop-opacity:1"/></linearGradient><linearGradient id="_Linear2" x1="0" y1="0" x2="1" y2="0" gradientUnits="userSpaceOnUse" gradientTransform="matrix(20.2819,70.3395,-70.3395,20.2819,644.385,512.576)"><stop offset="0" style="stop-color:#d49c52;stop-opacity:1"/><stop offset="1" style="stop-color:#ab670e;stop-opacity:1"/></linearGradient><linearGradient id="_Linear3" x1="0" y1="0" x2="1" y2="0" gradientUnits="userSpaceOnUse" gradientTransform="matrix(-46.6053,54.8044,-54.8044,-46.6053,431.641,624.773)"><stop offset="0" style="stop-color:#d49c52;stop-opacity:1"/><stop offset="1" style="stop-color:#ab670e;stop-opacity:1"/></linearGradient><linearGradient id="_Linear4" x1="0" y1="0" x2="1" y2="0" gradientUnits="userSpaceOnUse" gradientTransform="matrix(20.2819,62.5719,-62.5719,20.2819,683.695,623.91)"><stop offset="0" style="stop-color:#d49c52;stop-opacity:1"/><stop offset="1" style="stop-color:#ab670e;stop-opacity:1"/></linearGradient><linearGradient id="_Linear5" x1="0" y1="0" x2="1" y2="-0.255031" gradientUnits="userSpaceOnUse" gradientTransform="matrix(75.757,-106.859,177.088,45.7135,203.771,187.306)"><stop offset="0" style="stop-color:#d49c52;stop-opacity:1"/><stop offset="1" style="stop-color:#ffff0e;stop-opacity:1"/></linearGradient></defs></svg>