<?xml version="1.0" encoding="UTF-8" standalone="no"?><!DOCTYPE svg PUBLIC "-//W3C//DTD SVG 1.1//EN" "http://www.w3.org/Graphics/SVG/1.1/DTD/svg11.dtd"><svg width="100%" height="100%" viewBox="0 0 4523 1637" version="1.1" xmlns="http://www.w3.org/2000/svg" xmlns:xlink="http://www.w3.org/1999/xlink" xml:space="preserve" xmlns:serif="http://www.serif.com/" style="fill-rule:evenodd;clip-rule:evenodd;stroke-linejoin:round;stroke-miterlimit:2;"><g id="Group---TEXT" serif:id="Group - TEXT"></g><g id="Group---TEXT---LOGO" serif:id="Group - TEXT &amp; LOGO"><rect id="Gabe-McWilliams---RIGHT---Growing" serif:id="Gabe McWilliams - RIGHT - Growing" x="0" y="0" width="4522.49" height="1636.85" style="fill:none;"/><g id="Gabe-McWilliams---RIGHT---Growing1" serif:id="Gabe McWilliams - RIGHT - Growing"><path d="M790.554,1405.21c-0.034,0.111 -0.061,0.169 -0.082,0.171c0.027,-0.057 0.054,-0.114 0.082,-0.171Zm-222.398,184.973c-0.213,1.05 -0.392,1.447 -0.522,0.983c0.176,-0.328 0.35,-0.655 0.522,-0.983Zm-111.867,-577.746c0,-0 28.79,-51.263 30.812,-69.206c1.269,-11.269 3.756,-24.094 5.17,-35.67c1.537,-12.577 0.833,-34.329 2.221,-38.469c1.86,-5.55 17.609,0.116 27.594,0.35c10.671,0.251 26.318,-6.043 26.318,-6.043c-0,-0 21.518,-7.169 25.155,-0.48c2.598,4.777 0.691,24.786 2.115,37.225c3.258,28.438 -0.513,94.538 33.604,130.777c21.812,36.608 86.707,54.15 141.051,55.539c50.328,1.287 53.556,-4.549 94.627,-11.166c-0,-0 50.761,8.977 64.031,24.125c-42.931,-16.023 -83.037,-15.068 -119.997,4.8c8.164,8.689 31.976,18.038 68.462,27.923c16.461,10.687 35.147,25.088 57.292,45.262l-55.474,-20.635c-15.16,-4.752 -28.032,-6.896 -37.752,-5.446c11.919,21.883 21.365,46.619 30.218,72.039c-2.571,13.737 -37.663,-43.322 -51.461,-78.712c-5.814,-14.911 -35.26,-19.432 -51.649,-25.047l-41.88,-5.139c-9.413,0.701 40.048,85.722 70.414,89.788c-30.939,1.357 -59.354,-17.406 -84.803,-59.828c-18.12,-29.02 -51.363,-46.712 -91.522,-59.224c-3.716,0.277 -5.831,33.45 8.975,65.365c15.961,34.404 49.852,58.056 58.807,65.784c16.862,14.554 88.466,45.195 144.269,42.919c44.538,-1.817 63.753,29.732 65.243,40.543c0.478,3.465 -33.709,-22.087 -47.522,-25.353c-15.487,-3.663 -53.958,-0.113 -53.958,-0.113c-0,-0 35.461,40.007 45.818,58.496c9.769,17.441 18.325,40.549 20.751,56.235l-41.085,-50.595c0.45,31.025 -4.257,51.542 -11.579,66.729c1.078,-3.571 8.195,-62.305 -2.015,-82.226c-16.317,-31.839 -40,-47.559 -95.953,-63.021c0,0 18.329,30.295 24.273,47.719c6.179,18.112 12.8,60.953 12.8,60.953l-42.601,-71.117c-0.595,-0.994 -3.935,-10.132 -5.036,-12.007c-4.154,-7.074 -11.496,-15.757 -18.327,-23.398c-9.801,-10.965 -35.443,-30.38 -35.443,-30.38c-0,0 -9.571,65.929 2.538,90.606c14.655,29.862 44.801,78.702 90.122,96.47c8.067,3.163 6.981,12.065 12.045,14.886c-18.151,-7.205 -36.982,-16.465 -59.264,-36.135l6.552,32.529c-2.818,11.682 -4.484,24.352 -5.528,37.554c-2.789,-7.371 -4.929,-18.464 -6.552,-32.529l-11.89,-48.639c-21.89,-16.326 -47.909,-42.696 -50.836,-70.326c0.003,-0.071 -0.003,-0.131 -0.019,-0.177c0.006,0.059 0.012,0.118 0.019,0.177c-0.149,3.493 -22.025,36.211 -29.705,47.428c-7.929,11.583 -13.532,45.812 -9.049,46.071c2.286,25.71 12.884,44.976 29.309,59.725c18.955,28.14 23.862,45.466 25.181,60.031c-10.768,-22.981 -22.259,-42.283 -36.654,-46.797c3.453,37.218 1.517,73.613 -16.365,107.576c1.308,-6.428 3.914,-37.347 4.4,-44.781c0.968,-14.812 -0.1,-57.192 -0.114,-57.763c-0,-0.002 -0,-0.004 -0,-0.006c-0,-0 -0,0.002 -0,0.006c-0.013,0.152 -2.534,-12.397 -5.643,-20.222c-4.247,-10.689 -13.076,-31.168 -19.842,-43.921c-9.274,5.542 -21.14,32.199 -29.08,55.815c-6.052,-7.834 -5.92,-19.337 -2.424,-32.836c-0,0 28.808,-68.862 31.995,-72.539c2.436,-2.809 4.217,-10.913 7.043,-17.032c5.138,-11.123 24.163,-41.035 32.905,-60.226c10.156,-22.298 18.851,-59.903 9.541,-95.631l-52.976,-99.235l-8.437,-5.709c0.795,10.8 2.3,21.285 5.058,27.756c10.764,25.25 20.082,47.983 20.365,79.76c0.247,27.779 -10.947,47.452 -23.821,73.99c-7.136,17.265 -6.897,44.887 -0.71,80.863c-8.084,-14.934 -15.009,-25.94 -15.009,-25.94c0,-0 -5.819,-17.733 -7.268,-27.855l-39.99,44.123c5.207,-17.327 29.192,-37.136 39.928,-61.094c9.849,-21.978 16.609,-45.036 20.828,-68.984c2.019,-32.311 -9.584,-64.279 -24.438,-95.712c-27.247,19.585 -42.056,90.402 -53.628,157.994c-9.234,-24.645 -11.156,-58.492 1.605,-110.816c-30.356,18.201 -54.774,39.908 -62.977,71.19c-10.345,18.941 -7.685,51.017 15.397,93.761c-2.738,15.471 -27.619,-33.994 -31.318,-55.747c-0.423,-2.486 -21.086,65.033 -22.865,61.008c-5.164,-22.324 5.74,-77.893 5.74,-77.893c4.701,4.931 15.325,-31.176 16.878,-50.996c-35.958,8.974 -64.706,25.057 -80.102,54.305c-6.436,-13.503 6.248,-30.614 25.919,-49.044l57.114,-27.238c2.003,4.837 49.158,-28.066 72.079,-52.268c11.048,-11.665 33.212,-55.577 39.915,-69.109l-18.021,-12.195c-4.854,5.239 -13.582,14.847 -18.156,21.028c-22.481,53.65 -53.265,78.298 -89.173,85.047c0,0 25.568,-17.625 35.026,-31.494c11.858,-17.391 36.123,-72.847 36.123,-72.847c-1.724,-2.201 -82.918,15.227 -96.33,44.31c-11.94,25.89 -23.653,89.929 -35.517,81.055c0.757,-17.948 4.128,-39.351 15.486,-71.311c4.881,-7.577 -69.623,22.359 -80.427,34.872c-4.265,4.941 24.152,-38.252 37.941,-48.22c11.658,-8.427 34.912,-14.29 44.189,-19.795c6.706,-3.979 15.298,-17.646 15.298,-17.646c-38.734,-13.178 -74.064,-8.162 -107.312,7.983c0,0 27.973,-24.117 43.583,-28.004c19.697,-4.905 47.733,0.576 74.596,-1.423c28.892,-2.149 65.996,-4.66 86.069,-14.657c5.719,-2.848 18.69,-12.423 18.69,-12.423Zm320.871,191.815c2.227,-0.098 4.467,-0.3 6.72,-0.604c-2.099,0.746 -4.351,0.921 -6.72,0.604Zm-44.203,229.443c0.517,0.205 1.033,0.409 1.549,0.611c-0.575,-0.147 -1.088,-0.354 -1.549,-0.611Z" style="fill:url(#_Linear1);"/><g id="A" transform="matrix(1,0,0,0.793766,-5.68434e-14,181.555)"><g transform="matrix(231.619,0,0,231.619,996.884,1779.34)"><path d="M0.081,-0l-0,-0.728l0.164,0l0.158,0.418c0.005,0.012 0.01,0.028 0.016,0.047c0.005,0.019 0.011,0.039 0.017,0.062c0.007,0.022 0.013,0.043 0.018,0.065c0.006,0.021 0.011,0.041 0.015,0.058l-0.024,0c0.005,-0.016 0.01,-0.035 0.015,-0.056c0.006,-0.022 0.012,-0.043 0.018,-0.066c0.006,-0.022 0.012,-0.043 0.018,-0.062c0.005,-0.02 0.011,-0.036 0.015,-0.048l0.157,-0.418l0.164,0l0,0.728l-0.11,-0l-0,-0.391c-0,-0.016 -0,-0.034 -0,-0.054c0,-0.021 0.001,-0.043 0.001,-0.066c0.001,-0.024 0.001,-0.047 0.002,-0.071c0.001,-0.024 0.001,-0.047 0.001,-0.069l0.009,0c-0.007,0.024 -0.014,0.049 -0.022,0.074c-0.007,0.025 -0.015,0.049 -0.022,0.073c-0.008,0.023 -0.015,0.045 -0.021,0.064c-0.007,0.02 -0.013,0.036 -0.017,0.049l-0.149,0.391l-0.096,0l-0.15,-0.391c-0.005,-0.013 -0.011,-0.029 -0.017,-0.048c-0.006,-0.019 -0.013,-0.04 -0.021,-0.063c-0.007,-0.023 -0.015,-0.048 -0.023,-0.073c-0.007,-0.025 -0.015,-0.05 -0.023,-0.076l0.01,0c0,0.02 0.001,0.042 0.001,0.065c0.001,0.024 0.001,0.047 0.002,0.071c0,0.024 0.001,0.046 0.001,0.067c0.001,0.022 0.001,0.041 0.001,0.057l-0,0.391l-0.108,0Z" style="fill:#b8470b;fill-rule:nonzero;"/></g><g transform="matrix(231.619,0,0,231.619,1208.26,1779.34)"><path d="M0.025,-0l0.259,-0.728l0.137,0l0.263,0.728l-0.12,-0l-0.142,-0.405c-0.011,-0.033 -0.023,-0.071 -0.036,-0.116c-0.013,-0.045 -0.029,-0.098 -0.046,-0.16l0.023,-0c-0.017,0.063 -0.032,0.117 -0.045,0.162c-0.013,0.045 -0.025,0.083 -0.035,0.114l-0.138,0.405l-0.12,-0Zm0.14,-0.192l0,-0.093l0.379,0l-0,0.093l-0.379,0Z" style="fill:#b8470b;fill-rule:nonzero;"/></g><g transform="matrix(231.619,0,0,231.619,1363.99,1779.34)"><path d="M0.383,0.01c-0.063,-0 -0.119,-0.015 -0.169,-0.045c-0.049,-0.03 -0.088,-0.073 -0.116,-0.128c-0.029,-0.056 -0.043,-0.123 -0.043,-0.2c0,-0.078 0.014,-0.145 0.043,-0.201c0.028,-0.056 0.067,-0.098 0.117,-0.128c0.049,-0.03 0.105,-0.045 0.168,-0.045c0.038,-0 0.074,0.005 0.108,0.016c0.034,0.011 0.064,0.027 0.09,0.048c0.027,0.022 0.049,0.047 0.066,0.078c0.018,0.03 0.03,0.064 0.036,0.103l-0.112,0c-0.005,-0.023 -0.013,-0.044 -0.024,-0.062c-0.012,-0.017 -0.026,-0.032 -0.043,-0.045c-0.016,-0.012 -0.035,-0.021 -0.055,-0.028c-0.021,-0.006 -0.042,-0.009 -0.065,-0.009c-0.042,0 -0.079,0.011 -0.112,0.032c-0.033,0.021 -0.059,0.052 -0.078,0.092c-0.019,0.041 -0.028,0.09 -0.028,0.149c-0,0.058 0.009,0.108 0.028,0.148c0.019,0.041 0.045,0.072 0.078,0.092c0.033,0.021 0.07,0.031 0.112,0.031c0.022,0 0.044,-0.003 0.064,-0.009c0.021,-0.007 0.04,-0.016 0.056,-0.028c0.017,-0.012 0.031,-0.027 0.043,-0.045c0.011,-0.018 0.019,-0.038 0.024,-0.062l0.112,0c-0.005,0.036 -0.017,0.069 -0.034,0.099c-0.017,0.03 -0.038,0.056 -0.065,0.078c-0.026,0.022 -0.056,0.039 -0.09,0.051c-0.034,0.012 -0.071,0.018 -0.111,0.018Z" style="fill:#b8470b;fill-rule:nonzero;"/></g><g transform="matrix(231.619,0,0,231.619,1533.86,1779.34)"><path d="M0.081,-0l-0,-0.728l0.111,0l0,0.308l0.36,0l0,-0.308l0.112,0l-0,0.728l-0.112,-0l0,-0.324l-0.36,-0l0,0.324l-0.111,-0Z" style="fill:#b8470b;fill-rule:nonzero;"/></g><g transform="matrix(231.619,0,0,231.619,1706.33,1779.34)"><rect x="0.081" y="-0.728" width="0.112" height="0.728" style="fill:#b8470b;fill-rule:nonzero;"/></g><g transform="matrix(231.619,0,0,231.619,1769.44,1779.34)"><path d="M0.081,-0l-0,-0.728l0.128,0l0.274,0.433c0.009,0.015 0.019,0.032 0.03,0.052c0.012,0.02 0.024,0.042 0.037,0.067c0.012,0.025 0.025,0.052 0.037,0.081l-0.013,0c-0.003,-0.027 -0.005,-0.055 -0.007,-0.082c-0.001,-0.027 -0.002,-0.053 -0.003,-0.076c-0.001,-0.024 -0.001,-0.044 -0.001,-0.061l0,-0.414l0.113,0l-0,0.728l-0.129,-0l-0.246,-0.387c-0.013,-0.022 -0.026,-0.043 -0.038,-0.064c-0.013,-0.022 -0.026,-0.046 -0.042,-0.074c-0.015,-0.029 -0.033,-0.063 -0.055,-0.103l0.018,-0c0.001,0.035 0.003,0.069 0.004,0.1c0.002,0.031 0.003,0.059 0.004,0.083c0.001,0.024 0.002,0.043 0.002,0.057l-0,0.388l-0.113,-0Z" style="fill:#b8470b;fill-rule:nonzero;"/></g><g transform="matrix(231.619,0,0,231.619,1944.62,1779.34)"><path d="M0.081,-0l-0,-0.728l0.457,0l0,0.096l-0.346,0l0,0.217l0.322,0l-0,0.095l-0.322,0l0,0.224l0.35,0l-0,0.096l-0.461,0Z" style="fill:#b8470b;fill-rule:nonzero;"/></g><g transform="matrix(231.619,0,0,231.619,2084.29,1779.34)"></g><g transform="matrix(231.619,0,0,231.619,2146.04,1779.34)"><path d="M0.081,-0l-0,-0.728l0.111,0l0,0.632l0.329,0l0,0.096l-0.44,-0Z" style="fill:#b8470b;fill-rule:nonzero;"/></g><g transform="matrix(231.619,0,0,231.619,2277.01,1779.34)"><path d="M0.081,-0l-0,-0.728l0.457,0l0,0.096l-0.346,0l0,0.217l0.322,0l-0,0.095l-0.322,0l0,0.224l0.35,0l-0,0.096l-0.461,0Z" style="fill:#b8470b;fill-rule:nonzero;"/></g><g transform="matrix(231.619,0,0,231.619,2416.68,1779.34)"><path d="M0.025,-0l0.259,-0.728l0.137,0l0.263,0.728l-0.12,-0l-0.142,-0.405c-0.011,-0.033 -0.023,-0.071 -0.036,-0.116c-0.013,-0.045 -0.029,-0.098 -0.046,-0.16l0.023,-0c-0.017,0.063 -0.032,0.117 -0.045,0.162c-0.013,0.045 -0.025,0.083 -0.035,0.114l-0.138,0.405l-0.12,-0Zm0.14,-0.192l0,-0.093l0.379,0l-0,0.093l-0.379,0Z" style="fill:#b8470b;fill-rule:nonzero;"/></g><g transform="matrix(231.619,0,0,231.619,2580.89,1779.34)"><path d="M0.081,-0l-0,-0.728l0.26,0c0.056,0 0.103,0.01 0.14,0.03c0.038,0.019 0.066,0.046 0.084,0.08c0.019,0.035 0.028,0.074 0.028,0.119c0,0.045 -0.009,0.084 -0.028,0.118c-0.019,0.034 -0.047,0.06 -0.084,0.078c-0.037,0.019 -0.084,0.028 -0.141,0.028l-0.196,0l0,-0.095l0.185,0c0.036,0 0.065,-0.005 0.087,-0.015c0.022,-0.011 0.038,-0.025 0.049,-0.045c0.01,-0.019 0.015,-0.042 0.015,-0.069c0,-0.027 -0.005,-0.051 -0.015,-0.071c-0.011,-0.02 -0.027,-0.035 -0.049,-0.046c-0.022,-0.011 -0.051,-0.016 -0.087,-0.016l-0.137,-0l0,0.632l-0.111,0Zm0.413,0l-0.176,-0.329l0.123,0l0.18,0.329l-0.127,0Z" style="fill:#b8470b;fill-rule:nonzero;"/></g><g transform="matrix(231.619,0,0,231.619,2730.97,1779.34)"><path d="M0.081,-0l-0,-0.728l0.128,0l0.274,0.433c0.009,0.015 0.019,0.032 0.03,0.052c0.012,0.02 0.024,0.042 0.037,0.067c0.012,0.025 0.025,0.052 0.037,0.081l-0.013,0c-0.003,-0.027 -0.005,-0.055 -0.007,-0.082c-0.001,-0.027 -0.002,-0.053 -0.003,-0.076c-0.001,-0.024 -0.001,-0.044 -0.001,-0.061l0,-0.414l0.113,0l-0,0.728l-0.129,-0l-0.246,-0.387c-0.013,-0.022 -0.026,-0.043 -0.038,-0.064c-0.013,-0.022 -0.026,-0.046 -0.042,-0.074c-0.015,-0.029 -0.033,-0.063 -0.055,-0.103l0.018,-0c0.001,0.035 0.003,0.069 0.004,0.1c0.002,0.031 0.003,0.059 0.004,0.083c0.001,0.024 0.002,0.043 0.002,0.057l-0,0.388l-0.113,-0Z" style="fill:#b8470b;fill-rule:nonzero;"/></g><g transform="matrix(231.619,0,0,231.619,2906.16,1779.34)"><rect x="0.081" y="-0.728" width="0.112" height="0.728" style="fill:#b8470b;fill-rule:nonzero;"/></g><g transform="matrix(231.619,0,0,231.619,2969.26,1779.34)"><path d="M0.081,-0l-0,-0.728l0.128,0l0.274,0.433c0.009,0.015 0.019,0.032 0.03,0.052c0.012,0.02 0.024,0.042 0.037,0.067c0.012,0.025 0.025,0.052 0.037,0.081l-0.013,0c-0.003,-0.027 -0.005,-0.055 -0.007,-0.082c-0.001,-0.027 -0.002,-0.053 -0.003,-0.076c-0.001,-0.024 -0.001,-0.044 -0.001,-0.061l0,-0.414l0.113,0l-0,0.728l-0.129,-0l-0.246,-0.387c-0.013,-0.022 -0.026,-0.043 -0.038,-0.064c-0.013,-0.022 -0.026,-0.046 -0.042,-0.074c-0.015,-0.029 -0.033,-0.063 -0.055,-0.103l0.018,-0c0.001,0.035 0.003,0.069 0.004,0.1c0.002,0.031 0.003,0.059 0.004,0.083c0.001,0.024 0.002,0.043 0.002,0.057l-0,0.388l-0.113,-0Z" style="fill:#b8470b;fill-rule:nonzero;"/></g><g transform="matrix(231.619,0,0,231.619,3144.45,1779.34)"><path d="M0.386,0.01c-0.066,-0 -0.123,-0.015 -0.173,-0.046c-0.05,-0.03 -0.088,-0.073 -0.116,-0.129c-0.028,-0.055 -0.042,-0.122 -0.042,-0.198c0,-0.078 0.014,-0.145 0.042,-0.2c0.028,-0.056 0.067,-0.099 0.116,-0.129c0.05,-0.03 0.105,-0.045 0.168,-0.045c0.039,-0 0.076,0.005 0.11,0.017c0.034,0.012 0.065,0.028 0.091,0.049c0.027,0.022 0.049,0.047 0.067,0.077c0.017,0.029 0.029,0.061 0.035,0.097l-0.115,-0c-0.006,-0.022 -0.015,-0.041 -0.027,-0.058c-0.011,-0.017 -0.025,-0.031 -0.04,-0.044c-0.016,-0.012 -0.034,-0.021 -0.054,-0.027c-0.02,-0.007 -0.042,-0.01 -0.066,-0.01c-0.041,0 -0.077,0.011 -0.11,0.031c-0.033,0.021 -0.059,0.052 -0.078,0.092c-0.019,0.041 -0.028,0.091 -0.028,0.149c-0,0.059 0.009,0.108 0.028,0.149c0.019,0.04 0.045,0.071 0.079,0.092c0.033,0.021 0.071,0.031 0.114,0.031c0.039,0 0.073,-0.008 0.102,-0.023c0.029,-0.016 0.052,-0.039 0.068,-0.068c0.016,-0.029 0.024,-0.064 0.024,-0.103l0.029,0.005l-0.207,-0l-0,-0.092l0.287,-0l-0,0.083c-0,0.062 -0.013,0.115 -0.039,0.16c-0.027,0.044 -0.062,0.079 -0.108,0.103c-0.046,0.025 -0.098,0.037 -0.157,0.037Z" style="fill:#b8470b;fill-rule:nonzero;"/></g><g transform="matrix(231.619,0,0,231.619,3317.6,1779.34)"></g><g transform="matrix(231.619,0,0,231.619,3379.35,1779.34)"><path d="M0.283,0.01c-0.049,0 -0.091,-0.009 -0.126,-0.027c-0.035,-0.018 -0.062,-0.042 -0.081,-0.072c-0.019,-0.03 -0.029,-0.064 -0.029,-0.102c0,-0.031 0.006,-0.058 0.019,-0.08c0.012,-0.023 0.03,-0.044 0.052,-0.064c0.022,-0.019 0.047,-0.039 0.076,-0.06l0.118,-0.083c0.009,-0.007 0.019,-0.015 0.028,-0.023c0.01,-0.009 0.018,-0.019 0.024,-0.031c0.007,-0.012 0.01,-0.025 0.01,-0.04c0,-0.021 -0.007,-0.039 -0.021,-0.052c-0.014,-0.014 -0.034,-0.021 -0.059,-0.021c-0.017,-0 -0.032,0.003 -0.045,0.01c-0.013,0.007 -0.023,0.016 -0.03,0.029c-0.007,0.012 -0.01,0.026 -0.01,0.042c-0,0.018 0.004,0.035 0.012,0.051c0.008,0.016 0.019,0.033 0.034,0.051c0.014,0.018 0.03,0.037 0.048,0.059l0.339,0.403l-0.123,-0l-0.279,-0.328c-0.024,-0.028 -0.046,-0.055 -0.066,-0.079c-0.02,-0.025 -0.036,-0.05 -0.048,-0.075c-0.012,-0.025 -0.018,-0.052 -0.018,-0.082c-0,-0.033 0.007,-0.062 0.022,-0.088c0.016,-0.026 0.037,-0.046 0.065,-0.061c0.028,-0.015 0.06,-0.022 0.097,-0.022c0.037,-0 0.069,0.007 0.096,0.022c0.027,0.014 0.048,0.034 0.063,0.058c0.014,0.025 0.022,0.052 0.022,0.082c-0,0.022 -0.004,0.043 -0.013,0.062c-0.008,0.019 -0.019,0.037 -0.034,0.053c-0.014,0.016 -0.031,0.032 -0.05,0.046l-0.146,0.107c-0.027,0.02 -0.046,0.039 -0.058,0.056c-0.011,0.018 -0.017,0.037 -0.017,0.058c-0,0.022 0.005,0.042 0.016,0.058c0.01,0.017 0.025,0.03 0.044,0.039c0.019,0.009 0.041,0.014 0.065,0.014c0.028,-0 0.056,-0.006 0.082,-0.018c0.026,-0.012 0.05,-0.029 0.071,-0.051c0.021,-0.022 0.037,-0.048 0.05,-0.079c0.012,-0.031 0.018,-0.065 0.018,-0.104l0.097,0c0,0.047 -0.005,0.087 -0.016,0.12c-0.01,0.032 -0.023,0.058 -0.038,0.079c-0.015,0.02 -0.03,0.036 -0.043,0.048l-0.024,0.023c-0.025,0.024 -0.055,0.042 -0.09,0.054c-0.035,0.012 -0.07,0.018 -0.104,0.018Z" style="fill:#b8470b;fill-rule:nonzero;"/></g><g transform="matrix(231.619,0,0,231.619,3530.67,1779.34)"></g><g transform="matrix(231.619,0,0,231.619,3592.42,1779.34)"><path d="M0.081,-0l-0,-0.728l0.457,0l0,0.096l-0.346,0l0,0.217l0.322,0l-0,0.095l-0.322,0l0,0.224l0.35,0l-0,0.096l-0.461,0Z" style="fill:#b8470b;fill-rule:nonzero;"/></g><g transform="matrix(231.619,0,0,231.619,3732.09,1779.34)"><path d="M0.317,-0l-0.18,-0l0,-0.097l0.174,-0c0.055,-0 0.101,-0.011 0.137,-0.031c0.037,-0.021 0.064,-0.051 0.082,-0.091c0.018,-0.04 0.028,-0.088 0.028,-0.146c-0,-0.057 -0.01,-0.105 -0.028,-0.144c-0.018,-0.04 -0.045,-0.07 -0.08,-0.09c-0.036,-0.021 -0.08,-0.031 -0.133,-0.031l-0.184,-0l0,-0.098l0.191,0c0.072,0 0.133,0.015 0.184,0.044c0.051,0.029 0.09,0.071 0.118,0.125c0.027,0.054 0.041,0.119 0.041,0.194c-0,0.076 -0.014,0.141 -0.041,0.196c-0.028,0.054 -0.068,0.096 -0.12,0.125c-0.052,0.029 -0.115,0.044 -0.189,0.044Zm-0.125,-0.728l0,0.728l-0.111,-0l-0,-0.728l0.111,0Z" style="fill:#b8470b;fill-rule:nonzero;"/></g><g transform="matrix(231.619,0,0,231.619,3899.24,1779.34)"><path d="M0.386,0.01c-0.066,-0 -0.123,-0.015 -0.173,-0.046c-0.05,-0.03 -0.088,-0.073 -0.116,-0.129c-0.028,-0.055 -0.042,-0.122 -0.042,-0.198c0,-0.078 0.014,-0.145 0.042,-0.2c0.028,-0.056 0.067,-0.099 0.116,-0.129c0.05,-0.03 0.105,-0.045 0.168,-0.045c0.039,-0 0.076,0.005 0.11,0.017c0.034,0.012 0.065,0.028 0.091,0.049c0.027,0.022 0.049,0.047 0.067,0.077c0.017,0.029 0.029,0.061 0.035,0.097l-0.115,-0c-0.006,-0.022 -0.015,-0.041 -0.027,-0.058c-0.011,-0.017 -0.025,-0.031 -0.04,-0.044c-0.016,-0.012 -0.034,-0.021 -0.054,-0.027c-0.02,-0.007 -0.042,-0.01 -0.066,-0.01c-0.041,0 -0.077,0.011 -0.11,0.031c-0.033,0.021 -0.059,0.052 -0.078,0.092c-0.019,0.041 -0.028,0.091 -0.028,0.149c-0,0.059 0.009,0.108 0.028,0.149c0.019,0.04 0.045,0.071 0.079,0.092c0.033,0.021 0.071,0.031 0.114,0.031c0.039,0 0.073,-0.008 0.102,-0.023c0.029,-0.016 0.052,-0.039 0.068,-0.068c0.016,-0.029 0.024,-0.064 0.024,-0.103l0.029,0.005l-0.207,-0l-0,-0.092l0.287,-0l-0,0.083c-0,0.062 -0.013,0.115 -0.039,0.16c-0.027,0.044 -0.062,0.079 -0.108,0.103c-0.046,0.025 -0.098,0.037 -0.157,0.037Z" style="fill:#b8470b;fill-rule:nonzero;"/></g><g transform="matrix(231.619,0,0,231.619,4072.39,1779.34)"><path d="M0.081,-0l-0,-0.728l0.457,0l0,0.096l-0.346,0l0,0.217l0.322,0l-0,0.095l-0.322,0l0,0.224l0.35,0l-0,0.096l-0.461,0Z" style="fill:#b8470b;fill-rule:nonzero;"/></g><g transform="matrix(231.619,0,0,231.619,4212.06,1779.34)"></g><g transform="matrix(231.619,0,0,231.619,4273.81,1779.34)"><path d="M0.025,-0l0.259,-0.728l0.137,0l0.263,0.728l-0.12,-0l-0.142,-0.405c-0.011,-0.033 -0.023,-0.071 -0.036,-0.116c-0.013,-0.045 -0.029,-0.098 -0.046,-0.16l0.023,-0c-0.017,0.063 -0.032,0.117 -0.045,0.162c-0.013,0.045 -0.025,0.083 -0.035,0.114l-0.138,0.405l-0.12,-0Zm0.14,-0.192l0,-0.093l0.379,0l-0,0.093l-0.379,0Z" style="fill:#b8470b;fill-rule:nonzero;"/></g><g transform="matrix(231.619,0,0,231.619,4438.03,1779.34)"><rect x="0.081" y="-0.728" width="0.112" height="0.728" style="fill:#b8470b;fill-rule:nonzero;"/></g><g transform="matrix(231.619,0,0,231.619,4501.14,1779.34)"></g><g transform="matrix(231.619,0,0,231.619,4562.89,1779.34)"></g></g><g><g id="A1" serif:id="A" transform="matrix(1,0,0,0.894444,4.54747e-13,-135.696)"><g transform="matrix(632.722,0,0,632.722,986.488,1170.3)"><path d="M0.388,0.01c-0.068,-0 -0.127,-0.015 -0.179,-0.046c-0.051,-0.03 -0.091,-0.073 -0.12,-0.128c-0.029,-0.056 -0.043,-0.122 -0.043,-0.199c-0,-0.078 0.015,-0.146 0.045,-0.202c0.03,-0.055 0.07,-0.098 0.121,-0.128c0.051,-0.029 0.109,-0.044 0.173,-0.044c0.041,-0 0.079,0.006 0.114,0.017c0.035,0.012 0.067,0.029 0.095,0.051c0.027,0.022 0.05,0.048 0.067,0.078c0.017,0.029 0.029,0.062 0.034,0.098l-0.152,0c-0.005,-0.017 -0.012,-0.033 -0.021,-0.047c-0.01,-0.014 -0.021,-0.025 -0.034,-0.035c-0.013,-0.01 -0.028,-0.017 -0.045,-0.022c-0.017,-0.005 -0.035,-0.008 -0.056,-0.008c-0.037,0 -0.07,0.009 -0.099,0.028c-0.028,0.019 -0.051,0.046 -0.067,0.082c-0.016,0.036 -0.024,0.079 -0.024,0.131c0,0.051 0.008,0.095 0.024,0.131c0.016,0.036 0.038,0.063 0.067,0.082c0.028,0.019 0.062,0.028 0.101,0.028c0.035,0 0.065,-0.006 0.091,-0.019c0.025,-0.012 0.044,-0.031 0.057,-0.054c0.014,-0.023 0.02,-0.051 0.02,-0.083l0.032,0.005l-0.189,-0l-0,-0.114l0.302,0l0,0.091c0,0.064 -0.013,0.119 -0.04,0.164c-0.027,0.046 -0.064,0.081 -0.112,0.106c-0.047,0.024 -0.101,0.037 -0.162,0.037Z" style="fill:#efc893;fill-rule:nonzero;"/></g><g transform="matrix(632.722,0,0,632.722,1461.34,1170.3)"><path d="M0.215,0.011c-0.035,-0 -0.066,-0.007 -0.093,-0.019c-0.028,-0.012 -0.049,-0.03 -0.065,-0.054c-0.016,-0.025 -0.024,-0.055 -0.024,-0.091c0,-0.03 0.006,-0.056 0.017,-0.076c0.011,-0.02 0.026,-0.037 0.046,-0.049c0.019,-0.013 0.041,-0.022 0.066,-0.029c0.024,-0.006 0.05,-0.011 0.077,-0.013c0.032,-0.004 0.057,-0.007 0.076,-0.009c0.02,-0.003 0.034,-0.008 0.043,-0.014c0.009,-0.006 0.014,-0.014 0.014,-0.026l-0,-0.003c-0,-0.015 -0.004,-0.028 -0.01,-0.039c-0.007,-0.011 -0.017,-0.019 -0.029,-0.025c-0.013,-0.006 -0.029,-0.008 -0.047,-0.008c-0.019,-0 -0.035,0.002 -0.049,0.008c-0.014,0.006 -0.025,0.013 -0.034,0.023c-0.009,0.009 -0.016,0.02 -0.02,0.032l-0.134,-0.023c0.009,-0.031 0.025,-0.058 0.047,-0.08c0.021,-0.023 0.049,-0.04 0.081,-0.051c0.032,-0.012 0.069,-0.018 0.109,-0.018c0.03,0 0.058,0.004 0.086,0.011c0.028,0.007 0.052,0.017 0.074,0.032c0.022,0.015 0.04,0.034 0.053,0.058c0.013,0.023 0.019,0.051 0.019,0.084l0,0.368l-0.139,-0l0,-0.076l-0.005,0c-0.008,0.017 -0.02,0.032 -0.035,0.045c-0.014,0.013 -0.032,0.023 -0.053,0.031c-0.02,0.007 -0.044,0.011 -0.071,0.011Zm0.041,-0.103c0.023,-0 0.044,-0.005 0.061,-0.014c0.017,-0.009 0.031,-0.021 0.041,-0.037c0.01,-0.016 0.015,-0.033 0.015,-0.052l-0,-0.059c-0.005,0.003 -0.011,0.006 -0.02,0.008c-0.009,0.003 -0.018,0.005 -0.029,0.007c-0.011,0.002 -0.021,0.004 -0.032,0.006c-0.01,0.001 -0.02,0.003 -0.028,0.004c-0.018,0.002 -0.034,0.006 -0.047,0.012c-0.014,0.006 -0.024,0.014 -0.032,0.023c-0.008,0.01 -0.011,0.022 -0.011,0.037c-0,0.014 0.003,0.026 0.01,0.036c0.008,0.009 0.017,0.017 0.03,0.022c0.012,0.004 0.026,0.007 0.042,0.007Z" style="fill:#efc893;fill-rule:nonzero;"/></g><g transform="matrix(632.722,0,0,632.722,1828.67,1170.3)"><path d="M0.368,0.009c-0.029,0 -0.054,-0.005 -0.075,-0.015c-0.02,-0.01 -0.037,-0.022 -0.05,-0.037c-0.013,-0.015 -0.023,-0.03 -0.029,-0.044l-0.008,-0l0,0.087l-0.144,-0l0,-0.728l0.147,0l-0,0.274l0.005,-0c0.006,-0.015 0.016,-0.029 0.028,-0.045c0.013,-0.015 0.029,-0.028 0.05,-0.038c0.02,-0.011 0.046,-0.016 0.077,-0.016c0.041,0 0.078,0.011 0.111,0.032c0.033,0.02 0.06,0.052 0.08,0.093c0.02,0.042 0.031,0.094 0.031,0.156c-0,0.061 -0.01,0.112 -0.03,0.154c-0.019,0.041 -0.046,0.073 -0.079,0.095c-0.034,0.021 -0.072,0.032 -0.114,0.032Zm-0.045,-0.117c0.026,-0 0.047,-0.007 0.065,-0.021c0.017,-0.014 0.03,-0.034 0.039,-0.058c0.009,-0.025 0.013,-0.054 0.013,-0.085c0,-0.032 -0.004,-0.061 -0.013,-0.085c-0.009,-0.025 -0.022,-0.044 -0.039,-0.058c-0.018,-0.013 -0.039,-0.02 -0.065,-0.02c-0.025,-0 -0.046,0.006 -0.064,0.02c-0.017,0.013 -0.031,0.032 -0.04,0.056c-0.009,0.025 -0.013,0.053 -0.013,0.087c-0,0.032 0.004,0.061 0.013,0.086c0.01,0.024 0.023,0.043 0.041,0.057c0.017,0.014 0.038,0.021 0.063,0.021Z" style="fill:#efc893;fill-rule:nonzero;"/></g><g transform="matrix(632.722,0,0,632.722,2227.52,1170.3)"><path d="M0.062,-0l0,-0.546l0.142,0l0,0.095l0.006,0c0.01,-0.033 0.027,-0.059 0.05,-0.076c0.024,-0.018 0.051,-0.026 0.082,-0.026c0.007,-0 0.015,0 0.024,0.001c0.009,0.001 0.016,0.002 0.023,0.004l0,0.131c-0.006,-0.003 -0.016,-0.005 -0.028,-0.006c-0.013,-0.001 -0.024,-0.002 -0.035,-0.002c-0.023,0 -0.043,0.005 -0.06,0.015c-0.018,0.009 -0.032,0.023 -0.042,0.04c-0.01,0.017 -0.015,0.037 -0.015,0.059l-0,0.311l-0.147,0Z" style="fill:#efc893;fill-rule:nonzero;"/></g><g transform="matrix(632.722,0,0,632.722,2487.97,1170.3)"><path d="M0.062,-0l0,-0.546l0.147,0l-0,0.546l-0.147,-0Zm0.074,-0.617c-0.022,-0 -0.041,-0.007 -0.057,-0.022c-0.016,-0.015 -0.024,-0.033 -0.024,-0.053c0,-0.021 0.008,-0.039 0.024,-0.054c0.016,-0.014 0.035,-0.022 0.057,-0.022c0.022,0 0.041,0.008 0.057,0.022c0.015,0.015 0.023,0.033 0.023,0.054c0,0.02 -0.008,0.038 -0.023,0.053c-0.016,0.015 -0.035,0.022 -0.057,0.022Z" style="fill:#efc893;fill-rule:nonzero;"/></g><g transform="matrix(632.722,0,0,632.722,2659.43,1170.3)"><path d="M0.309,0.011c-0.055,-0 -0.103,-0.012 -0.144,-0.035c-0.04,-0.022 -0.071,-0.055 -0.093,-0.097c-0.021,-0.042 -0.032,-0.092 -0.032,-0.149c-0,-0.056 0.01,-0.106 0.032,-0.148c0.021,-0.042 0.052,-0.075 0.091,-0.099c0.04,-0.024 0.086,-0.036 0.139,-0.036c0.036,0 0.069,0.006 0.1,0.017c0.031,0.012 0.058,0.029 0.081,0.052c0.024,0.023 0.042,0.051 0.055,0.086c0.013,0.035 0.02,0.075 0.02,0.122l-0,0.041l-0.458,0l-0,-0.092l0.387,0l-0.069,0.025c0,-0.029 -0.004,-0.053 -0.013,-0.074c-0.009,-0.021 -0.021,-0.038 -0.038,-0.049c-0.018,-0.012 -0.039,-0.017 -0.064,-0.017c-0.025,-0 -0.047,0.005 -0.064,0.017c-0.018,0.012 -0.032,0.028 -0.041,0.048c-0.009,0.02 -0.014,0.043 -0.014,0.068l0,0.065c0,0.032 0.006,0.058 0.016,0.08c0.011,0.021 0.026,0.037 0.045,0.048c0.019,0.011 0.041,0.016 0.067,0.016c0.017,0 0.032,-0.002 0.046,-0.007c0.014,-0.005 0.026,-0.012 0.036,-0.022c0.01,-0.009 0.018,-0.021 0.023,-0.035l0.133,0.025c-0.009,0.03 -0.024,0.056 -0.046,0.079c-0.022,0.022 -0.049,0.04 -0.082,0.052c-0.033,0.012 -0.07,0.019 -0.113,0.019Z" style="fill:#efc893;fill-rule:nonzero;"/></g><g transform="matrix(632.722,0,0,632.722,3036.34,1170.3)"><rect x="0.062" y="-0.728" width="0.146" height="0.728" style="fill:#efc893;fill-rule:nonzero;"/></g><g transform="matrix(632.722,0,0,632.722,3207.81,1170.3)"></g><g transform="matrix(632.722,0,0,632.722,3357.65,1170.3)"></g></g><g id="A2" serif:id="A" transform="matrix(1,0,0,0.867895,-4.54747e-13,-95.4166)"><g transform="matrix(622.698,0,0,622.698,974.277,1694.65)"><path d="M0.066,-0l-0,-0.728l0.229,0l0.117,0.334c0.005,0.016 0.011,0.036 0.017,0.061c0.007,0.025 0.013,0.051 0.02,0.08c0.006,0.029 0.012,0.057 0.018,0.084c0.006,0.026 0.01,0.05 0.014,0.07l-0.029,-0c0.004,-0.02 0.009,-0.043 0.014,-0.07c0.006,-0.026 0.012,-0.054 0.018,-0.083c0.007,-0.029 0.013,-0.055 0.02,-0.081c0.006,-0.025 0.012,-0.045 0.017,-0.061l0.116,-0.334l0.229,0l0,0.728l-0.15,-0l0,-0.343c0,-0.016 0.001,-0.036 0.001,-0.059c0.001,-0.024 0.001,-0.05 0.002,-0.077c0.001,-0.028 0.002,-0.055 0.002,-0.083c0.001,-0.028 0.001,-0.054 0.001,-0.079l0.01,-0c-0.006,0.027 -0.013,0.055 -0.021,0.084c-0.007,0.028 -0.015,0.056 -0.022,0.083c-0.008,0.027 -0.015,0.052 -0.022,0.075c-0.007,0.022 -0.013,0.041 -0.018,0.056l-0.12,0.343l-0.126,-0l-0.122,-0.343c-0.005,-0.015 -0.011,-0.033 -0.018,-0.056c-0.006,-0.022 -0.014,-0.047 -0.022,-0.074c-0.007,-0.026 -0.015,-0.054 -0.023,-0.083c-0.007,-0.029 -0.015,-0.057 -0.022,-0.085l0.012,-0c0,0.023 0.001,0.049 0.001,0.077c0.001,0.027 0.003,0.136 0.004,0.16c0.001,0.024 0.001,0.045 0.001,0.061l-0,0.343l-0.148,-0Z" style="fill:#efc893;fill-rule:nonzero;"/></g><g transform="matrix(622.698,0,0,622.698,1554.41,1694.65)"><path d="M0.306,0.011c-0.054,-0 -0.102,-0.012 -0.142,-0.036c-0.039,-0.023 -0.07,-0.056 -0.092,-0.098c-0.021,-0.042 -0.032,-0.092 -0.032,-0.148c-0,-0.056 0.011,-0.105 0.032,-0.148c0.022,-0.042 0.053,-0.075 0.092,-0.098c0.04,-0.024 0.088,-0.036 0.142,-0.036c0.033,0 0.063,0.004 0.09,0.013c0.027,0.008 0.052,0.02 0.073,0.036c0.021,0.016 0.038,0.035 0.052,0.057c0.014,0.023 0.023,0.048 0.028,0.076l-0.136,0.025c-0.003,-0.014 -0.008,-0.027 -0.014,-0.038c-0.006,-0.011 -0.013,-0.021 -0.022,-0.029c-0.009,-0.008 -0.019,-0.014 -0.031,-0.018c-0.011,-0.004 -0.024,-0.006 -0.038,-0.006c-0.026,-0 -0.048,0.007 -0.066,0.021c-0.017,0.014 -0.031,0.033 -0.04,0.058c-0.009,0.025 -0.013,0.054 -0.013,0.087c-0,0.032 0.004,0.061 0.013,0.086c0.009,0.025 0.023,0.045 0.04,0.059c0.018,0.014 0.04,0.021 0.066,0.021c0.014,0 0.027,-0.002 0.039,-0.006c0.012,-0.004 0.022,-0.011 0.031,-0.019c0.009,-0.008 0.017,-0.018 0.023,-0.03c0.006,-0.012 0.01,-0.025 0.013,-0.04l0.136,0.025c-0.005,0.029 -0.014,0.055 -0.028,0.078c-0.014,0.022 -0.031,0.042 -0.052,0.058c-0.021,0.016 -0.046,0.028 -0.073,0.037c-0.028,0.008 -0.058,0.013 -0.091,0.013Z" style="fill:#efc893;fill-rule:nonzero;"/></g><g transform="matrix(622.698,0,0,622.698,1889.78,1694.65)"><path d="M0.219,-0l-0.195,-0.728l0.163,0l0.084,0.358c0.007,0.03 0.013,0.062 0.019,0.096c0.006,0.034 0.011,0.069 0.017,0.103c0.005,0.034 0.01,0.067 0.016,0.099l-0.027,-0c0.006,-0.032 0.012,-0.065 0.018,-0.099c0.006,-0.034 0.012,-0.069 0.018,-0.103c0.006,-0.034 0.013,-0.066 0.02,-0.096l0.089,-0.358l0.155,0l0.089,0.358c0.007,0.03 0.014,0.062 0.02,0.096c0.006,0.034 0.012,0.069 0.018,0.103c0.006,0.034 0.012,0.067 0.018,0.099l-0.027,-0c0.005,-0.032 0.011,-0.065 0.016,-0.099c0.006,-0.034 0.011,-0.069 0.017,-0.103c0.006,-0.034 0.013,-0.066 0.019,-0.096l0.085,-0.358l0.163,0l-0.196,0.728l-0.17,-0l-0.097,-0.372c-0.01,-0.041 -0.019,-0.086 -0.026,-0.135c-0.008,-0.048 -0.016,-0.097 -0.025,-0.148l0.037,-0c-0.01,0.05 -0.018,0.098 -0.025,0.146c-0.006,0.047 -0.015,0.093 -0.026,0.137l-0.096,0.372l-0.171,-0Z" style="fill:#efc893;fill-rule:nonzero;"/></g><g transform="matrix(622.698,0,0,622.698,2535.89,1694.65)"><path d="M0.062,-0l0,-0.546l0.147,0l-0,0.546l-0.147,-0Zm0.074,-0.617c-0.022,-0 -0.041,-0.007 -0.057,-0.022c-0.016,-0.015 -0.024,-0.033 -0.024,-0.053c0,-0.021 0.008,-0.039 0.024,-0.054c0.016,-0.014 0.035,-0.022 0.057,-0.022c0.022,0 0.041,0.008 0.057,0.022c0.015,0.015 0.023,0.033 0.023,0.054c0,0.02 -0.008,0.038 -0.023,0.053c-0.016,0.015 -0.035,0.022 -0.057,0.022Z" style="fill:#efc893;fill-rule:nonzero;"/></g><g transform="matrix(622.698,0,0,622.698,2704.64,1694.65)"><rect x="0.062" y="-0.728" width="0.146" height="0.728" style="fill:#efc893;fill-rule:nonzero;"/></g><g transform="matrix(622.698,0,0,622.698,2873.38,1694.65)"><rect x="0.062" y="-0.728" width="0.146" height="0.728" style="fill:#efc893;fill-rule:nonzero;"/></g><g transform="matrix(622.698,0,0,622.698,3042.13,1694.65)"><path d="M0.062,-0l0,-0.546l0.147,0l-0,0.546l-0.147,-0Zm0.074,-0.617c-0.022,-0 -0.041,-0.007 -0.057,-0.022c-0.016,-0.015 -0.024,-0.033 -0.024,-0.053c0,-0.021 0.008,-0.039 0.024,-0.054c0.016,-0.014 0.035,-0.022 0.057,-0.022c0.022,0 0.041,0.008 0.057,0.022c0.015,0.015 0.023,0.033 0.023,0.054c0,0.02 -0.008,0.038 -0.023,0.053c-0.016,0.015 -0.035,0.022 -0.057,0.022Z" style="fill:#efc893;fill-rule:nonzero;"/></g><g transform="matrix(622.698,0,0,622.698,3210.88,1694.65)"><path d="M0.215,0.011c-0.035,-0 -0.066,-0.007 -0.093,-0.019c-0.028,-0.012 -0.049,-0.03 -0.065,-0.054c-0.016,-0.025 -0.024,-0.055 -0.024,-0.091c0,-0.03 0.006,-0.056 0.017,-0.076c0.011,-0.02 0.026,-0.037 0.046,-0.049c0.019,-0.013 0.041,-0.022 0.066,-0.029c0.024,-0.006 0.05,-0.011 0.077,-0.013c0.032,-0.004 0.057,-0.007 0.076,-0.009c0.02,-0.003 0.034,-0.008 0.043,-0.014c0.009,-0.006 0.014,-0.014 0.014,-0.026l-0,-0.003c-0,-0.015 -0.004,-0.028 -0.01,-0.039c-0.007,-0.011 -0.017,-0.019 -0.029,-0.025c-0.013,-0.006 -0.029,-0.008 -0.047,-0.008c-0.019,-0 -0.035,0.002 -0.049,0.008c-0.014,0.006 -0.025,0.013 -0.034,0.023c-0.009,0.009 -0.016,0.02 -0.02,0.032l-0.134,-0.023c0.009,-0.031 0.025,-0.058 0.047,-0.08c0.021,-0.023 0.049,-0.04 0.081,-0.051c0.032,-0.012 0.069,-0.018 0.109,-0.018c0.03,0 0.058,0.004 0.086,0.011c0.028,0.007 0.052,0.017 0.074,0.032c0.022,0.015 0.04,0.034 0.053,0.058c0.013,0.023 0.019,0.051 0.019,0.084l0,0.368l-0.139,-0l0,-0.076l-0.005,0c-0.008,0.017 -0.02,0.032 -0.035,0.045c-0.014,0.013 -0.032,0.023 -0.053,0.031c-0.02,0.007 -0.044,0.011 -0.071,0.011Zm0.041,-0.103c0.023,-0 0.044,-0.005 0.061,-0.014c0.017,-0.009 0.031,-0.021 0.041,-0.037c0.01,-0.016 0.015,-0.033 0.015,-0.052l-0,-0.059c-0.005,0.003 -0.011,0.006 -0.02,0.008c-0.009,0.003 -0.018,0.005 -0.029,0.007c-0.011,0.002 -0.021,0.004 -0.032,0.006c-0.01,0.001 -0.02,0.003 -0.028,0.004c-0.018,0.002 -0.034,0.006 -0.047,0.012c-0.014,0.006 -0.024,0.014 -0.032,0.023c-0.008,0.01 -0.011,0.022 -0.011,0.037c-0,0.014 0.003,0.026 0.01,0.036c0.008,0.009 0.017,0.017 0.03,0.022c0.012,0.004 0.026,0.007 0.042,0.007Z" style="fill:#efc893;fill-rule:nonzero;"/></g><g transform="matrix(622.698,0,0,622.698,3572.4,1694.65)"><path d="M0.062,-0l0,-0.546l0.136,0l0.008,0.136l-0.011,-0c0.008,-0.034 0.021,-0.061 0.037,-0.082c0.017,-0.021 0.036,-0.037 0.058,-0.047c0.022,-0.01 0.046,-0.015 0.07,-0.015c0.039,-0 0.071,0.012 0.095,0.037c0.024,0.025 0.042,0.064 0.053,0.116l-0.017,-0c0.008,-0.035 0.022,-0.064 0.04,-0.087c0.019,-0.022 0.04,-0.039 0.065,-0.05c0.026,-0.011 0.052,-0.016 0.08,-0.016c0.033,-0 0.063,0.007 0.089,0.022c0.027,0.014 0.047,0.035 0.062,0.063c0.015,0.028 0.023,0.061 0.023,0.101l-0,0.368l-0.146,-0l-0,-0.34c-0,-0.031 -0.009,-0.054 -0.025,-0.069c-0.017,-0.015 -0.038,-0.023 -0.062,-0.023c-0.019,0 -0.034,0.004 -0.048,0.012c-0.014,0.008 -0.024,0.02 -0.031,0.034c-0.007,0.014 -0.011,0.031 -0.011,0.05l0,0.336l-0.142,-0l0,-0.344c0,-0.027 -0.008,-0.048 -0.023,-0.064c-0.016,-0.016 -0.037,-0.024 -0.062,-0.024c-0.017,0 -0.032,0.004 -0.046,0.012c-0.014,0.008 -0.025,0.019 -0.033,0.034c-0.008,0.016 -0.012,0.034 -0.012,0.056l-0,0.33l-0.147,-0Z" style="fill:#efc893;fill-rule:nonzero;"/></g><g transform="matrix(622.698,0,0,622.698,4140.67,1694.65)"><path d="M0.279,0.011c-0.044,-0 -0.083,-0.007 -0.116,-0.019c-0.034,-0.013 -0.062,-0.031 -0.083,-0.055c-0.022,-0.024 -0.036,-0.052 -0.042,-0.086l0.136,-0.024c0.008,0.026 0.02,0.045 0.038,0.057c0.018,0.013 0.042,0.019 0.072,0.019c0.027,0 0.05,-0.005 0.066,-0.016c0.016,-0.01 0.024,-0.024 0.024,-0.04c0,-0.014 -0.006,-0.026 -0.017,-0.035c-0.012,-0.009 -0.029,-0.016 -0.054,-0.021l-0.094,-0.02c-0.052,-0.01 -0.091,-0.029 -0.118,-0.055c-0.026,-0.025 -0.039,-0.059 -0.039,-0.1c0,-0.034 0.01,-0.065 0.029,-0.09c0.019,-0.025 0.046,-0.045 0.08,-0.058c0.034,-0.014 0.075,-0.021 0.121,-0.021c0.043,0 0.08,0.006 0.112,0.018c0.031,0.012 0.057,0.029 0.076,0.051c0.02,0.021 0.033,0.047 0.039,0.077l-0.13,0.023c-0.005,-0.019 -0.016,-0.034 -0.032,-0.046c-0.015,-0.012 -0.037,-0.018 -0.063,-0.018c-0.024,0 -0.044,0.005 -0.061,0.016c-0.016,0.01 -0.024,0.023 -0.024,0.04c-0,0.013 0.005,0.025 0.016,0.034c0.01,0.01 0.028,0.017 0.054,0.023l0.098,0.019c0.053,0.011 0.092,0.028 0.118,0.053c0.026,0.024 0.039,0.056 0.039,0.095c-0,0.035 -0.011,0.067 -0.032,0.094c-0.021,0.026 -0.049,0.047 -0.086,0.062c-0.037,0.015 -0.079,0.023 -0.127,0.023Z" style="fill:#efc893;fill-rule:nonzero;"/></g><g transform="matrix(622.698,0,0,622.698,4489.42,1694.65)"></g><g transform="matrix(622.698,0,0,622.698,4636.89,1694.65)"></g></g></g><g><g><path d="M560.637,781.767c5.915,6.498 21.221,9.088 16.075,-1.252c-0.911,-1.83 1.622,-11.294 -1.936,-14.056c-2.6,-2.017 -4.572,-9.116 -8.674,-12.564c-1.957,-1.644 -10.811,-3.139 -13.167,-3.116c-2.004,0.02 -13.816,4.382 -12.961,5.62c5.782,8.376 5.863,15.308 3.82,18.982c-3.097,5.569 14.288,3.58 16.843,6.386Z" style="fill:#b8470b;"/><path d="M471.19,791.884c1.004,-0.377 11.424,-2.54 16.688,-2.778c8.122,-0.368 11.986,10.074 11.976,12.919c-0.019,5.332 -0.643,11.504 -5.122,14.341c-1.832,1.16 -6.862,8.673 -10.528,12.178c-4.092,3.912 -12.173,11.804 -14.023,11.296c-13.357,-3.67 -21.923,-39.34 1.009,-47.956Z" style="fill:#b8470b;"/><path d="M832.318,816.799c2.047,-3.754 6.762,-7.035 11.601,-9.469c7.259,-3.652 13.772,-12.378 13.772,-12.378c1.441,-0.005 6.115,17.14 5.9,22.459c-0.154,3.819 2.422,16.472 2.984,20.294c0.63,4.289 12.09,26.28 1.558,28.276c-23.333,4.422 -32.086,-23.815 -36.494,-36.127c-0,0 -1.368,-9.301 0.679,-13.055Z" style="fill:#b8470b;"/><path d="M824.359,733.966c4.609,4.159 7.013,8.303 9.925,11.204c3.277,3.266 9.272,7.417 12.922,13.259c3.298,5.278 2.605,13.028 5.806,17.181c3.68,4.773 2.153,13.943 0.749,18.113c-1.091,3.241 -9.176,6.909 -9.176,6.909c-0,0 -11.894,12.069 -16.021,8.265c-2.389,-2.202 -5.072,-5.149 -7.85,-9.615c-3.642,-5.854 -4.431,-9.088 -10.213,-13.216c-1.436,-1.026 -1.778,-14.246 -0.749,-18.114c2.31,-8.683 14.607,-33.986 14.607,-33.986Z" style="fill:#b8470b;"/><path d="M729.171,767.215c0,-0 -3.409,-21.263 -1.872,-29.173c0.287,-1.478 0.983,-7.581 1.531,-11.364c0.861,-5.95 15.404,-9.675 3.636,-24.336c-1.248,-1.554 -14.145,-15.725 -4.046,-24.307c2.551,-2.169 10.39,5.763 13.063,6.377c5.203,1.196 16.431,10.121 24.528,16.011c9.444,6.87 19.649,12.796 26.126,12.754c5.504,-0.035 15.279,4.723 22.861,11.161c2.023,1.718 1.784,4.612 -3.129,14.62c-4.797,9.769 -3.252,25.941 -7.857,32.497c-2.66,3.785 -24.959,-0.073 -30.923,-2.985c-16.86,-8.231 -43.918,-1.255 -43.918,-1.255Z" style="fill:#b8470b;"/><path d="M780.894,781.982c-0,0 23.463,64.07 18.336,71.555c-5.128,7.484 -50.089,-29.734 -50.089,-29.734c2.885,-14.683 1.404,-31.793 -4.459,-51.34c12.151,-1.441 24.241,0.588 36.212,9.519Z" style="fill:#b8470b;"/><path d="M738.082,820.661c-11.715,7.944 -29.72,-7.379 -28.121,-10.377c0,0 4.013,-18.882 6.302,-22.053c3.167,-4.387 19.112,0.9 22.117,6.285c3.295,5.904 -0.298,26.145 -0.298,26.145" style="fill:#b8470b;"/><path d="M742.987,832.785c11.471,5.995 45.518,28.637 49.138,24.694l-61.662,17.946c-23.262,-8.488 -26.147,-16.018 -29.956,-32.06c0.741,2.602 32.543,-15.775 42.48,-10.58Z" style="fill:#b8470b;"/><path d="M732.281,942.25c-9.64,-1.341 -4.723,-22.364 2.382,-28.909c1.92,-1.768 1.945,-10.673 4.517,-10.544c12.502,0.629 66.354,-2.716 83.289,13.376c4.628,4.397 5.24,18.857 -2.32,22.365c-9.108,4.226 -20.665,2.306 -33.211,4.554c-7.942,1.423 -49.89,-0.178 -54.657,-0.842Z" style="fill:#b8470b;"/><path d="M238.986,1420.66c0.825,5.319 -14.909,5.753 -21.403,2.674c-11.096,-5.261 -40.816,-18.098 -45.173,-34.243c-1.631,-6.045 -8.519,-36.654 -8.519,-36.654c0,-0 -8.398,-28.145 -14.619,-36.76c-44.214,-61.215 -86.665,-104.93 -106.295,-135.369c-14.835,-23.002 -18.817,-52.864 -15.131,-76.641c3.687,-23.776 19.096,-51.309 37.758,-66.28c18.563,-14.892 46.055,-26.588 73.674,-26.112c27.451,0.472 45.502,7.081 63.736,19.351c60.318,40.589 179.916,205.813 266.356,299.69l-112.799,-4.984c-0,-0 -49.332,-1.014 -73.36,7.863c-36.676,13.55 -49.733,51.962 -44.225,87.465Zm-98.761,-375.904c-42.926,-0.739 -78.377,33.413 -79.117,76.217c-0.74,42.804 33.51,78.156 76.436,78.895c42.926,0.739 78.377,-33.412 79.117,-76.217c0.74,-42.804 -33.51,-78.155 -76.436,-78.895Z" style="fill:#b8470b;"/><path d="M119.119,1597.61l-0.072,-85.216c1.587,-15.633 39.674,-92.41 48.786,-79.478c27.854,39.532 97.17,39.088 103.727,33.434c9.17,-7.908 6.094,-21.294 -3.063,-42.585c-22.437,-52.163 34.68,-63.204 58.055,-63.431c48.694,-0.475 234.757,-0.117 234.757,-0.117c18.907,1.777 28.826,13.425 30.475,33.745l0.106,90.95l103.309,0.117c9.034,2.806 15.337,8.779 18.758,18.094l0.027,94.298l-594.865,0.189Zm407.036,-201.732c-12.44,0.003 -22.537,10.784 -22.533,24.059c0.004,13.275 10.107,24.05 22.547,24.047c12.44,-0.003 22.536,-10.784 22.533,-24.059c-0.004,-13.275 -10.107,-24.05 -22.547,-24.047Z" style="fill:#8e776a;"/><path d="M119.119,1597.61l-0.072,-85.216c1.587,-15.633 39.674,-92.41 48.786,-79.478c27.854,39.532 97.17,39.088 103.727,33.434c9.17,-7.908 6.094,-21.294 -3.063,-42.585c-22.437,-52.163 34.68,-63.204 58.055,-63.431c48.694,-0.475 234.757,-0.117 234.757,-0.117c18.907,1.777 28.826,13.425 30.475,33.745l0.106,90.95l103.309,0.117c9.034,2.806 15.337,8.779 18.758,18.094l0.027,94.298l-594.865,0.189Zm407.036,-201.732c-12.44,0.003 -22.537,10.784 -22.533,24.059c0.004,13.275 10.107,24.05 22.547,24.047c12.44,-0.003 22.536,-10.784 22.533,-24.059c-0.004,-13.275 -10.107,-24.05 -22.547,-24.047Z" style="fill:#b8470b;"/><path d="M139.804,1069.09c29.459,0.507 52.964,24.768 52.457,54.143c-0.508,29.376 -24.837,52.813 -54.296,52.306c-29.459,-0.508 -52.964,-24.769 -52.457,-54.144c0.508,-29.375 24.837,-52.813 54.296,-52.305Z" style="fill:#b8470b;"/><path d="M353.044,735.065c22.725,0.391 40.857,19.107 40.466,41.768c-0.392,22.661 -19.16,40.741 -41.886,40.35c-22.725,-0.392 -40.858,-19.107 -40.466,-41.768c0.392,-22.661 19.16,-40.741 41.886,-40.35Zm-0.316,18.248c-12.625,-0.217 -23.052,9.827 -23.269,22.417c-0.218,12.589 9.855,22.987 22.481,23.204c12.625,0.218 23.052,-9.827 23.269,-22.416c0.218,-12.59 -9.855,-22.987 -22.481,-23.205Z" style="fill:#b8470b;"/><path d="M537.027,847.61c-2.224,-3.436 -1.678,-12.888 -2.373,-15.106c-1.526,-4.878 4.084,-17.092 -1.66,-21.027c-5.427,-3.716 -10.067,-6.556 -16.167,-6.661c-3.05,-0.053 -2.997,-3.094 -2.997,-3.094c-0,-0 1.764,-4.657 3.155,-6.03c1.946,-1.922 12.382,-7.276 9.862,-18.551c-0.187,-0.838 14.801,3.764 14.801,3.764l15.198,3.304c-0,-0 21.816,9.114 24.295,6.503c4.412,-4.646 -2.577,-27.425 -2.577,-27.425l57.205,-39.363c0,-0 6.352,-3.414 15.666,-8.397c23.407,-12.521 65.517,-34.944 72.509,-37.964c-0,0 -4.468,15.819 0.702,20.109c9.83,8.156 12.071,22.029 0.667,25.828c-12.12,4.037 -3.708,20.557 -3.102,30.512c0.123,2.021 3.402,17.809 3.402,17.809l-43.533,42.532c1.281,5.136 20.915,73.082 21.739,75.932c-0.17,0.018 -0.17,0.051 0.027,0.093l-0.027,-0.093c1.823,-0.193 23.241,1.303 31.018,11.185c1.204,1.53 -4.37,11.217 -6.395,13.026c-4.884,4.363 -3.037,14.958 -6.327,21.133c-1.991,3.738 -18.451,2.746 -34.188,-4.579c-15.052,-7.007 -24.211,-13.764 -31.06,-19.2c-10.697,-8.491 -16.857,-25.794 -27.93,-33.82c-10.682,-7.742 -40.203,-34.572 -50.178,-37.982c-0.371,-0.127 -13.989,-0.188 -17.058,1.32" style="fill:#b8470b;fill-opacity:0.99;"/><path d="M532.318,848.838c-9.109,2.462 -55.279,9.418 -55.279,9.418c-0,0 -23.974,3.266 -30.074,3.161c-6.1,-0.105 -21.403,2.673 -33.656,5.505c-9.656,2.231 -47.631,-1.327 -60.675,17.842c-21.119,31.035 -35.927,133.72 -57.339,167.015c-7.014,10.907 -28.019,14.307 -28.808,13.406c-7.605,-8.672 -48.204,-44.82 -61.315,-50.933c-46.055,-21.475 -87.595,-19.803 -108.489,-9.794c-1.891,0.906 -5.987,-28.003 2.071,-33.713c29.877,-21.172 142.244,-112.033 166.075,-155.181c0.577,-1.046 -2.96,-20.979 -0.628,-22.195c-0.061,-1.228 -0.079,-2.453 -0.053,-3.672c1.115,-52.879 47.226,-94.86 102.906,-93.691c12.99,0.273 43.909,8.661 58.034,19.003c12.829,9.394 72.676,31.675 72.676,31.675c-0,-0 15.917,3.386 22.078,3.937c13.27,1.185 17.393,7.41 22.715,16.828c1.32,2.334 -1.886,6.006 -4.487,6.679c-3.132,0.81 -11.022,-3.815 -14.306,-1.816c-3.284,1.999 -2.558,10.548 -5.397,13.812c-2.84,3.264 -9.339,8.787 -11.641,5.771c-19.134,-25.069 -50.124,2.147 -55.712,11.788c-8.48,14.63 1.936,41.853 17.032,41.417c2.86,-0.083 5.192,0.338 6.84,1.545l4.078,-0.741c-0.044,-0.118 -0.082,-0.236 -0.113,-0.354c-0.61,-2.318 -1.778,-4.938 -0.312,-7.184c2.82,-4.32 12.01,-14.313 17.231,-18.736c3.302,-2.798 6.434,-10.243 10.338,-11.242c4.168,-1.068 8.236,0.057 10.807,-0.467c2.633,-0.536 7.36,3.281 7.36,3.281c-0,0 3.577,4.656 3.914,7.029c0.689,4.85 0.254,9.54 0.624,14.367c0.063,0.819 0.095,2.283 0.357,3.278c0.48,1.814 2.519,7.606 2.519,7.606c-0,0 2.368,4.885 0.629,5.356Zm-179.064,-125.939c-29.459,-0.507 -53.788,22.93 -54.296,52.306c-0.508,29.375 22.997,53.636 52.456,54.143c29.459,0.508 53.788,-22.93 54.296,-52.305c0.508,-29.375 -22.997,-53.636 -52.456,-54.144Z" style="fill:#b8470b;fill-opacity:0.99;"/></g></g><path d="M444.907,384.113c27.761,16.171 61.328,36.548 82.63,62.007l16.733,-66.386l10.541,61.59c16.239,-14.871 39.661,-27.545 65.013,-39.627l-61.549,61.173l-3.244,67.035c40.786,-31.02 85.701,-48.93 133.491,-57.71c-61.796,30.659 -111.758,62.477 -126.415,97.754l-5.97,30.254c-0,0 3.256,47.847 4.774,70.144c1.444,21.214 9.931,52.601 8.07,62.855c-0.782,4.307 -9.932,0.013 -17.206,-1.067c-1.369,-0.203 -7.184,0.515 -8.233,0.703c-12.327,2.209 -6.324,1.1 -18.463,1.47c-12.606,0.384 -30.49,4.327 -32.323,-3.793c-3.293,-14.582 -0.399,-80.946 -1.043,-102.872c-1.081,-36.799 -116.98,-75.987 -108.724,-81.588c31.761,4.357 70.391,19.926 114.99,45.24l1.621,-33.517c4.97,-24.304 -49.835,-62.911 -112.335,-100.087c37.293,8.566 73.412,25.049 123.097,63.955l2.802,-57.894l-68.257,-79.639Z" style="fill:#80a56b;"/><path d="M424.115,574.904l-79.324,-44.215l87.226,19.329c-42.139,-73.399 -112.594,-83.57 -187.119,-54.979c43.772,92.341 107.619,110.603 179.217,79.865Z" style="fill:url(#_Linear2);"/><path d="M554.461,321.671l-20.528,81.657c-51.246,-58.866 -41.046,-126.035 25.914,-192.969c60.672,71.738 54.147,139.548 -1.307,198.286l-4.079,-86.974Z" style="fill:url(#_Linear3);"/><path d="M652.715,376.076l-55.542,34.516c4.156,-70.081 50.707,-115.605 126.281,-126.153c-4.529,76.51 -38.784,125.305 -110.342,139.317l39.603,-47.68Z" style="fill:url(#_Linear4);"/><path d="M733.183,451.204l-79.95,25.077c20.718,-58.914 67.79,-95.273 161.895,-91.38c-22.09,104.315 -78.887,126.062 -150.489,112.591l68.544,-46.288Z" style="fill:url(#_Linear5);"/><path d="M358.511,436.263l59.822,48.335c-80.79,9.48 -132.374,-36.72 -138.92,-126.524c74.721,3.16 132.073,30.707 152.121,110.631l-73.023,-32.442Z" style="fill:url(#_Linear6);"/><path d="M459.703,413.08l-30.681,-51.064l52.151,35.569c-3.734,-78.146 -43.9,-126.329 -113.714,-133.575c1.477,89.204 38.52,130.396 92.244,149.07Z" style="fill:url(#_Linear7);"/></g></g><g id="Group---ICONS" serif:id="Group - ICONS"></g><defs><linearGradient id="_Linear1" x1="0" y1="0" x2="1" y2="0" gradientUnits="userSpaceOnUse" gradientTransform="matrix(5.05702,-362.209,362.209,5.05702,542.344,1109.01)"><stop offset="0" style="stop-color:#4e342e;stop-opacity:1"/><stop offset="0.33" style="stop-color:#5a3d37;stop-opacity:1"/><stop offset="0.42" style="stop-color:#7d554f;stop-opacity:1"/><stop offset="0.5" style="stop-color:#a9746e;stop-opacity:1"/><stop offset="1" style="stop-color:#7fff7d;stop-opacity:1"/></linearGradient><linearGradient id="_Linear2" x1="0" y1="0" x2="1" y2="0" gradientUnits="userSpaceOnUse" gradientTransform="matrix(87.7079,25.2852,-25.2852,87.7079,272.411,507.79)"><stop offset="0" style="stop-color:#418a4d;stop-opacity:1"/><stop offset="1" style="stop-color:#165a21;stop-opacity:1"/></linearGradient><linearGradient id="_Linear3" x1="0" y1="0" x2="1" y2="0" gradientUnits="userSpaceOnUse" gradientTransform="matrix(-8.69177,109.042,-109.042,-8.69177,557.659,224.122)"><stop offset="0" style="stop-color:#418a4d;stop-opacity:1"/><stop offset="1" style="stop-color:#165a21;stop-opacity:1"/></linearGradient><linearGradient id="_Linear4" x1="0" y1="0" x2="1" y2="0" gradientUnits="userSpaceOnUse" gradientTransform="matrix(-65.5834,81.3866,-81.3866,-65.5834,701.468,311.04)"><stop offset="0" style="stop-color:#418a4d;stop-opacity:1"/><stop offset="1" style="stop-color:#165a21;stop-opacity:1"/></linearGradient><linearGradient id="_Linear5" x1="0" y1="0" x2="1" y2="0" gradientUnits="userSpaceOnUse" gradientTransform="matrix(-71.1145,48.1998,-48.1998,-71.1145,790.757,398.747)"><stop offset="0" style="stop-color:#418a4d;stop-opacity:1"/><stop offset="1" style="stop-color:#165a21;stop-opacity:1"/></linearGradient><linearGradient id="_Linear6" x1="0" y1="0" x2="1" y2="0" gradientUnits="userSpaceOnUse" gradientTransform="matrix(67.9539,61.6326,-61.6326,67.9539,300.857,375.043)"><stop offset="0" style="stop-color:#418a4d;stop-opacity:1"/><stop offset="1" style="stop-color:#165a21;stop-opacity:1"/></linearGradient><linearGradient id="_Linear7" x1="0" y1="0" x2="1" y2="0" gradientUnits="userSpaceOnUse" gradientTransform="matrix(49.7801,74.2751,-74.2751,49.7801,386.984,289.705)"><stop offset="0" style="stop-color:#418a4d;stop-opacity:1"/><stop offset="1" style="stop-color:#165a21;stop-opacity:1"/></linearGradient></defs></svg>