<?xml version="1.0" encoding="UTF-8" standalone="no"?><!DOCTYPE svg PUBLIC "-//W3C//DTD SVG 1.1//EN" "http://www.w3.org/Graphics/SVG/1.1/DTD/svg11.dtd"><svg width="100%" height="100%" viewBox="0 0 4523 1637" version="1.1" xmlns="http://www.w3.org/2000/svg" xmlns:xlink="http://www.w3.org/1999/xlink" xml:space="preserve" xmlns:serif="http://www.serif.com/" style="fill-rule:evenodd;clip-rule:evenodd;stroke-linecap:round;stroke-linejoin:round;stroke-miterlimit:1.5;"><g id="Group---TEXT" serif:id="Group - TEXT"></g><g id="Group---TEXT---LOGO" serif:id="Group - TEXT &amp; LOGO"><rect id="Gabe-McWilliams---RIGHT---Watered---ESP32" serif:id="Gabe McWilliams - RIGHT - Watered - ESP32" x="0" y="0" width="4522.49" height="1636.85" style="fill:none;"/><g id="Gabe-McWilliams---RIGHT---Watered---ESP321" serif:id="Gabe McWilliams - RIGHT - Watered - ESP32"><g id="A" transform="matrix(1,0,0,0.793766,-5.68434e-14,181.555)"><g transform="matrix(231.619,0,0,231.619,996.884,1779.34)"><path d="M0.081,-0l-0,-0.728l0.164,0l0.158,0.418c0.005,0.012 0.01,0.028 0.016,0.047c0.005,0.019 0.011,0.039 0.017,0.062c0.007,0.022 0.013,0.043 0.018,0.065c0.006,0.021 0.011,0.041 0.015,0.058l-0.024,0c0.005,-0.016 0.01,-0.035 0.015,-0.056c0.006,-0.022 0.012,-0.043 0.018,-0.066c0.006,-0.022 0.012,-0.043 0.018,-0.062c0.005,-0.02 0.011,-0.036 0.015,-0.048l0.157,-0.418l0.164,0l0,0.728l-0.11,-0l-0,-0.391c-0,-0.016 -0,-0.034 -0,-0.054c0,-0.021 0.001,-0.043 0.001,-0.066c0.001,-0.024 0.001,-0.047 0.002,-0.071c0.001,-0.024 0.001,-0.047 0.001,-0.069l0.009,0c-0.007,0.024 -0.014,0.049 -0.022,0.074c-0.007,0.025 -0.015,0.049 -0.022,0.073c-0.008,0.023 -0.015,0.045 -0.021,0.064c-0.007,0.02 -0.013,0.036 -0.017,0.049l-0.149,0.391l-0.096,0l-0.15,-0.391c-0.005,-0.013 -0.011,-0.029 -0.017,-0.048c-0.006,-0.019 -0.013,-0.04 -0.021,-0.063c-0.007,-0.023 -0.015,-0.048 -0.023,-0.073c-0.007,-0.025 -0.015,-0.05 -0.023,-0.076l0.01,0c0,0.02 0.001,0.042 0.001,0.065c0.001,0.024 0.001,0.047 0.002,0.071c0,0.024 0.001,0.046 0.001,0.067c0.001,0.022 0.001,0.041 0.001,0.057l-0,0.391l-0.108,0Z" style="fill:#b8470b;fill-rule:nonzero;"/></g><g transform="matrix(231.619,0,0,231.619,1208.26,1779.34)"><path d="M0.025,-0l0.259,-0.728l0.137,0l0.263,0.728l-0.12,-0l-0.142,-0.405c-0.011,-0.033 -0.023,-0.071 -0.036,-0.116c-0.013,-0.045 -0.029,-0.098 -0.046,-0.16l0.023,-0c-0.017,0.063 -0.032,0.117 -0.045,0.162c-0.013,0.045 -0.025,0.083 -0.035,0.114l-0.138,0.405l-0.12,-0Zm0.14,-0.192l0,-0.093l0.379,0l-0,0.093l-0.379,0Z" style="fill:#b8470b;fill-rule:nonzero;"/></g><g transform="matrix(231.619,0,0,231.619,1363.99,1779.34)"><path d="M0.383,0.01c-0.063,-0 -0.119,-0.015 -0.169,-0.045c-0.049,-0.03 -0.088,-0.073 -0.116,-0.128c-0.029,-0.056 -0.043,-0.123 -0.043,-0.2c0,-0.078 0.014,-0.145 0.043,-0.201c0.028,-0.056 0.067,-0.098 0.117,-0.128c0.049,-0.03 0.105,-0.045 0.168,-0.045c0.038,-0 0.074,0.005 0.108,0.016c0.034,0.011 0.064,0.027 0.09,0.048c0.027,0.022 0.049,0.047 0.066,0.078c0.018,0.03 0.03,0.064 0.036,0.103l-0.112,0c-0.005,-0.023 -0.013,-0.044 -0.024,-0.062c-0.012,-0.017 -0.026,-0.032 -0.043,-0.045c-0.016,-0.012 -0.035,-0.021 -0.055,-0.028c-0.021,-0.006 -0.042,-0.009 -0.065,-0.009c-0.042,0 -0.079,0.011 -0.112,0.032c-0.033,0.021 -0.059,0.052 -0.078,0.092c-0.019,0.041 -0.028,0.09 -0.028,0.149c-0,0.058 0.009,0.108 0.028,0.148c0.019,0.041 0.045,0.072 0.078,0.092c0.033,0.021 0.07,0.031 0.112,0.031c0.022,0 0.044,-0.003 0.064,-0.009c0.021,-0.007 0.04,-0.016 0.056,-0.028c0.017,-0.012 0.031,-0.027 0.043,-0.045c0.011,-0.018 0.019,-0.038 0.024,-0.062l0.112,0c-0.005,0.036 -0.017,0.069 -0.034,0.099c-0.017,0.03 -0.038,0.056 -0.065,0.078c-0.026,0.022 -0.056,0.039 -0.09,0.051c-0.034,0.012 -0.071,0.018 -0.111,0.018Z" style="fill:#b8470b;fill-rule:nonzero;"/></g><g transform="matrix(231.619,0,0,231.619,1533.86,1779.34)"><path d="M0.081,-0l-0,-0.728l0.111,0l0,0.308l0.36,0l0,-0.308l0.112,0l-0,0.728l-0.112,-0l0,-0.324l-0.36,-0l0,0.324l-0.111,-0Z" style="fill:#b8470b;fill-rule:nonzero;"/></g><g transform="matrix(231.619,0,0,231.619,1706.33,1779.34)"><rect x="0.081" y="-0.728" width="0.112" height="0.728" style="fill:#b8470b;fill-rule:nonzero;"/></g><g transform="matrix(231.619,0,0,231.619,1769.44,1779.34)"><path d="M0.081,-0l-0,-0.728l0.128,0l0.274,0.433c0.009,0.015 0.019,0.032 0.03,0.052c0.012,0.02 0.024,0.042 0.037,0.067c0.012,0.025 0.025,0.052 0.037,0.081l-0.013,0c-0.003,-0.027 -0.005,-0.055 -0.007,-0.082c-0.001,-0.027 -0.002,-0.053 -0.003,-0.076c-0.001,-0.024 -0.001,-0.044 -0.001,-0.061l0,-0.414l0.113,0l-0,0.728l-0.129,-0l-0.246,-0.387c-0.013,-0.022 -0.026,-0.043 -0.038,-0.064c-0.013,-0.022 -0.026,-0.046 -0.042,-0.074c-0.015,-0.029 -0.033,-0.063 -0.055,-0.103l0.018,-0c0.001,0.035 0.003,0.069 0.004,0.1c0.002,0.031 0.003,0.059 0.004,0.083c0.001,0.024 0.002,0.043 0.002,0.057l-0,0.388l-0.113,-0Z" style="fill:#b8470b;fill-rule:nonzero;"/></g><g transform="matrix(231.619,0,0,231.619,1944.62,1779.34)"><path d="M0.081,-0l-0,-0.728l0.457,0l0,0.096l-0.346,0l0,0.217l0.322,0l-0,0.095l-0.322,0l0,0.224l0.35,0l-0,0.096l-0.461,0Z" style="fill:#b8470b;fill-rule:nonzero;"/></g><g transform="matrix(231.619,0,0,231.619,2084.29,1779.34)"></g><g transform="matrix(231.619,0,0,231.619,2146.04,1779.34)"><path d="M0.081,-0l-0,-0.728l0.111,0l0,0.632l0.329,0l0,0.096l-0.44,-0Z" style="fill:#b8470b;fill-rule:nonzero;"/></g><g transform="matrix(231.619,0,0,231.619,2277.01,1779.34)"><path d="M0.081,-0l-0,-0.728l0.457,0l0,0.096l-0.346,0l0,0.217l0.322,0l-0,0.095l-0.322,0l0,0.224l0.35,0l-0,0.096l-0.461,0Z" style="fill:#b8470b;fill-rule:nonzero;"/></g><g transform="matrix(231.619,0,0,231.619,2416.68,1779.34)"><path d="M0.025,-0l0.259,-0.728l0.137,0l0.263,0.728l-0.12,-0l-0.142,-0.405c-0.011,-0.033 -0.023,-0.071 -0.036,-0.116c-0.013,-0.045 -0.029,-0.098 -0.046,-0.16l0.023,-0c-0.017,0.063 -0.032,0.117 -0.045,0.162c-0.013,0.045 -0.025,0.083 -0.035,0.114l-0.138,0.405l-0.12,-0Zm0.14,-0.192l0,-0.093l0.379,0l-0,0.093l-0.379,0Z" style="fill:#b8470b;fill-rule:nonzero;"/></g><g transform="matrix(231.619,0,0,231.619,2580.89,1779.34)"><path d="M0.081,-0l-0,-0.728l0.26,0c0.056,0 0.103,0.01 0.14,0.03c0.038,0.019 0.066,0.046 0.084,0.08c0.019,0.035 0.028,0.074 0.028,0.119c0,0.045 -0.009,0.084 -0.028,0.118c-0.019,0.034 -0.047,0.06 -0.084,0.078c-0.037,0.019 -0.084,0.028 -0.141,0.028l-0.196,0l0,-0.095l0.185,0c0.036,0 0.065,-0.005 0.087,-0.015c0.022,-0.011 0.038,-0.025 0.049,-0.045c0.01,-0.019 0.015,-0.042 0.015,-0.069c0,-0.027 -0.005,-0.051 -0.015,-0.071c-0.011,-0.02 -0.027,-0.035 -0.049,-0.046c-0.022,-0.011 -0.051,-0.016 -0.087,-0.016l-0.137,-0l0,0.632l-0.111,0Zm0.413,0l-0.176,-0.329l0.123,0l0.18,0.329l-0.127,0Z" style="fill:#b8470b;fill-rule:nonzero;"/></g><g transform="matrix(231.619,0,0,231.619,2730.97,1779.34)"><path d="M0.081,-0l-0,-0.728l0.128,0l0.274,0.433c0.009,0.015 0.019,0.032 0.03,0.052c0.012,0.02 0.024,0.042 0.037,0.067c0.012,0.025 0.025,0.052 0.037,0.081l-0.013,0c-0.003,-0.027 -0.005,-0.055 -0.007,-0.082c-0.001,-0.027 -0.002,-0.053 -0.003,-0.076c-0.001,-0.024 -0.001,-0.044 -0.001,-0.061l0,-0.414l0.113,0l-0,0.728l-0.129,-0l-0.246,-0.387c-0.013,-0.022 -0.026,-0.043 -0.038,-0.064c-0.013,-0.022 -0.026,-0.046 -0.042,-0.074c-0.015,-0.029 -0.033,-0.063 -0.055,-0.103l0.018,-0c0.001,0.035 0.003,0.069 0.004,0.1c0.002,0.031 0.003,0.059 0.004,0.083c0.001,0.024 0.002,0.043 0.002,0.057l-0,0.388l-0.113,-0Z" style="fill:#b8470b;fill-rule:nonzero;"/></g><g transform="matrix(231.619,0,0,231.619,2906.16,1779.34)"><rect x="0.081" y="-0.728" width="0.112" height="0.728" style="fill:#b8470b;fill-rule:nonzero;"/></g><g transform="matrix(231.619,0,0,231.619,2969.26,1779.34)"><path d="M0.081,-0l-0,-0.728l0.128,0l0.274,0.433c0.009,0.015 0.019,0.032 0.03,0.052c0.012,0.02 0.024,0.042 0.037,0.067c0.012,0.025 0.025,0.052 0.037,0.081l-0.013,0c-0.003,-0.027 -0.005,-0.055 -0.007,-0.082c-0.001,-0.027 -0.002,-0.053 -0.003,-0.076c-0.001,-0.024 -0.001,-0.044 -0.001,-0.061l0,-0.414l0.113,0l-0,0.728l-0.129,-0l-0.246,-0.387c-0.013,-0.022 -0.026,-0.043 -0.038,-0.064c-0.013,-0.022 -0.026,-0.046 -0.042,-0.074c-0.015,-0.029 -0.033,-0.063 -0.055,-0.103l0.018,-0c0.001,0.035 0.003,0.069 0.004,0.1c0.002,0.031 0.003,0.059 0.004,0.083c0.001,0.024 0.002,0.043 0.002,0.057l-0,0.388l-0.113,-0Z" style="fill:#b8470b;fill-rule:nonzero;"/></g><g transform="matrix(231.619,0,0,231.619,3144.45,1779.34)"><path d="M0.386,0.01c-0.066,-0 -0.123,-0.015 -0.173,-0.046c-0.05,-0.03 -0.088,-0.073 -0.116,-0.129c-0.028,-0.055 -0.042,-0.122 -0.042,-0.198c0,-0.078 0.014,-0.145 0.042,-0.2c0.028,-0.056 0.067,-0.099 0.116,-0.129c0.05,-0.03 0.105,-0.045 0.168,-0.045c0.039,-0 0.076,0.005 0.11,0.017c0.034,0.012 0.065,0.028 0.091,0.049c0.027,0.022 0.049,0.047 0.067,0.077c0.017,0.029 0.029,0.061 0.035,0.097l-0.115,-0c-0.006,-0.022 -0.015,-0.041 -0.027,-0.058c-0.011,-0.017 -0.025,-0.031 -0.04,-0.044c-0.016,-0.012 -0.034,-0.021 -0.054,-0.027c-0.02,-0.007 -0.042,-0.01 -0.066,-0.01c-0.041,0 -0.077,0.011 -0.11,0.031c-0.033,0.021 -0.059,0.052 -0.078,0.092c-0.019,0.041 -0.028,0.091 -0.028,0.149c-0,0.059 0.009,0.108 0.028,0.149c0.019,0.04 0.045,0.071 0.079,0.092c0.033,0.021 0.071,0.031 0.114,0.031c0.039,0 0.073,-0.008 0.102,-0.023c0.029,-0.016 0.052,-0.039 0.068,-0.068c0.016,-0.029 0.024,-0.064 0.024,-0.103l0.029,0.005l-0.207,-0l-0,-0.092l0.287,-0l-0,0.083c-0,0.062 -0.013,0.115 -0.039,0.16c-0.027,0.044 -0.062,0.079 -0.108,0.103c-0.046,0.025 -0.098,0.037 -0.157,0.037Z" style="fill:#b8470b;fill-rule:nonzero;"/></g><g transform="matrix(231.619,0,0,231.619,3317.6,1779.34)"></g><g transform="matrix(231.619,0,0,231.619,3379.35,1779.34)"><path d="M0.283,0.01c-0.049,0 -0.091,-0.009 -0.126,-0.027c-0.035,-0.018 -0.062,-0.042 -0.081,-0.072c-0.019,-0.03 -0.029,-0.064 -0.029,-0.102c0,-0.031 0.006,-0.058 0.019,-0.08c0.012,-0.023 0.03,-0.044 0.052,-0.064c0.022,-0.019 0.047,-0.039 0.076,-0.06l0.118,-0.083c0.009,-0.007 0.019,-0.015 0.028,-0.023c0.01,-0.009 0.018,-0.019 0.024,-0.031c0.007,-0.012 0.01,-0.025 0.01,-0.04c0,-0.021 -0.007,-0.039 -0.021,-0.052c-0.014,-0.014 -0.034,-0.021 -0.059,-0.021c-0.017,-0 -0.032,0.003 -0.045,0.01c-0.013,0.007 -0.023,0.016 -0.03,0.029c-0.007,0.012 -0.01,0.026 -0.01,0.042c-0,0.018 0.004,0.035 0.012,0.051c0.008,0.016 0.019,0.033 0.034,0.051c0.014,0.018 0.03,0.037 0.048,0.059l0.339,0.403l-0.123,-0l-0.279,-0.328c-0.024,-0.028 -0.046,-0.055 -0.066,-0.079c-0.02,-0.025 -0.036,-0.05 -0.048,-0.075c-0.012,-0.025 -0.018,-0.052 -0.018,-0.082c-0,-0.033 0.007,-0.062 0.022,-0.088c0.016,-0.026 0.037,-0.046 0.065,-0.061c0.028,-0.015 0.06,-0.022 0.097,-0.022c0.037,-0 0.069,0.007 0.096,0.022c0.027,0.014 0.048,0.034 0.063,0.058c0.014,0.025 0.022,0.052 0.022,0.082c-0,0.022 -0.004,0.043 -0.013,0.062c-0.008,0.019 -0.019,0.037 -0.034,0.053c-0.014,0.016 -0.031,0.032 -0.05,0.046l-0.146,0.107c-0.027,0.02 -0.046,0.039 -0.058,0.056c-0.011,0.018 -0.017,0.037 -0.017,0.058c-0,0.022 0.005,0.042 0.016,0.058c0.01,0.017 0.025,0.03 0.044,0.039c0.019,0.009 0.041,0.014 0.065,0.014c0.028,-0 0.056,-0.006 0.082,-0.018c0.026,-0.012 0.05,-0.029 0.071,-0.051c0.021,-0.022 0.037,-0.048 0.05,-0.079c0.012,-0.031 0.018,-0.065 0.018,-0.104l0.097,0c0,0.047 -0.005,0.087 -0.016,0.12c-0.01,0.032 -0.023,0.058 -0.038,0.079c-0.015,0.02 -0.03,0.036 -0.043,0.048l-0.024,0.023c-0.025,0.024 -0.055,0.042 -0.09,0.054c-0.035,0.012 -0.07,0.018 -0.104,0.018Z" style="fill:#b8470b;fill-rule:nonzero;"/></g><g transform="matrix(231.619,0,0,231.619,3530.67,1779.34)"></g><g transform="matrix(231.619,0,0,231.619,3592.42,1779.34)"><path d="M0.081,-0l-0,-0.728l0.457,0l0,0.096l-0.346,0l0,0.217l0.322,0l-0,0.095l-0.322,0l0,0.224l0.35,0l-0,0.096l-0.461,0Z" style="fill:#b8470b;fill-rule:nonzero;"/></g><g transform="matrix(231.619,0,0,231.619,3732.09,1779.34)"><path d="M0.317,-0l-0.18,-0l0,-0.097l0.174,-0c0.055,-0 0.101,-0.011 0.137,-0.031c0.037,-0.021 0.064,-0.051 0.082,-0.091c0.018,-0.04 0.028,-0.088 0.028,-0.146c-0,-0.057 -0.01,-0.105 -0.028,-0.144c-0.018,-0.04 -0.045,-0.07 -0.08,-0.09c-0.036,-0.021 -0.08,-0.031 -0.133,-0.031l-0.184,-0l0,-0.098l0.191,0c0.072,0 0.133,0.015 0.184,0.044c0.051,0.029 0.09,0.071 0.118,0.125c0.027,0.054 0.041,0.119 0.041,0.194c-0,0.076 -0.014,0.141 -0.041,0.196c-0.028,0.054 -0.068,0.096 -0.12,0.125c-0.052,0.029 -0.115,0.044 -0.189,0.044Zm-0.125,-0.728l0,0.728l-0.111,-0l-0,-0.728l0.111,0Z" style="fill:#b8470b;fill-rule:nonzero;"/></g><g transform="matrix(231.619,0,0,231.619,3899.24,1779.34)"><path d="M0.386,0.01c-0.066,-0 -0.123,-0.015 -0.173,-0.046c-0.05,-0.03 -0.088,-0.073 -0.116,-0.129c-0.028,-0.055 -0.042,-0.122 -0.042,-0.198c0,-0.078 0.014,-0.145 0.042,-0.2c0.028,-0.056 0.067,-0.099 0.116,-0.129c0.05,-0.03 0.105,-0.045 0.168,-0.045c0.039,-0 0.076,0.005 0.11,0.017c0.034,0.012 0.065,0.028 0.091,0.049c0.027,0.022 0.049,0.047 0.067,0.077c0.017,0.029 0.029,0.061 0.035,0.097l-0.115,-0c-0.006,-0.022 -0.015,-0.041 -0.027,-0.058c-0.011,-0.017 -0.025,-0.031 -0.04,-0.044c-0.016,-0.012 -0.034,-0.021 -0.054,-0.027c-0.02,-0.007 -0.042,-0.01 -0.066,-0.01c-0.041,0 -0.077,0.011 -0.11,0.031c-0.033,0.021 -0.059,0.052 -0.078,0.092c-0.019,0.041 -0.028,0.091 -0.028,0.149c-0,0.059 0.009,0.108 0.028,0.149c0.019,0.04 0.045,0.071 0.079,0.092c0.033,0.021 0.071,0.031 0.114,0.031c0.039,0 0.073,-0.008 0.102,-0.023c0.029,-0.016 0.052,-0.039 0.068,-0.068c0.016,-0.029 0.024,-0.064 0.024,-0.103l0.029,0.005l-0.207,-0l-0,-0.092l0.287,-0l-0,0.083c-0,0.062 -0.013,0.115 -0.039,0.16c-0.027,0.044 -0.062,0.079 -0.108,0.103c-0.046,0.025 -0.098,0.037 -0.157,0.037Z" style="fill:#b8470b;fill-rule:nonzero;"/></g><g transform="matrix(231.619,0,0,231.619,4072.39,1779.34)"><path d="M0.081,-0l-0,-0.728l0.457,0l0,0.096l-0.346,0l0,0.217l0.322,0l-0,0.095l-0.322,0l0,0.224l0.35,0l-0,0.096l-0.461,0Z" style="fill:#b8470b;fill-rule:nonzero;"/></g><g transform="matrix(231.619,0,0,231.619,4212.06,1779.34)"></g><g transform="matrix(231.619,0,0,231.619,4273.81,1779.34)"><path d="M0.025,-0l0.259,-0.728l0.137,0l0.263,0.728l-0.12,-0l-0.142,-0.405c-0.011,-0.033 -0.023,-0.071 -0.036,-0.116c-0.013,-0.045 -0.029,-0.098 -0.046,-0.16l0.023,-0c-0.017,0.063 -0.032,0.117 -0.045,0.162c-0.013,0.045 -0.025,0.083 -0.035,0.114l-0.138,0.405l-0.12,-0Zm0.14,-0.192l0,-0.093l0.379,0l-0,0.093l-0.379,0Z" style="fill:#b8470b;fill-rule:nonzero;"/></g><g transform="matrix(231.619,0,0,231.619,4438.03,1779.34)"><rect x="0.081" y="-0.728" width="0.112" height="0.728" style="fill:#b8470b;fill-rule:nonzero;"/></g><g transform="matrix(231.619,0,0,231.619,4501.14,1779.34)"></g><g transform="matrix(231.619,0,0,231.619,4562.89,1779.34)"></g></g><g><g id="A1" serif:id="A" transform="matrix(1,0,0,0.894444,4.54747e-13,-135.696)"><g transform="matrix(632.722,0,0,632.722,986.488,1170.3)"><path d="M0.388,0.01c-0.068,-0 -0.127,-0.015 -0.179,-0.046c-0.051,-0.03 -0.091,-0.073 -0.12,-0.128c-0.029,-0.056 -0.043,-0.122 -0.043,-0.199c-0,-0.078 0.015,-0.146 0.045,-0.202c0.03,-0.055 0.07,-0.098 0.121,-0.128c0.051,-0.029 0.109,-0.044 0.173,-0.044c0.041,-0 0.079,0.006 0.114,0.017c0.035,0.012 0.067,0.029 0.095,0.051c0.027,0.022 0.05,0.048 0.067,0.078c0.017,0.029 0.029,0.062 0.034,0.098l-0.152,0c-0.005,-0.017 -0.012,-0.033 -0.021,-0.047c-0.01,-0.014 -0.021,-0.025 -0.034,-0.035c-0.013,-0.01 -0.028,-0.017 -0.045,-0.022c-0.017,-0.005 -0.035,-0.008 -0.056,-0.008c-0.037,0 -0.07,0.009 -0.099,0.028c-0.028,0.019 -0.051,0.046 -0.067,0.082c-0.016,0.036 -0.024,0.079 -0.024,0.131c0,0.051 0.008,0.095 0.024,0.131c0.016,0.036 0.038,0.063 0.067,0.082c0.028,0.019 0.062,0.028 0.101,0.028c0.035,0 0.065,-0.006 0.091,-0.019c0.025,-0.012 0.044,-0.031 0.057,-0.054c0.014,-0.023 0.02,-0.051 0.02,-0.083l0.032,0.005l-0.189,-0l-0,-0.114l0.302,0l0,0.091c0,0.064 -0.013,0.119 -0.04,0.164c-0.027,0.046 -0.064,0.081 -0.112,0.106c-0.047,0.024 -0.101,0.037 -0.162,0.037Z" style="fill:#efc893;fill-rule:nonzero;"/></g><g transform="matrix(632.722,0,0,632.722,1461.34,1170.3)"><path d="M0.215,0.011c-0.035,-0 -0.066,-0.007 -0.093,-0.019c-0.028,-0.012 -0.049,-0.03 -0.065,-0.054c-0.016,-0.025 -0.024,-0.055 -0.024,-0.091c0,-0.03 0.006,-0.056 0.017,-0.076c0.011,-0.02 0.026,-0.037 0.046,-0.049c0.019,-0.013 0.041,-0.022 0.066,-0.029c0.024,-0.006 0.05,-0.011 0.077,-0.013c0.032,-0.004 0.057,-0.007 0.076,-0.009c0.02,-0.003 0.034,-0.008 0.043,-0.014c0.009,-0.006 0.014,-0.014 0.014,-0.026l-0,-0.003c-0,-0.015 -0.004,-0.028 -0.01,-0.039c-0.007,-0.011 -0.017,-0.019 -0.029,-0.025c-0.013,-0.006 -0.029,-0.008 -0.047,-0.008c-0.019,-0 -0.035,0.002 -0.049,0.008c-0.014,0.006 -0.025,0.013 -0.034,0.023c-0.009,0.009 -0.016,0.02 -0.02,0.032l-0.134,-0.023c0.009,-0.031 0.025,-0.058 0.047,-0.08c0.021,-0.023 0.049,-0.04 0.081,-0.051c0.032,-0.012 0.069,-0.018 0.109,-0.018c0.03,0 0.058,0.004 0.086,0.011c0.028,0.007 0.052,0.017 0.074,0.032c0.022,0.015 0.04,0.034 0.053,0.058c0.013,0.023 0.019,0.051 0.019,0.084l0,0.368l-0.139,-0l0,-0.076l-0.005,0c-0.008,0.017 -0.02,0.032 -0.035,0.045c-0.014,0.013 -0.032,0.023 -0.053,0.031c-0.02,0.007 -0.044,0.011 -0.071,0.011Zm0.041,-0.103c0.023,-0 0.044,-0.005 0.061,-0.014c0.017,-0.009 0.031,-0.021 0.041,-0.037c0.01,-0.016 0.015,-0.033 0.015,-0.052l-0,-0.059c-0.005,0.003 -0.011,0.006 -0.02,0.008c-0.009,0.003 -0.018,0.005 -0.029,0.007c-0.011,0.002 -0.021,0.004 -0.032,0.006c-0.01,0.001 -0.02,0.003 -0.028,0.004c-0.018,0.002 -0.034,0.006 -0.047,0.012c-0.014,0.006 -0.024,0.014 -0.032,0.023c-0.008,0.01 -0.011,0.022 -0.011,0.037c-0,0.014 0.003,0.026 0.01,0.036c0.008,0.009 0.017,0.017 0.03,0.022c0.012,0.004 0.026,0.007 0.042,0.007Z" style="fill:#efc893;fill-rule:nonzero;"/></g><g transform="matrix(632.722,0,0,632.722,1828.67,1170.3)"><path d="M0.368,0.009c-0.029,0 -0.054,-0.005 -0.075,-0.015c-0.02,-0.01 -0.037,-0.022 -0.05,-0.037c-0.013,-0.015 -0.023,-0.03 -0.029,-0.044l-0.008,-0l0,0.087l-0.144,-0l0,-0.728l0.147,0l-0,0.274l0.005,-0c0.006,-0.015 0.016,-0.029 0.028,-0.045c0.013,-0.015 0.029,-0.028 0.05,-0.038c0.02,-0.011 0.046,-0.016 0.077,-0.016c0.041,0 0.078,0.011 0.111,0.032c0.033,0.02 0.06,0.052 0.08,0.093c0.02,0.042 0.031,0.094 0.031,0.156c-0,0.061 -0.01,0.112 -0.03,0.154c-0.019,0.041 -0.046,0.073 -0.079,0.095c-0.034,0.021 -0.072,0.032 -0.114,0.032Zm-0.045,-0.117c0.026,-0 0.047,-0.007 0.065,-0.021c0.017,-0.014 0.03,-0.034 0.039,-0.058c0.009,-0.025 0.013,-0.054 0.013,-0.085c0,-0.032 -0.004,-0.061 -0.013,-0.085c-0.009,-0.025 -0.022,-0.044 -0.039,-0.058c-0.018,-0.013 -0.039,-0.02 -0.065,-0.02c-0.025,-0 -0.046,0.006 -0.064,0.02c-0.017,0.013 -0.031,0.032 -0.04,0.056c-0.009,0.025 -0.013,0.053 -0.013,0.087c-0,0.032 0.004,0.061 0.013,0.086c0.01,0.024 0.023,0.043 0.041,0.057c0.017,0.014 0.038,0.021 0.063,0.021Z" style="fill:#efc893;fill-rule:nonzero;"/></g><g transform="matrix(632.722,0,0,632.722,2227.52,1170.3)"><path d="M0.062,-0l0,-0.546l0.142,0l0,0.095l0.006,0c0.01,-0.033 0.027,-0.059 0.05,-0.076c0.024,-0.018 0.051,-0.026 0.082,-0.026c0.007,-0 0.015,0 0.024,0.001c0.009,0.001 0.016,0.002 0.023,0.004l0,0.131c-0.006,-0.003 -0.016,-0.005 -0.028,-0.006c-0.013,-0.001 -0.024,-0.002 -0.035,-0.002c-0.023,0 -0.043,0.005 -0.06,0.015c-0.018,0.009 -0.032,0.023 -0.042,0.04c-0.01,0.017 -0.015,0.037 -0.015,0.059l-0,0.311l-0.147,0Z" style="fill:#efc893;fill-rule:nonzero;"/></g><g transform="matrix(632.722,0,0,632.722,2487.97,1170.3)"><path d="M0.062,-0l0,-0.546l0.147,0l-0,0.546l-0.147,-0Zm0.074,-0.617c-0.022,-0 -0.041,-0.007 -0.057,-0.022c-0.016,-0.015 -0.024,-0.033 -0.024,-0.053c0,-0.021 0.008,-0.039 0.024,-0.054c0.016,-0.014 0.035,-0.022 0.057,-0.022c0.022,0 0.041,0.008 0.057,0.022c0.015,0.015 0.023,0.033 0.023,0.054c0,0.02 -0.008,0.038 -0.023,0.053c-0.016,0.015 -0.035,0.022 -0.057,0.022Z" style="fill:#efc893;fill-rule:nonzero;"/></g><g transform="matrix(632.722,0,0,632.722,2659.43,1170.3)"><path d="M0.309,0.011c-0.055,-0 -0.103,-0.012 -0.144,-0.035c-0.04,-0.022 -0.071,-0.055 -0.093,-0.097c-0.021,-0.042 -0.032,-0.092 -0.032,-0.149c-0,-0.056 0.01,-0.106 0.032,-0.148c0.021,-0.042 0.052,-0.075 0.091,-0.099c0.04,-0.024 0.086,-0.036 0.139,-0.036c0.036,0 0.069,0.006 0.1,0.017c0.031,0.012 0.058,0.029 0.081,0.052c0.024,0.023 0.042,0.051 0.055,0.086c0.013,0.035 0.02,0.075 0.02,0.122l-0,0.041l-0.458,0l-0,-0.092l0.387,0l-0.069,0.025c0,-0.029 -0.004,-0.053 -0.013,-0.074c-0.009,-0.021 -0.021,-0.038 -0.038,-0.049c-0.018,-0.012 -0.039,-0.017 -0.064,-0.017c-0.025,-0 -0.047,0.005 -0.064,0.017c-0.018,0.012 -0.032,0.028 -0.041,0.048c-0.009,0.02 -0.014,0.043 -0.014,0.068l0,0.065c0,0.032 0.006,0.058 0.016,0.08c0.011,0.021 0.026,0.037 0.045,0.048c0.019,0.011 0.041,0.016 0.067,0.016c0.017,0 0.032,-0.002 0.046,-0.007c0.014,-0.005 0.026,-0.012 0.036,-0.022c0.01,-0.009 0.018,-0.021 0.023,-0.035l0.133,0.025c-0.009,0.03 -0.024,0.056 -0.046,0.079c-0.022,0.022 -0.049,0.04 -0.082,0.052c-0.033,0.012 -0.07,0.019 -0.113,0.019Z" style="fill:#efc893;fill-rule:nonzero;"/></g><g transform="matrix(632.722,0,0,632.722,3036.34,1170.3)"><rect x="0.062" y="-0.728" width="0.146" height="0.728" style="fill:#efc893;fill-rule:nonzero;"/></g><g transform="matrix(632.722,0,0,632.722,3207.81,1170.3)"></g><g transform="matrix(632.722,0,0,632.722,3357.65,1170.3)"></g></g><g id="A2" serif:id="A" transform="matrix(1,0,0,0.867895,-4.54747e-13,-95.4166)"><g transform="matrix(622.698,0,0,622.698,974.277,1694.65)"><path d="M0.066,-0l-0,-0.728l0.229,0l0.117,0.334c0.005,0.016 0.011,0.036 0.017,0.061c0.007,0.025 0.013,0.051 0.02,0.08c0.006,0.029 0.012,0.057 0.018,0.084c0.006,0.026 0.01,0.05 0.014,0.07l-0.029,-0c0.004,-0.02 0.009,-0.043 0.014,-0.07c0.006,-0.026 0.012,-0.054 0.018,-0.083c0.007,-0.029 0.013,-0.055 0.02,-0.081c0.006,-0.025 0.012,-0.045 0.017,-0.061l0.116,-0.334l0.229,0l0,0.728l-0.15,-0l0,-0.343c0,-0.016 0.001,-0.036 0.001,-0.059c0.001,-0.024 0.001,-0.05 0.002,-0.077c0.001,-0.028 0.002,-0.055 0.002,-0.083c0.001,-0.028 0.001,-0.054 0.001,-0.079l0.01,-0c-0.006,0.027 -0.013,0.055 -0.021,0.084c-0.007,0.028 -0.015,0.056 -0.022,0.083c-0.008,0.027 -0.015,0.052 -0.022,0.075c-0.007,0.022 -0.013,0.041 -0.018,0.056l-0.12,0.343l-0.126,-0l-0.122,-0.343c-0.005,-0.015 -0.011,-0.033 -0.018,-0.056c-0.006,-0.022 -0.014,-0.047 -0.022,-0.074c-0.007,-0.026 -0.015,-0.054 -0.023,-0.083c-0.007,-0.029 -0.015,-0.057 -0.022,-0.085l0.012,-0c0,0.023 0.001,0.049 0.001,0.077c0.001,0.027 0.003,0.136 0.004,0.16c0.001,0.024 0.001,0.045 0.001,0.061l-0,0.343l-0.148,-0Z" style="fill:#efc893;fill-rule:nonzero;"/></g><g transform="matrix(622.698,0,0,622.698,1554.41,1694.65)"><path d="M0.306,0.011c-0.054,-0 -0.102,-0.012 -0.142,-0.036c-0.039,-0.023 -0.07,-0.056 -0.092,-0.098c-0.021,-0.042 -0.032,-0.092 -0.032,-0.148c-0,-0.056 0.011,-0.105 0.032,-0.148c0.022,-0.042 0.053,-0.075 0.092,-0.098c0.04,-0.024 0.088,-0.036 0.142,-0.036c0.033,0 0.063,0.004 0.09,0.013c0.027,0.008 0.052,0.02 0.073,0.036c0.021,0.016 0.038,0.035 0.052,0.057c0.014,0.023 0.023,0.048 0.028,0.076l-0.136,0.025c-0.003,-0.014 -0.008,-0.027 -0.014,-0.038c-0.006,-0.011 -0.013,-0.021 -0.022,-0.029c-0.009,-0.008 -0.019,-0.014 -0.031,-0.018c-0.011,-0.004 -0.024,-0.006 -0.038,-0.006c-0.026,-0 -0.048,0.007 -0.066,0.021c-0.017,0.014 -0.031,0.033 -0.04,0.058c-0.009,0.025 -0.013,0.054 -0.013,0.087c-0,0.032 0.004,0.061 0.013,0.086c0.009,0.025 0.023,0.045 0.04,0.059c0.018,0.014 0.04,0.021 0.066,0.021c0.014,0 0.027,-0.002 0.039,-0.006c0.012,-0.004 0.022,-0.011 0.031,-0.019c0.009,-0.008 0.017,-0.018 0.023,-0.03c0.006,-0.012 0.01,-0.025 0.013,-0.04l0.136,0.025c-0.005,0.029 -0.014,0.055 -0.028,0.078c-0.014,0.022 -0.031,0.042 -0.052,0.058c-0.021,0.016 -0.046,0.028 -0.073,0.037c-0.028,0.008 -0.058,0.013 -0.091,0.013Z" style="fill:#efc893;fill-rule:nonzero;"/></g><g transform="matrix(622.698,0,0,622.698,1889.78,1694.65)"><path d="M0.219,-0l-0.195,-0.728l0.163,0l0.084,0.358c0.007,0.03 0.013,0.062 0.019,0.096c0.006,0.034 0.011,0.069 0.017,0.103c0.005,0.034 0.01,0.067 0.016,0.099l-0.027,-0c0.006,-0.032 0.012,-0.065 0.018,-0.099c0.006,-0.034 0.012,-0.069 0.018,-0.103c0.006,-0.034 0.013,-0.066 0.02,-0.096l0.089,-0.358l0.155,0l0.089,0.358c0.007,0.03 0.014,0.062 0.02,0.096c0.006,0.034 0.012,0.069 0.018,0.103c0.006,0.034 0.012,0.067 0.018,0.099l-0.027,-0c0.005,-0.032 0.011,-0.065 0.016,-0.099c0.006,-0.034 0.011,-0.069 0.017,-0.103c0.006,-0.034 0.013,-0.066 0.019,-0.096l0.085,-0.358l0.163,0l-0.196,0.728l-0.17,-0l-0.097,-0.372c-0.01,-0.041 -0.019,-0.086 -0.026,-0.135c-0.008,-0.048 -0.016,-0.097 -0.025,-0.148l0.037,-0c-0.01,0.05 -0.018,0.098 -0.025,0.146c-0.006,0.047 -0.015,0.093 -0.026,0.137l-0.096,0.372l-0.171,-0Z" style="fill:#efc893;fill-rule:nonzero;"/></g><g transform="matrix(622.698,0,0,622.698,2535.89,1694.65)"><path d="M0.062,-0l0,-0.546l0.147,0l-0,0.546l-0.147,-0Zm0.074,-0.617c-0.022,-0 -0.041,-0.007 -0.057,-0.022c-0.016,-0.015 -0.024,-0.033 -0.024,-0.053c0,-0.021 0.008,-0.039 0.024,-0.054c0.016,-0.014 0.035,-0.022 0.057,-0.022c0.022,0 0.041,0.008 0.057,0.022c0.015,0.015 0.023,0.033 0.023,0.054c0,0.02 -0.008,0.038 -0.023,0.053c-0.016,0.015 -0.035,0.022 -0.057,0.022Z" style="fill:#efc893;fill-rule:nonzero;"/></g><g transform="matrix(622.698,0,0,622.698,2704.64,1694.65)"><rect x="0.062" y="-0.728" width="0.146" height="0.728" style="fill:#efc893;fill-rule:nonzero;"/></g><g transform="matrix(622.698,0,0,622.698,2873.38,1694.65)"><rect x="0.062" y="-0.728" width="0.146" height="0.728" style="fill:#efc893;fill-rule:nonzero;"/></g><g transform="matrix(622.698,0,0,622.698,3042.13,1694.65)"><path d="M0.062,-0l0,-0.546l0.147,0l-0,0.546l-0.147,-0Zm0.074,-0.617c-0.022,-0 -0.041,-0.007 -0.057,-0.022c-0.016,-0.015 -0.024,-0.033 -0.024,-0.053c0,-0.021 0.008,-0.039 0.024,-0.054c0.016,-0.014 0.035,-0.022 0.057,-0.022c0.022,0 0.041,0.008 0.057,0.022c0.015,0.015 0.023,0.033 0.023,0.054c0,0.02 -0.008,0.038 -0.023,0.053c-0.016,0.015 -0.035,0.022 -0.057,0.022Z" style="fill:#efc893;fill-rule:nonzero;"/></g><g transform="matrix(622.698,0,0,622.698,3210.88,1694.65)"><path d="M0.215,0.011c-0.035,-0 -0.066,-0.007 -0.093,-0.019c-0.028,-0.012 -0.049,-0.03 -0.065,-0.054c-0.016,-0.025 -0.024,-0.055 -0.024,-0.091c0,-0.03 0.006,-0.056 0.017,-0.076c0.011,-0.02 0.026,-0.037 0.046,-0.049c0.019,-0.013 0.041,-0.022 0.066,-0.029c0.024,-0.006 0.05,-0.011 0.077,-0.013c0.032,-0.004 0.057,-0.007 0.076,-0.009c0.02,-0.003 0.034,-0.008 0.043,-0.014c0.009,-0.006 0.014,-0.014 0.014,-0.026l-0,-0.003c-0,-0.015 -0.004,-0.028 -0.01,-0.039c-0.007,-0.011 -0.017,-0.019 -0.029,-0.025c-0.013,-0.006 -0.029,-0.008 -0.047,-0.008c-0.019,-0 -0.035,0.002 -0.049,0.008c-0.014,0.006 -0.025,0.013 -0.034,0.023c-0.009,0.009 -0.016,0.02 -0.02,0.032l-0.134,-0.023c0.009,-0.031 0.025,-0.058 0.047,-0.08c0.021,-0.023 0.049,-0.04 0.081,-0.051c0.032,-0.012 0.069,-0.018 0.109,-0.018c0.03,0 0.058,0.004 0.086,0.011c0.028,0.007 0.052,0.017 0.074,0.032c0.022,0.015 0.04,0.034 0.053,0.058c0.013,0.023 0.019,0.051 0.019,0.084l0,0.368l-0.139,-0l0,-0.076l-0.005,0c-0.008,0.017 -0.02,0.032 -0.035,0.045c-0.014,0.013 -0.032,0.023 -0.053,0.031c-0.02,0.007 -0.044,0.011 -0.071,0.011Zm0.041,-0.103c0.023,-0 0.044,-0.005 0.061,-0.014c0.017,-0.009 0.031,-0.021 0.041,-0.037c0.01,-0.016 0.015,-0.033 0.015,-0.052l-0,-0.059c-0.005,0.003 -0.011,0.006 -0.02,0.008c-0.009,0.003 -0.018,0.005 -0.029,0.007c-0.011,0.002 -0.021,0.004 -0.032,0.006c-0.01,0.001 -0.02,0.003 -0.028,0.004c-0.018,0.002 -0.034,0.006 -0.047,0.012c-0.014,0.006 -0.024,0.014 -0.032,0.023c-0.008,0.01 -0.011,0.022 -0.011,0.037c-0,0.014 0.003,0.026 0.01,0.036c0.008,0.009 0.017,0.017 0.03,0.022c0.012,0.004 0.026,0.007 0.042,0.007Z" style="fill:#efc893;fill-rule:nonzero;"/></g><g transform="matrix(622.698,0,0,622.698,3572.4,1694.65)"><path d="M0.062,-0l0,-0.546l0.136,0l0.008,0.136l-0.011,-0c0.008,-0.034 0.021,-0.061 0.037,-0.082c0.017,-0.021 0.036,-0.037 0.058,-0.047c0.022,-0.01 0.046,-0.015 0.07,-0.015c0.039,-0 0.071,0.012 0.095,0.037c0.024,0.025 0.042,0.064 0.053,0.116l-0.017,-0c0.008,-0.035 0.022,-0.064 0.04,-0.087c0.019,-0.022 0.04,-0.039 0.065,-0.05c0.026,-0.011 0.052,-0.016 0.08,-0.016c0.033,-0 0.063,0.007 0.089,0.022c0.027,0.014 0.047,0.035 0.062,0.063c0.015,0.028 0.023,0.061 0.023,0.101l-0,0.368l-0.146,-0l-0,-0.34c-0,-0.031 -0.009,-0.054 -0.025,-0.069c-0.017,-0.015 -0.038,-0.023 -0.062,-0.023c-0.019,0 -0.034,0.004 -0.048,0.012c-0.014,0.008 -0.024,0.02 -0.031,0.034c-0.007,0.014 -0.011,0.031 -0.011,0.05l0,0.336l-0.142,-0l0,-0.344c0,-0.027 -0.008,-0.048 -0.023,-0.064c-0.016,-0.016 -0.037,-0.024 -0.062,-0.024c-0.017,0 -0.032,0.004 -0.046,0.012c-0.014,0.008 -0.025,0.019 -0.033,0.034c-0.008,0.016 -0.012,0.034 -0.012,0.056l-0,0.33l-0.147,-0Z" style="fill:#efc893;fill-rule:nonzero;"/></g><g transform="matrix(622.698,0,0,622.698,4140.67,1694.65)"><path d="M0.279,0.011c-0.044,-0 -0.083,-0.007 -0.116,-0.019c-0.034,-0.013 -0.062,-0.031 -0.083,-0.055c-0.022,-0.024 -0.036,-0.052 -0.042,-0.086l0.136,-0.024c0.008,0.026 0.02,0.045 0.038,0.057c0.018,0.013 0.042,0.019 0.072,0.019c0.027,0 0.05,-0.005 0.066,-0.016c0.016,-0.01 0.024,-0.024 0.024,-0.04c0,-0.014 -0.006,-0.026 -0.017,-0.035c-0.012,-0.009 -0.029,-0.016 -0.054,-0.021l-0.094,-0.02c-0.052,-0.01 -0.091,-0.029 -0.118,-0.055c-0.026,-0.025 -0.039,-0.059 -0.039,-0.1c0,-0.034 0.01,-0.065 0.029,-0.09c0.019,-0.025 0.046,-0.045 0.08,-0.058c0.034,-0.014 0.075,-0.021 0.121,-0.021c0.043,0 0.08,0.006 0.112,0.018c0.031,0.012 0.057,0.029 0.076,0.051c0.02,0.021 0.033,0.047 0.039,0.077l-0.13,0.023c-0.005,-0.019 -0.016,-0.034 -0.032,-0.046c-0.015,-0.012 -0.037,-0.018 -0.063,-0.018c-0.024,0 -0.044,0.005 -0.061,0.016c-0.016,0.01 -0.024,0.023 -0.024,0.04c-0,0.013 0.005,0.025 0.016,0.034c0.01,0.01 0.028,0.017 0.054,0.023l0.098,0.019c0.053,0.011 0.092,0.028 0.118,0.053c0.026,0.024 0.039,0.056 0.039,0.095c-0,0.035 -0.011,0.067 -0.032,0.094c-0.021,0.026 -0.049,0.047 -0.086,0.062c-0.037,0.015 -0.079,0.023 -0.127,0.023Z" style="fill:#efc893;fill-rule:nonzero;"/></g><g transform="matrix(622.698,0,0,622.698,4489.42,1694.65)"></g><g transform="matrix(622.698,0,0,622.698,4636.89,1694.65)"></g></g></g><g><g><path d="M560.637,781.767c5.915,6.498 21.221,9.088 16.075,-1.252c-0.911,-1.83 1.622,-11.294 -1.936,-14.056c-2.6,-2.017 -4.572,-9.116 -8.674,-12.564c-1.957,-1.644 -10.811,-3.139 -13.167,-3.116c-2.004,0.02 -13.816,4.382 -12.961,5.62c5.782,8.376 5.863,15.308 3.82,18.982c-3.097,5.569 14.288,3.58 16.843,6.386Z" style="fill:#b8470b;"/><path d="M471.19,791.884c1.004,-0.377 11.424,-2.54 16.688,-2.778c8.122,-0.368 11.986,10.074 11.976,12.919c-0.019,5.332 -0.643,11.504 -5.122,14.341c-1.832,1.16 -6.862,8.673 -10.528,12.178c-4.092,3.912 -12.173,11.804 -14.023,11.296c-13.357,-3.67 -21.923,-39.34 1.009,-47.956Z" style="fill:#b8470b;"/><path d="M832.318,816.799c2.047,-3.754 6.762,-7.035 11.601,-9.469c7.259,-3.652 13.772,-12.378 13.772,-12.378c1.441,-0.005 6.115,17.14 5.9,22.459c-0.154,3.819 2.422,16.472 2.984,20.294c0.63,4.289 12.09,26.28 1.558,28.276c-23.333,4.422 -32.086,-23.815 -36.494,-36.127c-0,0 -1.368,-9.301 0.679,-13.055Z" style="fill:#b8470b;"/><path d="M824.359,733.966c4.609,4.159 7.013,8.303 9.925,11.204c3.277,3.266 9.272,7.417 12.922,13.259c3.298,5.278 2.605,13.028 5.806,17.181c3.68,4.773 2.153,13.943 0.749,18.113c-1.091,3.241 -9.176,6.909 -9.176,6.909c-0,0 -11.894,12.069 -16.021,8.265c-2.389,-2.202 -5.072,-5.149 -7.85,-9.615c-3.642,-5.854 -4.431,-9.088 -10.213,-13.216c-1.436,-1.026 -1.778,-14.246 -0.749,-18.114c2.31,-8.683 14.607,-33.986 14.607,-33.986Z" style="fill:#b8470b;"/><path d="M729.171,767.215c0,-0 -3.409,-21.263 -1.872,-29.173c0.287,-1.478 0.983,-7.581 1.531,-11.364c0.861,-5.95 15.404,-9.675 3.636,-24.336c-1.248,-1.554 -14.145,-15.725 -4.046,-24.307c2.551,-2.169 10.39,5.763 13.063,6.377c5.203,1.196 16.431,10.121 24.528,16.011c9.444,6.87 19.649,12.796 26.126,12.754c5.504,-0.035 15.279,4.723 22.861,11.161c2.023,1.718 1.784,4.612 -3.129,14.62c-4.797,9.769 -3.252,25.941 -7.857,32.497c-2.66,3.785 -24.959,-0.073 -30.923,-2.985c-16.86,-8.231 -43.918,-1.255 -43.918,-1.255Z" style="fill:#b8470b;"/><path d="M780.894,781.982c-0,0 23.463,64.07 18.336,71.555c-5.128,7.484 -50.089,-29.734 -50.089,-29.734c2.885,-14.683 1.404,-31.793 -4.459,-51.34c12.151,-1.441 24.241,0.588 36.212,9.519Z" style="fill:#b8470b;"/><path d="M738.082,820.661c-11.715,7.944 -29.72,-7.379 -28.121,-10.377c0,0 4.013,-18.882 6.302,-22.053c3.167,-4.387 19.112,0.9 22.117,6.285c3.295,5.904 -0.298,26.145 -0.298,26.145" style="fill:#b8470b;"/><path d="M742.987,832.785c11.471,5.995 45.518,28.637 49.138,24.694l-61.662,17.946c-23.262,-8.488 -26.147,-16.018 -29.956,-32.06c0.741,2.602 32.543,-15.775 42.48,-10.58Z" style="fill:#b8470b;"/><path d="M732.281,942.25c-9.64,-1.341 -4.723,-22.364 2.382,-28.909c1.92,-1.768 1.945,-10.673 4.517,-10.544c12.502,0.629 66.354,-2.716 83.289,13.376c4.628,4.397 5.24,18.857 -2.32,22.365c-9.108,4.226 -20.665,2.306 -33.211,4.554c-7.942,1.423 -49.89,-0.178 -54.657,-0.842Z" style="fill:#b8470b;"/><path d="M238.986,1420.66c0.825,5.319 -14.909,5.753 -21.403,2.674c-11.096,-5.261 -40.816,-18.098 -45.173,-34.243c-1.631,-6.045 -8.519,-36.654 -8.519,-36.654c0,-0 -8.398,-28.145 -14.619,-36.76c-44.214,-61.215 -86.665,-104.93 -106.295,-135.369c-14.835,-23.002 -18.817,-52.864 -15.131,-76.641c3.687,-23.776 19.096,-51.309 37.758,-66.28c18.563,-14.892 46.055,-26.588 73.674,-26.112c27.451,0.472 45.502,7.081 63.736,19.351c60.318,40.589 179.916,205.813 266.356,299.69l-112.799,-4.984c-0,-0 -49.332,-1.014 -73.36,7.863c-36.676,13.55 -49.733,51.962 -44.225,87.465Zm-98.761,-375.904c-42.926,-0.739 -78.377,33.413 -79.117,76.217c-0.74,42.804 33.51,78.156 76.436,78.895c42.926,0.739 78.377,-33.412 79.117,-76.217c0.74,-42.804 -33.51,-78.155 -76.436,-78.895Z" style="fill:#b8470b;"/><path d="M119.119,1597.61l-0.072,-85.216c1.587,-15.633 39.674,-92.41 48.786,-79.478c27.854,39.532 97.17,39.088 103.727,33.434c9.17,-7.908 6.094,-21.294 -3.063,-42.585c-22.437,-52.163 34.68,-63.204 58.055,-63.431c48.694,-0.475 234.757,-0.117 234.757,-0.117c18.907,1.777 28.826,13.425 30.475,33.745l0.106,90.95l103.309,0.117c9.034,2.806 15.337,8.779 18.758,18.094l0.027,94.298l-594.865,0.189Zm407.036,-201.732c-12.44,0.003 -22.537,10.784 -22.533,24.059c0.004,13.275 10.107,24.05 22.547,24.047c12.44,-0.003 22.536,-10.784 22.533,-24.059c-0.004,-13.275 -10.107,-24.05 -22.547,-24.047Z" style="fill:#8e776a;"/><path d="M119.119,1597.61l-0.072,-85.216c1.587,-15.633 39.674,-92.41 48.786,-79.478c27.854,39.532 97.17,39.088 103.727,33.434c9.17,-7.908 6.094,-21.294 -3.063,-42.585c-22.437,-52.163 34.68,-63.204 58.055,-63.431c48.694,-0.475 234.757,-0.117 234.757,-0.117c18.907,1.777 28.826,13.425 30.475,33.745l0.106,90.95l103.309,0.117c9.034,2.806 15.337,8.779 18.758,18.094l0.027,94.298l-594.865,0.189Zm407.036,-201.732c-12.44,0.003 -22.537,10.784 -22.533,24.059c0.004,13.275 10.107,24.05 22.547,24.047c12.44,-0.003 22.536,-10.784 22.533,-24.059c-0.004,-13.275 -10.107,-24.05 -22.547,-24.047Z" style="fill:#b8470b;"/><path d="M139.804,1069.09c29.459,0.507 52.964,24.768 52.457,54.143c-0.508,29.376 -24.837,52.813 -54.296,52.306c-29.459,-0.508 -52.964,-24.769 -52.457,-54.144c0.508,-29.375 24.837,-52.813 54.296,-52.305Z" style="fill:#b8470b;"/><path d="M353.044,735.065c22.725,0.391 40.857,19.107 40.466,41.768c-0.392,22.661 -19.16,40.741 -41.886,40.35c-22.725,-0.392 -40.858,-19.107 -40.466,-41.768c0.392,-22.661 19.16,-40.741 41.886,-40.35Zm-0.316,18.248c-12.625,-0.217 -23.052,9.827 -23.269,22.417c-0.218,12.589 9.855,22.987 22.481,23.204c12.625,0.218 23.052,-9.827 23.269,-22.416c0.218,-12.59 -9.855,-22.987 -22.481,-23.205Z" style="fill:#b8470b;"/><path d="M537.027,847.61c-2.224,-3.436 -1.678,-12.888 -2.373,-15.106c-1.526,-4.878 4.084,-17.092 -1.66,-21.027c-5.427,-3.716 -10.067,-6.556 -16.167,-6.661c-3.05,-0.053 -2.997,-3.094 -2.997,-3.094c-0,-0 1.764,-4.657 3.155,-6.03c1.946,-1.922 12.382,-7.276 9.862,-18.551c-0.187,-0.838 14.801,3.764 14.801,3.764l15.198,3.304c-0,-0 21.816,9.114 24.295,6.503c4.412,-4.646 -2.577,-27.425 -2.577,-27.425l57.205,-39.363c0,-0 6.352,-3.414 15.666,-8.397c23.407,-12.521 65.517,-34.944 72.509,-37.964c-0,0 -4.468,15.819 0.702,20.109c9.83,8.156 12.071,22.029 0.667,25.828c-12.12,4.037 -3.708,20.557 -3.102,30.512c0.123,2.021 3.402,17.809 3.402,17.809l-43.533,42.532c1.281,5.136 20.915,73.082 21.739,75.932c-0.17,0.018 -0.17,0.051 0.027,0.093l-0.027,-0.093c1.823,-0.193 23.241,1.303 31.018,11.185c1.204,1.53 -4.37,11.217 -6.395,13.026c-4.884,4.363 -3.037,14.958 -6.327,21.133c-1.991,3.738 -18.451,2.746 -34.188,-4.579c-15.052,-7.007 -24.211,-13.764 -31.06,-19.2c-10.697,-8.491 -16.857,-25.794 -27.93,-33.82c-10.682,-7.742 -40.203,-34.572 -50.178,-37.982c-0.371,-0.127 -13.989,-0.188 -17.058,1.32" style="fill:#b8470b;fill-opacity:0.99;"/><path d="M532.318,848.838c-9.109,2.462 -55.279,9.418 -55.279,9.418c-0,0 -23.974,3.266 -30.074,3.161c-6.1,-0.105 -21.403,2.673 -33.656,5.505c-9.656,2.231 -47.631,-1.327 -60.675,17.842c-21.119,31.035 -35.927,133.72 -57.339,167.015c-7.014,10.907 -28.019,14.307 -28.808,13.406c-7.605,-8.672 -48.204,-44.82 -61.315,-50.933c-46.055,-21.475 -87.595,-19.803 -108.489,-9.794c-1.891,0.906 -5.987,-28.003 2.071,-33.713c29.877,-21.172 142.244,-112.033 166.075,-155.181c0.577,-1.046 -2.96,-20.979 -0.628,-22.195c-0.061,-1.228 -0.079,-2.453 -0.053,-3.672c1.115,-52.879 47.226,-94.86 102.906,-93.691c12.99,0.273 43.909,8.661 58.034,19.003c12.829,9.394 72.676,31.675 72.676,31.675c-0,-0 15.917,3.386 22.078,3.937c13.27,1.185 17.393,7.41 22.715,16.828c1.32,2.334 -1.886,6.006 -4.487,6.679c-3.132,0.81 -11.022,-3.815 -14.306,-1.816c-3.284,1.999 -2.558,10.548 -5.397,13.812c-2.84,3.264 -9.339,8.787 -11.641,5.771c-19.134,-25.069 -50.124,2.147 -55.712,11.788c-8.48,14.63 1.936,41.853 17.032,41.417c2.86,-0.083 5.192,0.338 6.84,1.545l4.078,-0.741c-0.044,-0.118 -0.082,-0.236 -0.113,-0.354c-0.61,-2.318 -1.778,-4.938 -0.312,-7.184c2.82,-4.32 12.01,-14.313 17.231,-18.736c3.302,-2.798 6.434,-10.243 10.338,-11.242c4.168,-1.068 8.236,0.057 10.807,-0.467c2.633,-0.536 7.36,3.281 7.36,3.281c-0,0 3.577,4.656 3.914,7.029c0.689,4.85 0.254,9.54 0.624,14.367c0.063,0.819 0.095,2.283 0.357,3.278c0.48,1.814 2.519,7.606 2.519,7.606c-0,0 2.368,4.885 0.629,5.356Zm-179.064,-125.939c-29.459,-0.507 -53.788,22.93 -54.296,52.306c-0.508,29.375 22.997,53.636 52.456,54.143c29.459,0.508 53.788,-22.93 54.296,-52.305c0.508,-29.375 -22.997,-53.636 -52.456,-54.144Z" style="fill:#b8470b;fill-opacity:0.99;"/></g></g><path d="M352.423,137.014c0.693,-0.173 66.051,8.962 83.458,10.702" style="fill:none;stroke:#e6a91a;stroke-width:5.56px;"/><path d="M351.215,146.335c2.445,0.204 22.061,1.774 43.245,5.063c14.424,2.24 29.39,6.388 40.882,7.106" style="fill:none;stroke:#f25e0d;stroke-width:5.56px;"/><path d="M352.509,258.404c0,-0 76.811,-88.676 82.833,-86.859" style="fill:none;stroke:#000;stroke-width:5.56px;"/><path d="M351.927,269.322c-0,-0 81.5,-90.381 87.73,-91.938" style="fill:none;stroke:#e61a1a;stroke-width:5.56px;"/><path d="M757.294,982.426l-3.098,188.061c-0.855,51.897 -43.683,93.337 -95.58,92.482l-218.711,-3.603c-51.897,-0.855 -93.336,-43.683 -92.481,-95.579l3.097,-188.061c0.855,-51.897 43.683,-93.337 95.58,-92.482l218.711,3.603c51.897,0.854 93.336,43.682 92.482,95.579Z" style="fill:url(#_Linear1);"/><path d="M658.686,529.861c5.245,6.579 8.657,12.362 8.657,12.362c36.367,26.534 26.596,77.401 -2.521,118.878c-3.862,5.501 -7.74,18.56 -7.74,18.56c-0,-0 -4.643,-19.621 -8.397,-25.513c-6.808,-10.686 -23.102,-28.519 -28.585,-46.08c-12.829,-41.089 20.455,-64.577 29.799,-62.972c2.456,0.422 1.33,-5.003 0.499,-7.203c-0.523,-1.383 -1.079,-2.664 -1.666,-3.85c2.084,-0.992 4.929,-2.303 9.954,-4.182Zm-8.478,105.164c5.593,-9.192 20.367,-52.644 12.675,-69.224c-0.598,-1.287 -3.86,-3.12 -3.774,-1.721c1.364,22.245 3.367,30.271 -12.472,67c-1.136,2.635 0.518,8.961 3.571,3.945Z" style="fill:url(#_Linear2);"/><path d="M485.669,579.608c1.282,3.248 1.977,5.383 1.977,5.383c0,-0 0.831,1.818 2.016,4.355c0.357,0.457 0.683,0.861 0.968,1.2c3.017,3.582 19.96,19.055 19.96,19.055c-0.598,-10.095 7.781,-45.11 2.129,-57.89c-6.025,-13.623 -2.13,-1.555 -28.908,-38.844c18.516,8.665 19.364,12.301 19.364,12.301c0,0 17.127,13.046 21.731,12.408c0,0 4.261,-25.932 3.941,-34.739c-0.19,-5.236 1.125,-28.936 -0.612,-33.848c-2.971,-8.4 -29.099,-14.228 -41.604,-14.467c-12.829,-0.246 -24.454,-0.173 -37.259,11.165c-1.67,-4.26 -2.694,-7.486 -3.215,-9.226c6.067,-2.775 23.428,-10.276 34.423,-10.588c13.501,-0.383 43.966,8.204 44.406,9.31c0.427,1.075 14.906,5.088 14.096,3.312l9.819,-49.739l8.786,43.999c18.554,-7.154 20.884,-14.263 45.472,-28.89l-45.847,47.497c-4.059,24.975 -1.266,50.406 -0.319,71.427c-0.045,0.137 -0.041,0.248 0.015,0.332l-0.015,-0.332c1.41,-4.283 51.051,-33.635 76.175,-31.61c9.302,0.75 18.878,10.353 25.518,18.682c-5.025,1.879 -7.87,3.19 -9.954,4.182c-10.565,-21.349 -31.092,-11.695 -46.056,-8.201c-15.795,3.689 -33.77,21.736 -37.302,29.309c-6.107,13.094 -7.636,46.271 -7.636,46.271l0.65,70.519c1.444,21.213 9.931,52.6 8.07,62.854c-0.781,4.307 -9.932,0.014 -17.206,-1.067c-1.368,-0.203 -7.183,0.515 -8.233,0.703c-12.326,2.209 -6.323,1.1 -18.463,1.47c-12.605,0.384 -11.808,-3.6 -15.847,-5.99c-9.098,-5.384 10.419,-53.382 -0.161,-98.367c-3.074,-13.069 -6.304,-18.829 -15.914,-28.57c-0.088,-0.089 -4.773,-5.605 -8.441,-10.012c0.934,-3.435 2.264,-8.593 3.476,-13.354Z" style="fill:url(#_Linear3);"/><path d="M482.193,592.962c-2.388,-2.869 -4.345,-5.268 -4.321,-5.393c-14.169,42.641 -49.272,70.106 -96.205,75.234c-18.691,0.303 -31.128,3.862 -31.128,3.862c-0,-0 17.956,-48.19 30.464,-72.915c12.245,-24.206 54.981,-52.383 80.92,-45.76c11.126,2.84 19.974,22.056 23.746,31.618c-1.212,4.761 -2.542,9.919 -3.476,13.354Zm-27.505,-17.508c-2.956,0.088 -11.148,1.176 -14.954,2.581c-12.86,4.747 -30.938,26.759 -33.213,41.353c-1.404,9.006 -8.555,8.788 -10.849,16.012c-0.36,1.136 0.344,3.183 0.937,3.403c0.594,0.22 2.828,0.34 3.725,-0.492c3.999,-3.706 7.363,-5.661 9.466,-13.816c4.857,-18.836 20.449,-33.09 28.932,-39.448c4.736,-3.55 12.328,-4.742 17.612,-5.143c-0,0 1.791,-0.656 1.126,-2.399c-0.399,-1.044 -1.588,-2.087 -2.782,-2.051Z" style="fill:url(#_Linear4);"/><path d="M449.372,465.687c-0.629,0.557 -1.261,1.142 -1.897,1.755c11.843,29.456 -4.595,54.006 -29.143,63.848c-13.64,5.468 -42.618,9.283 -70.969,6.721c-18.103,-1.637 -31.958,2.438 -31.958,2.438c11.547,-18.098 21.152,-49.747 39.662,-66.96c20.55,-19.111 60.042,-24.178 82.666,-13.794l6.245,-2.215c-0,-0 0.796,-0.387 2.179,-1.019c0.521,1.74 1.545,4.966 3.215,9.226Zm-101.209,59.772l1.8,1.414c22.337,-28.029 43.838,-37.873 71.41,-36.873c-0,0 2.55,-2.484 2.024,-3.439c-0.527,-0.955 -5.181,-2.292 -5.181,-2.292c-45.491,-1.454 -72.506,39.938 -70.053,41.19Z" style="fill:url(#_Linear5);"/><path d="M515.252,870.486c3.396,-0.082 6.039,1.087 11.562,0.111c9.227,-1.629 21.783,-5.196 24.831,-0.931c7.77,10.868 -2.323,77.567 9.937,97.934c8.564,14.228 17.755,17.384 29.308,29.024c17.871,18.006 65.494,25.709 91.41,35.841c9.728,3.803 28.961,15.29 36.374,24.06c13.347,15.79 24.483,24.009 24.224,45.882c-39.624,-53.191 -92.427,-70.883 -152.458,-71.311c1.921,1.156 54.545,62.433 54.545,62.433c0,-0 84.901,70.793 63.06,125.659c-13.805,-40.51 -25.876,-53.916 -37.891,-70.842c-7.902,-11.134 -23.017,-31.393 -34.195,-30.718c-1.859,30.598 -2.486,68.581 -6.033,110.427c-8.126,-31.124 -15.007,-77.138 -19.927,-119.524c-8.405,-26.273 -30.723,-46.248 -49.983,-67.751c-9.817,28.935 -15.634,60.095 -16.511,94.003c-1.23,36.718 5.884,67.951 21.371,93.679c-16.577,1.009 -32.114,-24.177 -46.137,-87.485c-26.306,9.274 -40.221,40.585 -44.614,88.83c-16.415,-39.525 -8.233,-77.223 30.909,-112.622c13.261,-2.629 18.548,-37.75 19.122,-92.074c-22.907,5.442 -38.394,12.624 -63.432,56.658c-6.881,24.794 -16.117,50.384 -32.074,78.25c5.491,-39.663 18.248,-82.667 32.704,-118.966c-4.057,-17.053 -50.253,16.522 -97.512,72.241c3.585,-36.048 51.061,-78.189 76.26,-90.793c15.315,-7.661 51.094,-23.055 50.095,-21.513c-0,-0 17.727,-19.984 22.852,-39.477c5.636,-21.433 -2.906,-90.901 2.203,-91.025Z" style="fill:#d49c52;"/><g><path d="M545.953,284.247l-13.681,37.708l-0.963,10.987c-1.907,13.304 24.709,24.41 29.238,-0.394l-0.142,-10.321l-14.452,-37.98Z" style="fill:url(#_Linear6);"/><path d="M512.53,364.263l-13.682,37.708l-0.962,10.988c-1.907,13.303 24.709,24.409 29.237,-0.394l-0.142,-10.321l-14.451,-37.981Z" style="fill:url(#_Linear7);"/><path d="M590.949,357.424l-13.682,37.708l-0.963,10.987c-1.907,13.304 24.709,24.41 29.238,-0.394l-0.142,-10.321l-14.451,-37.98Z" style="fill:url(#_Linear8);"/></g><g><path d="M467.826,145.363l-0,31.718c-0,4.823 -3.916,8.738 -8.739,8.738l-17.477,0c-4.823,0 -8.738,-3.915 -8.738,-8.738l-0,-31.718c-0,-4.823 3.915,-8.738 8.738,-8.738l17.477,-0c4.823,-0 8.739,3.915 8.739,8.738Z" style="fill:#808080;"/><path d="M630.082,140.509l-0,45.742c-0,2.382 -1.934,4.315 -4.316,4.315l-8.63,0c-2.382,0 -4.316,-1.933 -4.316,-4.315l0,-45.742c0,-2.382 1.934,-4.316 4.316,-4.316l8.63,0c2.382,0 4.316,1.934 4.316,4.316Z"/><path d="M469.552,132.633l0,59.336c0,2.56 -2.079,4.639 -4.639,4.639l-9.278,-0c-2.56,-0 -4.639,-2.079 -4.639,-4.639l0,-59.336c0,-2.56 2.079,-4.639 4.639,-4.639l9.278,0c2.56,0 4.639,2.079 4.639,4.639Z" style="fill:#808080;"/><path d="M662.878,152.591l-0,21.577c-0,5.954 -4.834,10.788 -10.788,10.788l-25.029,0c-5.954,0 -10.788,-4.834 -10.788,-10.788l-0,-21.577c-0,-5.954 4.834,-10.788 10.788,-10.788l25.029,0c5.954,0 10.788,4.834 10.788,10.788Z"/><path d="M583.045,217.321l-0,12.946c-0,3.573 -2.901,6.473 -6.473,6.473l-67.319,-0c-3.573,-0 -6.473,-2.9 -6.473,-6.473l-0,-12.946c-0,-3.572 2.9,-6.473 6.473,-6.473l67.319,0c3.572,0 6.473,2.901 6.473,6.473Z"/><path d="M557.153,232.964l-0,33.875c-0,4.109 -3.336,7.444 -7.444,7.444l-14.888,0c-4.108,0 -7.444,-3.335 -7.444,-7.444l0,-33.875c0,-4.108 3.336,-7.444 7.444,-7.444l14.888,0c4.108,0 7.444,3.336 7.444,7.444Z"/><path d="M625.335,132.849l-0,53.726c-0,14.826 -12.037,26.862 -26.863,26.862l-115.866,0c-14.826,0 -26.863,-12.036 -26.863,-26.862l0,-53.726c0,-14.826 12.037,-26.863 26.863,-26.863l115.866,0c14.826,0 26.863,12.037 26.863,26.863Z" style="fill:#4e342e;"/></g><path d="M773.728,110.164l-0.131,31.771c-2.071,15.581 -8.254,23.953 -16.989,27.043l-91.932,0.622l0.346,-12.607l89.178,0.192c7.672,-2.7 11.561,-8.521 12.043,-17.154l0.204,-29.879l7.281,0.012Z" style="stroke:#000;stroke-width:5.56px;"/><g><g><path d="M248.12,65.027l110.394,-0.025l0.047,208.313l-110.394,0.025l-0.047,-208.313Zm20.994,-22.203l69.913,-0.016l0.005,22.076l-69.913,0.016l-0.005,-22.076Z" style="stroke:#fff;stroke-width:5.56px;"/></g><g><path d="M273.965,65.687l0.014,65.783l59.422,-0.013l-0.015,-65.784l-59.421,0.014Z" style="fill:#aac1ae;"/><g><path d="M351.685,265.098c-1.167,0 -2.114,0.955 -2.114,2.131c0,1.176 0.948,2.13 2.115,2.13c1.166,-0 2.113,-0.955 2.113,-2.131c-0,-1.176 -0.948,-2.13 -2.114,-2.13Z" style="fill:#aac1ae;"/><path d="M351.683,255.811c-1.167,0 -2.114,0.955 -2.114,2.131c0,1.176 0.948,2.13 2.115,2.13c1.166,-0 2.113,-0.955 2.113,-2.131c-0,-1.176 -0.948,-2.13 -2.114,-2.13Z" style="fill:#aac1ae;"/><path d="M351.68,246.525c-1.166,-0 -2.113,0.955 -2.113,2.13c0,1.176 0.948,2.131 2.114,2.13c1.167,0 2.114,-0.955 2.114,-2.131c-0,-1.175 -0.948,-2.13 -2.115,-2.129Z" style="fill:#aac1ae;"/><path d="M351.678,237.238c-1.166,0 -2.113,0.955 -2.113,2.131c0,1.176 0.948,2.13 2.114,2.13c1.167,-0.001 2.114,-0.955 2.114,-2.131c-0,-1.176 -0.948,-2.13 -2.115,-2.13Z" style="fill:#aac1ae;"/><path d="M351.676,227.951c-1.166,0 -2.114,0.955 -2.113,2.131c0,1.176 0.947,2.13 2.114,2.13c1.167,-0 2.114,-0.955 2.114,-2.131c-0,-1.176 -0.948,-2.13 -2.115,-2.13Z" style="fill:#aac1ae;"/><path d="M351.674,218.664c-1.167,0.001 -2.114,0.955 -2.113,2.131c-0,1.176 0.947,2.13 2.114,2.13c1.167,-0 2.114,-0.955 2.114,-2.131c-0.001,-1.176 -0.948,-2.13 -2.115,-2.13Z" style="fill:#aac1ae;"/><path d="M351.672,209.378c-1.167,-0 -2.114,0.955 -2.113,2.13c-0,1.176 0.947,2.131 2.114,2.13c1.167,0 2.114,-0.955 2.114,-2.13c-0.001,-1.176 -0.948,-2.131 -2.115,-2.13Z" style="fill:#aac1ae;"/><path d="M351.67,200.091c-1.167,0 -2.114,0.955 -2.114,2.131c0.001,1.176 0.948,2.13 2.115,2.13c1.167,-0.001 2.114,-0.955 2.114,-2.131c-0.001,-1.176 -0.948,-2.13 -2.115,-2.13Z" style="fill:#aac1ae;"/><path d="M351.668,190.804c-1.167,0 -2.114,0.955 -2.114,2.131c0.001,1.176 0.948,2.13 2.115,2.13c1.167,-0 2.114,-0.955 2.113,-2.131c0,-1.176 -0.947,-2.13 -2.114,-2.13Z" style="fill:#aac1ae;"/><path d="M351.666,181.517c-1.167,0.001 -2.114,0.955 -2.114,2.131c0.001,1.176 0.948,2.131 2.115,2.13c1.167,0 2.114,-0.955 2.113,-2.131c0,-1.175 -0.947,-2.13 -2.114,-2.13Z" style="fill:#aac1ae;"/><path d="M351.664,172.231c-1.167,-0 -2.114,0.955 -2.114,2.131c0,1.175 0.948,2.13 2.115,2.13c1.166,-0.001 2.114,-0.956 2.113,-2.131c-0,-1.176 -0.947,-2.131 -2.114,-2.13Z" style="fill:#aac1ae;"/><path d="M351.662,162.944c-1.167,0 -2.114,0.955 -2.114,2.131c0,1.176 0.948,2.13 2.115,2.13c1.166,-0 2.113,-0.955 2.113,-2.131c-0,-1.176 -0.948,-2.13 -2.114,-2.13Z" style="fill:#aac1ae;"/><path d="M351.66,153.657c-1.167,0 -2.114,0.955 -2.114,2.131c0,1.176 0.948,2.13 2.115,2.13c1.166,-0 2.113,-0.955 2.113,-2.131c-0,-1.176 -0.948,-2.13 -2.114,-2.13Z" style="fill:#aac1ae;"/><path d="M351.658,144.37c-1.167,0.001 -2.114,0.956 -2.114,2.131c0,1.176 0.948,2.131 2.114,2.13c1.167,0 2.114,-0.955 2.114,-2.131c-0,-1.175 -0.948,-2.13 -2.114,-2.13Z" style="fill:#aac1ae;"/><path d="M351.655,135.084c-1.166,0 -2.113,0.955 -2.113,2.131c0,1.175 0.948,2.13 2.114,2.13c1.167,-0.001 2.114,-0.955 2.114,-2.131c-0,-1.176 -0.948,-2.131 -2.115,-2.13Z" style="fill:#aac1ae;"/><path d="M351.653,125.797c-1.166,0 -2.113,0.955 -2.113,2.131c0,1.176 0.948,2.13 2.114,2.13c1.167,-0 2.114,-0.955 2.114,-2.131c-0,-1.176 -0.948,-2.13 -2.115,-2.13Z" style="fill:#aac1ae;"/><path d="M351.651,116.51c-1.167,0.001 -2.114,0.955 -2.113,2.131c-0,1.176 0.947,2.13 2.114,2.13c1.167,-0 2.114,-0.955 2.114,-2.131c-0.001,-1.176 -0.948,-2.13 -2.115,-2.13Z" style="fill:#aac1ae;"/><path d="M351.649,107.224c-1.167,-0 -2.114,0.955 -2.113,2.13c-0,1.176 0.947,2.131 2.114,2.13c1.167,0 2.114,-0.955 2.114,-2.13c-0.001,-1.176 -0.948,-2.131 -2.115,-2.13Z" style="fill:#aac1ae;"/><path d="M351.647,97.937c-1.167,0 -2.114,0.955 -2.113,2.131c-0,1.176 0.947,2.13 2.114,2.13c1.167,-0.001 2.114,-0.955 2.114,-2.131c-0.001,-1.176 -0.948,-2.13 -2.115,-2.13Z" style="fill:#aac1ae;"/><path d="M351.645,88.65c-1.167,0 -2.114,0.955 -2.114,2.131c0.001,1.176 0.948,2.13 2.115,2.13c1.167,-0 2.114,-0.955 2.113,-2.131c0,-1.176 -0.947,-2.13 -2.114,-2.13Z" style="fill:#aac1ae;"/><path d="M351.643,79.363c-1.167,0.001 -2.114,0.955 -2.114,2.131c0.001,1.176 0.948,2.13 2.115,2.13c1.167,-0 2.114,-0.955 2.113,-2.131c0,-1.176 -0.947,-2.13 -2.114,-2.13Z" style="fill:#aac1ae;"/><path d="M351.641,70.077c-1.167,-0 -2.114,0.955 -2.114,2.131c0.001,1.175 0.948,2.13 2.115,2.13c1.167,-0.001 2.114,-0.956 2.113,-2.131c0,-1.176 -0.947,-2.131 -2.114,-2.13Z" style="fill:#aac1ae;"/></g><g><path d="M256.101,264.55c-1.167,0 -2.114,0.955 -2.114,2.131c0.001,1.176 0.948,2.13 2.115,2.13c1.167,-0 2.114,-0.955 2.113,-2.131c0,-1.176 -0.947,-2.13 -2.114,-2.13Z" style="fill:#aac1ae;"/><path d="M256.099,255.263c-1.167,0.001 -2.114,0.955 -2.114,2.131c0,1.176 0.948,2.13 2.115,2.13c1.166,-0 2.113,-0.955 2.113,-2.131c-0,-1.176 -0.948,-2.13 -2.114,-2.13Z" style="fill:#aac1ae;"/><path d="M256.097,245.977c-1.167,-0 -2.114,0.955 -2.114,2.131c0,1.175 0.948,2.13 2.115,2.129c1.166,0 2.113,-0.955 2.113,-2.13c-0,-1.176 -0.948,-2.131 -2.114,-2.13Z" style="fill:#aac1ae;"/><path d="M256.095,236.69c-1.167,0 -2.114,0.955 -2.114,2.131c0,1.176 0.948,2.13 2.115,2.13c1.166,-0.001 2.113,-0.955 2.113,-2.131c-0,-1.176 -0.948,-2.13 -2.114,-2.13Z" style="fill:#aac1ae;"/><path d="M256.092,227.403c-1.166,0 -2.113,0.955 -2.113,2.131c0,1.176 0.948,2.13 2.114,2.13c1.167,-0 2.114,-0.955 2.114,-2.131c-0,-1.176 -0.948,-2.13 -2.115,-2.13Z" style="fill:#aac1ae;"/><path d="M256.09,218.116c-1.166,0.001 -2.113,0.956 -2.113,2.131c0,1.176 0.948,2.131 2.114,2.13c1.167,0 2.114,-0.955 2.114,-2.131c-0,-1.175 -0.948,-2.13 -2.115,-2.13Z" style="fill:#aac1ae;"/><path d="M256.088,208.83c-1.166,-0 -2.113,0.955 -2.113,2.131c0,1.175 0.948,2.13 2.114,2.13c1.167,-0.001 2.114,-0.956 2.114,-2.131c-0,-1.176 -0.948,-2.131 -2.115,-2.13Z" style="fill:#aac1ae;"/><path d="M256.086,199.543c-1.167,0 -2.114,0.955 -2.113,2.131c-0,1.176 0.947,2.13 2.114,2.13c1.167,-0 2.114,-0.955 2.114,-2.131c-0.001,-1.176 -0.948,-2.13 -2.115,-2.13Z" style="fill:#aac1ae;"/><path d="M256.084,190.256c-1.167,0 -2.114,0.955 -2.113,2.131c-0,1.176 0.947,2.13 2.114,2.13c1.167,-0 2.114,-0.955 2.114,-2.131c-0.001,-1.176 -0.948,-2.13 -2.115,-2.13Z" style="fill:#aac1ae;"/><path d="M256.082,180.969c-1.167,0.001 -2.114,0.956 -2.113,2.131c-0,1.176 0.947,2.131 2.114,2.13c1.167,0 2.114,-0.955 2.114,-2.131c-0.001,-1.175 -0.948,-2.13 -2.115,-2.13Z" style="fill:#aac1ae;"/><path d="M256.08,171.683c-1.167,0 -2.114,0.955 -2.114,2.131c0.001,1.175 0.948,2.13 2.115,2.13c1.167,-0.001 2.114,-0.955 2.113,-2.131c0,-1.176 -0.947,-2.131 -2.114,-2.13Z" style="fill:#aac1ae;"/><path d="M256.078,162.396c-1.167,0 -2.114,0.955 -2.114,2.131c0.001,1.176 0.948,2.13 2.115,2.13c1.167,-0 2.114,-0.955 2.113,-2.131c0,-1.176 -0.947,-2.13 -2.114,-2.13Z" style="fill:#aac1ae;"/><path d="M256.076,153.109c-1.167,0.001 -2.114,0.955 -2.114,2.131c0.001,1.176 0.948,2.13 2.115,2.13c1.166,-0 2.114,-0.955 2.113,-2.131c-0,-1.176 -0.947,-2.13 -2.114,-2.13Z" style="fill:#aac1ae;"/><path d="M256.074,143.823c-1.167,-0 -2.114,0.955 -2.114,2.13c0,1.176 0.948,2.131 2.115,2.13c1.166,0 2.113,-0.955 2.113,-2.13c-0,-1.176 -0.948,-2.131 -2.114,-2.13Z" style="fill:#aac1ae;"/><path d="M256.072,134.536c-1.167,0 -2.114,0.955 -2.114,2.131c0,1.176 0.948,2.13 2.115,2.13c1.166,-0.001 2.113,-0.955 2.113,-2.131c-0,-1.176 -0.948,-2.13 -2.114,-2.13Z" style="fill:#aac1ae;"/><path d="M256.07,125.249c-1.167,0 -2.114,0.955 -2.114,2.131c0,1.176 0.948,2.13 2.114,2.13c1.167,-0 2.114,-0.955 2.114,-2.131c-0,-1.176 -0.948,-2.13 -2.114,-2.13Z" style="fill:#aac1ae;"/><path d="M256.067,115.962c-1.166,0.001 -2.113,0.955 -2.113,2.131c0,1.176 0.948,2.131 2.114,2.13c1.167,-0 2.114,-0.955 2.114,-2.131c-0,-1.175 -0.948,-2.13 -2.115,-2.13Z" style="fill:#aac1ae;"/><path d="M256.065,106.676c-1.166,-0 -2.113,0.955 -2.113,2.131c0,1.175 0.948,2.13 2.114,2.13c1.167,-0.001 2.114,-0.956 2.114,-2.131c-0,-1.176 -0.948,-2.131 -2.115,-2.13Z" style="fill:#aac1ae;"/><path d="M256.063,97.389c-1.167,0 -2.114,0.955 -2.113,2.131c-0,1.176 0.947,2.13 2.114,2.13c1.167,-0 2.114,-0.955 2.114,-2.131c-0.001,-1.176 -0.948,-2.13 -2.115,-2.13Z" style="fill:#aac1ae;"/><path d="M256.061,88.102c-1.167,0 -2.114,0.955 -2.113,2.131c-0,1.176 0.947,2.13 2.114,2.13c1.167,-0 2.114,-0.955 2.114,-2.131c-0.001,-1.176 -0.948,-2.13 -2.115,-2.13Z" style="fill:#aac1ae;"/><path d="M256.059,78.815c-1.167,0.001 -2.114,0.956 -2.113,2.131c-0,1.176 0.947,2.131 2.114,2.13c1.167,0 2.114,-0.955 2.114,-2.131c-0.001,-1.175 -0.948,-2.13 -2.115,-2.13Z" style="fill:#aac1ae;"/><path d="M256.057,69.529c-1.167,-0 -2.114,0.955 -2.114,2.131c0.001,1.175 0.948,2.13 2.115,2.13c1.167,-0.001 2.114,-0.955 2.113,-2.131c0,-1.176 -0.947,-2.131 -2.114,-2.13Z" style="fill:#aac1ae;"/></g><path d="M309.287,249.608l0.007,28.457l33.379,-0.007l-0.007,-28.458l-33.379,0.008Z" style="fill:#aac1ae;"/><path d="M263.913,250.653l0.006,26.733l33.031,-0.008l-0.006,-26.733l-33.031,0.008Z" style="fill:#aac1ae;"/><path d="M276.699,146.291l0.003,11.116l14.6,-0.003l-0.002,-11.116l-14.601,0.003Z" style="fill:#aac1ae;"/><path d="M278.062,165.829l0.002,11.116l13.582,-0.003l-0.002,-11.116l-13.582,0.003Z" style="fill:#aac1ae;"/><path d="M290.292,196.817l0.003,10.105l3.056,-0l-0.003,-10.106l-3.056,0.001Z" style="fill:#aac1ae;"/><path d="M280.106,197.156l0.002,9.432l4.414,-0.001l-0.002,-9.432l-4.414,0.001Z" style="fill:#aac1ae;"/><path d="M269.58,197.158l0.002,9.095l5.093,-0.001l-0.002,-9.095l-5.093,0.001Z" style="fill:#aac1ae;"/><path d="M268.905,217.37l0.003,11.79l14.601,-0.003l-0.003,-11.79l-14.601,0.003Z" style="fill:#aac1ae;"/><path d="M310.332,223.087l0.002,8.758l4.753,-0.001l-0.002,-8.758l-4.753,0.001Z" style="fill:#aac1ae;"/><path d="M320.179,223.085l0.002,8.758l5.432,-0.001l-0.001,-8.758l-5.433,0.001Z" style="fill:#aac1ae;"/><path d="M329.686,222.409l0.002,10.443l5.094,-0.001l-0.003,-10.443l-5.093,0.001Z" style="fill:#aac1ae;"/><path d="M312.364,198.833l0.003,16.843l20.373,-0.005l-0.003,-16.843l-20.373,0.005Z" style="fill:#aac1ae;"/><path d="M312.7,184.685l0.002,9.095l16.638,-0.004l-0.002,-9.095l-16.638,0.004Z" style="fill:#aac1ae;"/><path d="M314.392,157.399l0.005,24.591l14.261,-0.004l-0.005,-24.59l-14.261,0.003Z" style="fill:#aac1ae;"/><path d="M312.352,146.283l0.002,9.432l19.015,-0.004l-0.002,-9.432l-19.015,0.004Z" style="fill:#aac1ae;"/><path d="M286.215,184.017l0.001,6.4l10.866,-0.002l-0.001,-6.4l-10.866,0.002Z" style="fill:#aac1ae;"/><path d="M269.237,184.021l0.002,6.063l11.884,-0.002l-0.001,-6.064l-11.885,0.003Z" style="fill:#aac1ae;"/></g><g><g><path d="M335.364,98.578l5.011,-0l-0,-3.507l-5.011,0l0,3.507Z" style="fill:#aac1ae;"/><path d="M335.358,70.459l5.011,0l-0,-3.506l-5.011,-0l0,3.506Z" style="fill:#aac1ae;"/><path d="M335.359,75.145l5.011,0l-0,-3.506l-5.011,0l0,3.506Z" style="fill:#aac1ae;"/><path d="M335.36,79.832l5.011,-0l-0,-3.506l-5.011,-0l0,3.506Z" style="fill:#aac1ae;"/><path d="M335.361,84.518l5.011,0l-0,-3.506l-5.011,0l0,3.506Z" style="fill:#aac1ae;"/><path d="M335.362,89.205l5.011,-0l-0,-3.506l-5.011,-0l0,3.506Z" style="fill:#aac1ae;"/><path d="M335.363,93.891l5.011,0l-0,-3.506l-5.011,-0l0,3.506Z" style="fill:#aac1ae;"/><path d="M335.366,107.951l5.011,-0l0,-3.507l-5.011,0l0,3.507Z" style="fill:#aac1ae;"/><path d="M335.368,112.637l5.01,0l0,-3.506l-5.011,-0l0.001,3.506Z" style="fill:#aac1ae;"/><path d="M335.369,117.323l5.01,0.001l0,-3.507l-5.011,0l0.001,3.506Z" style="fill:#aac1ae;"/><path d="M335.37,122.01l5.01,-0l0,-3.506l-5.011,-0l0.001,3.506Z" style="fill:#aac1ae;"/><path d="M335.371,126.696l5.01,0l0,-3.506l-5.01,0l-0,3.506Z" style="fill:#aac1ae;"/><path d="M335.372,131.383l5.011,-0l-0.001,-3.506l-5.01,-0l-0,3.506Z" style="fill:#aac1ae;"/><path d="M335.365,103.264l5.011,0l0,-3.506l-5.011,-0l0,3.506Z" style="fill:#aac1ae;"/></g><g><path d="M267.049,98.814l5.01,-0l0,-3.506l-5.011,-0l0.001,3.506Z" style="fill:#aac1ae;"/><path d="M267.042,70.695l5.011,0l-0,-3.506l-5.011,-0l0,3.506Z" style="fill:#aac1ae;"/><path d="M267.043,75.382l5.011,-0l-0,-3.507l-5.011,0l0,3.507Z" style="fill:#aac1ae;"/><path d="M267.044,80.068l5.011,0l-0,-3.506l-5.011,-0l0,3.506Z" style="fill:#aac1ae;"/><path d="M267.045,84.754l5.011,0l-0,-3.506l-5.011,0l0,3.506Z" style="fill:#aac1ae;"/><path d="M267.046,89.441l5.011,-0l0,-3.506l-5.011,-0l0,3.506Z" style="fill:#aac1ae;"/><path d="M267.047,94.127l5.011,0l0,-3.506l-5.011,0l0,3.506Z" style="fill:#aac1ae;"/><path d="M267.051,108.187l5.01,-0l0,-3.507l-5.011,0l0.001,3.507Z" style="fill:#aac1ae;"/><path d="M267.052,112.873l5.01,0l0,-3.506l-5.01,-0l-0,3.506Z" style="fill:#aac1ae;"/><path d="M267.053,117.56l5.011,-0l-0.001,-3.507l-5.01,0l-0,3.507Z" style="fill:#aac1ae;"/><path d="M267.054,122.246l5.011,0l-0.001,-3.506l-5.01,-0l-0,3.506Z" style="fill:#aac1ae;"/><path d="M267.055,126.932l5.011,0.001l-0.001,-3.507l-5.01,0l-0,3.506Z" style="fill:#aac1ae;"/><path d="M267.056,131.619l5.011,-0l-0,-3.506l-5.011,-0l-0,3.506Z" style="fill:#aac1ae;"/><path d="M267.05,103.5l5.01,0l0,-3.506l-5.011,-0l0.001,3.506Z" style="fill:#aac1ae;"/></g><g><path d="M328.353,132.452l0.002,6.738l3.056,-0.001l-0.002,-6.737l-3.056,0Z" style="fill:#aac1ae;"/><path d="M323.577,132.453l0.002,6.738l3.056,-0.001l-0.002,-6.737l-3.056,0Z" style="fill:#aac1ae;"/><path d="M318.801,132.455l0.002,6.737l3.056,-0.001l-0.002,-6.737l-3.056,0.001Z" style="fill:#aac1ae;"/><path d="M314.025,132.456l0.002,6.737l3.056,-0.001l-0.002,-6.737l-3.056,0.001Z" style="fill:#aac1ae;"/><path d="M309.25,132.457l0.001,6.737l3.056,-0.001l-0.001,-6.737l-3.056,0.001Z" style="fill:#aac1ae;"/><path d="M304.474,132.458l0.001,6.737l3.056,-0.001l-0.001,-6.737l-3.056,0.001Z" style="fill:#aac1ae;"/><path d="M299.698,132.459l0.001,6.737l3.056,-0.001l-0.001,-6.737l-3.056,0.001Z" style="fill:#aac1ae;"/><path d="M294.922,132.46l0.002,6.737l3.055,-0.001l-0.001,-6.737l-3.056,0.001Z" style="fill:#aac1ae;"/><path d="M290.146,132.461l0.002,6.737l3.056,-0.001l-0.002,-6.737l-3.056,0.001Z" style="fill:#aac1ae;"/><path d="M285.37,132.462l0.002,6.737l3.056,-0l-0.002,-6.738l-3.056,0.001Z" style="fill:#aac1ae;"/><path d="M280.594,132.463l0.002,6.737l3.056,-0l-0.002,-6.738l-3.056,0.001Z" style="fill:#aac1ae;"/><path d="M275.819,132.464l0.001,6.737l3.056,-0l-0.002,-6.737l-3.055,0Z" style="fill:#aac1ae;"/></g></g></g></g></g><g id="Group---ICONS" serif:id="Group - ICONS"></g><defs><linearGradient id="_Linear1" x1="0" y1="0" x2="1" y2="0" gradientUnits="userSpaceOnUse" gradientTransform="matrix(-6.1731,-304.539,304.539,-6.1731,545.012,1271.32)"><stop offset="0" style="stop-color:#b66e41;stop-opacity:1"/><stop offset="0.38" style="stop-color:#875438;stop-opacity:1"/><stop offset="1" style="stop-color:#4e342e;stop-opacity:1"/></linearGradient><linearGradient id="_Linear2" x1="0" y1="0" x2="1" y2="0" gradientUnits="userSpaceOnUse" gradientTransform="matrix(15.1899,54.2002,-54.2002,15.1899,646.399,598.243)"><stop offset="0" style="stop-color:#d49c52;stop-opacity:1"/><stop offset="1" style="stop-color:#ab670e;stop-opacity:1"/></linearGradient><linearGradient id="_Linear3" x1="0" y1="0" x2="1" y2="0" gradientUnits="userSpaceOnUse" gradientTransform="matrix(54.2002,-126.697,126.697,54.2002,540.415,508.484)"><stop offset="0" style="stop-color:#d49c52;stop-opacity:1"/><stop offset="1" style="stop-color:#1eab0e;stop-opacity:1"/></linearGradient><linearGradient id="_Linear4" x1="0" y1="0" x2="1" y2="0" gradientUnits="userSpaceOnUse" gradientTransform="matrix(-88.0322,73.5328,-73.5328,-88.0322,383.338,465.331)"><stop offset="0" style="stop-color:#d49c52;stop-opacity:1"/><stop offset="1" style="stop-color:#ab670e;stop-opacity:1"/></linearGradient><linearGradient id="_Linear5" x1="0" y1="0" x2="1" y2="0" gradientUnits="userSpaceOnUse" gradientTransform="matrix(-57.6525,39.7008,-39.7008,-57.6525,375.053,489.152)"><stop offset="0" style="stop-color:#d49c52;stop-opacity:1"/><stop offset="1" style="stop-color:#ab670e;stop-opacity:1"/></linearGradient><linearGradient id="_Linear6" x1="0" y1="0" x2="1" y2="0" gradientUnits="userSpaceOnUse" gradientTransform="matrix(-2.509,-125.45,125.45,-2.509,601.305,408.477)"><stop offset="0" style="stop-color:#fff;stop-opacity:1"/><stop offset="1" style="stop-color:#1000ff;stop-opacity:1"/></linearGradient><linearGradient id="_Linear7" x1="0" y1="0" x2="1" y2="0" gradientUnits="userSpaceOnUse" gradientTransform="matrix(-2.509,-125.45,125.45,-2.509,616.055,425.333)"><stop offset="0" style="stop-color:#fff;stop-opacity:1"/><stop offset="1" style="stop-color:#1000ff;stop-opacity:1"/></linearGradient><linearGradient id="_Linear8" x1="0" y1="0" x2="1" y2="0" gradientUnits="userSpaceOnUse" gradientTransform="matrix(-2.509,-125.45,125.45,-2.509,599.198,417.958)"><stop offset="0" style="stop-color:#fff;stop-opacity:1"/><stop offset="1" style="stop-color:#1000ff;stop-opacity:1"/></linearGradient></defs></svg>