<?xml version="1.0" encoding="UTF-8" standalone="no"?>
<!DOCTYPE svg PUBLIC "-//W3C//DTD SVG 1.1//EN" "http://www.w3.org/Graphics/SVG/1.1/DTD/svg11.dtd">
<svg width="100%" height="100%" viewBox="0 0 3542 5329" version="1.1" xmlns="http://www.w3.org/2000/svg" xmlns:xlink="http://www.w3.org/1999/xlink" xml:space="preserve" xmlns:serif="http://www.serif.com/" style="fill-rule:evenodd;clip-rule:evenodd;stroke-linecap:round;stroke-linejoin:round;stroke-miterlimit:1.5;">
    <g transform="matrix(1,0,0,1,-87676.8,-10928.3)">
        <g id="Artboard3" transform="matrix(1,0,0,1,-18411.4,-1720.21)">
            <rect x="91852.7" y="1720.21" width="29362" height="31338.3" style="fill:none;"/>
            <g id="Artboard4" transform="matrix(1,0,0,1,1032.47,3758.47)">
                <rect x="105056" y="8890.08" width="3541.77" height="5328.3" style="fill:none;"/>
                <g transform="matrix(1,0,0,1,33656.4,-3590.05)">
                    <g>
                        <g transform="matrix(16.417,0,0,16.417,107084,9057.14)">
                            <g transform="matrix(1,0,0,1,-2670.16,-106.793)">
                                <path d="M639.551,425.897C640.495,427.081 641.109,428.122 641.109,428.122C647.655,432.898 645.896,442.054 640.655,449.52C639.96,450.51 639.262,452.861 639.262,452.861C639.262,452.861 638.426,449.329 637.751,448.268C636.525,446.345 633.592,443.135 632.605,439.974C630.296,432.578 636.287,428.35 637.969,428.639C638.411,428.715 638.209,427.739 638.059,427.343C637.965,427.094 637.865,426.863 637.759,426.649C638.134,426.471 638.646,426.235 639.551,425.897ZM638.025,444.826C639.031,443.172 641.691,435.35 640.306,432.366C640.199,432.134 639.611,431.804 639.627,432.056C639.872,436.06 640.233,437.505 637.382,444.116C637.177,444.59 637.475,445.729 638.025,444.826Z" style="fill:url(#_Linear1);"/>
                            </g>
                            <g transform="matrix(1,0,0,1,-2670.16,-106.793)">
                                <path d="M608.408,434.851C608.638,435.436 608.764,435.82 608.764,435.82C608.764,435.82 608.913,436.147 609.126,436.604C609.191,436.686 609.249,436.759 609.301,436.82C609.844,437.465 612.894,440.25 612.894,440.25C612.786,438.433 614.294,432.13 613.277,429.83C612.192,427.378 612.893,429.55 608.073,422.838C611.406,424.397 611.559,425.052 611.559,425.052C611.559,425.052 614.642,427.4 615.47,427.285C615.47,427.285 616.237,422.618 616.18,421.032C616.146,420.09 616.382,415.824 616.069,414.94C615.535,413.428 610.832,412.379 608.581,412.336C606.272,412.291 604.179,412.305 601.874,414.345C601.574,413.579 601.389,412.998 601.296,412.685C602.388,412.185 605.512,410.835 607.492,410.779C609.922,410.71 615.405,412.256 615.485,412.455C615.562,412.648 618.168,413.371 618.022,413.051L619.789,404.098L621.371,412.018C624.711,410.73 625.13,409.45 629.556,406.818L621.303,415.367C620.573,419.862 621.076,424.44 621.246,428.224C621.238,428.248 621.239,428.268 621.249,428.283L621.246,428.224C621.5,427.453 630.435,422.17 634.957,422.534C636.632,422.669 638.356,424.398 639.551,425.897C638.646,426.235 638.134,426.471 637.759,426.649C635.857,422.807 632.163,424.544 629.469,425.173C626.626,425.837 623.39,429.086 622.755,430.449C621.655,432.806 621.38,438.778 621.38,438.778L621.497,451.471C621.757,455.29 623.285,460.939 622.95,462.785C622.809,463.56 621.162,462.787 619.853,462.593C619.606,462.556 618.56,462.686 618.371,462.719C616.152,463.117 617.232,462.917 615.047,462.984C612.778,463.053 612.922,462.336 612.195,461.906C610.557,460.937 614.07,452.297 612.166,444.2C611.613,441.847 611.031,440.81 609.301,439.057C609.285,439.041 608.442,438.048 607.782,437.255C607.95,436.637 608.19,435.708 608.408,434.851Z" style="fill:url(#_Linear2);"/>
                            </g>
                            <g transform="matrix(1,0,0,1,-2670.16,-106.793)">
                                <path d="M607.782,437.255C607.352,436.739 607,436.307 607.004,436.284C604.454,443.96 598.135,448.903 589.687,449.826C586.323,449.881 584.084,450.521 584.084,450.521C584.084,450.521 587.316,441.847 589.568,437.397C591.772,433.04 599.464,427.968 604.133,429.16C606.136,429.671 607.729,433.13 608.408,434.851C608.19,435.708 607.95,436.637 607.782,437.255ZM602.831,434.103C602.299,434.119 600.824,434.315 600.139,434.568C597.825,435.423 594.571,439.385 594.161,442.012C593.908,443.633 592.621,443.593 592.208,444.894C592.143,445.098 592.27,445.467 592.377,445.506C592.484,445.546 592.886,445.567 593.047,445.418C593.767,444.751 594.373,444.399 594.751,442.931C595.626,439.54 598.432,436.975 599.959,435.83C600.811,435.191 602.178,434.977 603.129,434.905C603.129,434.905 603.452,434.786 603.332,434.473C603.26,434.285 603.046,434.097 602.831,434.103Z" style="fill:url(#_Linear3);"/>
                            </g>
                            <g transform="matrix(1,0,0,1,-2670.16,-106.793)">
                                <path d="M601.874,414.345C601.761,414.446 601.647,414.551 601.533,414.661C603.665,419.963 600.706,424.382 596.287,426.154C593.832,427.138 588.616,427.825 583.513,427.364C580.254,427.069 577.76,427.803 577.76,427.803C579.839,424.545 581.568,418.848 584.899,415.75C588.598,412.31 595.707,411.398 599.779,413.267L600.903,412.868C600.903,412.868 601.047,412.799 601.296,412.685C601.389,412.998 601.574,413.579 601.874,414.345ZM583.657,425.104L583.981,425.359C588.001,420.314 591.871,418.542 596.834,418.722C596.834,418.722 597.293,418.275 597.199,418.103C597.104,417.931 596.266,417.69 596.266,417.69C588.078,417.429 583.215,424.879 583.657,425.104Z" style="fill:url(#_Linear4);"/>
                            </g>
                        </g>
                        <g transform="matrix(5.10414,0.0834166,-0.0892746,5.46259,79377.5,11473.1)">
                            <path d="M-1173.84,714.794C-1171.88,714.719 -1170.34,715.328 -1167.15,714.752C-1161.82,713.789 -1154.59,711.749 -1152.79,714.028C-1148.19,719.837 -1153.4,755.999 -1146.11,766.905C-1141.02,774.524 -1142.34,784.107 -1136.25,789.729C-1126.2,799.01 -1116.5,807.891 -1104.75,814.027C-1092.63,820.349 -1072.48,824.825 -1063.57,827.661C-1054.81,830.451 -1016.6,839.324 -1016.6,839.324C-1028.65,836.736 -1064.44,837.779 -1064.44,837.779L-1080.11,841.268C-1080.11,841.268 -1094.46,832.933 -1103.89,830.071C-1119.41,825.357 -1127.79,823.048 -1127.79,823.048C-1128.66,832.716 -1127.55,841.42 -1125.15,849.277C-1123.32,855.321 -1118.67,860.356 -1115.02,869.586C-1113.72,872.859 -1104.62,883.518 -1093.87,892.043C-1079.38,903.534 -1073.94,915.068 -1073.94,915.068C-1060.75,933.615 -1055.94,949.857 -1052.32,965.768C-1060.71,952.855 -1069.03,935.206 -1081.17,920.609C-1089.15,911.022 -1099.63,904.302 -1109.84,895.661L-1111.96,908.683L-1121.46,915.317C-1120.87,906.337 -1119.87,894.828 -1123.07,885.126C-1126.41,874.975 -1136.38,863.089 -1141.55,854.41C-1145.77,847.318 -1154.09,833.054 -1154.09,833.054L-1162.67,828.619C-1162.67,828.619 -1163.69,836.473 -1161.52,844.216C-1157.92,857.031 -1150.38,873.568 -1150.16,883.342C-1149.73,902.652 -1157.45,915.754 -1157.36,920.663C-1160.1,922.39 -1149.61,880.23 -1172.62,843.955C-1187.76,849.203 -1198.35,879.032 -1200.44,905.163C-1207.61,885.767 -1197.3,856.975 -1185.92,839.341C-1177.73,826.649 -1175.27,834.344 -1175.45,804.959C-1181.56,806.414 -1187.85,806.424 -1194.12,810.232C-1197.78,812.461 -1203.69,819.072 -1204.81,821.187C-1211.53,833.912 -1217.85,845.211 -1225.8,852.744C-1232.75,859.333 -1250.51,867.395 -1250.51,867.395C-1244.41,866.078 -1210.88,834.534 -1213.05,813.378C-1214.53,809.992 -1248.07,814.272 -1276.33,836.798C-1274.59,817.271 -1230.37,804.71 -1215.9,797.67C-1207.11,793.392 -1186.55,784.75 -1187.11,785.593C-1187.11,785.593 -1177.04,774.629 -1174.26,764.041C-1171.2,752.4 -1176.8,714.906 -1173.84,714.794Z" style="fill:rgb(212,156,82);"/>
                        </g>
                    </g>
                    <g transform="matrix(15.4831,0,0,15.9275,67710.2,10251.6)">
                        <g transform="matrix(0.676711,0.120227,-0.124871,0.651426,303.843,73.494)">
                            <path d="M164.916,318.899C166.857,320.378 171.163,320.316 169.237,317.747C168.897,317.292 169.11,314.576 168,314C167.189,313.579 166.293,311.736 165,311C164.383,310.649 161.893,310.686 161.252,310.811C160.706,310.917 157.704,312.704 158,313C160,315 160.372,316.892 160,318C159.437,319.679 164.078,318.26 164.916,318.899Z" style="fill:rgb(204,88,3);"/>
                        </g>
                        <g transform="matrix(0.667117,0.162491,-0.126399,0.480951,300.081,129.742)">
                            <path d="M146.494,310.589C146.738,310.362 149.392,308.637 150.791,308.073C152.95,307.202 154.701,310.611 154.892,311.636C155.251,313.558 155.504,315.837 154.494,317.265C154.08,317.849 153.24,321.011 152.494,322.606C151.66,324.386 150.026,327.962 149.494,327.947C145.652,327.839 140.915,315.774 146.494,310.589Z" style="fill:rgb(204,88,3);"/>
                        </g>
                        <g transform="matrix(0.556704,0.398897,-0.414359,0.535893,390.089,16.159)">
                            <path d="M303.612,317.687C303.445,316.52 303.945,315.02 304.612,313.687C305.612,311.687 305.612,308.687 305.612,308.687C305.929,308.449 309.783,311.475 310.612,312.687C311.207,313.557 313.858,315.934 314.612,316.687C315.457,317.532 321.607,320.516 319.612,322.687C315.193,327.497 308.612,322.687 305.612,320.687C305.612,320.687 303.778,318.854 303.612,317.687Z" style="fill:rgb(204,88,3);"/>
                        </g>
                        <g transform="matrix(0.571874,0.378489,-0.393158,0.550496,379.124,17.4896)">
                            <path d="M288.612,300.687C290.306,300.914 291.498,301.481 292.612,301.687C293.865,301.919 295.872,301.928 297.612,302.687C299.184,303.373 300.238,305.242 301.612,305.687C303.192,306.199 304.278,308.52 304.612,309.687C304.871,310.594 303.612,312.687 303.612,312.687C303.612,312.687 302.802,317.283 301.272,317.061C300.387,316.933 299.319,316.682 297.991,316.099C296.251,315.337 295.567,314.724 293.612,314.687C293.126,314.678 290.983,311.726 290.612,310.687C289.778,308.354 288.612,300.687 288.612,300.687Z" style="fill:rgb(204,88,3);"/>
                        </g>
                        <g transform="matrix(0.623304,0.293752,-0.305131,0.600008,337.272,25.8716)">
                            <path d="M270.612,321.687C270.612,321.687 267.191,316.832 266.612,314.687C266.503,314.286 265.935,312.69 265.612,311.687C265.103,310.109 268.243,307.428 263.559,305.219C263.062,304.985 258.158,303.034 259.612,299.687C259.979,298.841 262.877,299.858 263.612,299.687C265.042,299.354 268.898,300.207 271.612,300.687C274.778,301.247 278.017,301.481 279.612,300.687C280.967,300.013 283.958,300.009 286.612,300.687C287.32,300.868 287.612,301.614 287.612,304.687C287.612,307.687 289.954,311.506 289.612,313.687C289.414,314.946 283.438,316.687 281.612,316.687C276.449,316.687 270.612,321.687 270.612,321.687Z" style="fill:rgb(204,88,3);"/>
                        </g>
                        <g transform="matrix(0.573021,0.376876,-0.391483,0.551601,385.444,29.4607)">
                            <path d="M267.704,309.55C267.704,309.55 283,320.5 283,323C283,325.5 267,324 267,324C265.371,320.209 262.373,316.542 258,313C260.535,310.787 263.596,309.373 267.704,309.55Z" style="fill:rgb(204,88,3);"/>
                        </g>
                        <g transform="matrix(0.573021,0.376876,-0.391483,0.551601,385.444,29.4607)">
                            <path d="M264,325C262.576,328.627 256.103,327.931 256,327C256,327 253.973,322.077 254,321C254.037,319.51 258.48,318.24 260,319C261.667,319.833 264,325 264,325" style="fill:rgb(204,88,3);"/>
                        </g>
                        <g transform="matrix(0.573021,0.376876,-0.391483,0.551601,385.444,29.4607)">
                            <path d="M267,327C270.538,326.586 281.792,326.46 282,325L270.79,338.654C264.187,340.329 262.361,339.062 259,336C259.573,336.478 263.935,327.359 267,327Z" style="fill:rgb(204,88,3);"/>
                        </g>
                        <g transform="matrix(0.691652,0.0547272,-0.0568279,0.665811,229.023,69.3037)">
                            <path d="M289.612,368.687C286.939,368.536 287.812,362.646 289.612,360.687C290.098,360.158 289.904,357.709 290.612,357.687C294.053,357.578 308.738,355.445 313.743,359.487C315.11,360.591 315.605,364.552 313.612,365.687C311.211,367.054 308,366.786 304.612,367.687C302.467,368.257 290.933,368.762 289.612,368.687Z" style="fill:rgb(204,88,3);"/>
                        </g>
                        <g transform="matrix(0.582125,0.00967714,-0.0100331,0.560377,259.371,100.597)">
                            <path d="M104,566C104.301,567.743 99.146,567.975 97,567C93.333,565.333 83.52,561.282 82,556C81.431,554.022 79,544 79,544C79,544 76.088,534.796 74,532C59.161,512.129 45,498 38.393,488.106C33.401,480.629 31.926,470.836 33,463C34.074,455.164 38.968,446.026 45,441C51,436 59.945,432 69,432C78,432 83.954,434.07 90,438C110,451 150.136,504.632 179,535L142,534C142,534 125.825,533.946 118,537C106.055,541.661 101.993,554.361 104,566ZM69.5,443C55.426,443 44,454.426 44,468.5C44,482.574 55.426,494 69.5,494C83.574,494 95,482.574 95,468.5C95,454.426 83.574,443 69.5,443Z" style="fill:rgb(204,88,3);"/>
                        </g>
                        <g transform="matrix(0.578648,-0.000142116,0.0001695,0.565113,260.964,104.768)">
                            <path d="M52.343,613.362L52.327,585.578C52.852,580.482 65.422,555.452 68.426,559.669C77.609,572.561 100.472,572.422 102.635,570.579C105.661,568.001 104.647,563.636 101.629,556.694C94.233,539.685 113.074,536.09 120.784,536.018C136.844,535.867 198.214,535.999 198.214,535.999C204.45,536.58 207.72,540.379 208.262,547.004L208.289,576.657L242.363,576.704C245.343,577.62 247.421,579.568 248.548,582.605L248.548,613.35L52.343,613.362ZM186.616,547.623C182.512,547.623 179.181,551.137 179.181,555.465C179.181,559.794 182.512,563.308 186.616,563.308C190.719,563.308 194.05,559.794 194.05,555.465C194.05,551.137 190.719,547.623 186.616,547.623Z" style="fill:rgb(142,119,106);"/>
                            <path d="M52.343,613.362L52.327,585.578C52.852,580.482 65.422,555.452 68.426,559.669C77.609,572.561 100.472,572.422 102.635,570.579C105.661,568.001 104.647,563.636 101.629,556.694C94.233,539.685 113.074,536.09 120.784,536.018C136.844,535.867 198.214,535.999 198.214,535.999C204.45,536.58 207.72,540.379 208.262,547.004L208.289,576.657L242.363,576.704C245.343,577.62 247.421,579.568 248.548,582.605L248.548,613.35L52.343,613.362ZM186.616,547.623C182.512,547.623 179.181,551.137 179.181,555.465C179.181,559.794 182.512,563.308 186.616,563.308C190.719,563.308 194.05,559.794 194.05,555.465C194.05,551.137 190.719,547.623 186.616,547.623Z" style="fill:rgb(98,144,195);"/>
                        </g>
                        <g transform="matrix(0.599246,0.00996176,-0.0117053,0.653773,271.114,64.5433)">
                            <ellipse cx="49" cy="457" rx="17" ry="15" style="fill:rgb(98,144,195);"/>
                        </g>
                        <g transform="matrix(0.462276,0.00768479,-0.00902982,0.504339,317.342,69.1609)">
                            <path d="M49,442C58.383,442 66,448.721 66,457C66,465.279 58.383,472 49,472C39.617,472 32,465.279 32,457C32,448.721 39.617,442 49,442ZM49,448.667C43.787,448.667 39.556,452.401 39.556,457C39.556,461.599 43.787,465.333 49,465.333C54.213,465.333 58.444,461.599 58.444,457C58.444,452.401 54.213,448.667 49,448.667Z" style="fill:rgb(98,144,195);"/>
                        </g>
                        <g transform="matrix(-0.0297763,-0.661808,0.687491,-0.0286417,133.908,423.698)">
                            <path d="M151.76,351.608C152.741,351.033 155.361,351.298 155.986,351.132C157.359,350.768 160.686,352.469 161.849,350.925C162.946,349.466 163.791,348.214 163.894,346.525C163.945,345.681 164.789,345.732 164.789,345.732C164.789,345.732 166.062,346.277 166.427,346.679C166.938,347.241 168.3,350.197 171.464,349.635C171.699,349.593 170.24,353.691 170.24,353.691L169.14,357.862C169.14,357.862 166.346,363.798 167.042,364.516C168.28,365.794 174.693,364.132 174.693,364.132L184.946,380.457C184.946,380.457 185.818,382.258 187.091,384.899C190.29,391.536 196.016,403.474 196.771,405.448C196.771,405.448 192.429,404.019 191.175,405.4C188.79,408.026 184.909,408.48 183.99,405.274C183.013,401.867 178.322,403.999 175.548,404.047C174.985,404.057 170.558,404.776 170.558,404.776L159.262,392.201C157.819,392.494 138.703,397.117 137.901,397.311C137.898,397.264 137.889,397.263 137.875,397.317L137.901,397.311C137.932,397.819 137.26,403.735 134.421,405.771C133.981,406.087 131.356,404.425 130.878,403.843C129.724,402.437 126.757,402.821 125.081,401.835C124.066,401.238 124.539,396.689 126.763,392.417C128.891,388.33 130.878,385.874 132.471,384.041C134.959,381.179 139.841,379.681 142.204,376.709C144.484,373.842 152.293,365.985 153.36,363.262C153.4,363.161 153.58,359.388 153.198,358.52" style="fill:rgb(204,88,3);fill-opacity:0.99;"/>
                        </g>
                        <g transform="matrix(-0.0297763,-0.661808,0.687491,-0.0286417,133.572,423.693)">
                            <path d="M151.445,350.776C150.87,348.222 149.491,335.345 149.491,335.345C149.491,335.345 148.871,328.663 148.973,326.974C149.076,325.285 148.487,321.011 147.847,317.581C147.343,314.879 148.787,304.399 143.617,300.554C135.246,294.329 106.889,288.989 97.894,282.655C94.947,280.581 94.254,274.719 94.514,274.512C97.015,272.509 107.547,261.694 109.403,258.134C115.922,245.632 115.956,234.101 113.425,228.191C113.196,227.656 121.279,226.869 122.769,229.17C128.294,237.704 152.195,269.934 163.899,277.056C164.183,277.229 169.765,276.489 170.074,277.15C170.416,277.148 170.757,277.157 171.095,277.179C185.776,278.124 196.889,291.407 195.896,306.822C195.665,310.418 192.963,318.884 189.92,322.674C187.156,326.115 180.246,342.43 180.246,342.43C180.246,342.43 179.114,346.8 178.888,348.501C178.399,352.164 176.62,353.231 173.939,354.593C173.275,354.93 172.293,353.998 172.137,353.269C171.949,352.391 173.329,350.26 172.813,349.326C172.297,348.392 169.913,348.491 169.04,347.665C168.167,346.839 166.71,344.971 167.576,344.37C174.771,339.369 167.58,330.455 164.968,328.79C161.004,326.264 153.315,328.823 153.255,333.011C153.243,333.805 153.098,334.446 152.743,334.888L152.9,336.027C152.934,336.016 152.967,336.007 153,336C153.652,335.859 154.393,335.567 155,336C156.167,336.833 158.833,339.5 160,341C160.738,341.949 162.769,342.906 163,344C163.247,345.168 162.885,346.281 163,347C163.117,347.736 162,349 162,349C162,349 160.663,349.935 160,350C158.644,350.133 157.346,349.956 156,350C155.772,350.008 155.364,349.999 155.085,350.06C154.575,350.171 152.941,350.666 152.941,350.666C152.941,350.666 151.555,351.263 151.445,350.776ZM188.589,302.674C189.083,294.517 182.862,287.493 174.705,286.999C166.548,286.505 159.525,292.726 159.03,300.883C158.536,309.04 164.757,316.063 172.914,316.557C181.071,317.052 188.095,310.831 188.589,302.674Z" style="fill:rgb(204,88,3);fill-opacity:0.99;"/>
                        </g>
                    </g>
                    <g transform="matrix(16.4169,-0.0421294,0.0421294,16.4169,107067,8991.41)">
                        <g transform="matrix(0.177576,0,0,0.177576,-1917.86,241.236)">
                            <g transform="matrix(1,0,0,1,-1470.36,-872.707)">
                                <path d="M721.178,1062.24L707.309,1100.46L706.334,1111.6C704.401,1125.09 731.38,1136.34 735.97,1111.2L735.827,1100.74L721.178,1062.24Z" style="fill:url(#_Linear5);"/>
                            </g>
                            <g transform="matrix(1,0,0,1,-1504.24,-791.599)">
                                <path d="M721.178,1062.24L707.309,1100.46L706.334,1111.6C704.401,1125.09 731.38,1136.34 735.97,1111.2L735.827,1100.74L721.178,1062.24Z" style="fill:url(#_Linear6);"/>
                            </g>
                            <g transform="matrix(1,0,0,1,-1424.75,-798.532)">
                                <path d="M721.178,1062.24L707.309,1100.46L706.334,1111.6C704.401,1125.09 731.38,1136.34 735.97,1111.2L735.827,1100.74L721.178,1062.24Z" style="fill:url(#_Linear7);"/>
                            </g>
                        </g>
                        <g transform="matrix(0.943115,0,0,0.976934,-2380.65,56.8867)">
                            <g transform="matrix(1.20966,0,0,1.02361,-227.893,-515.874)">
                                <path d="M465.111,696.982L465.111,702.691C465.111,703.559 464.493,704.264 463.732,704.264L460.975,704.264C460.214,704.264 459.596,703.559 459.596,702.691L459.596,696.982C459.596,696.114 460.214,695.409 460.975,695.409L463.732,695.409C464.493,695.409 465.111,696.114 465.111,696.982Z" style="fill:rgb(128,128,128);"/>
                            </g>
                            <g transform="matrix(1.06032,0,0,1.02361,-159.257,-515.874)">
                                <path d="M495.094,696.108L495.094,704.342C495.094,704.77 494.746,705.118 494.317,705.118L492.764,705.118C492.335,705.118 491.987,704.77 491.987,704.342L491.987,696.108C491.987,695.679 492.335,695.331 492.764,695.331L494.317,695.331C494.746,695.331 495.094,695.679 495.094,696.108Z"/>
                            </g>
                            <g transform="matrix(1.82374,0,0,0.951778,-512.616,-466.033)">
                                <path d="M464.8,694.754L464.8,706.24C464.8,706.736 464.583,707.138 464.315,707.138L463.344,707.138C463.076,707.138 462.859,706.736 462.859,706.24L462.859,694.754C462.859,694.258 463.076,693.856 463.344,693.856L464.315,693.856C464.583,693.856 464.8,694.258 464.8,694.754Z" style="fill:rgb(128,128,128);"/>
                            </g>
                            <g transform="matrix(1.06032,0,0,1.02361,-159.257,-515.874)">
                                <path d="M500.997,698.283L500.997,702.167C500.997,703.239 500.127,704.109 499.055,704.109L494.55,704.109C493.478,704.109 492.608,703.239 492.608,702.167L492.608,698.283C492.608,697.211 493.478,696.341 494.55,696.341L499.055,696.341C500.127,696.341 500.997,697.211 500.997,698.283Z"/>
                            </g>
                            <g transform="matrix(1.06032,0,0,1.02361,-159.339,-515.874)">
                                <path d="M486.705,709.934L486.705,712.265C486.705,712.908 486.183,713.43 485.54,713.43L473.422,713.43C472.779,713.43 472.257,712.908 472.257,712.265L472.257,709.934C472.257,709.291 472.779,708.769 473.422,708.769L485.54,708.769C486.183,708.769 486.705,709.291 486.705,709.934Z"/>
                            </g>
                            <g transform="matrix(1.06032,0,0,1.02361,-159.257,-515.874)">
                                <path d="M481.967,712.75L481.967,718.848C481.967,719.587 481.366,720.188 480.627,720.188L477.947,720.188C477.207,720.188 476.607,719.587 476.607,718.848L476.607,712.75C476.607,712.011 477.207,711.41 477.947,711.41L480.627,711.41C481.366,711.41 481.967,712.011 481.967,712.75Z"/>
                            </g>
                            <g transform="matrix(1.12017,0,0,1.02361,-188.667,-516.351)">
                                <path d="M494.084,695.195L494.084,704.866C494.084,707.535 492.033,709.701 489.507,709.701L469.766,709.701C467.24,709.701 465.189,707.535 465.189,704.866L465.189,695.195C465.189,692.527 467.24,690.36 469.766,690.36L489.507,690.36C492.033,690.36 494.084,692.527 494.084,695.195Z" style="fill:rgb(78,52,46);"/>
                            </g>
                        </g>
                        <g transform="matrix(-0.0975442,0,0,-0.173679,-1745.07,312.925)">
                            <path d="M2714.95,399.398L2715.2,366.471C2719.02,350.323 2730.43,341.646 2746.55,338.443L2916.19,337.799L2915.55,350.865L2750.99,350.666C2736.83,353.464 2729.65,359.497 2728.77,368.445L2728.39,399.41L2714.95,399.398Z" style="stroke:black;stroke-width:0.43px;"/>
                        </g>
                        <g transform="matrix(-0.105609,2.37424e-05,2.35542e-05,0.104772,-1699.43,195.173)">
                            <g transform="matrix(1.06388,-1.38765e-17,-2.52714e-17,1,-235.879,0.0881776)">
                                <path d="M3786.88,395.249L3610.02,395.249L3610.02,753.135L3786.88,753.135L3786.88,395.249ZM3753.24,357.112L3641.24,357.112L3641.24,395.039L3753.24,395.039L3753.24,357.112Z" style="stroke:white;stroke-width:0.56px;"/>
                            </g>
                            <g>
                                <g transform="matrix(1,0,3.37081e-18,0.971568,0.360122,14.5715)">
                                    <rect x="3647.2" y="393.085" width="101.277" height="116.324" style="fill:rgb(170,193,174);"/>
                                </g>
                                <g>
                                    <g transform="matrix(1,0,0,1.01582,0.249049,330.251)">
                                        <circle cx="3616.2" cy="406.086" r="3.603" style="fill:rgb(170,193,174);"/>
                                    </g>
                                    <g transform="matrix(1,0,0,1.01582,0.249049,314.296)">
                                        <circle cx="3616.2" cy="406.086" r="3.603" style="fill:rgb(170,193,174);"/>
                                    </g>
                                    <g transform="matrix(1,0,0,1.01582,0.249049,298.341)">
                                        <circle cx="3616.2" cy="406.086" r="3.603" style="fill:rgb(170,193,174);"/>
                                    </g>
                                    <g transform="matrix(1,0,0,1.01582,0.249049,282.387)">
                                        <circle cx="3616.2" cy="406.086" r="3.603" style="fill:rgb(170,193,174);"/>
                                    </g>
                                    <g transform="matrix(1,0,0,1.01582,0.249049,266.432)">
                                        <circle cx="3616.2" cy="406.086" r="3.603" style="fill:rgb(170,193,174);"/>
                                    </g>
                                    <g transform="matrix(1,0,0,1.01582,0.249049,250.477)">
                                        <circle cx="3616.2" cy="406.086" r="3.603" style="fill:rgb(170,193,174);"/>
                                    </g>
                                    <g transform="matrix(1,0,0,1.01582,0.249049,234.522)">
                                        <circle cx="3616.2" cy="406.086" r="3.603" style="fill:rgb(170,193,174);"/>
                                    </g>
                                    <g transform="matrix(1,0,0,1.01582,0.249049,218.567)">
                                        <circle cx="3616.2" cy="406.086" r="3.603" style="fill:rgb(170,193,174);"/>
                                    </g>
                                    <g transform="matrix(1,0,0,1.01582,0.249049,202.613)">
                                        <circle cx="3616.2" cy="406.086" r="3.603" style="fill:rgb(170,193,174);"/>
                                    </g>
                                    <g transform="matrix(1,0,0,1.01582,0.249049,186.658)">
                                        <circle cx="3616.2" cy="406.086" r="3.603" style="fill:rgb(170,193,174);"/>
                                    </g>
                                    <g transform="matrix(1,0,0,1.01582,0.249049,170.703)">
                                        <circle cx="3616.2" cy="406.086" r="3.603" style="fill:rgb(170,193,174);"/>
                                    </g>
                                    <g transform="matrix(1,0,0,1.01582,0.249049,154.748)">
                                        <circle cx="3616.2" cy="406.086" r="3.603" style="fill:rgb(170,193,174);"/>
                                    </g>
                                    <g transform="matrix(1,0,0,1.01582,0.249049,138.794)">
                                        <circle cx="3616.2" cy="406.086" r="3.603" style="fill:rgb(170,193,174);"/>
                                    </g>
                                    <g transform="matrix(1,0,0,1.01582,0.249049,122.839)">
                                        <circle cx="3616.2" cy="406.086" r="3.603" style="fill:rgb(170,193,174);"/>
                                    </g>
                                    <g transform="matrix(1,0,0,1.01582,0.249049,106.884)">
                                        <circle cx="3616.2" cy="406.086" r="3.603" style="fill:rgb(170,193,174);"/>
                                    </g>
                                    <g transform="matrix(1,0,0,1.01582,0.249049,90.9292)">
                                        <circle cx="3616.2" cy="406.086" r="3.603" style="fill:rgb(170,193,174);"/>
                                    </g>
                                    <g transform="matrix(1,0,0,1.01582,0.249049,74.9744)">
                                        <circle cx="3616.2" cy="406.086" r="3.603" style="fill:rgb(170,193,174);"/>
                                    </g>
                                    <g transform="matrix(1,0,0,1.01582,0.249049,59.0196)">
                                        <circle cx="3616.2" cy="406.086" r="3.603" style="fill:rgb(170,193,174);"/>
                                    </g>
                                    <g transform="matrix(1,0,0,1.01582,0.249049,43.0648)">
                                        <circle cx="3616.2" cy="406.086" r="3.603" style="fill:rgb(170,193,174);"/>
                                    </g>
                                    <g transform="matrix(1,0,0,1.01582,0.249049,27.1101)">
                                        <circle cx="3616.2" cy="406.086" r="3.603" style="fill:rgb(170,193,174);"/>
                                    </g>
                                    <g transform="matrix(1,0,0,1.01582,0.249049,11.1553)">
                                        <circle cx="3616.2" cy="406.086" r="3.603" style="fill:rgb(170,193,174);"/>
                                    </g>
                                    <g transform="matrix(1,0,0,1.01582,0.249049,-4.79951)">
                                        <circle cx="3616.2" cy="406.086" r="3.603" style="fill:rgb(170,193,174);"/>
                                    </g>
                                </g>
                                <g transform="matrix(1,0,6.93889e-18,1,162.913,-0.978218)">
                                    <g transform="matrix(1,0,0,1.01582,0.249049,330.251)">
                                        <circle cx="3616.2" cy="406.086" r="3.603" style="fill:rgb(170,193,174);"/>
                                    </g>
                                    <g transform="matrix(1,0,0,1.01582,0.249049,314.296)">
                                        <circle cx="3616.2" cy="406.086" r="3.603" style="fill:rgb(170,193,174);"/>
                                    </g>
                                    <g transform="matrix(1,0,0,1.01582,0.249049,298.341)">
                                        <circle cx="3616.2" cy="406.086" r="3.603" style="fill:rgb(170,193,174);"/>
                                    </g>
                                    <g transform="matrix(1,0,0,1.01582,0.249049,282.387)">
                                        <circle cx="3616.2" cy="406.086" r="3.603" style="fill:rgb(170,193,174);"/>
                                    </g>
                                    <g transform="matrix(1,0,0,1.01582,0.249049,266.432)">
                                        <circle cx="3616.2" cy="406.086" r="3.603" style="fill:rgb(170,193,174);"/>
                                    </g>
                                    <g transform="matrix(1,0,0,1.01582,0.249049,250.477)">
                                        <circle cx="3616.2" cy="406.086" r="3.603" style="fill:rgb(170,193,174);"/>
                                    </g>
                                    <g transform="matrix(1,0,0,1.01582,0.249049,234.522)">
                                        <circle cx="3616.2" cy="406.086" r="3.603" style="fill:rgb(170,193,174);"/>
                                    </g>
                                    <g transform="matrix(1,0,0,1.01582,0.249049,218.567)">
                                        <circle cx="3616.2" cy="406.086" r="3.603" style="fill:rgb(170,193,174);"/>
                                    </g>
                                    <g transform="matrix(1,0,0,1.01582,0.249049,202.613)">
                                        <circle cx="3616.2" cy="406.086" r="3.603" style="fill:rgb(170,193,174);"/>
                                    </g>
                                    <g transform="matrix(1,0,0,1.01582,0.249049,186.658)">
                                        <circle cx="3616.2" cy="406.086" r="3.603" style="fill:rgb(170,193,174);"/>
                                    </g>
                                    <g transform="matrix(1,0,0,1.01582,0.249049,170.703)">
                                        <circle cx="3616.2" cy="406.086" r="3.603" style="fill:rgb(170,193,174);"/>
                                    </g>
                                    <g transform="matrix(1,0,0,1.01582,0.249049,154.748)">
                                        <circle cx="3616.2" cy="406.086" r="3.603" style="fill:rgb(170,193,174);"/>
                                    </g>
                                    <g transform="matrix(1,0,0,1.01582,0.249049,138.794)">
                                        <circle cx="3616.2" cy="406.086" r="3.603" style="fill:rgb(170,193,174);"/>
                                    </g>
                                    <g transform="matrix(1,0,0,1.01582,0.249049,122.839)">
                                        <circle cx="3616.2" cy="406.086" r="3.603" style="fill:rgb(170,193,174);"/>
                                    </g>
                                    <g transform="matrix(1,0,0,1.01582,0.249049,106.884)">
                                        <circle cx="3616.2" cy="406.086" r="3.603" style="fill:rgb(170,193,174);"/>
                                    </g>
                                    <g transform="matrix(1,0,0,1.01582,0.249049,90.9292)">
                                        <circle cx="3616.2" cy="406.086" r="3.603" style="fill:rgb(170,193,174);"/>
                                    </g>
                                    <g transform="matrix(1,0,0,1.01582,0.249049,74.9744)">
                                        <circle cx="3616.2" cy="406.086" r="3.603" style="fill:rgb(170,193,174);"/>
                                    </g>
                                    <g transform="matrix(1,0,0,1.01582,0.249049,59.0196)">
                                        <circle cx="3616.2" cy="406.086" r="3.603" style="fill:rgb(170,193,174);"/>
                                    </g>
                                    <g transform="matrix(1,0,0,1.01582,0.249049,43.0648)">
                                        <circle cx="3616.2" cy="406.086" r="3.603" style="fill:rgb(170,193,174);"/>
                                    </g>
                                    <g transform="matrix(1,0,0,1.01582,0.249049,27.1101)">
                                        <circle cx="3616.2" cy="406.086" r="3.603" style="fill:rgb(170,193,174);"/>
                                    </g>
                                    <g transform="matrix(1,0,0,1.01582,0.249049,11.1553)">
                                        <circle cx="3616.2" cy="406.086" r="3.603" style="fill:rgb(170,193,174);"/>
                                    </g>
                                    <g transform="matrix(1,0,0,1.01582,0.249049,-4.79951)">
                                        <circle cx="3616.2" cy="406.086" r="3.603" style="fill:rgb(170,193,174);"/>
                                    </g>
                                </g>
                                <g transform="matrix(1,0,3.46945e-18,1,0.360122,0.0881776)">
                                    <rect x="3631.46" y="712.386" width="56.891" height="48.891" style="fill:rgb(170,193,174);"/>
                                </g>
                                <g transform="matrix(1,0,3.46945e-18,1,0.360122,0.0881776)">
                                    <rect x="3709.39" y="714.164" width="56.299" height="45.928" style="fill:rgb(170,193,174);"/>
                                </g>
                                <g transform="matrix(1,0,3.46945e-18,1,0.360122,0.0881776)">
                                    <rect x="3718.97" y="534.874" width="24.885" height="19.098" style="fill:rgb(170,193,174);"/>
                                </g>
                                <g transform="matrix(1,0,3.46945e-18,1,0.360122,0.0881776)">
                                    <rect x="3718.39" y="568.44" width="23.149" height="19.098" style="fill:rgb(170,193,174);"/>
                                </g>
                                <g transform="matrix(1,0,3.46945e-18,1,0.360122,0.0881776)">
                                    <rect x="3715.49" y="621.683" width="5.209" height="17.362" style="fill:rgb(170,193,174);"/>
                                </g>
                                <g transform="matrix(1,0,3.88578e-18,1.12,0.360122,-76.5278)">
                                    <rect x="3730.54" y="623.998" width="7.523" height="14.468" style="fill:rgb(170,193,174);"/>
                                </g>
                                <g transform="matrix(1,0,2.83864e-18,0.818182,0.360122,116.068)">
                                    <rect x="3747.32" y="618.789" width="8.681" height="19.098" style="fill:rgb(170,193,174);"/>
                                </g>
                                <g transform="matrix(1,0,3.46945e-18,1,0.360122,0.0881776)">
                                    <rect x="3732.28" y="656.985" width="24.885" height="20.255" style="fill:rgb(170,193,174);"/>
                                </g>
                                <g transform="matrix(1,0,3.46945e-18,1,0.360122,0.0881776)">
                                    <rect x="3678.45" y="666.824" width="8.102" height="15.047" style="fill:rgb(170,193,174);"/>
                                </g>
                                <g transform="matrix(1,0,3.46945e-18,1,0.360122,0.0881776)">
                                    <rect x="3660.51" y="666.824" width="9.26" height="15.047" style="fill:rgb(170,193,174);"/>
                                </g>
                                <g transform="matrix(1,0,3.46945e-18,1,0.360122,0.0881776)">
                                    <rect x="3644.89" y="665.666" width="8.681" height="17.941" style="fill:rgb(170,193,174);"/>
                                </g>
                                <g transform="matrix(1,0,3.46945e-18,1,0.360122,0.0881776)">
                                    <rect x="3648.36" y="625.155" width="34.724" height="28.936" style="fill:rgb(170,193,174);"/>
                                </g>
                                <g transform="matrix(1,0,3.46945e-18,1,0.360122,0.0881776)">
                                    <rect x="3654.15" y="600.849" width="28.358" height="15.626" style="fill:rgb(170,193,174);"/>
                                </g>
                                <g transform="matrix(1,0,3.46945e-18,1,0.360122,0.0881776)">
                                    <rect x="3655.31" y="553.972" width="24.307" height="42.247" style="fill:rgb(170,193,174);"/>
                                </g>
                                <g transform="matrix(1,0,3.46945e-18,1,0.360122,0.0881776)">
                                    <rect x="3650.68" y="534.874" width="32.409" height="16.204" style="fill:rgb(170,193,174);"/>
                                </g>
                                <g transform="matrix(1,0,3.46945e-18,1,0.360122,0.0881776)">
                                    <rect x="3709.13" y="599.691" width="18.519" height="10.996" style="fill:rgb(170,193,174);"/>
                                </g>
                                <g transform="matrix(1,0,3.46945e-18,1,0.360122,0.0881776)">
                                    <rect x="3736.33" y="599.691" width="20.255" height="10.417" style="fill:rgb(170,193,174);"/>
                                </g>
                            </g>
                            <g>
                                <g transform="matrix(1,0,0,1.15652,-0.568913,-69.6406)">
                                    <g transform="matrix(0.00020293,1,-0.737859,0.000149734,4021.19,-3204.04)">
                                        <rect x="3650.68" y="511.146" width="5.209" height="11.575" style="fill:rgb(170,193,174);"/>
                                    </g>
                                    <g transform="matrix(0.00020293,1,-0.737859,0.000149734,4021.19,-3245.82)">
                                        <rect x="3650.68" y="511.146" width="5.209" height="11.575" style="fill:rgb(170,193,174);"/>
                                    </g>
                                    <g transform="matrix(0.00020293,1,-0.737859,0.000149734,4021.19,-3238.85)">
                                        <rect x="3650.68" y="511.146" width="5.209" height="11.575" style="fill:rgb(170,193,174);"/>
                                    </g>
                                    <g transform="matrix(0.00020293,1,-0.737859,0.000149734,4021.19,-3231.89)">
                                        <rect x="3650.68" y="511.146" width="5.209" height="11.575" style="fill:rgb(170,193,174);"/>
                                    </g>
                                    <g transform="matrix(0.00020293,1,-0.737859,0.000149734,4021.19,-3224.93)">
                                        <rect x="3650.68" y="511.146" width="5.209" height="11.575" style="fill:rgb(170,193,174);"/>
                                    </g>
                                    <g transform="matrix(0.00020293,1,-0.737859,0.000149734,4021.19,-3217.97)">
                                        <rect x="3650.68" y="511.146" width="5.209" height="11.575" style="fill:rgb(170,193,174);"/>
                                    </g>
                                    <g transform="matrix(0.00020293,1,-0.737859,0.000149734,4021.19,-3211.01)">
                                        <rect x="3650.68" y="511.146" width="5.209" height="11.575" style="fill:rgb(170,193,174);"/>
                                    </g>
                                    <g transform="matrix(0.00020293,1,-0.737859,0.000149734,4021.19,-3190.12)">
                                        <rect x="3650.68" y="511.146" width="5.209" height="11.575" style="fill:rgb(170,193,174);"/>
                                    </g>
                                    <g transform="matrix(0.00020293,1,-0.737859,0.000149734,4021.19,-3183.16)">
                                        <rect x="3650.68" y="511.146" width="5.209" height="11.575" style="fill:rgb(170,193,174);"/>
                                    </g>
                                    <g transform="matrix(0.00020293,1,-0.737859,0.000149734,4021.19,-3176.2)">
                                        <rect x="3650.68" y="511.146" width="5.209" height="11.575" style="fill:rgb(170,193,174);"/>
                                    </g>
                                    <g transform="matrix(0.00020293,1,-0.737859,0.000149734,4021.19,-3169.24)">
                                        <rect x="3650.68" y="511.146" width="5.209" height="11.575" style="fill:rgb(170,193,174);"/>
                                    </g>
                                    <g transform="matrix(0.00020293,1,-0.737859,0.000149734,4021.19,-3162.27)">
                                        <rect x="3650.68" y="511.146" width="5.209" height="11.575" style="fill:rgb(170,193,174);"/>
                                    </g>
                                    <g transform="matrix(0.00020293,1,-0.737859,0.000149734,4021.19,-3155.31)">
                                        <rect x="3650.68" y="511.146" width="5.209" height="11.575" style="fill:rgb(170,193,174);"/>
                                    </g>
                                    <g transform="matrix(0.00020293,1,-0.737859,0.000149734,4021.19,-3197.08)">
                                        <rect x="3650.68" y="511.146" width="5.209" height="11.575" style="fill:rgb(170,193,174);"/>
                                    </g>
                                </g>
                                <g transform="matrix(1,0,0,1.15652,115.869,-69.2614)">
                                    <g transform="matrix(0.00020293,1,-0.737859,0.000149734,4021.19,-3204.04)">
                                        <rect x="3650.68" y="511.146" width="5.209" height="11.575" style="fill:rgb(170,193,174);"/>
                                    </g>
                                    <g transform="matrix(0.00020293,1,-0.737859,0.000149734,4021.19,-3245.82)">
                                        <rect x="3650.68" y="511.146" width="5.209" height="11.575" style="fill:rgb(170,193,174);"/>
                                    </g>
                                    <g transform="matrix(0.00020293,1,-0.737859,0.000149734,4021.19,-3238.85)">
                                        <rect x="3650.68" y="511.146" width="5.209" height="11.575" style="fill:rgb(170,193,174);"/>
                                    </g>
                                    <g transform="matrix(0.00020293,1,-0.737859,0.000149734,4021.19,-3231.89)">
                                        <rect x="3650.68" y="511.146" width="5.209" height="11.575" style="fill:rgb(170,193,174);"/>
                                    </g>
                                    <g transform="matrix(0.00020293,1,-0.737859,0.000149734,4021.19,-3224.93)">
                                        <rect x="3650.68" y="511.146" width="5.209" height="11.575" style="fill:rgb(170,193,174);"/>
                                    </g>
                                    <g transform="matrix(0.00020293,1,-0.737859,0.000149734,4021.19,-3217.97)">
                                        <rect x="3650.68" y="511.146" width="5.209" height="11.575" style="fill:rgb(170,193,174);"/>
                                    </g>
                                    <g transform="matrix(0.00020293,1,-0.737859,0.000149734,4021.19,-3211.01)">
                                        <rect x="3650.68" y="511.146" width="5.209" height="11.575" style="fill:rgb(170,193,174);"/>
                                    </g>
                                    <g transform="matrix(0.00020293,1,-0.737859,0.000149734,4021.19,-3190.12)">
                                        <rect x="3650.68" y="511.146" width="5.209" height="11.575" style="fill:rgb(170,193,174);"/>
                                    </g>
                                    <g transform="matrix(0.00020293,1,-0.737859,0.000149734,4021.19,-3183.16)">
                                        <rect x="3650.68" y="511.146" width="5.209" height="11.575" style="fill:rgb(170,193,174);"/>
                                    </g>
                                    <g transform="matrix(0.00020293,1,-0.737859,0.000149734,4021.19,-3176.2)">
                                        <rect x="3650.68" y="511.146" width="5.209" height="11.575" style="fill:rgb(170,193,174);"/>
                                    </g>
                                    <g transform="matrix(0.00020293,1,-0.737859,0.000149734,4021.19,-3169.24)">
                                        <rect x="3650.68" y="511.146" width="5.209" height="11.575" style="fill:rgb(170,193,174);"/>
                                    </g>
                                    <g transform="matrix(0.00020293,1,-0.737859,0.000149734,4021.19,-3162.27)">
                                        <rect x="3650.68" y="511.146" width="5.209" height="11.575" style="fill:rgb(170,193,174);"/>
                                    </g>
                                    <g transform="matrix(0.00020293,1,-0.737859,0.000149734,4021.19,-3155.31)">
                                        <rect x="3650.68" y="511.146" width="5.209" height="11.575" style="fill:rgb(170,193,174);"/>
                                    </g>
                                    <g transform="matrix(0.00020293,1,-0.737859,0.000149734,4021.19,-3197.08)">
                                        <rect x="3650.68" y="511.146" width="5.209" height="11.575" style="fill:rgb(170,193,174);"/>
                                    </g>
                                </g>
                                <g>
                                    <g transform="matrix(1,0,0,1,0.282446,0.0608558)">
                                        <rect x="3650.68" y="511.146" width="5.209" height="11.575" style="fill:rgb(170,193,174);"/>
                                    </g>
                                    <g transform="matrix(1,0,0,1,8.42244,0.0608558)">
                                        <rect x="3650.68" y="511.146" width="5.209" height="11.575" style="fill:rgb(170,193,174);"/>
                                    </g>
                                    <g transform="matrix(1,0,0,1,16.5624,0.0608558)">
                                        <rect x="3650.68" y="511.146" width="5.209" height="11.575" style="fill:rgb(170,193,174);"/>
                                    </g>
                                    <g transform="matrix(1,0,0,1,24.7024,0.0608558)">
                                        <rect x="3650.68" y="511.146" width="5.209" height="11.575" style="fill:rgb(170,193,174);"/>
                                    </g>
                                    <g transform="matrix(1,0,0,1,32.8424,0.0608558)">
                                        <rect x="3650.68" y="511.146" width="5.209" height="11.575" style="fill:rgb(170,193,174);"/>
                                    </g>
                                    <g transform="matrix(1,0,0,1,40.9824,0.0608558)">
                                        <rect x="3650.68" y="511.146" width="5.209" height="11.575" style="fill:rgb(170,193,174);"/>
                                    </g>
                                    <g transform="matrix(1,0,0,1,49.1224,0.0608558)">
                                        <rect x="3650.68" y="511.146" width="5.209" height="11.575" style="fill:rgb(170,193,174);"/>
                                    </g>
                                    <g transform="matrix(1,0,0,1,57.2624,0.0608558)">
                                        <rect x="3650.68" y="511.146" width="5.209" height="11.575" style="fill:rgb(170,193,174);"/>
                                    </g>
                                    <g transform="matrix(1,0,0,1,65.4024,0.0608558)">
                                        <rect x="3650.68" y="511.146" width="5.209" height="11.575" style="fill:rgb(170,193,174);"/>
                                    </g>
                                    <g transform="matrix(1,0,0,1,73.5424,0.0608558)">
                                        <rect x="3650.68" y="511.146" width="5.209" height="11.575" style="fill:rgb(170,193,174);"/>
                                    </g>
                                    <g transform="matrix(1,0,0,1,81.6823,0.0608558)">
                                        <rect x="3650.68" y="511.146" width="5.209" height="11.575" style="fill:rgb(170,193,174);"/>
                                    </g>
                                    <g transform="matrix(1,0,0,1,89.8223,0.0608558)">
                                        <rect x="3650.68" y="511.146" width="5.209" height="11.575" style="fill:rgb(170,193,174);"/>
                                    </g>
                                </g>
                            </g>
                        </g>
                    </g>
                </g>
            </g>
        </g>
    </g>
    <defs>
        <linearGradient id="_Linear1" x1="0" y1="0" x2="1" y2="0" gradientUnits="userSpaceOnUse" gradientTransform="matrix(2.73418,9.75604,-9.75604,2.73418,637.339,438.205)"><stop offset="0" style="stop-color:rgb(212,156,82);stop-opacity:1"/><stop offset="1" style="stop-color:rgb(171,103,14);stop-opacity:1"/></linearGradient>
        <linearGradient id="_Linear2" x1="0" y1="0" x2="1" y2="0" gradientUnits="userSpaceOnUse" gradientTransform="matrix(9.75604,-22.8055,22.8055,9.75604,618.262,422.049)"><stop offset="0" style="stop-color:rgb(212,156,82);stop-opacity:1"/><stop offset="1" style="stop-color:rgb(30,171,14);stop-opacity:1"/></linearGradient>
        <linearGradient id="_Linear3" x1="0" y1="0" x2="1" y2="0" gradientUnits="userSpaceOnUse" gradientTransform="matrix(-15.8458,13.2359,-13.2359,-15.8458,589.988,414.281)"><stop offset="0" style="stop-color:rgb(212,156,82);stop-opacity:1"/><stop offset="1" style="stop-color:rgb(171,103,14);stop-opacity:1"/></linearGradient>
        <linearGradient id="_Linear4" x1="0" y1="0" x2="1" y2="0" gradientUnits="userSpaceOnUse" gradientTransform="matrix(-10.3774,7.14614,-7.14614,-10.3774,588.497,418.569)"><stop offset="0" style="stop-color:rgb(212,156,82);stop-opacity:1"/><stop offset="1" style="stop-color:rgb(171,103,14);stop-opacity:1"/></linearGradient>
        <linearGradient id="_Linear5" x1="0" y1="0" x2="1" y2="0" gradientUnits="userSpaceOnUse" gradientTransform="matrix(-2.54325,-127.162,127.162,-2.54325,777.285,1188.17)"><stop offset="0" style="stop-color:white;stop-opacity:1"/><stop offset="1" style="stop-color:rgb(16,0,255);stop-opacity:1"/></linearGradient>
        <linearGradient id="_Linear6" x1="0" y1="0" x2="1" y2="0" gradientUnits="userSpaceOnUse" gradientTransform="matrix(-2.54325,-127.162,127.162,-2.54325,826.116,1124.14)"><stop offset="0" style="stop-color:white;stop-opacity:1"/><stop offset="1" style="stop-color:rgb(16,0,255);stop-opacity:1"/></linearGradient>
        <linearGradient id="_Linear7" x1="0" y1="0" x2="1" y2="0" gradientUnits="userSpaceOnUse" gradientTransform="matrix(-2.54325,-127.162,127.162,-2.54325,729.54,1123.6)"><stop offset="0" style="stop-color:white;stop-opacity:1"/><stop offset="1" style="stop-color:rgb(16,0,255);stop-opacity:1"/></linearGradient>
    </defs>
</svg>
