<?xml version="1.0" encoding="UTF-8" standalone="no"?><!DOCTYPE svg PUBLIC "-//W3C//DTD SVG 1.1//EN" "http://www.w3.org/Graphics/SVG/1.1/DTD/svg11.dtd"><svg width="100%" height="100%" viewBox="0 0 17265 12364" version="1.1" xmlns="http://www.w3.org/2000/svg" xmlns:xlink="http://www.w3.org/1999/xlink" xml:space="preserve" xmlns:serif="http://www.serif.com/" style="fill-rule:evenodd;clip-rule:evenodd;stroke-linecap:round;stroke-linejoin:round;stroke-miterlimit:1.5;"><rect id="Hands---Robot" serif:id="Hands - Robot" x="0" y="0" width="17264.5" height="12363.2" style="fill:none;"/><clipPath id="_clip1"><rect x="0" y="0" width="17264.5" height="12363.2"/></clipPath><g clip-path="url(#_clip1)"><g><path d="M760.527,4627.14c89.407,-160.706 151.961,-471.477 268.22,-613.968c151.614,-185.826 381.544,-428.276 611.04,-582.124c228.135,-152.935 536.873,-389.345 796.367,-493.099c196.113,-78.412 454.969,-250.365 726.634,-328.353c254.609,-73.091 484.12,-157.397 720.125,-193.81c255.356,-39.399 723.148,67.611 988.848,261.651c241.879,176.644 329.032,541.013 359.455,600.017c92.906,180.186 304.597,369.58 416.983,502.634c103.348,122.356 292.209,282.042 474.169,405.831c139.125,94.648 171.661,94.139 213.354,176.48c46.226,91.293 212.049,239.387 258.949,458.215c72.661,339.031 91.865,560.565 -40.217,740.204c-132.081,179.64 -380.188,280.229 -630.565,357.918c-203.805,63.239 -463.299,18.983 -638.418,47.366c-218.632,35.435 -317.279,65.002 -522.127,83.648c-203.767,18.548 -452.536,-17.258 -640.842,39.674c-222.717,67.336 -271.034,103.704 -408.592,154.173c-154.949,56.849 -257.551,109.466 -429.264,157.922c-66.741,18.833 -249.9,59.723 -336.829,77.529c-107.35,21.989 -282.695,57.074 -389.441,54.405c-79.187,-1.979 -236.071,7.291 -334.778,-25.887c-133.787,-44.968 -236.408,-65.073 -341.327,-125.881c-119.57,-69.302 -287.317,-172.874 -405.097,-289.926c-148.384,-147.467 -387.844,-439.235 -485.208,-594.879c-89.826,-143.593 -119.777,-386.02 -119.777,-386.02" style="fill:#2f1206;stroke:#000;stroke-width:6.05px;"/><g><path d="M7408.61,4787.08c3.432,-17.44 -16.376,-51.335 -16.141,-50.82c42.379,92.905 38.047,335.633 38.047,335.633c-0,0 3.225,128.383 -11.243,204.405c-12.488,65.622 -40.051,76.459 -71.742,119.586c-29.629,40.318 -103.716,124.055 -100.838,81.031c7.372,-110.195 137.621,-566.393 161.917,-689.835Z" style="fill:#b9480b;stroke:#000;stroke-width:6.05px;"/><g><rect x="6555.26" y="5642.99" width="63.39" height="6416.83"/><path d="M7186.87,5483.56c-14.616,39.889 -102.453,89.944 -102.453,89.944c0,0 -107.659,44.59 -252.117,71.908c-74.127,14.018 -183.468,1.611 -239.793,21.838c-111.333,39.981 -291.492,74.866 -420.507,122.906c-76.58,28.516 -109.496,74.489 -169.409,93.86c-85.466,27.633 -340.537,11.132 -340.537,11.132c0,0 -43.918,-64.659 -61.099,-103.568c-39.099,-88.547 -91.488,-246.325 -112.453,-346.076c-30.177,-143.584 -40.887,-359.963 -24.833,-448.981c13.429,-74.462 77.419,-144.608 143.13,-188.057c122.653,-81.098 438.904,-234.213 675.032,-359.644c98.5,-52.324 160.573,-116.183 224.746,-141.871c126.53,-50.65 221.165,-53.175 408.275,-22.097c119.318,19.818 214.508,110.607 263.017,152.18c98.35,84.289 168.062,197.609 213.893,297.679c-69.212,316.319 -153.668,609.048 -204.892,748.847Z" style="fill:#b9480b;stroke:#000;stroke-width:6.05px;"/></g></g><g><path d="M3294.49,2010.23c23.233,40.016 131.227,177.395 128.197,275.357c-2.661,86.077 -50.259,167.567 -64.087,177.116c-110.968,76.636 -245.293,127.211 -428.745,217.648c-144.907,71.436 -407.126,215.072 -501.281,243.101c-36.004,10.718 -66.342,-55.186 -97.172,-82.963c-34.37,-30.966 -78.164,-77 -109.046,-102.833c-9.761,-8.165 -25.826,-19.238 -40.046,-29.414c-18.674,-13.363 -8.427,-25.723 11.595,-22.054c33.815,6.198 80.267,16.608 104.944,22.56c84.191,20.303 176.393,40.245 253.864,40.085c107.748,-0.224 209.427,-35.28 297.032,-95.697c86.923,-59.947 161.733,-171.292 191.031,-285.426c10.191,-39.704 30.064,-171.77 35.919,-233.128c10.11,-105.94 22.868,-187.833 25.552,-269.348c1.47,-44.616 52.186,-54.727 76.631,-28.106c49.044,53.409 86.568,123.076 115.612,173.102Z" style="fill:#b9480b;stroke:#000;stroke-width:6.05px;"/><path d="M2451.89,2998.92c8.906,-47.789 81.821,-103.102 118.872,-121.628c87.557,-43.778 211.77,-102.199 294.034,-145.357c183.67,-96.356 327.828,-165.768 445.385,-200.533c51.379,-15.194 166.331,-42.423 206.552,-39.817c30.027,1.946 123.835,0.182 143.247,21.423c79.821,87.342 225.889,326.611 329.683,534.527c43.425,86.989 46.124,207.423 -64.041,234.556c-364.937,89.88 -1111.76,283.815 -1339.26,342.212c-26.721,6.859 -83.049,12.945 -104.091,-3.351c-21.043,-16.296 -30.161,-27.275 -22.164,-94.424c7.628,-64.038 17.772,-154.621 11.139,-231.638c-7.574,-87.935 -35.232,-210.793 -19.359,-295.97Z" style="fill:#b9480b;stroke:#000;stroke-width:6.05px;"/><g><rect x="2589.45" y="2728.27" width="63.39" height="8709.83"/><path d="M3078.89,1777.75c-0,-0 -7.572,-185.001 -38.668,-270.672c-31.578,-87.002 -76.008,-147.947 -150.803,-251.338c-41.993,-58.05 -104.593,-138.23 -168.057,-202.654c-62.858,-63.81 -126.417,-112.091 -201.989,-123.278c-76.84,-11.375 -241.43,-9.25 -336.462,19.308c-92.794,27.885 -158.978,57.255 -224.055,102.131c-64.718,44.628 -129.125,87.68 -166.406,167.122c-37.281,79.442 -74.134,223.059 -41.813,344.333c74.865,280.898 72.771,307.116 123.94,510.209c12.951,51.405 38.837,192.292 52.576,286.363c12.981,88.887 53.071,183.187 76.379,227.657c19.964,38.089 64.193,41.911 114.771,54.793c34.412,8.765 83.725,32.357 83.725,32.357c0,0 182.448,52.298 327.263,56.756c144.272,4.442 193.533,-23.293 263.472,-61.908c78.258,-43.208 162.718,-107.755 198.341,-205.073c18.54,-50.65 46.278,-120.021 59.484,-224.941c25.353,-201.419 28.302,-461.165 28.302,-461.165Z" style="fill:#b9480b;stroke:#000;stroke-width:6.05px;"/></g></g><g><g><path d="M4806.91,1587.38c-33.751,74.569 -153.319,153.915 -166.075,163.416c-173.543,129.264 -428.152,205.835 -706.235,223.295c-116.495,7.315 -214.834,-7.36 -312.42,-112.464c-15.731,-131.769 -19.588,-177.77 -24.303,-215.345c-25.754,-205.215 -54.239,-349.019 -81.03,-491.833c-22.965,-122.417 -64.261,-247.265 -79.717,-365.053c-14.134,-107.713 -53.311,-317.378 0.275,-424.098c70.853,-141.11 152.761,-175.734 251.841,-232.729c105.892,-60.914 254.927,-122.125 418.312,-125.02c111.859,-1.983 219.166,-11.12 329.994,61.249c140.441,91.703 179.87,195.853 209.04,319.829c26.859,114.153 94.817,374.803 123.596,524.836c23.771,123.926 41.586,227.405 49.078,375.36c6.821,134.683 21.71,223.292 -12.356,298.557Z" style="fill:#b9480b;stroke:#000;stroke-width:6.05px;"/><path d="M3638.78,1996.82c-1.577,-19.774 29.088,-23.753 40.808,-15.443c89.055,63.148 186.938,58.705 276.587,54.056c144.413,-7.488 427.128,-97.931 567.238,-144.292c97.145,-32.143 228.777,-151.492 263.843,-164.363c19.396,-7.12 45.713,5.51 60.386,20.959c16.37,17.236 31.213,52.948 37.833,82.454c20.045,89.335 50.455,297.72 82.435,453.557c63.076,307.367 150.88,601.377 206.562,775.021c31.994,99.773 45.862,105.612 30.118,129.897c-15.744,24.285 -74.867,19.503 -124.581,15.812c-257.141,-19.092 -525.827,-11.245 -805.789,22.912c-30.148,3.678 -59.276,2.027 -82.861,-9.321c-23.585,-11.347 -27.377,-9.075 -58.648,-58.762c-111.604,-177.329 -367.758,-567.787 -439.467,-737.683c-20.782,-49.236 -31.563,-98.995 -37.802,-151.509c-9.699,-81.642 -8.418,-169.944 -16.662,-273.295Z" style="fill:#b9480b;stroke:#000;stroke-width:6.05px;"/><g><rect x="4110.8" y="1338.16" width="63.39" height="9954.56"/><path d="M4401.56,1331.96c113.585,-50.75 217.164,-157.492 269.992,-255.332c44.719,-82.821 54.124,-252.412 46.976,-331.707c-14.24,-157.977 -79.325,-539.952 -239.633,-655.148c-160.308,-115.197 -509.12,-108.752 -686.345,-19.334c-177.225,89.418 -440.646,261.81 -377.006,555.843c35.682,164.86 86.195,336.728 183.669,459.174c97.474,122.447 257.782,200.587 386.674,241.671c118.556,37.79 302.088,55.584 415.673,4.833Z" style="fill:#b9480b;stroke:#000;stroke-width:6.05px;"/></g></g></g><g><g><g><rect x="2097.79" y="5757.65" width="63.39" height="5852.95"/><path d="M1192.81,4342.3c2.397,-6.437 18.724,-1.755 28.584,-3.124c176.253,-24.479 457.136,-152.352 770.551,-309.059c48.664,-24.332 121.048,-64.418 158.363,-94.49l255.647,666.336c-0,-0 257.628,676.629 221.257,870.277c-19.64,104.562 -95.867,190.578 -192.946,243.406c-124.979,68.011 -304.933,54.752 -417.839,30.984c-101.865,-21.442 -183.812,-59.384 -259.603,-173.587c-116.237,-175.149 -212.17,-423.19 -307.932,-639.553c-75.637,-170.894 -165.486,-366.5 -241.882,-555.696c-4.788,-11.859 -16.598,-29.058 -14.2,-35.494Z" style="fill:#b9480b;stroke:#000;stroke-width:6.05px;"/></g><path d="M1001.62,2923.83c-4.348,-0.87 -30.95,-5.706 -37.341,-19.939c-7.54,-16.791 5.541,-43.588 7.698,-47.873c30.181,-59.964 67.68,-62.627 181.758,-127.105c122.296,-69.123 290.39,-101.12 365.477,-107.377c195.641,-16.304 247.67,-20.841 343.683,0.657c63.912,14.311 115.883,31.894 216.168,63.423c125.665,39.507 203.854,117.005 258.083,206.918c53.365,88.479 58.35,233.14 67.292,332.556c3.112,34.602 10.158,116.416 -9.506,154.216c-27.855,53.542 -90.683,125.026 -141.001,143.77c-50.317,18.743 -127.658,-11.117 -160.904,-31.308c-33.246,-20.191 -25.057,-95.601 -51.866,-129.719c-26.809,-34.119 -136.801,-51.044 -175.988,-71.268c-104.713,-54.041 -329.633,-162.044 -473.558,-223.202c-127.513,-54.185 -212.534,-108.223 -389.995,-143.749Z" style="fill:#b9480b;stroke:#000;stroke-width:6.05px;"/><path d="M1983.16,3416.63c20.738,44.529 7.686,133.987 21.505,189.526c16.157,64.933 91.292,235.446 113.559,253.336c-37.315,30.072 -335.188,142.134 -383.851,166.465c-330.948,165.474 -386.654,133.146 -486.745,156.396c-37.355,8.678 -92.763,37.354 -113.8,-16.893c-81.361,-209.803 -201.207,-665.203 -201.207,-665.203c0,-0 -71.864,-359.28 -42.102,-484.616c4.999,-21.05 18.847,-51.525 31.703,-59.736c12.857,-8.21 42.251,-4.353 60.074,-0.677c157.004,32.381 223.027,72.921 343.965,118.543c153.108,57.758 400.624,173.504 503.46,227.988c52.537,27.835 132.701,70.342 153.439,114.871Z" style="fill:#b9480b;stroke:#000;stroke-width:6.05px;"/><path d="M2441.46,3369.33c2.325,76.149 -11.445,117.819 -16.886,168.878c-7.437,69.791 -4.117,117.002 -56.555,161.328c-47.356,40.03 -145.618,55.443 -145.618,55.443c0,0 -101.124,7.257 -131.319,-15.885c-30.195,-23.142 -43.824,-81.778 -49.852,-122.967c-6.647,-45.421 -16.4,-120.515 -13.294,-132.939c9.631,-38.521 51.738,124.555 255.906,56.499c37.822,-12.607 109.549,-97.242 157.618,-170.357Z" style="fill:#b9480b;stroke:#000;stroke-width:6.05px;"/></g></g><g><g><rect x="774.364" y="6045.99" width="63.39" height="5975.75"/><path d="M963.522,5128.6c77.981,19.246 177.548,62.39 228.31,116.084c109.459,115.785 277.747,425.831 322.076,568.251c29.267,94.029 21.634,170.5 -36.767,263.072c-67.219,106.548 -226.85,107.808 -286.52,135.931c-83.038,39.137 -353.517,-114.593 -353.517,-114.593c0,-0 -246.2,-134.178 -356.303,-205.281c-96.283,-62.178 -304.317,-221.333 -304.317,-221.333c0,-0 -18.205,-6.611 -48.641,-32.604c605.239,-297.034 591.028,-256.94 752.106,-444.864c7.389,-8.62 75.494,-34.968 83.573,-64.663Z" style="fill:#b9480b;stroke:#000;stroke-width:6.05px;"/></g><g><path d="M78.126,5588.83c-12.771,-10.907 8.33,10.37 0,0c-26.15,-32.557 -70.717,-128.605 -70.717,-128.605l0.087,-573.425c0,-0 2.31,-309.849 6.069,-380.644c0.833,-15.68 6.094,-40.34 16.487,-44.128c10.393,-3.788 32.028,13.154 45.873,21.403c63.605,37.894 106.008,94.976 255.654,111.603c55.178,6.131 283.553,111.972 311.574,128.784c41.788,25.073 152.174,32.086 224.99,40.01l-3.255,354.396c0,-0 -14.939,29.023 -22.328,37.643c-161.078,187.924 -159.195,135.93 -764.434,432.963Z" style="fill:#b9480b;stroke:#000;stroke-width:6.05px;"/><path d="M872.298,4689.05c-38.944,6.255 -166.586,-19.092 -208.373,-44.164c-28.021,-16.813 -252.242,-101.882 -307.42,-108.012c-158.948,-17.661 -209.55,-80.962 -283.665,-118.433c-10.851,-5.487 -24.137,-8.855 -27.673,-18.657c-3.536,-9.803 1.67,-25.353 6.457,-40.158c11.29,-34.913 24.498,-68.822 38.791,-92.345c38.227,-62.914 125.113,-226.798 215.904,-354.803c137.472,-193.821 283.894,-355.369 283.894,-355.369c0,0 41.602,-53.568 59.792,-58.725c22.677,-6.429 28.063,-0.971 50.511,-0.796c55.469,0.434 143.379,2.314 176.079,2.569c16.337,0.128 24.043,0.003 35.399,9.913c11.357,9.91 14.113,38.025 20.488,57.718c18.414,56.877 48.767,197.391 95.336,343.745c55.51,174.452 105.907,351.195 133.337,437.624c9.633,30.353 17.73,46.037 14.434,58.79c-3.296,12.754 -20.793,32.64 -32.469,42.126c-54.406,44.202 -243.273,213.395 -243.273,213.395c0,-0 -8.25,22.482 -27.549,25.582Z" style="fill:#b9480b;stroke:#000;stroke-width:6.05px;"/></g></g></g><g><path d="M13177.1,2919.22c-270.992,-2.552 -1040.5,106.928 -1065.88,146.013c-73.779,113.642 -204.917,342.061 -375.603,559.193c-210.571,267.871 -368.407,362.917 -345.698,466.956c4.621,21.17 -196.028,474.005 -135.57,853.928c57.858,363.589 377.041,655.281 376.657,661.208c-0.786,12.121 -3.786,18.852 44.83,50.864c117.399,77.304 341.917,215.478 506.286,257.702c275.342,70.732 1021.21,88.174 1021.21,88.174c-0,0 358.291,189.291 574.631,263.044c210.928,71.907 723.409,119.052 723.409,119.052c-0,0 711.218,-21.207 966.893,-70.139c231.344,-44.276 403.335,-132.449 567.154,-223.454c153.337,-85.182 405.928,-229.157 415.762,-322.576c9.121,-86.65 152.618,-288.58 167.116,-419.278c13.73,-123.775 36.1,-310.608 1.01,-456.191c-35.09,-145.583 -148.64,-535.618 -221.691,-630.296c-105.45,-136.669 -261.844,-238.597 -334.882,-459.244c-84.373,-254.888 -474.232,-125.79 -513.803,-313.754c-33.661,-159.894 -244.874,-319.753 -397.494,-362.711c-252.739,-71.137 -894.689,-304.337 -1399.02,-342.363c-230.514,-17.381 -520.535,134.388 -575.317,133.872Z" style="fill:#2f1206;stroke:#000;stroke-width:6.05px;"/><g><path d="M15467.7,3063.8c-103.759,54.499 -221.159,343.908 -282.528,272.287c-61.37,-71.62 -35.349,-591.453 9.959,-771.649c33.543,-133.406 220.686,-243.121 286.056,-297.442c56.54,-46.984 176.189,-68.376 208.875,-70.777c32.686,-2.401 154.951,10.764 222.873,44.285c41.54,20.502 206.088,73.683 268.279,113.096c78.114,49.503 163.485,102.11 218.526,141.632c37.995,27.281 90.351,66.227 111.722,95.497c21.371,29.27 3.706,229.559 -4.943,262.002c-6.193,23.235 -90.192,90.119 -106.77,88.858c-171.816,-13.071 -275.08,38.692 -592.02,67.505c-207.325,18.848 -236.269,0.207 -340.029,54.706Z" style="fill:#b9480b;stroke:#000;stroke-width:6.05px;"/><path d="M16379,2986.39c112.901,37.906 123.063,316.283 123.063,316.283c0,-0 2.745,215.111 -93.523,253.73c-171.939,68.976 -706.094,56.799 -873.2,46.532c-76.829,-4.72 -116.006,-50.613 -129.436,-108.129c-30.559,-130.866 -33.065,-257.18 24.867,-331.091c57.932,-73.91 115.398,-93.525 322.723,-112.373c347.519,-31.592 500.745,-106.84 625.506,-64.952Z" style="fill:#b9480b;stroke:#000;stroke-width:6.05px;"/><g><path d="M16416.6,3661.88c170.505,67.639 141.971,368.895 170.702,497.731c42.785,191.852 208.348,420.797 219.841,547.183c7.834,86.145 -18.37,125.155 -150.879,211.132c-64.996,42.172 -166.753,13.298 -268.04,10.737c-155.219,-3.924 -317.481,-11.233 -408.357,-116.114c-138.342,-159.661 -318.389,-565.702 -442.679,-904.331c-24.736,-67.392 -24.934,-127.836 6.212,-167.35c31.145,-39.515 95.373,-56.189 180.661,-69.738c277.621,-44.106 550.133,-65.743 692.539,-9.25Z" style="fill:#b9480b;stroke:#000;stroke-width:6.05px;"/><rect x="16315.7" y="4923.09" width="63.39" height="7173.68"/></g></g><g><path d="M16849.3,4678.06c51.107,-14.384 210.336,30.968 257.061,41.53c51.494,11.64 148.044,2.103 153.914,46.901c13.061,99.689 0.538,514.197 -10.73,685.967c-2.588,39.446 6.025,64 -7.241,73.181c-13.265,9.182 -48.797,-11.18 -72.354,-18.093c-302.294,-88.712 -515.736,-314.072 -780.654,-346.023c-26.382,-63.069 -90.804,-132.999 -47.06,-196.792c34.63,-50.503 159.445,20.129 280.078,-14.421c84.896,-24.315 162.047,-92.012 189.315,-144.419c30.149,-57.942 0.427,-117.35 37.671,-127.831Z" style="fill:#b44716;stroke:#000;stroke-width:6.05px;"/><g><path d="M16427.8,5232.25c160.793,1.385 568.135,220.831 723.817,319.82c38.004,24.165 50.447,72.999 49.731,74.433c-16.025,32.071 -60.261,64.308 -93.993,92.491c-61.366,51.271 -147.484,161.596 -230.999,231.751c-116.94,98.232 -334.678,343.985 -470.638,357.643c-135.96,13.658 -339.721,-226.101 -375.33,-347.292c-41.724,-142.004 -22.266,-279.454 21.176,-380.157c40.801,-94.583 128.925,-153.409 196.271,-217.418c75.795,-72.038 93.623,-132.014 179.965,-131.271Z" style="fill:#b44716;stroke:#000;stroke-width:6.05px;"/><rect x="16681.1" y="6110.39" width="63.39" height="6253.05"/></g><path d="M16822,4639.39c-7.847,-6.408 -5.033,-10.141 -13.524,-27.3c-40.077,-80.997 -157.182,-318.366 -185.505,-383.574c-6.336,-14.588 -15.914,-46.248 -18.82,-58.151c-17.206,-70.481 -13.129,-180.512 -31.27,-278.248c-27.779,-149.659 -59.133,-291.024 -24.121,-318.062c57.877,-44.696 307.746,182.484 379.595,287.716c95.242,139.496 241.311,453.497 292.276,588.32c17.24,45.607 32.087,144.475 30.766,202.323c-0.534,23.395 -3.713,40.08 -10.447,43.821c-46.022,25.568 -132.082,-0.515 -195.212,-14.605c-63.129,-14.089 -146.89,-17.568 -190.181,-31.091c-21.013,-6.564 -25.71,-4.741 -33.557,-11.149Z" style="fill:#b44716;stroke:#000;stroke-width:6.05px;"/></g><g><g><path d="M13788.4,1041.86c-5.474,-0.016 -61.332,140.093 -61.332,140.093c0,0 -91.877,150.511 -249.626,216.363c-183.227,76.489 -448.638,74.835 -638.779,41.978c-106.66,-18.43 -214.384,-70.75 -301.001,-121.828c-82.181,-48.463 -187.92,-147.274 -218.699,-184.642c-21.79,-26.454 -43.535,-98.294 -50.078,-133.025c-6.661,-35.362 29.812,-119.684 41.043,-164.217c36.974,-146.609 137.894,-283.08 207.836,-384.774c111.12,-161.567 224.503,-381.927 443.597,-431.39c219.093,-49.463 702.413,67.16 852.376,241.707c149.963,174.547 -25.337,779.735 -25.337,779.735Z" style="fill:#b9480b;stroke:#000;stroke-width:6.05px;"/><rect x="12825.5" y="1451.13" width="63.39" height="10235.3"/></g><path d="M12505,1721.69c-37.151,-12.654 -33.568,-58.26 -31.297,-106.911c5.428,-116.245 19.045,-217.148 25.878,-263.062c2.221,-14.925 -0.468,-23.612 3.998,-25.981c4.466,-2.368 8.98,5.578 22.798,11.771c63.569,28.491 235.901,112.183 416.682,134.884c124.108,15.585 250.289,5.752 329.017,-5.117c108.53,-14.983 286.344,-71.279 340.77,-108.18c4.196,-2.844 34.321,-26.976 36.834,-22.574c2.653,4.647 1.117,11.272 0.862,30.037c-1.128,83.059 -11.718,310.022 -16.358,314.663c-63.577,63.576 -174.92,110.746 -301.043,120.962c-136.621,11.066 -291.045,-18.003 -433.421,-28.79c-170.386,-12.909 -323.397,-27.409 -394.72,-51.702Z" style="fill:#b9480b;stroke:#000;stroke-width:6.05px;"/><path d="M13640.4,1758.73c-14.082,263.626 31.519,647.122 -32.978,876.53c-23.32,82.946 -97.555,169.605 -174.153,267.339c-88.911,113.445 -111.885,191.101 -209.763,196.02c-131.653,6.618 -489.071,-35.482 -649.529,-62.619c-109.335,-18.49 -263.938,-29.917 -313.222,-100.199c-37.879,-54.018 16.02,-134.065 27.791,-227.277c29.522,-233.785 110.528,-550.391 137.666,-746.893c6.891,-49.902 31.245,-169.604 92.06,-181.442c199.109,-38.758 887.735,163.755 1102.6,-51.106c5.688,-5.688 15.472,32.724 19.532,29.647Z" style="fill:#b9480b;stroke:#000;stroke-width:6.05px;"/></g><g><path d="M10277.3,4367.38c67.314,45.904 11.223,289.765 116.347,500.011c146.627,293.255 59.736,455.193 -1.668,525.154c-61.405,69.961 -276.347,42.882 -366.759,-105.388c-90.646,-148.655 -83.402,-527.463 -35.46,-695.194c20.004,-69.988 220.225,-270.488 287.54,-224.583Z" style="fill:#b54717;stroke:#000;stroke-width:6.05px;"/><g><path d="M10535.6,5451.82c-55.412,-90.865 6.064,-120.556 -15.957,-340.296c-14.908,-148.766 -127.011,-314.346 -150.686,-475.893c-23.479,-160.209 -34.742,-268.952 60.343,-323.923c142.566,-82.419 533.033,-167.894 795.051,-170.591c214.666,-2.21 491.161,-22.74 635.93,101.82c115.982,99.791 312.175,320.616 355.672,511.774c39.444,173.347 -25.23,469.795 -203.186,651.625c-160.147,163.632 -627.892,171.622 -867.595,153.239c-205.737,-15.779 -551.989,-13.332 -609.572,-107.755Z" style="fill:#b54717;stroke:#000;stroke-width:6.05px;"/><rect x="11136.4" y="5570.77" width="63.39" height="6410.74"/></g></g><g><path d="M13986.3,2523.09c-47.779,131.716 -179.61,413.674 -259.184,493.825c-45.895,46.227 -110.801,34.335 -175.054,43.575c-96.82,13.924 -179.346,57.034 -190.614,19.205c-18.747,-62.935 156.911,-215.846 273.131,-383.889c53.294,-77.059 17.223,-122.146 44.775,-176.075c64.586,-126.423 267.065,-516.992 322.805,-565.845c55.74,-48.852 17.49,188.421 14.956,279.378c-2.644,94.867 7.049,185.442 -30.815,289.826Z" style="fill:#b44716;stroke:#000;stroke-width:6.05px;"/><path d="M14097.6,2516.56c0,0 -17.608,-680.991 0.268,-713.183c36.852,-66.367 64.685,-121.196 107.788,-144.215c43.102,-23.019 99.795,1.15 150.826,6.098c110.594,10.724 402.546,50.018 512.739,94.496c70.31,28.379 132.066,45.294 178.627,93.829c51.292,53.467 77.527,101.652 92.875,172.598c9.16,42.342 41.203,100.806 28.94,116.895c-12.263,16.088 -50.737,506.181 -69.977,504.232c-102.656,-10.402 -494.445,-71.888 -661.459,-93.679c-113.253,-14.777 -340.627,-37.071 -340.627,-37.071Z" style="fill:#b44716;stroke:#000;stroke-width:6.05px;"/><g><rect x="14313.8" y="3844.91" width="63.39" height="7438.23"/><path d="M14083.8,2574.49c1.31,-28.115 1004.92,118.922 1004.92,118.922c0,-0 4.517,198.211 -37.746,367.541c-52.877,211.849 -53.92,561.811 -221.092,741.275c-153.207,164.472 -697.355,3.21 -697.355,3.21c0,0 -284.18,-126.607 -282.382,-274.052c2.458,-201.589 230.547,-890.169 233.657,-956.896Z" style="fill:#b44716;stroke:#000;stroke-width:6.05px;"/></g></g></g></g></svg>