<?xml version="1.0" encoding="UTF-8" standalone="no"?><!DOCTYPE svg PUBLIC "-//W3C//DTD SVG 1.1//EN" "http://www.w3.org/Graphics/SVG/1.1/DTD/svg11.dtd"><svg width="100%" height="100%" viewBox="0 0 59306 43119" version="1.1" xmlns="http://www.w3.org/2000/svg" xmlns:xlink="http://www.w3.org/1999/xlink" xml:space="preserve" xmlns:serif="http://www.serif.com/" style="fill-rule:evenodd;clip-rule:evenodd;stroke-linejoin:round;stroke-miterlimit:2;"><g><path d="M37356.8,36256.5c-281.463,-982.752 -1081.66,-2075.32 -1869.61,-2756.92c-1518.01,-1312.48 -3546.4,-1954.02 -5578.67,-2100.26c-220.563,-15.688 -677.519,-22.972 -677.519,-22.972c-35.223,-0.84 -666.78,7.284 -887.343,22.972c-2032.87,146.236 -4060.96,787.771 -5578.97,2100.26c-788.251,681.595 -1588.15,1774.16 -1869.31,2756.92c-358.161,1247.77 143.263,2404.77 839.291,3453.36c1407.88,2123.79 4456.13,2943.78 7285.9,2958.34l210.425,-0c2830.07,-14.568 5878.33,-834.556 7286.2,-2958.34c695.436,-1048.59 1196.86,-2205.59 839.597,-3453.36Z" style="fill:#768e5b;fill-rule:nonzero;"/><path d="M20895.4,36256.5c0.3,-1.401 0.596,-2.802 1.193,-4.202c-0.597,1.4 -0.893,2.801 -1.193,4.202Z" style="fill:#b9caa0;fill-rule:nonzero;"/><path d="M29020.6,42668.2c-1252.07,-6.444 -2547.13,-170.609 -3723.68,-535.36l0.597,-0.84c1176.56,365.31 2471.02,529.476 3723.09,536.2Zm-1630.23,-417.418c-4.181,-0 -8.362,-0.28 -12.834,-1.401c-403.535,-96.37 -762.292,-251.851 -1086.13,-450.475c-641.709,-446.833 -1185.52,-1020.85 -1580.99,-1710.29c-675.729,-1179.41 -887.343,-2591.63 -647.971,-3913.64c209.523,-1157.56 1149.7,-2456.88 2112.55,-3134.27c180.877,-127.467 366.227,-247.65 554.855,-363.07c588.875,-442.35 1235.95,-763.117 1895.58,-1078.28c-655.14,184.897 -1282.82,460 -1866.33,792.533c-641.104,364.751 -1268.49,782.168 -1756.18,1322.01c-582.613,644.335 -977.782,1395.13 -1254.46,2187.94l-5.67,20.451c-257.881,1103.21 -127.151,2244.53 254.592,3302.92c-28.951,-43.142 -57.607,-86.284 -86.258,-129.147c189.827,1077.72 808.55,2072.24 1632.92,2834.24c31.639,29.415 6.271,82.363 -34.621,82.363c-4.773,-0 -9.851,-0.841 -14.925,-2.522c-919.277,-281.826 -1776.48,-740.986 -2442.96,-1406.61c-200.87,-200.304 -383.232,-413.215 -548.88,-636.212c-115.509,-175.371 -218.481,-355.225 -307.722,-537.88c-634.841,-1301.84 -623.501,-2873.18 -39.996,-4197.15c477.551,-1081.36 1264.91,-1854.57 2210.75,-2423.54c720.502,-530.036 1563.67,-885.261 2449.53,-1139.91c-571.569,132.51 -1155.38,293.593 -1723.66,495.298c252.803,-118.501 512.469,-224.116 776.315,-317.405c800.794,-240.646 1638,-386.882 2475.8,-447.393c210.416,-15.128 794.518,-22.972 878.69,-22.972l8.653,-0c0,-0 456.956,7.284 677.519,22.972c1162.24,83.763 2322.97,329.171 3387.92,769.561c-419.056,-139.513 -853.323,-244.287 -1286.11,-319.367c570.977,150.719 1142.25,348.783 1669.34,588.867c323.835,147.637 624.689,330.013 901.069,540.962c498.145,505.104 905.26,1085.01 1184.63,1720.66c872.415,1985.96 357.565,4604.2 -1682.47,5776.89c-9.245,5.323 -18.199,7.564 -26.561,7.564c-34.621,-0 -58.495,-40.061 -42.983,-72.838c420.249,-892.545 602.611,-1818.71 573.363,-2766.16c7.46,-122.424 10.739,-245.688 9.546,-369.793c-18.8,-1906.39 -1003.74,-4190.42 -2673.67,-5230.89l-20.895,-11.487c-386.52,-196.662 -843.477,-306.2 -1284.61,-344.579c280.27,127.466 560.821,254.933 813.027,423.3c448.304,246.249 860.783,606.236 1196.86,955.578c451.282,469.525 721.996,1074.92 1013.3,1644.74c273.101,533.958 448.604,1105.18 555.155,1690.12c38.502,619.683 -27.753,1248.33 -189.53,1853.45c-208.63,781.047 -541.72,1615.04 -1133.87,2213.15c-318.771,322.448 -857.504,857.807 -1383.1,858.087c-39.103,0 -78.206,-3.081 -116.999,-9.244l-35.523,-58.831c302.949,-843.24 492.771,-1711.97 576.341,-2589.39c116.708,-521.352 175.203,-1057.55 181.47,-1631.29c13.134,-1157 -199.076,-2362.75 -686.473,-3420.86c-122.073,-264.458 -244.446,-528.355 -382.039,-784.409c-333.691,-430.584 -737.217,-801.498 -1229.1,-1068.48c120.578,117.38 231.311,244.286 333.089,379.877c338.765,330.573 558.735,810.182 753.931,1223.96c494.566,1047.75 781.985,2105.02 893.018,3256.42c46.563,484.373 45.369,953.337 -3.88,1413.34c-71.63,310.402 -163.562,616.041 -277.273,913.836c-188.938,495.579 -428.301,978.55 -747.964,1412.78c-212.211,288.83 -447.703,609.037 -732.736,838.197c-108.345,87.125 -238.178,163.885 -353.984,163.885c-88.945,0 -169.829,-45.103 -227.139,-165.286c-28.355,-59.391 -46.563,-122.704 -59.689,-187.698c-6.266,-365.591 8.954,-732.022 -2.987,-1097.33c-30.441,-948.855 -12.533,-1900.51 -63.277,-2847.68c-76.703,-1435.19 22.981,-2864.77 92.825,-4294.64c-7.159,-91.048 -15.521,-182.095 -27.162,-272.582c-34.922,-269.221 -76.703,-537.04 -106.551,-805.981c-41.49,146.517 -80.292,293.873 -113.72,441.79c-77.896,488.015 -91.331,1036.26 -113.419,1449.48c-53.723,1002.36 -67.449,2014.81 -52.821,3018.29c5.666,420.779 16.714,842.119 31.033,1263.74c-8.653,100.012 -18.199,199.744 -28.646,299.756c-51.937,504.263 -145.955,1007.69 -172.816,1513.91c-18.8,356.066 -28.055,714.092 -76.412,1067.92c-39.394,284.348 -81.175,627.247 -267.717,865.651c-114.613,146.797 -241.768,205.907 -371.3,205.907c-47.756,0 -96.104,-7.844 -144.161,-22.411c-487.397,-444.592 -860.181,-1018.05 -1142.83,-1614.2c-122.974,-259.975 -233.105,-515.188 -328.918,-769.561c144.762,326.931 334.884,639.293 584.703,895.907c89.838,91.608 217.585,203.106 359.058,203.106c7.16,-0 14.028,-0.28 21.487,-0.84c166.541,-14.008 168.936,-245.969 171.323,-354.385c7.76,-344.3 -84.764,-688.879 -120.88,-1029.54c-41.188,-389.123 -15.22,-795.334 -5.374,-1185.3c19.101,-779.927 105.359,-1555.09 242.351,-2323.81c106.26,-593.07 247.734,-1181.1 405.921,-1764.36c78.197,-288.55 168.635,-575.14 265.04,-858.927c96.104,-281.828 246.24,-554.971 311.903,-844.642c6.859,-31.096 -14.929,-59.67 -49.25,-60.231c-3.88,-0 -7.76,-0.28 -11.64,-0.28c-27.462,-0 -53.431,2.522 -78.498,7.004c178.482,-208.149 366.218,-409.293 545.902,-616.882l-14.929,-8.685c-93.117,44.264 -185.65,88.527 -278.466,132.79l52.529,-3.082c-649.766,454.958 -1208.2,1052.23 -1675.3,1666.59c-779.297,1024.21 -1421.6,2243.97 -1503.38,3535.72c-51.937,814.945 50.142,1583.39 290.407,2323.53c73.123,405.932 180.868,807.1 320.556,1194.82c244.145,675.712 762.584,1229.84 1116.27,1854.57c18.508,33.337 -7.16,71.717 -44.468,71.717Zm-941.075,-10200.4c-267.125,-0 -520.524,56.309 -760.498,147.636l-28.65,5.043l-78.498,38.38c-133.417,57.149 -262.949,124.385 -388.906,197.782c-711.248,379.038 -1373.25,837.918 -1918.85,1414.46c-634.546,670.949 -1008.82,1479.17 -1162.84,2359.39c-284.141,1625.97 116.106,3571.3 1554.12,4638.66c10.448,7.844 23.582,11.485 36.115,11.485c31.338,0 60.886,-22.411 48.95,-58.27c-262.654,-802.338 -572.462,-1592.63 -749.75,-2417.1c-188.934,-880.219 -138.791,-1751.19 121.772,-2612.92c244.445,-807.661 679.017,-1599.07 1296.25,-2210.91c610.071,-604.836 1397.13,-1011.33 2158.22,-1421.74c45.369,-25.213 23.281,-86.845 -25.668,-89.366c-34.321,-1.681 -68.05,-2.521 -101.779,-2.521Zm1474.43,11.486c-8.061,-0 -16.122,1.68 -24.174,5.602c-155.5,77.04 -307.421,159.683 -456.655,246.248l-27.463,8.405l-9.846,7.564l-39.995,29.695c-379.352,271.462 -789.154,499.5 -1153.88,793.374c-1014.79,817.747 -1792.3,1917.88 -1957.95,3182.46c-184.151,1406.05 200.274,3009.89 1319.83,4015.05c9.851,8.685 22.389,12.607 34.626,12.607c31.634,-0 63.273,-25.213 50.739,-59.111c-549.48,-1459.28 -893.017,-2998.96 -460.536,-4528.28c157.291,-556.09 387.113,-1110.22 690.358,-1625.69c196.99,-251.852 402.934,-496.7 616.929,-735.663l65.072,-71.998c443.822,-414.056 936.292,-791.413 1390.26,-1199.59c36.416,-32.497 3.58,-80.681 -37.309,-80.681Zm1578.6,238.403c-25.969,0 -47.155,19.331 -50.443,47.345c-49.542,417.418 1.193,836.797 53.43,1253.37c-3.88,848.842 -23.582,1697.12 -18.809,2545.97c2.687,532.277 56.409,1060.63 72.531,1591.51c7.16,243.166 -28.054,629.488 196.089,804.299l71.638,0c717.515,-832.594 592.755,-2141.16 575.741,-3135.68c-10.739,-648.258 -84.764,-1302.12 -263.546,-1929.93c-72.531,-252.132 -160.574,-511.547 -260.859,-755.835c-69.844,-170.328 -171.623,-330.852 -349.804,-414.896c-8.662,-4.202 -17.616,-6.163 -25.968,-6.163Zm-5726.71,9203.36c-832.131,-447.953 -1540.1,-1038.22 -2040.93,-1793.78c-536.943,-808.781 -958.08,-1682.28 -958.08,-2612.36c-0,-275.383 37.008,-555.81 118.789,-840.998c0.3,-1.401 0.596,-2.802 1.193,-4.202c9.851,-34.458 21.491,-69.196 32.536,-103.374c-0.301,72.838 0.596,146.236 3.283,219.634c12.534,367.272 -11.941,883.861 324.432,1139.63c10.748,8.125 24.775,12.607 38.502,12.607c20.895,0 40.893,-10.646 46.262,-33.898c24.775,-105.895 46.267,-212.63 65.964,-319.366c5.073,618.282 131.623,1238.53 359.951,1822.07c115.209,534.238 351.001,1043.26 636.335,1522.87c395.469,384.36 855.709,711.01 1361.91,984.713c3.283,1.961 6.567,4.202 9.85,6.443Z" style="fill:#4a7235;fill-rule:nonzero;"/><path d="M29231,42668.2l-210.425,-0c-1252.07,-6.724 -2546.52,-170.89 -3723.09,-536.2l12.237,-19.05c-1127.91,-330.012 -2160.61,-1163.73 -2807.09,-2145.64c165.648,222.997 348.01,435.908 548.88,636.212c666.48,665.627 1523.68,1124.79 2442.96,1406.61c5.074,1.681 10.152,2.522 14.925,2.522c40.892,-0 66.26,-52.948 34.621,-82.363c-824.367,-761.997 -1443.09,-1756.52 -1632.92,-2834.24c28.651,42.863 57.307,86.005 86.258,129.147c89.541,248.21 192.809,491.937 308.018,729.501c300.559,619.123 701.402,1144.12 1230.28,1593.19c643.199,545.445 1280.73,823.35 2101.52,1003.76l26.259,-41.742c-489.783,-180.414 -951.813,-418.538 -1372.05,-711.011c323.836,198.624 682.593,354.105 1086.13,450.475c4.472,1.121 8.653,1.401 12.834,1.401c37.308,-0 62.976,-38.38 44.468,-71.717c-353.684,-624.726 -872.123,-1178.86 -1116.27,-1854.57c-139.688,-387.723 -247.433,-788.891 -320.556,-1194.82c137.593,424.141 320.556,839.037 545.3,1247.49c520.825,945.773 1452.95,2076.72 2627.71,2214.55l2.687,-0c31.042,-0 70.446,-58.271 32.235,-69.477c-482.915,-146.796 -895.996,-400.889 -1249.09,-722.496c48.057,14.567 96.405,22.411 144.161,22.411c129.532,0 256.687,-59.11 371.3,-205.907c186.542,-238.404 228.323,-581.303 267.717,-865.651c48.357,-353.825 57.612,-711.851 76.412,-1067.92c26.861,-506.224 120.879,-1009.65 172.816,-1513.91c10.447,-100.012 19.993,-199.744 28.646,-299.756c18.508,542.923 42.382,1086.13 67.458,1627.93c43.274,938.209 -9.555,1948.14 246.531,2859.45c6.567,22.972 21.496,31.937 38.502,31.937c33.137,-0 74.325,-34.458 76.111,-68.636c16.714,-329.452 -39.695,-655.262 -60.29,-983.593c-6.868,-107.296 -10.447,-214.592 -12.233,-322.168c13.126,64.994 31.334,128.307 59.689,187.698c57.31,120.183 138.194,165.286 227.139,165.286c115.806,0 245.639,-76.76 353.984,-163.885c285.033,-229.16 520.525,-549.367 732.736,-838.197c319.663,-434.227 559.026,-917.198 747.964,-1412.78c113.711,-297.795 205.643,-603.434 277.273,-913.836c-69.544,649.379 -234.299,1281.67 -495.458,1915.36c-366.218,885.822 -964.648,1915.64 -1769.61,2508.71c-16.423,11.766 -17.616,44.824 0.592,44.824c3.288,-0 7.46,-1.401 12.241,-3.922c325.029,-181.255 560.821,-464.483 805.267,-734.263c361.444,-399.208 696.028,-841.279 937.185,-1319.21c301.456,-595.591 514.559,-1177.73 649.765,-1780.05c-83.57,877.417 -273.392,1746.15 -576.341,2589.39l35.523,58.831c38.793,6.163 77.896,9.244 116.999,9.244c525.598,-0.28 1064.33,-535.639 1383.1,-858.087c592.154,-598.112 925.244,-1432.11 1133.87,-2213.15c161.777,-605.115 228.032,-1233.76 189.53,-1853.45c18.208,100.012 34.321,200.585 48.649,301.437c198.484,1392.61 -154.899,2860.57 -1096.58,3940.53c-463.214,531.998 -967.034,1032.9 -1620.98,1337.98c-517.838,241.206 -1120.15,579.342 -1717.68,579.342c-64.771,0 -129.542,-3.922 -194.303,-12.607c-1.795,-0.28 -3.881,-0.28 -5.675,-0.28c-56.108,0 -107.745,102.814 -35.815,113.74l0.301,-0c-114.312,3.081 -228.333,5.042 -342.344,5.603Z" style="fill:#305729;fill-rule:nonzero;"/><path d="M30236.9,42628.7c54.023,-11.206 108.045,-24.093 161.767,-38.38c45.069,6.163 90.138,10.645 135.508,13.167c-99.092,9.525 -198.183,17.929 -297.275,25.213Z" style="fill:#305729;fill-rule:nonzero;"/><path d="M31308.1,42507.4c473.67,-128.307 941.666,-356.906 1340.13,-537.601c739.302,-334.774 1475.63,-725.298 2089.87,-1253.09c666.781,-571.778 1284.61,-1115.82 1723.95,-1888.74c379.653,-666.748 503.519,-1459.28 459.644,-2211.19c-56.71,-968.185 -387.714,-1843.92 -918.385,-2596.95c-31.343,-39.781 -62.977,-79.002 -95.212,-117.942c636.932,666.748 1217.75,1547.81 1448.77,2354.63c81.475,285.188 118.483,565.615 118.483,840.998c-0.592,930.085 -421.433,1803.58 -958.08,2612.36c-1065.53,1607.48 -3070.34,2467.81 -5209.16,2797.54Zm-387.112,-94.97c112.827,-45.664 222.657,-93.008 326.23,-139.793c699.307,-314.604 1280.13,-712.411 1810.5,-1259.54c898.993,-927.564 1449.66,-2099.7 1529.06,-3367.64c29.248,947.454 -153.114,1873.62 -573.363,2766.16c-15.512,32.777 8.362,72.838 42.983,72.838c8.362,-0 17.316,-2.241 26.561,-7.564c2040.04,-1172.69 2554.89,-3790.94 1682.47,-5776.89c-279.367,-635.651 -686.482,-1215.55 -1184.63,-1720.66c1041.96,795.055 1732.01,1994.92 1967.81,3257.82c326.823,1749.51 -529.779,3206.83 -1922.14,4258.5c-1055.39,796.735 -2371.33,1574.7 -3705.48,1916.76Zm-7155.17,-915.237c-506.202,-273.703 -966.442,-600.353 -1361.91,-984.713c-285.334,-479.61 -521.126,-988.636 -636.335,-1522.87c395.173,1008.81 1095.38,1909.48 1998.25,2507.59Z" style="fill:#305729;fill-rule:nonzero;"/><path d="M25286.5,42149.1c-546.197,-121.023 -1054.49,-344.86 -1510.85,-645.457c472.473,254.373 984.645,462.522 1521.29,629.208l-10.447,16.249Z" style="fill:#b2bf9e;fill-rule:nonzero;"/><path d="M25296.9,42132.9c-536.647,-166.686 -1048.82,-374.835 -1521.29,-629.208c-3.283,-2.241 -6.567,-4.482 -9.85,-6.443c475.159,256.614 990.911,467.004 1531.74,634.811l-0.597,0.84Z" style="fill:#335427;fill-rule:nonzero;"/><path d="M21407.6,37167.5c-5.073,-669.269 132.52,-1336.86 437.555,-1955.14c641.705,-1299.32 1606.65,-2291.88 2943.19,-2917.44c80.883,-37.259 161.772,-73.958 243.252,-109.256c19.998,-7.285 39.995,-14.288 59.993,-21.572c-848.545,397.527 -1620.68,938.77 -2207.77,1643.06c-448.599,538.441 -897.791,1159.24 -1137.46,1808.9c-185.35,502.582 -241.759,1030.66 -338.76,1551.45Z" style="fill:#476c32;fill-rule:nonzero;"/><path d="M22502.7,39967.3c-326.527,-439.549 -588.579,-918.879 -800.493,-1419.5c11.937,149.037 34.325,296.394 65.363,441.79c-228.328,-583.544 -354.878,-1203.79 -359.951,-1822.07c97.001,-520.792 153.41,-1048.87 338.76,-1551.45c239.672,-649.659 688.864,-1270.46 1137.46,-1808.9c587.085,-704.287 1359.22,-1245.53 2207.77,-1643.06c568.281,-201.705 1152.09,-362.788 1723.66,-495.298c-885.858,254.653 -1729.03,609.878 -2449.53,1139.91c-945.843,568.977 -1733.2,1342.18 -2210.75,2423.54c-583.505,1323.97 -594.845,2895.31 39.996,4197.15c89.241,182.655 192.213,362.509 307.722,537.88Z" style="fill:#335427;fill-rule:nonzero;"/><path d="M25297.5,42132c-540.828,-167.807 -1056.58,-378.197 -1531.74,-634.811c-902.869,-598.112 -1603.07,-1498.78 -1998.25,-2507.59c-31.038,-145.396 -53.426,-292.753 -65.363,-441.79c211.914,500.62 473.966,979.95 800.493,1419.5c646.478,981.912 1679.18,1815.63 2807.09,2145.64l-12.237,19.05Z" style="fill:#233f1c;fill-rule:nonzero;"/><path d="M26291.4,41798.9c-991.513,-607.637 -1657.99,-1618.4 -2294.03,-2573.7c-381.743,-1058.39 -512.473,-2199.71 -254.592,-3302.92l5.67,-20.451c276.68,-792.813 671.849,-1543.61 1254.46,-2187.94c487.693,-539.842 1115.08,-957.259 1756.18,-1322.01c583.51,-332.533 1211.19,-607.636 1866.33,-792.533c-659.621,315.165 -1306.7,635.932 -1895.58,1078.28c-188.628,115.42 -373.978,235.603 -554.855,363.07c-962.857,677.393 -1903.03,1976.71 -2112.55,3134.27c-239.372,1322.01 -27.758,2734.23 647.971,3913.64c395.474,689.439 939.28,1263.46 1580.99,1710.29Z" style="fill:#335427;fill-rule:nonzero;"/><path d="M27637.2,42551.7c-820.788,-180.414 -1458.32,-458.319 -2101.52,-1003.76c-528.882,-449.074 -929.725,-974.067 -1230.28,-1593.19c-115.209,-237.564 -218.477,-481.291 -308.018,-729.501c636.035,955.299 1302.51,1966.07 2294.03,2573.7c420.24,292.473 882.27,530.597 1372.05,711.011l-26.259,41.742Z" style="fill:#233f1c;fill-rule:nonzero;"/><path d="M26485.1,39416c-79.39,-178.173 -145.053,-360.548 -200.269,-540.682c-360.251,-1172.13 -395.173,-2391.33 13.134,-3555.89c370.098,-1055.31 995.69,-2030.78 1829.01,-2820.51c108.938,-173.69 244.446,-361.108 454.269,-399.208c-69.243,80.681 -137.001,162.204 -202.364,245.688c-369.505,358.867 -708.26,744.068 -1009.12,1163.17c-677.227,941.291 -1302.82,2056.55 -1340.13,3234.01c-30.14,972.667 132.821,1817.87 455.463,2673.43Z" style="fill:#476c32;fill-rule:nonzero;"/><path d="M27956.9,41799.8c-353.383,-106.736 -703.488,-567.016 -867.641,-807.101c-533.368,-783.008 -841.983,-1639.41 -1177.46,-2502.26c19.1,213.471 48.056,427.222 86.258,639.293c-240.265,-740.146 -342.344,-1508.59 -290.407,-2323.53c81.776,-1291.75 724.082,-2511.51 1503.38,-3535.72c467.104,-614.361 1025.54,-1211.63 1675.3,-1666.59l-52.529,3.082c92.816,-44.263 185.349,-88.526 278.466,-132.79l14.929,8.685c-179.684,207.589 -367.42,408.733 -545.902,616.882c-209.823,38.1 -345.331,225.518 -454.269,399.208c-833.32,789.732 -1458.91,1765.2 -1829.01,2820.51c-408.307,1164.57 -373.385,2383.76 -13.134,3555.89c55.216,180.134 120.879,362.509 200.269,540.682c95.813,254.373 205.944,509.586 328.918,769.561c282.647,596.151 655.431,1169.61 1142.83,1614.2Z" style="fill:#335427;fill-rule:nonzero;"/><path d="M29173.7,42591.7l-2.687,-0c-1174.76,-137.832 -2106.88,-1268.78 -2627.71,-2214.55c-224.744,-408.453 -407.707,-823.349 -545.3,-1247.49c-38.202,-212.071 -67.158,-425.822 -86.258,-639.293c335.476,862.849 644.091,1719.26 1177.46,2502.26c164.153,240.085 514.258,700.365 867.641,807.101c353.092,321.607 766.173,575.7 1249.09,722.496c38.211,11.206 -1.193,69.477 -32.235,69.477Z" style="fill:#233f1c;fill-rule:nonzero;"/><path d="M29374,41013.9c-18.508,-90.487 -27.161,-183.776 -39.403,-272.582c-40.287,-292.192 -89.236,-582.704 -124.759,-875.456c-88.043,-727.82 -143.56,-1457.6 -175.795,-2188.5c-5.073,63.873 -10.447,127.746 -16.122,191.62c-14.319,-421.62 -25.367,-842.96 -31.033,-1263.74c-14.628,-1003.48 -0.902,-2015.93 52.821,-3018.29c22.088,-413.215 35.523,-961.461 113.419,-1449.48c33.428,-147.917 72.23,-295.273 113.72,-441.79c29.848,268.941 71.629,536.76 106.551,805.981c11.641,90.487 20.003,181.534 27.162,272.582c-69.844,1429.87 -169.528,2859.45 -92.825,4294.64c50.744,947.174 32.836,1898.83 63.277,2847.68c11.941,365.31 -3.279,731.741 2.987,1097.33Z" style="fill:#335427;fill-rule:nonzero;"/><path d="M29370.4,42388.3c-17.006,-0 -31.935,-8.965 -38.502,-31.937c-256.086,-911.315 -203.257,-1921.24 -246.531,-2859.45c-25.076,-541.802 -48.95,-1085.01 -67.458,-1627.93c5.675,-63.874 11.049,-127.747 16.122,-191.62c32.235,730.901 87.752,1460.68 175.795,2188.5c35.523,292.752 84.472,583.264 124.759,875.456c12.242,88.806 20.895,182.095 39.403,272.582c1.786,107.576 5.365,214.872 12.233,322.168c20.595,328.331 77.004,654.141 60.29,983.593c-1.786,34.178 -42.974,68.636 -76.111,68.636Z" style="fill:#233f1c;fill-rule:nonzero;"/><path d="M31912.8,38669.7c54.925,-577.101 63.879,-1157.56 28.956,-1737.75c-29.256,372.034 -85.064,742.387 -168.935,1106.3c49.249,-460 50.443,-928.964 3.88,-1413.34c-111.033,-1151.4 -398.452,-2208.67 -893.018,-3256.42c-195.196,-413.776 -415.166,-893.385 -753.931,-1223.96c-101.778,-135.591 -212.511,-262.497 -333.089,-379.877c491.878,266.978 895.404,637.892 1229.1,1068.48c137.593,256.054 259.966,519.951 382.039,784.409c487.397,1058.11 699.607,2263.86 686.473,3420.86c-6.267,573.739 -64.762,1109.94 -181.47,1631.29Z" style="fill:#335427;fill-rule:nonzero;"/><path d="M29508.3,42507.1c-18.208,-0 -17.015,-33.058 -0.592,-44.824c804.965,-593.069 1403.39,-1622.89 1769.61,-2508.71c261.159,-633.69 425.914,-1265.98 495.458,-1915.36c83.871,-363.91 139.679,-734.263 168.935,-1106.3c34.923,580.182 25.969,1160.64 -28.956,1737.75c-135.206,602.314 -348.309,1184.46 -649.765,1780.05c-241.157,477.929 -575.741,920 -937.185,1319.21c-244.446,269.78 -480.238,553.008 -805.267,734.263c-4.781,2.521 -8.953,3.922 -12.241,3.922Z" style="fill:#233f1c;fill-rule:nonzero;"/><path d="M29795.1,42678c-74.908,-0 -148.933,-4.763 -221.756,-15.408c220.563,-6.164 442.027,-17.369 663.492,-33.898c-148.041,31.096 -296.674,49.306 -441.736,49.306Zm843.768,-71.438c-35.213,0 -70.136,-0.84 -104.757,-3.081c259.065,-24.653 517.546,-56.59 773.924,-96.09c-224.143,60.791 -449.488,99.171 -669.167,99.171Z" style="fill:#b2bf9e;fill-rule:nonzero;"/><path d="M34586.7,37645.5c-9.855,-309.841 -42.09,-622.204 -96.113,-936.248c-102.962,-601.754 -216.09,-1252.53 -542.011,-1789.01c-45.671,-76.2 -97.006,-147.917 -150.136,-217.954c230.719,540.402 360.552,1116.38 396.967,1700.21c-106.551,-584.945 -282.054,-1156.16 -555.155,-1690.12c-291.3,-569.817 -562.014,-1175.21 -1013.3,-1644.74c-336.077,-349.342 -748.556,-709.329 -1196.86,-955.578c-252.206,-168.367 -532.757,-295.834 -813.027,-423.3c441.135,38.379 898.092,147.917 1284.61,344.579l20.895,11.487c1669.93,1040.46 2654.87,3324.49 2673.67,5230.89c1.193,124.105 -2.086,247.369 -9.546,369.793Z" style="fill:#335427;fill-rule:nonzero;"/><path d="M35908.1,33901.9c-138.495,-145.115 -279.968,-280.426 -420.841,-402.289c-8.653,-7.564 -17.607,-15.128 -26.569,-22.692l-0,-0.28c-2.678,-1.961 -5.074,-4.202 -7.752,-6.444c-0.601,-0.56 -1.202,-1.12 -2.095,-1.68c-1.785,-1.681 -3.88,-3.362 -5.665,-5.043c-1.494,-1.121 -2.988,-2.521 -4.782,-3.922c-0.893,-0.841 -2.086,-1.681 -2.979,-2.802c-638.125,-541.522 -1364,-966.503 -2140.91,-1287.83c135.799,45.384 270.113,94.129 402.032,146.797c125.36,55.188 251.012,111.777 375.471,168.368c64.47,29.695 128.348,59.95 192.217,90.766c288.622,149.039 562.014,318.247 810.34,512.388c307.422,239.525 584.102,514.908 831.535,814.664Z" style="fill:#b2bf9e;fill-rule:nonzero;"/><path d="M35460.6,33476.9l-0,-0.28l-0,0.28Zm-7.752,-6.724c-0.601,-0.56 -1.202,-1.12 -2.095,-1.68c0.893,0.56 1.494,1.12 2.095,1.68Zm-7.76,-6.723c-1.494,-1.121 -2.988,-2.521 -4.782,-3.922c1.794,1.401 3.288,2.801 4.782,3.922Zm-7.761,-6.724c-399.053,-338.416 -833.029,-629.488 -1291.18,-879.939c151.329,128.027 296.382,262.497 434.567,402.57c-276.38,-210.949 -577.234,-393.325 -901.069,-540.962c-527.092,-240.084 -1098.36,-438.148 -1669.34,-588.867c432.783,75.08 867.05,179.854 1286.11,319.367c776.911,321.328 1502.79,746.309 2140.91,1287.83Z" style="fill:#335427;fill-rule:nonzero;"/><path d="M35487.2,33499.6c-8.953,-7.564 -17.607,-15.128 -26.569,-22.692c8.962,7.564 17.916,15.128 26.569,22.692Zm-26.569,-22.972c-2.678,-1.961 -5.074,-4.202 -7.752,-6.444c2.678,2.242 5.074,4.483 7.752,6.444Zm-9.847,-8.124c-1.785,-1.681 -3.88,-3.362 -5.665,-5.043c1.785,1.681 3.88,3.362 5.665,5.043Zm-10.447,-8.965c-0.893,-0.841 -2.086,-1.961 -2.979,-2.802c0.893,1.121 2.086,1.961 2.979,2.802Z" style="fill:#729364;fill-rule:nonzero;"/><path d="M29573.4,42662.6l-0.301,-0c-71.93,-10.926 -20.293,-113.74 35.815,-113.74c1.794,0 3.88,0 5.675,0.28c64.761,8.685 129.532,12.607 194.303,12.607c597.528,0 1199.84,-338.136 1717.68,-579.342c653.946,-305.079 1157.77,-805.98 1620.98,-1337.98c941.676,-1079.96 1295.06,-2547.93 1096.58,-3940.53c-14.328,-100.852 -30.441,-201.425 -48.649,-301.437c-36.415,-583.824 -166.248,-1159.81 -396.967,-1700.21c53.13,70.037 104.465,141.754 150.136,217.954c325.921,536.48 439.049,1187.26 542.011,1789.01c54.023,314.044 86.258,626.407 96.113,936.248c-79.399,1267.94 -630.063,2440.07 -1529.06,3367.64c-530.371,547.125 -1111.19,944.932 -1810.5,1259.54c-103.573,46.785 -213.403,94.129 -326.23,139.793c1334.15,-342.058 2650.1,-1120.02 3705.48,-1916.76c1392.36,-1051.67 2248.96,-2508.99 1922.14,-4258.5c-235.793,-1262.9 -925.845,-2462.76 -1967.81,-3257.82c-138.185,-140.073 -283.238,-274.543 -434.567,-402.57c458.149,250.451 892.125,541.523 1291.18,879.939c0.893,0.841 2.086,1.961 2.979,2.802c1.794,1.401 3.288,2.801 4.782,3.922c1.785,1.681 3.88,3.362 5.665,5.043c0.893,0.56 1.494,1.12 2.095,1.68c2.678,2.242 5.074,4.483 7.752,6.444l-0,0.28c8.962,7.564 17.616,15.128 26.569,22.692c140.873,121.863 282.346,257.174 420.841,402.289c32.235,38.94 63.869,78.161 95.212,117.942c530.671,753.032 861.675,1628.77 918.385,2596.95c43.875,751.912 -79.991,1544.44 -459.644,2211.19c-439.34,772.923 -1057.17,1316.97 -1723.95,1888.74c-614.242,527.795 -1350.57,918.319 -2089.87,1253.09c-398.462,180.695 -866.458,409.294 -1340.13,537.601c-256.378,39.5 -514.859,71.437 -773.924,96.09c-45.37,-2.522 -90.439,-7.004 -135.508,-13.167c-53.722,14.287 -107.744,27.174 -161.767,38.38c-221.465,16.529 -442.929,27.734 -663.492,33.898Z" style="fill:#233f1c;fill-rule:nonzero;"/><path d="M25436.9,42152.7c0,-0 29.248,113.459 58.8,228.039c31.338,114.579 62.977,229.719 62.977,229.719l-228.925,-294.433c0,-0 -88.348,97.771 -176.396,195.262c-89.842,97.21 -178.782,194.421 -178.782,194.421l152.217,-484.933c0,0 -24.474,3.082 -59.396,5.883c-35.815,3.082 -83.571,7.004 -131.322,10.926c-96.706,7.284 -192.814,14.568 -192.814,14.568c-0,-0 115.209,-53.508 230.418,-106.736c112.823,-54.909 225.641,-108.977 225.641,-108.977c-0,0 36.712,2.241 84.768,17.369c47.752,15.408 106.848,43.983 152.814,98.892Z" style="fill:#cfc6b5;fill-rule:nonzero;"/><path d="M23571.2,41080.9c-0,0 -1.79,80.962 -4.477,161.644c1.198,79.842 2.687,159.684 2.687,159.684c0,-0 -25.964,-56.31 -52.233,-112.899c-23.276,-57.991 -46.558,-116.261 -46.558,-116.261l-305.932,202.546l191.616,-298.916c-0,-0 -65.659,-8.124 -131.323,-15.968c-66.56,-8.405 -131.03,-19.611 -131.03,-19.611c-0,0 85.365,-15.408 172.816,-35.858c85.957,-19.891 171.618,-40.061 171.618,-40.061c0,-0 94.314,28.014 132.816,115.7Z" style="fill:#cfc6b5;fill-rule:nonzero;"/><path d="M22136.7,39475.7c0,0 -11.64,26.894 -26.861,67.515c-16.117,40.341 -36.115,94.69 -57.005,149.038c-39.996,110.097 -77.901,224.397 -77.901,224.397c0,0 -7.164,-91.047 -13.43,-181.815c-3.585,-45.103 -5.971,-89.927 -8.358,-122.984c-2.09,-33.057 -0.897,-55.749 -0.897,-55.749c0,0 -131.326,33.898 -261.756,68.356c-131.923,31.656 -263.25,63.873 -263.25,63.873c0,-0 103.569,-80.402 208.33,-161.084c105.659,-78.161 211.017,-156.882 211.017,-156.882c0,0 -87.15,-41.181 -167.738,-88.246c-82.673,-47.344 -165.351,-94.689 -165.351,-94.689c-0,-0 127.446,22.412 253.103,40.621c124.459,18.49 252.206,30.256 251.905,30.256c0,-0 113.42,80.682 118.192,217.393Z" style="fill:#cfc6b5;fill-rule:nonzero;"/><path d="M21439.8,37444c0,-0 -63.873,63.313 -127.747,126.626c-63.573,64.433 -126.249,131.669 -126.249,131.669c0,-0 24.475,-64.434 49.246,-128.027c25.071,-62.753 50.142,-125.785 50.142,-125.785c-0,-0 -102.075,-11.487 -203.853,-23.253c-101.779,-13.167 -203.553,-26.614 -203.553,-26.614c-0,0 97.598,-26.894 195.792,-54.628c97.899,-25.773 195.797,-51.827 195.797,-51.827c0,-0 -46.563,-51.827 -90.735,-105.055c-43.875,-54.348 -87.751,-108.416 -87.751,-108.416c-0,-0 82.974,46.784 165.652,93.569c81.781,45.663 167.738,88.245 167.738,88.245c0,0 51.932,87.406 15.521,183.496Z" style="fill:#cfc6b5;fill-rule:nonzero;"/><path d="M21672.3,35446c0,0 -119.085,29.976 -238.475,59.952c-120.578,33.057 -241.161,65.274 -241.161,65.274l302.944,-222.716c0,-0 -104.165,-80.962 -209.227,-161.925c-103.568,-82.643 -207.137,-165.286 -207.137,-165.286c0,-0 130.434,33.898 260.864,68.075c129.532,35.299 259.37,71.158 259.37,71.158c-0,-0 -11.045,-90.487 -22.089,-180.415c-6.567,-45.943 -9.254,-90.767 -11.64,-124.384c-2.387,-33.898 -3.881,-56.31 -3.881,-56.31c0,0 53.426,108.137 113.119,215.433c60.891,106.455 121.476,212.07 121.476,212.07c0,0 -8.357,134.75 -124.163,219.074Z" style="fill:#cfc6b5;fill-rule:nonzero;"/><path d="M22973.9,33664.9c-0,0 -25.969,-1.961 -65.664,-3.922c-39.398,-2.241 -92.228,-4.202 -144.757,-6.723c-106.852,-2.801 -213.704,-5.603 -213.704,-5.603c0,0 77.004,-27.454 154.012,-54.348c38.201,-13.447 76.406,-26.613 104.761,-36.419c29.248,-8.964 49.245,-14.848 49.245,-14.848c0,0 -63.272,-91.327 -126.248,-183.215c-62.38,-92.729 -124.163,-185.177 -124.163,-185.177c-0,-0 96.701,59.391 193.406,119.343c95.808,60.231 191.32,120.743 191.32,120.743c-0,-0 13.726,-76.761 30.741,-151.84c18.504,-75.079 37.309,-149.878 37.309,-149.878c-0,0 16.714,101.133 33.127,202.266c17.015,100.292 41.189,201.985 41.189,201.985c-0,0 -42.382,108.416 -160.574,147.636Z" style="fill:#cfc6b5;fill-rule:nonzero;"/><path d="M24768.9,32372.8c-0,-0 -114.012,-44.543 -231.311,-85.725c-117.897,-38.66 -235.788,-77.319 -235.788,-77.319c-0,-0 96.7,-5.323 192.809,-9.805c96.104,-1.401 192.809,-3.082 192.809,-3.082c0,-0 -34.922,-123.545 -68.947,-247.93c-32.235,-124.665 -65.362,-249.33 -65.362,-249.33c-0,-0 84.467,99.452 169.231,199.184c82.077,100.572 165.051,200.585 165.051,200.585c0,-0 48.052,-78.161 95.212,-156.882c50.739,-77.321 101.778,-154.92 101.778,-154.92c0,-0 -22.384,118.5 -44.472,237.283c-19.697,119.622 -35.218,237.844 -35.218,237.844c-0,0 -91.331,102.533 -235.792,110.097Z" style="fill:#cfc6b5;fill-rule:nonzero;"/><path d="M26623.6,42160.9c0,0 8.353,109.257 26.561,214.872c16.714,107.856 41.489,218.794 41.489,218.794c-0,0 -47.455,-67.795 -94.018,-136.151c-45.67,-65.554 -84.172,-136.711 -84.172,-136.711c-0,-0 -87.15,96.09 -178.181,191.059c-90.138,94.97 -184.156,187.418 -184.156,187.418c-0,0 45.961,-117.661 96.705,-235.603c51.336,-116.821 102.972,-233.641 102.972,-233.641c-0,-0 -86.258,8.124 -171.923,16.528c-86.85,6.444 -174.902,7.844 -174.902,7.844c-0,0 113.72,-45.103 222.958,-94.689c110.732,-51.267 215.79,-106.175 215.79,-106.175c0,-0 30.149,1.961 67.458,16.528c37.9,14.568 82.969,38.38 113.419,89.927Z" style="fill:#cfc6b5;fill-rule:nonzero;"/><path d="M25192.4,40943.4c-0,0 -22.685,72.278 -45.069,143.995c-21.788,73.119 -42.979,146.517 -42.979,146.517c0,-0 -7.76,-54.068 -15.225,-108.977c-6.562,-54.348 -13.726,-108.136 -13.726,-108.136l-334.283,152.679l255.785,-251.291c0,0 -57.902,-14.287 -115.509,-28.295c-57.006,-15.408 -114.312,-31.096 -114.312,-31.096c-0,0 83.871,-7.284 167.442,-14.567c83.866,-9.525 167.738,-18.49 167.738,-18.49c-0,-0 78.798,35.018 90.138,117.661Z" style="fill:#cfc6b5;fill-rule:nonzero;"/><path d="M24221.5,39383.8c0,0 -62.976,92.168 -123.265,187.698c-58.204,96.09 -116.703,192.18 -116.703,192.18c-0,0 10.447,-80.121 20.298,-159.683c13.43,-79.842 26.264,-159.403 26.264,-159.403c0,-0 -133.116,23.812 -265.937,47.625c-133.713,22.131 -267.125,44.543 -267.125,44.543c-0,0 114.312,-65.834 229.22,-131.108c115.806,-64.994 231.316,-128.868 231.316,-128.868c-0,0 -74.021,-42.302 -148.638,-84.323c-75.213,-42.303 -148.341,-88.246 -148.341,-88.246c-0,-0 119.987,24.652 242.059,43.982c120.583,19.05 241.462,37.54 241.462,37.54c0,-0 23.578,19.89 44.473,54.628c21.787,34.458 42.678,82.924 34.917,143.435Z" style="fill:#cfc6b5;fill-rule:nonzero;"/><path d="M23724.9,37589.7c-0,0 -64.766,55.469 -130.129,110.658c-64.771,57.43 -129.833,114.86 -129.833,114.86l105.955,-219.355c-0,0 -101.478,-8.964 -203.853,-17.649c-101.182,-10.085 -202.66,-19.89 -202.66,-19.89c-0,-0 98.495,-24.933 196.393,-49.586c98.49,-23.813 196.985,-47.625 196.985,-47.625c0,0 -45.068,-44.263 -89.541,-88.807c-45.961,-44.823 -88.343,-91.327 -88.343,-91.327c-0,-0 81.184,40.061 165.351,77.881c84.167,36.699 167.438,73.118 167.438,73.118c-0,-0 13.134,19.05 20.895,47.905c8.056,29.135 9.55,68.636 -8.658,109.817Z" style="fill:#cfc6b5;fill-rule:nonzero;"/><path d="M23828.7,35814.2c-0,0 -28.651,8.405 -68.05,23.813c-40.296,15.408 -93.421,36.139 -147.143,56.869c-107.449,42.582 -216.392,90.768 -216.392,90.768c0,-0 59.397,-59.111 118.789,-118.222c29.252,-28.575 58.204,-56.869 79.991,-78.441l38.802,-34.458c0,0 -120.583,-55.749 -241.462,-111.498c-119.986,-59.111 -239.968,-118.222 -239.968,-118.222c-0,0 133.713,13.448 267.426,26.895c133.116,15.688 265.636,31.656 265.636,31.656c0,-0 -8.056,-18.77 -20.594,-47.064c-10.744,-28.576 -25.367,-66.395 -39.695,-104.495c-27.758,-77.881 -55.813,-156.602 -55.813,-156.602c0,0 77.901,92.168 157.888,177.893c40.592,42.302 80.587,84.324 111.032,115.98c31.038,30.817 52.233,50.987 52.233,50.987c0,0 28.054,112.338 -62.68,194.141Z" style="fill:#cfc6b5;fill-rule:nonzero;"/><path d="M24701.8,34219.3c-0,0 -99.688,-3.641 -199.677,-7.844c-101.478,-3.641 -200.87,-1.4 -200.87,-1.4c-0,0 65.964,-28.295 135.207,-51.827c67.753,-24.092 136.104,-48.185 136.104,-48.185c-0,-0 -75.214,-83.484 -150.132,-166.127c-74.02,-84.043 -148.04,-168.368 -148.04,-168.368c-0,0 100.585,52.949 201.166,106.176c99.693,54.068 199.677,108.137 199.677,108.137c-0,-0 1.494,-69.477 2.983,-138.953c1.494,-70.597 7.164,-140.353 7.164,-140.353c-0,-0 31.342,93.848 67.157,187.137c36.115,92.169 72.527,184.056 72.527,184.056c-0,0 -23.578,97.771 -123.266,137.551Z" style="fill:#cfc6b5;fill-rule:nonzero;"/><path d="M26092.3,32937.3c0,0 -112.217,-32.777 -225.336,-61.072c-114.311,-28.576 -228.628,-56.59 -228.628,-56.59c-0,0 85.361,-11.486 170.726,-22.411c84.764,-10.926 170.42,-19.05 170.42,-19.05c0,-0 -59.688,-114.02 -119.085,-227.759c-58.504,-115.141 -116.999,-230 -116.999,-230l390.692,347.661c0,0 22.389,-79.282 45.67,-158.282c22.981,-79.562 49.542,-157.722 49.542,-157.722c-0,-0 10.447,115.14 21.195,229.999c13.727,114.58 26.861,228.599 26.861,228.599c0,0 -14.027,27.455 -44.477,56.31c-29.548,29.415 -75.209,61.072 -140.581,70.317Z" style="fill:#cfc6b5;fill-rule:nonzero;"/><path d="M27427.4,32116.2c-0,0 -89.838,-42.301 -179.384,-84.324c-91.923,-40.621 -182.662,-81.802 -182.662,-81.802c0,-0 73.724,3.642 146.848,7.284c72.531,3.922 145.654,8.404 145.654,8.404l-124.459,-418.258l271.899,347.941c-0,0 31.643,-63.032 63.277,-125.786c33.428,-62.472 67.157,-125.504 67.157,-125.504c-0,-0 -11.641,98.891 -19.401,196.662c-6.868,97.771 -14.027,195.541 -14.027,195.541c-0,0 -63.578,82.924 -174.902,79.842Z" style="fill:#cfc6b5;fill-rule:nonzero;"/><path d="M28301.6,42114.9c0,0 -10.147,104.214 -14.327,209.549c-2.387,52.388 -2.687,105.896 -2.387,146.237c0.902,39.78 2.988,66.674 2.988,66.674c-0,0 -8.653,-17.089 -21.196,-42.582c-11.34,-25.493 -26.56,-59.951 -41.78,-93.849c-26.269,-69.196 -52.83,-137.832 -52.83,-137.832c0,0 -98.199,86.846 -196.097,173.971c-99.985,84.324 -199.668,168.928 -199.668,168.928c-0,0 64.761,-110.377 129.231,-221.035c66.265,-109.537 132.52,-218.794 132.52,-218.794c0,-0 -81.184,6.723 -162.068,8.124c-81.184,1.121 -162.96,1.961 -162.96,1.961c-0,0 112.517,-40.061 221.464,-82.923c54.023,-21.291 108.638,-44.263 149.235,-61.912c39.694,-17.93 66.856,-29.976 66.856,-29.976c0,-0 28.355,3.082 61.182,19.05c32.836,16.248 69.544,45.664 89.837,94.409Z" style="fill:#cfc6b5;fill-rule:nonzero;"/><path d="M27262.3,40772.2c0,0 -29.247,68.076 -58.795,136.151c-28.055,68.916 -55.817,138.112 -55.817,138.112l-4.473,-203.386l-335.776,148.758l268.319,-238.405c-0,0 -54.916,-11.486 -109.239,-22.972c-27.754,-5.883 -55.216,-12.606 -76.111,-17.089l-32.827,-8.404c0,0 81.184,-7.004 164.154,-17.649c81.184,-10.926 162.669,-21.291 162.669,-21.291c0,-0 73.424,29.695 77.896,106.175Z" style="fill:#cfc6b5;fill-rule:nonzero;"/><path d="M26438,39368.9c0,-0 -64.77,85.724 -129.833,170.889c-63.577,88.246 -127.446,176.772 -127.446,176.772l62.976,-288.551c0,0 -133.412,24.093 -265.932,48.185c-132.52,22.692 -265.341,45.104 -265.341,45.104c0,-0 117.3,-61.912 235.192,-123.264c118.192,-60.792 236.092,-121.304 236.092,-121.304c0,0 -70.144,-36.699 -140.28,-73.678c-70.737,-38.38 -141.473,-76.76 -141.473,-76.76c-0,0 118.192,17.369 236.083,35.299c117.3,14.847 234.299,29.415 234.299,29.415c-0,-0 22.088,17.369 40.296,49.025c17.607,31.377 34.321,74.799 25.367,128.868Z" style="fill:#cfc6b5;fill-rule:nonzero;"/><path d="M25994.1,37761.2c0,0 -63.577,52.948 -127.146,105.616c-63.577,54.628 -127.446,108.696 -127.446,108.696l101.177,-201.425l-408.303,-12.046l386.816,-107.296c0,0 -48.056,-37.26 -96.404,-74.239c-44.472,-38.38 -88.945,-76.76 -88.945,-76.76c0,-0 82.678,29.696 166.249,59.671c85.957,28.575 171.914,56.59 171.914,56.59c0,-0 56.71,64.153 22.088,141.193Z" style="fill:#cfc6b5;fill-rule:nonzero;"/><path d="M25916.5,36164.3c-0,-0 -101.178,42.582 -202.956,90.207c-50.739,24.092 -101.779,48.745 -139.985,67.515c-37.008,19.05 -61.482,31.937 -61.482,31.937l30.144,-36.98c19.101,-21.29 44.773,-49.586 70.737,-77.88c51.636,-55.189 102.972,-110.658 102.972,-110.658c0,0 -128.936,-38.38 -257.279,-77.88c-127.146,-41.462 -254.593,-82.363 -254.593,-82.363c0,-0 134.611,-0.28 268.92,-0.28c134.01,1.68 268.62,3.361 268.62,3.361c-0,0 -43.575,-64.713 -86.258,-129.427c-21.787,-32.497 -42.978,-66.395 -57.006,-91.328l-24.178,-42.022c-0,0 22.685,18.21 57.306,45.384c33.729,26.614 79.395,61.912 127.451,96.65c94.911,69.196 190.423,133.91 190.423,133.91c-0,0 10.447,24.653 11.34,59.671c-0.301,34.458 -8.653,78.721 -44.176,120.183Z" style="fill:#cfc6b5;fill-rule:nonzero;"/><path d="M26428.1,34623c-0,0 -96.104,10.366 -191.908,20.731c-95.512,13.167 -191.616,26.614 -191.616,26.614c0,0 57.302,-32.777 114.613,-65.834c59.096,-30.816 116.999,-61.632 116.999,-61.632c-0,-0 -92.525,-64.434 -185.349,-128.588c-91.933,-64.713 -183.856,-130.267 -183.856,-130.267c-0,-0 108.938,33.057 217.284,66.954c108.637,34.178 216.983,69.196 216.983,69.196c0,0 -16.714,-62.752 -33.729,-126.065c-15.22,-63.874 -31.333,-127.467 -31.333,-127.467c-0,0 57.302,79.842 114.312,159.404c58.495,77.88 116.398,155.2 116.398,155.2c-0,0 8.361,93.009 -78.798,141.754Z" style="fill:#cfc6b5;fill-rule:nonzero;"/><path d="M27359.9,33248.3c-0,0 -112.818,-12.046 -225.636,-20.73c-113.42,-8.124 -226.538,-16.249 -226.538,-16.249c-0,0 75.209,-23.532 150.126,-47.344c75.218,-21.571 150.728,-43.703 150.728,-43.703c0,0 -88.644,-95.53 -176.696,-191.06c-87.451,-96.09 -175.494,-192.46 -175.494,-192.46l460.536,257.454c-0,0 -2.687,-76.199 -4.481,-152.4c-1.194,-76.759 -2.387,-153.52 -2.387,-153.52c0,0 43.876,104.495 88.644,208.71c45.67,103.094 91.933,206.467 91.933,206.467c-0,0 -18.509,107.856 -130.735,144.835Z" style="fill:#cfc6b5;fill-rule:nonzero;"/><path d="M28668.7,31886.5c0,0 -78.196,-53.507 -156.694,-105.894c-79.991,-52.108 -160.282,-103.934 -160.282,-103.934c-0,-0 66.264,13.166 132.52,25.773c65.071,14.007 130.734,28.014 130.734,28.014l-86.257,-425.261l223.25,375.956c-0,-0 32.535,-57.431 65.362,-114.58c33.729,-56.869 68.05,-113.74 68.05,-113.74c0,0 -17.006,94.97 -30.441,189.66c-11.941,94.408 -24.474,189.098 -24.474,189.098c-0,-0 -61.783,72.277 -161.768,54.908Z" style="fill:#cfc6b5;fill-rule:nonzero;"/><path d="M29122.7,32985.8l270.113,-127.746l-130.133,141.473l361.745,69.477l-366.818,28.295l142.666,143.154l-285.934,-137.551c-0,0 -38.502,-60.511 8.361,-117.102Z" style="fill:#cfc6b5;fill-rule:nonzero;"/><path d="M29069.5,34449.8l389.207,-190.779l-185.95,207.588l527.392,93.568l-532.165,48.466l210.717,204.226l-418.747,-192.74c0,-0 -57.01,-87.126 9.546,-170.329Z" style="fill:#cfc6b5;fill-rule:nonzero;"/><path d="M29024.8,35955.6l291.008,-148.757l-137.293,158.842l399.045,64.434l-401.44,43.142l161.476,152.4l-318.762,-141.194c-0,0 -43.284,-64.993 5.966,-128.867Z" style="fill:#cfc6b5;fill-rule:nonzero;"/><path d="M29024.5,37427l380.254,-203.946l-176.697,213.191l530.381,75.079l-529.779,67.515l217.876,196.663l-425.314,-177.333c0,0 -59.989,-85.164 3.279,-171.169Z" style="fill:#cfc6b5;fill-rule:nonzero;"/><path d="M29048.1,38929.1l320.857,-183.216l-146.256,187.138l455.764,52.387l-450.39,69.197l192.218,164.165l-369.205,-142.874c-0,-0 -54.323,-71.438 -2.988,-146.797Z" style="fill:#cfc6b5;fill-rule:nonzero;"/><path d="M29134,40411.6l366.819,-227.198l-163.261,224.397l533.959,41.181l-524.113,100.853c-0,-0 57.903,45.664 115.806,91.607c59.096,45.104 117.6,90.208 117.6,90.208l-439.641,-149.038c-0,-0 -64.771,-81.523 -7.169,-172.01Z" style="fill:#cfc6b5;fill-rule:nonzero;"/><path d="M29293.7,41919.4l299.069,-214.032l-125.361,200.865l458.451,6.164l-440.844,115.7l207.137,142.874l-380.545,-103.374c0,0 -61.182,-67.235 -17.907,-148.197Z" style="fill:#cfc6b5;fill-rule:nonzero;"/><path d="M32055.1,32767.3c-0,-0 5.365,-79.002 6.859,-156.041c1.794,-78.722 3.579,-157.162 3.579,-157.162c0,-0 22.99,54.908 45.971,109.817c22.981,53.788 42.974,109.817 42.974,109.817l299.962,-209.269l-191.316,298.356c0,-0 63.277,4.202 125.352,11.486c62.384,7.283 125.06,14.287 125.06,14.287c-0,-0 -83.27,20.731 -166.841,41.461c-82.678,20.171 -165.648,43.704 -165.648,43.704c0,-0 -90.739,-22.973 -125.952,-106.456Z" style="fill:#cfc6b5;fill-rule:nonzero;"/><path d="M33426.9,34248.1c0,-0 46.864,-105.615 85.666,-212.071c38.802,-106.455 74.918,-216.832 74.918,-216.832c-0,-0 7.46,85.724 15.22,171.449c5.666,86.004 5.966,171.729 5.966,171.729c0,-0 129.241,-39.78 258.172,-79.001c130.735,-38.1 261.16,-75.919 261.16,-75.919c-0,-0 -102.672,81.802 -204.742,163.605c-103.873,80.682 -207.437,160.804 -207.437,160.804c-0,-0 81.476,37.82 163.562,75.639c82.969,40.061 165.948,80.402 165.948,80.402c-0,-0 -127.747,-14.568 -252.507,-24.373c-124.759,-10.645 -247.433,-16.248 -247.433,-16.248c0,-0 -25.968,-19.05 -55.516,-51.827c-29.548,-33.898 -59.096,-82.643 -62.977,-147.357Z" style="fill:#cfc6b5;fill-rule:nonzero;"/><path d="M34139.3,36122.9c-0,0 62.676,-61.912 125.351,-122.984c62.084,-64.154 123.867,-128.306 123.867,-128.306l-94.911,240.925c0,-0 102.371,7.284 205.042,14.567c102.672,8.965 205.644,17.649 205.644,17.649c-0,0 -97.298,28.856 -194.303,57.991c-97.899,28.015 -195.497,55.749 -195.497,55.749c0,-0 45.37,47.625 90.739,95.53c46.263,49.025 91.632,98.331 91.632,98.331c0,0 -83.871,-41.182 -168.635,-82.083c-84.172,-38.1 -168.043,-77.32 -168.043,-77.32c-0,0 -13.126,-19.891 -21.487,-51.267c-8.061,-31.657 -16.414,-73.398 0.601,-118.782Z" style="fill:#cfc6b5;fill-rule:nonzero;"/><path d="M34082.9,38087.5c-0,-0 26.569,-12.887 66.264,-32.218c39.996,-20.17 92.525,-46.784 145.354,-73.958c106.251,-56.309 211.91,-113.459 211.91,-113.459c-0,0 -56.409,68.636 -112.818,136.711c-28.355,33.618 -56.409,66.675 -77.304,91.888l-36.416,40.902c-0,-0 123.566,50.706 247.433,101.132c123.867,52.668 247.724,105.335 247.724,105.335c0,0 -135.207,-2.241 -270.113,-5.042c-134.906,-3.922 -268.92,-7.565 -268.92,-7.565c0,0 36.716,79.282 74.326,159.124c32.827,80.401 65.663,161.644 65.663,161.644c-0,-0 -84.773,-88.246 -170.129,-172.57c-88.353,-85.445 -178.19,-166.687 -178.482,-166.687c0,-0 -32.836,-123.825 55.508,-225.237Z" style="fill:#cfc6b5;fill-rule:nonzero;"/><path d="M33361.2,39983c0,-0 25.668,-3.922 64.17,-8.965c37.609,-6.443 88.052,-14.848 138.795,-23.252c101.77,-18.77 203.549,-38.1 203.549,-38.1c-0,0 -64.471,40.901 -129.833,81.803c-31.935,19.89 -64.47,39.78 -88.645,54.348l-42.381,23.812c-0,0 87.15,71.998 173.708,144.275c85.957,73.679 171.623,146.797 171.623,146.797c-0,0 -108.947,-35.858 -218.186,-71.437c-108.045,-36.699 -215.79,-73.959 -215.79,-73.959c0,0 9.255,73.679 15.221,147.357c5.073,73.679 9.855,147.077 9.855,147.077c0,-0 -45.971,-91.048 -91.632,-182.095c-45.961,-89.367 -97.898,-178.453 -97.898,-178.453c-0,-0 7.76,-108.977 107.444,-169.208Z" style="fill:#cfc6b5;fill-rule:nonzero;"/><path d="M32070.3,41556.6c0,0 119.987,18.77 239.664,31.376c121.48,12.327 242.66,24.093 242.66,24.093c-0,-0 -88.644,24.373 -176.696,49.025c-87.151,24.373 -176.096,43.983 -176.096,43.983c0,0 68.943,109.257 138.486,218.794c68.351,110.378 135.809,221.596 135.809,221.596c-0,-0 -107.745,-75.639 -215.499,-151.279c-106.852,-77.04 -213.704,-154.08 -213.704,-154.08c-0,-0 -19.993,84.044 -40.287,168.368c-20.294,85.164 -45.069,168.928 -45.069,168.928c-0,-0 -13.435,-117.101 -32.536,-234.763c-20.294,-115.7 -39.995,-231.681 -39.995,-231.681c-0,0 13.735,-28.855 42.382,-63.313c28.956,-34.177 74.325,-73.118 140.881,-91.047Z" style="fill:#cfc6b5;fill-rule:nonzero;"/><path d="M29423.5,42466.2c-0,0 92.224,42.022 187.143,80.682c95.804,38.66 191.917,76.76 191.917,76.76c0,0 -78.497,-0.56 -156.994,-1.681c-77.305,-1.961 -154.909,-4.482 -154.909,-4.482c-0,0 28.947,105.615 57.602,211.23c26.57,106.456 53.13,212.631 53.13,212.631c0,0 -68.35,-87.125 -136.701,-174.251c-67.448,-87.685 -134.305,-175.651 -134.305,-175.651c0,-0 -36.716,64.433 -75.819,128.026c-38.793,64.154 -81.776,126.626 -81.776,126.626c-0,0 21.195,-99.732 35.514,-198.903c15.821,-99.172 26.87,-198.064 26.87,-198.064c-0,0 70.737,-83.763 188.328,-82.923Z" style="fill:#cfc6b5;fill-rule:nonzero;"/><path d="M33004.3,32279c0,0 -26.569,-78.72 -52.237,-157.442c-26.861,-79.562 -56.109,-158.002 -56.109,-158.002c0,-0 45.67,49.585 89.537,100.012c44.477,50.146 88.052,100.292 88.052,100.292l237.578,-275.384l-88.644,340.378l274.895,-28.574c-0,-0 -80.592,38.94 -160.875,78.44c-78.798,39.781 -157.295,79.562 -157.295,79.562c-0,-0 -104.165,-5.883 -174.902,-79.282Z" style="fill:#cfc6b5;fill-rule:nonzero;"/><path d="M34995.6,33507.7c0,0 6.868,-116.821 9.555,-237.845c3.871,-121.302 -1.494,-241.765 -1.494,-241.765c0,-0 10.147,21.851 25.668,54.348c15.221,32.777 32.827,78.722 50.735,122.984c35.523,88.527 70.445,176.772 70.445,176.772c-0,0 117.29,-66.954 234.891,-133.91c118.793,-63.592 236.685,-126.626 236.685,-126.626c-0,0 -75.219,106.176 -150.728,212.071c-77.304,104.775 -154.9,208.989 -154.9,208.989c0,0 97.297,23.813 194.595,47.345c50.443,11.486 96.113,28.014 132.52,38.66c35.814,11.206 59.697,19.33 59.697,19.33c-0,0 -130.735,4.762 -259.666,16.248c-131.928,13.727 -259.074,31.377 -259.074,31.377c0,-0 -34.922,-13.728 -74.617,-44.544c-39.695,-31.376 -85.064,-78.72 -114.312,-143.434Z" style="fill:#cfc6b5;fill-rule:nonzero;"/><path d="M36251.3,35412.4c-0,0 50.734,-77.04 101.177,-153.8c26.269,-39.781 45.971,-78.441 63.578,-108.137c16.413,-29.695 27.462,-49.866 27.462,-49.866c-0,0 -2.095,17.649 -4.181,44.263c-2.987,26.334 -4.782,60.232 -11.941,96.371c-12.533,69.756 -25.367,140.073 -25.367,140.073c-0,-0 102.671,-5.043 205.643,-10.086c103.864,-3.361 207.137,-6.163 207.137,-6.163c-0,0 -90.138,44.824 -180.276,89.086c-90.439,43.423 -180.868,86.566 -180.868,86.566c-0,-0 59.688,45.383 110.131,94.689c52.829,49.586 106.251,99.732 106.251,99.732c-0,-0 -90.138,-36.139 -180.267,-71.437c-45.069,-17.369 -88.653,-34.178 -123.275,-45.944c-35.213,-11.206 -58.495,-19.05 -58.495,-19.05c0,0 -73.123,-80.402 -56.709,-186.297Z" style="fill:#cfc6b5;fill-rule:nonzero;"/><path d="M36440.5,37607.1c0,0 27.754,-15.128 65.664,-39.221c38.802,-25.213 90.73,-58.55 142.366,-91.327c103.573,-68.356 207.738,-143.435 207.738,-143.435c-0,0 -53.731,80.962 -107.754,163.045c-26.26,39.221 -53.421,78.441 -73.715,108.137c-19.101,29.135 -36.115,47.905 -36.115,47.905c-0,-0 124.759,48.465 249.819,101.412c123.566,53.789 247.424,108.137 247.424,108.137c-0,-0 -135.498,3.362 -271.307,7.004c-134.906,1.12 -269.812,2.241 -269.812,2.241c-0,-0 9.254,21.851 23.281,54.628c14.027,32.777 34.021,77.881 47.155,121.583c29.849,90.768 59.989,180.975 59.989,180.975c-0.592,-0 -81.476,-98.332 -164.746,-189.939c-40.597,-46.225 -83.279,-91.328 -118.493,-125.226c-33.729,-32.777 -56.117,-55.189 -56.117,-55.189c-0,0 -33.729,-134.749 54.623,-250.73Z" style="fill:#cfc6b5;fill-rule:nonzero;"/><path d="M35491.1,39642.4c0,0 105.659,-5.042 214.898,-14.007c108.045,-8.405 219.369,-20.451 219.369,-20.451c0,0 -77.003,37.26 -154.307,75.079c-75.81,35.859 -151.62,71.998 -151.62,71.998c-0,-0 71.037,86.845 141.774,173.97c68.942,88.527 137.894,176.773 137.894,176.773c-0,-0 -103.273,-50.427 -205.644,-101.413c-102.079,-51.267 -203.857,-103.374 -203.857,-103.374c-0,-0 -11.34,79.561 -22.981,159.123c-13.135,79.841 -31.343,158.563 -31.343,158.563c0,-0 -19.1,-103.094 -42.682,-205.067c-25.959,-103.094 -54.615,-203.106 -54.615,-203.106c0,-0 8.954,-29.416 33.729,-63.874c22.68,-35.858 64.17,-74.798 119.385,-104.214Z" style="fill:#cfc6b5;fill-rule:nonzero;"/><path d="M33672.8,41106.1c0.3,0 122.373,38.66 244.145,70.317c124.167,31.376 248.626,62.752 248.626,62.752c-0,0 -101.178,11.206 -202.064,22.412c-49.842,6.163 -100.585,9.805 -138.786,12.046c-37.609,2.802 -62.676,4.763 -62.676,4.763c0,0 38.201,123.544 76.703,246.248c36.416,124.385 73.724,248.49 73.724,248.49c0,-0 -90.438,-94.689 -180.877,-189.379c-88.644,-96.09 -177.88,-191.9 -177.88,-191.9c-0,0 -48.357,82.643 -97.006,165.006c-48.949,84.044 -101.478,165.006 -101.478,165.006c0,0 22.389,-121.023 39.394,-244.007c15.521,-121.583 31.643,-242.887 31.643,-242.887c0,0 24.174,-27.734 66.857,-57.71c42.081,-31.096 102.671,-63.593 179.675,-71.157Z" style="fill:#cfc6b5;fill-rule:nonzero;"/><path d="M31395.8,42029.8c0,-0 91.933,54.348 186.242,106.735c94.319,53.228 190.132,103.934 190.132,103.934c-0,0 -85.666,-11.766 -171.323,-23.532c-85.064,-13.167 -170.73,-26.614 -170.73,-26.614c0,0 4.482,110.098 8.662,219.355c2.387,110.377 5.074,219.914 5.074,219.914c-0,0 -53.13,-96.65 -106.552,-193.02c-52.237,-96.931 -104.766,-193.861 -104.766,-193.861c0,-0 -57.903,59.11 -115.806,118.221c-59.096,57.991 -120.879,115.14 -120.879,115.14c0,0 45.962,-96.37 86.85,-193.581c39.704,-97.49 79.7,-194.701 79.7,-194.701c-0,-0 102.37,-74.799 233.396,-57.99Z" style="fill:#cfc6b5;fill-rule:nonzero;"/><path d="M30245.5,32220.4c0,-0 32.536,-101.973 60.289,-206.188c14.028,-52.667 26.57,-104.774 35.524,-145.116c8.653,-39.5 12.834,-67.234 12.834,-67.234c-0,-0 18.499,76.479 30.741,152.679c13.726,75.919 23.873,151.279 23.873,151.279c0,-0 117.6,-62.192 234.9,-123.825c119.385,-60.23 238.771,-120.462 238.771,-120.462c-0,0 -89.245,94.689 -178.181,189.099c-90.439,93.008 -180.877,186.016 -180.877,186.016c-0,-0 82.077,15.128 163.862,32.497c82.97,16.809 164.455,37.82 164.455,37.82c-0,0 -119.987,12.327 -239.964,29.976c-119.987,17.089 -237.287,37.259 -237.287,37.259c0,-0 -111.032,-41.741 -128.94,-153.8Z" style="fill:#cfc6b5;fill-rule:nonzero;"/><path d="M31231.4,33709.4c-0,-0 40.888,-63.593 82.077,-126.906c40.296,-64.714 79.991,-129.708 79.991,-129.708l-30.441,209.549l361.736,-82.082l-310.701,188.258l206.536,96.65c0,-0 -82.969,-8.124 -166.24,-15.688c-82.978,-7.003 -165.356,-13.447 -165.356,-13.447c0,-0 -64.77,-47.905 -57.602,-126.626Z" style="fill:#cfc6b5;fill-rule:nonzero;"/><path d="M31802.3,35334.3c-0,0 82.077,-75.639 162.068,-154.08c77.905,-80.122 156.102,-159.403 156.102,-159.403c-0,-0 -27.463,72.557 -55.216,145.395c-30.15,71.718 -60.891,143.435 -60.891,143.435c0,0 135.207,0 270.113,-0.56c135.207,1.681 270.114,2.801 270.114,2.801c-0,0 -125.953,42.303 -252.507,84.325c-126.244,40.901 -253.098,81.802 -253.098,81.802c-0,0 62.976,51.267 126.253,102.533c62.976,53.228 126.845,105.896 126.845,105.896c0,-0 -113.711,-40.061 -227.731,-79.842c-112.818,-37.54 -226.538,-74.799 -226.538,-74.799c-0,0 -18.8,-22.412 -33.428,-57.99c-14.028,-35.299 -23.273,-84.044 -2.086,-139.513Z" style="fill:#cfc6b5;fill-rule:nonzero;"/><path d="M31945.9,37093.9c0,0 73.123,-43.702 145.354,-87.125c73.123,-45.384 146.547,-90.207 146.547,-90.207l-137.894,191.62l396.658,86.845l-403.826,41.742l151.629,191.059c0,0 -77.304,-46.503 -154.908,-93.008c-77.304,-44.823 -154.608,-89.086 -154.608,-89.086c-0,-0 -38.803,-77.881 11.048,-151.84Z" style="fill:#cfc6b5;fill-rule:nonzero;"/><path d="M31702,38810.6c-0,0 108.646,-39.5 217.284,-78.721c54.323,-20.45 108.938,-40.901 149.835,-56.029c39.695,-16.529 66.255,-27.174 66.255,-27.174l-35.514,35.018c-22.981,20.731 -52.529,47.345 -82.678,75.08c-59.989,53.507 -120.579,107.295 -120.579,107.295c0,0 122.966,51.547 245.94,103.374c122.373,53.228 244.737,106.456 244.737,106.456l-534.853,-43.423l146.547,288.27c0,0 -88.043,-79.561 -176.395,-159.683c-88.645,-77.6 -177.289,-155.201 -177.289,-155.201c0,0 -31.342,-111.498 56.71,-195.262Z" style="fill:#cfc6b5;fill-rule:nonzero;"/><path d="M31103.3,40482.5c0,-0 95.212,-15.688 190.423,-31.657c96.705,-17.649 192.818,-34.738 192.818,-34.738l-230.126,145.396c-0,0 92.825,63.033 185.95,126.626c92.224,64.154 184.156,128.867 184.156,128.867l-440.843,-126.346c-0,0 16.422,64.994 32.535,129.988c15.221,66.395 31.343,132.509 31.343,132.509c-0,0 -57.602,-81.242 -114.913,-162.484c-58.796,-78.721 -116.699,-157.722 -116.699,-157.722c0,-0 -3.288,-95.53 85.356,-150.439Z" style="fill:#cfc6b5;fill-rule:nonzero;"/><path d="M30119.6,41916.6c-0,-0 112.526,16.528 227.731,28.855c58.504,6.163 116.407,11.766 160.574,16.248c44.176,4.202 71.93,5.043 71.93,5.043c-0,-0 -18.199,7.003 -49.241,15.688c-30.149,7.844 -70.144,18.77 -110.14,29.695c-78.789,20.451 -157.887,41.462 -157.887,41.462c-0,0 81.485,100.853 162.96,201.985c79.992,103.374 159.682,206.188 159.682,206.188c0,-0 -111.324,-69.476 -222.949,-138.953c-109.539,-71.437 -219.379,-142.314 -219.379,-142.314c-0,0 -0,20.451 -3.279,49.026c-2.988,28.575 -6.868,67.235 -11.049,105.895c-8.953,78.721 -17.907,158.002 -17.907,158.002c-0,0 -30.14,-111.778 -63.277,-219.634c-32.527,-108.417 -69.544,-212.911 -69.544,-212.911c0,-0 25.377,-111.218 141.775,-144.275Z" style="fill:#cfc6b5;fill-rule:nonzero;"/><path d="M27750.3,42442.7c0,-0 20.595,12.607 50.735,32.217c30.741,19.05 71.638,43.422 113.119,66.114c82.978,45.944 171.021,89.647 171.021,89.647c0,-0 -69.243,-7.004 -138.486,-14.007c-33.428,-2.802 -68.35,-8.965 -93.717,-12.887l-42.082,-7.284c0,0 25.367,105.615 50.735,211.51c22.981,107.016 45.069,213.752 45.069,213.752c-0,-0 -59.096,-92.168 -119.386,-184.056c-57.01,-93.569 -114.011,-187.138 -114.011,-187.138c-0,0 -32.235,57.991 -68.059,115.701c-35.815,56.309 -78.197,111.778 -78.197,111.778c0,-0 8.061,-23.532 15.221,-58.551c8.662,-35.858 18.809,-83.203 26.269,-130.548c16.113,-93.849 25.667,-189.098 25.667,-189.098l41.49,-32.777c26.56,-16.249 65.062,-31.937 114.612,-24.373Z" style="fill:#cfc6b5;fill-rule:nonzero;"/><path d="M27611.5,31501c-0,-0 -79.991,-65.274 -163.261,-126.906c-82.979,-63.033 -168.936,-122.984 -168.936,-122.984c-0,-0 79.991,19.33 158.488,41.741c79.089,20.731 156.393,44.543 156.393,44.543c0,0 6.568,-109.536 13.436,-218.793c9.245,-108.977 17.907,-218.235 17.907,-218.235c-0,0 39.995,101.974 79.991,203.387c38.502,102.813 76.703,204.506 76.703,204.506c0.3,0 59.096,-52.387 120.578,-102.814c61.192,-50.706 126.554,-98.891 126.554,-98.891c0,-0 -55.817,89.647 -104.465,180.694c-49.25,91.048 -94.319,182.935 -94.319,182.935c-0,0 -100.576,61.353 -219.069,30.817Z" style="fill:#cfc6b5;fill-rule:nonzero;"/><path d="M29246.2,31654l-95.512,-402.01l164.755,222.155l232.805,-454.116l-87.451,495.018l265.04,-137.831l-306.529,330.011c-0,0 -104.457,28.855 -173.108,-53.227Z" style="fill:#cfc6b5;fill-rule:nonzero;"/><path d="M30617.1,31576.4c0,0 -65.663,-102.254 -135.206,-203.105c-69.243,-100.853 -144.753,-200.025 -144.753,-200.025c-0,0 86.258,52.388 169.528,107.296c81.785,55.188 163.862,110.658 163.862,110.658c0,-0 56.71,-116.821 113.711,-233.922c58.805,-115.981 117.299,-231.962 117.299,-231.962c0,0 2.387,127.187 4.181,254.373c0.893,127.186 1.193,253.813 1.193,253.813c0,0 94.62,-32.497 188.629,-65.554c96.113,-30.817 191.625,-62.473 191.625,-62.473c-0,0 -99.693,80.402 -199.085,160.523c-96.705,82.364 -193.702,164.727 -193.702,164.727c0,-0 -149.835,26.894 -277.282,-54.349Z" style="fill:#cfc6b5;fill-rule:nonzero;"/></g></svg>