<?xml version="1.0" encoding="UTF-8" standalone="no"?>
<!DOCTYPE svg PUBLIC "-//W3C//DTD SVG 1.1//EN" "http://www.w3.org/Graphics/SVG/1.1/DTD/svg11.dtd">
<svg width="100%" height="100%" viewBox="0 0 2500 2500" version="1.1" xmlns="http://www.w3.org/2000/svg" xmlns:xlink="http://www.w3.org/1999/xlink" xml:space="preserve" xmlns:serif="http://www.serif.com/" style="fill-rule:evenodd;clip-rule:evenodd;stroke-linejoin:round;stroke-miterlimit:2;">
    <g id="Emblem" transform="matrix(9.09153,0,0,9.09153,-10393.7,540.851)">
        <g id="Background---Favicon" serif:id="Background - Favicon" transform="matrix(-1.19984,0,0,0.961071,1446.13,-1364.37)">
            <ellipse cx="137.857" cy="1500.79" rx="114.59" ry="143.048" style="fill:rgb(37,37,37);"/>
        </g>
        <g id="Background---Favicon1" serif:id="Background - Favicon" transform="matrix(-1.19984,0,0,0.961071,1446.13,-1364.37)">
            <ellipse cx="137.857" cy="1500.79" rx="114.59" ry="143.048" style="fill:rgb(184,71,11);"/>
        </g>
        <g transform="matrix(0.552598,0,0,0.760247,-126.637,-1155.95)">
            <g transform="matrix(1.3041,-0.241292,0.331038,0.945032,2157.93,1296.67)">
                <path d="M249.706,524.198C249.691,524.222 249.681,524.234 249.676,524.233C249.686,524.222 249.696,524.21 249.706,524.198ZM186.58,554.463C186.467,554.697 186.402,554.78 186.399,554.663C186.46,554.596 186.52,554.53 186.58,554.463ZM194.926,411.723C194.926,411.723 204.73,401.372 206.276,397.267C207.247,394.689 208.596,391.818 209.619,389.176C210.731,386.306 211.866,381.142 212.438,380.25C213.206,379.054 216.554,381.33 218.878,381.982C221.361,382.679 225.401,382.132 225.401,382.132C225.401,382.132 230.867,381.73 231.319,383.523C231.642,384.803 229.999,389.401 229.589,392.415C228.652,399.307 223.818,414.647 229.639,425.221C232.557,435.145 246.702,443.156 259.342,446.731C271.049,450.043 272.153,448.862 282.164,449.758C282.164,449.758 293.512,454.907 295.713,459.267C286.62,452.928 277.173,450.755 267.332,453.224C268.724,455.759 273.74,459.384 281.692,463.893C284.907,467.393 288.421,471.901 292.4,477.976L280.645,469.801C277.38,467.775 274.494,466.501 272.132,466.261C273.615,472.127 274.347,478.517 274.901,485.032C273.478,488.113 268.673,472.579 267.558,463.42C267.088,459.561 260.464,456.736 256.962,454.434L247.465,450.721C245.219,450.323 251.717,473.301 258.583,476.074C251.258,474.544 245.727,468.427 242.305,456.916C239.797,448.999 233.072,442.845 224.418,437.498C223.531,437.341 221.053,445.027 222.612,453.427C224.292,462.483 230.813,470.079 232.447,472.434C235.525,476.87 250.457,488.365 263.658,491.165C274.194,493.4 276.807,501.978 276.51,504.613C276.415,505.457 269.938,497.397 266.899,495.802C263.493,494.013 254.273,492.549 254.273,492.549C254.273,492.549 260.184,504.091 261.504,509.064C262.748,513.755 263.37,519.708 263,523.547L256.406,509.176C254.656,516.509 252.328,521.06 249.706,524.198C250.172,523.422 255.349,510.016 254.149,504.714C252.232,496.241 247.628,491.124 235.452,484.138C235.452,484.138 237.932,492.367 238.282,496.826C238.646,501.46 237.635,511.945 237.635,511.945L231.913,492.651C231.833,492.381 231.597,490.03 231.451,489.522C230.902,487.608 229.702,485.125 228.559,482.917C226.92,479.749 222.077,473.644 222.077,473.644C222.077,473.644 215.895,488.597 217.255,495.132C218.901,503.041 223.04,516.344 232.588,523.238C234.288,524.465 233.501,526.496 234.518,527.463C230.699,524.681 226.844,521.375 222.803,515.411L222.393,523.463C221.035,526.045 219.887,528.929 218.853,531.976C218.641,530.073 218.803,527.333 219.264,523.924L219.388,511.759C215.239,506.606 210.723,498.841 211.69,492.159C211.695,492.143 211.697,492.128 211.696,492.117C211.694,492.131 211.692,492.145 211.69,492.159C211.446,492.973 204.369,499.37 201.9,501.553C199.351,503.806 195.993,511.532 197.027,511.861C196.026,518.052 197.355,523.222 200.319,527.677C203.075,535.437 203.188,539.811 202.626,543.319C201.479,537.264 199.942,532.032 196.842,530.108C195.426,539.079 192.797,547.534 186.58,554.463C187.27,553.027 189.729,545.902 190.287,544.18C191.399,540.75 193.682,530.706 193.713,530.571C193.713,530.571 193.713,530.57 193.713,530.569C193.713,530.569 193.713,530.57 193.713,530.571C193.701,530.606 193.861,527.5 193.601,525.472C193.245,522.701 192.403,517.35 191.581,513.943C189.078,514.693 184.707,520.261 181.436,525.348C180.487,523.141 181.206,520.441 182.831,517.471C182.831,517.471 193.692,502.976 194.659,502.301C195.397,501.785 196.298,499.983 197.326,498.711C199.193,496.399 205.436,490.492 208.629,486.495C212.34,481.852 216.624,473.516 216.58,464.546L210.109,438.01L208.475,436.161C208.015,438.752 207.741,441.311 208,443C209.011,449.59 209.833,455.5 208,463C206.397,469.556 202.6,473.52 198,479C195.297,482.639 193.702,489.158 193,498C192,494 191.037,490.994 191.037,490.994C191.037,490.994 190.734,486.47 191,484L179,492C181.255,488.231 188.054,485 192,480C195.62,475.413 198.581,470.387 201,465C203.404,457.512 202.599,449.29 201,441C193.45,443.983 185.75,459.775 179,475C178.311,468.644 179.884,460.559 186,449C177.805,451.472 170.79,455.124 167,462C163.446,465.842 162.151,473.554 165,485C163.434,488.48 160.566,475.344 161,470C161.05,469.389 152.176,484.054 152,483C152.125,477.434 158,465 158,465C158.806,466.442 163.452,458.574 165,454C156.045,453.964 148.353,456.033 143,462C142.3,458.435 146.293,455.164 152,452L167,449C167.18,450.259 180.187,445.329 187,441C190.284,438.913 198.098,429.898 200.476,427.112L196.986,423.163C195.536,424.106 192.919,425.847 191.478,427.029C183.008,438.319 174.327,442.283 165.517,441.726C165.517,441.726 172.557,439.104 175.6,436.403C179.416,433.017 188.412,421.408 188.412,421.408C188.14,420.787 168.088,420.037 163.21,426.084C158.867,431.467 152.296,445.848 150.049,443.049C151.299,438.868 153.368,434.029 157.938,427.181C159.533,425.689 140.301,428.285 137.023,430.586C135.729,431.494 144.964,423.022 148.788,421.499C152.022,420.211 157.817,420.22 160.318,419.478C162.125,418.942 164.954,416.237 164.954,416.237C156.673,410.819 148.102,409.888 139.352,411.703C139.352,411.703 147.343,407.695 151.23,407.713C156.135,407.736 162.371,410.702 168.78,411.837C175.673,413.058 184.51,414.685 189.807,413.531C191.316,413.202 194.926,411.723 194.926,411.723ZM258.583,476.074C259.11,476.184 259.647,476.27 260.192,476.333C259.656,476.384 259.119,476.29 258.583,476.074ZM234.518,527.463C234.627,527.542 234.736,527.621 234.844,527.7C234.719,527.63 234.611,527.551 234.518,527.463Z" style="fill:rgb(231,203,168);"/>
            </g>
            <g transform="matrix(1.46182,0.0512995,-0.0479329,0.722054,2313.98,1368.11)">
                <path d="M163,157C169.333,161.857 177,168 182,176L185,154L188,174C191.444,168.875 196.505,164.356 202,160L189,181L189,203C197.717,192.2 207.49,185.628 218,182C204.617,193.013 193.873,204.218 191,216L190,226C190,226 191.236,241.615 191.812,248.892C192.361,255.815 194.581,265.958 194.278,269.345C194.151,270.767 192.074,269.506 190.449,269.267C190.143,269.222 188.86,269.548 188.629,269.626C185.918,270.544 187.238,270.086 184.549,270.399C181.756,270.723 177.83,272.296 177.336,269.666C176.449,264.944 176.378,243.169 176,236C175.365,223.968 149.228,212.964 151,211C158.094,211.926 166.832,216.415 177,224L177,213C177.842,204.964 165.267,193.187 151,182C159.367,184.217 167.558,189.045 179,201L179,182L163,157Z" style="fill:rgb(231,203,168);"/>
            </g>
            <g transform="matrix(1.34555,-0.0147412,0.0203269,0.977971,2331.79,1327.97)">
                <path d="M150,214L131,203L152,208C142.089,190.066 125.107,187.345 107,194C117.236,216.529 132.592,221.186 150,214Z" style="fill:rgb(231,203,168);"/>
            </g>
            <g transform="matrix(1.34414,0.0471698,-0.0648535,0.976944,2340.04,1340.28)">
                <path d="M185,129L181,149C167.946,135.352 169.623,118.978 185,102C200.478,118.654 199.696,135.139 187,150L185,129Z" style="fill:rgb(231,203,168);"/>
            </g>
            <g transform="matrix(1.34414,0.0471698,-0.0648535,0.976944,2335.71,1331.34)">
                <path d="M213,150L200,159C200.185,141.992 210.886,130.433 229,127C228.8,145.568 221.104,157.775 204,162L213,150Z" style="fill:rgb(231,203,168);"/>
            </g>
            <g transform="matrix(1.34414,0.0471698,-0.0648535,0.976944,2335.08,1326.66)">
                <path d="M234,172L215,179C219.311,164.501 230.246,155.154 253,155C248.887,180.501 235.436,186.426 218,184L234,172Z" style="fill:rgb(231,203,168);"/>
            </g>
            <g transform="matrix(1.34414,0.0471698,-0.0648535,0.976944,2345.06,1326.76)">
                <path d="M136,173L151,184C131.615,187.235 118.628,176.656 116,155C134.068,154.894 148.229,160.892 154,180L136,173Z" style="fill:rgb(231,203,168);"/>
            </g>
            <g transform="matrix(1.34414,0.0471698,-0.0648535,0.976944,2339.67,1329.72)">
                <path d="M164,163L156,151L169,159C167.186,140.132 156.931,128.94 140,128C141.398,149.57 150.818,159.107 164,163Z" style="fill:rgb(231,203,168);"/>
            </g>
        </g>
        <g transform="matrix(0.943115,0,0,0.976934,945.945,-245.961)">
            <g transform="matrix(0.676711,0.120227,-0.124871,0.651426,303.843,73.494)">
                <path d="M164.916,318.899C166.857,320.378 171.163,320.316 169.237,317.747C168.897,317.292 169.11,314.576 168,314C167.189,313.579 166.293,311.736 165,311C164.383,310.649 161.893,310.686 161.252,310.811C160.706,310.917 157.704,312.704 158,313C160,315 160.372,316.892 160,318C159.437,319.679 164.078,318.26 164.916,318.899Z" style="fill:rgb(32,30,31);"/>
            </g>
            <g transform="matrix(0.667117,0.162491,-0.126399,0.480951,300.081,129.742)">
                <path d="M146.494,310.589C146.738,310.362 149.392,308.637 150.791,308.073C152.95,307.202 154.701,310.611 154.892,311.636C155.251,313.558 155.504,315.837 154.494,317.265C154.08,317.849 153.24,321.011 152.494,322.606C151.66,324.386 150.026,327.962 149.494,327.947C145.652,327.839 140.915,315.774 146.494,310.589Z" style="fill:rgb(32,30,31);"/>
            </g>
            <g transform="matrix(0.556704,0.398897,-0.414359,0.535893,390.089,16.159)">
                <path d="M303.612,317.687C303.445,316.52 303.945,315.02 304.612,313.687C305.612,311.687 305.612,308.687 305.612,308.687C305.929,308.449 309.783,311.475 310.612,312.687C311.207,313.557 313.858,315.934 314.612,316.687C315.457,317.532 321.607,320.516 319.612,322.687C315.193,327.497 308.612,322.687 305.612,320.687C305.612,320.687 303.778,318.854 303.612,317.687Z" style="fill:rgb(32,30,31);"/>
            </g>
            <g transform="matrix(0.571874,0.378489,-0.393158,0.550496,379.124,17.4896)">
                <path d="M288.612,300.687C290.306,300.914 291.498,301.481 292.612,301.687C293.865,301.919 295.872,301.928 297.612,302.687C299.184,303.373 300.238,305.242 301.612,305.687C303.192,306.199 304.278,308.52 304.612,309.687C304.871,310.594 303.612,312.687 303.612,312.687C303.612,312.687 302.802,317.283 301.272,317.061C300.387,316.933 299.319,316.682 297.991,316.099C296.251,315.337 295.567,314.724 293.612,314.687C293.126,314.678 290.983,311.726 290.612,310.687C289.778,308.354 288.612,300.687 288.612,300.687Z" style="fill:rgb(32,30,31);"/>
            </g>
            <g transform="matrix(0.623304,0.293752,-0.305131,0.600008,337.272,25.8716)">
                <path d="M270.612,321.687C270.612,321.687 267.191,316.832 266.612,314.687C266.503,314.286 265.935,312.69 265.612,311.687C265.103,310.109 268.243,307.428 263.559,305.219C263.062,304.985 258.158,303.034 259.612,299.687C259.979,298.841 262.877,299.858 263.612,299.687C265.042,299.354 268.898,300.207 271.612,300.687C274.778,301.247 278.017,301.481 279.612,300.687C280.967,300.013 283.958,300.009 286.612,300.687C287.32,300.868 287.612,301.614 287.612,304.687C287.612,307.687 289.954,311.506 289.612,313.687C289.414,314.946 283.438,316.687 281.612,316.687C276.449,316.687 270.612,321.687 270.612,321.687Z" style="fill:rgb(32,30,31);"/>
            </g>
            <g transform="matrix(0.573021,0.376876,-0.391483,0.551601,385.444,29.4607)">
                <path d="M267.704,309.55C267.704,309.55 283,320.5 283,323C283,325.5 267,324 267,324C265.371,320.209 262.373,316.542 258,313C260.535,310.787 263.596,309.373 267.704,309.55Z" style="fill:rgb(32,30,31);"/>
            </g>
            <g transform="matrix(0.573021,0.376876,-0.391483,0.551601,385.444,29.4607)">
                <path d="M264,325C262.576,328.627 256.103,327.931 256,327C256,327 253.973,322.077 254,321C254.037,319.51 258.48,318.24 260,319C261.667,319.833 264,325 264,325" style="fill:rgb(32,30,31);"/>
            </g>
            <g transform="matrix(0.573021,0.376876,-0.391483,0.551601,385.444,29.4607)">
                <path d="M267,327C270.538,326.586 281.792,326.46 282,325L270.79,338.654C264.187,340.329 262.361,339.062 259,336C259.573,336.478 263.935,327.359 267,327Z" style="fill:rgb(32,30,31);"/>
            </g>
            <g transform="matrix(0.691652,0.0547272,-0.0568279,0.665811,229.023,69.3037)">
                <path d="M289.612,368.687C286.939,368.536 287.812,362.646 289.612,360.687C290.098,360.158 289.904,357.709 290.612,357.687C294.053,357.578 308.738,355.445 313.743,359.487C315.11,360.591 315.605,364.552 313.612,365.687C311.211,367.054 308,366.786 304.612,367.687C302.467,368.257 290.933,368.762 289.612,368.687Z" style="fill:rgb(32,30,31);"/>
            </g>
            <g transform="matrix(0.582125,0.00967714,-0.0100331,0.560377,259.371,100.597)">
                <path d="M104,566C104.301,567.743 99.146,567.975 97,567C93.333,565.333 83.52,561.282 82,556C81.431,554.022 79,544 79,544C79,544 76.088,534.796 74,532C59.161,512.129 45,498 38.393,488.106C33.401,480.629 31.926,470.836 33,463C34.074,455.164 38.968,446.026 45,441C51,436 59.945,432 69,432C78,432 83.954,434.07 90,438C110,451 150.136,504.632 179,535L142,534C142,534 125.825,533.946 118,537C106.055,541.661 101.993,554.361 104,566ZM69.5,443C55.426,443 44,454.426 44,468.5C44,482.574 55.426,494 69.5,494C83.574,494 95,482.574 95,468.5C95,454.426 83.574,443 69.5,443Z" style="fill:rgb(32,30,31);"/>
            </g>
            <g transform="matrix(0.578648,-0.000142116,0.0001695,0.565113,260.964,104.768)">
                <path d="M52.343,613.362L52.327,585.578C52.852,580.482 65.422,555.452 68.426,559.669C77.609,572.561 100.472,572.422 102.635,570.579C105.661,568.001 104.647,563.636 101.629,556.694C94.233,539.685 113.074,536.09 120.784,536.018C136.844,535.867 198.214,535.999 198.214,535.999C204.45,536.58 207.72,540.379 208.262,547.004L208.289,576.657L242.363,576.704C245.343,577.62 247.421,579.568 248.548,582.605L248.548,613.35L52.343,613.362ZM186.616,547.623C182.512,547.623 179.181,551.137 179.181,555.465C179.181,559.794 182.512,563.308 186.616,563.308C190.719,563.308 194.05,559.794 194.05,555.465C194.05,551.137 190.719,547.623 186.616,547.623Z" style="fill:rgb(142,119,106);"/>
                <path d="M52.343,613.362L52.327,585.578C52.852,580.482 65.422,555.452 68.426,559.669C77.609,572.561 100.472,572.422 102.635,570.579C105.661,568.001 104.647,563.636 101.629,556.694C94.233,539.685 113.074,536.09 120.784,536.018C136.844,535.867 198.214,535.999 198.214,535.999C204.45,536.58 207.72,540.379 208.262,547.004L208.289,576.657L242.363,576.704C245.343,577.62 247.421,579.568 248.548,582.605L248.548,613.35L52.343,613.362ZM186.616,547.623C182.512,547.623 179.181,551.137 179.181,555.465C179.181,559.794 182.512,563.308 186.616,563.308C190.719,563.308 194.05,559.794 194.05,555.465C194.05,551.137 190.719,547.623 186.616,547.623Z" style="fill:rgb(32,30,31);"/>
            </g>
            <g transform="matrix(0.599246,0.00996176,-0.0117053,0.653773,271.114,64.5433)">
                <ellipse cx="49" cy="457" rx="17" ry="15" style="fill:rgb(32,30,31);"/>
            </g>
            <g transform="matrix(0.462276,0.00768479,-0.00902982,0.504339,317.342,69.1609)">
                <path d="M49,442C58.383,442 66,448.721 66,457C66,465.279 58.383,472 49,472C39.617,472 32,465.279 32,457C32,448.721 39.617,442 49,442ZM49,448.667C43.787,448.667 39.556,452.401 39.556,457C39.556,461.599 43.787,465.333 49,465.333C54.213,465.333 58.444,461.599 58.444,457C58.444,452.401 54.213,448.667 49,448.667Z" style="fill:rgb(32,30,31);"/>
            </g>
            <g transform="matrix(-0.0297763,-0.661808,0.687491,-0.0286417,133.908,423.698)">
                <path d="M151.76,351.608C152.741,351.033 155.361,351.298 155.986,351.132C157.359,350.768 160.686,352.469 161.849,350.925C162.946,349.466 163.791,348.214 163.894,346.525C163.945,345.681 164.789,345.732 164.789,345.732C164.789,345.732 166.062,346.277 166.427,346.679C166.938,347.241 168.3,350.197 171.464,349.635C171.699,349.593 170.24,353.691 170.24,353.691L169.14,357.862C169.14,357.862 166.346,363.798 167.042,364.516C168.28,365.794 174.693,364.132 174.693,364.132L184.946,380.457C184.946,380.457 185.818,382.258 187.091,384.899C190.29,391.536 196.016,403.474 196.771,405.448C196.771,405.448 192.429,404.019 191.175,405.4C188.79,408.026 184.909,408.48 183.99,405.274C183.013,401.867 178.322,403.999 175.548,404.047C174.985,404.057 170.558,404.776 170.558,404.776L159.262,392.201C157.819,392.494 138.703,397.117 137.901,397.311C137.898,397.264 137.889,397.263 137.875,397.317L137.901,397.311C137.932,397.819 137.26,403.735 134.421,405.771C133.981,406.087 131.356,404.425 130.878,403.843C129.724,402.437 126.757,402.821 125.081,401.835C124.066,401.238 124.539,396.689 126.763,392.417C128.891,388.33 130.878,385.874 132.471,384.041C134.959,381.179 139.841,379.681 142.204,376.709C144.484,373.842 152.293,365.985 153.36,363.262C153.4,363.161 153.58,359.388 153.198,358.52" style="fill:rgb(32,30,31);fill-opacity:0.99;"/>
            </g>
            <g transform="matrix(-0.0297763,-0.661808,0.687491,-0.0286417,133.572,423.693)">
                <path d="M151.445,350.776C150.87,348.222 149.491,335.345 149.491,335.345C149.491,335.345 148.871,328.663 148.973,326.974C149.076,325.285 148.487,321.011 147.847,317.581C147.343,314.879 148.787,304.399 143.617,300.554C135.246,294.329 106.889,288.989 97.894,282.655C94.947,280.581 94.254,274.719 94.514,274.512C97.015,272.509 107.547,261.694 109.403,258.134C115.922,245.632 115.956,234.101 113.425,228.191C113.196,227.656 121.279,226.869 122.769,229.17C128.294,237.704 152.195,269.934 163.899,277.056C164.183,277.229 169.765,276.489 170.074,277.15C170.416,277.148 170.757,277.157 171.095,277.179C185.776,278.124 196.889,291.407 195.896,306.822C195.665,310.418 192.963,318.884 189.92,322.674C187.156,326.115 180.246,342.43 180.246,342.43C180.246,342.43 179.114,346.8 178.888,348.501C178.399,352.164 176.62,353.231 173.939,354.593C173.275,354.93 172.293,353.998 172.137,353.269C171.949,352.391 173.329,350.26 172.813,349.326C172.297,348.392 169.913,348.491 169.04,347.665C168.167,346.839 166.71,344.971 167.576,344.37C174.771,339.369 167.58,330.455 164.968,328.79C161.004,326.264 153.315,328.823 153.255,333.011C153.243,333.805 153.098,334.446 152.743,334.888L152.9,336.027C152.934,336.016 152.967,336.007 153,336C153.652,335.859 154.393,335.567 155,336C156.167,336.833 158.833,339.5 160,341C160.738,341.949 162.769,342.906 163,344C163.247,345.168 162.885,346.281 163,347C163.117,347.736 162,349 162,349C162,349 160.663,349.935 160,350C158.644,350.133 157.346,349.956 156,350C155.772,350.008 155.364,349.999 155.085,350.06C154.575,350.171 152.941,350.666 152.941,350.666C152.941,350.666 151.555,351.263 151.445,350.776ZM188.589,302.674C189.083,294.517 182.862,287.493 174.705,286.999C166.548,286.505 159.525,292.726 159.03,300.883C158.536,309.04 164.757,316.063 172.914,316.557C181.071,317.052 188.095,310.831 188.589,302.674Z" style="fill:rgb(32,30,31);fill-opacity:0.99;"/>
            </g>
        </g>
    </g>
</svg>
