<?xml version="1.0" encoding="UTF-8" standalone="no"?><!DOCTYPE svg PUBLIC "-//W3C//DTD SVG 1.1//EN" "http://www.w3.org/Graphics/SVG/1.1/DTD/svg11.dtd"><svg width="100%" height="100%" viewBox="0 0 104130 150807" version="1.1" xmlns="http://www.w3.org/2000/svg" xmlns:xlink="http://www.w3.org/1999/xlink" xml:space="preserve" xmlns:serif="http://www.serif.com/" style="fill-rule:evenodd;clip-rule:evenodd;stroke-linecap:round;stroke-linejoin:round;stroke-miterlimit:1.5;"><rect id="Cats" x="-24277.8" y="-36372.2" width="365494" height="218135" style="fill:none;"/><rect id="Cat-1" serif:id="Cat 1" x="0" y="0" width="104130" height="150807" style="fill:none;"/><clipPath id="_clip1"><rect x="0" y="0" width="104130" height="150807"/></clipPath><g clip-path="url(#_clip1)"><g><g><g><path d="M56544.8,28957.6c-0,0 43296.3,9577.34 43438,10220.3c103.89,471.188 991.219,3384.35 1101.65,3853.98c370.351,1574.96 225.703,3158.93 461.008,5436.52c299.938,2903.19 117.298,3782.91 101.108,5257.04c-28.697,2612.69 -1237.34,3181.22 -1736.86,5672.17c-486.594,2426.47 -615.425,5196.2 -1029.55,7335.32c-20.427,105.511 -375.335,183.832 -482.576,197.141c-356.966,44.304 367.277,389.445 340.004,524.626c-310.098,1537.02 -703.566,3149.17 -1167.09,4706.94c-148.597,499.394 -277.438,966.241 -448.151,1458.34c-67.983,195.97 -793.881,242.081 -854.996,438.823c-44.182,142.228 392.747,224.782 349.474,367.878c-950.88,3144.46 -3325.22,7361.7 -4310.59,9868.59c-576.798,1467.43 -1559.34,2569.56 -2070.09,4870.12c-148.474,668.766 -80.946,2810.83 -270.961,3764.23c-278.701,1398.38 -174.872,3675.93 -351.27,4364.8c-283.412,1106.78 -683.074,2110.15 -933.774,3189.06c-337.538,1452.62 -805.492,4073.5 -1091.45,5526.65c-340.823,1731.94 -875.066,4112.28 -1126.53,6078.01c-251.534,1966.23 -672.241,4266.57 -1086.82,5778.02c-464.111,1692.03 -1604.21,3139.74 -2996.14,5268.2c-815.906,1247.65 -1805.47,2394.3 -2159.93,2966.09c-353.258,569.843 -757.661,879.655 -875.877,1810.65c-96.238,757.898 -89.825,1519.24 250.143,1787.34c233.786,184.365 671.369,231.811 1195.02,214.674c1173.23,-38.394 2778.48,-400.981 3491.66,-274.195c746.873,132.778 1596.98,897.575 2056.03,1229c278.827,201.307 223.858,532.919 698.238,759.527c385.245,184.028 1105.21,-27.131 1327.04,336.518c254.395,417.024 -315.756,1139.52 -157.702,1592.29c195.874,561.113 269.827,1097.79 103.036,1481.43c-199.954,459.922 -327.615,867.401 -227.938,1177.28c177.45,551.661 643.197,410.676 511.72,1661.48c-49.165,467.732 -405.358,906.363 -691.489,1274.86c-200.095,257.697 -365.926,481.097 -368.533,656.17c-3.261,218.929 229.888,703.576 136.549,1062.32c-70.384,270.517 -485.673,419.676 -432.263,609.234c74.815,265.527 355.385,148.643 223.17,359.352c-423.593,675.074 -1434.52,518.292 -2290.39,859.082c-832.92,331.652 -1043.27,562.834 -2414.11,1185.66c-740.887,336.613 -1826.36,446.529 -2417.21,697.276c-408.861,173.512 -735.564,65.118 -916.12,158.579c-132.689,68.684 142.158,363.112 132.634,552.162c-41.598,825.681 -125.958,2127.91 -1351.33,2740.6c-1467.01,733.502 -5233.13,1007.91 -7266.1,806.677c-647.374,-64.081 -2012.43,-3.379 -2731.45,-146.236c-1156.09,-229.695 -2044.95,-683.444 -2592.52,-1152.56c-751.345,-643.689 -1339.67,-1881.95 -2081.49,-2251.22c-350.645,-174.548 -962.671,-302.919 -1317.2,-572.346c-421.63,-320.422 -307.347,-565.754 -699.627,-599.865c-1054.41,-91.688 -3489.2,145.527 -4471.15,229.827c-554.409,47.596 -1352.76,112.093 -1628.22,368.271c-275.456,256.179 25.961,470.315 -24.522,1168.8c-69.54,962.164 -127.343,2064.42 -338.276,2635.03c-296.467,801.99 -583.686,1134.27 -1706.19,1874.46c-1126.27,742.675 -4391.65,253.647 -6025.95,307.531c-1259.27,41.52 -2591.62,145.362 -3779.84,15.777c-1072.02,-116.914 -1190.24,-13.758 -2743.75,-565.719c-767.95,-272.852 -1062.16,-1005.01 -1406.18,-1378.24c-373.635,-405.357 -513.39,-1434.77 -719.384,-2077.34c-191.454,-597.22 23.805,-1540.82 -516.576,-1778.1c-460.067,-202.015 -886.131,-51.814 -1616.72,-106.207c-729.278,-54.295 -1762.73,-313.359 -2608.64,-318.483c-1202.32,-7.283 -2445.28,-14.312 -3509.53,-161.55c-623.039,-86.198 -1205.75,-295.868 -1864.64,-393.989c-1095.34,-163.116 -2346.53,-416.727 -3398.53,-549.687c-846.289,-106.962 -1522.95,-95.135 -2196.01,-205.462c-1543.67,-253.037 -3789.46,-861.376 -4618.71,-830.663c-941.144,34.857 -1197.49,289.841 -2393.64,439.885c-1163.6,145.961 -3263.62,187.661 -4427.67,180.376c-1977.71,-12.378 -4750.71,128.123 -5912.04,-501.242c-855.553,-463.655 -1364.6,-2025.89 -963.634,-3228.8c412.595,-1237.79 2039.29,-3745.29 3162.32,-4659.39c948.717,-772.218 3293.37,-404.56 3575.82,-825.19c282.458,-420.63 -879.968,-825.281 -1881.08,-1698.59c-1171.63,-1022.06 -2534.77,-2178.15 -3233.4,-3183.33c-1771.27,-2548.44 -4830.9,-7977.9 -5513.12,-10408.7c-1112.55,-3964.13 -638.559,-9159.62 -723.771,-13445.3c-49.552,-2492.14 969.983,-6139.33 2450.67,-8530.61c683.282,-1103.49 1923.55,-2468.27 3285.3,-3868.2c2179.39,-2240.49 4669.96,-4571 5686.45,-6064.45c1088.4,-1599.1 941.337,-2389.16 1999.4,-5319.23c1094.98,-3032.32 1975.42,-6203.9 2808.74,-8245.69c539.301,-1321.39 843.738,-2401.79 1477.26,-3821.47c941.61,-2110.08 2247.53,-4551.19 3199.72,-6263.57c1396.54,-2511.45 3677.01,-5473.19 5364.65,-7401.81c1370.52,-1566.23 2595.52,-2429.95 5107.27,-4562.18c2634.03,-2236.03 5434.22,-4892.08 7081.43,-5822.82c1825.17,-1031.3 3707.64,-1552.16 5777.35,-3590.48c1434.38,-1412.62 2114.26,-2586.3 3064.68,-3882.34c274.9,-374.868 774.217,-807.96 1041.73,-1152.83c1050.64,-1354.42 2575.83,-3023.7 3517.48,-4047.08c734.184,-797.907 1498.82,-1590.55 2132.39,-2093.17c497.999,-395.072 1154.92,-592.748 1669.03,-922.558c8.305,-5.328 851.13,-474.051 851.13,-474.051Z" style="fill:#0b0c13;"/><path d="M6653.68,139770c77.35,18.759 67.806,332.283 -21.299,699.697c-89.106,367.415 -224.247,650.479 -301.597,631.72c-77.351,-18.759 -67.807,-332.283 21.299,-699.698c89.105,-367.414 224.246,-650.478 301.597,-631.719Z" style="fill:#d2dae5;fill-opacity:0.94;"/><path d="M7776.4,139686c97.72,41.301 109.971,233.556 27.342,429.058c-82.629,195.503 -229.05,320.694 -326.77,279.393c-97.719,-41.301 -109.971,-233.556 -27.342,-429.058c82.63,-195.503 229.05,-320.695 326.77,-279.393Z" style="fill:#d2dae5;fill-opacity:0.94;"/><path d="M71217.8,146024c95.784,26.904 93.456,333.884 -5.194,685.091c-98.651,351.208 -256.507,614.501 -352.291,587.596c-95.784,-26.904 -93.456,-333.884 5.194,-685.091c98.651,-351.208 256.507,-614.501 352.291,-587.596Z" style="fill:#d2dae5;"/><path d="M53280.4,108874c240.589,2120.31 1298.79,7358.49 2699.29,9999.1c1275.46,2404.85 3587.56,5701.6 6231.83,5199.06c3827.45,-727.394 9629.42,-7712.54 12616.2,-11243.1c1464.55,-1731.18 5465.07,-8847 5304.68,-9940.4c-160.394,-1093.4 -4776.56,3286.09 -6267.04,3379.98c-1292.45,81.414 -2541.99,-1528.57 -2675.81,-2816.65c-281.664,-2711.02 610.274,-10773.7 985.826,-13449.5c134.233,-956.409 2030.33,-2171.16 1267.49,-2605.4c-762.841,-434.233 -4973.29,-1742.51 -5844.54,0c-1173.6,2347.2 -528.121,10808.9 -1197.07,14083.2c-416.034,2036.37 -1666.52,5363.36 -2816.65,5562.88c-1150.13,199.512 -3016.16,-2734.49 -4084.14,-4365.8c-1067.98,-1631.31 -1194.98,-5666.74 -2323.73,-5422.04c-1678.25,363.818 -2030.33,7311.55 -2640.61,8895.91c-121.678,315.895 -1368.44,1729.66 -1255.75,2722.75Z" style="fill:url(#_Linear2);"/><path d="M45276.5,130703c269.929,-2717.44 -1094.91,-7942.43 -1740.39,-11867.6c-605.012,-3679.06 -1283.87,-7816.57 -2132.5,-11683.3c-860.066,-3918.87 -1804.99,-7255.33 -1124.3,-11233.8c680.689,-3978.51 3940.94,-10172.7 5208.43,-12637.2c1267.49,-2464.57 7452.38,-15620.6 8379.52,-20843.2c632.962,-3565.42 -1711.12,-6874.03 -1464.66,-10101.4c246.456,-3227.41 2333.12,-6516.78 2943.4,-9263.01c373.473,-1680.63 406.789,-4635.42 -80.035,-6355.28c-232.477,-821.299 -583.568,-1360.98 -1072.87,-1345.81c-1513.95,46.944 -5400.9,4990.81 -7584.67,8040.44c-2231.97,3116.95 -4778.82,8755.21 -6561.7,12137.3c-1429.65,2712.03 -2310.2,5714.35 -4135.59,8155.28c-2543.56,3401.28 -8299.95,7514.41 -11125.8,12252.4c-3121.78,5234.27 -4882.19,14141.9 -7604.94,19153.2c-2224.31,4093.89 -6443.08,7358.49 -8731.6,10914.5c-2085.12,3239.95 -5140.38,8156.54 -4999.55,10421.6c137.523,2211.82 3716.49,3787.14 5844.54,3168.73c2746.23,-798.05 7963.78,-5042.46 10632.8,-7957.03c2332.52,-2547.07 5699.02,-8034.48 7675.36,-7112.03c1859.97,868.136 786.313,11501.3 1478.74,15350.7c483.602,2688.5 1560.89,6173.15 2675.81,7745.78c839.578,1184.25 2331.77,1386.68 3706.07,1824.59c1391.98,443.539 2213.07,2822.4 2349.72,4512.87c228.049,2821.2 633.745,10914.5 633.745,10914.5c0,0 892.143,-946.091 1056.24,-1549.15c469.441,-1725.2 798.05,-6694.85 1760.4,-8802.02c769.302,-1684.46 3830.68,-1998.23 4013.72,-3840.98Z" style="fill:url(#_Linear3);"/><path d="M90202,88453.7l-7544.75,11997.8c0,0 -791.92,4745.76 -1339.41,6228.22c-932.029,2523.7 -1852.33,6130.03 -3093.78,8665.79c-1849.24,3777.25 -2844.87,6975.97 -3760.07,9489.84c-753.676,2070.2 -985.828,5973.63 -1091.45,7698.83c-82.797,1352.36 692.426,2687.55 985.826,3943.31c278.618,1192.49 211.249,2734.49 774.578,3591.22c555.114,844.236 2355.03,2157.47 2605.4,1549.15c250.368,-608.317 -1093.41,-3303.69 -1103.19,-5199.06c-9.78,-1895.37 352.082,-4588.79 1044.51,-6173.15c594.562,-1360.44 1304.46,-2420.98 2171.17,-3626.43c1342.75,-1867.55 3347.76,-3576.35 5239.86,-7754.9c1181.61,-2609.51 1099.99,-4906.8 1520.1,-7384.58c458.73,-2705.59 966.265,-6077.31 1467,-8438.21c387.573,-1827.35 1234.24,-4158.46 1537.42,-5727.17c233.77,-1209.57 138.264,-2140.7 281.666,-3685.12c65.875,-709.457 269.621,-1982.9 280.679,-2926.09c11.775,-1004.34 -171.368,-1657.76 -171.368,-1657.76l195.826,-591.736Z" style="fill:url(#_Linear4);"/><path d="M100168,39944.5c-0,-0 -8028.98,7030.91 -9760.43,9254.19c-393.899,505.787 -881.055,2099.46 -968.725,3142.96c-5.509,65.569 -9.441,128.966 -11.673,189.784c-18.231,496.77 76.929,821.496 352.1,752.703c844.994,-211.248 3537.79,-1792.11 5069.96,-3027.89c1778.86,-1434.76 4546.4,-4510.51 5603.22,-5580.65c260.195,-263.477 737.659,-840.198 737.659,-840.198c0,-0 -56.185,-472.665 -137.413,-800.394c-115.237,-464.948 -280.877,-874.97 -407.994,-1269.48c-132.71,-411.865 -209.943,-963.817 -355.136,-1237.85c-135.477,-255.694 -121.565,-583.177 -121.565,-583.177Z" style="fill:url(#_Linear5);"/></g><path d="M55911.9,29127.7c201.741,-114.295 564.287,-171.776 665.052,-348.536c114.066,-200.092 117.738,-514.976 81.791,-765.87c-14.61,-101.975 -98.884,-153.929 -86.698,-244.717c39.684,-295.659 227.725,-521.263 221.082,-792.96c-3.923,-160.425 -211.154,-361.544 -190.857,-536.093c21.457,-184.53 216.973,-368.252 272.861,-573.304c29.662,-108.831 -171.697,-213.314 -179.579,-325.735c-8.418,-120.063 175.94,-247.85 189.686,-356.4c27.884,-220.177 -12.902,-420.632 31.401,-625.049c13.545,-62.501 120.721,-125.373 131.498,-189.292c7.648,-45.364 -77.557,-91.256 -66.084,-137.917c18.269,-74.302 154.086,-172.967 170.46,-249.163c8.816,-41.026 -123.107,-94.084 -112.066,-135.591c35.496,-133.445 234.733,-302.036 264.364,-434.568c10.711,-47.906 -96.482,-95.73 -85.295,-143.46c34.997,-149.307 225.941,-427.631 265.891,-574.601c49.772,-183.106 -50.021,-234.086 8.204,-411.947c92.993,-284.069 351.798,-613.012 474.149,-875.264c96.037,-205.851 62.651,-343.403 104.208,-569.028c97.52,-529.474 493.293,-786.374 669.386,-1132.95c150.028,-295.275 397.139,-641.564 387.177,-946.508c-9.626,-294.641 -362.168,-666.016 -482.391,-930.408c-655.123,-1440.75 -1144.68,-2802.14 -1253.72,-3964.66c-66.411,-708.062 -100.877,-1415.09 -57.441,-2094.12c12.773,-199.675 107.828,-504.852 116.735,-672.561c29.449,-554.519 21.164,-763.951 -134.634,-1261.23c-46.59,-148.707 -163.01,-466.18 -319.036,-622.986c-152.285,-153.046 -343.732,-145.515 -429.514,-283.919c-69.081,-111.461 205.593,-112.759 164.83,-217.39c-9.989,-25.639 -61.157,-147.338 -118.757,-204.122c-68.709,-67.737 -149.768,-78.279 -224.986,-207.071c-34.804,-59.592 74.9,-105.449 25.152,-184.561c-61.894,-98.428 -285.374,-241.573 -350.84,-371.131c-40.441,-80.03 18.677,-97.065 -25.592,-171.319c-49.011,-82.209 -188.797,-142.367 -237.999,-226.002c-40.34,-68.574 11.671,-183.476 -25.956,-253.949c-83.423,-156.247 -256.011,-258.483 -349.147,-416.274c-51.168,-86.689 2.367,-141.162 -40.135,-236.756c-54.334,-122.207 -293.538,-246.166 -375.962,-384.771c-67.326,-113.216 22.793,-241.237 -34.067,-344.362c-235.903,-427.846 -329.622,-856.454 -537.758,-1276.28c-875.199,-1765.35 -1629.3,-3375.4 -1970.3,-4120.52c-186.156,-406.759 558.961,-117.807 1166.87,280.329c713.097,467.025 1449.15,1074.56 1609.39,1181.04c901.506,599.007 641.068,305.074 1861.67,950.431c1139.11,602.268 2439.77,1259.55 3861.35,1924.53c1068.52,499.824 1887.52,1076.08 2448.92,1295.13c290.205,113.232 1246.69,-88.728 1490.96,-94.088c123.863,-2.719 404.306,96.06 483.872,165.159c191.786,166.559 194.726,177.565 313.522,228.817c167.742,72.367 567.371,144.265 871.005,246.64c191.169,64.455 275.83,145.554 455.589,232.126c122.413,58.954 201.941,64.509 307.755,53.622c75.331,-7.75 186.357,-16.376 234.567,-53.698c37.722,-29.202 140.983,-136.683 431.83,-187.699c282.936,-49.627 752.372,-42.649 877.791,-81.915c266.902,-83.561 -41.009,-84.075 409.928,-152.992c395.468,-60.44 1336.63,-259.128 2105.76,-382.667c921.961,-148.087 1652.64,-218.299 1652.64,-218.299c0,-0 564.203,-184.775 1142.72,-184.61c280.677,0.081 554.708,105.033 831.517,182.706c469.645,131.783 945.613,11.723 1219.36,24.066c474.342,21.386 494.325,182.22 1412.34,185.504c429.015,1.535 1178.06,-263.774 1688.16,-276.202c666.951,-16.25 1105.51,219.719 1708.54,227.317c1489.93,18.772 4031.37,-114.914 5750.52,-46.148c1359.64,54.386 3084.6,745.039 4125.95,712.557c735.442,-22.941 944.667,193.514 2122.16,-607.49c662.857,-450.916 1446.67,-1540.99 2646.61,-2573.56c1524.51,-1311.87 3493.99,-2587.61 4261.25,-2961.72c776.952,-378.842 2116.12,-524.75 2772.79,-206.753c656.671,317.996 1070.16,758.106 1351.82,2068.58c153.77,715.447 -129.61,2055.92 -89.136,2493.03c89.162,962.958 -56.008,1946.22 -275.064,2888.16c-229.219,985.643 -945.78,1963.69 -1100.25,3025.7c-183.375,1260.71 64.157,3515.55 0,4538.54c-34.323,547.298 -194.198,1169.42 -384.941,1599.45c-229.068,516.428 -989.463,958.213 -989.463,1499.12c0,1283.63 1171.65,3414.65 1374.4,4603.2c108.073,633.519 -372.516,1266.97 -296.313,1905.11c176.597,1478.85 1437.68,4754.49 1355.89,6967.97c-60.482,1636.93 -727.516,3703.29 -1610.82,4849.9c-856.53,1111.85 -1909.05,2532.78 -3112.17,3255.52c-2240.67,1346.02 -4519.54,3435.47 -6966.89,5109.02c-1807.48,1236 -4755.71,2196.2 -7350.69,3072.59c-2573.32,869.074 -5837.82,2599.99 -7762.53,2834.71c-995.353,121.384 -4617.29,-605.528 -5705.54,-1693.78c-4681.9,-4681.9 -5653.17,-3399.85 -8501.13,-6247.81c-2639.98,-2639.98 -4244.58,-5039.54 -5370.86,-7342.51c-969.767,-1982.94 -1285.54,-4781.66 -1386.8,-6475.29Z"/><g><g><path d="M68065.8,6555.78c429.372,-70.792 243.766,-7.872 1233.9,-229.01c571.342,-127.604 1680.85,-306.716 2642.21,-475.408c584.19,-102.508 1731.69,-325.465 2155.88,-332.475c473.245,-7.82 605.79,296.494 946.522,489.456c495.743,280.747 1129.82,490.705 1383.6,530.566c513.275,80.616 226.708,922.073 -288.38,1243.96c-968.127,604.995 -3146.38,540.665 -3455.65,912.052c-439.936,528.301 -147.007,692.118 776.56,951.764c764.716,214.989 1583.95,-113.801 1953.41,74.697c490.347,250.178 277.407,911.647 485.418,1308.37c182.307,347.702 772.671,456.377 1305.37,385.673c666.11,-88.412 1302.69,-1138.4 2091,-1745.36c593.744,-457.156 1356.76,-471.616 1817.6,-705.645c1292.4,-656.316 2498.43,-1362.98 3845.81,-1486.89c1225.1,-112.663 3267.86,610.899 3315.53,1166.47c47.67,555.568 -2764.66,1190.3 -3798.64,1936.2c-1143.13,824.639 -2929.24,1873.83 -3483.18,2684.75c-419.986,614.823 1401.96,1817.6 774.841,2565.33c-732.328,873.16 -3741.48,2616.68 -5168.81,2673.64c-1427.33,56.959 -2764.52,-1418.69 -3395.15,-2331.88c-247.51,-358.412 -571.579,-974.371 -533.281,-1524.99c35.107,-504.743 426.915,-948.434 356.17,-1218.5c-147.917,-564.681 -237.175,-645.245 -652.711,-894.567c-610.273,-366.164 -1834.53,-76.839 -2605.14,-667.884c-530.095,-406.574 -1025.25,-1078.73 -1393.25,-1715.5c-121.707,54.14 -258.066,106.356 -358.872,121.248c-352.518,52.077 -1101.62,148.218 -1466.16,48.071c-311.81,-85.662 -528.778,-432.636 -721.061,-648.955c-192.282,-216.318 -72.106,-1057.56 -72.106,-1610.37c0,-552.813 -1178.05,-560.504 -1650.75,-536.469c-472.695,24.036 -958.338,267.658 -951.608,717.6c6.73,449.941 454.76,1085.85 684.335,1514.42c110.842,206.917 488.927,740.086 693.114,1056.98c328.565,509.921 552.384,897.515 503.846,924.882c-48.538,27.367 -566.795,-471.156 -890.847,-775.801c-2456.41,-2309.3 -7702.1,-7118.26 -10496.1,-10371.4c196.545,180.99 500.682,330.757 697.476,481.814c467.522,358.864 843.549,667.858 1437.75,1008.29c1243.24,712.283 2552.47,1250.81 4092.37,1996.91c587.455,284.626 1368.43,696.403 2095.98,1063.15c632.52,318.84 1224.66,603.644 1614.17,741.27c481.822,170.245 939.365,-63.037 1315.02,-28.843c279.237,25.418 542.785,281.014 729.713,369.375c377.419,178.407 1176.29,448.66 1620.94,528.778c323.662,58.317 560.36,-154.063 813.164,-195.744Z" style="fill:url(#_Linear6);"/><path d="M83653.4,34499.3c-166.463,471.101 -841.324,1719.02 934.383,2095.04c1775.71,376.02 3779.28,-198.051 5339.05,-1020.01c1559.76,-821.962 3044.62,-2611.22 4019.54,-3911.76c859.779,-1146.96 1971.4,-3148.14 2440.21,-4407.9c177.187,-476.123 246.18,-1511.37 -127.914,-2004.07c-451.65,-594.843 -1420.26,-549.245 -1940.5,261.72c-1112.4,1734.03 -1480.86,2543.05 -2718.88,4031.41c-1426.5,1714.95 -2636.3,3023 -2937.89,3362.29c-563.329,633.746 -2021.1,854.359 -3074.84,861.715c-1053.74,7.356 -1766.7,260.469 -1933.16,731.57Z" style="fill:url(#_Linear7);"/><path d="M71427.4,30124.7c-37.303,516.92 -816.882,1535.7 -884.502,2280.48c-67.619,744.776 246.699,1540.06 441.867,1991.28c135.233,312.657 597.69,806.998 630.688,1282.14c34.995,503.91 58.454,175.747 -420.715,1741.32c-498.318,1628.13 -490.322,1903.6 -692.219,3086.14c-201.897,1182.54 -346.109,1644.02 -548.007,2249.71c-201.897,605.692 -1470.96,663.377 -1442.12,-201.897c28.842,-865.273 -519.164,-2163.18 -490.322,-2970.77c28.843,-807.589 548.007,-1932.44 548.007,-2566.98c-0,-634.534 432.637,-1788.23 -663.376,-2278.55c-1096.01,-490.322 -1586.34,-1182.54 -2595.82,-1701.7c-1009.49,-519.164 -1672.86,-951.8 -2105.5,-1470.96c-432.637,-519.165 -1038.33,-2163.18 -1644.02,-3316.88c-605.691,-1153.7 -374.952,-1730.55 -374.952,-1730.55c0,0 201.897,403.794 605.692,922.958c403.794,519.165 498.009,480.985 805.358,626.766c447.493,212.255 1380.3,398.065 1879.6,646.764c294.125,146.5 801.205,766.67 801.205,766.67c-0,0 1409.74,1043.56 2556.92,1003.9c550.046,-19.017 894.538,-157.792 1347.5,-309.063c502.126,-167.688 1399.44,-933.342 1399.44,-933.342c0,0 877.291,438.946 845.276,882.579Z" style="fill:url(#_Linear8);"/></g><g><g><path d="M75500.2,40857.7c0,-0 1.573,1248.23 403.795,1644.02c600.884,591.27 2504.49,1528.65 3201.51,1903.6c305.277,164.218 634.103,354.562 980.644,346.11c591.27,-14.421 2494.87,-557.621 2566.98,-432.637c72.106,124.984 -1337.63,1018.89 -2134.34,1182.54c-1002.09,205.835 -2646.56,198.529 -3878.2,52.47c-1499.81,-177.862 -4519.77,-826.41 -5120.65,-1119.64c-539.097,-263.08 1151.03,-367.532 1672.86,-663.377c610.499,-346.109 1605.56,-927.766 1990.13,-1413.28c317.28,-400.567 317.267,-1499.81 317.267,-1499.81Z" style="fill:#191013;"/><path d="M74094.3,43853.3c225.933,312.46 1571.53,532.101 2142.34,667.364c386.4,91.563 917.208,187.476 1282.55,144.212c359.902,-42.619 1246.37,-129.509 1009.49,-403.794c-274.004,-317.267 -2062.24,-1238.68 -2653.51,-1499.81c-273.398,-120.745 -637.935,-224.07 -894.116,-66.98c-296.811,182.004 -1112.68,846.546 -886.749,1159.01Z" style="fill:#d9c6ca;"/></g><g><path d="M75557.9,40598.1c610.89,-47.905 2047.82,-1047.94 2538.14,-1528.65c336.675,-330.074 452.183,-886.6 403.794,-1355.6c-62.492,-605.691 -384.566,-1764.2 -778.746,-2278.55c-360.925,-470.963 -1071.98,-682.605 -1586.34,-807.589c-486.159,-118.132 -1039.25,-137.737 -1499.81,57.685c-465.453,197.498 -946.801,733.122 -1292.91,1127.3c-323.452,368.377 -673.183,800.336 -783.746,1237.78c-110.563,437.444 102.952,1054.42 317.267,1528.65c225.933,499.936 752.973,1169.41 1038.33,1470.97c160.432,169.537 435.376,258.864 673.806,338.341c274.003,91.334 588.023,239.636 970.214,209.665Z" style="fill:#192030;"/><path d="M76452,39502.1c-163.44,-72.106 -28.842,-822.01 201.898,-1038.33c230.739,-216.318 1019.1,-331.688 1182.54,-259.582c163.44,72.106 -26.551,527.831 -201.898,692.219c-230.739,216.319 -1019.1,677.798 -1182.54,605.692Z" style="fill:#131219;"/><path d="M74663.8,39646.3c72.106,-81.72 -495.129,-1076.79 -692.219,-1355.6c-112.372,-158.964 -418.216,-398.987 -490.322,-317.267c-72.106,81.721 -98.101,587.21 57.685,807.589c197.09,278.811 1052.75,946.994 1124.86,865.274Z" style="fill:#131219;"/><path d="M75529.1,39877.1c120.177,14.421 360.53,-1067.17 288.424,-1297.91c-72.106,-230.74 -672.991,-302.846 -721.061,-86.527c-48.071,216.318 312.46,1370.02 432.637,1384.44Z" style="fill:#131219;"/></g></g><g><path d="M67650.1,30330.7c635.38,-9.469 1245.84,-102.179 1869.9,-462.78c605.545,-349.907 1035.76,-756.437 1276.68,-1254.84c240.922,-498.402 433.552,-1055.58 221.174,-1620.9c-109.696,-291.993 -511.959,-709.56 -748.883,-860.285c-432.723,-275.287 -1109.28,-614.729 -1835.15,-840.661c-705.946,-219.732 -1547.69,-422.831 -2040.12,-514.934c-261.877,-48.981 -671.414,-79.179 -914.498,-37.688c-239.212,40.831 -427.651,91.785 -667.064,360.472c-222.783,250.022 -387.908,715.364 -478.943,1344.31c-97.834,675.918 -14.614,1610.2 566.082,2300.09c601.589,714.716 1332.07,1608.36 2750.82,1587.21Z" style="fill:#9e9f99;"/><path d="M68066.9,28686.2c208.716,-156.806 385.495,-451.242 544.657,-896.489c213.751,-597.958 231.449,-1427.94 107.567,-1735.48c-121.78,-302.32 -554.287,-638.112 -1035,-729.689c-372.42,-70.947 -804.235,44.907 -944.745,173.221c-359.634,328.42 -369.911,1005.85 -328.804,1434.82c56.119,585.634 290.622,1002.55 444.558,1242.15c141.647,220.473 326.267,450.063 504.129,555.818c128.798,76.583 518.682,97.616 707.639,-44.345Z" style="fill:#141622;"/><ellipse cx="67196.2" cy="26134" rx="572.234" ry="529.162" style="fill:#d2dae5;"/></g><g><path d="M86460.4,29880c689.027,-89.924 1485.06,-399.468 1975.29,-811.742c536.175,-450.917 1155.24,-1134.24 1241.76,-1893.76c48.436,-425.158 -56.757,-1185.12 -208.365,-1610.96c-131.484,-369.314 -388.664,-783.433 -848.961,-1042.55c-448.27,-252.344 -1303.45,-253.189 -1999.97,-144.905c-900.257,139.957 -1642.35,360.569 -2367.85,610.537c-645.067,222.257 -1154.31,587.182 -1414.13,1076.32c-259.813,489.143 -82.401,1531.61 150.135,2068.2c260.3,600.654 741.174,1119.06 1313.22,1476.66c549.519,343.516 1469.85,362.12 2158.88,272.196Z" style="fill:#828380;"/><path d="M86445,28473.1c315.05,-94.154 802.047,-863.986 867.351,-1418.97c65.304,-554.986 -102.889,-1152.32 -288.474,-1832.18c-58.338,-213.711 -179.651,-478.799 -452.278,-572.278c-345.673,-118.525 -1446.53,31.778 -1739.85,528.317c-293.322,496.539 181.964,1924.7 491.86,2480.45c216.333,387.959 806.346,908.82 1121.39,814.665Z" style="fill:#151621;"/><ellipse cx="85059.2" cy="25880.4" rx="561.158" ry="571.003" style="fill:#d2dae5;"/><ellipse cx="87269.4" cy="25732.7" rx="625.15" ry="580.848" style="fill:#d2dae5;"/></g></g><g><g><path d="M65870.1,39566.4c-1687.61,337.812 -10923,5030.37 -10808.8,5092.86" style="fill:#121824;fill-opacity:0;stroke:url(#_Linear9);stroke-width:189.02px;"/><path d="M63920.6,39311.5c-1720.95,-22.326 -5698.72,388.697 -8548.07,583.046" style="fill:#121824;fill-opacity:0;stroke:url(#_Linear10);stroke-width:189.02px;"/><path d="M66339.2,40826.6c-1625.07,566.842 -10707.2,6023.48 -10585.4,6069.65" style="fill:#121824;fill-opacity:0;stroke:url(#_Linear11);stroke-width:189.02px;"/><path d="M68186.7,43431.3c-1604.07,623.782 -8521.67,7082.92 -8398.38,7124.78" style="fill:#121824;fill-opacity:0;stroke:url(#_Linear12);stroke-width:189.02px;"/><path d="M67732.9,42405.5c-1604.07,623.781 -9029.29,7652.08 -8906.01,7693.94" style="fill:#121824;fill-opacity:0;stroke:url(#_Linear13);stroke-width:189.02px;"/><path d="M66652.3,41724.8c-1604.07,623.782 -9583.07,7467.49 -9459.78,7509.35" style="fill:#121824;fill-opacity:0;stroke:url(#_Linear14);stroke-width:189.02px;"/></g><g><path d="M94293.5,41997.2c-3352.98,139.903 -9137.73,61.292 -8921.42,25.1" style="fill:url(#_Linear15);stroke:url(#_Linear16);stroke-width:189.02px;"/><path d="M99255.8,47196.5c-2891.5,-1059.94 -11208.1,-5076.52 -10991.8,-5112.71" style="fill:url(#_Linear17);stroke:url(#_Linear18);stroke-width:189.02px;"/><path d="M97531,49247.4c-1111.17,-1795.02 -10723.4,-6870.88 -10673.6,-6397.6" style="fill:url(#_Linear19);stroke:url(#_Linear20);stroke-width:189.02px;"/><path d="M97909.8,42017c-1457.87,-914.749 -9688.34,-1538.42 -9648.34,-1414.52" style="fill:url(#_Linear21);stroke:url(#_Linear22);stroke-width:189.02px;"/><path d="M98014.1,40665.7c-1503.56,-837.534 -10130,-1017.96 -10083.6,-896.311" style="fill:url(#_Linear23);stroke:url(#_Linear24);stroke-width:189.02px;"/><path d="M98879.3,39050c-1552.04,-743.855 -12096.5,-654.271 -12042.8,-535.69" style="fill:url(#_Linear25);stroke:url(#_Linear26);stroke-width:189.02px;"/><path d="M91687,46959.5c-1104.55,-1319.89 -6621.29,-4670.81 -6621.47,-4540.61" style="fill:url(#_Linear27);stroke:url(#_Linear28);stroke-width:189.02px;"/><path d="M88920.2,46781.1c-1106.36,-1318.38 -6198.7,-3712.87 -6198.7,-3712.87" style="fill:url(#_Linear29);stroke:url(#_Linear30);stroke-width:189.02px;"/></g></g></g></g></g><defs><linearGradient id="_Linear2" x1="0" y1="0" x2="1" y2="0" gradientUnits="userSpaceOnUse" gradientTransform="matrix(26863.9,0,0,37606.6,53273.2,105321)"><stop offset="0" style="stop-color:#100f17;stop-opacity:1"/><stop offset="1" style="stop-color:#121113;stop-opacity:1"/></linearGradient><linearGradient id="_Linear3" x1="0" y1="0" x2="1" y2="0" gradientUnits="userSpaceOnUse" gradientTransform="matrix(52184.2,0,0,109523,3444.56,90134)"><stop offset="0" style="stop-color:#0c0e16;stop-opacity:1"/><stop offset="1" style="stop-color:#130f18;stop-opacity:1"/></linearGradient><linearGradient id="_Linear4" x1="0" y1="0" x2="1" y2="0" gradientUnits="userSpaceOnUse" gradientTransform="matrix(16835.6,0,0,53319.9,73366.3,115114)"><stop offset="0" style="stop-color:#110f17;stop-opacity:1"/><stop offset="1" style="stop-color:#1c192a;stop-opacity:1"/></linearGradient><linearGradient id="_Linear5" x1="0" y1="0" x2="1" y2="0" gradientUnits="userSpaceOnUse" gradientTransform="matrix(11765.1,0,0,13348.8,89425.2,46618.9)"><stop offset="0" style="stop-color:#0c0e16;stop-opacity:1"/><stop offset="1" style="stop-color:#0a0d14;stop-opacity:1"/></linearGradient><linearGradient id="_Linear6" x1="0" y1="0" x2="1" y2="0" gradientUnits="userSpaceOnUse" gradientTransform="matrix(176.04,-13085.6,13085.6,176.04,76109.7,19859.1)"><stop offset="0" style="stop-color:#0c0f17;stop-opacity:0.81"/><stop offset="1" style="stop-color:#150f19;stop-opacity:0.81"/></linearGradient><linearGradient id="_Linear7" x1="0" y1="0" x2="1" y2="0" gradientUnits="userSpaceOnUse" gradientTransform="matrix(-20843.1,844.99,-844.99,-20843.1,104239,33043)"><stop offset="0" style="stop-color:#000;stop-opacity:0.95"/><stop offset="1" style="stop-color:#0c0e16;stop-opacity:0.95"/></linearGradient><linearGradient id="_Linear8" x1="0" y1="0" x2="1" y2="0" gradientUnits="userSpaceOnUse" gradientTransform="matrix(7495.94,-3520.79,3520.79,7495.94,63901.3,34275.8)"><stop offset="0" style="stop-color:#000;stop-opacity:0.48"/><stop offset="0.49" style="stop-color:#131824;stop-opacity:0.48"/><stop offset="1" style="stop-color:#192030;stop-opacity:0.48"/></linearGradient><linearGradient id="_Linear9" x1="0" y1="0" x2="1" y2="0" gradientUnits="userSpaceOnUse" gradientTransform="matrix(6831.43,-3641.71,3641.71,6831.43,61190.7,41685.5)"><stop offset="0" style="stop-color:#121824;stop-opacity:1"/><stop offset="0.54" style="stop-color:#303742;stop-opacity:1"/><stop offset="1" style="stop-color:#9da4af;stop-opacity:1"/></linearGradient><linearGradient id="_Linear10" x1="0" y1="0" x2="1" y2="0" gradientUnits="userSpaceOnUse" gradientTransform="matrix(6831.43,-3641.71,3641.71,6831.43,61190.7,41685.5)"><stop offset="0" style="stop-color:#121824;stop-opacity:1"/><stop offset="0.54" style="stop-color:#303742;stop-opacity:1"/><stop offset="1" style="stop-color:#9da4af;stop-opacity:1"/></linearGradient><linearGradient id="_Linear11" x1="0" y1="0" x2="1" y2="0" gradientUnits="userSpaceOnUse" gradientTransform="matrix(6831.43,-3641.71,3641.71,6831.43,61190.7,41685.5)"><stop offset="0" style="stop-color:#121824;stop-opacity:1"/><stop offset="0.54" style="stop-color:#303742;stop-opacity:1"/><stop offset="1" style="stop-color:#9da4af;stop-opacity:1"/></linearGradient><linearGradient id="_Linear12" x1="0" y1="0" x2="1" y2="0" gradientUnits="userSpaceOnUse" gradientTransform="matrix(6831.43,-3641.71,3641.71,6831.43,61190.7,41685.5)"><stop offset="0" style="stop-color:#121824;stop-opacity:1"/><stop offset="0.54" style="stop-color:#303742;stop-opacity:1"/><stop offset="1" style="stop-color:#9da4af;stop-opacity:1"/></linearGradient><linearGradient id="_Linear13" x1="0" y1="0" x2="1" y2="0" gradientUnits="userSpaceOnUse" gradientTransform="matrix(6831.43,-3641.71,3641.71,6831.43,61190.7,41685.5)"><stop offset="0" style="stop-color:#121824;stop-opacity:1"/><stop offset="0.54" style="stop-color:#303742;stop-opacity:1"/><stop offset="1" style="stop-color:#9da4af;stop-opacity:1"/></linearGradient><linearGradient id="_Linear14" x1="0" y1="0" x2="1" y2="0" gradientUnits="userSpaceOnUse" gradientTransform="matrix(6831.43,-3641.71,3641.71,6831.43,61190.7,41685.5)"><stop offset="0" style="stop-color:#121824;stop-opacity:1"/><stop offset="0.54" style="stop-color:#303742;stop-opacity:1"/><stop offset="1" style="stop-color:#9da4af;stop-opacity:1"/></linearGradient><linearGradient id="_Linear15" x1="0" y1="0" x2="1" y2="0" gradientUnits="userSpaceOnUse" gradientTransform="matrix(10515.4,4009.01,-4009.01,10515.4,84830.7,40425)"><stop offset="0" style="stop-color:#fff;stop-opacity:1"/><stop offset="0.19" style="stop-color:#9d9fa4;stop-opacity:1"/><stop offset="0.4" style="stop-color:#3c414b;stop-opacity:1"/><stop offset="1" style="stop-color:#121824;stop-opacity:1"/></linearGradient><linearGradient id="_Linear16" x1="0" y1="0" x2="1" y2="0" gradientUnits="userSpaceOnUse" gradientTransform="matrix(4996.94,2215.75,-2215.75,4996.94,85387.9,39967.4)"><stop offset="0" style="stop-color:#d2dae5;stop-opacity:1"/><stop offset="0.18" style="stop-color:#818893;stop-opacity:1"/><stop offset="0.39" style="stop-color:#333a45;stop-opacity:1"/><stop offset="1" style="stop-color:#121824;stop-opacity:1"/></linearGradient><linearGradient id="_Linear17" x1="0" y1="0" x2="1" y2="0" gradientUnits="userSpaceOnUse" gradientTransform="matrix(10515.4,4009.01,-4009.01,10515.4,84830.7,40425)"><stop offset="0" style="stop-color:#fff;stop-opacity:1"/><stop offset="0.19" style="stop-color:#9d9fa4;stop-opacity:1"/><stop offset="0.4" style="stop-color:#3c414b;stop-opacity:1"/><stop offset="1" style="stop-color:#121824;stop-opacity:1"/></linearGradient><linearGradient id="_Linear18" x1="0" y1="0" x2="1" y2="0" gradientUnits="userSpaceOnUse" gradientTransform="matrix(4996.94,2215.75,-2215.75,4996.94,85387.9,39967.4)"><stop offset="0" style="stop-color:#d2dae5;stop-opacity:1"/><stop offset="0.18" style="stop-color:#818893;stop-opacity:1"/><stop offset="0.39" style="stop-color:#333a45;stop-opacity:1"/><stop offset="1" style="stop-color:#121824;stop-opacity:1"/></linearGradient><linearGradient id="_Linear19" x1="0" y1="0" x2="1" y2="0" gradientUnits="userSpaceOnUse" gradientTransform="matrix(10515.4,4009.01,-4009.01,10515.4,84830.7,40425)"><stop offset="0" style="stop-color:#fff;stop-opacity:1"/><stop offset="0.19" style="stop-color:#9d9fa4;stop-opacity:1"/><stop offset="0.4" style="stop-color:#3c414b;stop-opacity:1"/><stop offset="1" style="stop-color:#121824;stop-opacity:1"/></linearGradient><linearGradient id="_Linear20" x1="0" y1="0" x2="1" y2="0" gradientUnits="userSpaceOnUse" gradientTransform="matrix(4996.94,2215.75,-2215.75,4996.94,85387.9,39967.4)"><stop offset="0" style="stop-color:#d2dae5;stop-opacity:1"/><stop offset="0.18" style="stop-color:#818893;stop-opacity:1"/><stop offset="0.39" style="stop-color:#333a45;stop-opacity:1"/><stop offset="1" style="stop-color:#121824;stop-opacity:1"/></linearGradient><linearGradient id="_Linear21" x1="0" y1="0" x2="1" y2="0" gradientUnits="userSpaceOnUse" gradientTransform="matrix(10515.4,4009.01,-4009.01,10515.4,84830.7,40425)"><stop offset="0" style="stop-color:#fff;stop-opacity:1"/><stop offset="0.19" style="stop-color:#9d9fa4;stop-opacity:1"/><stop offset="0.4" style="stop-color:#3c414b;stop-opacity:1"/><stop offset="1" style="stop-color:#121824;stop-opacity:1"/></linearGradient><linearGradient id="_Linear22" x1="0" y1="0" x2="1" y2="0" gradientUnits="userSpaceOnUse" gradientTransform="matrix(4996.94,2215.75,-2215.75,4996.94,85387.9,39967.4)"><stop offset="0" style="stop-color:#d2dae5;stop-opacity:1"/><stop offset="0.18" style="stop-color:#818893;stop-opacity:1"/><stop offset="0.39" style="stop-color:#333a45;stop-opacity:1"/><stop offset="1" style="stop-color:#121824;stop-opacity:1"/></linearGradient><linearGradient id="_Linear23" x1="0" y1="0" x2="1" y2="0" gradientUnits="userSpaceOnUse" gradientTransform="matrix(10515.4,4009.01,-4009.01,10515.4,84830.7,40425)"><stop offset="0" style="stop-color:#fff;stop-opacity:1"/><stop offset="0.19" style="stop-color:#9d9fa4;stop-opacity:1"/><stop offset="0.4" style="stop-color:#3c414b;stop-opacity:1"/><stop offset="1" style="stop-color:#121824;stop-opacity:1"/></linearGradient><linearGradient id="_Linear24" x1="0" y1="0" x2="1" y2="0" gradientUnits="userSpaceOnUse" gradientTransform="matrix(4996.94,2215.75,-2215.75,4996.94,85387.9,39967.4)"><stop offset="0" style="stop-color:#d2dae5;stop-opacity:1"/><stop offset="0.18" style="stop-color:#818893;stop-opacity:1"/><stop offset="0.39" style="stop-color:#333a45;stop-opacity:1"/><stop offset="1" style="stop-color:#121824;stop-opacity:1"/></linearGradient><linearGradient id="_Linear25" x1="0" y1="0" x2="1" y2="0" gradientUnits="userSpaceOnUse" gradientTransform="matrix(10515.4,4009.01,-4009.01,10515.4,84830.7,40425)"><stop offset="0" style="stop-color:#fff;stop-opacity:1"/><stop offset="0.19" style="stop-color:#9d9fa4;stop-opacity:1"/><stop offset="0.4" style="stop-color:#3c414b;stop-opacity:1"/><stop offset="1" style="stop-color:#121824;stop-opacity:1"/></linearGradient><linearGradient id="_Linear26" x1="0" y1="0" x2="1" y2="0" gradientUnits="userSpaceOnUse" gradientTransform="matrix(4996.94,2215.75,-2215.75,4996.94,85387.9,39967.4)"><stop offset="0" style="stop-color:#d2dae5;stop-opacity:1"/><stop offset="0.18" style="stop-color:#818893;stop-opacity:1"/><stop offset="0.39" style="stop-color:#333a45;stop-opacity:1"/><stop offset="1" style="stop-color:#121824;stop-opacity:1"/></linearGradient><linearGradient id="_Linear27" x1="0" y1="0" x2="1" y2="0" gradientUnits="userSpaceOnUse" gradientTransform="matrix(10515.4,4009.01,-4009.01,10515.4,84830.7,40425)"><stop offset="0" style="stop-color:#fff;stop-opacity:1"/><stop offset="0.19" style="stop-color:#9d9fa4;stop-opacity:1"/><stop offset="0.4" style="stop-color:#3c414b;stop-opacity:1"/><stop offset="1" style="stop-color:#121824;stop-opacity:1"/></linearGradient><linearGradient id="_Linear28" x1="0" y1="0" x2="1" y2="0" gradientUnits="userSpaceOnUse" gradientTransform="matrix(4996.94,2215.75,-2215.75,4996.94,85387.9,39967.4)"><stop offset="0" style="stop-color:#d2dae5;stop-opacity:1"/><stop offset="0.18" style="stop-color:#818893;stop-opacity:1"/><stop offset="0.39" style="stop-color:#333a45;stop-opacity:1"/><stop offset="1" style="stop-color:#121824;stop-opacity:1"/></linearGradient><linearGradient id="_Linear29" x1="0" y1="0" x2="1" y2="0" gradientUnits="userSpaceOnUse" gradientTransform="matrix(10515.4,4009.01,-4009.01,10515.4,84830.7,40425)"><stop offset="0" style="stop-color:#fff;stop-opacity:1"/><stop offset="0.19" style="stop-color:#9d9fa4;stop-opacity:1"/><stop offset="0.4" style="stop-color:#3c414b;stop-opacity:1"/><stop offset="1" style="stop-color:#121824;stop-opacity:1"/></linearGradient><linearGradient id="_Linear30" x1="0" y1="0" x2="1" y2="0" gradientUnits="userSpaceOnUse" gradientTransform="matrix(4996.94,2215.75,-2215.75,4996.94,85387.9,39967.4)"><stop offset="0" style="stop-color:#d2dae5;stop-opacity:1"/><stop offset="0.18" style="stop-color:#818893;stop-opacity:1"/><stop offset="0.39" style="stop-color:#333a45;stop-opacity:1"/><stop offset="1" style="stop-color:#121824;stop-opacity:1"/></linearGradient></defs></svg>