<?xml version="1.0" encoding="UTF-8" standalone="no"?><!DOCTYPE svg PUBLIC "-//W3C//DTD SVG 1.1//EN" "http://www.w3.org/Graphics/SVG/1.1/DTD/svg11.dtd"><svg width="100%" height="100%" viewBox="0 0 159344 82397" version="1.1" xmlns="http://www.w3.org/2000/svg" xmlns:xlink="http://www.w3.org/1999/xlink" xml:space="preserve" xmlns:serif="http://www.serif.com/" style="fill-rule:evenodd;clip-rule:evenodd;stroke-linecap:round;stroke-linejoin:round;stroke-miterlimit:1.5;"><rect id="Cats" x="-159683" y="-94033.3" width="365494" height="218135" style="fill:none;"/><rect id="Cat-2" serif:id="Cat 2" x="0" y="-0" width="159343" height="82396.2" style="fill:none;"/><clipPath id="_clip1"><rect x="0" y="-0" width="159343" height="82396.2"/></clipPath><g clip-path="url(#_clip1)"><g><g><path d="M82252.5,69129.6c332.282,-2037.56 1745.03,-4558.61 3324.41,-5498.15c1783.7,-1061.09 4927.7,-1197.69 8613.9,-1116.09c2960.76,65.539 6208.35,393.792 9141.69,867.14c2924.11,471.858 7350.03,1344.25 8347.22,1676.65c2673.92,891.307 2764.83,-1749.81 3053.67,-3230.18c512.162,-2624.95 -779.398,-8761.88 -438.871,-14264.6c250.061,-4040.89 1061.55,-7001.84 2714.77,-9820.41c1653.22,-2818.57 4822.06,-5783 7204.54,-7091.02c2605.72,-1430.58 4650.62,-2243.26 7312.09,-2788.17c2921.92,-598.235 5450.32,-264.478 8081.58,322.819c2731.05,609.568 5311.47,1250.09 9008.39,3001.26c8004.2,3791.46 8947.9,10314 9958.45,14004.9c581.649,2124.38 692.541,4865.71 549.28,6584.85c-143.261,1719.13 -382.705,2092.49 -429.784,3151.75c-47.753,1074.46 93.319,2196.77 143.262,3295.01c64.422,1416.64 362.655,3748.32 243.271,5204.81c-106.552,1299.94 -789.368,2325.36 -959.578,3534.12c-183.806,1305.33 354.118,2523.59 212.295,3776.36c-83.512,737.686 362.904,1486.38 112.646,2242.72c-179.05,541.132 -1002.85,706.352 -1137.1,1170.81c-276.895,957.91 -397.659,2532.47 -906.975,3268.19c-462.077,667.477 -1695.26,477.537 -2148.92,1146.09c-453.661,668.552 256.289,3030.83 -810.082,3102.26c-2552.45,170.977 -9615.58,-471.685 -16486.3,-584.566c-6562.13,-107.812 -8665.9,323.049 -13000.8,317.59c-3153.1,-3.97 -8627.16,-312.941 -15065.1,-374.041c-12001.2,-113.899 -26506.4,-285.854 -26506.4,-285.854c-771.688,-5200.27 -589.653,-8805.34 -131.591,-11614.2Z" style="fill:url(#_Linear2);"/><path d="M94494.7,62780.9c-4379.44,-280.985 -6846.48,-77.472 -8793.29,1107.98c-2027.25,1234.43 -2859.32,3919.53 -3259.08,6224.5c-487.206,2809.15 -569.17,4892.52 335.85,10630.4l-1399.36,43.392c0,-0 -291.622,-4820.24 -2720.95,-10491.9c-1607.62,-3753.29 -5487.91,-7951.05 -7999.83,-11883.4c-2578.99,-4037.3 -5002.91,-8832.08 -7103.73,-12599.7c-1810.43,-3246.82 -3647.3,-6470.3 -5093.74,-9894.81c-1623.26,-3843.14 -920.154,-9883.27 -1091.56,-14279.6c761.172,789.064 853.44,1910.03 1449.86,3175.2c838.315,1778.31 2098.2,3667.55 3194.9,5993.81c848.909,1800.66 1744.52,3510.39 3105.5,5296.5c1608.56,2111.01 3451.21,4299.37 5305.11,6221.41c3001.51,3111.82 5771.1,5815.95 7782.7,7839.78c1458.14,1467.01 3075.55,3052.67 4694.3,4340.28c2659.05,2115.09 8137.77,5964.52 11593.3,8276.16Z" style="fill:#201c1d;"/><path d="M65054.5,36695.8c-3294.9,-4667.8 -7750.93,-14963.2 -7750.93,-14963.2l1537.23,-1614.9c0,-0 1042.15,-1259.09 2795.69,-2518.77c902.573,-648.38 2126.6,-972.911 3115.14,-1590.48c1447.7,-904.421 2589.11,-2039.86 3112.75,-2468.3c1282.81,-1049.57 4245.75,-136.257 6372.98,-679.765c485.974,-124.167 1529.38,-2243.72 1977.15,-2384.44c798.126,-250.821 -60.681,-1822.85 824.263,-2002.74c738.388,-150.101 1294.96,525.034 2269.29,578.343c1063.29,58.177 409.146,-1376.17 1458.79,-1550.95c905.507,-150.779 2054.29,748.572 3103.5,631.607c408.973,-45.592 1143.05,394.121 1639.53,305.973c763.075,-135.48 1662.17,-1167.24 3122.7,-1523.75c1024.94,-250.184 1380.49,-338.536 2557.66,-512.557c2566.72,-379.44 4725.44,-1029.64 6529.04,-1228.67c1871.5,-206.516 5882.17,459.057 9226.08,569.101c2821.4,92.848 4318.89,-204.798 6018.25,140.971c1262.4,256.86 2919.88,118.907 4899.76,586.411c2137.19,504.65 4426.66,-277.43 6468.27,521.988c1226.08,480.083 2423.38,2545.92 3274.56,2954.48c1397.77,670.927 2149.54,1932.86 3550.01,2727.16c842.858,478.039 2445.79,277.159 3670.84,767.94c1100.1,440.725 1081.87,1529.47 1619.14,1901.42c454.204,314.449 1162.51,363.517 1847.73,808.098c381.591,247.581 706.963,879.462 1095.03,1120.27c649.332,402.924 1270.41,148.61 1881.74,677.052c585.406,506.031 1088.8,1437.25 1757.68,1920.08c539.242,389.25 1384.64,588.839 1912.44,965.838c953.295,680.925 1806.42,1867.27 2713.48,2528.15c850.209,619.465 1770.83,716.837 2197.19,1258.59c554.289,704.301 -79.594,1404.31 473.572,1680.89c908.33,454.165 2484.94,2662.58 3772.86,4583.3c743.376,1108.62 1390.57,2121.4 1757.57,2645.68c1002.83,1432.61 1411.85,3144.6 1905.65,4902.9c267.728,953.314 250.379,3410.25 566.276,4957.54c125.073,612.616 273.014,1770.65 273.014,1770.65c0,0 -821.335,-2784.13 -2454.32,-5720.37c-1338.96,-2407.56 -2960.21,-4300.38 -5256.09,-6176.71c-4035.09,-3297.73 -13271.3,-5668.14 -18549.2,-5075.93c-4988.43,559.726 -12264.6,4873.86 -15072.2,10342.2c-1504.2,2929.69 -2146.36,5492.43 -2360.99,9244.49c-197.929,3460.08 360.224,4410.69 356.361,11308.2c-0.159,283.489 387.463,4051.29 -945.873,5651.67c-449.531,539.565 -1815.98,993.051 -2490.18,768.318c-997.185,-332.395 -8464.29,-1826.78 -8680.55,-1898.87c-1515.67,-505.222 -5963.26,-644.705 -8499.71,-813.802c-51.218,-3.414 -102.189,-6.749 -152.913,-10.003c-3455.55,-2311.64 -9261.43,-6049.97 -11963.7,-8128.02c-1605.1,-1234.33 -3647.3,-3599.15 -5045.57,-5063.65c-2863.38,-2999.01 -9112.64,-8192.36 -12431,-12893.4Z" style="fill:url(#_Linear3);"/><path d="M12338.8,63641.7c-0,-0 705.61,-619.288 670.806,-728.83c-95.427,-300.354 -970.969,-577.822 -1169.3,-1147.36c-399.075,-1146.03 -501.646,-3176.28 -946.378,-4142.2c-585.544,-1271.76 -1649.07,-3380.51 -2430.49,-5090.9c-914.749,-2002.23 -2388.49,-5084.64 -3058.01,-6922.47c-980.12,-2690.42 -1654.2,-4772.63 -1983.87,-7476.93c-422.495,-3465.78 -965.914,-12280.7 -965.914,-12280.7c-0,0 81.529,-2243.36 671.2,-2275.28c7552.97,-408.743 41048.3,-1305.24 49952.4,-1539.8c1389.32,-36.598 1336.97,434.92 1962.94,449.284c527.318,12.1 1792.89,-363.103 1792.89,-363.103c-0,-0 -126.246,2033.59 -168.868,3051.38c-56.925,1359.36 -192.962,3351.56 -172.684,5104.8c25.136,2173.33 18.53,5200.78 -182.865,7790.51c-229.053,2945.4 -342.208,6743.6 -1191.45,9881.86c-849.248,3138.26 -2342.35,6016.64 -3755.88,8947.71c-1690.41,3505.17 -5553.72,9715.82 -5942.13,12046.3c-569.847,3419.08 3708.42,6869.84 5685.47,8870.8c1574.92,1593.97 5294.52,2630.13 5732.38,3172.02c0,-0 -33883.5,929.065 -40927.9,955.444c-770.001,2.883 -646.075,-263.303 -822.37,-751.661c-223.027,-617.812 -60.681,-2625.97 -60.681,-2625.97c2654.43,-1525.67 5069.5,-4763.08 4778.07,-9717.42c-98.583,-1675.91 -2143.93,-2720.29 -3431.71,-3600.55c-1229.77,-840.603 -2434.04,-886.324 -4035.7,-1606.91Z" style="fill:url(#_Linear4);"/><path d="M15026.7,79020.3c-0,-0 -604.912,-724.919 -702.157,-1168.93c-78.859,-360.061 -258.732,-536.383 -658.959,-562.508c-347.011,-22.652 -922.918,107.713 -963.871,-164.488c-125.713,-835.576 93.21,-3382.7 122.899,-4510.16c19.788,-751.482 56.728,-1494.7 55.235,-2254.55c-3.064,-1559.31 -519.771,-6812.99 -519.771,-6812.99c-0,-0 3378.78,728.405 4644.11,1590.85c1296.59,883.753 3036.83,2035.75 3135.42,3711.66c291.432,4954.34 -2458.47,8645.44 -5112.9,10171.1Z" style="fill:url(#_Linear5);"/><path d="M56877.9,80988.8c0,-0 -3046.51,-901.975 -5896.01,-2769.43c-1315.02,-861.82 -2522.17,-2147.65 -3587.42,-3394.37c-1394.72,-1632.3 -2466.85,-3276.9 -2419.09,-4615.32c128.633,-3604.95 1822.24,-5376.38 3387.43,-8051.78c1555.08,-2658.12 3233.7,-6332.74 4318.58,-8690.77c813.661,-1768.53 1856.96,-3502.91 2190.67,-5457.4c396.354,-2321.33 736.078,-4052.26 867.048,-6160.95c177.092,-2851.27 374.598,-8023.54 550.6,-12839.1c91.36,-2499.71 210.063,-4604.43 243.062,-6790.85c456.501,-218.447 807.93,-511.946 1119.37,-834.008c-0,0 -155.744,3855.48 -108.5,5494.33c66.286,2299.4 99.894,4336.98 345.841,5942.1c275.702,1799.29 976.568,3196.11 1618.74,4653.04c745.503,1691.36 1517.88,3476.64 2743.17,5569.18c1719.46,2936.47 3255.98,5970.15 3255.98,5970.15c-0,-0 2008.54,4232.57 5279.26,9100.9c2350.94,3499.29 5875.61,7222.1 7609.12,10700.4c1008.41,2023.37 1845.42,4515.95 2408.47,7436.3c270.311,1402 571.378,2170.52 574.603,4535.97l-8469.53,69.705l-16031.4,131.942Z" style="fill:url(#_Linear6);"/></g><g><path d="M38995.2,50705.5c-30.762,51.969 -122.433,210.422 -183.254,353.387c-155.921,366.508 -325.176,879.426 -504.025,1444.14c-364.333,1150.38 -765.961,2506.19 -1159.58,3344.46c-212.343,452.215 -445.149,769.404 -650.842,910.141c-635.682,434.941 -3140.01,1780.05 -5028.7,2546.65c-868.593,352.554 -1620.12,575.875 -2035.56,575.875c-1249.55,-0 -5954.96,-60.089 -6417.76,32.47l-180.436,7.541l-182.814,-42.008c-141.546,-48.291 -356.102,-161.853 -620.908,-329.192c-764.743,-483.264 -2052.07,-1452.19 -3262.11,-2193.9c-743.324,-455.63 -1448.8,-831.733 -1964.87,-906.89c-242.541,-35.322 -482.143,-168.26 -698.396,-408.656c-226.37,-251.641 -439.443,-641.122 -625.417,-1118.84c-640.477,-1645.22 -1018.78,-4417.92 -1152.8,-5322.59c-25.989,-175.427 -156.418,-343.744 -323.042,-525.24c-344.529,-375.281 -857.61,-756.741 -1379.6,-1147.91c-568.173,-425.775 -1146.86,-861.151 -1570.25,-1300.38c-329.192,-341.509 -567.839,-692.072 -676.006,-1038.9c-1792.83,-5748.52 -3748.87,-6619.93 -3748.87,-6619.93c-47.758,-19.489 -91.977,-46.717 -130.879,-80.588c-0,0 -3448.41,-3030.39 -3567.99,-6506.57c-76.149,-2213.56 -266.508,-6630.23 -266.508,-6630.23c-1.781,-41.311 1.905,-82.677 10.961,-123.023c-0,0 355.018,-1511.41 191.757,-2251.34c-72.086,-326.711 -345.207,-634.022 -589.541,-965.653c-340.522,-462.185 -643.368,-953.931 -680.2,-1486.89c-110.118,-1593.42 208.75,-5754.31 65.687,-7328.01c-80.084,-880.918 -338.607,-1411.42 -555.945,-1919.37c-172.598,-403.389 -322.132,-795.238 -381.584,-1288.18c-208.869,-1731.84 -1021.26,-1580.93 -292.96,-7116.03c206.53,-1569.63 764.799,-2401.91 1441.46,-2782.79c698.726,-393.294 1572.12,-332.178 2481.87,16.637c1567.96,601.188 3268.55,2054.8 4144.9,2704.22c1558.42,1154.87 4067.25,3983.27 5813.22,5754.11c685.633,695.4 1231.59,1225.7 1538.49,1366.52c1263.22,579.595 4006.66,1055.21 6095.47,1134.07c2835.33,107.046 8506.12,-241.897 10782.3,-526.416c2021.16,-252.645 5415.32,-230.16 6247.1,-220.334l1587.42,-1455.57c9.492,-8.704 19.338,-17.014 29.514,-24.908c-0,0 6742.73,-5230.9 7889.7,-6091.12c729.146,-546.86 1743.72,-1225.25 2606.98,-1471.65c751.15,-214.398 1404.41,-111.256 1820.28,409.629c337.312,422.483 615.966,1142.09 757.309,2112.86c194.736,1337.48 145.114,3181.94 -297.105,5353.39c-623.21,3060.19 -1600.21,6184.93 -1711.14,7138.9c-206.995,1780.16 22.92,3904.88 -43.594,5337.72c-28.266,608.902 -344,1498.73 -672.302,2378.94c-290.403,778.604 -592.901,1548.27 -623.704,2063.88c-101.693,1702.28 683.057,3706.13 683.444,5797.62c0.181,983.274 -178.264,1755.43 -367.432,2509.02c-172.904,688.795 -356.272,1360.43 -385.472,2192.71c-28.023,798.727 -581.996,1648.68 -1159.69,2498.15c-467.233,687.049 -959.369,1371.49 -959.369,2062.82c-0,315.303 -108.263,670.111 -312.855,1042.95c-257.405,469.078 -672.012,981.071 -1150.9,1490.54c-1101.48,1171.82 -2562.2,2335.61 -2949.3,2916.25c-279.078,418.618 -1000.95,1078.23 -1816.76,1725.96c-1134.15,900.49 -2445.34,1783.75 -2907.39,2001.55Z" style="fill:#1e201f;"/><g><g><g><path d="M15843.2,53869.6c-884.648,79.691 -5622.2,1947.89 -7988.1,3064.48c-2381.6,1123.99 -4677.81,2780.05 -6301.5,3679.49" style="fill:none;stroke:url(#_Linear7);stroke-width:189.02px;"/><path d="M16291.2,53943.1c-879.815,121.97 -5522.45,2214.94 -7832.16,3443.56c-2325.03,1236.77 -4539.29,3000.91 -6118.04,3977.08" style="fill:none;stroke:url(#_Linear8);stroke-width:189.02px;"/><path d="M17832.2,54940.2c-839.609,289.842 -4989.76,3241.27 -7018.2,4893.43c-2041.91,1663.13 -4537.34,5021.28 -4537.34,5021.28" style="fill:none;stroke:url(#_Linear9);stroke-width:189.02px;"/><path d="M17320.6,54231.3c-2734.25,941.964 -4923.2,2503.3 -6967.43,3814.15c-2153.46,1380.89 -4374.58,3495.04 -5953.33,4471.21" style="fill:none;stroke:url(#_Linear10);stroke-width:189.02px;"/><path d="M15431.6,52382.1c-3231.06,947.705 -3321.67,1025.38 -6696.3,1707.59c-2509.29,507.27 -4057.43,1217.75 -5850.14,1576.7" style="fill:none;stroke:url(#_Linear11);stroke-width:189.02px;"/><path d="M15556.5,52337.3c-3089.35,273.595 -8517.6,3168.18 -9552.77,3504.68c-874.7,284.334 -3281.14,1930.24 -3281.14,1930.24" style="fill:none;stroke:url(#_Linear12);stroke-width:189.02px;"/><path d="M17225,52553.4c-2539.6,110.928 -4504.13,147.37 -7734.82,557.291c-3027.55,384.144 -5102.6,977.454 -6963.16,1288.48" style="fill:none;stroke:url(#_Linear13);stroke-width:189.02px;"/><path d="M17255.7,51744.8c-4138.23,295.97 -13123.7,821.233 -17254.2,956.385" style="fill:none;stroke:url(#_Linear14);stroke-width:189.02px;"/><path d="M16861.9,51570.8l-15614.2,503.595" style="fill:none;stroke:url(#_Linear15);stroke-width:189.02px;"/><path d="M15778.1,49062.5c-4787.66,-558.047 -11034.9,-1719.7 -15714.5,-1996.86" style="fill:none;stroke:url(#_Linear16);stroke-width:189.02px;"/><path d="M16594.4,50833.4c-5858.61,-571.42 -11578.6,-810.082 -17156.1,-706.848" style="fill:none;stroke:url(#_Linear17);stroke-width:189.02px;"/><path d="M16481.6,50852.3l-16557.2,-1535.6" style="fill:none;stroke:url(#_Linear18);stroke-width:189.02px;"/><path d="M17021.1,51144.4c-4479.57,-272.72 -16213.3,493.372 -16213.3,493.372" style="fill:none;stroke:url(#_Linear19);stroke-width:189.02px;"/></g><g><path d="M34723.9,53124c4900.58,1203.2 13142.9,8006.81 13418.2,7621.49" style="fill:none;stroke:url(#_Linear20);stroke-width:189.02px;"/><path d="M34130.9,53321.7c4900.58,1203.2 13142.9,8006.81 13418.2,7621.49" style="fill:none;stroke:url(#_Linear21);stroke-width:189.02px;"/><path d="M32714.4,53420.5c5590.07,562.958 18460.2,16629.8 18194.8,16746.5" style="fill:none;stroke:url(#_Linear22);stroke-width:189.02px;"/><path d="M34738.7,52509.2c5326.42,1120.92 11692,5121.66 16919.4,8319.12" style="fill:none;stroke:url(#_Linear23);stroke-width:189.02px;"/><path d="M35542,50732.1c1777.97,-91.341 3259.14,142.383 4982.11,427.741c2312.7,383.028 4910,1684.87 7550.7,2733.52c1504.39,597.41 3156.38,734.384 4442.96,1521.34" style="fill:none;stroke:url(#_Linear24);stroke-width:189.02px;"/><path d="M35116.5,51812.9c3075.99,-172.539 7975.42,1964.39 12411.3,3657.92c2133.51,814.526 4278.24,1354.02 6114.7,1936.17" style="fill:none;stroke:url(#_Linear25);stroke-width:189.02px;"/><path d="M35907.1,50659.8c0,-0 7716.67,538.876 12049.3,3581.97c1868.03,1312.05 4301.06,1338.1 6147.32,1913.4" style="fill:none;stroke:url(#_Linear26);stroke-width:189.02px;"/><path d="M32824.4,52916.1c1264.98,75.638 2893.24,1181.57 4601.27,2384.8c5750.79,4051.17 12746.3,12269.7 12746.3,12269.7" style="fill:none;stroke:url(#_Linear27);stroke-width:189.02px;"/><path d="M33090.7,52909.1c1552.29,92.817 3270.03,1489.45 5364.01,3118.22c5357.78,4167.47 11534.1,11133.8 11534.1,11133.8" style="fill:none;stroke:url(#_Linear28);stroke-width:189.02px;"/><path d="M35990.6,50590.7c2145.59,128.293 3687.97,382.502 5078.35,832.816c2189.31,709.072 4001.73,1904.37 7198.81,3859.91" style="fill:none;stroke:url(#_Linear29);stroke-width:189.02px;"/></g></g><g><g><path d="M22799.5,50894.1c21.055,-338.452 380.092,-921.157 826.016,-1029.51c660.494,-160.494 1374.62,186.322 2107.32,259.142c232.39,23.096 599.607,248.966 948.131,293.069c557.279,70.521 1112.89,-46.932 1340.76,-115.291c370.371,-111.111 1429.63,-448.148 1837.04,-392.593c251.882,34.348 631.509,472.858 607.407,725.926c-24.691,259.259 -74.074,259.259 -518.519,888.889c-444.444,629.63 -424.286,599.654 -629.629,888.889c-200.491,282.4 -1108.78,1161.27 -1793.97,1364.97c-685.186,203.704 -1594.92,128.854 -2317.14,-142.751c-673.205,-253.171 -1296.3,-1185.18 -1666.67,-1370.37c-370.371,-185.186 -471.568,-257.585 -592.593,-481.482c-123.457,-228.395 -172.373,-499.474 -148.148,-888.889Z" style="fill:#231b1e;"/><path d="M25267.2,52685.2c73.572,-13.608 195.487,-283.59 150.033,-578.687c-65.099,-422.643 -406.611,-928.698 -581.085,-1077.73c-296.296,-253.087 -1191.01,-87.605 -1073.66,198.578c117.353,286.182 1325.77,1490.93 1504.71,1457.84Z" style="fill:#12120f;"/><path d="M28162.5,51731.1c170.242,-281.877 826.406,-503.6 966.816,-513.544c339.959,-24.076 612.658,154.056 416.574,513.716c-211.066,387.141 -922.983,965.808 -1438.03,1177.54c-200.318,82.352 -57.335,-992.321 54.636,-1177.72Z" style="fill:#110d0c;"/></g><path d="M22202.5,56801c500.722,-237.935 2839.66,-18.124 4037.93,-33.482c1000.22,-12.82 2575.25,18.482 3143.74,88.952c151.485,18.777 226.719,382.259 153.445,504.529c-122.13,203.792 -472.12,552.628 -886.223,718.223c-614.864,245.876 -1789.75,767.322 -2689.18,586.371c-346.093,-69.629 -1982.63,-323.31 -2574.4,-603.209c-1191.98,-563.787 -1664.65,-1033.6 -1185.3,-1261.38Z" style="fill:#0b0c13;"/></g><g><path d="M3302.55,26305.6c-0,0 5100.78,811.919 5593.56,1775.89c482.981,944.788 -479.608,2359.94 -177.59,3178.29c186.669,505.802 1092.74,1107.1 1308.22,1139.23c493.236,73.547 942.06,-889.683 1348.87,-1900.78c451.103,-1121.19 850.544,-2301.23 1201.59,-2191.75c725.531,226.266 1729.2,-59.137 2380.1,415.109c686.774,500.386 1306.59,2091.47 1740.55,2587.21c266.496,304.434 767.527,911.564 448.381,1127.94c-565.558,383.447 -2915.1,211.211 -3702.84,894.962c-745.119,646.754 -1160.47,2313.76 -1023.61,3207.55c144.389,943 1430.41,2775.11 2431.82,3361.43c1001.41,586.318 2528.11,676.977 3576.63,387.962c1048.52,-289.016 1971.53,-1965.58 2714.5,-2122.05c518.435,-109.19 294.59,1799.77 284.056,2329.47c-20.281,1019.92 -372.13,3372.83 -168.707,4530.78c153.375,873.056 791.149,1589.44 1152.21,2132.47c279.642,420.579 641.709,1180.65 1014.16,1125.73c372.45,-54.922 1028.74,-851.896 1220.54,-1455.26c375.551,-1181.42 909.209,-4649.42 1699.43,-4485.11c790.221,164.304 2339.32,4418.28 3041.9,5470.94c267.606,400.945 1648.86,213.337 1840.26,-229.084c477.263,-1103.18 1319.61,-3964.46 1319.61,-5278.89c-0,-1314.43 308.641,-3573.47 540.922,-5057.44c148.704,-950.027 2416.57,-2360.51 2519.43,-2448.2c808.467,-689.358 1949.97,-960.53 2837.35,-1544.81c973.627,-641.059 1749.42,-2106.99 2819.22,-2810.8c1189.24,-782.397 2437.88,4299.04 3353.28,3477.52c915.405,-821.517 -289.57,-5109.75 -305.294,-6517.74c-7.227,-647.189 798.825,-2200.95 210.952,-1930.19c-1032.2,475.407 -5263.3,3728.86 -6737.51,4338.19c-828.22,342.326 -1782.76,-19.097 -2107.75,-682.208c-335.643,-684.852 -704.157,-2159.42 93.888,-3426.9c798.046,-1267.48 2159.42,-2394.14 2957.46,-3379.96c798.045,-985.821 3174.85,-2950.76 3894.66,-4617.27c719.806,-1666.51 -457.396,-3771.51 -316.564,-4381.78c140.831,-610.27 519.631,-1828.45 729.152,-2769.69c144.09,-647.305 1185.18,-3534.97 527.97,-2877.75c-657.214,657.214 -3683.12,2382.09 -4481.16,3931.24c-798.046,1549.15 -2116.24,1661.14 -2744.24,2656.44c-595.011,943.011 -1788.18,1829.38 -2505.25,2833.85c-927.115,1298.7 -1614.25,3968.38 -2575.96,5143.56c-707.588,864.643 -1557.48,1849.61 -2527.65,2240.81c-970.173,391.198 -2163.58,314.481 -3071.16,-115.837c-907.581,-430.319 -1618.17,-1611.47 -2374.32,-2466.08c-1139,-1287.3 -3419.08,-4029.35 -4459.67,-5257.71c-595.725,-703.225 -1527.67,-584.018 -2191.27,-1223.59c-993.137,-957.168 -484.526,-2531.92 -2878.66,-2297.2c-1562.82,153.217 -3969.2,1322.32 -4606.84,2426.58c-339.184,587.391 -113.72,1379.83 191.98,1813c318.165,450.831 1115.02,1042.39 1717.01,891.986c809.194,-202.176 1807.5,-1694.01 2282.05,-1422.97c923.776,527.608 -110.111,3602.35 -60.588,3874.72c93.887,516.383 -1048.99,418.588 -2175.64,653.307c-531.391,110.706 -2272.68,1298.16 -3964.34,1958.46c-1894.99,739.664 -3727.7,953.748 -3727.7,953.748l-107.385,2032.69Z" style="fill:#10110e;"/><g><path d="M33614.3,37079.2c-672.389,958.258 370.369,2572.41 1810.13,3396.88c805.723,461.392 1996.26,431.267 2449.13,492.007c1357.2,182.031 3148.39,-1699.51 3560,-3315.56c220.48,-865.647 78.842,-2126.64 -521.468,-2825.15c-586.249,-682.155 -1645.9,-893.297 -2528.9,-819.292c-892.595,74.81 -2031.85,756.296 -2826.67,1268.15c-742.68,478.277 -1455.77,1109.69 -1942.22,1802.96Z" style="fill:url(#_Linear30);"/><path d="M37417.3,35243.7c-150.757,969.289 -256.653,2060.84 351.111,3093.33c386.819,-1064.7 210.232,-2091.84 -351.111,-3093.33Z" style="fill:#1c1115;"/><path d="M37867,35860.3c296.276,-81.808 821.724,-50.568 919.699,-66.37c97.975,-15.803 262.32,-210.172 161.185,-308.147c-101.135,-97.975 -536.361,-187.137 -815.404,-189.629c-353.974,-3.16 -944.984,53.728 -1308.44,170.666c-324.036,104.255 -606.812,391.9 -720.59,568.887c-101.627,158.087 -116.938,439.306 37.926,493.035c154.864,53.728 492.496,-141.001 739.553,-208.592c335.01,-91.654 668.441,-372.147 986.07,-459.85Z" style="fill:#a9b5a9;"/></g><g><path d="M18476.6,39879.2c1397.45,-713.152 2328.89,-2278.77 2050.37,-3342.22c-278.518,-1063.46 -2624.2,-2527.66 -3721.48,-3038.52c-919.182,-427.945 -2189.14,-422.469 -2885.93,-2.963c-696.79,419.506 -1152.84,1924.94 -1152.59,2804.44c0.247,879.506 673.83,1905.33 1367.41,2685.93c881.228,991.793 3124.36,1514.84 4342.22,893.334Z" style="fill:url(#_Linear31);"/><path d="M16865.4,34857c-538.171,910.617 -728.842,1821.23 -318.856,2731.85c683.21,-976.476 773.426,-1881.8 318.856,-2731.85Z" style="fill:#1c1115;"/><path d="M14575.7,34206.1c110.558,-58.223 435.572,-88.202 631.883,-33.13c289.544,81.227 455.133,280.606 513.025,301.57c207.489,75.138 523.014,53.97 802.752,136.341c285.564,84.087 533.834,272.08 591.812,385.22c55.581,108.462 -117.305,253.989 -147.771,352.775c-38.964,126.34 -492.162,109.47 -744.97,128.697c-277.123,21.076 -785.394,58.147 -1012.58,-59.127c-227.186,-117.275 -178.601,-531.586 -350.538,-644.52c-345.711,-227.074 -342.773,-175.279 -390.042,-269.916c-47.269,-94.638 -5.03,-239.213 106.429,-297.91Z" style="fill:#a9b5a9;"/></g></g></g><g><path d="M44053.7,9265.37c506.173,-1203.7 2906.17,-3929.63 4259.26,-5000c910.588,-720.329 3227.16,-1754.32 3859.26,-1422.22c632.098,332.098 962.961,3192.59 851.85,3859.26c-111.111,666.667 -471.604,3508.64 -688.889,5022.22c-200.502,1396.68 -1148.15,3362.96 -1296.3,4029.63c-148.148,666.667 478.855,4647.58 266.666,5933.33c-174.634,1058.19 -2195.83,1783.14 -2754.61,1662.68c-618.518,-133.333 -1160.28,-881.422 -1430.57,-1899.72c-637.035,-2400 -2466.66,-7725.93 -2466.66,-8244.45c-0,-518.518 -1028.92,-2920.75 -600,-3940.74Z" style="fill:#391e13;"/><path d="M2972.27,20450.6c666.667,419.753 1666.67,1296.3 2444.44,851.852c777.778,-444.444 3076.2,-1247.78 3185.18,-2074.07c108.99,-826.292 -2582.66,-1866.9 -2531.25,-2883.68c51.408,-1016.78 1782.91,-2441.69 2839.7,-3217.01c127.36,-93.438 -3183.01,-2082.07 -3306.53,-2954.26c-163.622,-1155.37 2849.69,-1268.56 3162.04,-1416.29c966.939,-457.341 1885.88,1462.56 3264.51,1907.38c1606.07,518.205 3613.77,-383.473 3613.77,-383.473c0,0 -3789.33,-3793.14 -5112.26,-5281.25c-877.071,-986.571 -3422.2,-3063.96 -5430.19,-4125.06c-1619.58,-855.855 -3014.65,-976.686 -3811.12,-202.484c-796.474,774.202 -778.278,4078.86 -914.177,5817.09c-133.804,1711.42 540.138,3917.74 594.435,4279.73c46.126,307.501 481.258,1361.14 605.578,2885.8c175.154,2148.1 -181.344,4890.78 -159.682,5129.06c37.037,407.407 912.472,1261.76 1555.56,1666.67Z" style="fill:#391e13;"/></g></g></g></g><path d="M17939.8,55988.5c-697.73,120.505 -2653.44,2003.32 -4634.27,4116.71c-2697.1,2877.59 -5440.79,6182.66 -5118.9,6048.53" style="fill:none;stroke:url(#_Linear32);stroke-width:189.02px;"/><defs><linearGradient id="_Linear2" x1="0" y1="0" x2="1" y2="0" gradientUnits="userSpaceOnUse" gradientTransform="matrix(31691.5,50274.7,-50274.7,31691.5,123925,36578.2)"><stop offset="0" style="stop-color:#4c3732;stop-opacity:1"/><stop offset="0.53" style="stop-color:#30302e;stop-opacity:1"/><stop offset="0.76" style="stop-color:#282825;stop-opacity:1"/><stop offset="1" style="stop-color:#11120c;stop-opacity:1"/></linearGradient><linearGradient id="_Linear3" x1="0" y1="0" x2="1" y2="0" gradientUnits="userSpaceOnUse" gradientTransform="matrix(-81560.8,11483.6,-11483.6,-81560.8,145739,19181.3)"><stop offset="0" style="stop-color:#10110e;stop-opacity:1"/><stop offset="0.8" style="stop-color:#2b2b2a;stop-opacity:1"/><stop offset="0.9" style="stop-color:#332e2c;stop-opacity:1"/><stop offset="1" style="stop-color:#4c3732;stop-opacity:1"/></linearGradient><linearGradient id="_Linear4" x1="0" y1="0" x2="1" y2="0" gradientUnits="userSpaceOnUse" gradientTransform="matrix(-1808.44,-58322.3,58322.3,-1808.44,33015.8,82778.9)"><stop offset="0" style="stop-color:#131412;stop-opacity:1"/><stop offset="0.67" style="stop-color:#1b1d1b;stop-opacity:1"/><stop offset="0.85" style="stop-color:#313536;stop-opacity:1"/><stop offset="1" style="stop-color:#4c5457;stop-opacity:1"/></linearGradient><linearGradient id="_Linear5" x1="0" y1="0" x2="1" y2="0" gradientUnits="userSpaceOnUse" gradientTransform="matrix(7268.5,-10879.6,10879.6,7268.5,11561.3,79226.4)"><stop offset="0" style="stop-color:#2e2a2b;stop-opacity:1"/><stop offset="0.66" style="stop-color:#342d2e;stop-opacity:1"/><stop offset="1" style="stop-color:#58413e;stop-opacity:1"/></linearGradient><linearGradient id="_Linear6" x1="0" y1="0" x2="1" y2="0" gradientUnits="userSpaceOnUse" gradientTransform="matrix(-11574,-38194.3,38194.3,-11574,69644.1,81046.2)"><stop offset="0" style="stop-color:#2c2c2c;stop-opacity:1"/><stop offset="0.28" style="stop-color:#1d1d1d;stop-opacity:1"/><stop offset="0.69" style="stop-color:#2d2d2f;stop-opacity:1"/><stop offset="1" style="stop-color:#252324;stop-opacity:1"/></linearGradient><linearGradient id="_Linear7" x1="0" y1="0" x2="1" y2="0" gradientUnits="userSpaceOnUse" gradientTransform="matrix(16427.8,-1278.91,398.977,5124.9,-61689.6,28948.9)"><stop offset="0" style="stop-color:#fff;stop-opacity:1"/><stop offset="1" style="stop-color:#1b1f1e;stop-opacity:1"/></linearGradient><linearGradient id="_Linear8" x1="0" y1="0" x2="1" y2="0" gradientUnits="userSpaceOnUse" gradientTransform="matrix(16347.7,-2064.26,643.979,5099.91,-62346.2,32764.4)"><stop offset="0" style="stop-color:#fff;stop-opacity:1"/><stop offset="1" style="stop-color:#1b1f1e;stop-opacity:1"/></linearGradient><linearGradient id="_Linear9" x1="0" y1="0" x2="1" y2="0" gradientUnits="userSpaceOnUse" gradientTransform="matrix(15639.7,-5187.25,1618.25,4879.05,-63416.6,49371.6)"><stop offset="0" style="stop-color:#fff;stop-opacity:1"/><stop offset="1" style="stop-color:#1b1f1e;stop-opacity:1"/></linearGradient><linearGradient id="_Linear10" x1="0" y1="0" x2="1" y2="0" gradientUnits="userSpaceOnUse" gradientTransform="matrix(16347.7,-2064.26,643.979,5099.91,-60163.8,33629.2)"><stop offset="0" style="stop-color:#fff;stop-opacity:1"/><stop offset="1" style="stop-color:#1b1f1e;stop-opacity:1"/></linearGradient><linearGradient id="_Linear11" x1="0" y1="0" x2="1" y2="0" gradientUnits="userSpaceOnUse" gradientTransform="matrix(16458.2,795.936,-248.305,5134.41,-59742.7,18423.3)"><stop offset="0" style="stop-color:#fff;stop-opacity:1"/><stop offset="1" style="stop-color:#1b1f1e;stop-opacity:1"/></linearGradient><linearGradient id="_Linear12" x1="0" y1="0" x2="1" y2="0" gradientUnits="userSpaceOnUse" gradientTransform="matrix(16458.2,795.936,-248.305,5134.41,-58869.7,18958)"><stop offset="0" style="stop-color:#fff;stop-opacity:1"/><stop offset="1" style="stop-color:#1b1f1e;stop-opacity:1"/></linearGradient><linearGradient id="_Linear13" x1="0" y1="0" x2="1" y2="0" gradientUnits="userSpaceOnUse" gradientTransform="matrix(16458.2,795.936,-248.305,5134.41,-59881.4,18085.7)"><stop offset="0" style="stop-color:#fff;stop-opacity:1"/><stop offset="1" style="stop-color:#1b1f1e;stop-opacity:1"/></linearGradient><linearGradient id="_Linear14" x1="0" y1="0" x2="1" y2="0" gradientUnits="userSpaceOnUse" gradientTransform="matrix(16458.2,795.936,-248.305,5134.41,-62090.8,17435.1)"><stop offset="0" style="stop-color:#fff;stop-opacity:1"/><stop offset="1" style="stop-color:#1b1f1e;stop-opacity:1"/></linearGradient><linearGradient id="_Linear15" x1="0" y1="0" x2="1" y2="0" gradientUnits="userSpaceOnUse" gradientTransform="matrix(16458.2,795.936,-248.305,5134.41,-62090.8,17435.1)"><stop offset="0" style="stop-color:#fff;stop-opacity:1"/><stop offset="1" style="stop-color:#1b1f1e;stop-opacity:1"/></linearGradient><linearGradient id="_Linear16" x1="0" y1="0" x2="1" y2="0" gradientUnits="userSpaceOnUse" gradientTransform="matrix(15883.1,768.123,-248.305,5134.41,-61670.6,14213.5)"><stop offset="0" style="stop-color:#fff;stop-opacity:1"/><stop offset="1" style="stop-color:#1b1f1e;stop-opacity:1"/></linearGradient><linearGradient id="_Linear17" x1="0" y1="0" x2="1" y2="0" gradientUnits="userSpaceOnUse" gradientTransform="matrix(16458.2,795.936,-248.305,5134.41,-63437.7,16667.7)"><stop offset="0" style="stop-color:#fff;stop-opacity:1"/><stop offset="1" style="stop-color:#1b1f1e;stop-opacity:1"/></linearGradient><linearGradient id="_Linear18" x1="0" y1="0" x2="1" y2="0" gradientUnits="userSpaceOnUse" gradientTransform="matrix(16458.2,795.936,-248.305,5134.41,-63937.5,16099.9)"><stop offset="0" style="stop-color:#fff;stop-opacity:1"/><stop offset="1" style="stop-color:#1b1f1e;stop-opacity:1"/></linearGradient><linearGradient id="_Linear19" x1="0" y1="0" x2="1" y2="0" gradientUnits="userSpaceOnUse" gradientTransform="matrix(16458.2,795.936,-248.305,5134.41,-62090.8,17435.1)"><stop offset="0" style="stop-color:#fff;stop-opacity:1"/><stop offset="1" style="stop-color:#1b1f1e;stop-opacity:1"/></linearGradient><linearGradient id="_Linear20" x1="0" y1="0" x2="1" y2="0" gradientUnits="userSpaceOnUse" gradientTransform="matrix(11158.3,0,0,5793,8930.65,3574.46)"><stop offset="0" style="stop-color:#fff;stop-opacity:1"/><stop offset="1" style="stop-color:#1b1f1e;stop-opacity:1"/></linearGradient><linearGradient id="_Linear21" x1="0" y1="0" x2="1" y2="0" gradientUnits="userSpaceOnUse" gradientTransform="matrix(11158.3,0,0,5793,8337.7,3772.11)"><stop offset="0" style="stop-color:#fff;stop-opacity:1"/><stop offset="1" style="stop-color:#1b1f1e;stop-opacity:1"/></linearGradient><linearGradient id="_Linear22" x1="0" y1="0" x2="1" y2="0" gradientUnits="userSpaceOnUse" gradientTransform="matrix(11158.3,0,0,5793,6921.19,3870.94)"><stop offset="0" style="stop-color:#fff;stop-opacity:1"/><stop offset="1" style="stop-color:#1b1f1e;stop-opacity:1"/></linearGradient><linearGradient id="_Linear23" x1="0" y1="0" x2="1" y2="0" gradientUnits="userSpaceOnUse" gradientTransform="matrix(11158.3,0,0,5793,9189.91,2500.39)"><stop offset="0" style="stop-color:#fff;stop-opacity:1"/><stop offset="1" style="stop-color:#1b1f1e;stop-opacity:1"/></linearGradient><linearGradient id="_Linear24" x1="0" y1="0" x2="1" y2="0" gradientUnits="userSpaceOnUse" gradientTransform="matrix(11158.3,0,0,5793,10078.8,241.139)"><stop offset="0" style="stop-color:#fff;stop-opacity:1"/><stop offset="1" style="stop-color:#1b1f1e;stop-opacity:1"/></linearGradient><linearGradient id="_Linear25" x1="0" y1="0" x2="1" y2="0" gradientUnits="userSpaceOnUse" gradientTransform="matrix(11158.3,0,0,5793,10078.8,241.139)"><stop offset="0" style="stop-color:#fff;stop-opacity:1"/><stop offset="1" style="stop-color:#1b1f1e;stop-opacity:1"/></linearGradient><linearGradient id="_Linear26" x1="0" y1="0" x2="1" y2="0" gradientUnits="userSpaceOnUse" gradientTransform="matrix(11217.9,0,0,5724.9,10307.6,-338.571)"><stop offset="0" style="stop-color:#fff;stop-opacity:1"/><stop offset="1" style="stop-color:#1b1f1e;stop-opacity:1"/></linearGradient><linearGradient id="_Linear27" x1="0" y1="0" x2="1" y2="0" gradientUnits="userSpaceOnUse" gradientTransform="matrix(11158.3,0,0,5793,7819.55,4389.27)"><stop offset="0" style="stop-color:#fff;stop-opacity:1"/><stop offset="1" style="stop-color:#1b1f1e;stop-opacity:1"/></linearGradient><linearGradient id="_Linear28" x1="0" y1="0" x2="1" y2="0" gradientUnits="userSpaceOnUse" gradientTransform="matrix(11158.3,0,0,5793,7152.88,5055.94)"><stop offset="0" style="stop-color:#fff;stop-opacity:1"/><stop offset="1" style="stop-color:#1b1f1e;stop-opacity:1"/></linearGradient><linearGradient id="_Linear29" x1="0" y1="0" x2="1" y2="0" gradientUnits="userSpaceOnUse" gradientTransform="matrix(11158.3,0,0,5793,10486.2,-832.932)"><stop offset="0" style="stop-color:#fff;stop-opacity:1"/><stop offset="1" style="stop-color:#1b1f1e;stop-opacity:1"/></linearGradient><linearGradient id="_Linear30" x1="0" y1="0" x2="1" y2="0" gradientUnits="userSpaceOnUse" gradientTransform="matrix(-2939.26,-6802.96,6802.96,-2939.26,39402.4,40892.7)"><stop offset="0" style="stop-color:#9b9a76;stop-opacity:1"/><stop offset="1" style="stop-color:#5a5630;stop-opacity:1"/></linearGradient><linearGradient id="_Linear31" x1="0" y1="0" x2="1" y2="0" gradientUnits="userSpaceOnUse" gradientTransform="matrix(-260.74,7656.29,-7656.29,-260.74,16599.4,32880.8)"><stop offset="0" style="stop-color:#544a22;stop-opacity:1"/><stop offset="1" style="stop-color:#a7a788;stop-opacity:1"/></linearGradient><linearGradient id="_Linear32" x1="0" y1="0" x2="1" y2="0" gradientUnits="userSpaceOnUse" gradientTransform="matrix(16458.2,795.936,-248.305,5134.41,-55846,21520.8)"><stop offset="0" style="stop-color:#fff;stop-opacity:1"/><stop offset="1" style="stop-color:#1b1f1e;stop-opacity:1"/></linearGradient></defs></svg>