<?xml version="1.0" encoding="UTF-8" standalone="no"?><!DOCTYPE svg PUBLIC "-//W3C//DTD SVG 1.1//EN" "http://www.w3.org/Graphics/SVG/1.1/DTD/svg11.dtd"><svg width="100%" height="100%" viewBox="0 0 1257 1704" version="1.1" xmlns="http://www.w3.org/2000/svg" xmlns:xlink="http://www.w3.org/1999/xlink" xml:space="preserve" xmlns:serif="http://www.serif.com/" style="fill-rule:evenodd;clip-rule:evenodd;stroke-linejoin:round;stroke-miterlimit:2;"><g id="Group---TEXT" serif:id="Group - TEXT"></g><g id="Group---TEXT---LOGO" serif:id="Group - TEXT &amp; LOGO"></g><g id="Group---ICONS" serif:id="Group - ICONS"><g id="Favicons"><rect id="Artboard-Base-Tree---Favicon---Rectangle" serif:id="Artboard Base Tree - Favicon - Rectangle" x="0" y="-0" width="1256.17" height="1703.29" style="fill:none;"/><g id="Artboard-Base-Tree---Favicon---Rectangle1" serif:id="Artboard Base Tree - Favicon - Rectangle"><rect x="118.98" y="104.354" width="1018.21" height="1491.19" style="fill:#252525;"/><g><path d="M953.013,1351.45c-0.034,0.111 -0.062,0.169 -0.083,0.17c0.028,-0.057 0.055,-0.113 0.083,-0.17Zm-222.398,184.973c-0.214,1.049 -0.393,1.446 -0.522,0.982c0.175,-0.327 0.349,-0.654 0.522,-0.982Zm-111.867,-577.747c-0,0 28.79,-51.262 30.811,-69.205c1.27,-11.269 3.757,-24.094 5.171,-35.67c1.536,-12.578 0.832,-34.329 2.22,-38.469c1.861,-5.55 17.61,0.115 27.595,0.35c10.67,0.25 26.317,-6.044 26.317,-6.044c0,0 21.519,-7.168 25.156,-0.479c2.598,4.776 0.69,24.786 2.115,37.225c3.257,28.437 -0.513,94.537 33.604,130.777c21.812,36.607 86.706,54.149 141.051,55.539c50.328,1.286 53.556,-4.549 94.626,-11.167c0,0 50.762,8.977 64.032,24.126c-42.931,-16.024 -83.037,-15.069 -119.997,4.8c8.163,8.688 31.976,18.038 68.462,27.923c16.461,10.687 35.147,25.087 57.291,45.262l-55.473,-20.636c-15.16,-4.751 -28.033,-6.895 -37.753,-5.445c11.92,21.882 21.365,46.619 30.218,72.038c-2.57,13.738 -37.662,-43.321 -51.46,-78.712c-5.814,-14.91 -35.26,-19.432 -51.65,-25.047l-41.879,-5.138c-9.413,0.7 40.048,85.721 70.414,89.787c-30.939,1.357 -59.355,-17.405 -84.803,-59.828c-18.12,-29.019 -51.363,-46.711 -91.522,-59.223c-3.717,0.276 -5.831,33.45 8.975,65.364c15.961,34.404 49.852,58.056 58.806,65.785c16.863,14.554 88.466,45.195 144.27,42.918c44.537,-1.816 63.753,29.732 65.243,40.544c0.477,3.465 -33.709,-22.087 -47.522,-25.354c-15.487,-3.663 -53.959,-0.113 -53.959,-0.113c0,0 35.462,40.008 45.819,58.497c9.769,17.44 18.325,40.549 20.751,56.234l-41.085,-50.595c0.45,31.025 -4.257,51.543 -11.579,66.73c1.078,-3.571 8.194,-62.305 -2.015,-82.226c-16.318,-31.84 -40,-47.559 -95.953,-63.021c0,-0 18.329,30.294 24.273,47.718c6.178,18.112 12.799,60.953 12.799,60.953l-42.6,-71.117c-0.595,-0.994 -3.935,-10.132 -5.036,-12.006c-4.155,-7.074 -11.497,-15.758 -18.328,-23.399c-9.801,-10.964 -35.442,-30.379 -35.442,-30.379c-0,-0 -9.572,65.928 2.538,90.605c14.654,29.862 44.801,78.702 90.122,96.471c8.067,3.163 6.981,12.065 12.044,14.886c-18.15,-7.205 -36.981,-16.465 -59.263,-36.135l6.551,32.528c-2.817,11.683 -4.483,24.352 -5.528,37.555c-2.788,-7.372 -4.929,-18.464 -6.551,-32.529l-11.89,-48.64c-21.89,-16.325 -47.91,-42.695 -50.837,-70.326c0.003,-0.071 -0.003,-0.13 -0.018,-0.177c0.006,0.059 0.012,0.118 0.018,0.177c-0.148,3.493 -22.025,36.211 -29.704,47.429c-7.929,11.582 -13.533,45.812 -9.05,46.07c2.287,25.711 12.885,44.976 29.309,59.725c18.956,28.141 23.862,45.467 25.182,60.032c-10.768,-22.982 -22.259,-42.283 -36.655,-46.797c3.454,37.217 1.518,73.612 -16.364,107.576c1.308,-6.429 3.914,-37.348 4.4,-44.781c0.968,-14.812 -0.1,-57.193 -0.115,-57.764c0,-0.001 0,-0.003 0,-0.006c0,0 0,0.002 0,0.006c-0.013,0.152 -2.533,-12.397 -5.642,-20.221c-4.248,-10.69 -13.076,-31.168 -19.842,-43.921c-9.275,5.541 -21.14,32.199 -29.081,55.814c-6.051,-7.833 -5.92,-19.336 -2.423,-32.835c-0,-0 28.807,-68.862 31.995,-72.54c2.435,-2.809 4.217,-10.913 7.043,-17.032c5.138,-11.123 24.163,-41.035 32.904,-60.226c10.157,-22.297 18.852,-59.902 9.541,-95.631l-52.975,-99.234l-8.438,-5.709c0.795,10.8 2.3,21.284 5.059,27.755c10.764,25.25 20.082,47.983 20.365,79.76c0.247,27.779 -10.947,47.452 -23.821,73.99c-7.137,17.266 -6.898,44.888 -0.71,80.864c-8.084,-14.934 -15.009,-25.941 -15.009,-25.941c-0,0 -5.82,-17.732 -7.269,-27.855l-39.989,44.123c5.207,-17.327 29.191,-37.135 39.928,-61.093c9.849,-21.978 16.609,-45.037 20.827,-68.984c2.019,-32.311 -9.583,-64.28 -24.437,-95.712c-27.247,19.584 -42.056,90.402 -53.628,157.993c-9.235,-24.644 -11.157,-58.491 1.605,-110.816c-30.356,18.202 -54.775,39.909 -62.977,71.191c-10.345,18.94 -7.686,51.016 15.397,93.76c-2.738,15.471 -27.619,-33.993 -31.319,-55.747c-0.423,-2.486 -21.086,65.034 -22.864,61.009c-5.164,-22.325 5.739,-77.894 5.739,-77.894c4.701,4.932 15.326,-31.176 16.879,-50.996c-35.958,8.975 -64.707,25.057 -80.102,54.306c-6.437,-13.503 6.248,-30.615 25.919,-49.044l57.114,-27.238c2.003,4.836 49.157,-28.067 72.079,-52.269c11.048,-11.665 33.212,-55.576 39.915,-69.109l-18.021,-12.194c-4.854,5.239 -13.582,14.846 -18.156,21.028c-22.481,53.65 -53.265,78.297 -89.173,85.047c0,-0 25.568,-17.625 35.025,-31.495c11.858,-17.39 36.123,-72.846 36.123,-72.846c-1.724,-2.201 -82.918,15.226 -96.33,44.309c-11.939,25.89 -23.652,89.93 -35.517,81.055c0.757,-17.947 4.129,-39.351 15.487,-71.311c4.881,-7.577 -69.623,22.359 -80.427,34.872c-4.266,4.941 24.152,-38.252 37.941,-48.219c11.658,-8.427 34.912,-14.291 44.189,-19.796c6.706,-3.979 15.298,-17.646 15.298,-17.646c-38.734,-13.177 -74.064,-8.162 -107.312,7.983c0,0 27.972,-24.117 43.583,-28.004c19.697,-4.904 47.733,0.576 74.596,-1.422c28.891,-2.15 65.995,-4.661 86.068,-14.657c5.72,-2.848 18.691,-12.424 18.691,-12.424Zm320.871,191.815c2.227,-0.097 4.467,-0.299 6.72,-0.604c-2.099,0.746 -4.352,0.922 -6.72,0.604Zm-44.204,229.444c0.517,0.205 1.034,0.409 1.55,0.611c-0.575,-0.148 -1.088,-0.354 -1.55,-0.611Z" style="fill:#e7cba8;"/><path d="M607.366,330.358c27.761,16.172 61.328,36.548 82.63,62.007l16.733,-66.385l10.54,61.59c16.24,-14.872 39.662,-27.545 65.014,-39.628l-61.549,61.174l-3.244,67.034c40.786,-31.02 85.701,-48.93 133.491,-57.709c-61.796,30.659 -111.759,62.477 -126.415,97.754l-5.971,30.254c0,-0 3.257,47.846 4.775,70.144c1.443,21.214 9.93,52.6 8.069,62.855c-0.781,4.307 -9.932,0.013 -17.206,-1.067c-1.368,-0.204 -7.183,0.514 -8.232,0.702c-12.327,2.209 -6.324,1.1 -18.464,1.47c-12.605,0.384 -30.489,4.327 -32.323,-3.793c-3.292,-14.581 -0.399,-80.946 -1.042,-102.872c-1.081,-36.799 -116.981,-75.987 -108.724,-81.588c31.761,4.358 70.39,19.927 114.989,45.24l1.622,-33.517c4.97,-24.303 -49.836,-62.91 -112.335,-100.087c37.293,8.567 73.412,25.05 123.097,63.956l2.801,-57.894l-68.256,-79.64Z" style="fill:#e7cba8;"/><path d="M586.574,521.15l-79.324,-44.215l87.226,19.328c-42.139,-73.399 -112.594,-83.569 -187.119,-54.978c43.772,92.341 107.619,110.603 179.217,79.865Z" style="fill:#e7cba8;"/><path d="M716.919,267.917l-20.527,81.657c-51.246,-58.866 -41.047,-126.035 25.913,-192.969c60.673,71.738 54.148,139.547 -1.306,198.286l-4.08,-86.974Z" style="fill:#e7cba8;"/><path d="M815.174,322.321l-55.543,34.516c4.156,-70.081 50.708,-115.605 126.282,-126.152c-4.53,76.51 -38.784,125.304 -110.342,139.317l39.603,-47.681Z" style="fill:#e7cba8;"/><path d="M895.642,397.45l-79.95,25.076c20.717,-58.914 67.79,-95.273 161.895,-91.379c-22.09,104.314 -78.888,126.061 -150.489,112.59l68.544,-46.287Z" style="fill:#e7cba8;"/><path d="M520.969,382.509l59.822,48.335c-80.789,9.479 -132.373,-36.72 -138.919,-126.525c74.721,3.16 132.073,30.707 152.12,110.631l-73.023,-32.441Z" style="fill:#e7cba8;"/><path d="M622.162,359.326l-30.681,-51.064l52.151,35.569c-3.735,-78.146 -43.901,-126.329 -113.714,-133.576c1.477,89.204 38.52,130.396 92.244,149.071Z" style="fill:#e7cba8;"/><path d="M723.595,727.456c5.915,6.498 21.221,9.088 16.075,-1.253c-0.911,-1.829 1.622,-11.293 -1.936,-14.055c-2.6,-2.017 -4.571,-9.117 -8.674,-12.564c-1.957,-1.644 -10.81,-3.139 -13.167,-3.116c-2.004,0.02 -13.816,4.382 -12.961,5.619c5.782,8.377 5.863,15.309 3.82,18.983c-3.097,5.569 14.288,3.579 16.843,6.386Z" style="fill:#b8470b;"/><path d="M634.148,737.573c1.004,-0.378 11.424,-2.54 16.688,-2.778c8.122,-0.368 11.986,10.074 11.976,12.919c-0.019,5.332 -0.643,11.504 -5.122,14.341c-1.832,1.16 -6.862,8.672 -10.528,12.178c-4.092,3.912 -12.173,11.804 -14.023,11.296c-13.357,-3.67 -21.923,-39.341 1.009,-47.956Z" style="fill:#b8470b;"/><path d="M995.276,762.488c2.047,-3.754 6.762,-7.035 11.601,-9.469c7.259,-3.652 13.772,-12.378 13.772,-12.378c1.441,-0.005 6.115,17.14 5.9,22.459c-0.154,3.819 2.422,16.471 2.984,20.294c0.63,4.289 12.09,26.28 1.558,28.276c-23.333,4.422 -32.086,-23.815 -36.494,-36.127c-0,0 -1.368,-9.301 0.679,-13.055Z" style="fill:#b8470b;"/><path d="M987.317,679.655c4.609,4.158 7.013,8.303 9.926,11.204c3.277,3.265 9.271,7.417 12.921,13.259c3.298,5.278 2.605,13.028 5.806,17.18c3.68,4.774 2.154,13.944 0.749,18.114c-1.091,3.241 -9.176,6.909 -9.176,6.909c-0,0 -11.894,12.068 -16.021,8.264c-2.388,-2.201 -5.072,-5.148 -7.85,-9.614c-3.642,-5.854 -4.43,-9.088 -10.213,-13.216c-1.436,-1.026 -1.778,-14.246 -0.749,-18.114c2.31,-8.683 14.607,-33.986 14.607,-33.986Z" style="fill:#b8470b;"/><path d="M892.129,712.904c0,-0 -3.409,-21.263 -1.872,-29.173c0.288,-1.478 0.983,-7.581 1.531,-11.364c0.861,-5.95 15.404,-9.675 3.636,-24.336c-1.248,-1.555 -14.145,-15.725 -4.046,-24.308c2.551,-2.168 10.39,5.764 13.063,6.378c5.204,1.196 16.431,10.121 24.528,16.011c9.444,6.87 19.649,12.796 26.126,12.754c5.504,-0.035 15.279,4.722 22.861,11.16c2.023,1.719 1.784,4.613 -3.129,14.621c-4.796,9.769 -3.252,25.941 -7.857,32.497c-2.659,3.785 -24.958,-0.074 -30.923,-2.985c-16.86,-8.231 -43.918,-1.255 -43.918,-1.255Z" style="fill:#b8470b;"/><path d="M943.852,727.671c-0,0 23.464,64.07 18.336,71.555c-5.128,7.484 -50.089,-29.734 -50.089,-29.734c2.885,-14.683 1.404,-31.793 -4.458,-51.341c12.15,-1.44 24.24,0.589 36.211,9.52Z" style="fill:#b8470b;"/><path d="M901.04,766.349c-11.715,7.945 -29.719,-7.378 -28.121,-10.376c0,0 4.013,-18.882 6.303,-22.053c3.167,-4.387 19.111,0.9 22.116,6.285c3.295,5.904 -0.298,26.144 -0.298,26.144" style="fill:#b8470b;"/><path d="M905.945,778.473c11.471,5.996 45.518,28.638 49.138,24.695l-61.662,17.946c-23.261,-8.488 -26.147,-16.018 -29.955,-32.06c0.741,2.602 32.542,-15.775 42.479,-10.581Z" style="fill:#b8470b;"/><path d="M895.239,887.939c-9.64,-1.341 -4.723,-22.364 2.382,-28.909c1.92,-1.768 1.945,-10.673 4.517,-10.544c12.502,0.628 66.354,-2.717 83.289,13.375c4.628,4.398 5.24,18.858 -2.32,22.366c-9.107,4.226 -20.665,2.306 -33.211,4.554c-7.942,1.423 -49.89,-0.179 -54.657,-0.842Z" style="fill:#b8470b;"/><path d="M401.944,1366.35c0.825,5.319 -14.909,5.753 -21.403,2.674c-11.096,-5.262 -40.815,-18.098 -45.172,-34.243c-1.632,-6.045 -8.52,-36.655 -8.52,-36.655c0,0 -8.397,-28.145 -14.619,-36.759c-44.214,-61.215 -86.665,-104.931 -106.295,-135.369c-14.835,-23.002 -18.817,-52.864 -15.13,-76.641c3.686,-23.776 19.095,-51.31 37.757,-66.28c18.563,-14.892 46.055,-26.588 73.674,-26.112c27.451,0.472 45.502,7.081 63.736,19.351c60.318,40.589 179.916,205.813 266.356,299.69l-112.799,-4.985c-0,0 -49.331,-1.013 -73.359,7.864c-36.677,13.55 -49.734,51.962 -44.226,87.465Zm-98.761,-375.904c-42.926,-0.739 -78.377,33.412 -79.117,76.217c-0.74,42.804 33.51,78.155 76.436,78.895c42.926,0.739 78.377,-33.413 79.117,-76.217c0.74,-42.804 -33.51,-78.156 -76.436,-78.895Z" style="fill:#b8470b;"/><path d="M282.077,1543.3l-0.072,-85.216c1.587,-15.633 39.674,-92.41 48.786,-79.478c27.854,39.532 97.17,39.088 103.727,33.434c9.171,-7.908 6.095,-21.295 -3.063,-42.585c-22.437,-52.163 34.68,-63.204 58.055,-63.432c48.694,-0.474 234.757,-0.116 234.757,-0.116c18.908,1.777 28.826,13.425 30.476,33.745l0.105,90.95l103.309,0.117c9.034,2.806 15.337,8.779 18.758,18.094l0.027,94.297l-594.865,0.19Zm407.036,-201.732c-12.44,0.003 -22.536,10.783 -22.533,24.059c0.004,13.275 10.107,24.05 22.547,24.047c12.44,-0.003 22.537,-10.784 22.533,-24.059c-0.004,-13.275 -10.107,-24.05 -22.547,-24.047Z" style="fill:#8e776a;"/><path d="M282.077,1543.3l-0.072,-85.216c1.587,-15.633 39.674,-92.41 48.786,-79.478c27.854,39.532 97.17,39.088 103.727,33.434c9.171,-7.908 6.095,-21.295 -3.063,-42.585c-22.437,-52.163 34.68,-63.204 58.055,-63.432c48.694,-0.474 234.757,-0.116 234.757,-0.116c18.908,1.777 28.826,13.425 30.476,33.745l0.105,90.95l103.309,0.117c9.034,2.806 15.337,8.779 18.758,18.094l0.027,94.297l-594.865,0.19Zm407.036,-201.732c-12.44,0.003 -22.536,10.783 -22.533,24.059c0.004,13.275 10.107,24.05 22.547,24.047c12.44,-0.003 22.537,-10.784 22.533,-24.059c-0.004,-13.275 -10.107,-24.05 -22.547,-24.047Z" style="fill:#b8470b;"/><path d="M302.763,1014.78c29.459,0.508 52.963,24.769 52.456,54.144c-0.508,29.375 -24.837,52.813 -54.296,52.305c-29.459,-0.507 -52.964,-24.768 -52.456,-54.143c0.507,-29.376 24.837,-52.813 54.296,-52.306Z" style="fill:#b8470b;"/><path d="M516.002,680.754c22.725,0.391 40.858,19.107 40.466,41.768c-0.392,22.661 -19.16,40.741 -41.886,40.349c-22.725,-0.391 -40.857,-19.106 -40.466,-41.767c0.392,-22.661 19.16,-40.742 41.886,-40.35Zm-0.316,18.248c-12.625,-0.217 -23.052,9.827 -23.269,22.417c-0.218,12.589 9.856,22.987 22.481,23.204c12.625,0.217 23.052,-9.827 23.27,-22.417c0.217,-12.589 -9.856,-22.986 -22.482,-23.204Z" style="fill:#b8470b;"/><path d="M699.985,793.298c-2.223,-3.435 -1.678,-12.888 -2.372,-15.106c-1.527,-4.877 4.084,-17.091 -1.661,-21.026c-5.427,-3.717 -10.067,-6.556 -16.167,-6.661c-3.05,-0.053 -2.997,-3.094 -2.997,-3.094c-0,-0 1.765,-4.657 3.155,-6.03c1.946,-1.922 12.382,-7.276 9.862,-18.552c-0.187,-0.837 14.801,3.765 14.801,3.765l15.198,3.304c0,-0 21.816,9.114 24.295,6.503c4.412,-4.646 -2.577,-27.425 -2.577,-27.425l57.205,-39.363c0,-0 6.353,-3.415 15.666,-8.397c23.407,-12.521 65.518,-34.944 72.509,-37.964c0,0 -4.468,15.819 0.703,20.109c9.829,8.156 12.07,22.029 0.666,25.828c-12.12,4.037 -3.708,20.557 -3.102,30.512c0.123,2.021 3.402,17.809 3.402,17.809l-43.533,42.532c1.281,5.136 20.915,73.082 21.739,75.932c-0.169,0.018 -0.169,0.051 0.027,0.092l-0.027,-0.092c1.824,-0.193 23.241,1.303 31.018,11.185c1.204,1.53 -4.37,11.217 -6.395,13.026c-4.883,4.363 -3.037,14.958 -6.327,21.133c-1.991,3.738 -18.451,2.746 -34.188,-4.579c-15.052,-7.007 -24.211,-13.764 -31.06,-19.2c-10.697,-8.491 -16.857,-25.794 -27.93,-33.82c-10.682,-7.742 -40.203,-34.572 -50.178,-37.982c-0.371,-0.127 -13.989,-0.188 -17.058,1.32" style="fill:#b8470b;fill-opacity:0.99;"/><path d="M695.276,794.527c-9.109,2.462 -55.279,9.418 -55.279,9.418c-0,-0 -23.974,3.266 -30.074,3.16c-6.1,-0.105 -21.403,2.674 -33.655,5.506c-9.657,2.231 -47.632,-1.327 -60.676,17.842c-21.118,31.035 -35.926,133.72 -57.339,167.015c-7.014,10.906 -28.018,14.307 -28.808,13.406c-7.605,-8.672 -48.204,-44.82 -61.315,-50.933c-46.054,-21.475 -87.595,-19.803 -108.489,-9.794c-1.891,0.905 -5.987,-28.003 2.072,-33.714c29.876,-21.171 142.243,-112.033 166.074,-155.181c0.577,-1.045 -2.959,-20.978 -0.628,-22.194c-0.061,-1.228 -0.079,-2.453 -0.053,-3.672c1.115,-52.879 47.226,-94.86 102.907,-93.691c12.99,0.273 43.908,8.661 58.033,19.003c12.829,9.394 72.676,31.675 72.676,31.675c-0,-0 15.917,3.386 22.078,3.937c13.27,1.185 17.393,7.41 22.715,16.827c1.32,2.335 -1.885,6.006 -4.487,6.68c-3.132,0.81 -11.022,-3.816 -14.306,-1.816c-3.284,1.999 -2.558,10.548 -5.397,13.812c-2.84,3.264 -9.339,8.787 -11.641,5.771c-19.134,-25.07 -50.124,2.146 -55.712,11.787c-8.48,14.631 1.936,41.854 17.032,41.417c2.86,-0.082 5.193,0.339 6.84,1.546l4.078,-0.741c-0.044,-0.118 -0.082,-0.237 -0.112,-0.354c-0.611,-2.318 -1.778,-4.938 -0.313,-7.184c2.82,-4.32 12.01,-14.313 17.231,-18.737c3.302,-2.797 6.434,-10.242 10.338,-11.242c4.168,-1.067 8.236,0.058 10.807,-0.466c2.633,-0.536 7.36,3.281 7.36,3.281c0,0 3.577,4.655 3.914,7.028c0.689,4.851 0.255,9.541 0.624,14.368c0.063,0.819 0.095,2.283 0.358,3.278c0.479,1.814 2.518,7.606 2.518,7.606c0,0 2.368,4.885 0.629,5.356Zm-179.064,-125.939c-29.459,-0.507 -53.788,22.93 -54.296,52.305c-0.508,29.376 22.997,53.637 52.456,54.144c29.459,0.507 53.788,-22.93 54.296,-52.305c0.508,-29.376 -22.997,-53.637 -52.456,-54.144Z" style="fill:#b8470b;fill-opacity:0.99;"/></g></g></g><g id="Artboard---Logo---Stages" serif:id="Artboard - Logo - Stages"></g></g></svg>