<?xml version="1.0" encoding="UTF-8" standalone="no"?><!DOCTYPE svg PUBLIC "-//W3C//DTD SVG 1.1//EN" "http://www.w3.org/Graphics/SVG/1.1/DTD/svg11.dtd"><svg width="100%" height="100%" viewBox="0 0 1562 1568" version="1.1" xmlns="http://www.w3.org/2000/svg" xmlns:xlink="http://www.w3.org/1999/xlink" xml:space="preserve" xmlns:serif="http://www.serif.com/" style="fill-rule:evenodd;clip-rule:evenodd;stroke-linejoin:round;stroke-miterlimit:2;"><g id="Group---TEXT" serif:id="Group - TEXT"></g><g id="Group---TEXT---LOGO" serif:id="Group - TEXT &amp; LOGO"></g><g id="Group---ICONS" serif:id="Group - ICONS"><g id="Favicons"><rect id="Artboard-Base-Tree---Favicon---Circle" serif:id="Artboard Base Tree - Favicon - Circle" x="0" y="0" width="1561.31" height="1567.64" style="fill:none;"/><g id="Artboard-Base-Tree---Favicon---Circle1" serif:id="Artboard Base Tree - Favicon - Circle"><ellipse id="Background---Favicon" serif:id="Background - Favicon" cx="781.888" cy="781.371" rx="763.837" ry="763.776" style="fill:#201e1f;"/><g><path d="M1119.54,1239.62c-0.034,0.111 -0.061,0.169 -0.082,0.17c0.027,-0.057 0.055,-0.113 0.082,-0.17Zm-222.398,184.973c-0.213,1.049 -0.392,1.446 -0.522,0.982c0.176,-0.327 0.35,-0.655 0.522,-0.982Zm-111.867,-577.747c0,0 28.79,-51.262 30.812,-69.205c1.269,-11.269 3.756,-24.094 5.17,-35.67c1.537,-12.578 0.833,-34.329 2.221,-38.469c1.86,-5.55 17.61,0.115 27.594,0.35c10.671,0.25 26.318,-6.044 26.318,-6.044c-0,0 21.518,-7.168 25.155,-0.48c2.598,4.777 0.691,24.787 2.116,37.225c3.257,28.438 -0.514,94.538 33.603,130.778c21.812,36.607 86.707,54.149 141.051,55.539c50.329,1.286 53.556,-4.549 94.627,-11.167c-0,0 50.761,8.977 64.031,24.126c-42.931,-16.024 -83.037,-15.069 -119.996,4.799c8.163,8.689 31.975,18.039 68.461,27.924c16.462,10.687 35.147,25.087 57.292,45.262l-55.474,-20.636c-15.16,-4.751 -28.032,-6.895 -37.752,-5.445c11.92,21.882 21.365,46.619 30.218,72.038c-2.571,13.738 -37.662,-43.321 -51.461,-78.712c-5.813,-14.911 -35.259,-19.432 -51.649,-25.047l-41.88,-5.138c-9.413,0.7 40.048,85.721 70.414,89.787c-30.939,1.357 -59.354,-17.405 -84.802,-59.828c-18.121,-29.019 -51.364,-46.711 -91.523,-59.223c-3.716,0.276 -5.831,33.45 8.975,65.364c15.961,34.404 49.853,58.056 58.807,65.785c16.862,14.554 88.466,45.194 144.269,42.918c44.538,-1.816 63.754,29.732 65.243,40.544c0.478,3.465 -33.708,-22.087 -47.522,-25.354c-15.487,-3.663 -53.958,-0.113 -53.958,-0.113c-0,0 35.462,40.008 45.818,58.497c9.77,17.44 18.325,40.549 20.751,56.234l-41.085,-50.595c0.45,31.025 -4.257,51.543 -11.579,66.73c1.078,-3.572 8.195,-62.305 -2.015,-82.226c-16.317,-31.84 -40,-47.559 -95.953,-63.021c0,-0 18.329,30.294 24.273,47.718c6.179,18.112 12.8,60.953 12.8,60.953l-42.6,-71.117c-0.596,-0.994 -3.936,-10.132 -5.037,-12.006c-4.154,-7.075 -11.496,-15.758 -18.327,-23.399c-9.801,-10.964 -35.443,-30.379 -35.443,-30.379c0,-0 -9.571,65.928 2.538,90.605c14.655,29.862 44.801,78.702 90.122,96.471c8.067,3.163 6.981,12.064 12.045,14.886c-18.151,-7.205 -36.982,-16.465 -59.264,-36.135l6.552,32.528c-2.818,11.683 -4.484,24.352 -5.528,37.555c-2.789,-7.372 -4.929,-18.464 -6.551,-32.529l-11.891,-48.64c-21.89,-16.325 -47.909,-42.695 -50.836,-70.326c0.003,-0.071 -0.003,-0.13 -0.019,-0.177c0.006,0.059 0.012,0.118 0.019,0.177c-0.148,3.493 -22.025,36.211 -29.705,47.429c-7.929,11.582 -13.532,45.812 -9.049,46.07c2.286,25.711 12.884,44.976 29.309,59.725c18.956,28.141 23.862,45.467 25.182,60.032c-10.769,-22.982 -22.26,-42.283 -36.655,-46.797c3.453,37.217 1.517,73.612 -16.365,107.576c1.308,-6.429 3.914,-37.348 4.4,-44.781c0.968,-14.812 -0.1,-57.193 -0.114,-57.764c-0,-0.001 -0,-0.003 -0,-0.006c-0,0 -0,0.002 -0,0.006c-0.013,0.152 -2.534,-12.397 -5.643,-20.221c-4.247,-10.69 -13.076,-31.168 -19.842,-43.921c-9.274,5.541 -21.14,32.199 -29.08,55.814c-6.052,-7.833 -5.92,-19.336 -2.424,-32.835c0,-0 28.808,-68.863 31.996,-72.54c2.435,-2.809 4.216,-10.913 7.042,-17.032c5.138,-11.123 24.163,-41.035 32.905,-60.226c10.156,-22.297 18.852,-59.902 9.541,-95.631l-52.976,-99.234l-8.437,-5.709c0.795,10.8 2.3,21.284 5.058,27.755c10.764,25.25 20.082,47.983 20.365,79.76c0.247,27.779 -10.947,47.452 -23.821,73.99c-7.136,17.266 -6.897,44.888 -0.71,80.864c-8.084,-14.934 -15.009,-25.941 -15.009,-25.941c0,0 -5.819,-17.732 -7.268,-27.855l-39.989,44.123c5.206,-17.327 29.191,-37.135 39.927,-61.093c9.849,-21.978 16.61,-45.037 20.828,-68.984c2.019,-32.311 -9.584,-64.28 -24.438,-95.712c-27.247,19.584 -42.056,90.402 -53.628,157.993c-9.234,-24.645 -11.156,-58.491 1.605,-110.816c-30.356,18.202 -54.774,39.909 -62.977,71.191c-10.344,18.94 -7.685,51.016 15.397,93.76c-2.737,15.471 -27.619,-33.993 -31.318,-55.747c-0.423,-2.486 -21.086,65.034 -22.864,61.009c-5.165,-22.325 5.739,-77.894 5.739,-77.894c4.701,4.932 15.325,-31.176 16.878,-50.996c-35.958,8.975 -64.706,25.057 -80.102,54.306c-6.436,-13.503 6.248,-30.615 25.919,-49.044l57.114,-27.238c2.003,4.836 49.158,-28.067 72.079,-52.269c11.048,-11.665 33.213,-55.576 39.915,-69.109l-18.021,-12.194c-4.854,5.239 -13.582,14.846 -18.156,21.028c-22.48,53.65 -53.264,78.297 -89.173,85.047c0,-0 25.569,-17.625 35.026,-31.495c11.858,-17.39 36.123,-72.846 36.123,-72.846c-1.724,-2.202 -82.918,15.226 -96.33,44.309c-11.94,25.89 -23.652,89.929 -35.517,81.055c0.757,-17.947 4.128,-39.351 15.486,-71.311c4.881,-7.577 -69.623,22.359 -80.426,34.872c-4.266,4.941 24.151,-38.252 37.94,-48.219c11.658,-8.427 34.912,-14.291 44.189,-19.796c6.706,-3.979 15.298,-17.646 15.298,-17.646c-38.734,-13.177 -74.064,-8.162 -107.312,7.983c0,0 27.973,-24.117 43.584,-28.004c19.696,-4.904 47.732,0.576 74.595,-1.422c28.892,-2.15 65.996,-4.661 86.069,-14.657c5.72,-2.849 18.69,-12.424 18.69,-12.424Zm320.871,191.815c2.227,-0.097 4.467,-0.299 6.72,-0.604c-2.099,0.746 -4.351,0.921 -6.72,0.604Zm-44.203,229.444c0.517,0.205 1.033,0.408 1.549,0.611c-0.575,-0.148 -1.088,-0.354 -1.549,-0.611Z" style="fill:#e7cba8;"/><path d="M773.892,218.522c27.76,16.172 61.327,36.548 82.629,62.007l16.733,-66.385l10.541,61.59c16.239,-14.872 39.661,-27.545 65.013,-39.628l-61.549,61.174l-3.244,67.034c40.786,-31.02 85.701,-48.93 133.492,-57.709c-61.797,30.658 -111.759,62.477 -126.416,97.754l-5.97,30.254c-0,-0 3.256,47.846 4.774,70.144c1.444,21.214 9.931,52.6 8.07,62.855c-0.782,4.306 -9.932,0.013 -17.206,-1.067c-1.369,-0.204 -7.184,0.514 -8.233,0.702c-12.326,2.209 -6.324,1.1 -18.463,1.47c-12.606,0.384 -30.49,4.327 -32.323,-3.793c-3.292,-14.581 -0.399,-80.946 -1.043,-102.872c-1.081,-36.799 -116.98,-75.987 -108.724,-81.588c31.761,4.358 70.391,19.927 114.99,45.24l1.621,-33.517c4.97,-24.303 -49.835,-62.91 -112.335,-100.087c37.293,8.567 73.412,25.05 123.097,63.956l2.802,-57.894l-68.256,-79.64Z" style="fill:#e7cba8;"/><path d="M753.099,409.314l-79.324,-44.215l87.226,19.328c-42.139,-73.399 -112.594,-83.569 -187.119,-54.978c43.772,92.341 107.619,110.603 179.217,79.865Z" style="fill:#e7cba8;"/><path d="M883.445,156.081l-20.527,81.657c-51.247,-58.866 -41.047,-126.035 25.913,-192.969c60.672,71.738 54.147,139.547 -1.306,198.286l-4.08,-86.974Z" style="fill:#e7cba8;"/><path d="M981.7,210.485l-55.543,34.516c4.156,-70.081 50.707,-115.605 126.281,-126.152c-4.529,76.509 -38.784,125.304 -110.342,139.317l39.604,-47.681Z" style="fill:#e7cba8;"/><path d="M1062.17,285.614l-79.951,25.076c20.718,-58.914 67.79,-95.273 161.896,-91.379c-22.09,104.314 -78.888,126.061 -150.49,112.59l68.545,-46.287Z" style="fill:#e7cba8;"/><path d="M687.495,270.672l59.822,48.336c-80.79,9.479 -132.374,-36.72 -138.92,-126.525c74.721,3.16 132.073,30.707 152.121,110.631l-73.023,-32.442Z" style="fill:#e7cba8;"/><path d="M788.688,247.49l-30.682,-51.065l52.151,35.57c-3.734,-78.146 -43.9,-126.329 -113.713,-133.576c1.476,89.204 38.519,130.396 92.244,149.071Z" style="fill:#e7cba8;"/><path d="M890.12,615.62c5.915,6.498 21.221,9.088 16.075,-1.253c-0.91,-1.83 1.622,-11.293 -1.936,-14.055c-2.599,-2.018 -4.571,-9.117 -8.674,-12.564c-1.956,-1.644 -10.81,-3.139 -13.167,-3.116c-2.003,0.02 -13.815,4.382 -12.961,5.619c5.783,8.376 5.863,15.309 3.82,18.983c-3.096,5.569 14.289,3.579 16.843,6.386Z" style="fill:#b8470b;"/><path d="M800.674,625.737c1.004,-0.378 11.424,-2.54 16.687,-2.778c8.122,-0.368 11.987,10.074 11.977,12.919c-0.019,5.331 -0.643,11.503 -5.123,14.341c-1.831,1.16 -6.861,8.672 -10.528,12.178c-4.091,3.912 -12.173,11.804 -14.023,11.296c-13.357,-3.67 -21.922,-39.341 1.01,-47.956Z" style="fill:#b8470b;"/><path d="M1161.8,650.652c2.046,-3.754 6.761,-7.035 11.601,-9.469c7.259,-3.653 13.772,-12.378 13.772,-12.378c1.44,-0.005 6.115,17.14 5.9,22.459c-0.155,3.819 2.421,16.471 2.983,20.294c0.631,4.289 12.09,26.28 1.558,28.276c-23.332,4.422 -32.085,-23.815 -36.494,-36.127c0,0 -1.367,-9.301 0.68,-13.055Z" style="fill:#b8470b;"/><path d="M1153.84,567.819c4.608,4.158 7.013,8.303 9.925,11.204c3.277,3.265 9.271,7.417 12.922,13.259c3.298,5.278 2.604,13.028 5.805,17.18c3.681,4.774 2.154,13.944 0.749,18.114c-1.091,3.241 -9.176,6.909 -9.176,6.909c0,0 -11.893,12.068 -16.02,8.264c-2.389,-2.201 -5.072,-5.149 -7.851,-9.614c-3.642,-5.854 -4.43,-9.088 -10.212,-13.216c-1.436,-1.026 -1.778,-14.246 -0.749,-18.114c2.309,-8.684 14.607,-33.986 14.607,-33.986Z" style="fill:#b8470b;"/><path d="M1058.65,601.068c-0,-0 -3.41,-21.263 -1.872,-29.173c0.287,-1.478 0.983,-7.581 1.53,-11.364c0.861,-5.95 15.404,-9.675 3.637,-24.336c-1.248,-1.555 -14.146,-15.725 -4.047,-24.308c2.552,-2.168 10.391,5.764 13.063,6.378c5.204,1.195 16.431,10.121 24.528,16.011c9.445,6.869 19.649,12.796 26.127,12.754c5.504,-0.035 15.278,4.722 22.86,11.16c2.024,1.719 1.784,4.613 -3.129,14.621c-4.796,9.769 -3.252,25.941 -7.857,32.497c-2.659,3.785 -24.958,-0.074 -30.923,-2.985c-16.86,-8.231 -43.917,-1.255 -43.917,-1.255Z" style="fill:#b8470b;"/><path d="M1110.38,615.835c0,0 23.464,64.07 18.336,71.555c-5.128,7.484 -50.089,-29.734 -50.089,-29.734c2.885,-14.683 1.405,-31.793 -4.458,-51.341c12.15,-1.44 24.24,0.589 36.211,9.52Z" style="fill:#b8470b;"/><path d="M1067.57,654.513c-11.715,7.945 -29.72,-7.378 -28.121,-10.376c-0,0 4.013,-18.882 6.302,-22.053c3.167,-4.387 19.111,0.9 22.117,6.285c3.294,5.904 -0.298,26.144 -0.298,26.144" style="fill:#b8470b;"/><path d="M1072.47,666.637c11.47,5.996 45.518,28.638 49.137,24.695l-61.661,17.946c-23.262,-8.488 -26.147,-16.018 -29.956,-32.06c0.741,2.602 32.543,-15.775 42.48,-10.581Z" style="fill:#b8470b;"/><path d="M1061.77,776.103c-9.64,-1.341 -4.724,-22.364 2.382,-28.909c1.919,-1.768 1.944,-10.673 4.517,-10.544c12.502,0.628 66.354,-2.717 83.289,13.375c4.627,4.398 5.24,18.858 -2.321,22.366c-9.107,4.225 -20.665,2.306 -33.211,4.554c-7.942,1.423 -49.889,-0.179 -54.656,-0.842Z" style="fill:#b8470b;"/><path d="M568.47,1254.51c0.825,5.319 -14.91,5.753 -21.403,2.674c-11.096,-5.262 -40.816,-18.098 -45.173,-34.243c-1.631,-6.045 -8.519,-36.655 -8.519,-36.655c-0,0 -8.398,-28.145 -14.62,-36.759c-44.214,-61.215 -86.664,-104.931 -106.295,-135.369c-14.835,-23.002 -18.816,-52.864 -15.13,-76.641c3.686,-23.776 19.096,-51.31 37.757,-66.28c18.563,-14.892 46.055,-26.588 73.675,-26.112c27.45,0.472 45.501,7.081 63.736,19.351c60.317,40.589 179.916,205.813 266.356,299.69l-112.8,-4.985c0,0 -49.331,-1.013 -73.359,7.864c-36.676,13.55 -49.734,51.962 -44.225,87.465Zm-98.761,-375.904c-42.926,-0.739 -78.378,33.412 -79.117,76.217c-0.74,42.804 33.51,78.155 76.436,78.895c42.926,0.739 78.377,-33.413 79.117,-76.217c0.739,-42.804 -33.51,-78.156 -76.436,-78.895Z" style="fill:#b8470b;"/><path d="M448.602,1431.46l-0.071,-85.216c1.587,-15.633 39.673,-92.41 48.785,-79.478c27.855,39.532 97.17,39.088 103.727,33.434c9.171,-7.908 6.095,-21.295 -3.063,-42.585c-22.437,-52.164 34.681,-63.204 58.056,-63.432c48.694,-0.474 234.756,-0.116 234.756,-0.116c18.908,1.777 28.826,13.425 30.476,33.745l0.105,90.95l103.31,0.117c9.034,2.806 15.336,8.779 18.757,18.094l0.027,94.297l-594.865,0.19Zm407.037,-201.732c-12.44,0.003 -22.537,10.783 -22.533,24.059c0.004,13.275 10.106,24.05 22.546,24.047c12.44,-0.003 22.537,-10.784 22.533,-24.059c-0.004,-13.275 -10.106,-24.05 -22.546,-24.047Z" style="fill:#8e776a;"/><path d="M448.602,1431.46l-0.071,-85.216c1.587,-15.633 39.673,-92.41 48.785,-79.478c27.855,39.532 97.17,39.088 103.727,33.434c9.171,-7.908 6.095,-21.295 -3.063,-42.585c-22.437,-52.164 34.681,-63.204 58.056,-63.432c48.694,-0.474 234.756,-0.116 234.756,-0.116c18.908,1.777 28.826,13.425 30.476,33.745l0.105,90.95l103.31,0.117c9.034,2.806 15.336,8.779 18.757,18.094l0.027,94.297l-594.865,0.19Zm407.037,-201.732c-12.44,0.003 -22.537,10.783 -22.533,24.059c0.004,13.275 10.106,24.05 22.546,24.047c12.44,-0.003 22.537,-10.784 22.533,-24.059c-0.004,-13.275 -10.106,-24.05 -22.546,-24.047Z" style="fill:#b8470b;"/><path d="M469.288,902.941c29.459,0.508 52.964,24.769 52.456,54.144c-0.508,29.375 -24.837,52.813 -54.296,52.305c-29.459,-0.507 -52.964,-24.768 -52.456,-54.143c0.508,-29.376 24.837,-52.813 54.296,-52.306Z" style="fill:#b8470b;"/><path d="M682.527,568.918c22.726,0.391 40.858,19.107 40.466,41.768c-0.391,22.661 -19.16,40.741 -41.885,40.349c-22.726,-0.391 -40.858,-19.106 -40.466,-41.768c0.391,-22.661 19.16,-40.741 41.885,-40.349Zm-0.315,18.248c-12.625,-0.217 -23.052,9.827 -23.27,22.417c-0.218,12.589 9.856,22.987 22.481,23.204c12.626,0.217 23.052,-9.827 23.27,-22.417c0.218,-12.589 -9.856,-22.987 -22.481,-23.204Z" style="fill:#b8470b;"/><path d="M866.511,681.462c-2.224,-3.435 -1.679,-12.888 -2.373,-15.106c-1.527,-4.877 4.084,-17.091 -1.661,-21.026c-5.426,-3.717 -10.066,-6.556 -16.166,-6.661c-3.05,-0.053 -2.998,-3.094 -2.998,-3.094c0,-0 1.765,-4.657 3.155,-6.031c1.946,-1.921 12.382,-7.275 9.863,-18.551c-0.188,-0.837 14.801,3.765 14.801,3.765l15.197,3.304c0,-0 21.816,9.114 24.296,6.503c4.411,-4.646 -2.577,-27.425 -2.577,-27.425l57.205,-39.363c-0,-0 6.352,-3.415 15.666,-8.397c23.407,-12.521 65.517,-34.944 72.509,-37.964c-0,0 -4.468,15.819 0.702,20.109c9.829,8.156 12.07,22.029 0.666,25.827c-12.12,4.038 -3.707,20.558 -3.102,30.513c0.123,2.021 3.403,17.809 3.403,17.809l-43.534,42.532c1.281,5.136 20.916,73.082 21.74,75.932c-0.17,0.018 -0.17,0.051 0.026,0.092l-0.026,-0.092c1.823,-0.193 23.24,1.303 31.017,11.185c1.205,1.53 -4.37,11.216 -6.395,13.026c-4.883,4.363 -3.036,14.958 -6.326,21.133c-1.992,3.738 -18.452,2.746 -34.189,-4.579c-15.052,-7.007 -24.21,-13.764 -31.059,-19.2c-10.698,-8.491 -16.857,-25.794 -27.93,-33.82c-10.683,-7.742 -40.204,-34.572 -50.178,-37.982c-0.372,-0.127 -13.99,-0.188 -17.059,1.32" style="fill:#b8470b;fill-opacity:0.99;"/><path d="M861.801,682.69c-9.108,2.463 -55.279,9.419 -55.279,9.419c0,-0 -23.973,3.265 -30.073,3.16c-6.1,-0.105 -21.403,2.674 -33.656,5.505c-9.656,2.232 -47.631,-1.326 -60.675,17.843c-21.119,31.035 -35.927,133.72 -57.339,167.015c-7.015,10.906 -28.019,14.306 -28.808,13.406c-7.605,-8.672 -48.205,-44.82 -61.316,-50.933c-46.054,-21.475 -87.594,-19.803 -108.489,-9.795c-1.891,0.906 -5.986,-28.002 2.072,-33.713c29.877,-21.171 142.243,-112.033 166.074,-155.181c0.578,-1.045 -2.959,-20.978 -0.627,-22.194c-0.061,-1.228 -0.079,-2.453 -0.054,-3.672c1.115,-52.879 47.226,-94.861 102.907,-93.691c12.99,0.273 43.909,8.661 58.034,19.003c12.829,9.394 72.675,31.675 72.675,31.675c0,-0 15.918,3.386 22.078,3.936c13.271,1.186 17.394,7.411 22.716,16.828c1.319,2.335 -1.886,6.006 -4.487,6.679c-3.132,0.811 -11.023,-3.815 -14.307,-1.815c-3.284,1.999 -2.557,10.548 -5.397,13.812c-2.839,3.264 -9.338,8.787 -11.64,5.771c-19.134,-25.07 -50.124,2.146 -55.712,11.787c-8.481,14.63 1.936,41.854 17.031,41.417c2.861,-0.082 5.193,0.339 6.841,1.545l4.077,-0.74c-0.044,-0.119 -0.081,-0.237 -0.112,-0.354c-0.611,-2.318 -1.778,-4.938 -0.312,-7.184c2.82,-4.32 12.009,-14.313 17.23,-18.737c3.303,-2.797 6.434,-10.242 10.339,-11.242c4.167,-1.067 8.235,0.058 10.806,-0.466c2.633,-0.536 7.36,3.281 7.36,3.281c0,-0 3.578,4.655 3.915,7.028c0.688,4.851 0.254,9.541 0.624,14.368c0.062,0.819 0.094,2.283 0.357,3.278c0.479,1.814 2.519,7.606 2.519,7.606c-0,0 2.368,4.885 0.628,5.355Zm-179.064,-125.938c-29.459,-0.507 -53.788,22.93 -54.295,52.305c-0.508,29.376 22.997,53.637 52.456,54.144c29.459,0.507 53.788,-22.93 54.296,-52.305c0.507,-29.376 -22.997,-53.637 -52.457,-54.144Z" style="fill:#b8470b;fill-opacity:0.99;"/></g></g></g><g id="Artboard---Logo---Stages" serif:id="Artboard - Logo - Stages"></g></g></svg>