<?xml version="1.0" encoding="UTF-8" standalone="no"?><!DOCTYPE svg PUBLIC "-//W3C//DTD SVG 1.1//EN" "http://www.w3.org/Graphics/SVG/1.1/DTD/svg11.dtd"><svg width="100%" height="100%" viewBox="0 0 95070 185549" version="1.1" xmlns="http://www.w3.org/2000/svg" xmlns:xlink="http://www.w3.org/1999/xlink" xml:space="preserve" xmlns:serif="http://www.serif.com/" style="fill-rule:evenodd;clip-rule:evenodd;stroke-linejoin:round;stroke-miterlimit:2;"><rect id="Campfire" x="-2.08477e+06" y="-136634" width="3.42249e+06" height="1.24192e+06" style="fill:none;"/><rect id="Flame---Alt---1" serif:id="Flame - Alt - 1" x="0" y="0" width="95069.5" height="185548" style="fill:none;"/><clipPath id="_clip1"><rect x="0" y="0" width="95069.5" height="185548"/></clipPath><g clip-path="url(#_clip1)"><g><path d="M73840.7,138545c3726.8,-9307.91 4491.57,-18191.4 -866.994,-24639.5c-18050.4,-21716.3 -20009.5,-29524.5 -14396,-42000.2c5612.19,-12475.7 -5270.56,-31443.5 -12800.5,-41935.5c-7531.23,-10489.4 2730.39,-29967 2730.39,-29967c0,-0 -13820.2,12615.4 -6212.62,31899c7607.58,19282.3 106.111,27549.8 -4411.33,31356.8c-4517.44,3808.33 -19354.7,18441.2 -12763,32526.6c3700.91,7910.38 943.34,20741.9 -2863.68,26446c-2906.37,-14824.4 -19185.2,-2616.52 -20577.6,-29129.8c-4126.65,14736.4 36.232,22237.8 5141.16,25956.8c37.526,27.18 75.052,55.642 112.578,82.822c4309.11,3192.35 2823.56,19876.2 1370.37,25035.5c-6534.83,23230.3 35733.2,41272.9 35733.2,41272.9c-0,-0 39843,5525.48 51033.8,-66851.9c-8139.43,22091.6 -12354.1,10028.7 -21229.8,19947.4Z" style="fill:#cc7024;"/><path d="M44036.7,185450c-0,-0 -38395,-38668.1 -17685.4,-65950c14678.1,-19336.6 17983.1,-28416.8 13258.6,-39177.9c-4724.49,-10759.8 1272.03,-28729.9 7674.86,-37807.5c6402.83,-9077.59 1911.27,-18696.1 1911.27,-18696.1c-0,0 5163.17,6351.06 -185.043,19233.1c-6859.63,16516.9 3026.72,34186.9 6842.81,37463.3c3818.67,3277.76 14944.7,11258 9328.63,23437.4c-5614.78,12179.4 2260.65,18118.9 7099.01,27473.4c10621.4,20536.2 -28244.7,54024.3 -28244.7,54024.3Z" style="fill:#993c0c;"/><path d="M68897.5,149728c2877.91,-7185.72 3469.28,-14047.9 -669.009,-19027.4c-13940.5,-16771.9 -15453.2,-22802 -11119.6,-32437.3c4334.97,-9635.31 -4069.72,-24285 -9885.06,-32386.9c-5816.65,-8101.89 2107.97,-23144.9 2107.97,-23144.9c-0,0 -10673.1,9742.7 -4796.95,24635.6c5874.88,14892.9 81.528,21277.7 -3407.17,24217.7c-3489.98,2941.31 -14947.3,14242 -9856.59,25120.9c2858.5,6109.09 727.238,16020 -2212.78,20424.9c-2243.84,-11449.5 -14816.6,-2019.98 -15891.9,-22496.6c-3187.19,11380.9 28.463,17173 3970.07,20045.7c29.756,22.006 58.229,42.709 87.985,64.705c3326.95,2466.41 2180.44,15348.4 1058.51,19335.3c-5047.99,17940.4 25753.7,31369.8 25753.7,31369.8c-0,-0 32614.6,4773.66 41257.4,-51125.6c-6286.36,17061.7 -9540.83,7746.03 -16396.6,15404.1Z" style="fill:url(#_Linear2);"/><path d="M44036.7,185450c-0,-0 39614,-25998.3 21498.9,-55706.5c-9543.43,-15651.2 -16686.5,-24653.8 -13042.5,-32751.8c3642.68,-8099.3 -2937.44,-18697.4 -7826.27,-25506.5c2782.16,7620.5 874.765,18637.8 -3985.59,26158.7c-3077.2,4762.01 -9278.17,17738.5 -5000.12,26882.1c4279.34,9143.58 -10130.9,17672.5 -13859,24715.9c-8183.41,15458.4 22214.5,36208.1 22214.5,36208.1Z" style="fill:#60b1cc;"/><path d="M44036.7,185450c-0,-0 27828,-26434.4 18319.5,-37873.5c-9508.49,-11439.2 -10539.8,-15551.6 -7582.98,-22123.9c2955.56,-6571.06 -2776.98,-16563.5 -6743.17,-22089c-3966.18,-5526.79 1437.66,-15785.8 1437.66,-15785.8c-0,0 -7278.89,6644.81 -3271.3,16802.9c4006.3,10156.8 55.652,14511.2 -2324.07,16516.9c-2379.71,2005.73 -10194.3,9714.24 -6722.46,17134.2c3471.87,7419.94 -3198.83,11729 -6224.26,17443.5c-6639.65,12544.3 13111.1,29974.8 13111.1,29974.8Z" style="fill:#1193f5;"/><path d="M65716.8,147763c-2775.67,1096.04 -4917.3,2322.78 -6577.52,3611.62c-245.868,-521.492 -521.492,-1033.92 -850.172,-1536c-6299.32,-9580.96 -14201.9,-18355.7 -7632.16,-29756.1c-10723.6,10916.4 -10695.1,19495.8 -8019.08,25216.7c2471.59,5283.51 2034.22,10988.9 -1103.8,14295.1c-207.038,-1825.87 62.109,-3822.55 851.465,-5785.59c1875.05,-4659.79 1326.38,-11425 -8446.1,-19440.1c6301.91,8625.97 222.579,15982.5 -4450.15,23889c-6736.7,11399.1 14547.4,27192.7 14547.4,27192.7c-0,-0 20080.7,-6811.75 18297.5,-17618.2c-1235.8,-7496.29 -3660.79,-14934.3 3382.58,-20069Z" style="fill:#a0abfa;"/></g></g><defs><linearGradient id="_Linear2" x1="0" y1="0" x2="1" y2="0" gradientUnits="userSpaceOnUse" gradientTransform="matrix(2.28732e-06,-50946.4,50946.4,2.28732e-06,48582.6,185552)"><stop offset="0" style="stop-color:#ffc107;stop-opacity:1"/><stop offset="1" style="stop-color:#ff9700;stop-opacity:1"/></linearGradient></defs></svg>