<?xml version="1.0" encoding="UTF-8" standalone="no"?><!DOCTYPE svg PUBLIC "-//W3C//DTD SVG 1.1//EN" "http://www.w3.org/Graphics/SVG/1.1/DTD/svg11.dtd"><svg width="100%" height="100%" viewBox="0 0 144971 185549" version="1.1" xmlns="http://www.w3.org/2000/svg" xmlns:xlink="http://www.w3.org/1999/xlink" xml:space="preserve" xmlns:serif="http://www.serif.com/" style="fill-rule:evenodd;clip-rule:evenodd;stroke-linejoin:round;stroke-miterlimit:2;"><rect id="Campfire" x="-2.51265e+06" y="-145895" width="3.42249e+06" height="1.24192e+06" style="fill:none;"/><rect id="Flame---2" serif:id="Flame - 2" x="0" y="0" width="144970" height="185548" style="fill:none;"/><clipPath id="_clip1"><rect x="0" y="0" width="144970" height="185548"/></clipPath><g clip-path="url(#_clip1)"><g><path d="M143696,123249c-0,0 -509.823,27606.7 -21289.3,27606.7c-8865.34,0 -8786.4,-9249.68 -1889.27,-21185.8c6847.97,-11849.4 22751.6,-33019.6 11073,-68054.1c-5495.74,-16489.8 -18120.2,-30603.7 -34831.3,-32416.6c10014.4,5321.03 24055.9,56018.4 11123.4,72409.8c-10164.5,12883.3 -26879.5,18886.3 -36469.5,30812c565.465,-1860.81 1375.53,-3765.62 2465.12,-5671.72c7128.79,-12470.5 28638,-22351.7 21874.2,-45200.3c-5189.05,-17523.7 -18500.7,-23301.5 -26576.7,-24209.9c10423.4,5599.24 9879.9,25378.4 -3580.57,42627.8c-8949.5,11468.9 -22776.2,17756.6 -32868.2,27017.9c-4118.9,-3924.78 -6546.5,-7955.66 -10062.3,-14038.9c-7986.72,-13818.9 863.104,-37216.2 7047.24,-41701.3c-4791.78,727.237 -15043,12589.6 -18121.5,26628.4c-4012.77,18302.7 1788.35,28416.8 6015.95,38408c4259.92,10059.8 1420.83,20060 -4054.2,20060c-12831.6,-0 -13146,-23274.3 -13146,-23274.3c-3439.53,28909.8 15714.6,52485.7 35077.1,52485.7l58272.6,0c43572.4,0 55511.1,-28010.5 49940.3,-62303.4Z" style="fill:#cb651e;"/><path d="M135785,137873c0,0 -452.916,21127.6 -18923.8,21127.6c-7880.61,-0 -7810.75,-7079.61 -1679.65,-16211.5c6087.11,-9069.83 20223,-25271 9843.64,-52080.6c-4886.24,-12619.3 -16108,-23420.6 -30962.1,-24806.5c8901.6,4071 21382.5,42867.2 9887.64,55411.5c-9034.88,9859.17 -23892.9,14453 -32416.6,23579.7c500.779,-1423.44 1221.56,-2881.8 2190.78,-4341.46c6336.85,-9542.14 25456.1,-17104.4 19442.8,-34589.3c-4611.94,-13410 -16444.5,-17831.7 -23623.7,-18526.6c9265.23,4284.51 8782.53,19420.7 -3181.99,32621.1c-7955.68,8776.08 -20245,13588.6 -29216.5,20675.9c-3662.11,-3002.14 -5819.24,-6088.39 -8944.33,-10744.3c-7099.01,-10574.8 767.379,-28478.9 6264.38,-31912c-4259.92,556.431 -13372.4,9635.31 -16108,20378.3c-3567.61,14006.5 1589.06,21746.1 5348.2,29391.2c3786.31,7698.15 1261.68,15351 -3605.13,15351c-11404.3,-0 -11683.8,-17809.7 -11683.8,-17809.7c-3057.77,22123.9 13967.7,40165.2 31178.2,40165.2l51798.6,0c38731.5,0 49342.5,-21435.5 44391.5,-47679.7Z" style="fill:#d7812e;"/><path d="M20747.3,147261c0,0 364.893,16967.3 15199.6,16967.3c6327.8,0 6272.16,-5685.94 1348.4,-13020.5c-4888.85,-7282.77 -16242.6,-20294.2 -7905.21,-41826.8c3923.5,-10134.8 12936.4,-18808.7 24866,-19922.8c-7149.48,3270 -12937.7,21257 -3704.8,31330.9c7255.59,7918.13 16308.6,2868.85 33233.2,17741.1c2940.03,-2410.78 4672.72,-4888.83 7183.13,-8628.56c5701.48,-8492.69 -2176.56,-25685.1 -6590.45,-28441.4c3420.08,446.44 12298.4,10550.2 14495.7,19177.5c2864.96,11250.3 -2567.36,21948 -5586.33,28088.1c-3040.97,6182.85 -3171.64,18724.5 13137,18724.5c9160.42,-0 16616.6,-14155.3 16616.6,-14155.3c2456.07,17768.3 -11217.9,32257.5 -25040.7,32257.5l-41599,0c-31105.8,0 -39628.2,-17215.7 -35652.9,-38291.5Z" style="fill:#fde487;"/><path d="M119559,153519c-0,0 -298.904,14194.2 -12492.5,14194.2c-5202.01,-0 -5156.71,-4756.84 -1108.97,-10893.1c4019.23,-6092.27 13350.4,-16976.3 6498.56,-34990.4c-3225.98,-8478.45 -10634.3,-15735.3 -20440.4,-16667c5876.19,2735.57 10634.3,17783.8 3046.14,26210.5c-5964.17,6624.12 -13406.1,2400.42 -27316.9,14842.5c-2418.56,-2018.68 -3841.99,-4090.41 -5905.97,-7218.07c-4685.67,-7105.5 1789.63,-21487.3 5418.1,-23793.2c-2811.92,373.975 -10108.9,8825.25 -11915.4,16043.3c-2355.14,9411.45 2110.57,18360.9 4592.51,23496.9c2498.76,5172.22 2606.18,15664.2 -10798.6,15664.2c-7529.93,-0 -13659.7,-11841.6 -13659.7,-11841.6c-2018.68,14864.5 9221.23,26985.6 20582.8,26985.6l34194.6,0c25568.6,0 32574.5,-14402.5 29305.8,-32033.6Z" style="fill:#fede81;"/><path d="M35989.6,153519c0,0 298.904,14194.2 12492.5,14194.2c5200.7,-0 5155.41,-4756.84 1107.67,-10893.1c-4017.92,-6092.27 -13350.4,-16976.3 -6497.3,-34990.4c3224.72,-8478.45 10633,-15735.3 20439.1,-16667c-5876.19,2735.57 -10634.3,17783.8 -3046.14,26210.5c5965.48,6624.12 16777,-4945.76 32951,4366.04c14949.9,8607.86 -11325.3,29899.8 6493.43,37751.9c6890.7,3035.78 15855.7,-5889.11 16158.5,-13741.3c5436.23,10569.6 -5238.22,25802.9 -16599.8,25802.9l-34194.6,0c-25568.6,0 -32574.5,-14402.5 -29304.5,-32033.6Z" style="fill:#fafcbb;"/><path d="M74322.5,185298c25135.2,3499.04 27938,-30207.7 12445.9,-33814.2c-15358.8,-3575.39 -5339.16,-28310.7 14291.2,-38464.9c-52223,19366.4 -52647.4,68673.9 -26737.2,72279.1Z" style="fill:#fffbfe;"/><path d="M73999,38.607c10448,5711.83 7243.98,12677.6 5293.86,18109.9c-1950.08,5433.6 2601,11387.4 8079.92,6547.76c6250.12,-5521.6 1114.15,-25633.4 -13373.8,-24657.7Z" style="fill:#cb651e;"/><path d="M76360.6,7114.34c7652.87,4183.59 5305.51,9284.64 3876.9,13263.8c-1428.61,3979.12 1904.79,8341.28 5917.57,4795.67c4578.25,-4043.83 816.506,-18773.7 -9794.48,-18059.4Z" style="fill:#d7812e;"/><path d="M82714.2,15576c2166.17,2718.74 514.995,4490.27 -357.153,6923.04c-873.49,2431.47 1163.31,5097.16 3615.51,2929.66c2797.67,-2470.29 227.742,-10639.5 -3258.36,-9852.71Z" style="fill:#fede81;"/><path d="M59287.2,35714.9c-14331.3,7834.03 -9935.54,17389.1 -7260.77,24840.1c2674.73,7452.3 -3567.65,15620.2 -11083.3,8981.82c-8572.92,-7573.93 -1528.24,-35158.7 18344.1,-33821.9Z" style="fill:#cb651e;"/><path d="M56048.3,45420.1c-10495.9,5737.72 -7277.63,12735.8 -5318.46,18194c1959.16,5458.2 -2612.65,11440.5 -8117.43,6577.54c-6278.6,-5546.21 -1119.32,-25751.1 13435.9,-24771.5Z" style="fill:#d7812e;"/><path d="M47333,57027.5c-2971.07,3728.08 -706.525,6159.55 490.433,9494.27c1197,3335.98 -1596.84,6991.62 -4960.01,4020.53c-3838.04,-3390.34 -311.857,-14595.3 4469.58,-13514.8Z" style="fill:#fede81;"/></g></g></svg>