<?xml version="1.0" encoding="UTF-8" standalone="no"?><!DOCTYPE svg PUBLIC "-//W3C//DTD SVG 1.1//EN" "http://www.w3.org/Graphics/SVG/1.1/DTD/svg11.dtd"><svg width="100%" height="100%" viewBox="0 0 147129 185548" version="1.1" xmlns="http://www.w3.org/2000/svg" xmlns:xlink="http://www.w3.org/1999/xlink" xml:space="preserve" xmlns:serif="http://www.serif.com/" style="fill-rule:evenodd;clip-rule:evenodd;stroke-linejoin:round;stroke-miterlimit:2;"><rect id="Campfire" x="-2.93252e+06" y="-157623" width="3.42249e+06" height="1.24192e+06" style="fill:none;"/><rect id="Flame---4" serif:id="Flame - 4" x="0" y="0" width="147129" height="185548" style="fill:none;"/><clipPath id="_clip1"><rect x="0" y="0" width="147129" height="185548"/></clipPath><g clip-path="url(#_clip1)"><g><path d="M144393,103618c-0,0 -4425.58,23522.8 -13764.5,36738.7c-231.651,-4928.93 -1125.8,-9970.45 -2704.51,-14969.3c-1915.17,-6062.51 -5543.64,-13554.9 -9608.16,-19608.3c-6501.17,-9683.19 -9776.35,-21117.2 -9288.52,-32769.9c653.489,-15630.5 -2216.64,-33427.3 -15147.9,-48260.7c4636.5,16255.6 4908.24,26129 2624.3,33467.4c-4620.98,14855.4 -24153,18811.2 -34309.8,7027.85c-51.772,-60.815 -103.505,-121.63 -155.277,-181.143c-20074.2,-23472.3 -12147,-57443.1 3398.12,-65061c-12044.8,1234.51 -31896.5,9097 -39634.7,32942c-10088.2,31088.9 13253.4,51592.8 23883.8,68561.3c10705.4,17088.9 3567.61,34074.3 -10191.8,34074.3c-32254.9,0 -33045.5,-39531.2 -33045.5,-39531.2c-31087.7,85502.7 59411.3,70468.7 77266.3,89501.3c9116.39,-21642.6 77835.6,1801.28 60678.1,-81931.2Z" style="fill:#4f1b0f;"/><path d="M135670,113881c0,-0 -3508.1,26874.3 -12046.1,32150.1c-201.875,-4313 -7528.67,-7185.73 -2481.94,-38725c3866.52,-24167.2 -18361,-49465.4 -29677.2,-62445.8c4056.78,14225.2 4293.57,22865.4 2295.62,29287.7c-4043.83,12999.8 -21136.6,16462.6 -30025.3,6149.19c-45.295,-51.772 -90.591,-104.808 -135.886,-157.883c-17567.7,-20540 -10630.4,-50270.3 2973.68,-56937.1c-10541.1,1081.84 -27913.4,7962.16 -34685.1,28829.6c-8830.4,27206.9 11598.4,45149.8 20901.1,59998.8c9368.77,14955.1 3122.48,29820.8 -8919.72,29820.8c-28226.6,-0 -28918.9,-34594.4 -28918.9,-34594.4c-28569.5,73327.2 64743.9,53526 68764.5,78292.4c16667,-26312.7 70101.2,-12699.6 51955.1,-71668.3Z" style="fill:#bc430c;"/><path d="M83714.5,185549c2365.48,-23394.7 61014.6,1414.37 53130.1,-52646.1c-0,-0 -491.736,25692.9 -20538.8,25692.9c-8550.88,-0 -12988.1,-11039.3 -6334.24,-22145.9c6607.32,-11029 19150.3,-32239.3 12879.4,-52445.6c-4808.6,-15498.5 -20456,-18419.1 -27941.9,-19221.4c53299.6,32952.3 -51975.8,129528 -69086.7,45424.2c-26245.4,56116.7 50010.2,44601.2 57892.1,75342Z" style="fill:#fe7e35;"/><path d="M83714.5,185549c-1262.99,-21460.1 -63497.8,-3226 -39938.8,-64973c0,-0 367.499,31723 15353.6,31723c6393.79,-0 9710.36,-13631.3 4734.87,-27345.3c-4938.01,-13617 -14314.5,-39808.1 -9627.55,-64756.9c3594.78,-19136 15291.5,-22742.5 20888.2,-23733.7c-7221.99,6112.97 -10904.8,33375.5 -1578.71,52212.6c9327.31,18835.8 27435.9,14033.7 31741.1,37578.5c4303.91,23544.8 -18388.1,30100.3 -21572.7,59294.8Z" style="fill:#f99833;"/><path d="M83714.5,185549c-78.942,-11686.3 48639.8,-13086.5 39064,-64627.5c0,0 -6094.85,27738.7 -18265.2,30466.5c-11214,2514.3 -27061.9,-4465.69 -10440.2,-29194.5c7927.21,-11793.8 16715,-35999.8 3438.24,-51068.7c11038,38299.2 -25801.6,24523.1 -34566,69243.3c-3742.32,19090.8 11022.5,23248.5 20769.1,45180.9Z" style="fill:#fcfdb8;"/><path d="M83714.5,185549c-4098.21,-16749.9 -25526,-5588.9 -31983.1,-16760.2c-7454.9,-12893.7 -3975.27,-31199 4640.37,-40601.3c11039.3,-12048.7 25637.2,-3492.58 32834.6,-15507.6c4591.21,-7660.61 3587.04,-16733 2113.14,-23011.6c7091.27,18842.3 8809.74,30628.3 5073.9,36586c-3216.98,5129.5 -15679.7,12619.3 -16434.1,17980.5c-1220.26,8655.73 12583.1,4353.12 14855.4,15116.8c1968.21,9322.15 -11334.4,9447.67 -11100.2,26197.5Z" style="fill:#fbfed3;"/></g></g></svg>