<?xml version="1.0" encoding="UTF-8" standalone="no"?><!DOCTYPE svg PUBLIC "-//W3C//DTD SVG 1.1//EN" "http://www.w3.org/Graphics/SVG/1.1/DTD/svg11.dtd"><svg width="100%" height="100%" viewBox="0 0 126198 185548" version="1.1" xmlns="http://www.w3.org/2000/svg" xmlns:xlink="http://www.w3.org/1999/xlink" xml:space="preserve" xmlns:serif="http://www.serif.com/" style="fill-rule:evenodd;clip-rule:evenodd;stroke-linejoin:round;stroke-miterlimit:2;"><rect id="Campfire" x="-2.06823e+06" y="-366557" width="3.42249e+06" height="1.24192e+06" style="fill:none;"/><rect id="Flame---Alt---2" serif:id="Flame - Alt - 2" x="0" y="-0" width="126197" height="185548" style="fill:none;"/><clipPath id="_clip1"><rect x="0" y="-0" width="126197" height="185548"/></clipPath><g clip-path="url(#_clip1)"><g><path d="M46727,185552c67611.5,0 86135.5,-40444.8 77491.4,-89532.3c0,0 -790.679,39517 -33033.9,39517c-13755.5,0 -20892.1,-16980.2 -10189.2,-34062.7c10627.8,-16963.3 33959.1,-37459.4 23876.1,-68538c-7735.68,-23837.3 -27580.8,-31697.1 -39620.5,-32931.7c15538.6,7615.35 23463.2,41575.8 3395.51,65039c-20067.7,23463.2 -56600.7,30976.4 -65863.3,60305.5c-9261.35,29329.1 4425.54,60203.3 43943.8,60203.3Z" style="fill:#970802;"/><path d="M41200.3,184162c56264.2,-0 74424.6,-20067.7 71544.1,-70287.6c0,0 -658.623,34388.7 -27490.3,34388.7c-11447,-0 -17385.2,-14776.5 -8478.45,-29642.3c8843.35,-14760.9 25630.8,-43153.1 17239,-70197c-6437.78,-20743.3 -27380.3,-24653.8 -37399.9,-25727.8c12931.2,6626.74 19525.6,36179.7 2826.18,56598.1c-16699.4,20418.4 -47101.2,26955.8 -54808.5,52477.9c-7707.21,25523.4 3682.81,52389.9 36567.9,52389.9Z" style="fill:#ed3e00;"/><path d="M37743.9,183391c60541,1851.75 72889.9,-18421.7 70626.6,-59380.2c-0,-0 -10119.2,32931.7 -31902.9,32931.7c-9292.4,-0 -24286.3,-7821.1 -13377.6,-39312.5c4571.78,-13199.1 21610.2,-41164.2 -1578.71,-57450.8c19278.4,41397.2 -38145.3,32341.6 -53454.9,80678.6c-6534.81,20635.8 3002.15,41716.8 29687.5,42533.3Z" style="fill:#f77901;"/><path d="M97256.1,171658c15005.5,-17958.5 17347.7,-44663.3 5968.04,-67509.3c3042.27,17821.3 -1862.1,31017.8 -8953.37,32931.7c-4074.87,1099.93 -11673.4,342.896 -14509.9,-3550.83c-4829.3,-6629.27 4103.34,-18100.8 4619.64,-28301.6c405.054,-8019.06 2234.81,-21087.4 -9749.18,-36153.8c5036.34,21935 -3977.8,34045.8 -10770.2,36979.4c-9755.66,4212.06 -18020.6,-2726.5 -35967.4,3549.53c-15145.3,5296.43 -22663.6,17853.7 -23772.5,19759.8c-1565.76,2690.29 -2872.74,5626.45 -3891.16,8702.33c-2194.64,24891.9 12691.8,47486.9 46496.9,47486.9c18841,0 33866,-3144.51 45558.7,-8737.28c1719.77,-1560.59 3386.47,-3260.93 4970.36,-5156.71Z" style="fill:#ffe93e;"/><path d="M38205.9,185470c41949.7,1283.68 50507.1,-12764.2 48938.7,-41144.8c0,0 -7012.33,22818.8 -22105.8,22818.8c-6439.05,-0 -16828.8,-5419.4 -9270.4,-27239.3c3169.07,-9147.47 14974.5,-28524.2 -1093.45,-39809.4c13358.2,28684.6 -26431.8,22409.9 -37040.2,55903.2c-4527.78,14299 2080.8,28906 20571.1,29471.4Z" style="fill:#fdfc7c;"/><path d="M14001.1,24050.9c19121.8,10453.1 13258.6,23201.9 9688.37,33145.2c-3568.91,9943.28 4760.74,20841.6 14788.1,11982.7c11439.2,-10103.8 2039.41,-46912.3 -24476.5,-45127.9Z" style="fill:#970802;"/><path d="M18323.2,37000.2c14005.2,7656.74 9710.36,16994.4 7096.41,24277.2c-2615.22,7281.5 3486.11,15264.3 10831,8776.1c8377.56,-7400.56 1493.33,-34360.3 -17927.4,-33053.3Z" style="fill:#ed3e00;"/><path d="M29952.6,52488.4c3964.89,4974.23 942.046,8218.33 -654.792,12669.8c-1598.1,4450.15 2129.96,9327.34 6618.93,5362.46c5120.46,-4522.61 415.401,-19473.8 -5964.13,-18032.2Z" style="fill:#ffe93e;"/><path d="M34462.3,185355c19366.4,2695.47 21526.1,-23275.6 9588.73,-26053.9c-11833.8,-2754.98 -4113.69,-21814.7 11010.9,-29638.3c-40237.7,14921.4 -40565.1,52914 -20599.6,55692.2Z" style="fill:url(#_Linear2);"/></g></g><defs><linearGradient id="_Linear2" x1="0" y1="0" x2="1" y2="0" gradientUnits="userSpaceOnUse" gradientTransform="matrix(8.95088e-08,-19936.7,19936.7,8.95088e-08,38275.8,185552)"><stop offset="0" style="stop-color:#fffde6;stop-opacity:1"/><stop offset="1" style="stop-color:#fff9c3;stop-opacity:1"/></linearGradient></defs></svg>