<?xml version="1.0" encoding="UTF-8" standalone="no"?><!DOCTYPE svg PUBLIC "-//W3C//DTD SVG 1.1//EN" "http://www.w3.org/Graphics/SVG/1.1/DTD/svg11.dtd"><svg width="100%" height="100%" viewBox="0 0 43573 18141" version="1.1" xmlns="http://www.w3.org/2000/svg" xmlns:xlink="http://www.w3.org/1999/xlink" xml:space="preserve" xmlns:serif="http://www.serif.com/" style="fill-rule:evenodd;clip-rule:evenodd;stroke-linecap:round;stroke-linejoin:round;stroke-miterlimit:1.5;"><rect id="Children-Sitting---Variations" serif:id="Children Sitting - Variations" x="-3044.27" y="-24668.6" width="72191.5" height="132609" style="fill:none;"/><rect id="Children---v5" serif:id="Children - v5" x="0" y="0" width="43572.4" height="18140.9" style="fill:none;"/><g><g><g><path d="M39990.8,8153.21c-526.045,-63.681 -1121.54,-34.76 -1771.93,67.354c-0,0 15.836,-621.95 8.928,-759.249c-1.423,-28.29 -20.998,-58.216 -48.291,-50.636c-165.089,45.846 -388.994,47.012 -654.903,-60.538c-218.499,-88.375 -421.396,-355.768 -564.739,-544.015c-136.642,-179.445 -261.645,-404.125 -316.047,-611.368c-53.503,-203.821 -29.359,-447.301 -10.362,-632.093c16.792,-163.344 92.041,-335.398 103.622,-507.747c14.68,-218.469 -37.508,-592.477 -46.63,-860.061c-10.362,-303.957 -50.084,-699.447 20.725,-984.407c69.641,-280.264 292.593,-586.949 493.447,-777.164c187.077,-177.169 454.161,-295.655 711.674,-364.127c298.776,-79.443 750.74,-133.258 1110.83,-112.533c360.086,20.724 797.527,146.243 1082.85,243.511c417.941,142.48 701.649,407.258 968.864,704.628c268.999,299.357 390.834,957.007 373.038,1269.37c-16.402,287.901 -43.176,442.12 -62.173,626.912c-9.245,89.928 -56.992,274.598 -56.992,274.598c105.247,81.577 209.764,347.971 212.425,487.023c3.454,180.474 -31.087,361.813 -103.622,512.928c-54.433,113.401 -217.606,278.051 -321.228,336.771c-87.264,49.449 -300.503,15.543 -300.503,15.543c0,-0 -36.52,35.831 -36.52,35.831c-0,0 -197.597,287.208 -299.639,389.063c-91.65,91.482 -226.074,171.633 -312.616,222.068c-82.213,47.913 -144.426,37.523 -186.587,62.947c-20.046,12.089 -63.02,18.728 -70.335,31.419c-10.618,18.42 -0.134,48.963 1.219,66.319c6.025,77.27 33.497,269.903 49.908,468.473c18.419,222.87 25.596,449.183 25.596,449.183Z" style="fill:#724c1c;"/><path d="M36978.6,4954.91l-251.202,-342.813c-0,-0 -166.077,-1054.69 -3.359,-1469.63c162.718,-414.937 533.128,-867.462 974.045,-999.951c284.487,-85.484 668.248,-181.101 1103.62,-179.747c382.633,1.19 814.561,86.714 1124.25,190.11c-270.913,-22.173 -562.281,-47.229 -808.271,-49.18c-411.344,-3.264 -753.461,35.147 -1056.92,163.164c-303.954,128.225 -563.875,328.135 -766.801,606.187c-202.926,278.052 -372.783,705.21 -393.763,1051.76c-12.398,204.789 -4.299,353.892 9.826,523.939c11.82,142.3 32.532,277.195 68.578,506.161Z" style="fill:#82551a;"/><path d="M39928.6,2140.49c-0,-0 -413.306,-88.402 -786.254,-171.47c-186.45,-41.528 -667.361,-37.089 -1065.58,41.046c-309.693,60.765 -425.573,112.328 -613.01,226.751c-185.739,113.385 -380.239,276.2 -511.61,459.782c-131.37,183.583 -226.011,454.438 -276.611,641.714c-42.293,156.528 63.68,1291.48 63.68,1291.48l354.848,446.948c-0,0 103.104,-1377.35 110.04,-1419.88c2.462,-15.097 -11.802,-23.236 -22.162,-23.639c-29.143,-1.134 -134.976,36.048 -152.692,16.837c-23.288,-25.254 -6.812,-87.745 10.906,-147.289c19.863,-66.755 51.535,-124.771 91.095,-224.573c44.672,-112.696 75.911,-191.137 106.264,-198.664c39.456,-9.785 59.272,33.75 73.632,71.71c8.904,23.539 23.323,36.267 23.323,36.267c0,0 20.683,28.05 49.428,25.22c24.854,-2.446 74.533,-23.326 99.13,-36.858c38.384,-21.116 70.727,-51.858 131.18,-89.841c116.164,-72.986 271.31,-247.594 377.139,-353.068c84.353,-84.072 164.953,-212.288 257.835,-279.781c93.358,-67.838 223.707,-112.835 330.806,-127.642c107.1,-14.807 230.528,5.315 311.793,38.801c34.297,14.132 83.793,29.275 114.407,52.243c26.638,19.986 69.273,85.564 69.273,85.564l853.141,-361.657Z" style="fill:#ffddb0;stroke:#000;stroke-width:6.05px;"/><path d="M37006,5299.95c-7.347,-40.31 -7.764,-113.115 -17.643,-188.143c-13.468,-102.283 -24.225,-238.139 -40.411,-368.167c-13.129,-105.467 -32.154,-203.034 -40.588,-308.129c-29.83,-371.693 -25.609,-727.321 153.692,-1151.36c159.618,-377.495 448.164,-741.428 831.917,-939.269c383.753,-197.842 713.809,-234.959 1091.26,-239.823c368.999,-4.754 983.806,-17.328 1345.88,178.81c402.343,217.951 747.646,634.328 911.665,919.332c148.756,258.484 180.785,456.9 204.582,707.52c23.633,248.887 -41.581,494.621 -54.455,650.174c-18.361,221.847 -47.055,359.414 -85.675,565.112c-43.228,230.248 -144.432,503.685 -263.733,792.438c-111.951,270.961 -103.023,267.824 -193.506,457.028c-82.546,172.61 -247.619,380.715 -414.993,525.831c-172.396,149.471 -263.602,186.268 -364.241,229.696c-69.014,29.783 -194.87,58.239 -239.589,30.877c-18.416,-11.268 -43.098,-25.702 -52.732,-41.151c-9.135,-14.649 0.536,-33.361 -14.418,-33.742c-14.31,-0.364 -33.337,14.75 -59.786,28.352c-11.665,5.999 -33.549,11.741 -42.844,20.932c-16.812,16.625 -47.525,33.622 -83.374,45.649c-72.64,24.368 -177.301,17.49 -253.253,19.438c-134.708,3.454 -344.554,-12.244 -510.132,-55.096c-167.782,-43.424 -351.378,-103.361 -496.561,-205.442c-165.795,-116.575 -385.371,-360.42 -487.597,-467.478c-46.696,-48.904 -125.759,-174.871 -125.759,-174.871l-21.467,-58.651c0,-0 -12.324,44.586 -30.972,47.287c-26.327,3.813 -111.051,4.817 -133.943,-7.023c-18.98,-9.816 -19.708,-44.606 -12.969,-64.884c14.075,-42.354 88.176,-121.567 130.151,-224.816c51.608,-126.945 67.949,-181.644 71.11,-276.88c2.619,-78.875 22.127,-258.484 10.462,-399.348c-10.356,-125.068 -40.428,-168.169 -75.38,-229.371c-31.816,-55.712 -61.162,-115.299 -134.33,-137.843c-100.481,-30.959 -159.409,-26.503 -221.151,17.981c-61.78,44.509 -175.526,236.304 -224.936,309.626c-13.812,20.496 -50.701,45.06 -54.283,25.406Z" style="fill:#261807;"/></g><g><path d="M41786.1,15879.4c0,-0 6.385,461.133 13.015,687.303c7.772,265.099 -119.448,575.042 -352.314,678.723c-128.673,57.291 -352.789,137.479 -579.379,177.219c-412.076,72.271 -892.108,85.483 -1244.37,112.923c-482.679,37.599 -938.135,3.212 -1452,-34.973c-648.989,-48.225 -1440.76,-163.646 -2060.78,-358.79l-13.127,-1934.35c0,0 300.108,348.551 438.216,469.955c119.706,105.227 264.144,175.506 410.984,246.537c183.044,88.544 397.146,191.222 680.646,274.78c346.436,102.108 821.805,158.111 1158.46,179.312c667.1,42.013 1444.68,-15.261 1937.23,-135.277c385.297,-93.881 757.322,-201.145 1063.41,-363.367Z" style="fill:#211506;"/><g><path d="M41887.9,15628.9c-4.835,-107.373 -22.695,-269.319 -23.898,-486.958c-0.136,-24.565 -1.717,-125.36 -1.717,-125.36c16.524,-5.508 158.68,-89.423 230.205,-150.405c71.789,-61.206 168.581,-158.785 200.526,-216.834c37.13,-67.47 104.148,-150.804 140.731,-234.215c44.627,-101.754 99.122,-239.471 127.031,-376.306c51.345,-251.731 62.849,-536.943 40.306,-899.867c-58.986,-949.67 -145.062,-1597.27 -257.572,-2206.22c-91.236,-493.805 -191.974,-1046.16 -417.488,-1447.48c-95.015,-169.087 -258.573,-412.433 -435.107,-584.33c-246.798,-240.314 -315.341,-290.041 -504.123,-385.491c-113.427,-57.35 -253.365,-142.047 -412.3,-203.29c-185.436,-71.454 -392.899,-117.689 -555.531,-154.144c-275.076,-61.659 -526.645,-56.591 -844.3,-48.76c-341.15,8.41 -698.177,50.689 -959.225,110.056c-225.517,51.287 -432.887,166.184 -639.96,254.011c-200.066,84.855 -418.101,209.906 -583.874,369.912c-205.576,198.425 -557.926,512.838 -649.58,820.637c-153.233,514.601 -266.686,1513.82 -311.27,2277.33c-53.97,924.232 28.901,3236.97 28.901,3236.97c-0,-0 314.439,436.465 536.324,576.801c283.624,179.386 754.504,404.484 1165.42,499.513c442.058,102.23 624.852,130.224 1283.2,152.596c568.615,19.323 1151.12,-48.936 1509.38,-115.299c411.988,-76.316 993.452,-249.684 1196.98,-383.76c54.872,-36.148 100.786,-67.373 125.478,-117.685c29.422,-59.949 13.827,-109.025 11.468,-161.427Z" style="fill:#2f2f2f;"/><path d="M39008.5,15439.6c-0,0 497.877,-126.969 703.394,-200.368c182.557,-65.199 355.314,-155.377 529.706,-240.025c194.497,-94.405 451.377,-225.343 580.904,-306.513c60.161,-37.701 145.726,-130.64 196.26,-180.509c65.627,-64.764 253.874,-227.968 253.874,-227.968c-0,-0 -201.086,452.98 -378.22,616.55c-191.701,177.02 -486.3,363.95 -771.983,445.574c-314.32,89.805 -786.404,124.717 -1113.93,93.259Z" style="fill:#2b1c08;"/><path d="M41862.5,14973.8c0,-0 112.603,-351.388 129.527,-533.653c22.452,-241.784 26.214,-612.088 5.181,-917.053c-37.994,-550.923 -233.149,-2388.48 -233.149,-2388.48c0,0 14.68,1824.61 20.725,2321.13c2.67,219.377 4.326,438.891 15.543,657.998c12.953,253.01 62.173,860.062 62.173,860.062Z" style="fill:#211506;"/><path d="M36350.6,15218c-0,0 147.043,-76.057 255.603,-188.114c124.252,-128.255 216.08,-301.101 287.375,-417.038c133.587,-217.23 180.691,-421.672 258.542,-698.233c37.19,-132.114 70.278,-268.645 97.918,-404.303c127.8,-627.258 335.734,-2524.23 335.734,-2524.23c0,0 19.259,611.33 14.915,1226.11c-1.117,157.963 -2.09,316.504 -3.608,466.326c-2.688,265.309 -7.082,503.278 -16.997,662.279c-26.987,432.792 -125.54,927.501 -259.582,1284.49c-129.281,344.313 -502.426,638.761 -969.9,592.717Z" style="fill:#231707;"/><path d="M38153.6,8236.61c-255.397,65.292 -521.788,208.731 -707.944,303.736c-144.903,73.952 -260.867,144.616 -408.995,266.297c-118.504,97.346 -282.778,251.693 -382.676,372.014c-0,-0 139.093,-39.207 194.809,-70.463c56.646,-31.777 135.806,-125.451 194.809,-157.505c143.689,-78.062 453.173,-212.77 621.731,-298.431c118.717,-60.331 321.228,-166.486 410.343,-232.113c61.681,-45.424 77.923,-183.535 77.923,-183.535Z" style="fill:#ffddb0;"/></g></g></g><g><g><path d="M32399.6,8432.08c-27.982,-107.015 -43.448,-249.671 -54.49,-359.97c-11.746,-117.339 -2.504,-289.918 -22.623,-363.956c-11.076,-40.76 -65.384,-69.388 -113.336,-56.668c-298.734,79.245 -1124.24,-227.924 -1238.61,-1181.94c0,-0 -165.729,-444.851 -172.936,-664.117c-4.298,-130.793 21.102,-275.703 57.938,-407.754c25.09,-89.944 59.854,-175.377 77.072,-240.627c33.252,-126.012 35.78,-209.499 -19.482,-297.104c-53.748,-85.204 -130.156,-187.424 -144.978,-292.832c-26.696,-189.849 -63.658,-583.424 1.734,-863.853c70.16,-300.881 277.996,-835.265 548.757,-1046.67c208.661,-162.922 431.369,-359.898 745.809,-508.754c293.062,-138.737 613.832,-229.303 884.599,-272.262c269.233,-42.714 863.881,-81.225 1138.24,-20.435c258.297,57.231 432.914,128.686 599.064,202.387c346.756,153.813 518.472,309.295 577.45,437.311c18.79,40.785 -1.691,109.144 36.782,143.989c77.783,70.448 287.175,159.183 459.626,319.021c187.241,173.547 329.32,389.793 399.566,581.13c141.671,385.883 174.43,1047.15 48.523,1513.87c-67.892,251.666 -205.383,648.202 -403.812,953.46c-191.998,295.365 -272.854,361.375 -446.211,503.723c-254.434,208.923 -457.981,468.804 -672.382,775.718c-193.88,277.54 -186.583,1124.05 -186.583,1124.05c39.538,-63.261 -863.094,-108.131 -863.094,-108.131c-0,-0 -324.55,3.568 -483.677,8.306c-260.673,7.762 -519.724,74.931 -752.949,122.107Z" style="fill:#a4612a;"/><path d="M30935.5,4834.81c-55.69,-42.92 -143.195,-134.347 -162.385,-221.253c-32.151,-145.602 -30.521,-652.364 -30.521,-652.364c-0,0 6.309,-191.193 33.026,-302.925c60.667,-253.704 178.577,-538.456 276.42,-680.255c56.448,-81.807 131.591,-192.35 234.332,-289.721c160.265,-151.89 321.417,-266.464 550.964,-412.698c274.804,-175.065 725.393,-330.425 1099.28,-400.788c353.352,-66.5 736.599,-95.223 1144.03,-21.395c390.835,70.82 755.339,275.214 755.339,275.214c-0,0 -332.455,-104.18 -706.434,-131.687c-316.031,-23.245 -637.568,19.17 -662.588,22.336c-451.051,57.074 -703.642,153.368 -890.218,230.25c-118.095,48.664 -657.885,392.488 -824.481,573.022c-118.034,127.91 -264.748,334.378 -383.197,622.016c-46.981,114.088 -96.279,341.891 -109.219,536.029c-7.771,116.585 7.747,192.198 16.202,304.643c15.474,205.775 63.758,480.613 63.758,480.613c0,0 -91.737,142.257 -164.87,150.214c-73.132,7.957 -176.891,-33.045 -239.44,-81.251Z" style="fill:#ffddb0;stroke:#000;stroke-width:6.05px;"/><path d="M30970.6,6469.55c13.612,-390.325 122.282,-817.172 198.549,-1058.32c15.778,-49.89 32.476,-145.815 25.684,-201.8c-7.359,-60.662 -29.028,-83.258 -53.199,-131.4c-23.913,-47.629 -37.517,-135.958 -55.383,-169.367c-9.497,-17.76 -39.287,-14.754 -58.602,-22.937c-21.158,-8.965 -44.705,-11.849 -68.351,-30.852c-57.033,-45.837 -138.541,-139.773 -138.541,-139.773c0,0 67.758,106.989 104.88,167.657c38.136,62.324 26.38,149.599 14.186,233.501c-7.886,54.25 -44.765,123.476 -69.206,205.286c-42.473,142.169 -77.558,314.111 -74.507,452.362c4.903,222.153 174.49,695.646 174.49,695.646Z" style="fill:#d9a35e;"/><path d="M33479.3,5386.58c135.89,182.405 364.473,363.644 504.846,459.252c81.263,55.349 239.289,120.939 337.393,114.399c99.477,-6.632 220.507,-24.593 311.695,-75.437c91.187,-50.844 176.913,-146.897 235.429,-229.626c80.134,-113.293 245.377,-487.438 245.377,-487.438c-0,0 -68.483,479.875 -107.197,623.235c-22.259,82.424 -78.649,164.111 -125.088,236.921c-58.259,91.34 -131.987,124.27 -131.987,124.27c-82.67,-33.452 -179.445,-54.51 -319.865,-42.55c-57.07,4.86 -155.691,32.708 -228.318,78.499c-71.414,45.026 -142.002,107.032 -142.002,107.032c-253.355,-297.858 -433.068,-601.854 -580.283,-908.557Z" style="fill:#35220a;"/><path d="M31066.5,3972.98c4.143,18.258 25.827,68.033 47.061,163.046c18.813,84.179 43.027,253.544 70.206,349.328c31.064,109.472 78.435,260.719 116.174,307.507c12.601,15.623 35.058,-44.528 29.553,-68.906c-44.77,-198.263 -99.693,-607.786 -61.914,-884.414c37.778,-276.627 125.39,-483.092 288.587,-775.351c156.28,-279.871 404.6,-443.01 754.368,-666.03c318,-202.765 611.733,-283.543 954.876,-349.466c233.276,-44.815 373.923,-63.949 710.219,-58.504c235.277,3.809 449.671,35.934 569.254,63.686c232.698,54.001 402.046,96.85 510.032,203.794c40.91,40.516 123.808,105.058 156.519,159.786c47.795,79.967 40.187,148.389 65.279,168c35.822,27.998 56.477,72.492 92.482,100.255c88.102,67.931 234.392,106.391 436.128,307.336c158.061,157.442 276.582,367.922 329.639,499.62c126.106,313.023 160.218,585.224 163.457,861.55c3.111,265.467 -42.678,555.016 -115.014,808.836c-71.452,250.717 -143.588,532.426 -269.266,737.294c-67.707,110.371 -228.5,294.885 -309.61,394.76c-61.011,75.125 -157.734,149.089 -193.632,187.907c-11.312,12.232 -21.754,44.999 -21.754,44.999c-0,0 223.487,73.365 316.654,139.854c93.167,66.489 200.078,206.741 242.35,259.08c151.938,188.121 205.107,403.835 250.283,623.038c50.75,246.242 65.827,656.494 54.213,854.412c-6.759,115.177 -39.953,261.994 -74.16,316.516c-23.297,37.134 -103.662,48.97 -131.082,14.767c-79.055,-98.614 -343.247,-606.448 -343.247,-606.448c-0,0 -30.742,258.891 -119.839,574.303c-68.099,241.076 -180.836,538.935 -209.827,644.613c-22.304,81.3 -84.217,237.965 -92.524,321.858c-9.153,92.439 75.633,224.63 75.633,224.63c-36.177,-10.89 -77.933,-16.474 -108.112,-24.121c-58.618,-14.852 -99.924,-29.958 -156.567,-54.082c-387.259,-164.933 -599.773,-404.861 -703.207,-713.335c-11.277,-33.63 -0.533,-98.947 10.742,-148.742c8.453,-37.326 27.011,-65.562 17.204,-65.93c-9.807,-0.369 -62.181,32.528 -76.044,63.72c-7.414,16.682 12.774,246.431 -49.66,233.405c-14.914,-3.112 -36.045,-20.839 -60.248,-47.412c-67.469,-74.075 -158.81,-216.887 -205.882,-303.429c-72.487,-133.269 -141.433,-289.237 -168.44,-459.283c-28.795,-181.309 -45.038,-417.958 -4.332,-628.57c61.351,-317.426 219.056,-569.652 219.056,-569.652c0,0 -128.548,92.106 -305.717,146.209c-173.59,53.01 -394.519,68.046 -523.258,67.511c-254.745,-1.057 -598.585,-95.329 -760.845,-220.196c-142.715,-109.827 -238.142,-195.102 -340.634,-323.74c-105.781,-132.766 -244.559,-307.234 -269.181,-418.971c-7.085,-32.151 48.398,-50.986 69.891,-81.716c28.506,-40.76 28.685,-96.152 51.557,-169.736c49.779,-160.15 73.422,-345.877 59.89,-498.253c-13.032,-146.756 -40.579,-277.716 -141.078,-415.999c-73.026,-100.484 -172.96,-112.036 -238.851,-110.754c-65.408,1.273 -124.388,71.347 -156.491,118.445c-40.267,59.077 -83.498,260.129 -83.498,260.129c-0,-0 -184.138,-243.377 -233.445,-345.554c-62.735,-130.002 -138.389,-365.744 -147.107,-484.199c-17.232,-234.157 1.403,-561.55 1.403,-561.55l11.756,-165.851Zm0,0c-1.061,-4.676 -0.972,-7.285 0.571,-8.056l-0.571,8.056Zm3816.4,2938.76c-0,-0 98.227,-126.561 103.622,-202.063c6.982,-97.723 5.083,-264.985 -61.728,-384.274c-37.624,-67.178 -101.205,-135.712 -182.671,-174.029c-59.456,-27.964 -134.786,-34.278 -185.13,-39.677c-229.908,-24.655 -417.306,88.343 -534.156,224.941c-115.128,134.587 -160.295,270.927 -150.251,450.755c4.784,85.663 39.288,157.049 93.939,239.633c45.888,69.341 113.305,133.406 113.305,133.406c-0,0 55.251,-82.448 113.31,-145.689c58.076,-63.26 118.967,-107.317 171.65,-134.09c105.349,-53.538 219.333,-51.811 347.134,-41.449c61.706,5.004 170.976,72.536 170.976,72.536Z" style="fill:#492a00;"/></g><g><g><path d="M36115,15255.3c335.8,-45.776 514.934,-250.737 615.255,-493.823c140.321,-340.01 216.983,-1025.4 226.673,-1546.23c10.794,-580.175 -79.605,-1392.42 -161.909,-1934.82c-68.044,-448.421 -198.339,-983.598 -331.914,-1319.56c-103.417,-260.11 -310.132,-475.408 -461.247,-658.906c-126.246,-153.298 -470.314,-408.917 -470.314,-408.917c-0,-0 -426.8,-248.596 -896.134,-401.52c-428.777,-139.709 -902.529,-184.827 -926.272,-187.037c-162.719,-15.142 -332.818,-13.523 -497.134,-8.72c-251.76,7.359 -497.352,33.085 -739.962,102.676c-512.712,147.068 -959.683,339.884 -1368.13,655.733c-233.955,180.914 -424.658,329.149 -596.836,656.483c-109.467,208.112 -260.272,488.484 -334.143,760.222c-54.766,201.462 -164.215,504.972 -252.994,800.902c-109.289,364.296 -184.865,891.817 -265.621,1326.18c-79.122,425.57 -222.965,914.357 -218.918,1280c2.184,197.292 -1.69,447.676 40.244,646.009c27.266,128.962 68.272,294.782 154.894,367.028c112.167,93.553 333.389,206.413 518.109,194.291c288.667,-18.943 580.907,-33.955 580.907,-33.955c0,0 -7.606,213.154 24.555,293.796c43.962,110.233 100.488,218.077 169.886,293.504c66.211,71.962 157.647,118.225 246.503,159.056c294.869,135.496 881.611,345.668 1614.39,429.822c618.002,70.973 1162.75,66.827 1719.11,-41.24c304.025,-59.053 767.344,-145.816 1117.74,-293.151c290.832,-122.289 501.351,-314.009 501.351,-314.009l-8.095,-323.818Z" style="fill:#3f290e;"/><path d="M30428.6,10343.7c-2.96,-60.216 8.728,-114.436 46.52,-179.894c62.895,-108.94 -31.905,-381.026 70.689,-524.568c76.546,-107.097 172.568,-252.778 328.874,-397.424c169.051,-156.44 367.428,-312.25 571.294,-421.931c107.854,-58.025 362.423,-179.574 521.016,-245.802c156.884,-65.514 430.542,-151.565 430.542,-151.565c-0,-0 333.929,589.832 603.939,621.363c5.716,0.667 11.408,1.371 17.081,2.109c-90.988,56.133 -123.825,72.732 -274.971,142.45c-149.849,69.121 -89.126,135.168 -297.565,318.606c-59.596,52.449 -49.229,58.125 -113.495,108.747c-146.669,115.532 -270.718,203.359 -284.578,262.855c-19.545,83.908 -57.802,77.474 -34.683,174.126c64.32,268.894 55.995,275.884 38.016,290.979c-11.013,9.247 -387.412,120.622 -715,92.062c-119.005,-10.375 -119.71,99.412 -163.133,44.286c-85.4,-108.417 -6.803,-223.249 -277.521,-246.851c-266.177,-23.206 -360.419,54.758 -467.025,110.452Z" style="fill:#30151c;stroke:#000;stroke-width:6.05px;"/><path d="M36098.1,15268c0,0 121.793,24.008 153.361,-16.579c38.685,-49.739 93.74,-130.453 91.187,-227.969c-12.781,-488.258 -108.222,-1716.54 -167.876,-2701.58c-44.112,-728.409 -72.527,-1302.37 -72.527,-1302.37c0,0 -50.536,880.087 -50.935,1289.04c-0.691,708.083 46.79,2959.45 46.79,2959.45Z" style="fill:#39250b;"/><path d="M30581.3,15015.1l174.085,33.159c65.778,-2.297 148.254,-14.316 204.722,-54.876c84.564,-60.742 150.102,-148.995 201.476,-235.266c60.331,-101.311 135.693,-281.775 160.508,-372.603c111.172,-406.923 134.437,-735.943 197.019,-1149.76c89.114,-589.263 150.168,-1401.66 173.017,-2079.53c0,0 -274.123,1804.03 -362.547,2319.38c-46.328,270.002 -120.263,588.144 -197.011,797.572c-64.849,176.958 -163.308,334.649 -263.476,458.995c-84.878,105.366 -287.793,282.938 -287.793,282.938Z" style="fill:#3a260c;"/></g><path d="M30054.2,15072c-106.374,133.333 -224.519,291.21 -252.008,440.782c-29.36,159.75 -67.426,361.434 -90.669,543.691c-30.601,239.95 -92.936,896.006 -92.936,896.006c-0,0 40.201,47.198 160.24,56.162c89.313,6.669 245.952,-30.956 339.94,-1.763c86.283,26.799 214.696,124.481 304.88,159.971c303.217,119.324 574.692,202.966 791.724,245.708c524.129,103.222 1209.33,185.788 1928.48,191.638c1023.53,8.326 1556.18,-56.721 1994.87,-101.224c218.376,-22.154 473.207,-98.441 637.275,-165.795c129.843,-53.304 347.134,-238.331 347.134,-238.331l10.362,-176.157l-18.445,-1338.38c-197.962,126.535 -401.522,246.527 -629.522,330.986c-246.301,91.238 -578.079,165.253 -848.284,216.441c-556.104,105.349 -1224.4,148.777 -1867.29,66.685c-337.364,-43.08 -693.41,-119.169 -1007.99,-211.274c-261.949,-76.695 -474.063,-150.55 -703.634,-281.345c-133.272,-75.93 -234.562,-253.127 -282.919,-366.248c-40.144,-93.908 -10.777,-309.001 -10.777,-309.001l-710.432,41.449Z" style="fill:#090d18;fill-opacity:0.94;"/></g></g><g><g><g><path d="M24060.8,15461.4c-8.898,-41.754 -24.551,-91.792 -17.236,-157.947c5.519,-49.922 11.676,-107.697 13.882,-131.862c3.263,-35.746 29.837,-135.544 29.837,-135.544c0,-0 -176.113,-19.671 -253.05,-35.587c-70.835,-14.654 -208.57,-59.91 -208.57,-59.91c-184.624,158.019 -314.451,344.039 -395.814,505.538c-78.399,155.615 -119.504,327.325 -167.299,496.087c-97.397,343.906 -30.025,1102.74 -30.025,1102.74c0,0 317.699,0.612 417.964,6.257c75.382,4.244 125.413,-12.012 225.466,21.637c62.307,20.955 109.596,63.151 157.197,77.029c273.857,79.84 838.767,312.122 1275.42,356.467c313.034,31.791 814.855,93.093 1320.99,110.106c630.917,21.209 1273.5,-8.193 1623.07,-38.056c317.849,-27.153 602.851,-60.765 846.481,-134.107c223.388,-67.248 508.559,-146.862 639.203,-285.024c119.862,-126.759 150.743,-351.282 162.591,-529.004c16.169,-242.538 -59.821,-1080.3 -59.821,-1080.3c0,-0 -53.77,120.847 -132.937,214.609c-52.148,61.764 -106.287,90.088 -173.922,120.24c-215.696,96.16 -527.825,223.263 -1087.93,338.222c-439.308,90.165 -649.644,97.458 -1036.64,107.912c-395.372,10.68 -915.784,-20.768 -1277.81,-66.035c-301.163,-37.657 -573.528,-101.648 -881.404,-201.26c-172.18,-55.708 -332.972,-122.08 -545.22,-222.698c-133.187,-63.139 -283.654,-167.618 -357.724,-230.87c-43.619,-37.248 -71.083,-75.378 -86.695,-148.641Z" style="fill:#291905;stroke:#000;stroke-width:6.05px;"/><g><path d="M25873.2,8225.4c-0,0 -317.791,67.351 -499.487,142.726c-242.768,100.709 -520.493,205.225 -917.215,458.658c-160.595,102.591 -359.491,297.735 -524.656,487.29c-150.829,173.101 -272.767,337.984 -327.13,495.375c-63.642,184.255 -143.917,336.024 -193.927,581.14l-117.787,4122.5c2.032,100.825 135.062,304.11 197.17,364.402c34.209,33.209 75.636,60.507 119.542,79.577c52.461,22.787 113.617,44.403 195.229,57.142c128.086,19.993 255.187,21.78 263.209,36.32c0,-0 -40.273,204.443 -39.592,324.768c0.016,2.74 -1.373,126.365 39.002,182.431c53.376,74.121 104.014,96.774 173.48,141.776c62.887,40.74 118.679,88.495 211.342,139.618c76.564,42.242 180.165,84.919 317.223,144.356c244.193,105.898 540.926,180.612 713.649,225.325c363.184,94.019 678.956,116.356 1053.91,134.982c271.941,13.509 503.679,12.885 751.136,8.586c190.474,-3.31 365.162,-13.615 553.592,-36.563c228.994,-27.889 425.632,-77.567 598.019,-113.975c333.707,-70.477 603.821,-160.265 850.629,-272.325c189.022,-85.823 275.403,-151.534 349.683,-350.818l-63.403,-626.424c0,0 128.558,-73.526 252.731,-198.114c130.663,-131.1 258.474,-316.734 309.415,-449.847c110.759,-289.425 85.136,-812.63 83.729,-1032.55c-0.635,-99.393 -36.726,-201.411 -13.293,-262.059c26.646,-68.965 132.319,-148.485 130.979,-213.162c-8.919,-430.364 -103.483,-1870.35 -165.81,-2365.29c-25.772,-204.653 -92.294,-342.089 -174.537,-533.359c-141.083,-328.11 -374.954,-606.942 -570.01,-816.847c-254.738,-274.13 -653.334,-442.916 -949.315,-590.834c-227.599,-113.743 -778.136,-277.213 -778.136,-277.213c-596.38,-38.774 -1207.49,-30.421 -1829.37,12.41Z" style="fill:#432b0d;fill-opacity:0.99;stroke:#000;stroke-width:6.05px;"/><path d="M29414.3,13115.7c238.982,6.744 565.668,-13.947 785.524,-96.458c27.253,289.945 35.957,580.563 15.557,869.837c-21.382,303.204 -73.39,451.261 -181.296,612.638c-74.207,110.978 -180.815,232.431 -260.5,304.213c-63.885,57.55 -198.023,147.29 -198.023,147.29c-0,0 -98.943,-510.992 -110.041,-758.598c-13.728,-306.253 -51.221,-1078.92 -51.221,-1078.92Z" style="fill:#94562d;stroke:#000;stroke-width:6.05px;"/><path d="M29513.7,13099c-0,0 -1.558,-603.753 -10.704,-870.963c-6.228,-181.932 -7.263,-538.427 -22.123,-845.853c-17.638,-364.9 -48.889,-670.445 -48.889,-670.445c0,-0 -27.271,303.074 -39.848,667.931c-10.29,298.522 -6,647.886 -8.548,827.127c-3.956,278.347 14.431,894.809 14.431,894.809l115.681,-2.606Z" style="fill:#3a250b;stroke:#000;stroke-width:6.05px;"/><path d="M24300.3,13171.5l197.125,-2384.82l-90.718,2384.11l-106.407,0.706Z" style="fill:#3c270c;stroke:#000;stroke-width:6.05px;"/><path d="M24411,13176.3l-955.951,-0.923l-93.091,1489.98c73.913,270.716 327.71,365.042 710.434,376.755c0,-0 164.868,-490.7 206.248,-678.714c34.36,-156.121 56.948,-305.589 73.571,-454.678c22.06,-197.85 58.789,-732.421 58.789,-732.421Z" style="fill:#94562d;stroke:#000;stroke-width:6.05px;"/></g></g><path d="M23988.2,10240.7c-10.1,-158.124 -20.735,-317.859 -26.193,-462.363c-5.505,-145.746 -79.728,-257.967 -32.826,-380.949c44.873,-117.66 262.173,-179.776 313.175,-326.339c75.163,-215.995 530.725,-431.486 530.725,-431.486l359.764,-172.517c0,-0 315.202,-19.264 353.456,-8.034c71.642,21.03 31.927,-118.137 79.357,-147.701c63.394,-39.515 301.004,-89.386 301.004,-89.386c0,-0 -25.521,44.194 -56.373,71.634l-160.599,142.837c-27.186,24.179 13.268,59.944 -104.42,128.826c-78.789,46.114 -384.353,85.768 -462.422,97.489c53.733,60.414 180.3,14.173 164.132,151.466c-16.049,136.28 -92.975,141.159 -297.701,179.791c-79.695,15.039 -99.18,4.91 -118.044,6.93c-38.461,4.119 -14.775,21.138 7.316,52.328c37.7,53.225 26.629,94.27 229.63,96.481c48.937,0.532 46.343,-13.262 94.311,-15.239c116.949,-4.821 97.475,-50.442 222.06,-128.86c45.72,-28.777 10.648,143.915 8.158,156.176c-51.773,100.254 -51.292,99.41 -121.644,186.637c-157.973,195.862 -218.366,136.137 -362.022,96.446c-141.873,-39.198 -300.485,-200.419 -407.116,-138.01c-8.67,5.075 -5.027,8.88 -14.6,12.985c-12.586,5.399 -26.838,33.677 -29.805,36.315c-100.788,89.64 -111.388,227.118 -140.079,265.137c-8.942,11.85 -114.479,254.121 -118.986,259.451c-26.159,30.933 -132.105,259.158 -210.258,359.955Z" style="fill:#681714;stroke:#000;stroke-width:6.05px;"/><path d="M28056.9,16192.6c-131.005,35.079 -275.905,127.401 -407.586,140.099c-148.805,14.349 -487.896,23.426 -680.826,21.361c-147.545,-1.58 -445.817,-11.776 -445.817,-11.776c0,-0 -206.119,-11.45 -294.693,-17.753c-76.705,-5.458 -153.791,-11.794 -230.392,-21.51c-87.285,-11.072 -197.803,-26.55 -293.319,-44.918c-93.811,-18.04 -187.135,-40.023 -279.776,-65.289c-129.243,-35.248 -340.932,-90.114 -495.681,-146.2c-130.779,-47.4 -220.215,-91.69 -220.215,-91.69c-0,-0 106.152,-248.25 190.092,-449.237c79.026,-189.224 54.662,-204.169 312.01,-666.319c176.975,-317.813 261.978,-480.422 -50.596,-555.266c-18.21,-4.36 -261.026,10.794 -312.011,-80.766c-130.78,-234.857 51.896,-308.31 92.76,-343.255c300.576,-257.038 506.564,180.047 657.753,-242.298c132.843,-371.097 177.863,-347.899 244.549,-747.085c18.427,-110.309 223.667,-147.588 269.847,-424.021c19.457,-116.469 356.616,5.846 404.771,121.149c17.089,40.919 251.25,183.105 404.77,60.574c313.213,-249.987 397.099,351.986 312.011,504.788c-8.996,16.156 16.027,22.533 -59.029,232.202c-28.46,79.504 -86.502,426.946 -92.76,464.404c-3.599,21.544 -77.728,465.282 67.462,262.489c62.713,-87.595 687.775,-718.683 809.541,-767.276c809.542,-323.064 826.125,-332.991 893.869,-373.543c125.689,-75.238 419.308,360.006 177.087,585.553c-171.115,159.337 -159.384,167.963 -320.443,343.255c-149.419,162.624 -675.733,445.642 -1003.49,494.692c-185.613,27.777 -737.312,629.003 -775.811,767.276c-11.011,39.548 -30.432,24.363 -252.982,424.021c-43.474,78.072 -19.454,82.543 6.686,141.25l220.998,20.282c379.247,201.795 539.219,-259.882 860.138,252.394c49.146,78.45 188.346,134.8 291.087,212.413Z" style="fill:#13363a;stroke:#000;stroke-width:6.05px;"/><g><path d="M27562.4,1685.31c-118.736,-52.764 -191.575,-57.716 -448.077,-42.297c-174.479,10.488 -319.668,52.045 -450.558,79.235c-78.524,16.312 -572.7,-20.807 -911.529,103.277c-317.199,116.162 -512.319,417.826 -687.123,434.836c-197.351,19.205 -374.072,-39.648 -495.027,3.894c-99.021,35.646 -147.394,172.09 -182.889,257.359c-35.495,85.269 -50.923,232.046 -33.07,287.127c17.852,55.081 208.321,143.771 208.321,143.771c-0,-0 -137.371,114.237 -253.528,276.956c-108.556,152.072 -195.254,348.002 -226.179,490.696c-54.662,252.223 -76.362,550.867 -45.627,719.662c20.357,111.798 234.822,333.748 234.822,333.748l115.459,332.438c0,0 -185.191,91.221 -254.826,225.962c-69.635,134.74 -75.2,347.363 -41.055,582.482c24.037,165.516 142.13,335.465 205.682,403.008c98.636,104.829 177.957,138.951 265.036,186.437c79.92,43.582 226.878,58.581 226.878,58.581c-0,0 86.878,124.807 120.499,169.359c64.166,85.029 155.219,211.871 306.942,362.036c163.827,162.144 697.537,410.006 697.537,410.006l-38.083,721.318c652.227,-47.562 1264.04,-54.716 1826.62,-12.625l-7.643,-887.844c0,0 352.012,-252.359 486.671,-373.144c119.846,-107.498 321.287,-351.566 321.287,-351.566c-0,0 177.74,43.316 344.978,-9.431c154.221,-48.642 273.118,-143.031 369.39,-237.771c92.843,-91.365 164.943,-193.384 208.245,-330.669c35.391,-112.201 62.456,-197.735 61.304,-299.696c-1.271,-112.461 -16.38,-279.991 -68.93,-375.067c-50.703,-91.735 -246.37,-195.389 -246.37,-195.389c-0,0 68.127,-144.129 104.358,-339.182c41.189,-221.741 72.851,-440.769 57.613,-654.538c-5.738,-80.501 -17.579,-216.98 -43.468,-321.523c-42.859,-173.072 -105.573,-306.556 -105.573,-306.556c-0,-0 123.09,-11.508 165.51,-49.393c44.26,-39.53 60.393,-189.224 22.019,-265.823c-70.045,-139.817 -176.266,-304.406 -426.989,-568.487c-164.621,-173.392 -378.665,-283.564 -529.925,-370.066c-122.072,-69.81 -260.969,-125.951 -392.938,-153.538c-82.686,-17.285 -153.745,-12.048 -185.035,-37.202c-56.733,-45.609 85.89,-118.779 72.235,-187.294c-1.981,-9.935 -13.888,-48.167 -28.593,-68.105c-20.633,-27.975 -48.255,-39.203 -74.682,-54.653c-45.335,-26.504 -116.51,-9.303 -168.733,-36.264c-38.363,-19.806 -49.419,-42.717 -74.953,-54.065Z" style="fill:#94562d;stroke:#000;stroke-width:6.05px;"/><path d="M27568.9,2122.32c-15.647,-48.628 139.857,-50.5 180.408,-75.749c48.957,-30.485 125.974,-109.275 122.151,-150.245c-3.822,-40.97 -83.829,-82.554 -141.169,-90.681c-92.716,-13.14 -313.209,-20.328 -421.983,-10.684c-78.006,6.917 -161.101,37.563 -230.659,68.551c-85.85,38.247 -149.382,95.383 -241.097,107.819c-122.027,16.545 -355.447,-18.686 -562.741,24.999c-237.479,50.046 -380.079,93.466 -519.806,172.454c-179.876,101.685 -397.434,274.462 -515.379,368.124c-50.501,40.103 -85.073,115.359 -120.808,144.884c-25.444,21.021 -27.443,37.623 -93.608,32.267c-60.524,-4.899 -129.407,-45.36 -207.552,-57.555c-108.072,-16.865 -223.135,-4.691 -261.905,5.466c-28.804,7.546 -166.647,35.226 -172.928,92.059c-6.214,56.227 49.737,71.568 100.376,103.463c33.118,20.859 155.132,12.648 228.688,40.722c66.204,25.268 114.191,63.52 138.187,88.795c14.91,15.704 7.657,30.75 0.019,40.403c-29.714,37.552 -96.119,102.038 -159.852,186.925c-103.923,138.417 -216.987,322.955 -273.031,473.039c-44.758,119.859 -95.072,302.952 -115.744,471.09c-21.381,173.896 -30.753,270.407 -10.393,378.892c15.41,82.107 59.688,288.956 92.889,393.487c27.705,87.226 145.168,271.264 211.036,421.139c14.81,33.696 61.296,75.553 94.958,176.899c35.721,107.542 59.171,276.045 92.74,356.941c110.983,267.457 114.297,282.361 202.474,404.772c128.101,177.835 338.202,483.878 566.132,662.24c160.81,125.84 533.747,323.582 672.093,395.305c46.014,23.855 123.441,72.148 154.154,46.508c30.713,-25.64 16.337,-167.752 30.123,-200.346c6.858,-16.214 38.302,-5.493 52.597,4.782c38.252,27.493 85.51,145.639 155.878,185.045c79.692,44.627 211.672,90.941 322.274,82.72c64.754,-4.813 164.335,-15.938 240.097,-66.79c114.912,-77.129 197.412,-203.366 197.412,-203.366c0,-0 9.165,-71.324 21.517,-83.677c12.352,-12.352 42.597,-5.186 52.597,9.563c15.938,23.51 23.098,128.932 71.722,144.88c25.197,8.265 101.903,9.147 139.757,1.338c31.841,-6.57 61.826,-26.892 87.366,-48.196c43.594,-36.366 147.772,-95.978 213.266,-148.982c82.322,-66.622 206.19,-176.493 280.665,-250.753c107.547,-107.238 203.372,-201.896 297.963,-347.789c109.648,-169.115 269.831,-563.174 301.848,-628.312c3.598,-7.32 183.88,-506.011 250.821,-765.807c66.524,-258.178 157.073,-476.16 167.831,-716.272c9.893,-220.801 -43.512,-508.674 -68.854,-655.546c-9.36,-54.249 -81.684,-156.675 -92.761,-204.649c-4.828,-20.908 -10.041,-54.589 9.085,-64.072c19.126,-9.484 71.282,15.159 105.671,7.172c36.119,-8.389 96.193,-20.924 111.039,-57.505c26.423,-65.104 0.457,-114.225 -17.799,-167.227c-21.73,-63.086 -55.33,-131.753 -112.579,-211.292c-115.57,-160.567 -292.875,-343.641 -422.951,-458.12c-181.615,-159.839 -379.331,-251.43 -564.591,-323.289c-166.037,-64.402 -399.785,-107.873 -546.965,-107.86c-30.234,0.002 -84.75,20.446 -90.679,2.021Z" style="fill:#31200a;stroke:#000;stroke-width:6.05px;"/></g></g></g><g><g><path d="M16763.7,8921.91c-59.48,52.739 -80.459,77.177 -116.55,119.538c-125.032,146.751 -340.654,452.337 -447.314,799.116c-68.447,222.539 -206.754,658.578 -283.76,1126.53c-115.19,699.989 -156.885,1163.94 -185.347,1436.23c-6.663,63.747 -7.803,158.932 14.575,197.499c21.285,36.681 60.414,71.139 60.414,71.139c-0,0 -30.047,724.47 -24.489,1170.47c2.352,188.689 73.231,450.031 189.379,661.404c112.339,204.442 270.11,362.138 270.11,362.138c165.444,89.408 340.125,151.104 525.97,179.308c0,0 -103.241,326.938 -110.214,425.558c-5.434,76.853 -1.862,136.359 68.376,166.158c-0,0 -75.627,131.668 -127.684,288.929c-43.988,132.884 -64.582,285.135 -75.532,380.487c-22.164,193.01 -53.115,411.412 19.604,579.762c72.72,168.351 232.479,344.758 412.887,430.339c227.84,108.083 620.539,213.912 946.506,227.721c368.27,15.602 1240.01,81.073 2030.56,69.416c849.91,-12.533 1206.38,-45.454 1588.95,-89.498c233.801,-26.917 523.659,-70.07 714.123,-159.465c70.605,-33.138 180.85,-70.653 256.767,-141.46c107.948,-100.68 153.632,-140.004 171.899,-235.445c11.661,-60.931 30.305,-158.94 34.693,-285.974c8.265,-239.306 18.147,-356.791 -10.547,-523.302c-28.038,-162.711 -104.795,-336.979 -113.8,-445.162c-5.641,-67.767 47.024,-127.054 46.381,-161.855c-1.993,-107.704 -62.16,-470.982 -62.16,-470.982c-0,0 312.533,-97.264 451.497,-169.984c138.963,-72.719 281.003,-150.029 371.068,-280.973c110.175,-160.182 227.619,-412.479 256.93,-655.635c35.364,-293.368 -17.646,-932.881 -22.057,-1239.11c-3.524,-244.67 -7.071,-411.8 -17.795,-617.409c-11.237,-215.448 -35.816,-506.533 -49.625,-675.282c-28.943,-353.696 -143.446,-1054.93 -143.446,-1054.93c-0,0 -78.208,-311.686 -200.247,-602.397c-89.576,-213.382 -219.308,-403.333 -275.517,-511.702c-85.129,-164.127 -320.961,-421.971 -320.961,-421.971c-107.621,146.546 -225.413,295.391 -353.602,425.986c-164.884,167.977 -342.482,308.325 -490.391,401.818c-133.322,84.274 -318.105,159.19 -433.161,197.542c-82.897,27.632 -195.338,37.781 -270.884,36.487c-93.163,-1.596 -267.155,-33.802 -267.155,-33.802c-0,0 49.975,-199.148 78.39,-298.232c39.708,-138.465 159.86,-532.561 159.86,-532.561c-0,0 -130.071,212.678 -314.545,414.379c-128.399,140.39 -289.518,271.929 -393.62,337.532c-95.212,60.002 -186.304,115.521 -289.171,154.092c-155.564,58.332 -329.238,81.684 -514.878,53.142c-197.106,-30.305 -434.909,-147.206 -548.847,-238.098c-84.217,-67.182 -101.394,-72.342 -215.02,-189.189c-116.235,-119.529 -217.692,-292.405 -258.357,-350.512c-99.002,-141.466 -164.703,-230.749 -164.703,-230.749c-0,0 7.888,103.887 28.384,221.261c17.883,102.412 47.468,215.326 62.553,275.433c20.779,82.79 80.79,242.994 80.79,242.994c0,-0 -185.429,20.928 -370.424,22.479c-108.687,0.911 -214.017,0.263 -290.077,-28.963c-208.695,-80.19 -437.023,-231.113 -591.666,-477.597l-140.457,-367.581c-25.184,-91.213 -61.118,-89.254 -101.608,-47.815c-69.045,46.199 -150.508,67.561 -245.054,62.758Z" style="fill:#613816;stroke:#000;stroke-width:6.05px;"/><path d="M21264.3,15294.3c-59.019,34.073 -112.715,69.248 -160.374,105.567c-413.038,314.754 -282.786,1536.09 -612.801,1865.54c-320.499,319.951 -655.339,460.462 -942.225,111.168c-353.335,-430.198 -680.398,-1436.5 -1319.47,-1914.17c-326.287,-243.884 -864.605,-521.668 -1369.74,-734.072c58.746,-370.534 32.622,-554.72 550.857,-605.545c360.391,-35.345 757.625,-670.864 816.441,-988.126c12.672,-68.356 -68.775,-601.497 330.051,-340.732c149.988,98.066 263.754,29.542 399.535,562.209c10.973,43.049 43.772,10.626 382.164,408.879c203.985,240.069 -375.945,531.711 -486.391,1073.31c-66.223,324.742 -17.843,345.336 277.938,511.099c219.754,123.156 821.348,194.816 885.926,68.147c33.04,-64.809 806.258,-211.49 903.297,-306.66c47.914,-46.992 182.62,39.866 344.795,183.393Z" style="fill:#102129;stroke:#000;stroke-width:6.05px;"/><path d="M16941.9,10654.2c-0,-0 -27.421,155.022 -39.81,392.394c-7.924,151.837 -16.472,363.15 -16.939,539.954c-0.803,304.152 12.12,1284.96 12.12,1284.96l97.591,7.878c0,0 1.072,-891.207 -3.183,-1261.83c-3.842,-334.666 -49.779,-963.355 -49.779,-963.355Z" style="fill:#492709;stroke:#000;stroke-width:6.05px;"/><path d="M15809.7,12670.3c0,-0 459.616,118.104 657.153,153.129c157.536,27.932 528.072,57.02 528.072,57.02c0,-0 -13.316,465.671 -44.656,853.58c-14.646,181.277 -44.77,337.79 -56.737,451.706c-30.514,290.464 -122.144,859.916 -122.144,859.916c-186.015,-14.015 -368.007,-90.023 -533.62,-185.644c-0,0 -231.806,-268.639 -303.529,-418.56c-69.684,-145.659 -135.276,-355.839 -144.023,-521.132c-3.977,-75.139 -9.242,-116.124 -9.177,-249.601c0.19,-392.035 28.661,-1000.41 28.661,-1000.41Z" style="fill:#ad7e59;stroke:#000;stroke-width:6.05px;"/><path d="M22347.8,13011.6c-0,-0 -17.144,-888.235 -8.12,-1284.77c8.301,-364.815 62.26,-1094.45 62.26,-1094.45c-0,-0 22.744,722.221 30.381,1090.8c8.176,394.584 18.672,1276.7 18.672,1276.7l-103.193,11.713Z" style="fill:#492709;stroke:#000;stroke-width:6.05px;"/><path d="M23612.7,12660.3c-0,-0 -443.405,183.642 -646.052,236.811c-185.84,48.76 -619.083,114.602 -619.083,114.602c0,0 3.137,482.539 24.691,856.931c10.067,174.869 23.552,262.068 39.244,386.024c41.708,329.469 148.013,846.636 148.013,846.636c-0,-0 202.832,-54.298 408.995,-150.751c169.785,-79.433 341.627,-191.288 406.049,-291.665c127.472,-198.619 237.17,-437.524 263.217,-682.243c35.161,-330.35 -25.074,-1316.35 -25.074,-1316.35Z" style="fill:#ad7e59;stroke:#000;stroke-width:6.05px;"/></g><g><path d="M19380.4,1788.6c-286.508,27.314 -453.453,76.473 -726.8,173.283c-273.602,96.901 -600.244,243.955 -821.573,443.984c-148.805,134.484 -264.583,277.388 -386.934,457.084c-77.666,114.067 -157.981,222.976 -251.073,418.046c-160.269,335.835 -195.587,565.079 -207.991,940.604c-6.902,208.951 9.983,438.01 -65.313,623.784c-68.255,168.401 -252.162,351.911 -357.773,488.468c-87.852,113.594 -156.072,133.134 -275.894,330.875c-100.085,165.17 -165.484,388.427 -182.501,493.605c-31.427,194.253 140.832,409.026 241.239,519.069c90.102,98.749 166.018,159.531 160.226,260.324c-5.792,100.793 -105.815,252.159 -185.417,344.435c-128.765,149.266 -284.81,350.308 -338.531,515.303c-48.046,147.568 -46.527,344.301 16.208,474.668c79.806,165.836 306.108,454.837 457.841,529.915c40.701,20.138 72.986,18.587 132.195,32.917c41.131,9.954 118.133,62.553 181.193,80.22c47.859,13.408 81.604,-5.469 120.691,-8.082c106.706,-7.133 148.018,-116.55 186.308,-59.455c65.693,97.957 52.49,230.127 171.342,424.438c92.325,150.942 234.135,265.102 336.151,330.183c238.697,152.278 440.064,172.491 919.909,159.048c-106.068,-250.802 -177.787,-537.466 -200.974,-788.268c-0,0 136.96,202.021 297.264,421.443c117.205,160.43 253.391,295.201 351.987,369.769c198.148,149.86 449.719,272.687 697.796,261.095c137.923,-6.445 289.821,-12.578 441.094,-76.707c134.327,-56.945 262.663,-147.501 378.052,-243.05c77.699,-64.339 196.615,-159.937 300.598,-280.328c145.832,-168.842 269.23,-361.021 269.23,-361.021c0,-0 -75.487,322.802 -119.464,462.27c-39.367,124.848 -127.664,364.979 -127.664,364.979c0,0 251.478,59.858 497.956,8.386c282.309,-58.953 488.55,-198.115 628.06,-308.462c100.237,-79.283 216.688,-181.115 318.039,-284.807c110.021,-112.562 342.086,-390.567 342.086,-390.567c-0,-0 56.386,-95.241 135.356,-159.592c40.162,-32.727 79.028,-48.947 123.347,-68.586c153.427,-67.986 242.492,-124.585 381.216,-296.297c114.111,-141.246 196.824,-378.955 177.389,-544.594c-21.857,-186.282 -126.939,-437.233 -308.532,-573.098c-166.988,-124.937 -241.657,-354.395 -137.909,-610.27c91.731,-226.236 155.277,-616.591 88.256,-857.951c-67.02,-241.361 -291.326,-405.084 -473.644,-594.993c-100.617,-104.807 -269.448,-249.276 -316.636,-420.142c-35.225,-127.552 -27.199,-303.682 -40.562,-532.831c-15.876,-272.24 -55.054,-604.558 -136.328,-812.407c-68.495,-175.165 -141.493,-374.01 -254.487,-556.359c-140.043,-226.001 -327.424,-430.508 -476.983,-578.692c-262.614,-260.202 -493.041,-352.613 -849.266,-449.913c-334.526,-91.371 -810.023,-100.205 -1108.78,-71.723Z" style="fill:#b25f0c;stroke:#000;stroke-width:6.05px;"/><path d="M18428.3,2463.59c-239.646,132.997 -386.626,350.06 -581.405,581.405c-123.112,146.224 -276.028,408.491 -369.79,662.164c-76.517,207.015 -104.854,401.12 -117.847,581c-20.671,286.166 -64.491,577.684 -173.568,843.053c-116.329,283.01 -474.639,601.877 -541.14,862.179c-59.228,231.835 58.224,462.739 180.389,697.242c70.418,135.171 90.424,360.241 52.453,528.83c-23.467,104.194 -94.275,185.579 -142.195,263.112c-80.853,130.817 -276.926,269.166 -354.877,521.793c-73.613,238.569 -10.171,444.1 63.256,599.846c73.428,155.745 214.329,271.558 324.714,308.329c55.459,18.475 142.334,0.706 204.161,-31.848c46.393,-24.428 70.326,-70.761 102.358,-41.509c45.677,41.711 65.009,210.181 124.559,343.199c63.349,141.501 95.815,176.397 165.603,246.661c144.512,145.498 326.859,287.154 517.381,334.654c158.279,39.462 623.358,-4.227 623.358,-4.227c-53.74,-123.817 -81.386,-234.735 -107.776,-346.695c-30.162,-127.97 -55.753,-256.569 -66.17,-394.689c-0,-0 164.237,224.642 256.667,369.469c100.52,157.501 220.027,270.265 356.547,384.044c91.743,76.462 250.891,170.335 411.073,216.954c131.144,38.168 251.175,67.215 407.167,46.356c262,-35.034 377.046,-98.076 547.934,-205.58c173.813,-109.344 325.951,-252.941 476.214,-425.504c148.617,-170.674 245.112,-341.247 245.112,-341.247c-0,0 -99.57,320.085 -140.297,459.063c-37.078,126.529 -104.063,374.805 -104.063,374.805c98.85,20.196 193.316,38.992 288.62,36.994c193.164,-4.051 382.337,-63.806 566.387,-162.395c155.154,-83.109 263.919,-166.828 520.24,-388.419c164.702,-142.384 449.875,-512.188 449.875,-512.188c0,0 119.991,-159.083 191.411,-280.22c72.189,-122.442 102.016,-207.181 104.614,-343.813c3.284,-172.78 -10.72,-308.327 -108.815,-437.054c-59.138,-77.604 -280.878,-204.801 -333.72,-370.151c-66.216,-207.204 -36.668,-288.428 2.159,-442.604c53.3,-211.644 123.346,-570.331 63.619,-797.629c-59.727,-227.297 -211.757,-289.929 -410.025,-480.087c-84.565,-81.105 -200.17,-234.401 -247.796,-436.818c-67.571,-287.185 -65.473,-372.543 -58.723,-634.439c5.804,-225.236 -0.191,-490.478 -50.493,-713.005c-53.507,-236.705 -163.59,-434.902 -296.845,-664.191c-109.025,-187.596 -330.461,-471.789 -575.187,-680.997c-146.558,-125.288 -313.735,-203.749 -435.923,-274.044c-277.818,-159.828 -655.237,-201.519 -974.897,-178.173c-338.203,24.7 -781.699,175.078 -1054.32,326.374Z" style="fill:#7d3e0e;stroke:#000;stroke-width:6.05px;"/></g></g><g><g><path d="M14934.2,4043.41c101.908,-36.277 213.399,-19.046 286.067,71.388c-0,-0 119.188,118.609 138.693,218.277c31.958,163.303 43.604,425.526 -45.631,609.855c-40.371,83.392 -141.214,206.095 -233.066,288.763c-111.178,100.061 -216.62,156.342 -281.844,205.53c-60.922,45.944 -171.093,42.418 -227.157,66.59c-34.028,14.672 -45.152,34.717 -47.545,60.166c-4.963,52.792 -19.001,255.968 -85.665,374.789c-63.562,113.289 -223.623,311.183 -394.549,440.085c-95.46,71.991 -180.354,108.26 -267.449,143.642c-48.377,19.653 -107.475,46.105 -161.676,56.446c-37.212,7.1 -75.207,-3.905 -93.447,12.208c-20.728,18.311 -14.306,51.534 -12.909,81.936c1.456,31.669 -1.645,60.674 -0.816,86.905c4.475,141.695 27.784,695.95 27.784,695.95c0,-0 -586.045,-74.026 -900.92,-66.716c-346.067,8.033 -1074.96,43.643 -1074.96,43.643c0,-0 18.313,-295.595 22.791,-467.72c4.498,-172.869 4.194,-569.494 4.194,-569.494c90.337,50.465 243.91,116.006 331.955,139.207c63.279,16.675 159.867,59.857 191.639,9.357c7.198,-47.828 21.135,-78.872 42.954,-82.831c18.515,-3.36 47.579,25.059 68.807,41.349c52.467,40.262 103.362,94.573 187.981,107.591c42.459,6.532 117.242,15.211 187.131,6.331c70.142,-8.912 92.79,-16.282 135.314,-35.395c47.539,-21.367 104.917,-58.583 143.366,-92.805c35.465,-31.565 59.509,-67.274 87.329,-112.523c-0,0 43.051,66.557 68.374,91.454c29.25,28.759 62.061,74.34 107.127,81.1c47.592,7.139 175.619,-45.753 175.619,-45.753c-0,0 253.608,-138.762 368.132,-226.857c139.207,-107.082 346.999,-251.87 464.771,-423.825c79.458,-116.014 260.464,-349.173 367.127,-578.187c132.258,-283.968 164.054,-358.781 227.735,-545.129c70.08,-205.076 192.748,-685.327 192.748,-685.327Z" style="fill:#835a3a;stroke:#000;stroke-width:6.05px;"/><path d="M10171.8,4139.32c0,0 -55.02,-250.069 -71.107,-395.664c-18.591,-168.246 -50.913,-408.195 -47.29,-643.508c4.517,-293.418 79.537,-777.834 274.559,-1102.48c116.67,-194.213 377.31,-584.996 763.793,-836.408c575.745,-374.53 998.707,-411.308 1450.61,-436.142c392.095,-21.548 877.264,82.257 1256.43,288.597c433.94,236.149 534.474,377.046 726.803,609.359c190.646,230.281 357.53,502.269 431.557,783.06c80.869,306.747 88.672,712.156 57.895,1060.57c-33.481,379.028 -110.065,719.646 -254.32,1195.75c-132.536,437.425 -387.431,929.721 -661.458,1245.95c-122.171,140.987 -362.992,353.211 -594.508,489.17c-190.18,111.684 -271.49,149.812 -358.498,150.826c-68.555,0.799 -186.395,-172.153 -186.395,-172.153c-42.117,86.428 -153.064,181.884 -256.082,216.774c-106.807,36.173 -259.594,39.31 -350.313,1.087c-76.021,-32.031 -155.709,-127.469 -197.504,-132.498c-32.235,-3.878 -18.235,84.773 -74.008,101.505c-55.772,16.732 -109.058,-9.379 -234.51,-51.739c-154.945,-52.318 -437.097,-197.908 -667.124,-409.568c-313.841,-288.782 -483.914,-654.19 -483.914,-654.19c-116.062,-187.093 -217.189,-418.631 -300.779,-631.598c-87.731,-223.513 -156.62,-429.655 -223.836,-676.707Z" style="fill:#2e1a0a;stroke:#000;stroke-width:6.05px;"/><path d="M10617.8,1550.09c279.2,-470.725 641.904,-734.081 1099.27,-903.033c178.938,-66.101 368.548,-133.034 593.345,-163.761c310.453,-42.433 664.805,-29.075 941.674,31.378c275.939,60.25 547.756,145.205 800.065,284.761c184.162,101.864 334.429,230.765 454.769,338.43c265.367,237.417 426.249,591.023 511.255,900.521c80.929,294.653 25.699,979.447 25.699,979.447c-6.293,-694.159 -346.402,-1310.72 -813.757,-1720.01c-300.223,-262.925 -731.561,-453.999 -1122.29,-533.002c-390.732,-79.003 -923.903,-57.203 -1313.54,65.677c-165.583,52.219 -414.876,157.334 -620.397,288.849c-309.583,198.104 -556.082,430.745 -556.082,430.745Z" style="fill:#ffddb0;stroke:#000;stroke-width:6.05px;"/><path d="M10169.5,4140.32c-172.577,24.543 -332.76,226.066 -365.508,368.364c-39.978,173.711 -22.368,435.944 65.677,602.517c37.658,71.245 132.318,185.995 223.348,260.711c92.86,76.217 182.29,111.935 239.248,136.208c99.088,42.227 217.187,19.399 291.265,-11.422l74.243,-54.255c0,-0 -76.644,-120.775 -148.151,-270.192c-76.821,-160.519 -150.353,-354.093 -195.953,-466.49c-73.764,-181.817 -184.169,-565.441 -184.169,-565.441Z" style="fill:#835a3a;stroke:#000;stroke-width:6.05px;"/></g><g><path d="M9390.53,15434.1c84.998,145.482 196.514,254.407 314.062,335.234c142.661,98.095 401.638,215.851 562.449,269.771c249.13,83.532 411.258,143.559 677.139,179.15c243.019,32.53 483.146,85.392 778.138,84.323c298.997,-1.084 629.158,22.899 1013.26,3.406c357.458,-18.141 737.646,-69.375 1025.28,-112.701c232.481,-35.018 454.903,-90.321 659.657,-166.593c196.898,-73.344 387.069,-188.96 526.479,-286.403c113.346,-79.225 193.772,-102.471 284.123,-283.173c26.684,-53.367 53.213,-176.241 96.98,-187.183c113.47,-28.368 124.531,16.792 322.085,-81.985c35.826,-17.914 118.299,-74.798 199.848,-103.235c36.111,25.745 163.731,125.513 264.552,280.6c96.725,148.786 154.825,263.918 183.643,397.27c71.678,331.689 90.118,886.136 7.88,1292.87c0,-0 -299.94,-10.323 -439.665,21.865c-191.284,44.065 -465.568,193.367 -707.917,260.276c-251.032,69.307 -558.432,114.067 -798.276,155.566c-170.331,29.471 -488.918,85.88 -712.749,99.422c-339.817,20.56 -837.475,33.108 -1326.15,23.935c-629.853,-11.824 -1237.6,-45.998 -1481.8,-64.521c-310.06,-23.518 -725.028,-102.223 -962.457,-178.399c-171.278,-54.952 -462.118,-278.656 -462.118,-278.656c-25.735,-159.464 -51.501,-323.857 -56.067,-498.784c-11.059,-423.681 36.878,-862.473 36.878,-1104.2c0,-8.99 -5.391,-47.883 -5.26,-57.858Z" style="fill:#301c08;stroke:#000;stroke-width:6.05px;"/><g><path d="M14151.7,7899.42c127.529,-19.318 627.761,178.291 676.183,256.017c68.519,109.986 57.164,516.113 133.705,562.772c101.982,62.167 351.683,-62.549 530.612,-3.758c178.929,58.791 255.567,177.505 348.262,301.448c102.767,137.41 209.031,386.884 268.337,523.01c23.492,53.92 30.573,101.582 48.676,157.151c12.951,39.755 32.191,136.59 32.191,136.59c0,-0 -179.608,-89.579 -360.441,-233.933c-12.893,-10.292 -117.609,-93.885 -151.333,-140.788c-93.178,-129.595 -47.708,-174.254 -34.57,-187.462c175.323,-176.244 151.941,-202.313 129.616,-226.252c-27.09,-29.049 -57.734,-61.908 -494.175,1.844c-35.268,5.152 -71.733,7.318 -77.983,7.689c-134.024,7.962 -79.032,36.609 -209.05,66.191c-66.852,15.21 -430.444,-45.05 -506.779,-149.283c-76.334,-104.233 65.907,-307.209 77.963,-440.588c10.827,-119.771 23.757,-87.591 -5.621,-359.687c-8.29,-76.784 -170.444,-59.23 -292.828,-190.461c-34.572,-37.071 -91.587,-67.946 -112.765,-80.5Z" style="fill:#ef5f20;stroke:#000;stroke-width:6.05px;"/><path d="M16240.1,14861.8c-0,0 -98.032,65.529 -221.052,133.785c-156.891,87.051 -348.79,182.295 -368.871,192.336c-197.554,98.777 -208.615,53.617 -322.085,81.985c-35.021,8.755 -42.62,67.996 -55.898,119.342c-3.316,12.823 -1.655,34.086 -6.988,44.751c-90.351,180.702 -163.952,207.989 -271.195,287.222c-134.386,99.288 -345.179,225.873 -535.689,301.162c-202.707,80.109 -334.834,121.873 -680.556,179.493c-333.087,55.514 -696.653,98.725 -1047.14,116.715c-395.838,20.318 -773.994,-6.573 -1023.69,-2.492c-253.422,4.142 -737.332,-84.466 -755.435,-86.478c-352.625,-39.18 -544.757,-129.219 -813.146,-222.134c-147.402,-51.029 -358.352,-154.158 -481.994,-241.104c-104.273,-73.327 -200.349,-172.108 -259.857,-280.575c2.046,-155.194 18.47,-440.054 18.47,-440.054c0,0 -228.877,-83.558 -415.868,-214.909c-201.558,-141.583 -331.793,-256.163 -429.73,-399.261c-161.866,-236.505 -222.122,-556.614 -239.585,-777.601c-11.711,-148.202 -4.93,-320.641 -2.271,-483.722c2.528,-155.115 22.359,-381.007 22.359,-381.007c0,-0 79.393,-818.845 117.125,-1147.25c73.513,-639.825 187.546,-1286.58 187.546,-1286.58c0,0 137.188,-457.275 263.469,-823.701c99.24,-287.959 254.32,-577.021 353.545,-730.557c183.675,-284.206 480.228,-467.85 813.293,-638.672c383.209,-196.54 788.985,-284.585 788.985,-284.585c102.861,-217.634 317.042,-376.678 699.919,-446.936c-0,-0 739.223,-46.477 1070.01,-42.166c282.91,3.686 914.691,68.026 914.691,68.026c0,0 274.948,73.857 373.444,148.265c99.101,74.864 218.161,291.925 218.161,291.925c0,0 222.735,54.345 460.499,148.171c134.018,52.886 250.309,116.27 389.452,194.56c255.838,143.951 459.753,322.44 590.066,458.191c158.525,165.14 345.744,453.601 463.73,716.138c97.528,217.013 141.104,428.659 141.104,428.659c-0,-0 -199.384,672.531 -259.923,1017.22c-76.566,435.95 -199.474,1598.48 -199.474,1598.48c0,0 -22.859,165.759 70.328,210.031c-0,0 -35.309,770.784 -26.108,1052.65c8.955,274.308 40.459,370.164 103.864,600.34c69.372,251.839 356.505,540.339 356.505,540.339Z" style="fill:#4c2609;stroke:#000;stroke-width:5.45px;"/><path d="M15144.3,10474.1c0,-0 145.709,1645.48 195.273,2430.86c48.09,762.044 124.075,2353.02 124.075,2353.02c0,0 -114.556,-8.036 -147.846,23.719c-33.29,31.754 -50.762,146.476 -50.762,146.476c0,-0 -84.478,-1508.48 -97.457,-2206.13c-15.25,-819.699 -23.283,-2747.95 -23.283,-2747.95Z" style="fill:#3c1e08;stroke:#000;stroke-width:6.05px;"/><path d="M9644.11,9489.71c10.122,-6.631 22.27,-13.845 27.124,-20.119c47.341,-61.185 33.611,-80.471 36.756,-190.76c-28.789,-3.987 -52.09,16.874 -36.756,-27.718c29.132,-84.715 154.853,-86.394 169.043,-223.94c14.739,-142.87 42.605,-65.943 107.06,5.462c11.512,12.753 185.027,46.372 202.852,-5.462c2.298,-6.684 2.713,-5.26 36.625,-71.006c48.081,-37.285 42.6,-64.742 112.696,-87.391c80.931,-26.15 174.451,52.655 281.737,-125.625c66.873,-111.123 74.518,-137.897 92.974,-207.554c33.028,-124.656 142.373,-305.946 172.812,-518.535c19.089,-20.588 38.886,-37.108 59.016,-50.894c56.788,52.287 130.142,116.427 193.3,140.916c383.777,148.803 381.451,199.703 770.379,160.018c46.877,-4.783 131.052,-110.29 236.616,-117.347c743.938,-49.732 769.009,18.649 814.4,-128.014c10.989,-35.504 31.553,-65.856 58.131,-91.952c21.039,7.788 43.013,23.609 82.142,61.538c138.518,134.269 266.788,20.975 295.77,133.349c102.703,398.212 84.234,363.025 110.256,554.624c28.588,210.494 -31.587,590.549 61.271,708.34c92.858,117.791 420.051,1.314 470.633,-57.523c98.373,-114.427 34.065,-121.648 141.974,-205.328c5.032,-3.902 34.392,-26.669 61.905,-53.339c340.48,-330.038 375.163,-296.418 405.824,-266.697c25.269,24.494 52.02,51.662 -41.27,413.38c-6.991,27.106 -65.219,55.643 -27.514,80.009c11.099,7.173 -3.975,39.312 110.054,186.688c41.27,53.34 151.508,124.578 165.081,133.349c190.367,123.019 229.168,140.573 364.729,151.512c16.32,274.151 20.322,578.425 31.393,841.001c13.334,316.228 -42.229,590.312 -19.995,911.932c-875.956,-84.706 -791.859,-67.593 -1074.39,0.875c-159.699,38.7 -338.658,-9.7 -566.777,64.007c-37.778,12.207 -1163.62,35.721 -1227.1,128.015c-11.849,17.229 -224.303,225.555 -275.135,373.376c-38.802,112.837 -316.467,566.489 -506.248,640.073c-18.125,7.028 -87.575,87.303 -126.562,224.025c-57.213,200.64 50.636,216.529 119.157,236.06c81.985,23.368 215.489,9.483 306.288,0.798c101.926,-9.749 166.155,19.48 315.427,-154.153c153.905,-179.023 196.081,-238.908 253.65,-304.3c29.448,-33.45 66.948,-53.954 91.765,-88.056c23.66,-32.51 66.659,-38.535 85.049,-35.513c84.655,13.912 236.055,9.378 319.489,-18.472c62.722,-20.936 120.113,-81.793 181.848,-112.83c83.76,-42.111 218.93,-101.783 326.615,-106.9c206.96,-9.834 761.841,-39.718 884.124,39.304c304.415,196.72 591.492,5.613 522.756,405.38c-24.04,139.819 -195.985,86.658 -495.242,202.69c-142.29,55.17 -895.986,72.825 -924.453,128.014c-158.478,307.235 27.437,397.342 44.021,405.38c836.518,405.432 922.712,144.296 1095.04,192.022c8.584,2.377 -1.247,46.455 99.048,85.343c55.79,21.631 -2.817,80.136 -11.005,96.011c-48.035,93.124 -53.84,67.354 -159.578,149.35c-37.156,28.813 -643.039,158.387 -654.821,160.018c-276.953,38.352 -288.983,-34.816 -533.761,224.026c-402.787,425.928 -424.158,362.139 -770.378,949.441c-10.016,16.991 -13.366,0.767 -137.567,181.354c-21.781,31.67 -198.097,288.033 -264.129,416.048c-6.631,12.855 -13.159,5.903 -52.501,60.253c-100.544,18.898 -214.234,35.757 -346.44,51.234c-564.085,66.039 -1172.43,-128.38 -1456.34,-187.506c-291.22,-60.65 -556.008,-234.569 -739.537,-550.935c285.196,-62.157 438.502,205.537 534.914,196.94c45.083,-4.02 37.351,-230.474 43.559,-248.524c49.299,-143.365 -10.866,-853.701 -88.044,-704.08c-40.11,77.76 -165.173,32.723 -115.556,-352.04c64.896,-503.244 214.668,-331.33 480.605,-304.195c33.64,3.432 215.726,13.323 319.368,27.134c327.099,43.587 1311.87,368.218 1643.22,234.389c476.34,-192.388 891.498,-252.955 931.851,-356.078c40.353,-103.123 -44.416,15.353 -689.733,-262.658c-176.192,-75.906 -206.255,-85.488 -247.621,-42.672c-41.365,42.816 11.35,251.564 -0.572,299.569c-10.298,41.463 -34.867,-1.54 -70.963,-11.536c-277.67,-76.902 -408.769,-37.441 -571.098,-58.777c-135.1,-17.757 -197.973,-50.322 -402.878,-69.238c-92.364,-8.527 -422.631,-104.929 -654.82,-64.007c-17.188,3.029 -204.288,36.004 -214.605,42.671c-5.352,3.459 -370.802,81.708 -588.788,21.336c-11.72,-3.246 -18.717,-219.042 38.518,-256.029c117.609,-76.001 68.711,-210.714 27.514,-224.025c-129.354,-41.796 90.29,-130.584 297.145,-170.686c81.239,-15.75 80.402,-13.929 154.076,-85.343c7.658,-7.424 1.616,-105.172 -132.065,-53.34c-19.899,7.716 -229.279,88.899 -247.621,106.679c-171.597,166.334 -173.381,156.534 -363.178,170.686c2.175,-29.509 23.845,-323.592 44.022,-362.708c5.74,-11.127 63.281,-122.68 66.032,-149.35c18.304,-177.428 243.341,-559.668 687.837,-416.047c213.335,68.931 921.941,-127.319 1001.49,-149.35c167.221,-46.312 514.106,-350.899 401.697,-405.38c-289.446,-140.284 -362.781,-245.745 -484.237,-128.014c-344.58,334.012 -502.64,245.973 -632.81,288.032c-520.845,168.291 -539.676,-26.269 -731.857,160.019c-12.874,12.478 -134.266,130.148 -165.081,138.682c-207.463,57.457 -193.088,295.464 -313.654,373.376c-156.679,101.249 12.001,-347.159 60.53,-629.405c65.963,-383.64 63.443,-380.277 104.551,-778.755c57.935,-561.579 -7.949,-585.642 8.927,-1664.62Z" style="fill:#003132;stroke:#000;stroke-width:6.05px;"/><path d="M9415.48,15046.3c-0,0 76.1,-1939.35 99.603,-2733.94c20.05,-677.878 41.41,-2033.63 41.41,-2033.63c0,-0 -144.789,1287.2 -196.57,1932.67c-62.165,774.906 -176.419,2716.77 -176.419,2716.77l231.976,118.138Z" style="fill:#361b05;stroke:#000;stroke-width:6.05px;"/></g></g></g><g><g><path d="M3645.81,8210.3c0,-0 -1168.89,2.137 -1596.79,468.893c-418.862,456.895 -500.537,2219.27 -517.19,2326.37c-76.356,491.044 -145.563,1023.38 -198.276,1527.05c-51.062,487.887 -94.121,940.058 -110.226,1424.59c54.198,635.076 361.185,1053.55 883.122,1238.88l-39.529,1475.1c56.501,391.073 338.854,608.88 647.215,640.153c1429.89,293.621 2966.28,288.886 4702.01,150.735c683.029,-55.425 1360.87,-146.132 1989.92,-381.477c-0,-0 -58.202,-181.321 -58.081,-275.014c0.439,-339.296 60.716,-1760.76 60.716,-1760.76c0,-0 -286.165,-132.784 -535.673,-329.084c-213.175,-167.714 -389.892,-384.032 -445.465,-578.832c-51.659,-181.082 -84.412,-378.3 -89.231,-654.144c-9.438,-540.289 81.803,-1201.76 125.673,-1658.04c45.943,-477.845 190.068,-1461.39 190.068,-1461.39c-55.62,-364.215 -137.164,-673.826 -307.597,-958.456c-119.415,-199.425 -271.915,-370.259 -407.983,-509.207c-295.595,-301.851 -825.299,-524.163 -1206.1,-653.466l-3086.58,-31.904Z" style="fill:#341e0c;stroke:#000;stroke-width:6.05px;"/><path d="M7999.12,8918.39c320.132,293.699 604.563,931.589 579.12,1079.44c-151.568,-116.796 -409.057,-534.25 -771.982,-911.051c-182.057,-189.018 -407.356,-337.448 -546.49,-472.919c-92.683,-90.245 -394.88,-326.581 -350.484,-308.823c53.535,21.414 327.641,106.522 426.882,163.748c180.863,104.293 442.912,247.729 662.954,449.602Z" style="fill:#ffddb0;stroke:#000;stroke-width:6.05px;"/><path d="M2249.43,11364.1c-248.249,-23.245 -720.713,-68.447 -720.713,-68.447c0,0 4.413,-249.163 37.24,-476.989c70.502,-489.3 251.297,-1215.69 321.578,-1483.64c44.412,-169.322 161.51,-277.809 389.201,-388.177c91.176,-44.195 194.387,-79.143 272.726,-94.858c62.99,-12.635 130.549,-24.858 130.549,-24.858c0,0 -89.791,252.258 -180.86,571.128c-43.439,152.101 -126.929,327.019 -193.783,651.853c-41.142,199.902 -80.367,438.556 -103.453,785.174c-17.22,258.567 3.765,380.568 47.515,528.814Z" style="fill:#0d4941;stroke:#000;stroke-width:6.05px;"/><path d="M2234.71,11287.3c5.794,156.239 32.105,285.85 35.639,442.842c23.142,1028.05 -47.873,2078.48 -138.181,3173.13c-93.29,-268.77 -143.699,-643.675 -161.909,-971.455c-18.89,-340.009 13.093,-713.801 48.573,-1068.6c44.075,-440.753 215.878,-1575.91 215.878,-1575.91Z" style="fill:#201508;stroke:#000;stroke-width:6.05px;"/><path d="M2122.65,15206.9c8.13,5.42 0.681,228.188 117.778,413.355c87.721,138.714 338.432,231.422 455.596,272.828c397.724,140.557 862.98,286.554 1481.38,316.323c612.941,29.506 1394.27,-46.163 1848.34,-169.214c357.365,-96.846 813.143,-254.018 980.089,-565.603c166.947,-311.585 70.769,-922.472 56.129,-1286.64c-17.271,-429.599 -78.576,-1016.34 -56.129,-1485.25c13.952,-291.441 35.383,-810.143 88.051,-1198.88c45.123,-333.059 123.51,-562.685 123.51,-562.685c0,-0 53.251,1399.61 116.575,2003.35c57.038,543.808 115.135,1242.02 263.372,1619.09c116.641,296.699 398.656,512.352 626.048,643.319c217.338,125.175 513.072,106.5 716.718,82.034c150.715,-18.108 474.933,-237.467 474.933,-237.467c0,-0 -59.726,1126.89 -60.446,1463.66c-0.394,184.222 57.256,580.464 57.256,580.464c-690.28,251.861 -1481.07,322.719 -2237.63,382.355c-644.661,50.816 -1310.38,76.997 -1938.59,73.399c-611.029,-3.5 -1348.52,-34.541 -1830.65,-94.987c-362.277,-45.42 -809.905,-125.389 -1035.14,-254.197c-169.853,-97.136 -289.62,-365.689 -290.357,-535.919c-23.986,-480.05 -1.93,-967.775 43.176,-1459.34Z" style="fill:#201508;stroke:#000;stroke-width:6.05px;"/></g><g><path d="M7628.69,4536.18c0,0 107.078,287.737 157.245,648.507c13.835,99.49 18.206,197.667 22.366,299.255c7.045,172.032 -4.663,362.429 -21.981,474.849c-28.459,184.737 -150.442,493.371 -275.932,715.301c-133.214,235.591 -269.467,379.259 -269.467,379.259c0,-0 111.39,-159.481 150.054,-282.792c47.57,-151.711 103.432,-387.869 135.362,-627.475c13.557,-101.726 23.25,-184.919 30.1,-256.338c11.241,-117.195 14.826,-202.686 15.263,-286.34c0.471,-90.41 9.282,-118.889 0.141,-215.364c-2.054,-21.672 -24.142,-69.659 -39.46,-109.763c-11.844,-31.008 -12.111,-70.891 -14.528,-90.947c-9.615,-79.779 1.981,-216.196 20.959,-307.031c7.218,-34.55 39.071,-112.533 54.838,-171.671c25.029,-93.885 35.04,-169.45 35.04,-169.45Z" style="fill:#ffac3d;stroke:#000;stroke-width:6.05px;"/><path d="M6704.16,7460.97c0,-0 290.029,-139.622 398.019,-231.266c111.551,-94.667 251.319,-271.61 294.638,-435.349c30.512,-115.33 87.197,-314.244 113.848,-534.323c13.373,-110.437 45.297,-385.727 45.297,-385.727c-0,0 24.31,-367.709 18.4,-487.292c-2.653,-53.688 -53.24,-84.282 -53.861,-230.203c-0.248,-58.371 0.058,-139.782 11.668,-207.815c15.049,-88.178 57.949,-183.221 78.624,-321.254c34.208,-228.381 30.841,-529.746 6.285,-748.768c-30.818,-274.872 -68.947,-511.093 -171.786,-726.648c-102.839,-215.556 -301.306,-454.144 -471.415,-588.716c-172.525,-136.484 -460.4,-216.082 -460.4,-216.082c372.972,260.108 714.991,705.493 820.34,1193.38c105.349,487.887 89.895,1234.11 -233.149,1678.67c0,0 -91.217,-216.542 -212.551,-310.702c-82.317,-63.881 -195.273,-26.69 -238.204,-0.163c-48.724,30.105 -165.338,149.632 -197.907,304.02c-38.428,182.164 11.387,400.609 11.387,400.609c0,-0 35.815,226.314 68.558,335.745c32.813,109.667 128.324,322.254 128.324,322.254l43.885,1189.62Z" style="fill:#b67e4f;stroke:#000;stroke-width:6.05px;"/><path d="M5733.14,10408l-58.797,852.132c469.73,-195.843 897.521,-666.272 1063.03,-1308.94c12.657,-49.149 36.821,-294.47 47.616,-346.353l-123.423,-3336.82c-0,-0 -92.015,-168.132 -148.236,-387.513c-73.666,-287.457 -107.298,-658.036 -7.57,-804.654c30.855,-45.363 69.78,-116.184 128.593,-154.991c47.149,-31.111 112.419,-33.883 156.622,-44.559c113.75,-27.475 306.153,315.06 306.153,366.056c246.997,-349.777 341.095,-1039.56 296.296,-1461.2c-44.799,-421.639 -243.824,-809.554 -523.006,-1123.45c-95.373,-107.234 -207.527,-206.929 -331.941,-294.883c-239.778,-169.51 -525.095,-295.411 -823.595,-347.629c-490.974,-85.888 -1365.85,-65.369 -1807.58,130.637c-433.607,192.404 -784.56,568.314 -1016.85,995.658c-232.285,427.344 -254.557,1016.18 -356.142,1514.52c-129.766,636.603 -223.459,1643.62 -381.011,2346.54c-147.323,657.283 -423.887,1360.09 -514.561,1899.98c-55.302,329.286 -180.178,749.886 -152.372,1078.98c7.995,94.618 32.822,179.25 57.24,246.592c18.953,52.268 46.906,105.439 89.271,157.458c58.914,72.339 153.502,135.756 221.412,191.868c96.463,79.703 357.367,286.354 357.367,286.354l137.493,-1241.93c27.373,314.64 38.586,629.613 130.288,881.274c56.98,156.374 145.676,322.376 274.47,409.089c208.841,140.604 537.305,251.842 931.035,315.699c467.989,75.901 1120.66,155.623 1462.03,18.97c172.023,-68.863 269.639,-172.438 355.254,-321.998c75.161,-131.297 141.852,-297.255 230.913,-516.889Z" style="fill:#1f1709;stroke:#000;stroke-width:6.05px;"/><path d="M5618.11,2162.06c-73.272,-64.515 -275.799,-218.278 -281.662,-191.897c0,0 448.028,25.052 650.275,96.07c216.578,76.05 468.209,225.944 649.192,360.229c144.973,107.566 323.445,304.1 420.127,458.745c102.42,163.824 267.248,271.411 267.344,567.3c-353.947,-82.823 -261.621,-294.874 -405.556,-429.098c-150.443,-140.293 -341.402,-274.201 -497.102,-412.66c-44.658,-39.712 -104.418,-77.608 -171.801,-114.349c-212.771,-116.015 -501.544,-220.516 -630.817,-334.34Z" style="fill:#ffddb0;stroke:#000;stroke-width:6.05px;"/></g></g></g></svg>