<?xml version="1.0" encoding="UTF-8" standalone="no"?><!DOCTYPE svg PUBLIC "-//W3C//DTD SVG 1.1//EN" "http://www.w3.org/Graphics/SVG/1.1/DTD/svg11.dtd"><svg width="100%" height="100%" viewBox="0 0 4916 4847" version="1.1" xmlns="http://www.w3.org/2000/svg" xmlns:xlink="http://www.w3.org/1999/xlink" xml:space="preserve" xmlns:serif="http://www.serif.com/" style="fill-rule:evenodd;clip-rule:evenodd;stroke-linejoin:round;stroke-miterlimit:2;"><rect id="D3.js-ML---AI---Imagination" serif:id="D3.js ML / AI - Imagination" x="-4394.85" y="-15692.4" width="66065.3" height="73423.2" style="fill:none;"/><rect id="Curtain---Right" serif:id="Curtain - Right" x="0" y="0" width="4916" height="4846.71" style="fill:none;"/><clipPath id="_clip1"><rect x="0" y="0" width="4916" height="4846.71"/></clipPath><g clip-path="url(#_clip1)"><g id="Curtain---Right1" serif:id="Curtain - Right"><g id="Curtain---Right---Color" serif:id="Curtain - Right - Color"><path d="M478.86,11.603l1259.72,-2.202l-155.479,4834.93l-888.855,1.567l-215.385,-4834.3Z" style="fill:#a20118;"/><path d="M885.732,10.717c-0,0 -11.114,311.713 -20.152,777.946c-5.318,274.322 -9.917,602.136 -11.111,951.425c-1.881,550.163 15.497,1164.36 23.343,1678.37c7.797,510.728 64.877,945.652 72.146,1158.73c2.467,72.308 47.623,206.814 98.517,204.003c49.518,-2.735 89.778,-135.834 96.445,-209.518c40.282,-445.174 173.24,-1833.87 253.697,-2959.32c28.269,-395.429 47.564,-757.421 60.261,-1036.9c15.716,-345.943 21.321,-565.456 21.321,-565.456l-594.467,0.715Z" style="fill:#890215;"/><path d="M1806.12,4844.12l-223.025,0.207c-0,-0 106.819,-3434.94 131.524,-4202.42c4.293,-133.366 9.809,-306.401 12.876,-401.671c2.468,-76.673 11.233,-230.812 11.233,-230.812l159.935,-0.134l-92.543,4834.83Z" style="fill:#5f0808;"/><path d="M2062.85,4843.13l-256.722,0.994l91.938,-4835.03l94.018,-0.104c-0,0 -3.079,1124.71 13.982,1969.03c1.767,87.41 2.657,171.727 4.91,251.572c2.275,80.638 0.554,156.995 3.468,226.714c0.951,22.748 1.32,134.721 3.2,195.98c1.766,57.555 1.971,124.915 3.169,172.957c2.815,112.847 6.331,338.459 6.331,338.459c0,0 8.166,159.642 6.194,159.435l8.32,200.813l5.955,331.474l7.243,324.311l0.072,102.708l0.664,190.613c0,0 4.509,144.469 5.718,206.148c1.072,54.624 1.54,163.927 1.54,163.927Z" style="fill:#aa0119;"/><path d="M702.264,11.659c-0,0 -40.135,2490.62 -49.246,3000.9c-0.369,20.693 -5.106,55.657 -9.527,56.401c-4.422,0.744 -8.837,-5.142 -17.002,-51.937c-4,-22.929 -6.197,-117.082 -6.197,-117.082l-4.137,-159.135l-13.361,-325.852l-23.169,-521.197l-20.32,-527.466l-19.644,-492.816l-4.583,-372.256l-5.461,-271.359l-4.619,-218.464l177.266,0.266Z" style="fill:#d3001e;"/><path d="M2593,4842.66l-529.374,0.578c-0,-0 -0.944,-29.036 -1.119,-43.554c-2.683,-222.614 -8.971,-907.393 -14.982,-1292.13c-4.235,-271.107 -32.219,-755.145 -40.368,-1279.82c-1.269,-81.745 1.25,-165.57 -0.429,-249.899c-3.916,-196.644 -12.677,-396.876 -16.688,-585.933c-4.971,-234.346 4.597,-460.501 4.757,-656.129c0.351,-431.279 -1.936,-727.175 -1.936,-727.175l553.955,-0.967c-0,0 -5.94,464.956 -8.799,697.457c-1.132,92.113 6.143,203.692 4.143,319.48c-4.167,241.296 -17.873,506.066 -16.298,687.477c3.75,431.885 34.939,1278.25 50.659,1990.27c5.001,226.48 7.887,488.648 9.742,619.674c0.785,55.493 0.99,121.967 2.002,177.156c1.591,86.761 4.735,343.51 4.735,343.51Z" style="fill:#950116;"/><path d="M2717.7,7.223l-170.879,0.406c-0,0 -5.694,115.59 -7.466,297.437c-1.21,124.196 -1.236,334.437 -2.937,447.441c-1.153,76.612 -0.655,153.965 -1.904,230.576c-2.465,151.12 -14.026,451.294 -9.774,676.914c3.019,160.151 4.509,350.624 9.174,547.764c3.195,135.013 9.444,274.753 12.471,403.663c8.128,346.194 20.091,725.262 28.162,1125.74c11.613,576.172 18.494,1105.41 18.494,1105.41l78.122,-0.304c-0.928,-220.33 -1.481,-442.056 -2.735,-662.402c-1.949,-342.359 -14.376,-707 -15.265,-1049.01c-0.413,-158.85 -3.174,-313.105 -5.065,-469.655c-1.725,-142.828 -3.981,-321.25 -5.557,-492.805c-0.476,-51.844 -3.12,-104.428 -2.855,-153.488c0.542,-100.329 4.073,-212.25 8.686,-323.733c8.128,-196.446 19.615,-391.531 24.022,-519.44c4.502,-130.649 5.937,-226.989 8.745,-359.812c5.662,-267.704 36.561,-804.693 36.561,-804.693Z" style="fill:#470009;"/><path d="M243.962,12.973l76.433,-0.134c0,0 -4.247,49.728 -8.44,98.483c-1.931,22.455 -4.386,44.905 -5.454,61.836c-5.005,79.384 -16.758,193.474 -27.352,336.811c-1.624,21.975 -4.877,45.633 -6.327,68.908c-5.607,90.058 -13.355,190.645 -20.993,296.428c-3.258,45.119 -6.775,90.142 -9.64,137.398c-5.376,88.666 -10.916,180.95 -16.56,275.696c-5.373,90.207 -6.424,182.383 -11.932,276.055c-6.158,104.74 -1.882,210.753 -8.15,317.187c-4.13,70.131 2.888,141.326 -1.338,211.19c-3.75,62.004 1.929,123.723 -1.955,184.913c-2.787,43.9 0.827,88.271 -2.056,131.506c-49.315,739.6 -117.66,1404.15 -117.66,1404.15c-0,0 -2.524,-125.309 -3.309,-187.968c-1.175,-93.745 -4.154,-285.173 -3.738,-374.503c0.089,-19.309 -2.184,-35.637 -2.062,-48.591c0.057,-6.186 0.301,-14.309 0.934,-20.577c1.145,-11.327 10.21,-35.023 11.755,-53.422c2.045,-24.337 0.087,-71.229 1.003,-92.099c5.283,-120.263 11.739,-251.539 16.41,-358.709c4.904,-112.515 8.742,-202.66 10.099,-255.423c1.271,-49.433 7.123,-112.87 8.158,-148.557c1.747,-60.213 8.109,-120.744 10.204,-181.138c2.467,-71.104 11.413,-143.353 13.919,-214.213c3.773,-106.679 9.921,-212.796 13.638,-316.204c3.409,-94.828 8.456,-187.346 11.701,-276.8c3.529,-97.29 7.948,-189.904 11.158,-277.749c1.671,-45.729 3.063,-89.896 4.286,-132.307c3.642,-126.238 5.796,-236.914 9.402,-326.885c1.776,-44.336 6.445,-83.764 7.867,-117.044c3.547,-82.983 14.269,-215.149 24.601,-308.617c7.067,-63.926 15.398,-109.617 15.398,-109.617Z" style="fill:#890017;"/><path d="M2111.93,8.756l-119.809,0.209c-0,0 -0.7,182.137 -0.463,428.422c0.197,205.588 1.97,455.563 2.853,681.453c0.372,95.033 2.481,185.501 2.883,266.841c0.667,134.802 3.307,243.592 3.638,303.435c0.048,8.665 0.112,18.062 0.268,27.1c4.174,241.263 24.778,1420.48 24.778,1420.48l15.519,386.151l5.411,333.13l8.381,617.752c-0,0 7.005,241.31 8.379,298.919c0.375,15.687 -0.133,46.734 -0.133,46.734c4.277,-1435.13 -9.218,-2873.31 31.756,-4302.17c0.207,-7.244 0.416,-14.488 0.624,-21.73c4.685,-162.464 9.668,-324.497 15.915,-486.729Z"/><path d="M2067.04,4843.33l520.196,-1.412c0,-0 5.347,-116.74 3.763,-306.073c-1.904,-227.586 -11.293,-560.415 -18.377,-926.168c-15.449,-797.579 -40.317,-1758.05 -43.929,-2195.43c-0.947,-114.708 13.684,-267.757 15.407,-401.705c2.08,-161.636 -6.531,-396.353 -2.931,-568.111c5.203,-248.193 8.785,-434.666 8.785,-434.666l-434.59,-1.382c-0,-0 -35.885,815.387 -40.246,1223.59c-8.602,805.181 -8.078,3611.35 -8.078,3611.35Z" style="fill:none;"/><path d="M2671.27,4842.44l725.861,-1.128c-0,0 3.42,-610.71 21.434,-1356.07c23.234,-961.322 53.014,-2160.87 67.582,-2614.01c9.405,-292.548 55.274,-865.103 55.274,-865.103l-823.788,1.132c-0,0 -5.395,66.942 -9.741,178.37c-0.552,14.147 -1.701,29.013 -2.265,44.55c-0.396,10.928 -1.359,22.267 -1.757,33.845c-0.471,13.683 -1.712,27.848 -2.18,42.389c-0.395,12.27 -1.557,24.895 -1.944,37.741c-0.294,9.797 -1.125,19.757 -1.411,29.873c-0.372,13.176 -1.583,26.83 -1.938,40.52c-0.325,12.562 -1.589,25.431 -1.892,38.397c-0.28,12.035 -1.406,24.403 -1.673,36.603c-0.265,12.078 -1.631,27.496 -1.902,45.127c-0.23,14.939 -1.954,31.72 -2.156,49.66c-0.174,15.44 -1.841,31.864 -1.943,48.906c-0.077,12.832 -1.45,26.409 -1.538,39.573c-0.093,13.857 -2.195,34.187 -1.957,57.951c0.199,19.873 -2.347,42.045 -1.793,64.179c0.42,16.807 -1.169,39.355 -1.42,49.666c-0.1,4.109 0.01,8.189 -0.085,12.202c-0.17,7.211 -0.137,14.085 -0.36,20.617c-0.286,8.382 -0.402,16.693 -0.612,25.12c-2.601,104.164 -5.628,211.411 -8.71,318.161c-4.644,160.831 -23.952,321.009 -26.156,469.326c-1.262,84.918 -3.884,181.203 -5.555,239.23c-1.05,36.468 -0.132,73.956 -0.056,109.427c0.082,38.436 2.568,79.778 2.513,123.194c-0.358,281.365 3.89,661.101 12.911,1046.3c2.699,115.269 0.511,231.452 4.467,345.184c1.9,54.611 1.986,107.779 2.744,161.273c1.015,71.626 3.272,143.201 4.292,211.487c2.204,147.443 3.055,329.665 3.752,407.52c0.178,19.868 0.168,40.412 0.432,59.604c0.686,49.826 -0.665,96.786 -0.602,139.583c0.055,36.833 1.572,70.448 1.524,101.713c-0.109,71.188 1.167,126.901 0.647,162.455c-0.431,29.458 0.001,45.439 0.001,45.439Z" style="fill:#8e0115;"/><path d="M3007.22,6.725l-130.88,0.229c-0,-0 1.893,344.492 5.214,849.362c1.913,290.686 4.298,634.538 7.068,996.415c7.06,922.257 16.616,1961.58 27.197,2536.27c2.246,121.965 1.622,190.893 3.946,265.443c1.652,53 9.609,108.856 39.264,109.235c31.131,0.398 38.799,-42.025 44.281,-105.1c8.867,-102.026 13.704,-240.037 13.596,-266.951c-1.703,-424.768 -8.676,-1416.89 -13.159,-2535.08c-1.446,-360.65 -1.389,-702.681 -0.728,-992.283c1.163,-510.102 4.201,-857.54 4.201,-857.54Z" style="fill:#2d0007;"/><path d="M3397.94,4840.57l160.441,1.035c0,0 -0.066,-194.821 0.543,-292.231c1.513,-241.878 7.858,-845.92 13.336,-1155.47c8.242,-465.754 5.335,-1072.64 11.142,-1400.81c6.795,-383.971 34.298,-1938.11 34.51,-1950.11c0.218,-12.335 0.76,-36.951 0.76,-36.951l-77.266,0.108c-0,-0 -31.89,277.209 -53.151,697.323c-0.945,18.657 -1.228,69.119 -2.125,88.214c-6.497,138.383 -7.726,270.798 -12.072,429.414c-2.894,105.639 -3.946,215.228 -8.48,328.065c-9.19,228.694 -16.513,469.054 -25.023,703.123c-7.488,205.927 -0.893,410.359 -7.317,602.267c-10.502,313.694 -19.714,586.538 -23.158,803.548c-1.442,90.799 -1.125,170.156 -3.043,234.32c-9.294,310.827 -9.097,948.163 -9.097,948.163Z" style="fill:#390008;"/><path d="M4073.98,4839.99l-515.599,1.615c0,0 -0.334,-441.016 2.589,-661.497c1.729,-130.395 -0.442,-310.092 3.159,-507.442c2.898,-158.774 2.476,-328.483 6.589,-492.306c1.104,-43.953 0.244,-87.341 1.62,-130.099c0.975,-30.317 -0.265,-60.086 0.874,-89.521c1.556,-40.217 -0.576,-79.406 1.304,-117.46c1.555,-31.476 -1.355,-62.01 0.727,-91.624c2.965,-42.174 -1.349,-81.957 1.125,-119.44c0.291,-4.409 1.293,-396.164 9.93,-821.815c3.494,-172.218 -0.454,-349.541 4.363,-509.389c3.45,-114.471 6.466,-218.672 7.346,-306.285c0.416,-41.399 8.717,-260.45 8.217,-294.378c-0.541,-36.699 2.046,-74.436 1.914,-111.144c-0.172,-47.524 2.532,-93.337 2.539,-132.963c0.006,-38.337 1.442,-70.83 1.544,-93.569c0.107,-23.663 0.254,-43.068 0.375,-66.042c0.065,-12.448 0.193,-31.262 0.269,-43.219c0.171,-26.882 -0.09,-51.742 0.362,-77.134c0.531,-29.812 3.82,-72.216 4.019,-100.035c0.101,-13.956 0.284,-26.109 0.487,-36.204c0.44,-21.831 0.976,-34.037 0.976,-34.037l472.481,-0.808c-0,-0 -1.711,576.171 -2.764,865.155c-1.592,436.736 -10.729,2942.86 -12.074,3311.76c-0.796,218.371 -2.372,657.884 -2.372,657.884Z" style="fill:#880114;"/><path d="M4073.98,4839.99l484.172,-0.845c-0,0 15.629,-1246.52 28.941,-2326.33c6.884,-558.445 12.965,-1072.58 15.567,-1347.21c3.673,-387.574 0.612,-1161.4 0.612,-1161.4l-511.809,0.893l-17.483,4834.89Z" style="fill:#ad0119;"/><path d="M4074.49,4840.03l104.993,-0.25l35.628,-4834.08l-125.357,-0.261l-15.264,4834.59Z" style="fill:#55010d;"/><path d="M4603.5,4.35l306.579,-0.444l9.082,4834.8l-360.967,0.447l45.306,-4834.81Z" style="fill:#4f000d;"/><path d="M4754.2,4837.18c0,0 -1.418,-84.48 -1.798,-200.991c-0.446,-136.94 -3.087,-338.966 -12.459,-569.906c-19.682,-484.961 -39.953,-1100.97 -45.527,-1500.32c-2.07,-148.285 -11.787,-318.137 -14.968,-504.918c-7.33,-430.525 -7.945,-925.142 -0.292,-1307.82c3.172,-158.589 11.231,-283.399 15.428,-372.285c5.148,-109.023 18.532,-181.44 32.516,-231.017c7.058,-25.02 34.129,-66.254 51.391,-66.45c28.011,-0.319 50.382,47.564 63.008,75.757c16.474,36.786 22.934,62.942 37.696,125.154c14.05,59.214 27.309,144.423 27.309,144.423l13.94,4408.99l-166.244,-0.614Z" style="fill:#ae011a;"/><path d="M71.144,4846.19c-5.843,0.253 1.062,-82.092 0.335,-213.554c-0.525,-95.006 -3.07,-239.856 -0.835,-359.77c2.331,-125.029 1.728,-286.136 8.672,-455.858c1.926,-47.082 7.33,-94.832 10.025,-142.653c7.188,-127.566 4.119,-261.607 8.513,-397.708c1.461,-45.264 -2.37,-97.234 3.107,-143.417c3.704,-31.231 10.684,-82.967 18.855,-141.841c14.595,-105.155 32.992,-233.084 43.319,-307.637c11.464,-82.761 27.762,-195.662 34.479,-248.276c5.705,-44.686 3.749,-94.017 4.454,-141.04c0.787,-52.516 -1.587,-135.83 -0.908,-222.16c0.541,-68.673 4.096,-138.333 4.935,-202.538c4.335,-331.756 20.595,-643.521 39.54,-919.037c15.991,-232.558 32.168,-438.684 45.416,-598.121c17.567,-211.413 29.984,-340.734 29.984,-340.734l157.999,-0.251c0,0 13.934,310.295 23.44,545.048c7.934,195.929 21.657,430.115 32.262,660.9c12.673,275.77 22.711,545.832 37.88,728.316c46.459,558.883 47.56,1186.2 79.074,1693.36c15.524,249.83 21.831,479.926 27.943,672.23c10.226,321.764 14.611,534.45 14.611,534.45l-623.1,0.296Z" style="fill:#ec1634;"/><path d="M74.781,3226.02c0,0 -0.04,-21.55 0.909,-31.048c0.986,-9.867 2.37,-17.226 5.007,-28.151c6.55,-27.142 8.226,-78.619 9.228,-138.387c0.414,-24.688 2.944,-60.474 3.961,-84.831c0.87,-20.867 1.034,-40.288 2.138,-61.313c0.981,-18.672 1.97,-37.266 2.879,-55.237c2.553,-50.471 2.666,-118.186 6.869,-200.714c3.555,-69.789 5.398,-157.34 9.541,-236.29c3.37,-64.22 11.714,-157.482 18.026,-275.774c3.336,-62.52 6.791,-131.186 10.684,-204.167c3.062,-57.385 8.341,-120.272 10.82,-182.059c0.571,-14.238 0.449,-46.295 0.449,-46.295c-0,0 2.733,-100.763 6.762,-176.281c3.601,-67.498 9.104,-153.083 13.255,-229.709c1.856,-34.248 3.636,-88.086 5.323,-133.635c3.372,-91.057 5.914,-273.503 10.99,-411.191c2.928,-79.44 5.002,-219.332 15.1,-354.767c6.717,-90.097 14.36,-177.755 20.402,-238.507c4.185,-42.07 15.8,-125.076 15.853,-126.005l-215.264,0.791c0,0 8.116,183.592 11.773,453.205c0.685,50.485 1.317,104.99 1.899,160.136c4.978,471.416 9.262,1083.73 12.289,1334.65c2.708,224.49 2.157,476.985 5.673,673.461c4.43,247.496 -13.784,448.224 0.154,530.549c5.776,34.113 15.28,61.569 15.28,61.569Z" style="fill:#cb011e;"/><path id="Curtain---Split---Right" serif:id="Curtain - Split - Right" d="M27.681,14.635l-23.22,-0.403c0,-0 2.721,177.681 3.025,260.898c2.941,804.725 20.109,4567.85 20.109,4567.85l42.483,0.303c0.366,-0.055 -0.913,-4.559 -1.291,-14.366c-0.601,-15.596 1.867,-43.353 1.765,-79.815c-0.037,-13.163 0.885,-28.511 0.583,-43.866c-0.241,-12.256 0.747,-25.866 0.687,-38.655c-0.047,-10.079 -0.186,-23.506 -0.569,-36.358c-0.24,-8.059 -0.087,-15.369 -0.162,-23.165c-0.344,-35.599 -2.598,-126.984 -1.902,-190.434c1.207,-110.041 8.176,-319.763 12.652,-468.518c2.968,-98.633 -0.689,-194.021 -1.687,-264.514c-0.495,-34.943 -1.04,-56.74 -1.281,-85.117c-0.325,-38.221 -0.293,-95.859 -0.669,-144.206c-0.446,-57.21 -2.119,-107.856 -2.511,-140.96c-0.226,-19.055 0.155,-57.665 0.155,-57.665c-0,-0 1.009,-21.472 -0.585,-29.956c-1.502,-8.001 -4.541,-14.837 -6.222,-22.985c-2.638,-12.788 -8.819,-36.715 -10.794,-52.608c-1.693,-13.628 -3.013,-28.417 -3.367,-42.301c-0.947,-37.121 1.67,-75.957 1.869,-115.068c0.456,-89.483 3.161,-177.861 3.157,-267.402c-0.02,-382.971 -8.354,-759.711 -7.57,-1072.5c0.648,-258.773 -4.74,-473.44 -4.691,-612.948c0.044,-124.695 -3.386,-274.493 -5.434,-413.068c-2.226,-150.557 -3.139,-288.006 -4.544,-369.277c-0.454,-26.275 -2.445,-54.506 -2.508,-79.169c-0.028,-10.703 -1.15,-21.128 -1.178,-31.203c-0.041,-14.543 -1.723,-28.523 -1.765,-41.718c-0.034,-11.035 -1.391,-21.622 -1.426,-31.683c-0.016,-4.569 -0.554,-10.319 -0.813,-16.382c-0.625,-14.647 -1.381,-31.29 -1.972,-38.742c-0.2,-2.523 -0.324,-4.001 -0.324,-4.001Z" style="fill:#5f0808;"/></g><g id="Curtain---Right---Shadow" serif:id="Curtain - Right - Shadow"><path d="M726.393,4847.75l-42.483,0.074l-0.211,-120.689c-0.132,-75.627 1.771,-121.726 5.095,-123.467c2.918,-1.528 5.284,-15.51 5.256,-31.072c-0.027,-15.562 1.412,-34.506 3.198,-42.099c2.517,-10.696 4.664,-12.591 9.536,-8.416c3.992,3.421 8.702,40.554 12.899,101.692c3.636,52.967 6.634,125.03 6.661,160.141l0.049,63.836Z"/><path d="M1160.49,4846.99l-51.753,0.09l-0.093,-53.278c-0.073,-41.811 1.524,-53.804 7.42,-55.724c5.107,-1.663 8.465,-12.938 10.489,-35.216c1.637,-18.023 2.971,-50.913 2.964,-73.087c-0.007,-22.175 2.73,-85.177 6.083,-140.004c3.353,-54.827 7.943,-99.689 10.2,-99.693c2.257,-0.004 5.362,30.733 6.899,68.305c1.538,37.571 4.314,83.932 6.17,103.024c1.855,19.092 1.37,34.716 -1.079,34.72c-2.449,0.004 -4.501,16.078 -4.56,35.719c-0.06,19.641 1.417,33.622 3.282,31.067c1.864,-2.554 4.733,27.232 6.375,66.193c1.642,38.96 1.774,81.422 0.294,94.36l-2.691,23.524Z"/><path d="M1289.29,4846.77l-63.724,0.111l-0.139,-79.516l13.843,-0.024c10.264,-0.018 11.982,1.081 6.645,4.249c-5.819,3.455 -5.672,3.908 0.765,2.362c4.589,-1.102 7.865,-6.947 7.732,-13.794c-0.126,-6.535 1.798,-11.885 4.276,-11.89c2.478,-0.004 3.025,-2.021 1.215,-4.482c-1.809,-2.46 -0.759,-4.478 2.334,-4.484c3.209,-0.005 5.641,9.611 5.663,22.389c0.022,12.32 2.429,22.395 5.35,22.39c2.92,-0.005 5.32,5.919 5.333,13.166c0.013,7.246 2.415,14.416 5.338,15.934c2.924,1.518 5.328,9.696 5.342,18.174l0.027,15.415Z"/><path d="M1357.61,4846.65c-16.645,0.029 -16.651,0.019 -13.46,-19.84c1.756,-10.927 4.616,-150.029 6.356,-309.115c1.739,-159.086 5.009,-289.251 7.265,-289.255c2.257,-0.004 4.417,49.629 4.802,110.295c0.391,61.755 2.971,113.87 5.861,118.409c3.103,4.872 5.297,84.217 5.496,198.792l0.333,190.685l-16.653,0.029Z"/><path d="M1432.67,4846.52c-3.202,0.005 -5.342,-18.635 -5.392,-46.964c-0.045,-25.836 2.788,-56.079 6.295,-67.208c3.507,-11.129 8.308,-20.238 10.669,-20.242c2.362,-0.004 3.727,6.393 3.034,14.217c-0.719,8.113 1.539,15.005 5.254,16.043c4.278,1.195 6.532,12.112 6.566,31.809c0.043,24.446 -1.908,31.411 -10.555,37.679c-6.246,4.528 -10.598,13.234 -10.584,21.173c0.013,7.416 -2.366,13.488 -5.287,13.493Z"/><path d="M1572.07,4846.27c-14.518,0.018 -14.612,-0.181 -16.066,-33.826c-1.133,-26.213 0.451,-35.465 7.025,-41.03c5.16,-4.368 7.473,-11.626 5.901,-18.51c-1.423,-6.228 -1.411,-13.921 0.027,-17.097c2.083,-4.599 4.131,-4.498 10.075,0.499c5.542,4.659 7.484,19.599 7.551,58.109l0.09,51.837l-14.603,0.018Z"/><path d="M2137.14,4845.29l-45.037,0.079l-1.846,-26.884c-1.016,-14.786 -0.054,-26.883 2.136,-26.882c2.191,0 3.92,-36.117 3.843,-80.261c-0.099,-56.717 1.659,-80.772 5.992,-81.999c3.973,-1.125 7.532,-23.729 10.112,-64.227c2.189,-34.371 4.401,-232.837 4.915,-441.035c0.515,-208.199 1.437,-417.854 2.051,-465.901c0.614,-48.046 2.55,-341.363 4.302,-651.814c2.923,-517.998 3.55,-547.866 7.628,-362.876c2.444,110.871 4.772,651.631 5.173,1201.69l0.731,1000.11Z"/><path d="M2266.4,4845.06l-73.076,0.127l-0.794,-97.434c-0.437,-53.588 1.612,-109.533 4.554,-124.321c2.942,-14.789 5.699,-29.409 6.128,-32.49c0.429,-3.08 2.772,-5.604 5.205,-5.608c2.434,-0.005 4.401,-14.119 4.371,-31.366c-0.043,-24.888 1.589,-31.362 7.911,-31.373c6.253,-0.011 7.976,6.168 8.016,28.739c0.027,15.813 1.506,31.938 3.286,35.832c1.779,3.894 6.197,7.075 9.817,7.069c4.683,-0.008 7.609,15.69 10.147,54.443c1.962,29.95 3.608,78.329 3.659,107.508c0.057,32.383 2.162,53.05 5.403,53.045c2.921,-0.005 5.325,8.054 5.342,17.909l0.031,17.92Z"/><path d="M2425.71,4844.78l-47.282,0.083l2.921,-155.677c1.606,-85.623 4.952,-156.353 7.435,-157.179c2.484,-0.825 4.731,-31.068 4.995,-67.205c0.264,-36.138 2.182,-84.858 4.263,-108.269l3.782,-42.564l0.923,36.583c0.508,20.121 3.183,37.251 5.945,38.068c3.016,0.891 5.62,74.389 6.521,184.032c0.824,100.402 3.488,182.545 5.92,182.541c2.431,-0.004 4.456,20.151 4.499,44.79l0.078,44.797Z"/><path d="M2951.44,4843.87c-3.51,0.006 -5.296,-150.724 -5.269,-444.609c0.022,-244.54 1.792,-424.462 3.932,-399.827c2.14,24.635 4.788,201.022 5.883,391.971c1.096,190.948 1.716,370.866 1.379,399.817c-0.37,31.709 -2.726,52.642 -5.925,52.648Z"/><path d="M3259.44,4843.33c-2.921,0.005 -5.289,-8.558 -5.262,-19.03c0.035,-13.943 1.429,-17.243 5.207,-12.328c2.838,3.691 5.206,12.254 5.263,19.03c0.056,6.775 -2.287,12.323 -5.208,12.328Z"/><path d="M3453.83,4842.99c-6.688,0.012 -8.532,-4.809 -8.563,-22.384c-0.021,-12.319 2.351,-22.403 5.272,-22.408c3.034,-0.005 5.287,-13.449 5.255,-31.368c-0.03,-17.247 1.311,-31.36 2.98,-31.363c1.669,-0.003 6.453,2.868 10.632,6.381c5.043,4.239 7.615,16.284 7.649,35.825c0.044,25.217 -1.302,29.441 -9.382,29.455c-7.803,0.013 -9.078,3.112 -7.377,17.932c1.627,14.169 0.275,17.918 -6.466,17.93Z"/><path d="M4029.45,4841.98l-31.862,0.056l-1.282,-734.681c-0.831,-475.752 0.548,-734.684 3.911,-734.69c3.259,-0.006 6.218,67.971 7.946,182.537c1.514,100.4 2.517,190.61 2.229,200.466c-0.288,9.856 -0.158,39.086 0.288,64.956c0.446,25.87 3.374,82.31 6.507,125.423c3.133,43.112 6.896,144.908 8.364,226.214c1.483,82.168 0.047,191.491 -3.234,246.133c-4.512,75.145 -4.433,98.716 0.335,100.048c4.619,1.29 6.309,43.467 6.517,162.64l0.281,160.898Z"/><path d="M4442.73,4829.29c-10.517,0.018 -9.701,8.999 -10.228,-292.638c-0.292,-167.543 1.402,-304.627 3.765,-304.631c2.362,-0.004 4.323,-108.657 4.356,-241.45c0.033,-132.793 1.65,-245.693 3.594,-250.888c3.093,-8.264 4.502,-8.632 11.271,-2.942c6.617,5.562 7.318,31.958 4.847,182.556c-1.589,96.829 -3.229,286.929 -3.646,422.443c-0.416,135.514 -1.129,303.338 -1.585,372.944c-0.807,123.273 -2.029,114.588 -12.374,114.606Z" style="fill:#ec1634;"/><path d="M3453.12,4699.64c-1.405,0.003 -4.019,-4.886 -5.809,-10.864c-1.79,-5.978 -0.728,-14.548 2.36,-19.044c4.597,-6.694 5.649,-4.727 5.808,10.865c0.107,10.472 -0.954,19.041 -2.359,19.043Z"/><path d="M1442.97,4662.83c-3.578,4.687 -5.178,-3.126 -5.274,-25.75c-0.08,-18.711 2.113,-32.482 5.172,-32.487c2.934,-0.005 5.294,11.518 5.274,25.749c-0.02,14.168 -2.348,28.787 -5.172,32.488Z"/><path d="M3454.31,4617.47l-2.001,12.732l-4.347,-12.52c-2.39,-6.886 -2.867,-13.773 -1.058,-15.304c1.808,-1.531 4.665,-1.627 6.347,-0.212c1.683,1.414 2.159,8.301 1.059,15.304Z"/><path d="M1573.73,4622.28c-1.063,0.001 -3.469,-9.347 -5.346,-20.775c-1.878,-11.428 -3.432,-31.585 -3.455,-44.792c-0.023,-13.207 2.347,-24.018 5.268,-24.023c3.186,-0.005 5.342,17.91 5.389,44.789c0.043,24.638 -0.792,44.799 -1.856,44.801Z"/><path d="M711.282,4490.81c-4.395,8.345 -5.226,8.006 -11.48,-4.674c-5.071,-10.282 -5.339,-17.954 -1.083,-30.96c3.112,-9.511 5.99,-28.38 6.396,-41.932c0.545,-18.18 2.071,-12.422 5.821,21.966c3.01,27.592 3.151,50.275 0.346,55.6Z"/><path d="M3998.58,3208.04c-1.164,8.009 -2.14,1.46 -2.168,-14.556c-0.028,-16.015 0.925,-22.568 2.117,-14.563c1.192,8.006 1.215,21.109 0.051,29.119Z"/><path d="M3822.79,2845.49c-1.01,15.401 -1.881,2.803 -1.934,-27.995c-0.054,-30.799 0.772,-43.4 1.836,-28.002c1.064,15.397 1.108,40.596 0.098,55.997Z"/><path d="M3826.12,1721.22c-1.047,12.847 -1.932,1.183 -1.967,-25.919c-0.036,-27.103 0.821,-37.614 1.902,-23.359c1.082,14.256 1.111,36.43 0.065,49.278Z"/><path d="M3826.55,1581.06c-2.524,0.005 -4.797,-120.851 -5.055,-268.777c-0.308,-175.993 1.362,-268.789 4.835,-268.795c3.481,-0.007 5.218,92.38 5.055,268.777c-0.136,147.833 -2.312,268.791 -4.835,268.795Z"/><path d="M4583.8,1463.27c-1.46,0.003 -2.87,-0.499 -3.133,-1.114c-0.263,-0.616 -1.612,-11.216 -2.998,-23.557c-1.385,-12.34 -0.154,-27.462 2.736,-33.603c4.191,-8.902 5.336,-4.129 5.653,23.552c0.218,19.095 -0.798,34.72 -2.258,34.722Z"/><path d="M4584.74,1374.79c-1.256,5.546 -2.3,1.012 -2.319,-10.075c-0.019,-11.088 1.008,-15.625 2.284,-10.084c1.275,5.542 1.291,14.613 0.035,20.159Z"/><path d="M2138.2,1368.98c-2.921,0.005 -5.321,-6.039 -5.334,-13.43c-0.013,-7.392 2.366,-13.444 5.287,-13.449c2.921,-0.005 5.321,6.039 5.334,13.43c0.013,7.392 -2.366,13.444 -5.287,13.449Z"/><path d="M4590.04,1316.54c-1.164,8.01 -2.14,1.46 -2.168,-14.556c-0.028,-16.015 0.925,-22.568 2.117,-14.563c1.192,8.006 1.215,21.109 0.051,29.119Z"/><path d="M4586.76,1089.2c-1.932,52.665 -5.181,89.154 -7.381,82.889c-2.161,-6.156 -4.185,-138.816 -4.497,-294.799c-0.376,-187.762 -2.678,-297.917 -6.812,-325.951c-4.93,-33.439 -4.847,-44.555 0.398,-52.855c4.753,-7.521 5.746,-24.387 3.491,-59.304c-1.734,-26.836 -4.652,-69.717 -6.486,-95.291c-2.176,-30.341 -1.413,-47.503 2.197,-49.392c3.061,-1.603 5.883,-20.85 6.32,-43.104c0.434,-22.115 -1.085,-87.075 -3.375,-144.356l-4.164,-104.147l14.037,-0.025c14.006,-0.024 14.037,0.055 14.1,35.814c0.036,20.905 -2.151,35.842 -5.248,35.847c-2.95,0.005 -5.29,11.955 -5.264,26.888c0.026,14.783 2.223,26.875 4.882,26.87c2.764,-0.005 5.213,49.718 5.719,116.093c0.649,85.252 -0.788,116.976 -5.409,119.395c-4.805,2.516 -5.437,77.579 -2.676,317.321c1.99,172.714 2.065,356.362 0.168,408.107Z"/><path d="M2137.68,1073.31c-3.33,0.006 -5.045,-23.794 -4.6,-63.828c0.684,-61.423 0.864,-62.398 4.739,-25.767c2.215,20.939 4.285,49.662 4.599,63.828c0.322,14.482 -1.752,25.762 -4.738,25.767Z"/><path d="M3825.81,1007.65c-4.148,0.007 -5.043,-130.484 -3.174,-462.531c1.432,-254.398 3.813,-480.183 5.292,-501.744c1.487,-21.693 5.068,-39.207 8.016,-39.212c3.507,-0.007 4.406,42.498 2.629,124.309c-1.485,68.375 -3.814,183.789 -5.177,256.476c-1.362,72.687 -2.326,242.528 -2.143,377.425c0.236,173.685 -1.352,245.27 -5.443,245.277Z"/><path d="M2137.31,858.286c-3.035,0.005 -5.334,-13.43 -5.365,-31.349c-0.032,-17.919 2.221,-31.363 5.255,-31.368c3.035,-0.005 5.334,13.43 5.365,31.349c0.032,17.919 -2.221,31.363 -5.255,31.368Z"/><path d="M2140.57,785.24c-0.931,0.788 -3.343,-41.238 -5.359,-93.391c-2.017,-52.154 -3.898,-227.549 -4.181,-389.767l-0.515,-294.942l23.897,-0.046l-1.259,213.914c-0.712,121.015 -3.328,214.537 -6.026,215.349c-2.698,0.812 -4.788,76.513 -4.816,174.442c-0.027,95.155 -0.81,173.653 -1.741,174.441Z"/><path d="M3654.2,628.39c-1.159,7.954 -2.113,0.351 -2.12,-16.896c-0.006,-17.247 0.942,-23.755 2.108,-14.463c1.166,9.293 1.171,23.404 0.012,31.359Z"/><path d="M1290.43,608.896c-1.147,0.002 -3.543,-3.182 -5.322,-7.076c-1.78,-3.895 -3.218,-17.499 -3.195,-30.233c0.022,-12.734 2.352,-26.181 5.177,-29.881c3.546,-4.646 5.181,4.713 5.282,30.229c0.08,20.327 -0.794,36.959 -1.942,36.961Z"/><path d="M1290.28,531.527c-1.762,1.492 -3.021,-1.152 -2.799,-5.875c0.246,-5.219 1.502,-6.282 3.204,-2.712c1.539,3.231 1.357,7.096 -0.405,8.587Z"/><path d="M1296.31,499.507c-1.342,1.136 -4.322,-10.575 -6.624,-26.024c-2.301,-15.45 -6.449,-81.507 -9.218,-146.795c-2.769,-65.288 -6.292,-163.557 -7.829,-218.376l-2.795,-99.67l33.443,-0.058l-2.269,244.429c-1.248,134.436 -3.366,245.358 -4.708,246.494Z"/><path d="M3653.91,478.218c-1.205,6.777 -2.21,1.235 -2.234,-12.316c-0.024,-13.551 0.962,-19.097 2.191,-12.323c1.228,6.773 1.248,17.861 0.043,24.639Z"/><path d="M1125.26,376.236c-5.083,0.009 -7.707,-16.771 -10.331,-66.058c-1.935,-36.339 -3.63,-107.815 -3.766,-158.835c-0.136,-51.021 -2.626,-98.018 -5.533,-104.437c-2.907,-6.42 -5.295,-17.589 -5.308,-24.82c-0.021,-12.368 1.246,-13.15 21.365,-13.185l21.387,-0.037l-2.28,139.997c-1.255,76.998 -3.73,159.654 -5.5,183.68c-2.294,31.116 -5.181,43.687 -10.034,43.695Z"/><path d="M3915.42,362.407c-10.439,0.018 -10.622,-2.992 -10.93,-179.172c-0.308,-176.628 -0.159,-179.191 10.384,-179.209c10.363,-0.018 10.709,2.814 11.072,90.696c0.206,49.893 0.076,97.771 -0.289,106.395c-0.366,8.624 -0.43,48.439 -0.143,88.476c0.501,69.91 0.101,72.796 -10.094,72.814Z"/><path d="M1977.02,300.833c-3.095,1.621 -5.316,-2.93 -5.33,-10.925c-0.013,-7.537 2.366,-13.708 5.287,-13.713c2.921,-0.005 5.319,4.911 5.329,10.925c0.011,6.015 -2.368,12.186 -5.286,13.713Z"/><path d="M1470.82,262.519c-1.329,4.314 -2.428,0.788 -2.443,-7.835c-0.015,-8.624 1.072,-12.154 2.415,-7.844c1.344,4.309 1.356,11.365 0.028,15.679Z"/><path d="M1976.94,253.796c-2.921,0.005 -5.319,-5.031 -5.33,-11.19c-0.011,-6.16 2.37,-11.204 5.291,-11.209c2.92,-0.005 5.319,5.031 5.33,11.19c0.01,6.16 -2.37,11.204 -5.291,11.209Z"/><path d="M3659.24,234.061c-1.588,13.571 -2.005,13.853 -6.126,4.149c-2.432,-5.727 -3.626,-21.852 -2.653,-35.834c0.973,-13.981 4.156,-27.09 7.074,-29.131c3.436,-2.403 2.964,-4.506 -1.338,-5.97c-3.654,-1.244 -6.649,-5.971 -6.657,-10.505c-0.008,-4.535 2.78,-18.529 6.196,-31.098c3.997,-14.707 7.743,-20.823 10.51,-17.159c2.364,3.132 4.357,18.32 4.429,33.753c0.072,15.432 -2.849,32.332 -6.491,37.555c-5.297,7.596 -5.293,9.899 0.02,11.512c3.653,1.109 6.652,7.896 6.664,15.082c0.013,7.186 -2.215,13.07 -4.951,13.075c-2.735,0.004 -5.74,6.561 -6.677,14.571Z"/><path d="M1475.47,223.313c-10.642,0.018 -11.134,-1.797 -9.256,-34.119c1.269,-21.837 -0.129,-35.235 -3.881,-37.182c-3.266,-1.696 -6.331,-17.826 -6.917,-36.41c-0.58,-18.351 -0.664,-49.997 -0.187,-70.325l0.867,-36.96l37.172,-0.065l0.076,57.117c0.041,31.415 -1.434,79.799 -3.279,107.521c-3.157,47.427 -4.018,50.404 -14.595,50.423Z"/><path d="M1593.15,202.964c-1.102,12.313 -2.47,1.893 -3.04,-23.156c-0.691,-30.339 -3.127,-46.126 -7.297,-47.291c-3.444,-0.962 -8.126,-15.737 -10.406,-32.834c-2.279,-17.096 -4.291,-44.692 -4.47,-61.322l-0.325,-30.238l42.483,-0.075l0.093,53.758c0.052,29.566 -1.787,53.76 -4.087,53.764c-2.299,0.004 -4.716,6.056 -5.371,13.449c-0.655,7.393 1.237,13.437 4.204,13.432c2.968,-0.005 5.407,6.946 5.422,15.447c0.015,8.771 -3.267,17.018 -7.588,19.068c-4.516,2.141 -8.43,12.721 -9.618,25.998Z"/><path d="M1976.88,222.438c-3.311,0.005 -5.356,-26.035 -5.431,-69.163c-0.072,-41.282 -2.264,-70.285 -5.436,-71.931c-2.923,-1.518 -5.343,-18.768 -5.377,-38.334c-0.062,-35.356 0.022,-35.573 13.794,-35.597l13.856,-0.025l-2.974,32.484c-1.636,17.866 -4.53,50.125 -6.431,71.688c-3.036,34.425 -2.406,39.202 5.174,39.189c4.747,-0.009 8.635,2 8.639,4.464c0.004,2.464 -2.382,4.484 -5.303,4.489c-3.034,0.006 -5.287,13.449 -5.255,31.368c0.031,17.919 -2.221,31.362 -5.256,31.368Z"/><path d="M2950.62,211.405c-1.073,1.029 -2.183,-38.279 -2.466,-87.351c-0.282,-49.072 -1.539,-95.771 -2.791,-103.777c-1.661,-10.614 -0.189,-14.559 5.438,-14.569c6.613,-0.011 7.29,14.548 4.742,101.907c-1.635,56.056 -3.85,102.762 -4.923,103.79Z"/></g></g></g></svg>