<?xml version="1.0" encoding="UTF-8" standalone="no"?><!DOCTYPE svg PUBLIC "-//W3C//DTD SVG 1.1//EN" "http://www.w3.org/Graphics/SVG/1.1/DTD/svg11.dtd"><svg width="100%" height="100%" viewBox="0 0 985 1434" version="1.1" xmlns="http://www.w3.org/2000/svg" xmlns:xlink="http://www.w3.org/1999/xlink" xml:space="preserve" xmlns:serif="http://www.serif.com/" style="fill-rule:evenodd;clip-rule:evenodd;stroke-linejoin:round;stroke-miterlimit:2;"><rect id="Base-Tree---Favicon---Circle---Transparent-BG" serif:id="Base Tree - Favicon - Circle - Transparent BG" x="0" y="0" width="984.336" height="1433.96" style="fill:none;"/><g><path d="M772.068,1201.76c-0.033,0.111 -0.061,0.169 -0.082,0.17c0.027,-0.056 0.055,-0.113 0.082,-0.17Zm-222.398,184.973c-0.213,1.049 -0.392,1.446 -0.521,0.982c0.175,-0.327 0.349,-0.654 0.521,-0.982Zm-111.866,-577.746c-0,-0 28.79,-51.263 30.811,-69.206c1.27,-11.269 3.757,-24.094 5.171,-35.67c1.536,-12.577 0.832,-34.329 2.22,-38.469c1.861,-5.55 17.61,0.116 27.595,0.35c10.67,0.25 26.317,-6.044 26.317,-6.044c0,0 21.518,-7.168 25.156,-0.479c2.597,4.777 0.69,24.786 2.115,37.225c3.257,28.437 -0.513,94.537 33.604,130.777c21.812,36.607 86.706,54.15 141.051,55.539c50.328,1.286 53.556,-4.549 94.626,-11.167c0,0 50.762,8.977 64.031,24.126c-42.93,-16.023 -83.037,-15.069 -119.996,4.8c8.163,8.688 31.976,18.038 68.462,27.923c16.461,10.687 35.147,25.088 57.291,45.262l-55.473,-20.635c-15.161,-4.752 -28.033,-6.896 -37.753,-5.446c11.92,21.882 21.365,46.619 30.218,72.038c-2.57,13.738 -37.662,-43.321 -51.461,-78.712c-5.813,-14.91 -35.259,-19.432 -51.649,-25.046l-41.879,-5.139c-9.414,0.7 40.048,85.722 70.414,89.788c-30.939,1.357 -59.355,-17.406 -84.803,-59.828c-18.12,-29.02 -51.363,-46.712 -91.523,-59.224c-3.716,0.277 -5.83,33.45 8.976,65.365c15.96,34.403 49.852,58.056 58.806,65.784c16.863,14.554 88.466,45.195 144.269,42.919c44.538,-1.817 63.754,29.731 65.244,40.543c0.477,3.465 -33.709,-22.087 -47.522,-25.354c-15.487,-3.662 -53.959,-0.113 -53.959,-0.113c0,0 35.462,40.008 45.819,58.497c9.769,17.441 18.325,40.549 20.751,56.234l-41.085,-50.594c0.449,31.024 -4.257,51.542 -11.58,66.729c1.078,-3.571 8.195,-62.305 -2.014,-82.226c-16.318,-31.839 -40,-47.559 -95.953,-63.021c-0,-0 18.329,30.295 24.272,47.718c6.179,18.112 12.8,60.953 12.8,60.953l-42.6,-71.117c-0.595,-0.993 -3.935,-10.132 -5.036,-12.006c-4.155,-7.074 -11.497,-15.757 -18.328,-23.399c-9.801,-10.964 -35.443,-30.379 -35.443,-30.379c0,-0 -9.571,65.929 2.539,90.605c14.654,29.863 44.801,78.702 90.122,96.471c8.067,3.163 6.981,12.065 12.044,14.886c-18.15,-7.205 -36.982,-16.465 -59.263,-36.135l6.551,32.529c-2.818,11.682 -4.483,24.352 -5.528,37.554c-2.789,-7.371 -4.929,-18.464 -6.551,-32.529l-11.891,-48.639c-21.889,-16.326 -47.909,-42.696 -50.836,-70.326c0.003,-0.072 -0.003,-0.131 -0.018,-0.177c0.006,0.059 0.012,0.118 0.018,0.177c-0.148,3.493 -22.025,36.21 -29.704,47.428c-7.929,11.582 -13.533,45.812 -9.05,46.07c2.286,25.711 12.885,44.977 29.309,59.725c18.956,28.141 23.862,45.467 25.182,60.032c-10.768,-22.981 -22.259,-42.283 -36.655,-46.797c3.454,37.217 1.518,73.613 -16.365,107.576c1.309,-6.429 3.915,-37.348 4.4,-44.781c0.968,-14.812 -0.099,-57.193 -0.114,-57.764c0,-0.001 0,-0.003 -0,-0.006c-0,0 0,0.002 0,0.006c-0.013,0.153 -2.533,-12.397 -5.642,-20.221c-4.248,-10.689 -13.077,-31.168 -19.843,-43.921c-9.274,5.541 -21.14,32.199 -29.08,55.815c-6.051,-7.834 -5.92,-19.337 -2.424,-32.836c0,-0 28.808,-68.862 31.996,-72.54c2.435,-2.809 4.216,-10.913 7.043,-17.032c5.137,-11.122 24.163,-41.034 32.904,-60.226c10.157,-22.297 18.852,-59.902 9.541,-95.631l-52.976,-99.234l-8.437,-5.709c0.795,10.8 2.3,21.284 5.059,27.755c10.764,25.25 20.081,47.984 20.364,79.76c0.248,27.779 -10.947,47.452 -23.82,73.991c-7.137,17.265 -6.898,44.887 -0.71,80.863c-8.084,-14.934 -15.009,-25.941 -15.009,-25.941c-0,0 -5.82,-17.732 -7.269,-27.855l-39.989,44.123c5.207,-17.327 29.191,-37.135 39.927,-61.093c9.849,-21.978 16.61,-45.036 20.828,-68.984c2.019,-32.311 -9.584,-64.279 -24.438,-95.712c-27.247,19.585 -42.055,90.402 -53.627,157.993c-9.235,-24.644 -11.157,-58.491 1.604,-110.815c-30.355,18.201 -54.774,39.908 -62.976,71.19c-10.345,18.941 -7.686,51.016 15.397,93.761c-2.738,15.47 -27.619,-33.994 -31.319,-55.747c-0.423,-2.487 -21.086,65.033 -22.864,61.008c-5.164,-22.325 5.739,-77.894 5.739,-77.894c4.701,4.932 15.326,-31.176 16.878,-50.995c-35.957,8.974 -64.706,25.056 -80.101,54.305c-6.437,-13.503 6.248,-30.614 25.919,-49.044l57.114,-27.238c2.002,4.836 49.157,-28.067 72.079,-52.269c11.047,-11.664 33.212,-55.576 39.915,-69.109l-18.022,-12.194c-4.854,5.239 -13.581,14.847 -18.156,21.028c-22.48,53.65 -53.264,78.297 -89.172,85.047c-0,0 25.568,-17.625 35.025,-31.495c11.858,-17.39 36.123,-72.846 36.123,-72.846c-1.724,-2.201 -82.918,15.226 -96.33,44.309c-11.939,25.89 -23.652,89.93 -35.517,81.056c0.757,-17.948 4.129,-39.352 15.486,-71.312c4.882,-7.577 -69.623,22.359 -80.426,34.873c-4.266,4.94 24.151,-38.252 37.941,-48.22c11.658,-8.427 34.912,-14.29 44.189,-19.795c6.705,-3.979 15.297,-17.646 15.297,-17.646c-38.734,-13.178 -74.064,-8.162 -107.311,7.983c-0,-0 27.972,-24.117 43.583,-28.005c19.696,-4.904 47.732,0.576 74.595,-1.422c28.892,-2.149 65.996,-4.661 86.069,-14.657c5.72,-2.848 18.691,-12.423 18.691,-12.423Zm320.871,191.815c2.227,-0.098 4.467,-0.3 6.719,-0.605c-2.099,0.746 -4.351,0.922 -6.719,0.605Zm-44.204,229.443c0.517,0.205 1.034,0.409 1.55,0.611c-0.576,-0.147 -1.088,-0.354 -1.55,-0.611Z" style="fill:#e7cba8;"/><path d="M426.422,180.662c27.761,16.172 61.327,36.549 82.63,62.007l16.733,-66.385l10.54,61.59c16.239,-14.872 39.662,-27.545 65.013,-39.628l-61.549,61.174l-3.243,67.035c40.786,-31.021 85.701,-48.93 133.491,-57.71c-61.797,30.659 -111.759,62.477 -126.415,97.754l-5.971,30.254c0,0 3.257,47.846 4.774,70.144c1.444,21.214 9.931,52.6 8.07,62.855c-0.782,4.307 -9.932,0.013 -17.206,-1.067c-1.368,-0.203 -7.183,0.515 -8.233,0.703c-12.326,2.209 -6.323,1.1 -18.463,1.469c-12.605,0.385 -30.49,4.327 -32.323,-3.793c-3.292,-14.581 -0.399,-80.945 -1.043,-102.871c-1.08,-36.8 -116.98,-75.988 -108.723,-81.588c31.761,4.357 70.39,19.926 114.989,45.24l1.622,-33.518c4.969,-24.303 -49.836,-62.91 -112.336,-100.086c37.294,8.566 73.412,25.049 123.098,63.955l2.801,-57.894l-68.256,-79.64Z" style="fill:#e7cba8;"/><path d="M405.629,371.454l-79.324,-44.215l87.227,19.329c-42.14,-73.399 -112.594,-83.57 -187.119,-54.979c43.771,92.341 107.619,110.603 179.216,79.865Z" style="fill:#e7cba8;"/><path d="M535.975,118.221l-20.527,81.657c-51.247,-58.866 -41.047,-126.035 25.913,-192.969c60.672,71.738 54.148,139.548 -1.306,198.286l-4.08,-86.974Z" style="fill:#e7cba8;"/><path d="M634.23,172.625l-55.543,34.517c4.156,-70.081 50.708,-115.605 126.282,-126.153c-4.53,76.51 -38.784,125.304 -110.343,139.317l39.604,-47.681Z" style="fill:#e7cba8;"/><path d="M714.698,247.754l-79.95,25.077c20.717,-58.915 67.789,-95.274 161.895,-91.38c-22.09,104.315 -78.888,126.061 -150.489,112.59l68.544,-46.287Z" style="fill:#e7cba8;"/><path d="M340.025,232.813l59.822,48.335c-80.79,9.479 -132.373,-36.72 -138.919,-126.524c74.72,3.159 132.072,30.706 152.12,110.63l-73.023,-32.441Z" style="fill:#e7cba8;"/><path d="M441.218,209.63l-30.682,-51.064l52.152,35.569c-3.735,-78.146 -43.901,-126.329 -113.714,-133.575c1.476,89.203 38.52,130.395 92.244,149.07Z" style="fill:#e7cba8;"/><path d="M542.65,577.76c5.915,6.498 21.221,9.088 16.076,-1.252c-0.911,-1.83 1.622,-11.294 -1.936,-14.056c-2.6,-2.017 -4.572,-9.116 -8.675,-12.564c-1.956,-1.644 -10.81,-3.139 -13.166,-3.116c-2.004,0.02 -13.816,4.382 -12.962,5.62c5.783,8.376 5.864,15.308 3.82,18.982c-3.096,5.569 14.289,3.58 16.843,6.386Z" style="fill:#b8470b;"/><path d="M453.204,587.877c1.004,-0.377 11.424,-2.539 16.688,-2.778c8.122,-0.368 11.986,10.074 11.976,12.919c-0.019,5.332 -0.643,11.504 -5.122,14.341c-1.832,1.16 -6.862,8.673 -10.528,12.178c-4.092,3.912 -12.173,11.804 -14.024,11.296c-13.356,-3.67 -21.922,-39.34 1.01,-47.956Z" style="fill:#b8470b;"/><path d="M814.332,612.792c2.047,-3.754 6.762,-7.034 11.601,-9.469c7.259,-3.652 13.772,-12.378 13.772,-12.378c1.441,-0.005 6.115,17.141 5.9,22.459c-0.154,3.819 2.422,16.472 2.983,20.294c0.631,4.289 12.091,26.28 1.559,28.276c-23.333,4.422 -32.086,-23.815 -36.494,-36.127c-0,0 -1.368,-9.301 0.679,-13.055Z" style="fill:#b8470b;"/><path d="M806.373,529.959c4.609,4.159 7.013,8.303 9.925,11.205c3.277,3.265 9.271,7.416 12.922,13.258c3.298,5.278 2.605,13.028 5.806,17.181c3.68,4.773 2.153,13.943 0.749,18.113c-1.092,3.241 -9.176,6.909 -9.176,6.909c-0,0 -11.894,12.069 -16.021,8.265c-2.389,-2.202 -5.072,-5.149 -7.85,-9.615c-3.642,-5.854 -4.431,-9.087 -10.213,-13.216c-1.436,-1.026 -1.778,-14.246 -0.749,-18.114c2.31,-8.683 14.607,-33.986 14.607,-33.986Z" style="fill:#b8470b;"/><path d="M711.185,563.208c0,-0 -3.41,-21.263 -1.872,-29.173c0.287,-1.478 0.983,-7.581 1.53,-11.364c0.862,-5.95 15.405,-9.675 3.637,-24.336c-1.248,-1.554 -14.145,-15.725 -4.047,-24.307c2.552,-2.169 10.391,5.763 13.064,6.377c5.203,1.196 16.431,10.121 24.527,16.011c9.445,6.87 19.65,12.796 26.127,12.754c5.504,-0.035 15.279,4.723 22.861,11.161c2.023,1.718 1.784,4.612 -3.129,14.62c-4.797,9.769 -3.252,25.942 -7.857,32.497c-2.66,3.785 -24.959,-0.073 -30.923,-2.985c-16.861,-8.231 -43.918,-1.255 -43.918,-1.255Z" style="fill:#b8470b;"/><path d="M762.907,577.975c0,0 23.464,64.07 18.336,71.555c-5.128,7.484 -50.089,-29.734 -50.089,-29.734c2.885,-14.683 1.405,-31.793 -4.458,-51.34c12.15,-1.441 24.241,0.588 36.211,9.519Z" style="fill:#b8470b;"/><path d="M720.096,616.654c-11.715,7.944 -29.72,-7.379 -28.121,-10.377c-0,0 4.013,-18.882 6.302,-22.053c3.167,-4.386 19.112,0.9 22.117,6.285c3.295,5.904 -0.298,26.145 -0.298,26.145" style="fill:#b8470b;"/><path d="M725.001,628.778c11.471,5.995 45.518,28.637 49.138,24.694l-61.662,17.946c-23.262,-8.488 -26.147,-16.018 -29.956,-32.06c0.741,2.602 32.543,-15.775 42.48,-10.58Z" style="fill:#b8470b;"/><path d="M714.295,738.243c-9.64,-1.341 -4.723,-22.364 2.382,-28.909c1.92,-1.768 1.945,-10.673 4.517,-10.543c12.502,0.628 66.354,-2.717 83.289,13.375c4.628,4.397 5.24,18.857 -2.32,22.365c-9.108,4.226 -20.666,2.306 -33.211,4.554c-7.942,1.423 -49.89,-0.178 -54.657,-0.842Z" style="fill:#b8470b;"/><path d="M221,1216.65c0.825,5.318 -14.91,5.752 -21.403,2.673c-11.096,-5.261 -40.816,-18.098 -45.173,-34.243c-1.631,-6.045 -8.519,-36.654 -8.519,-36.654c0,-0 -8.398,-28.145 -14.619,-36.76c-44.215,-61.215 -86.665,-104.93 -106.296,-135.369c-14.834,-23.002 -18.816,-52.864 -15.13,-76.641c3.687,-23.776 19.096,-51.309 37.758,-66.28c18.563,-14.892 46.055,-26.588 73.674,-26.112c27.451,0.473 45.502,7.081 63.736,19.351c60.318,40.589 179.916,205.813 266.356,299.69l-112.8,-4.984c0,-0 -49.331,-1.014 -73.359,7.863c-36.676,13.55 -49.734,51.962 -44.225,87.466Zm-98.761,-375.904c-42.926,-0.74 -78.377,33.412 -79.117,76.216c-0.74,42.804 33.51,78.156 76.436,78.895c42.926,0.739 78.377,-33.412 79.117,-76.217c0.74,-42.804 -33.51,-78.155 -76.436,-78.894Z" style="fill:#b8470b;"/><path d="M101.133,1393.6l-0.072,-85.216c1.587,-15.633 39.674,-92.41 48.785,-79.478c27.855,39.532 97.171,39.088 103.728,33.434c9.17,-7.908 6.094,-21.294 -3.063,-42.585c-22.437,-52.163 34.68,-63.203 58.055,-63.431c48.694,-0.475 234.757,-0.117 234.757,-0.117c18.907,1.777 28.826,13.425 30.475,33.745l0.106,90.95l103.309,0.117c9.034,2.806 15.337,8.78 18.757,18.094l0.028,94.298l-594.865,0.189Zm407.036,-201.732c-12.44,0.003 -22.537,10.784 -22.533,24.059c0.004,13.275 10.107,24.05 22.547,24.047c12.44,-0.003 22.536,-10.783 22.532,-24.059c-0.003,-13.275 -10.106,-24.05 -22.546,-24.047Z" style="fill:#8e776a;"/><path d="M101.133,1393.6l-0.072,-85.216c1.587,-15.633 39.674,-92.41 48.785,-79.478c27.855,39.532 97.171,39.088 103.728,33.434c9.17,-7.908 6.094,-21.294 -3.063,-42.585c-22.437,-52.163 34.68,-63.203 58.055,-63.431c48.694,-0.475 234.757,-0.117 234.757,-0.117c18.907,1.777 28.826,13.425 30.475,33.745l0.106,90.95l103.309,0.117c9.034,2.806 15.337,8.78 18.757,18.094l0.028,94.298l-594.865,0.189Zm407.036,-201.732c-12.44,0.003 -22.537,10.784 -22.533,24.059c0.004,13.275 10.107,24.05 22.547,24.047c12.44,-0.003 22.536,-10.783 22.532,-24.059c-0.003,-13.275 -10.106,-24.05 -22.546,-24.047Z" style="fill:#b8470b;"/><path d="M121.818,865.082c29.459,0.507 52.964,24.768 52.456,54.143c-0.507,29.376 -24.836,52.813 -54.296,52.306c-29.459,-0.508 -52.963,-24.769 -52.456,-54.144c0.508,-29.375 24.837,-52.813 54.296,-52.305Z" style="fill:#b8470b;"/><path d="M335.058,531.058c22.725,0.391 40.857,19.107 40.466,41.768c-0.392,22.661 -19.16,40.741 -41.886,40.35c-22.725,-0.392 -40.858,-19.107 -40.466,-41.768c0.392,-22.661 19.16,-40.741 41.886,-40.35Zm-0.316,18.248c-12.625,-0.217 -23.052,9.827 -23.27,22.417c-0.217,12.589 9.856,22.987 22.482,23.204c12.625,0.218 23.052,-9.827 23.269,-22.416c0.218,-12.59 -9.856,-22.987 -22.481,-23.205Z" style="fill:#b8470b;"/><path d="M519.041,643.603c-2.224,-3.436 -1.679,-12.888 -2.373,-15.106c-1.526,-4.878 4.084,-17.092 -1.66,-21.027c-5.427,-3.716 -10.067,-6.556 -16.167,-6.661c-3.05,-0.053 -2.997,-3.094 -2.997,-3.094c-0,0 1.764,-4.657 3.155,-6.03c1.946,-1.922 12.381,-7.276 9.862,-18.551c-0.187,-0.838 14.801,3.764 14.801,3.764l15.198,3.304c-0,-0 21.816,9.114 24.295,6.503c4.411,-4.646 -2.577,-27.425 -2.577,-27.425l57.205,-39.363c-0,-0 6.352,-3.414 15.666,-8.397c23.407,-12.521 65.517,-34.944 72.509,-37.964c-0,0 -4.468,15.819 0.702,20.109c9.83,8.156 12.071,22.029 0.667,25.828c-12.12,4.037 -3.708,20.557 -3.102,30.512c0.123,2.021 3.402,17.809 3.402,17.809l-43.533,42.532c1.281,5.136 20.915,73.082 21.739,75.932c-0.17,0.018 -0.17,0.051 0.027,0.093l-0.027,-0.093c1.823,-0.193 23.241,1.303 31.018,11.185c1.204,1.53 -4.37,11.217 -6.395,13.026c-4.884,4.363 -3.037,14.959 -6.327,21.133c-1.992,3.739 -18.451,2.747 -34.188,-4.579c-15.053,-7.007 -24.211,-13.763 -31.06,-19.2c-10.697,-8.491 -16.857,-25.794 -27.93,-33.82c-10.682,-7.742 -40.203,-34.572 -50.178,-37.982c-0.371,-0.127 -13.99,-0.188 -17.058,1.32" style="fill:#b8470b;fill-opacity:0.99;"/><path d="M514.332,644.831c-9.109,2.462 -55.279,9.418 -55.279,9.418c-0,0 -23.974,3.266 -30.074,3.161c-6.1,-0.105 -21.403,2.673 -33.656,5.505c-9.656,2.231 -47.631,-1.327 -60.675,17.842c-21.119,31.035 -35.927,133.72 -57.339,167.015c-7.014,10.907 -28.019,14.307 -28.808,13.407c-7.605,-8.673 -48.204,-44.821 -61.315,-50.934c-46.055,-21.475 -87.595,-19.803 -108.49,-9.794c-1.891,0.906 -5.986,-28.003 2.072,-33.713c29.877,-21.171 142.244,-112.033 166.075,-155.181c0.577,-1.046 -2.96,-20.979 -0.628,-22.195c-0.061,-1.228 -0.079,-2.453 -0.053,-3.672c1.115,-52.879 47.226,-94.86 102.906,-93.691c12.99,0.273 43.909,8.661 58.034,19.003c12.829,9.394 72.676,31.675 72.676,31.675c-0,-0 15.917,3.387 22.078,3.937c13.27,1.185 17.393,7.41 22.715,16.828c1.319,2.334 -1.886,6.006 -4.487,6.679c-3.132,0.81 -11.022,-3.815 -14.306,-1.816c-3.284,1.999 -2.558,10.548 -5.398,13.812c-2.839,3.264 -9.338,8.787 -11.64,5.771c-19.134,-25.069 -50.124,2.147 -55.712,11.788c-8.48,14.63 1.936,41.853 17.032,41.417c2.86,-0.083 5.192,0.338 6.84,1.545l4.078,-0.741c-0.044,-0.118 -0.082,-0.236 -0.113,-0.354c-0.611,-2.318 -1.778,-4.938 -0.312,-7.184c2.82,-4.32 12.01,-14.313 17.231,-18.736c3.302,-2.798 6.434,-10.243 10.338,-11.242c4.168,-1.068 8.236,0.057 10.807,-0.467c2.633,-0.536 7.36,3.281 7.36,3.281c-0,0 3.577,4.656 3.914,7.029c0.689,4.85 0.254,9.54 0.624,14.367c0.063,0.819 0.094,2.283 0.357,3.278c0.48,1.814 2.519,7.606 2.519,7.606c-0,0 2.368,4.885 0.629,5.356Zm-179.064,-125.939c-29.459,-0.507 -53.788,22.93 -54.296,52.306c-0.508,29.375 22.997,53.636 52.456,54.143c29.459,0.508 53.788,-22.93 54.296,-52.305c0.508,-29.375 -22.997,-53.636 -52.456,-54.144Z" style="fill:#b8470b;fill-opacity:0.99;"/></g></svg>