<?xml version="1.0" encoding="UTF-8" standalone="no"?><!DOCTYPE svg PUBLIC "-//W3C//DTD SVG 1.1//EN" "http://www.w3.org/Graphics/SVG/1.1/DTD/svg11.dtd"><svg width="100%" height="100%" viewBox="0 0 945 1589" version="1.1" xmlns="http://www.w3.org/2000/svg" xmlns:xlink="http://www.w3.org/1999/xlink" xml:space="preserve" xmlns:serif="http://www.serif.com/" style="fill-rule:evenodd;clip-rule:evenodd;stroke-linejoin:round;stroke-miterlimit:2;"><g id="Group---TEXT---LOGO" serif:id="Group - TEXT &amp; LOGO"></g><g id="Group---ICONS" serif:id="Group - ICONS"><rect id="Artboard-Base-Tree" serif:id="Artboard Base Tree" x="0" y="0" width="944.526" height="1588.28" style="fill:none;"/><g id="Artboard-Base-Tree1" serif:id="Artboard Base Tree"><g><path d="M790.023,1396.18c-0.034,0.111 -0.061,0.169 -0.083,0.171c0.028,-0.057 0.055,-0.114 0.083,-0.171Zm-222.398,184.973c-0.214,1.05 -0.392,1.447 -0.522,0.983c0.175,-0.328 0.349,-0.655 0.522,-0.983Zm-111.867,-577.746c0,-0 28.79,-51.263 30.812,-69.206c1.269,-11.269 3.756,-24.094 5.17,-35.67c1.537,-12.577 0.833,-34.329 2.221,-38.469c1.86,-5.55 17.609,0.116 27.594,0.35c10.67,0.251 26.318,-6.043 26.318,-6.043c-0,-0 21.518,-7.169 25.155,-0.48c2.598,4.777 0.691,24.786 2.115,37.225c3.258,28.438 -0.513,94.538 33.604,130.777c21.812,36.608 86.706,54.15 141.051,55.539c50.328,1.287 53.556,-4.549 94.627,-11.166c-0,-0 50.761,8.977 64.031,24.125c-42.931,-16.023 -83.037,-15.068 -119.997,4.8c8.164,8.689 31.976,18.038 68.462,27.923c16.461,10.687 35.147,25.088 57.292,45.262l-55.474,-20.635c-15.16,-4.752 -28.032,-6.896 -37.752,-5.446c11.919,21.883 21.364,46.619 30.218,72.039c-2.571,13.737 -37.663,-43.322 -51.461,-78.712c-5.814,-14.911 -35.26,-19.432 -51.649,-25.047l-41.88,-5.139c-9.413,0.701 40.048,85.722 70.414,89.788c-30.939,1.357 -59.354,-17.406 -84.803,-59.828c-18.12,-29.02 -51.363,-46.712 -91.522,-59.224c-3.716,0.277 -5.831,33.45 8.975,65.365c15.961,34.404 49.852,58.056 58.807,65.784c16.862,14.554 88.466,45.195 144.269,42.919c44.538,-1.817 63.753,29.732 65.243,40.543c0.478,3.465 -33.709,-22.087 -47.522,-25.353c-15.487,-3.663 -53.958,-0.113 -53.958,-0.113c-0,-0 35.461,40.007 45.818,58.496c9.769,17.441 18.325,40.549 20.751,56.235l-41.085,-50.595c0.45,31.025 -4.257,51.542 -11.579,66.729c1.078,-3.571 8.195,-62.305 -2.015,-82.226c-16.317,-31.839 -40,-47.559 -95.953,-63.021c0,0 18.329,30.295 24.273,47.719c6.179,18.112 12.799,60.953 12.799,60.953l-42.6,-71.117c-0.595,-0.994 -3.935,-10.132 -5.036,-12.007c-4.154,-7.074 -11.496,-15.757 -18.327,-23.398c-9.801,-10.965 -35.443,-30.38 -35.443,-30.38c-0,0 -9.571,65.929 2.538,90.606c14.655,29.862 44.801,78.702 90.122,96.47c8.067,3.163 6.981,12.065 12.044,14.886c-18.15,-7.205 -36.981,-16.465 -59.263,-36.135l6.552,32.529c-2.818,11.682 -4.484,24.352 -5.528,37.554c-2.789,-7.371 -4.929,-18.464 -6.552,-32.529l-11.89,-48.639c-21.89,-16.326 -47.909,-42.695 -50.836,-70.326c0.003,-0.071 -0.004,-0.131 -0.019,-0.177c0.006,0.059 0.012,0.118 0.019,0.177c-0.149,3.493 -22.026,36.211 -29.705,47.428c-7.929,11.583 -13.533,45.812 -9.049,46.071c2.286,25.71 12.884,44.976 29.309,59.725c18.955,28.14 23.862,45.466 25.181,60.031c-10.768,-22.981 -22.259,-42.283 -36.654,-46.797c3.453,37.218 1.517,73.613 -16.365,107.576c1.308,-6.428 3.914,-37.347 4.4,-44.781c0.968,-14.812 -0.1,-57.192 -0.114,-57.763c-0,-0.002 -0,-0.004 -0.001,-0.006c0,-0 0.001,0.002 0.001,0.006c-0.013,0.152 -2.534,-12.397 -5.643,-20.222c-4.247,-10.689 -13.076,-31.168 -19.842,-43.921c-9.274,5.542 -21.14,32.199 -29.08,55.815c-6.052,-7.834 -5.92,-19.337 -2.424,-32.836c-0,0 28.807,-68.862 31.995,-72.539c2.436,-2.809 4.217,-10.913 7.043,-17.032c5.138,-11.123 24.163,-41.035 32.905,-60.226c10.156,-22.298 18.851,-59.903 9.54,-95.631l-52.975,-99.235l-8.437,-5.709c0.795,10.8 2.299,21.285 5.058,27.756c10.764,25.25 20.082,47.983 20.365,79.76c0.247,27.779 -10.947,47.452 -23.821,73.99c-7.136,17.265 -6.897,44.887 -0.71,80.863c-8.084,-14.934 -15.009,-25.94 -15.009,-25.94c0,-0 -5.819,-17.733 -7.269,-27.855l-39.989,44.123c5.207,-17.327 29.192,-37.136 39.928,-61.094c9.849,-21.978 16.609,-45.036 20.827,-68.984c2.019,-32.311 -9.583,-64.279 -24.437,-95.712c-27.247,19.585 -42.056,90.402 -53.628,157.994c-9.234,-24.645 -11.156,-58.492 1.605,-110.816c-30.356,18.201 -54.775,39.908 -62.977,71.191c-10.345,18.94 -7.685,51.016 15.397,93.76c-2.738,15.471 -27.619,-33.994 -31.318,-55.747c-0.423,-2.486 -21.086,65.034 -22.865,61.008c-5.164,-22.324 5.74,-77.893 5.74,-77.893c4.701,4.931 15.325,-31.176 16.878,-50.996c-35.958,8.974 -64.706,25.057 -80.102,54.305c-6.436,-13.503 6.248,-30.614 25.919,-49.044l57.114,-27.237c2.003,4.836 49.158,-28.067 72.079,-52.269c11.048,-11.665 33.212,-55.577 39.915,-69.109l-18.021,-12.195c-4.854,5.239 -13.582,14.847 -18.156,21.028c-22.481,53.65 -53.265,78.298 -89.173,85.047c0,0 25.568,-17.625 35.026,-31.494c11.858,-17.39 36.123,-72.847 36.123,-72.847c-1.725,-2.201 -82.918,15.227 -96.33,44.31c-11.94,25.89 -23.653,89.929 -35.517,81.055c0.756,-17.947 4.128,-39.351 15.486,-71.311c4.881,-7.577 -69.623,22.359 -80.427,34.872c-4.265,4.941 24.152,-38.252 37.941,-48.22c11.658,-8.427 34.912,-14.29 44.189,-19.795c6.706,-3.979 15.298,-17.646 15.298,-17.646c-38.734,-13.178 -74.064,-8.162 -107.312,7.983c0,0 27.972,-24.117 43.583,-28.004c19.697,-4.905 47.733,0.576 74.596,-1.423c28.892,-2.149 65.996,-4.66 86.069,-14.657c5.719,-2.848 18.69,-12.423 18.69,-12.423Zm320.871,191.815c2.227,-0.098 4.467,-0.3 6.72,-0.604c-2.099,0.746 -4.351,0.921 -6.72,0.604Zm-44.204,229.443c0.518,0.205 1.034,0.409 1.55,0.611c-0.575,-0.147 -1.088,-0.354 -1.55,-0.611Z" style="fill:#e7cba8;"/><path d="M444.376,375.085c27.761,16.171 61.328,36.548 82.63,62.007l16.733,-66.386l10.54,61.59c16.24,-14.871 39.662,-27.544 65.014,-39.627l-61.549,61.173l-3.244,67.035c40.786,-31.02 85.701,-48.93 133.491,-57.71c-61.796,30.659 -111.758,62.477 -126.415,97.754l-5.97,30.254c-0,0 3.256,47.847 4.774,70.144c1.444,21.214 9.931,52.601 8.07,62.855c-0.782,4.307 -9.932,0.014 -17.206,-1.067c-1.369,-0.203 -7.184,0.515 -8.233,0.703c-12.327,2.209 -6.324,1.1 -18.463,1.47c-12.606,0.384 -30.49,4.327 -32.323,-3.793c-3.293,-14.582 -0.399,-80.946 -1.043,-102.872c-1.081,-36.799 -116.981,-75.987 -108.724,-81.588c31.761,4.357 70.39,19.926 114.989,45.24l1.622,-33.517c4.97,-24.304 -49.835,-62.911 -112.335,-100.087c37.293,8.566 73.412,25.049 123.097,63.955l2.802,-57.894l-68.257,-79.639Z" style="fill:#e7cba8;"/><path d="M423.584,565.876l-79.324,-44.215l87.226,19.329c-42.139,-73.399 -112.594,-83.57 -187.119,-54.979c43.772,92.341 107.619,110.603 179.217,79.865Z" style="fill:#e7cba8;"/><path d="M553.93,312.643l-20.528,81.657c-51.246,-58.866 -41.046,-126.035 25.914,-192.969c60.672,71.738 54.147,139.548 -1.307,198.286l-4.079,-86.974Z" style="fill:#e7cba8;"/><path d="M652.184,367.048l-55.542,34.516c4.156,-70.081 50.707,-115.605 126.281,-126.153c-4.529,76.51 -38.784,125.305 -110.342,139.317l39.603,-47.68Z" style="fill:#e7cba8;"/><path d="M732.652,442.176l-79.95,25.077c20.718,-58.914 67.79,-95.273 161.895,-91.38c-22.09,104.315 -78.887,126.062 -150.489,112.591l68.544,-46.288Z" style="fill:#e7cba8;"/><path d="M357.98,427.235l59.821,48.335c-80.789,9.48 -132.373,-36.72 -138.919,-126.524c74.721,3.16 132.073,30.707 152.121,110.631l-73.023,-32.442Z" style="fill:#e7cba8;"/><path d="M459.172,404.053l-30.681,-51.065l52.151,35.569c-3.734,-78.146 -43.9,-126.329 -113.714,-133.575c1.477,89.204 38.52,130.396 92.244,149.071Z" style="fill:#e7cba8;"/><path d="M560.605,772.182c5.915,6.499 21.221,9.088 16.075,-1.252c-0.91,-1.83 1.622,-11.294 -1.936,-14.055c-2.599,-2.018 -4.571,-9.117 -8.674,-12.565c-1.957,-1.644 -10.81,-3.139 -13.167,-3.115c-2.004,0.019 -13.816,4.381 -12.961,5.619c5.783,8.376 5.863,15.308 3.82,18.983c-3.096,5.568 14.289,3.579 16.843,6.385Z" style="fill:#b8470b;"/><path d="M471.159,782.299c1.003,-0.377 11.423,-2.539 16.687,-2.778c8.122,-0.368 11.986,10.074 11.976,12.92c-0.019,5.331 -0.642,11.503 -5.122,14.34c-1.832,1.161 -6.862,8.673 -10.528,12.178c-4.092,3.913 -12.173,11.805 -14.023,11.296c-13.357,-3.67 -21.923,-39.34 1.01,-47.956Z" style="fill:#b8470b;"/><path d="M832.286,807.214c2.047,-3.754 6.762,-7.034 11.601,-9.469c7.259,-3.652 13.773,-12.377 13.773,-12.377c1.44,-0.006 6.115,17.14 5.9,22.458c-0.155,3.819 2.421,16.472 2.983,20.294c0.63,4.289 12.09,26.28 1.558,28.276c-23.332,4.423 -32.086,-23.814 -36.494,-36.126c-0,-0 -1.367,-9.302 0.679,-13.056Z" style="fill:#b8470b;"/><path d="M824.327,724.381c4.609,4.159 7.014,8.303 9.926,11.205c3.277,3.265 9.271,7.416 12.922,13.259c3.297,5.278 2.604,13.028 5.805,17.18c3.68,4.774 2.154,13.943 0.749,18.114c-1.091,3.24 -9.176,6.909 -9.176,6.909c0,-0 -11.893,12.068 -16.02,8.264c-2.389,-2.202 -5.072,-5.149 -7.851,-9.615c-3.642,-5.853 -4.43,-9.087 -10.212,-13.216c-1.436,-1.025 -1.778,-14.245 -0.75,-18.114c2.31,-8.683 14.607,-33.986 14.607,-33.986Z" style="fill:#b8470b;"/><path d="M729.14,757.63c-0,0 -3.41,-21.262 -1.873,-29.172c0.288,-1.479 0.983,-7.581 1.531,-11.364c0.861,-5.95 15.404,-9.675 3.636,-24.337c-1.247,-1.554 -14.145,-15.724 -4.046,-24.307c2.551,-2.168 10.391,5.763 13.063,6.377c5.204,1.196 16.431,10.122 24.528,16.011c9.444,6.87 19.649,12.796 26.126,12.755c5.504,-0.035 15.279,4.722 22.861,11.16c2.024,1.718 1.784,4.612 -3.129,14.62c-4.796,9.77 -3.252,25.942 -7.857,32.497c-2.659,3.786 -24.958,-0.073 -30.923,-2.985c-16.86,-8.231 -43.917,-1.255 -43.917,-1.255Z" style="fill:#b8470b;"/><path d="M780.862,772.398c-0,-0 23.464,64.07 18.336,71.554c-5.128,7.485 -50.089,-29.733 -50.089,-29.733c2.885,-14.683 1.405,-31.794 -4.458,-51.341c12.15,-1.44 24.24,0.589 36.211,9.52Z" style="fill:#b8470b;"/><path d="M738.051,811.076c-11.715,7.944 -29.72,-7.378 -28.122,-10.376c0,-0 4.013,-18.883 6.303,-22.054c3.167,-4.386 19.111,0.9 22.116,6.286c3.295,5.903 -0.297,26.144 -0.297,26.144" style="fill:#b8470b;"/><path d="M742.955,823.2c11.471,5.996 45.518,28.637 49.138,24.694l-61.662,17.947c-23.261,-8.489 -26.147,-16.018 -29.955,-32.061c0.741,2.602 32.543,-15.774 42.479,-10.58Z" style="fill:#b8470b;"/><path d="M732.249,932.666c-9.639,-1.341 -4.723,-22.365 2.382,-28.909c1.92,-1.769 1.945,-10.673 4.518,-10.544c12.501,0.628 66.354,-2.717 83.289,13.375c4.627,4.397 5.24,18.858 -2.321,22.366c-9.107,4.225 -20.665,2.305 -33.211,4.554c-7.942,1.423 -49.89,-0.179 -54.657,-0.842Z" style="fill:#b8470b;"/><path d="M238.954,1411.08c0.826,5.318 -14.909,5.753 -21.403,2.674c-11.095,-5.262 -40.815,-18.098 -45.172,-34.244c-1.631,-6.044 -8.519,-36.654 -8.519,-36.654c-0,0 -8.398,-28.145 -14.62,-36.759c-44.214,-61.216 -86.664,-104.931 -106.295,-135.369c-14.835,-23.003 -18.816,-52.865 -15.13,-76.641c3.686,-23.777 19.096,-51.31 37.757,-66.281c18.563,-14.892 46.055,-26.587 73.675,-26.112c27.45,0.473 45.501,7.081 63.735,19.352c60.318,40.588 179.917,205.813 266.357,299.69l-112.8,-4.985c-0,-0 -49.331,-1.013 -73.359,7.864c-36.677,13.549 -49.734,51.961 -44.226,87.465Zm-98.761,-375.904c-42.926,-0.739 -78.377,33.412 -79.117,76.216c-0.739,42.804 33.51,78.156 76.436,78.895c42.926,0.739 78.378,-33.412 79.117,-76.216c0.74,-42.804 -33.51,-78.156 -76.436,-78.895Z" style="fill:#b8470b;"/><path d="M119.087,1588.03l-0.071,-85.217c1.586,-15.632 39.673,-92.409 48.785,-79.477c27.855,39.532 97.17,39.088 103.727,33.433c9.171,-7.907 6.095,-21.294 -3.063,-42.585c-22.437,-52.163 34.681,-63.203 58.056,-63.431c48.694,-0.475 234.756,-0.116 234.756,-0.116c18.908,1.776 28.826,13.425 30.476,33.744l0.105,90.951l103.309,0.117c9.035,2.805 15.337,8.779 18.758,18.093l0.027,94.298l-594.865,0.19Zm407.036,-201.732c-12.44,0.003 -22.536,10.783 -22.532,24.058c0.003,13.275 10.106,24.051 22.546,24.047c12.44,-0.003 22.537,-10.783 22.533,-24.058c-0.004,-13.275 -10.107,-24.051 -22.547,-24.047Z" style="fill:#8e776a;"/><path d="M119.087,1588.03l-0.071,-85.217c1.586,-15.632 39.673,-92.409 48.785,-79.477c27.855,39.532 97.17,39.088 103.727,33.433c9.171,-7.907 6.095,-21.294 -3.063,-42.585c-22.437,-52.163 34.681,-63.203 58.056,-63.431c48.694,-0.475 234.756,-0.116 234.756,-0.116c18.908,1.776 28.826,13.425 30.476,33.744l0.105,90.951l103.309,0.117c9.035,2.805 15.337,8.779 18.758,18.093l0.027,94.298l-594.865,0.19Zm407.036,-201.732c-12.44,0.003 -22.536,10.783 -22.532,24.058c0.003,13.275 10.106,24.051 22.546,24.047c12.44,-0.003 22.537,-10.783 22.533,-24.058c-0.004,-13.275 -10.107,-24.051 -22.547,-24.047Z" style="fill:#b8470b;"/><path d="M139.773,1059.5c29.459,0.507 52.964,24.768 52.456,54.144c-0.508,29.375 -24.837,52.812 -54.296,52.305c-29.459,-0.507 -52.964,-24.768 -52.456,-54.144c0.508,-29.375 24.837,-52.812 54.296,-52.305Z" style="fill:#b8470b;"/><path d="M353.012,725.48c22.726,0.392 40.858,19.107 40.466,41.768c-0.392,22.661 -19.16,40.741 -41.885,40.35c-22.726,-0.391 -40.858,-19.107 -40.466,-41.768c0.391,-22.661 19.159,-40.741 41.885,-40.35Zm-0.315,18.249c-12.626,-0.218 -23.052,9.827 -23.27,22.416c-0.218,12.59 9.856,22.987 22.481,23.205c12.625,0.217 23.052,-9.828 23.27,-22.417c0.217,-12.589 -9.856,-22.987 -22.481,-23.204Z" style="fill:#b8470b;"/><path d="M536.996,838.025c-2.224,-3.435 -1.679,-12.888 -2.373,-15.106c-1.527,-4.877 4.084,-17.092 -1.661,-21.026c-5.427,-3.717 -10.066,-6.557 -16.166,-6.662c-3.051,-0.052 -2.998,-3.094 -2.998,-3.094c0,0 1.765,-4.657 3.155,-6.03c1.946,-1.922 12.382,-7.275 9.862,-18.551c-0.187,-0.838 14.802,3.764 14.802,3.764l15.197,3.304c0,0 21.816,9.115 24.296,6.503c4.411,-4.646 -2.577,-27.425 -2.577,-27.425l57.204,-39.363c0,0 6.353,-3.414 15.667,-8.396c23.406,-12.521 65.517,-34.945 72.508,-37.964c0,-0 -4.468,15.819 0.703,20.109c9.829,8.156 12.07,22.028 0.666,25.827c-12.12,4.037 -3.707,20.558 -3.102,30.513c0.123,2.02 3.403,17.808 3.403,17.808l-43.534,42.532c1.281,5.136 20.916,73.082 21.739,75.933c-0.169,0.018 -0.169,0.05 0.027,0.092l-0.027,-0.092c1.824,-0.193 23.241,1.302 31.018,11.184c1.204,1.53 -4.37,11.217 -6.395,13.026c-4.883,4.364 -3.037,14.959 -6.326,21.134c-1.992,3.738 -18.452,2.746 -34.189,-4.58c-15.052,-7.007 -24.21,-13.763 -31.059,-19.199c-10.698,-8.491 -16.857,-25.795 -27.931,-33.82c-10.682,-7.743 -40.203,-34.572 -50.178,-37.982c-0.371,-0.127 -13.989,-0.188 -17.058,1.319" style="fill:#b8470b;fill-opacity:0.99;"/><path d="M532.286,839.253c-9.108,2.462 -55.279,9.418 -55.279,9.418c0,0 -23.973,3.266 -30.073,3.161c-6.101,-0.105 -21.403,2.674 -33.656,5.505c-9.657,2.231 -47.632,-1.326 -60.676,17.843c-21.118,31.035 -35.926,133.72 -57.339,167.014c-7.014,10.907 -28.018,14.307 -28.808,13.407c-7.604,-8.672 -48.204,-44.82 -61.315,-50.934c-46.054,-21.474 -87.595,-19.803 -108.489,-9.794c-1.891,0.906 -5.986,-28.003 2.072,-33.713c29.876,-21.171 142.243,-112.033 166.074,-155.181c0.577,-1.045 -2.959,-20.979 -0.628,-22.194c-0.06,-1.229 -0.079,-2.453 -0.053,-3.673c1.115,-52.878 47.226,-94.86 102.907,-93.691c12.99,0.273 43.909,8.661 58.033,19.004c12.829,9.394 72.676,31.674 72.676,31.674c0,0 15.918,3.387 22.078,3.937c13.27,1.185 17.393,7.411 22.716,16.828c1.319,2.335 -1.886,6.006 -4.487,6.679c-3.133,0.811 -11.023,-3.815 -14.307,-1.816c-3.284,2 -2.558,10.548 -5.397,13.812c-2.84,3.264 -9.339,8.787 -11.64,5.772c-19.135,-25.07 -50.124,2.146 -55.713,11.787c-8.48,14.63 1.936,41.853 17.032,41.417c2.861,-0.083 5.193,0.339 6.84,1.545l4.078,-0.74c-0.044,-0.119 -0.081,-0.237 -0.112,-0.354c-0.611,-2.319 -1.778,-4.938 -0.312,-7.184c2.819,-4.32 12.009,-14.313 17.23,-18.737c3.302,-2.798 6.434,-10.242 10.339,-11.242c4.167,-1.067 8.235,0.057 10.806,-0.466c2.633,-0.537 7.36,3.281 7.36,3.281c0,-0 3.577,4.655 3.914,7.028c0.689,4.851 0.255,9.54 0.624,14.368c0.063,0.819 0.095,2.282 0.358,3.277c0.479,1.814 2.518,7.607 2.518,7.607c0,-0 2.369,4.885 0.629,5.355Zm-179.064,-125.938c-29.459,-0.508 -53.788,22.93 -54.296,52.305c-0.507,29.375 22.997,53.636 52.456,54.144c29.459,0.507 53.789,-22.93 54.296,-52.306c0.508,-29.375 -22.997,-53.636 -52.456,-54.143Z" style="fill:#b8470b;fill-opacity:0.99;"/></g></g></g><g id="Group---TEXT-ONLY" serif:id="Group - TEXT ONLY"></g></svg>