<?xml version="1.0" encoding="UTF-8" standalone="no"?><!DOCTYPE svg PUBLIC "-//W3C//DTD SVG 1.1//EN" "http://www.w3.org/Graphics/SVG/1.1/DTD/svg11.dtd"><svg width="100%" height="100%" viewBox="0 0 3634 3264" version="1.1" xmlns="http://www.w3.org/2000/svg" xmlns:xlink="http://www.w3.org/1999/xlink" xml:space="preserve" xmlns:serif="http://www.serif.com/" style="fill-rule:evenodd;clip-rule:evenodd;stroke-linejoin:round;stroke-miterlimit:2;"><g id="Group---TEXT---LOGO" serif:id="Group - TEXT &amp; LOGO"><rect id="Gabe-McWilliams---BOTTOM" serif:id="Gabe McWilliams - BOTTOM" x="-0" y="-0" width="3633.81" height="3263.93" style="fill:none;"/><g id="Gabe-McWilliams---BOTTOM1" serif:id="Gabe McWilliams - BOTTOM"><g id="A" transform="matrix(1,0,0,0.777293,0,554.886)"><g transform="matrix(236.527,0,0,236.527,27.1679,3409.6)"><path d="M0.081,-0l-0,-0.728l0.164,0l0.158,0.418c0.005,0.012 0.01,0.028 0.016,0.047c0.005,0.019 0.011,0.039 0.017,0.062c0.007,0.022 0.013,0.043 0.018,0.065c0.006,0.021 0.011,0.041 0.015,0.058l-0.024,0c0.005,-0.016 0.01,-0.035 0.015,-0.056c0.006,-0.022 0.012,-0.043 0.018,-0.066c0.006,-0.022 0.012,-0.043 0.018,-0.062c0.005,-0.02 0.011,-0.036 0.015,-0.048l0.157,-0.418l0.164,0l0,0.728l-0.11,-0l-0,-0.391c-0,-0.016 -0,-0.034 -0,-0.054c0,-0.021 0.001,-0.043 0.001,-0.066c0.001,-0.024 0.001,-0.047 0.002,-0.071c0.001,-0.024 0.001,-0.047 0.001,-0.069l0.009,0c-0.007,0.024 -0.014,0.049 -0.022,0.074c-0.007,0.025 -0.015,0.049 -0.022,0.073c-0.008,0.023 -0.015,0.045 -0.021,0.064c-0.007,0.02 -0.013,0.036 -0.017,0.049l-0.149,0.391l-0.096,0l-0.15,-0.391c-0.005,-0.013 -0.011,-0.029 -0.017,-0.048c-0.006,-0.019 -0.013,-0.04 -0.021,-0.063c-0.007,-0.023 -0.015,-0.048 -0.023,-0.073c-0.007,-0.025 -0.015,-0.05 -0.023,-0.076l0.01,0c0,0.02 0.001,0.042 0.001,0.065c0.001,0.024 0.001,0.047 0.002,0.071c0,0.024 0.001,0.046 0.001,0.067c0.001,0.022 0.001,0.041 0.001,0.057l-0,0.391l-0.108,0Z" style="fill:#b8470b;fill-rule:nonzero;"/></g><g transform="matrix(236.527,0,0,236.527,243.022,3409.6)"><path d="M0.025,-0l0.259,-0.728l0.137,0l0.263,0.728l-0.12,-0l-0.142,-0.405c-0.011,-0.033 -0.023,-0.071 -0.036,-0.116c-0.013,-0.045 -0.029,-0.098 -0.046,-0.16l0.023,-0c-0.017,0.063 -0.032,0.117 -0.045,0.162c-0.013,0.045 -0.025,0.083 -0.035,0.114l-0.138,0.405l-0.12,-0Zm0.14,-0.192l0,-0.093l0.379,0l-0,0.093l-0.379,0Z" style="fill:#b8470b;fill-rule:nonzero;"/></g><g transform="matrix(236.527,0,0,236.527,402.055,3409.6)"><path d="M0.383,0.01c-0.063,-0 -0.119,-0.015 -0.169,-0.045c-0.049,-0.03 -0.088,-0.073 -0.116,-0.128c-0.029,-0.056 -0.043,-0.123 -0.043,-0.2c0,-0.078 0.014,-0.145 0.043,-0.201c0.028,-0.056 0.067,-0.098 0.117,-0.128c0.049,-0.03 0.105,-0.045 0.168,-0.045c0.038,-0 0.074,0.005 0.108,0.016c0.034,0.011 0.064,0.027 0.09,0.048c0.027,0.022 0.049,0.047 0.066,0.078c0.018,0.03 0.03,0.064 0.036,0.103l-0.112,0c-0.005,-0.023 -0.013,-0.044 -0.024,-0.062c-0.012,-0.017 -0.026,-0.032 -0.043,-0.045c-0.016,-0.012 -0.035,-0.021 -0.055,-0.028c-0.021,-0.006 -0.042,-0.009 -0.065,-0.009c-0.042,0 -0.079,0.011 -0.112,0.032c-0.033,0.021 -0.059,0.052 -0.078,0.092c-0.019,0.041 -0.028,0.09 -0.028,0.149c-0,0.058 0.009,0.108 0.028,0.148c0.019,0.041 0.045,0.072 0.078,0.092c0.033,0.021 0.07,0.031 0.112,0.031c0.022,0 0.044,-0.003 0.064,-0.009c0.021,-0.007 0.04,-0.016 0.056,-0.028c0.017,-0.012 0.031,-0.027 0.043,-0.045c0.011,-0.018 0.019,-0.038 0.024,-0.062l0.112,0c-0.005,0.036 -0.017,0.069 -0.034,0.099c-0.017,0.03 -0.038,0.056 -0.065,0.078c-0.026,0.022 -0.056,0.039 -0.09,0.051c-0.034,0.012 -0.071,0.018 -0.111,0.018Z" style="fill:#b8470b;fill-rule:nonzero;"/></g><g transform="matrix(236.527,0,0,236.527,575.524,3409.6)"><path d="M0.081,-0l-0,-0.728l0.111,0l0,0.308l0.36,0l0,-0.308l0.112,0l-0,0.728l-0.112,-0l0,-0.324l-0.36,-0l0,0.324l-0.111,-0Z" style="fill:#b8470b;fill-rule:nonzero;"/></g><g transform="matrix(236.527,0,0,236.527,751.649,3409.6)"><rect x="0.081" y="-0.728" width="0.112" height="0.728" style="fill:#b8470b;fill-rule:nonzero;"/></g><g transform="matrix(236.527,0,0,236.527,816.093,3409.6)"><path d="M0.081,-0l-0,-0.728l0.128,0l0.274,0.433c0.009,0.015 0.019,0.032 0.03,0.052c0.012,0.02 0.024,0.042 0.037,0.067c0.012,0.025 0.025,0.052 0.037,0.081l-0.013,0c-0.003,-0.027 -0.005,-0.055 -0.007,-0.082c-0.001,-0.027 -0.002,-0.053 -0.003,-0.076c-0.001,-0.024 -0.001,-0.044 -0.001,-0.061l0,-0.414l0.113,0l-0,0.728l-0.129,-0l-0.246,-0.387c-0.013,-0.022 -0.026,-0.043 -0.038,-0.064c-0.013,-0.022 -0.026,-0.046 -0.042,-0.074c-0.015,-0.029 -0.033,-0.063 -0.055,-0.103l0.018,-0c0.001,0.035 0.003,0.069 0.004,0.1c0.002,0.031 0.003,0.059 0.004,0.083c0.001,0.024 0.002,0.043 0.002,0.057l-0,0.388l-0.113,-0Z" style="fill:#b8470b;fill-rule:nonzero;"/></g><g transform="matrix(236.527,0,0,236.527,994.99,3409.6)"><path d="M0.081,-0l-0,-0.728l0.457,0l0,0.096l-0.346,0l0,0.217l0.322,0l-0,0.095l-0.322,0l0,0.224l0.35,0l-0,0.096l-0.461,0Z" style="fill:#b8470b;fill-rule:nonzero;"/></g><g transform="matrix(236.527,0,0,236.527,1137.62,3409.6)"></g><g transform="matrix(236.527,0,0,236.527,1200.68,3409.6)"><path d="M0.081,-0l-0,-0.728l0.111,0l0,0.632l0.329,0l0,0.096l-0.44,-0Z" style="fill:#b8470b;fill-rule:nonzero;"/></g><g transform="matrix(236.527,0,0,236.527,1334.42,3409.6)"><path d="M0.081,-0l-0,-0.728l0.457,0l0,0.096l-0.346,0l0,0.217l0.322,0l-0,0.095l-0.322,0l0,0.224l0.35,0l-0,0.096l-0.461,0Z" style="fill:#b8470b;fill-rule:nonzero;"/></g><g transform="matrix(236.527,0,0,236.527,1477.05,3409.6)"><path d="M0.025,-0l0.259,-0.728l0.137,0l0.263,0.728l-0.12,-0l-0.142,-0.405c-0.011,-0.033 -0.023,-0.071 -0.036,-0.116c-0.013,-0.045 -0.029,-0.098 -0.046,-0.16l0.023,-0c-0.017,0.063 -0.032,0.117 -0.045,0.162c-0.013,0.045 -0.025,0.083 -0.035,0.114l-0.138,0.405l-0.12,-0Zm0.14,-0.192l0,-0.093l0.379,0l-0,0.093l-0.379,0Z" style="fill:#b8470b;fill-rule:nonzero;"/></g><g transform="matrix(236.527,0,0,236.527,1644.75,3409.6)"><path d="M0.081,-0l-0,-0.728l0.26,0c0.056,0 0.103,0.01 0.14,0.03c0.038,0.019 0.066,0.046 0.084,0.08c0.019,0.035 0.028,0.074 0.028,0.119c0,0.045 -0.009,0.084 -0.028,0.118c-0.019,0.034 -0.047,0.06 -0.084,0.078c-0.037,0.019 -0.084,0.028 -0.141,0.028l-0.196,0l0,-0.095l0.185,0c0.036,0 0.065,-0.005 0.087,-0.015c0.022,-0.011 0.038,-0.025 0.049,-0.045c0.01,-0.019 0.015,-0.042 0.015,-0.069c0,-0.027 -0.005,-0.051 -0.015,-0.071c-0.011,-0.02 -0.027,-0.035 -0.049,-0.046c-0.022,-0.011 -0.051,-0.016 -0.087,-0.016l-0.137,-0l0,0.632l-0.111,0Zm0.413,0l-0.176,-0.329l0.123,0l0.18,0.329l-0.127,0Z" style="fill:#b8470b;fill-rule:nonzero;"/></g><g transform="matrix(236.527,0,0,236.527,1798.01,3409.6)"><path d="M0.081,-0l-0,-0.728l0.128,0l0.274,0.433c0.009,0.015 0.019,0.032 0.03,0.052c0.012,0.02 0.024,0.042 0.037,0.067c0.012,0.025 0.025,0.052 0.037,0.081l-0.013,0c-0.003,-0.027 -0.005,-0.055 -0.007,-0.082c-0.001,-0.027 -0.002,-0.053 -0.003,-0.076c-0.001,-0.024 -0.001,-0.044 -0.001,-0.061l0,-0.414l0.113,0l-0,0.728l-0.129,-0l-0.246,-0.387c-0.013,-0.022 -0.026,-0.043 -0.038,-0.064c-0.013,-0.022 -0.026,-0.046 -0.042,-0.074c-0.015,-0.029 -0.033,-0.063 -0.055,-0.103l0.018,-0c0.001,0.035 0.003,0.069 0.004,0.1c0.002,0.031 0.003,0.059 0.004,0.083c0.001,0.024 0.002,0.043 0.002,0.057l-0,0.388l-0.113,-0Z" style="fill:#b8470b;fill-rule:nonzero;"/></g><g transform="matrix(236.527,0,0,236.527,1976.9,3409.6)"><rect x="0.081" y="-0.728" width="0.112" height="0.728" style="fill:#b8470b;fill-rule:nonzero;"/></g><g transform="matrix(236.527,0,0,236.527,2041.35,3409.6)"><path d="M0.081,-0l-0,-0.728l0.128,0l0.274,0.433c0.009,0.015 0.019,0.032 0.03,0.052c0.012,0.02 0.024,0.042 0.037,0.067c0.012,0.025 0.025,0.052 0.037,0.081l-0.013,0c-0.003,-0.027 -0.005,-0.055 -0.007,-0.082c-0.001,-0.027 -0.002,-0.053 -0.003,-0.076c-0.001,-0.024 -0.001,-0.044 -0.001,-0.061l0,-0.414l0.113,0l-0,0.728l-0.129,-0l-0.246,-0.387c-0.013,-0.022 -0.026,-0.043 -0.038,-0.064c-0.013,-0.022 -0.026,-0.046 -0.042,-0.074c-0.015,-0.029 -0.033,-0.063 -0.055,-0.103l0.018,-0c0.001,0.035 0.003,0.069 0.004,0.1c0.002,0.031 0.003,0.059 0.004,0.083c0.001,0.024 0.002,0.043 0.002,0.057l-0,0.388l-0.113,-0Z" style="fill:#b8470b;fill-rule:nonzero;"/></g><g transform="matrix(236.527,0,0,236.527,2220.24,3409.6)"><path d="M0.386,0.01c-0.066,-0 -0.123,-0.015 -0.173,-0.046c-0.05,-0.03 -0.088,-0.073 -0.116,-0.129c-0.028,-0.055 -0.042,-0.122 -0.042,-0.198c0,-0.078 0.014,-0.145 0.042,-0.2c0.028,-0.056 0.067,-0.099 0.116,-0.129c0.05,-0.03 0.105,-0.045 0.168,-0.045c0.039,-0 0.076,0.005 0.11,0.017c0.034,0.012 0.065,0.028 0.091,0.049c0.027,0.022 0.049,0.047 0.067,0.077c0.017,0.029 0.029,0.061 0.035,0.097l-0.115,-0c-0.006,-0.022 -0.015,-0.041 -0.027,-0.058c-0.011,-0.017 -0.025,-0.031 -0.04,-0.044c-0.016,-0.012 -0.034,-0.021 -0.054,-0.027c-0.02,-0.007 -0.042,-0.01 -0.066,-0.01c-0.041,0 -0.077,0.011 -0.11,0.031c-0.033,0.021 -0.059,0.052 -0.078,0.092c-0.019,0.041 -0.028,0.091 -0.028,0.149c-0,0.059 0.009,0.108 0.028,0.149c0.019,0.04 0.045,0.071 0.079,0.092c0.033,0.021 0.071,0.031 0.114,0.031c0.039,0 0.073,-0.008 0.102,-0.023c0.029,-0.016 0.052,-0.039 0.068,-0.068c0.016,-0.029 0.024,-0.064 0.024,-0.103l0.029,0.005l-0.207,-0l-0,-0.092l0.287,-0l-0,0.083c-0,0.062 -0.013,0.115 -0.039,0.16c-0.027,0.044 -0.062,0.079 -0.108,0.103c-0.046,0.025 -0.098,0.037 -0.157,0.037Z" style="fill:#b8470b;fill-rule:nonzero;"/></g><g transform="matrix(236.527,0,0,236.527,2397.06,3409.6)"></g><g transform="matrix(236.527,0,0,236.527,2460.12,3409.6)"><path d="M0.283,0.01c-0.049,0 -0.091,-0.009 -0.126,-0.027c-0.035,-0.018 -0.062,-0.042 -0.081,-0.072c-0.019,-0.03 -0.029,-0.064 -0.029,-0.102c0,-0.031 0.006,-0.058 0.019,-0.08c0.012,-0.023 0.03,-0.044 0.052,-0.064c0.022,-0.019 0.047,-0.039 0.076,-0.06l0.118,-0.083c0.009,-0.007 0.019,-0.015 0.028,-0.023c0.01,-0.009 0.018,-0.019 0.024,-0.031c0.007,-0.012 0.01,-0.025 0.01,-0.04c0,-0.021 -0.007,-0.039 -0.021,-0.052c-0.014,-0.014 -0.034,-0.021 -0.059,-0.021c-0.017,-0 -0.032,0.003 -0.045,0.01c-0.013,0.007 -0.023,0.016 -0.03,0.029c-0.007,0.012 -0.01,0.026 -0.01,0.042c-0,0.018 0.004,0.035 0.012,0.051c0.008,0.016 0.019,0.033 0.034,0.051c0.014,0.018 0.03,0.037 0.048,0.059l0.339,0.403l-0.123,-0l-0.279,-0.328c-0.024,-0.028 -0.046,-0.055 -0.066,-0.079c-0.02,-0.025 -0.036,-0.05 -0.048,-0.075c-0.012,-0.025 -0.018,-0.052 -0.018,-0.082c-0,-0.033 0.007,-0.062 0.022,-0.088c0.016,-0.026 0.037,-0.046 0.065,-0.061c0.028,-0.015 0.06,-0.022 0.097,-0.022c0.037,-0 0.069,0.007 0.096,0.022c0.027,0.014 0.048,0.034 0.063,0.058c0.014,0.025 0.022,0.052 0.022,0.082c-0,0.022 -0.004,0.043 -0.013,0.062c-0.008,0.019 -0.019,0.037 -0.034,0.053c-0.014,0.016 -0.031,0.032 -0.05,0.046l-0.146,0.107c-0.027,0.02 -0.046,0.039 -0.058,0.056c-0.011,0.018 -0.017,0.037 -0.017,0.058c-0,0.022 0.005,0.042 0.016,0.058c0.01,0.017 0.025,0.03 0.044,0.039c0.019,0.009 0.041,0.014 0.065,0.014c0.028,-0 0.056,-0.006 0.082,-0.018c0.026,-0.012 0.05,-0.029 0.071,-0.051c0.021,-0.022 0.037,-0.048 0.05,-0.079c0.012,-0.031 0.018,-0.065 0.018,-0.104l0.097,0c0,0.047 -0.005,0.087 -0.016,0.12c-0.01,0.032 -0.023,0.058 -0.038,0.079c-0.015,0.02 -0.03,0.036 -0.043,0.048l-0.024,0.023c-0.025,0.024 -0.055,0.042 -0.09,0.054c-0.035,0.012 -0.07,0.018 -0.104,0.018Z" style="fill:#b8470b;fill-rule:nonzero;"/></g><g transform="matrix(236.527,0,0,236.527,2614.65,3409.6)"></g><g transform="matrix(236.527,0,0,236.527,2677.71,3409.6)"><path d="M0.081,-0l-0,-0.728l0.457,0l0,0.096l-0.346,0l0,0.217l0.322,0l-0,0.095l-0.322,0l0,0.224l0.35,0l-0,0.096l-0.461,0Z" style="fill:#b8470b;fill-rule:nonzero;"/></g><g transform="matrix(236.527,0,0,236.527,2820.34,3409.6)"><path d="M0.317,-0l-0.18,-0l0,-0.097l0.174,-0c0.055,-0 0.101,-0.011 0.137,-0.031c0.037,-0.021 0.064,-0.051 0.082,-0.091c0.018,-0.04 0.028,-0.088 0.028,-0.146c-0,-0.057 -0.01,-0.105 -0.028,-0.144c-0.018,-0.04 -0.045,-0.07 -0.08,-0.09c-0.036,-0.021 -0.08,-0.031 -0.133,-0.031l-0.184,-0l0,-0.098l0.191,0c0.072,0 0.133,0.015 0.184,0.044c0.051,0.029 0.09,0.071 0.118,0.125c0.027,0.054 0.041,0.119 0.041,0.194c-0,0.076 -0.014,0.141 -0.041,0.196c-0.028,0.054 -0.068,0.096 -0.12,0.125c-0.052,0.029 -0.115,0.044 -0.189,0.044Zm-0.125,-0.728l0,0.728l-0.111,-0l-0,-0.728l0.111,0Z" style="fill:#b8470b;fill-rule:nonzero;"/></g><g transform="matrix(236.527,0,0,236.527,2991.04,3409.6)"><path d="M0.386,0.01c-0.066,-0 -0.123,-0.015 -0.173,-0.046c-0.05,-0.03 -0.088,-0.073 -0.116,-0.129c-0.028,-0.055 -0.042,-0.122 -0.042,-0.198c0,-0.078 0.014,-0.145 0.042,-0.2c0.028,-0.056 0.067,-0.099 0.116,-0.129c0.05,-0.03 0.105,-0.045 0.168,-0.045c0.039,-0 0.076,0.005 0.11,0.017c0.034,0.012 0.065,0.028 0.091,0.049c0.027,0.022 0.049,0.047 0.067,0.077c0.017,0.029 0.029,0.061 0.035,0.097l-0.115,-0c-0.006,-0.022 -0.015,-0.041 -0.027,-0.058c-0.011,-0.017 -0.025,-0.031 -0.04,-0.044c-0.016,-0.012 -0.034,-0.021 -0.054,-0.027c-0.02,-0.007 -0.042,-0.01 -0.066,-0.01c-0.041,0 -0.077,0.011 -0.11,0.031c-0.033,0.021 -0.059,0.052 -0.078,0.092c-0.019,0.041 -0.028,0.091 -0.028,0.149c-0,0.059 0.009,0.108 0.028,0.149c0.019,0.04 0.045,0.071 0.079,0.092c0.033,0.021 0.071,0.031 0.114,0.031c0.039,0 0.073,-0.008 0.102,-0.023c0.029,-0.016 0.052,-0.039 0.068,-0.068c0.016,-0.029 0.024,-0.064 0.024,-0.103l0.029,0.005l-0.207,-0l-0,-0.092l0.287,-0l-0,0.083c-0,0.062 -0.013,0.115 -0.039,0.16c-0.027,0.044 -0.062,0.079 -0.108,0.103c-0.046,0.025 -0.098,0.037 -0.157,0.037Z" style="fill:#b8470b;fill-rule:nonzero;"/></g><g transform="matrix(236.527,0,0,236.527,3167.86,3409.6)"><path d="M0.081,-0l-0,-0.728l0.457,0l0,0.096l-0.346,0l0,0.217l0.322,0l-0,0.095l-0.322,0l0,0.224l0.35,0l-0,0.096l-0.461,0Z" style="fill:#b8470b;fill-rule:nonzero;"/></g><g transform="matrix(236.527,0,0,236.527,3310.49,3409.6)"></g><g transform="matrix(236.527,0,0,236.527,3373.55,3409.6)"><path d="M0.025,-0l0.259,-0.728l0.137,0l0.263,0.728l-0.12,-0l-0.142,-0.405c-0.011,-0.033 -0.023,-0.071 -0.036,-0.116c-0.013,-0.045 -0.029,-0.098 -0.046,-0.16l0.023,-0c-0.017,0.063 -0.032,0.117 -0.045,0.162c-0.013,0.045 -0.025,0.083 -0.035,0.114l-0.138,0.405l-0.12,-0Zm0.14,-0.192l0,-0.093l0.379,0l-0,0.093l-0.379,0Z" style="fill:#b8470b;fill-rule:nonzero;"/></g><g transform="matrix(236.527,0,0,236.527,3541.24,3409.6)"><rect x="0.081" y="-0.728" width="0.112" height="0.728" style="fill:#b8470b;fill-rule:nonzero;"/></g><g transform="matrix(236.527,0,0,236.527,3605.69,3409.6)"></g><g transform="matrix(236.527,0,0,236.527,3668.74,3409.6)"></g></g><g><g id="A1" serif:id="A" transform="matrix(1,0,0,0.867895,-4.54747e-13,118.321)"><g transform="matrix(622.698,0,0,622.698,52.9374,3312.6)"><path d="M0.066,-0l-0,-0.728l0.229,0l0.117,0.334c0.005,0.016 0.011,0.036 0.017,0.061c0.007,0.025 0.013,0.051 0.02,0.08c0.006,0.029 0.012,0.057 0.018,0.084c0.006,0.026 0.01,0.05 0.014,0.07l-0.029,-0c0.004,-0.02 0.009,-0.043 0.014,-0.07c0.006,-0.026 0.012,-0.054 0.018,-0.083c0.007,-0.029 0.013,-0.055 0.02,-0.081c0.006,-0.025 0.012,-0.045 0.017,-0.061l0.116,-0.334l0.229,0l0,0.728l-0.15,-0l0,-0.343c0,-0.016 0.001,-0.036 0.001,-0.059c0.001,-0.024 0.001,-0.05 0.002,-0.077c0.001,-0.028 0.002,-0.055 0.002,-0.083c0.001,-0.028 0.001,-0.054 0.001,-0.079l0.01,-0c-0.006,0.027 -0.013,0.055 -0.021,0.084c-0.007,0.028 -0.015,0.056 -0.022,0.083c-0.008,0.027 -0.015,0.052 -0.022,0.075c-0.007,0.022 -0.013,0.041 -0.018,0.056l-0.12,0.343l-0.126,-0l-0.122,-0.343c-0.005,-0.015 -0.011,-0.033 -0.018,-0.056c-0.006,-0.022 -0.014,-0.047 -0.022,-0.074c-0.007,-0.026 -0.015,-0.054 -0.023,-0.083c-0.007,-0.029 -0.015,-0.057 -0.022,-0.085l0.012,-0c0,0.023 0.001,0.049 0.001,0.077c0.001,0.027 0.003,0.136 0.004,0.16c0.001,0.024 0.001,0.045 0.001,0.061l-0,0.343l-0.148,-0Z" style="fill:#efc893;fill-rule:nonzero;"/></g><g transform="matrix(622.698,0,0,622.698,633.068,3312.6)"><path d="M0.306,0.011c-0.054,-0 -0.102,-0.012 -0.142,-0.036c-0.039,-0.023 -0.07,-0.056 -0.092,-0.098c-0.021,-0.042 -0.032,-0.092 -0.032,-0.148c-0,-0.056 0.011,-0.105 0.032,-0.148c0.022,-0.042 0.053,-0.075 0.092,-0.098c0.04,-0.024 0.088,-0.036 0.142,-0.036c0.033,0 0.063,0.004 0.09,0.013c0.027,0.008 0.052,0.02 0.073,0.036c0.021,0.016 0.038,0.035 0.052,0.057c0.014,0.023 0.023,0.048 0.028,0.076l-0.136,0.025c-0.003,-0.014 -0.008,-0.027 -0.014,-0.038c-0.006,-0.011 -0.013,-0.021 -0.022,-0.029c-0.009,-0.008 -0.019,-0.014 -0.031,-0.018c-0.011,-0.004 -0.024,-0.006 -0.038,-0.006c-0.026,-0 -0.048,0.007 -0.066,0.021c-0.017,0.014 -0.031,0.033 -0.04,0.058c-0.009,0.025 -0.013,0.054 -0.013,0.087c-0,0.032 0.004,0.061 0.013,0.086c0.009,0.025 0.023,0.045 0.04,0.059c0.018,0.014 0.04,0.021 0.066,0.021c0.014,0 0.027,-0.002 0.039,-0.006c0.012,-0.004 0.022,-0.011 0.031,-0.019c0.009,-0.008 0.017,-0.018 0.023,-0.03c0.006,-0.012 0.01,-0.025 0.013,-0.04l0.136,0.025c-0.005,0.029 -0.014,0.055 -0.028,0.078c-0.014,0.022 -0.031,0.042 -0.052,0.058c-0.021,0.016 -0.046,0.028 -0.073,0.037c-0.028,0.008 -0.058,0.013 -0.091,0.013Z" style="fill:#efc893;fill-rule:nonzero;"/></g><g transform="matrix(622.698,0,0,622.698,968.438,3312.6)"><path d="M0.219,-0l-0.195,-0.728l0.163,0l0.084,0.358c0.007,0.03 0.013,0.062 0.019,0.096c0.006,0.034 0.011,0.069 0.017,0.103c0.005,0.034 0.01,0.067 0.016,0.099l-0.027,-0c0.006,-0.032 0.012,-0.065 0.018,-0.099c0.006,-0.034 0.012,-0.069 0.018,-0.103c0.006,-0.034 0.013,-0.066 0.02,-0.096l0.089,-0.358l0.155,0l0.089,0.358c0.007,0.03 0.014,0.062 0.02,0.096c0.006,0.034 0.012,0.069 0.018,0.103c0.006,0.034 0.012,0.067 0.018,0.099l-0.027,-0c0.005,-0.032 0.011,-0.065 0.016,-0.099c0.006,-0.034 0.011,-0.069 0.017,-0.103c0.006,-0.034 0.013,-0.066 0.019,-0.096l0.085,-0.358l0.163,0l-0.196,0.728l-0.17,-0l-0.097,-0.372c-0.01,-0.041 -0.019,-0.086 -0.026,-0.135c-0.008,-0.048 -0.016,-0.097 -0.025,-0.148l0.037,-0c-0.01,0.05 -0.018,0.098 -0.025,0.146c-0.006,0.047 -0.015,0.093 -0.026,0.137l-0.096,0.372l-0.171,-0Z" style="fill:#efc893;fill-rule:nonzero;"/></g><g transform="matrix(622.698,0,0,622.698,1614.55,3312.6)"><path d="M0.062,-0l0,-0.546l0.147,0l-0,0.546l-0.147,-0Zm0.074,-0.617c-0.022,-0 -0.041,-0.007 -0.057,-0.022c-0.016,-0.015 -0.024,-0.033 -0.024,-0.053c0,-0.021 0.008,-0.039 0.024,-0.054c0.016,-0.014 0.035,-0.022 0.057,-0.022c0.022,0 0.041,0.008 0.057,0.022c0.015,0.015 0.023,0.033 0.023,0.054c0,0.02 -0.008,0.038 -0.023,0.053c-0.016,0.015 -0.035,0.022 -0.057,0.022Z" style="fill:#efc893;fill-rule:nonzero;"/></g><g transform="matrix(622.698,0,0,622.698,1783.3,3312.6)"><rect x="0.062" y="-0.728" width="0.146" height="0.728" style="fill:#efc893;fill-rule:nonzero;"/></g><g transform="matrix(622.698,0,0,622.698,1952.05,3312.6)"><rect x="0.062" y="-0.728" width="0.146" height="0.728" style="fill:#efc893;fill-rule:nonzero;"/></g><g transform="matrix(622.698,0,0,622.698,2120.79,3312.6)"><path d="M0.062,-0l0,-0.546l0.147,0l-0,0.546l-0.147,-0Zm0.074,-0.617c-0.022,-0 -0.041,-0.007 -0.057,-0.022c-0.016,-0.015 -0.024,-0.033 -0.024,-0.053c0,-0.021 0.008,-0.039 0.024,-0.054c0.016,-0.014 0.035,-0.022 0.057,-0.022c0.022,0 0.041,0.008 0.057,0.022c0.015,0.015 0.023,0.033 0.023,0.054c0,0.02 -0.008,0.038 -0.023,0.053c-0.016,0.015 -0.035,0.022 -0.057,0.022Z" style="fill:#efc893;fill-rule:nonzero;"/></g><g transform="matrix(622.698,0,0,622.698,2289.54,3312.6)"><path d="M0.215,0.011c-0.035,-0 -0.066,-0.007 -0.093,-0.019c-0.028,-0.012 -0.049,-0.03 -0.065,-0.054c-0.016,-0.025 -0.024,-0.055 -0.024,-0.091c0,-0.03 0.006,-0.056 0.017,-0.076c0.011,-0.02 0.026,-0.037 0.046,-0.049c0.019,-0.013 0.041,-0.022 0.066,-0.029c0.024,-0.006 0.05,-0.011 0.077,-0.013c0.032,-0.004 0.057,-0.007 0.076,-0.009c0.02,-0.003 0.034,-0.008 0.043,-0.014c0.009,-0.006 0.014,-0.014 0.014,-0.026l-0,-0.003c-0,-0.015 -0.004,-0.028 -0.01,-0.039c-0.007,-0.011 -0.017,-0.019 -0.029,-0.025c-0.013,-0.006 -0.029,-0.008 -0.047,-0.008c-0.019,-0 -0.035,0.002 -0.049,0.008c-0.014,0.006 -0.025,0.013 -0.034,0.023c-0.009,0.009 -0.016,0.02 -0.02,0.032l-0.134,-0.023c0.009,-0.031 0.025,-0.058 0.047,-0.08c0.021,-0.023 0.049,-0.04 0.081,-0.051c0.032,-0.012 0.069,-0.018 0.109,-0.018c0.03,0 0.058,0.004 0.086,0.011c0.028,0.007 0.052,0.017 0.074,0.032c0.022,0.015 0.04,0.034 0.053,0.058c0.013,0.023 0.019,0.051 0.019,0.084l0,0.368l-0.139,-0l0,-0.076l-0.005,0c-0.008,0.017 -0.02,0.032 -0.035,0.045c-0.014,0.013 -0.032,0.023 -0.053,0.031c-0.02,0.007 -0.044,0.011 -0.071,0.011Zm0.041,-0.103c0.023,-0 0.044,-0.005 0.061,-0.014c0.017,-0.009 0.031,-0.021 0.041,-0.037c0.01,-0.016 0.015,-0.033 0.015,-0.052l-0,-0.059c-0.005,0.003 -0.011,0.006 -0.02,0.008c-0.009,0.003 -0.018,0.005 -0.029,0.007c-0.011,0.002 -0.021,0.004 -0.032,0.006c-0.01,0.001 -0.02,0.003 -0.028,0.004c-0.018,0.002 -0.034,0.006 -0.047,0.012c-0.014,0.006 -0.024,0.014 -0.032,0.023c-0.008,0.01 -0.011,0.022 -0.011,0.037c-0,0.014 0.003,0.026 0.01,0.036c0.008,0.009 0.017,0.017 0.03,0.022c0.012,0.004 0.026,0.007 0.042,0.007Z" style="fill:#efc893;fill-rule:nonzero;"/></g><g transform="matrix(622.698,0,0,622.698,2651.06,3312.6)"><path d="M0.062,-0l0,-0.546l0.136,0l0.008,0.136l-0.011,-0c0.008,-0.034 0.021,-0.061 0.037,-0.082c0.017,-0.021 0.036,-0.037 0.058,-0.047c0.022,-0.01 0.046,-0.015 0.07,-0.015c0.039,-0 0.071,0.012 0.095,0.037c0.024,0.025 0.042,0.064 0.053,0.116l-0.017,-0c0.008,-0.035 0.022,-0.064 0.04,-0.087c0.019,-0.022 0.04,-0.039 0.065,-0.05c0.026,-0.011 0.052,-0.016 0.08,-0.016c0.033,-0 0.063,0.007 0.089,0.022c0.027,0.014 0.047,0.035 0.062,0.063c0.015,0.028 0.023,0.061 0.023,0.101l-0,0.368l-0.146,-0l-0,-0.34c-0,-0.031 -0.009,-0.054 -0.025,-0.069c-0.017,-0.015 -0.038,-0.023 -0.062,-0.023c-0.019,0 -0.034,0.004 -0.048,0.012c-0.014,0.008 -0.024,0.02 -0.031,0.034c-0.007,0.014 -0.011,0.031 -0.011,0.05l0,0.336l-0.142,-0l0,-0.344c0,-0.027 -0.008,-0.048 -0.023,-0.064c-0.016,-0.016 -0.037,-0.024 -0.062,-0.024c-0.017,0 -0.032,0.004 -0.046,0.012c-0.014,0.008 -0.025,0.019 -0.033,0.034c-0.008,0.016 -0.012,0.034 -0.012,0.056l-0,0.33l-0.147,-0Z" style="fill:#efc893;fill-rule:nonzero;"/></g><g transform="matrix(622.698,0,0,622.698,3219.33,3312.6)"><path d="M0.279,0.011c-0.044,-0 -0.083,-0.007 -0.116,-0.019c-0.034,-0.013 -0.062,-0.031 -0.083,-0.055c-0.022,-0.024 -0.036,-0.052 -0.042,-0.086l0.136,-0.024c0.008,0.026 0.02,0.045 0.038,0.057c0.018,0.013 0.042,0.019 0.072,0.019c0.027,0 0.05,-0.005 0.066,-0.016c0.016,-0.01 0.024,-0.024 0.024,-0.04c0,-0.014 -0.006,-0.026 -0.017,-0.035c-0.012,-0.009 -0.029,-0.016 -0.054,-0.021l-0.094,-0.02c-0.052,-0.01 -0.091,-0.029 -0.118,-0.055c-0.026,-0.025 -0.039,-0.059 -0.039,-0.1c0,-0.034 0.01,-0.065 0.029,-0.09c0.019,-0.025 0.046,-0.045 0.08,-0.058c0.034,-0.014 0.075,-0.021 0.121,-0.021c0.043,0 0.08,0.006 0.112,0.018c0.031,0.012 0.057,0.029 0.076,0.051c0.02,0.021 0.033,0.047 0.039,0.077l-0.13,0.023c-0.005,-0.019 -0.016,-0.034 -0.032,-0.046c-0.015,-0.012 -0.037,-0.018 -0.063,-0.018c-0.024,0 -0.044,0.005 -0.061,0.016c-0.016,0.01 -0.024,0.023 -0.024,0.04c-0,0.013 0.005,0.025 0.016,0.034c0.01,0.01 0.028,0.017 0.054,0.023l0.098,0.019c0.053,0.011 0.092,0.028 0.118,0.053c0.026,0.024 0.039,0.056 0.039,0.095c-0,0.035 -0.011,0.067 -0.032,0.094c-0.021,0.026 -0.049,0.047 -0.086,0.062c-0.037,0.015 -0.079,0.023 -0.127,0.023Z" style="fill:#efc893;fill-rule:nonzero;"/></g><g transform="matrix(622.698,0,0,622.698,3568.08,3312.6)"></g><g transform="matrix(622.698,0,0,622.698,3715.55,3312.6)"></g></g><g id="A2" serif:id="A" transform="matrix(1,0,0,0.894444,4.54747e-13,31.1239)"><g transform="matrix(632.722,0,0,632.722,660.819,2750.7)"><path d="M0.388,0.01c-0.068,-0 -0.127,-0.015 -0.179,-0.046c-0.051,-0.03 -0.091,-0.073 -0.12,-0.128c-0.029,-0.056 -0.043,-0.122 -0.043,-0.199c-0,-0.078 0.015,-0.146 0.045,-0.202c0.03,-0.055 0.07,-0.098 0.121,-0.128c0.051,-0.029 0.109,-0.044 0.173,-0.044c0.041,-0 0.079,0.006 0.114,0.017c0.035,0.012 0.067,0.029 0.095,0.051c0.027,0.022 0.05,0.048 0.067,0.078c0.017,0.029 0.029,0.062 0.034,0.098l-0.152,0c-0.005,-0.017 -0.012,-0.033 -0.021,-0.047c-0.01,-0.014 -0.021,-0.025 -0.034,-0.035c-0.013,-0.01 -0.028,-0.017 -0.045,-0.022c-0.017,-0.005 -0.035,-0.008 -0.056,-0.008c-0.037,0 -0.07,0.009 -0.099,0.028c-0.028,0.019 -0.051,0.046 -0.067,0.082c-0.016,0.036 -0.024,0.079 -0.024,0.131c0,0.051 0.008,0.095 0.024,0.131c0.016,0.036 0.038,0.063 0.067,0.082c0.028,0.019 0.062,0.028 0.101,0.028c0.035,0 0.065,-0.006 0.091,-0.019c0.025,-0.012 0.044,-0.031 0.057,-0.054c0.014,-0.023 0.02,-0.051 0.02,-0.083l0.032,0.005l-0.189,-0l-0,-0.114l0.302,0l0,0.091c0,0.064 -0.013,0.119 -0.04,0.164c-0.027,0.046 -0.064,0.081 -0.112,0.106c-0.047,0.024 -0.101,0.037 -0.162,0.037Z" style="fill:#efc893;fill-rule:nonzero;"/></g><g transform="matrix(632.722,0,0,632.722,1135.67,2750.7)"><path d="M0.215,0.011c-0.035,-0 -0.066,-0.007 -0.093,-0.019c-0.028,-0.012 -0.049,-0.03 -0.065,-0.054c-0.016,-0.025 -0.024,-0.055 -0.024,-0.091c0,-0.03 0.006,-0.056 0.017,-0.076c0.011,-0.02 0.026,-0.037 0.046,-0.049c0.019,-0.013 0.041,-0.022 0.066,-0.029c0.024,-0.006 0.05,-0.011 0.077,-0.013c0.032,-0.004 0.057,-0.007 0.076,-0.009c0.02,-0.003 0.034,-0.008 0.043,-0.014c0.009,-0.006 0.014,-0.014 0.014,-0.026l-0,-0.003c-0,-0.015 -0.004,-0.028 -0.01,-0.039c-0.007,-0.011 -0.017,-0.019 -0.029,-0.025c-0.013,-0.006 -0.029,-0.008 -0.047,-0.008c-0.019,-0 -0.035,0.002 -0.049,0.008c-0.014,0.006 -0.025,0.013 -0.034,0.023c-0.009,0.009 -0.016,0.02 -0.02,0.032l-0.134,-0.023c0.009,-0.031 0.025,-0.058 0.047,-0.08c0.021,-0.023 0.049,-0.04 0.081,-0.051c0.032,-0.012 0.069,-0.018 0.109,-0.018c0.03,0 0.058,0.004 0.086,0.011c0.028,0.007 0.052,0.017 0.074,0.032c0.022,0.015 0.04,0.034 0.053,0.058c0.013,0.023 0.019,0.051 0.019,0.084l0,0.368l-0.139,-0l0,-0.076l-0.005,0c-0.008,0.017 -0.02,0.032 -0.035,0.045c-0.014,0.013 -0.032,0.023 -0.053,0.031c-0.02,0.007 -0.044,0.011 -0.071,0.011Zm0.041,-0.103c0.023,-0 0.044,-0.005 0.061,-0.014c0.017,-0.009 0.031,-0.021 0.041,-0.037c0.01,-0.016 0.015,-0.033 0.015,-0.052l-0,-0.059c-0.005,0.003 -0.011,0.006 -0.02,0.008c-0.009,0.003 -0.018,0.005 -0.029,0.007c-0.011,0.002 -0.021,0.004 -0.032,0.006c-0.01,0.001 -0.02,0.003 -0.028,0.004c-0.018,0.002 -0.034,0.006 -0.047,0.012c-0.014,0.006 -0.024,0.014 -0.032,0.023c-0.008,0.01 -0.011,0.022 -0.011,0.037c-0,0.014 0.003,0.026 0.01,0.036c0.008,0.009 0.017,0.017 0.03,0.022c0.012,0.004 0.026,0.007 0.042,0.007Z" style="fill:#efc893;fill-rule:nonzero;"/></g><g transform="matrix(632.722,0,0,632.722,1503.01,2750.7)"><path d="M0.368,0.009c-0.029,0 -0.054,-0.005 -0.075,-0.015c-0.02,-0.01 -0.037,-0.022 -0.05,-0.037c-0.013,-0.015 -0.023,-0.03 -0.029,-0.044l-0.008,-0l0,0.087l-0.144,-0l0,-0.728l0.147,0l-0,0.274l0.005,-0c0.006,-0.015 0.016,-0.029 0.028,-0.045c0.013,-0.015 0.029,-0.028 0.05,-0.038c0.02,-0.011 0.046,-0.016 0.077,-0.016c0.041,0 0.078,0.011 0.111,0.032c0.033,0.02 0.06,0.052 0.08,0.093c0.02,0.042 0.031,0.094 0.031,0.156c-0,0.061 -0.01,0.112 -0.03,0.154c-0.019,0.041 -0.046,0.073 -0.079,0.095c-0.034,0.021 -0.072,0.032 -0.114,0.032Zm-0.045,-0.117c0.026,-0 0.047,-0.007 0.065,-0.021c0.017,-0.014 0.03,-0.034 0.039,-0.058c0.009,-0.025 0.013,-0.054 0.013,-0.085c0,-0.032 -0.004,-0.061 -0.013,-0.085c-0.009,-0.025 -0.022,-0.044 -0.039,-0.058c-0.018,-0.013 -0.039,-0.02 -0.065,-0.02c-0.025,-0 -0.046,0.006 -0.064,0.02c-0.017,0.013 -0.031,0.032 -0.04,0.056c-0.009,0.025 -0.013,0.053 -0.013,0.087c-0,0.032 0.004,0.061 0.013,0.086c0.01,0.024 0.023,0.043 0.041,0.057c0.017,0.014 0.038,0.021 0.063,0.021Z" style="fill:#efc893;fill-rule:nonzero;"/></g><g transform="matrix(632.722,0,0,632.722,1901.86,2750.7)"><path d="M0.062,-0l0,-0.546l0.142,0l0,0.095l0.006,0c0.01,-0.033 0.027,-0.059 0.05,-0.076c0.024,-0.018 0.051,-0.026 0.082,-0.026c0.007,-0 0.015,0 0.024,0.001c0.009,0.001 0.016,0.002 0.023,0.004l0,0.131c-0.006,-0.003 -0.016,-0.005 -0.028,-0.006c-0.013,-0.001 -0.024,-0.002 -0.035,-0.002c-0.023,0 -0.043,0.005 -0.06,0.015c-0.018,0.009 -0.032,0.023 -0.042,0.04c-0.01,0.017 -0.015,0.037 -0.015,0.059l-0,0.311l-0.147,0Z" style="fill:#efc893;fill-rule:nonzero;"/></g><g transform="matrix(632.722,0,0,632.722,2162.3,2750.7)"><path d="M0.062,-0l0,-0.546l0.147,0l-0,0.546l-0.147,-0Zm0.074,-0.617c-0.022,-0 -0.041,-0.007 -0.057,-0.022c-0.016,-0.015 -0.024,-0.033 -0.024,-0.053c0,-0.021 0.008,-0.039 0.024,-0.054c0.016,-0.014 0.035,-0.022 0.057,-0.022c0.022,0 0.041,0.008 0.057,0.022c0.015,0.015 0.023,0.033 0.023,0.054c0,0.02 -0.008,0.038 -0.023,0.053c-0.016,0.015 -0.035,0.022 -0.057,0.022Z" style="fill:#efc893;fill-rule:nonzero;"/></g><g transform="matrix(632.722,0,0,632.722,2333.76,2750.7)"><path d="M0.309,0.011c-0.055,-0 -0.103,-0.012 -0.144,-0.035c-0.04,-0.022 -0.071,-0.055 -0.093,-0.097c-0.021,-0.042 -0.032,-0.092 -0.032,-0.149c-0,-0.056 0.01,-0.106 0.032,-0.148c0.021,-0.042 0.052,-0.075 0.091,-0.099c0.04,-0.024 0.086,-0.036 0.139,-0.036c0.036,0 0.069,0.006 0.1,0.017c0.031,0.012 0.058,0.029 0.081,0.052c0.024,0.023 0.042,0.051 0.055,0.086c0.013,0.035 0.02,0.075 0.02,0.122l-0,0.041l-0.458,0l-0,-0.092l0.387,0l-0.069,0.025c0,-0.029 -0.004,-0.053 -0.013,-0.074c-0.009,-0.021 -0.021,-0.038 -0.038,-0.049c-0.018,-0.012 -0.039,-0.017 -0.064,-0.017c-0.025,-0 -0.047,0.005 -0.064,0.017c-0.018,0.012 -0.032,0.028 -0.041,0.048c-0.009,0.02 -0.014,0.043 -0.014,0.068l0,0.065c0,0.032 0.006,0.058 0.016,0.08c0.011,0.021 0.026,0.037 0.045,0.048c0.019,0.011 0.041,0.016 0.067,0.016c0.017,0 0.032,-0.002 0.046,-0.007c0.014,-0.005 0.026,-0.012 0.036,-0.022c0.01,-0.009 0.018,-0.021 0.023,-0.035l0.133,0.025c-0.009,0.03 -0.024,0.056 -0.046,0.079c-0.022,0.022 -0.049,0.04 -0.082,0.052c-0.033,0.012 -0.07,0.019 -0.113,0.019Z" style="fill:#efc893;fill-rule:nonzero;"/></g><g transform="matrix(632.722,0,0,632.722,2710.68,2750.7)"><rect x="0.062" y="-0.728" width="0.146" height="0.728" style="fill:#efc893;fill-rule:nonzero;"/></g><g transform="matrix(632.722,0,0,632.722,2882.14,2750.7)"></g><g transform="matrix(632.722,0,0,632.722,3031.98,2750.7)"></g></g></g><g><path d="M2306.4,1722.78c-0.049,0.155 -0.089,0.235 -0.119,0.238c0.039,-0.08 0.079,-0.159 0.119,-0.238Zm-321.718,257.934c-0.308,1.463 -0.567,2.017 -0.755,1.37c0.254,-0.457 0.506,-0.913 0.755,-1.37Zm-161.824,-805.633c-0,-0 41.647,-71.483 44.571,-96.503c1.837,-15.714 5.434,-33.598 7.48,-49.74c2.222,-17.538 1.204,-47.869 3.212,-53.643c2.691,-7.739 25.474,0.162 39.918,0.488c15.435,0.35 38.07,-8.427 38.07,-8.427c0,0 31.128,-9.996 36.39,-0.669c3.757,6.661 0.998,34.563 3.059,51.908c4.712,39.655 -0.742,131.827 48.611,182.361c31.553,51.047 125.428,75.509 204.042,77.446c72.804,1.794 77.474,-6.343 136.885,-15.571c0,-0 73.431,12.518 92.627,33.641c-62.103,-22.343 -120.12,-21.012 -173.585,6.694c11.809,12.115 46.256,25.153 99.036,38.937c23.812,14.902 50.843,34.983 82.877,63.115l-80.248,-28.775c-21.93,-6.626 -40.551,-9.615 -54.611,-7.593c17.242,30.513 30.905,65.007 43.712,100.453c-3.718,19.156 -54.481,-60.409 -74.442,-109.759c-8.41,-20.792 -51.006,-27.097 -74.715,-34.927l-60.582,-7.165c-13.617,0.977 57.933,119.533 101.86,125.203c-44.756,1.893 -85.862,-24.27 -122.675,-83.426c-26.212,-40.466 -74.301,-65.137 -132.395,-82.584c-5.376,0.386 -8.434,46.644 12.984,91.147c23.088,47.974 72.115,80.956 85.068,91.732c24.393,20.295 127.974,63.022 208.698,59.848c64.427,-2.533 92.225,41.459 94.38,56.535c0.69,4.832 -48.763,-30.799 -68.745,-35.354c-22.403,-5.107 -78.055,-0.157 -78.055,-0.157c-0,-0 51.298,55.788 66.28,81.57c14.132,24.32 26.509,56.543 30.018,78.415l-59.433,-70.551c0.651,43.262 -6.158,71.873 -16.75,93.05c1.559,-4.98 11.854,-86.881 -2.915,-114.659c-23.604,-44.398 -57.863,-66.319 -138.804,-87.879c0,-0 26.514,42.244 35.113,66.54c8.938,25.256 18.515,84.995 18.515,84.995l-61.624,-99.168c-0.861,-1.386 -5.693,-14.128 -7.286,-16.742c-6.009,-9.865 -16.63,-21.973 -26.512,-32.628c-14.178,-15.289 -51.271,-42.363 -51.271,-42.363c0,0 -13.845,91.934 3.672,126.344c21.199,41.642 64.809,109.746 130.369,134.523c11.67,4.41 10.099,16.823 17.423,20.757c-26.256,-10.046 -53.497,-22.959 -85.729,-50.388l9.477,45.36c-4.076,16.29 -6.486,33.957 -7.997,52.367c-4.034,-10.279 -7.13,-25.747 -9.476,-45.36l-17.201,-67.825c-31.666,-22.765 -69.305,-59.536 -73.539,-98.065c0.004,-0.099 -0.005,-0.182 -0.027,-0.247c0.009,0.083 0.018,0.165 0.027,0.247c-0.214,4.871 -31.861,50.494 -42.97,66.136c-11.47,16.151 -19.576,63.882 -13.091,64.243c3.307,35.851 18.638,62.716 42.398,83.282c27.421,39.241 34.518,63.401 36.427,83.711c-15.577,-32.046 -32.199,-58.961 -53.024,-65.256c4.996,51.898 2.196,102.649 -23.673,150.009c1.893,-8.965 5.663,-52.079 6.365,-62.445c1.401,-20.654 -0.144,-79.751 -0.165,-80.548c0,-0.001 0,-0.004 -0,-0.008c-0,0 -0,0.003 0,0.008c-0.019,0.213 -3.665,-17.287 -8.162,-28.197c-6.145,-14.906 -18.916,-43.462 -28.704,-61.245c-13.416,7.727 -30.581,44.899 -42.067,77.83c-8.754,-10.924 -8.563,-26.964 -3.506,-45.788c0,0 41.673,-96.024 46.284,-101.152c3.523,-3.917 6.1,-15.217 10.188,-23.75c7.432,-15.51 34.954,-57.22 47.599,-83.981c14.692,-31.093 27.271,-83.531 13.802,-133.352l-76.634,-138.376l-12.205,-7.962c1.15,15.061 3.327,29.681 7.317,38.704c15.572,35.21 29.051,66.91 29.46,111.22c0.357,38.737 -15.836,66.17 -34.459,103.176c-10.323,24.075 -9.978,62.592 -1.027,112.758c-11.694,-20.824 -21.712,-36.172 -21.712,-36.172c0,-0 -8.418,-24.727 -10.514,-38.842l-57.848,61.527c7.532,-24.162 42.228,-51.784 57.758,-85.191c14.248,-30.647 24.028,-62.801 30.129,-96.194c2.921,-45.056 -13.863,-89.634 -35.351,-133.465c-39.415,27.309 -60.837,126.06 -77.576,220.312c-13.359,-34.365 -16.14,-81.563 2.321,-154.526c-43.912,25.381 -79.236,55.65 -91.101,99.271c-14.965,26.412 -11.118,71.139 22.273,130.744c-3.961,21.573 -39.953,-47.402 -45.305,-77.736c-0.612,-3.467 -30.503,90.685 -33.075,85.072c-7.471,-31.13 8.302,-108.618 8.302,-108.618c6.801,6.877 22.169,-43.473 24.416,-71.11c-52.016,12.514 -93.603,34.94 -115.874,75.725c-9.311,-18.829 9.038,-42.69 37.494,-68.389l82.62,-37.981c2.897,6.744 71.111,-39.138 104.269,-72.886c15.981,-16.266 48.044,-77.498 57.74,-96.368l-26.069,-17.005c-7.022,7.306 -19.648,20.703 -26.264,29.323c-32.52,74.812 -77.052,109.181 -128.996,118.593c-0,-0 36.986,-24.578 50.667,-43.918c17.154,-24.249 52.255,-101.58 52.255,-101.58c-2.494,-3.069 -119.948,21.233 -139.35,61.787c-17.271,36.102 -34.215,125.401 -51.378,113.027c1.095,-25.027 5.972,-54.873 22.402,-99.439c7.061,-10.566 -100.715,31.178 -116.343,48.627c-6.171,6.89 34.937,-53.34 54.884,-67.24c16.864,-11.75 50.503,-19.927 63.923,-27.603c9.7,-5.549 22.129,-24.606 22.129,-24.606c-56.031,-18.376 -107.139,-11.382 -155.235,11.132c0,-0 40.464,-33.63 63.047,-39.051c28.493,-6.839 69.049,0.804 107.909,-1.983c41.794,-2.997 95.468,-6.499 124.505,-20.438c8.275,-3.972 27.038,-17.324 27.038,-17.324Zm464.167,267.474c3.221,-0.136 6.461,-0.417 9.72,-0.842c-3.036,1.04 -6.294,1.285 -9.72,0.842Zm-63.945,319.945c0.748,0.287 1.496,0.571 2.242,0.852c-0.832,-0.205 -1.574,-0.493 -2.242,-0.852Z" style="fill:#e7cba8;"/><path d="M1806.39,298.922c40.159,22.551 88.715,50.965 119.531,86.465l24.205,-92.57l15.248,85.884c23.492,-20.738 57.374,-38.41 94.048,-55.259l-89.036,85.303l-4.693,93.476c59.001,-43.256 123.974,-68.23 193.107,-80.473c-89.394,42.752 -161.669,87.121 -182.87,136.313l-8.638,42.187c0,-0 4.711,66.719 6.907,97.812c2.088,29.581 14.366,73.347 11.673,87.647c-1.13,6.006 -14.367,0.018 -24.89,-1.488c-1.979,-0.283 -10.391,0.718 -11.909,0.98c-17.831,3.08 -9.148,1.534 -26.709,2.049c-18.234,0.536 -44.105,6.034 -46.758,-5.289c-4.762,-20.333 -0.577,-112.874 -1.508,-143.448c-1.563,-51.315 -169.222,-105.96 -157.278,-113.77c45.945,6.076 101.826,27.786 166.342,63.085l2.346,-46.738c7.189,-33.89 -72.092,-87.725 -162.503,-139.565c53.948,11.945 106.197,34.93 178.071,89.181l4.052,-80.729l-98.738,-111.053Z" style="fill:#e7cba8;"/><path d="M1776.31,564.97l-114.749,-61.655l126.18,26.952c-60.958,-102.35 -162.876,-116.533 -270.683,-76.664c63.319,128.764 155.68,154.229 259.252,111.367Z" style="fill:#e7cba8;"/><path d="M1964.87,211.851l-29.694,113.866c-74.133,-82.085 -59.378,-175.748 37.485,-269.083c87.768,100.034 78.329,194.591 -1.889,276.498l-5.902,-121.281Z" style="fill:#e7cba8;"/><path d="M2107,287.715l-80.347,48.131c6.012,-97.724 73.352,-161.204 182.676,-175.912c-6.552,106.688 -56.104,174.729 -159.619,194.269l57.29,-66.488Z" style="fill:#e7cba8;"/><path d="M2223.41,392.478l-115.654,34.968c29.969,-82.153 98.063,-132.854 234.195,-127.424c-31.955,145.46 -114.118,175.785 -217.696,157l99.155,-64.544Z" style="fill:#e7cba8;"/><path d="M1681.41,371.643l86.537,67.4c-116.869,13.219 -191.489,-51.203 -200.958,-176.43c108.09,4.406 191.054,42.818 220.055,154.268l-105.634,-45.238Z" style="fill:#e7cba8;"/><path d="M1827.8,339.316l-44.384,-71.206l75.442,49.599c-5.403,-108.97 -63.506,-176.158 -164.497,-186.263c2.136,124.39 55.722,181.829 133.439,207.87Z" style="fill:#e7cba8;"/><path d="M1974.53,852.651c8.557,9.062 30.698,12.673 23.255,-1.746c-1.318,-2.552 2.346,-15.748 -2.801,-19.599c-3.76,-2.814 -6.613,-12.713 -12.548,-17.52c-2.83,-2.293 -15.638,-4.378 -19.047,-4.345c-2.898,0.027 -19.986,6.11 -18.749,7.836c8.365,11.68 8.481,21.346 5.526,26.47c-4.48,7.765 20.669,4.991 24.364,8.904Z" style="fill:#b8470b;"/><path d="M1845.13,866.759c1.452,-0.526 16.525,-3.541 24.139,-3.874c11.75,-0.513 17.34,14.048 17.325,18.015c-0.027,7.435 -0.93,16.041 -7.409,19.998c-2.65,1.618 -9.926,12.093 -15.23,16.981c-5.919,5.456 -17.609,16.461 -20.286,15.752c-19.322,-5.118 -31.712,-54.858 1.461,-66.872Z" style="fill:#b8470b;"/><path d="M2367.53,901.501c2.961,-5.235 9.782,-9.809 16.782,-13.204c10.501,-5.092 19.923,-17.26 19.923,-17.26c2.084,-0.007 8.846,23.901 8.535,31.318c-0.223,5.325 3.503,22.968 4.315,28.299c0.913,5.98 17.49,36.645 2.254,39.429c-33.752,6.166 -46.414,-33.208 -52.791,-50.377c-0,0 -1.978,-12.97 0.982,-18.205Z" style="fill:#b8470b;"/><path d="M2356.02,785.996c6.667,5.799 10.145,11.578 14.358,15.624c4.741,4.553 13.412,10.341 18.692,18.488c4.771,7.36 3.768,18.167 8.399,23.957c5.323,6.657 3.115,19.443 1.083,25.259c-1.578,4.518 -13.274,9.634 -13.274,9.634c0,-0 -17.205,16.829 -23.175,11.524c-3.455,-3.07 -7.337,-7.18 -11.356,-13.407c-5.268,-8.163 -6.409,-12.672 -14.773,-18.429c-2.078,-1.43 -2.572,-19.865 -1.084,-25.259c3.341,-12.108 21.13,-47.391 21.13,-47.391Z" style="fill:#b8470b;"/><path d="M2218.33,832.359c-0,0 -4.932,-29.649 -2.708,-40.679c0.415,-2.061 1.422,-10.572 2.214,-15.846c1.245,-8.297 22.283,-13.492 5.26,-33.936c-1.805,-2.168 -20.462,-21.927 -5.853,-33.895c3.691,-3.024 15.031,8.036 18.897,8.892c7.527,1.668 23.768,14.114 35.481,22.327c13.662,9.579 28.425,17.843 37.794,17.785c7.962,-0.049 22.102,6.585 33.07,15.562c2.928,2.396 2.581,6.432 -4.526,20.388c-6.938,13.623 -4.705,36.174 -11.366,45.315c-3.847,5.278 -36.104,-0.102 -44.732,-4.163c-24.39,-11.477 -63.531,-1.75 -63.531,-1.75Z" style="fill:#b8470b;"/><path d="M2293.15,852.952c-0,-0 33.942,89.342 26.524,99.778c-7.418,10.437 -72.458,-41.462 -72.458,-41.462c4.174,-20.474 2.032,-44.333 -6.449,-71.591c17.576,-2.008 35.066,0.821 52.383,13.275Z" style="fill:#b8470b;"/><path d="M2231.22,906.886c-16.947,11.078 -42.993,-10.288 -40.68,-14.469c-0,0 5.805,-26.331 9.117,-30.752c4.581,-6.117 27.646,1.255 31.993,8.764c4.766,8.233 -0.43,36.457 -0.43,36.457" style="fill:#b8470b;"/><path d="M2238.31,923.792c16.593,8.361 65.845,39.934 71.082,34.435l-89.199,25.025c-33.65,-11.836 -37.824,-22.336 -43.334,-44.706c1.072,3.628 47.076,-21.997 61.451,-14.754Z" style="fill:#b8470b;"/><path d="M2222.82,1076.44c-13.945,-1.87 -6.833,-31.186 3.445,-40.312c2.777,-2.466 2.814,-14.883 6.535,-14.703c18.085,0.876 95.986,-3.788 120.484,18.651c6.694,6.132 7.581,26.296 -3.357,31.187c-13.174,5.893 -29.893,3.216 -48.042,6.351c-11.489,1.984 -72.17,-0.249 -79.065,-1.174Z" style="fill:#b8470b;"/><path d="M1509.23,1743.55c1.194,7.416 -21.568,8.022 -30.961,3.728c-16.051,-7.337 -59.044,-25.236 -65.346,-47.75c-2.36,-8.429 -12.324,-51.112 -12.324,-51.112c-0,-0 -12.148,-39.247 -21.148,-51.259c-63.96,-85.361 -125.368,-146.32 -153.765,-188.764c-21.46,-32.075 -27.22,-73.717 -21.887,-106.871c5.332,-33.155 27.623,-71.549 54.619,-92.425c26.853,-20.765 66.622,-37.074 106.576,-36.411c39.71,0.659 65.822,9.874 92.199,26.984c87.255,56.598 260.264,286.994 385.307,417.9l-163.174,-6.951c-0,0 -71.362,-1.413 -106.12,10.966c-53.056,18.894 -71.945,72.457 -63.976,121.965Zm-142.866,-524.176c-62.096,-1.031 -113.379,46.591 -114.45,106.279c-1.07,59.688 48.475,108.984 110.571,110.014c62.097,1.031 113.38,-46.591 114.45,-106.279c1.07,-59.688 -48.475,-108.983 -110.571,-110.014Z" style="fill:#b8470b;"/><path d="M1335.83,1990.3l-0.103,-118.829c2.295,-21.799 57.39,-128.86 70.571,-110.827c40.294,55.125 140.565,54.506 150.05,46.621c13.267,-11.027 8.817,-29.694 -4.43,-59.382c-32.457,-72.739 50.168,-88.134 83.982,-88.451c70.44,-0.662 339.595,-0.162 339.595,-0.162c27.351,2.477 41.699,18.72 44.085,47.054l0.153,126.825l149.445,0.163c13.069,3.913 22.186,12.242 27.135,25.231l0.039,131.492l-860.522,0.265Zm588.812,-281.304c-17.996,0.005 -32.601,15.037 -32.596,33.549c0.006,18.511 14.621,33.536 32.616,33.532c17.996,-0.004 32.601,-15.037 32.595,-33.548c-0.005,-18.512 -14.62,-33.537 -32.615,-33.533Z" style="fill:#8e776a;"/><path d="M1335.83,1990.3l-0.103,-118.829c2.295,-21.799 57.39,-128.86 70.571,-110.827c40.294,55.125 140.565,54.506 150.05,46.621c13.267,-11.027 8.817,-29.694 -4.43,-59.382c-32.457,-72.739 50.168,-88.134 83.982,-88.451c70.44,-0.662 339.595,-0.162 339.595,-0.162c27.351,2.477 41.699,18.72 44.085,47.054l0.153,126.825l149.445,0.163c13.069,3.913 22.186,12.242 27.135,25.231l0.039,131.492l-860.522,0.265Zm588.812,-281.304c-17.996,0.005 -32.601,15.037 -32.596,33.549c0.006,18.511 14.621,33.536 32.616,33.532c17.996,-0.004 32.601,-15.037 32.595,-33.548c-0.005,-18.512 -14.62,-33.537 -32.615,-33.533Z" style="fill:#b8470b;"/><path d="M1365.76,1253.3c42.615,0.708 76.617,34.538 75.883,75.5c-0.735,40.963 -35.929,73.644 -78.544,72.937c-42.615,-0.707 -76.617,-34.538 -75.882,-75.5c0.734,-40.962 35.928,-73.644 78.543,-72.937Z" style="fill:#b8470b;"/><path d="M1674.23,787.528c32.874,0.546 59.104,26.644 58.537,58.243c-0.566,31.599 -27.716,56.811 -60.59,56.265c-32.875,-0.545 -59.105,-26.643 -58.538,-58.243c0.567,-31.599 27.716,-56.811 60.591,-56.265Zm-0.456,25.446c-18.264,-0.303 -33.347,13.704 -33.662,31.259c-0.315,17.555 14.257,32.054 32.521,32.357c18.263,0.303 33.347,-13.703 33.661,-31.258c0.315,-17.556 -14.257,-32.054 -32.52,-32.358Z" style="fill:#b8470b;"/><path d="M1940.37,944.465c-3.216,-4.79 -2.428,-17.972 -3.432,-21.064c-2.208,-6.802 5.908,-23.834 -2.402,-29.32c-7.85,-5.183 -14.562,-9.143 -23.387,-9.289c-4.412,-0.074 -4.336,-4.315 -4.336,-4.315c0,0 2.553,-6.494 4.565,-8.408c2.814,-2.68 17.911,-10.146 14.266,-25.869c-0.271,-1.168 21.411,5.249 21.411,5.249l21.985,4.607c-0,0 31.558,12.71 35.145,9.068c6.382,-6.478 -3.728,-38.242 -3.728,-38.242l82.752,-54.889c-0,-0 9.189,-4.761 22.662,-11.709c33.86,-17.46 94.776,-48.728 104.89,-52.938c0,-0 -6.463,22.058 1.017,28.04c14.218,11.373 17.46,30.718 0.963,36.015c-17.532,5.63 -5.363,28.666 -4.487,42.548c0.178,2.818 4.922,24.833 4.922,24.833l-62.975,59.309c1.853,7.161 30.256,101.908 31.448,105.883c-0.245,0.025 -0.245,0.07 0.039,0.128l-0.039,-0.128c2.638,-0.269 33.62,1.816 44.87,15.596c1.742,2.134 -6.322,15.641 -9.251,18.164c-7.064,6.084 -4.393,20.859 -9.152,29.469c-2.881,5.213 -26.692,3.83 -49.457,-6.386c-21.774,-9.77 -35.022,-19.192 -44.93,-26.772c-15.475,-11.84 -24.385,-35.969 -40.403,-47.16c-15.453,-10.796 -58.157,-48.209 -72.587,-52.964c-0.537,-0.177 -20.237,-0.262 -24.676,1.84" style="fill:#b8470b;fill-opacity:0.99;"/><path d="M1933.56,946.177c-13.176,3.434 -79.966,13.134 -79.966,13.134c0,-0 -34.679,4.554 -43.504,4.407c-8.824,-0.146 -30.961,3.728 -48.686,7.677c-13.968,3.111 -68.903,-1.85 -87.772,24.88c-30.55,43.276 -51.971,186.464 -82.945,232.892c-10.147,15.209 -40.532,19.95 -41.674,18.695c-11.001,-12.094 -69.731,-62.5 -88.697,-71.024c-66.622,-29.945 -126.713,-27.614 -156.939,-13.658c-2.736,1.263 -8.66,-39.048 2.997,-47.011c43.219,-29.521 205.767,-156.223 240.241,-216.39c0.835,-1.458 -4.281,-29.254 -0.909,-30.949c-0.087,-1.713 -0.114,-3.42 -0.077,-5.121c1.613,-73.736 68.317,-132.277 148.864,-130.646c18.791,0.38 63.518,12.077 83.95,26.499c18.558,13.099 105.132,44.168 105.132,44.168c-0,0 23.025,4.722 31.937,5.49c19.197,1.652 25.161,10.333 32.86,23.465c1.909,3.256 -2.728,8.375 -6.491,9.314c-4.531,1.13 -15.945,-5.32 -20.695,-2.532c-4.751,2.788 -3.7,14.709 -7.808,19.26c-4.107,4.551 -13.509,12.253 -16.838,8.047c-27.68,-34.958 -72.509,2.994 -80.593,16.437c-12.267,20.401 2.801,58.362 24.638,57.754c4.138,-0.115 7.512,0.472 9.895,2.154l5.899,-1.032c-0.064,-0.165 -0.118,-0.33 -0.163,-0.494c-0.883,-3.232 -2.572,-6.885 -0.451,-10.017c4.079,-6.024 17.373,-19.959 24.925,-26.127c4.777,-3.902 9.308,-14.283 14.956,-15.677c6.028,-1.488 11.913,0.08 15.632,-0.65c3.809,-0.748 10.647,4.575 10.647,4.575c0,0 5.175,6.492 5.662,9.801c0.997,6.764 0.368,13.303 0.903,20.034c0.091,1.143 0.137,3.184 0.517,4.571c0.693,2.53 3.643,10.607 3.643,10.607c0,-0 3.426,6.812 0.91,7.467Zm-259.031,-175.613c-42.615,-0.708 -77.809,31.974 -78.544,72.937c-0.734,40.962 33.267,74.792 75.882,75.5c42.615,0.707 77.81,-31.975 78.544,-72.937c0.735,-40.962 -33.267,-74.793 -75.882,-75.5Z" style="fill:#b8470b;fill-opacity:0.99;"/></g></g></g><g id="Group---ICONS" serif:id="Group - ICONS"></g></svg>