<?xml version="1.0" encoding="UTF-8" standalone="no"?>
<!DOCTYPE svg PUBLIC "-//W3C//DTD SVG 1.1//EN" "http://www.w3.org/Graphics/SVG/1.1/DTD/svg11.dtd">
<svg width="100%" height="100%" viewBox="0 0 5000 1557" version="1.1" xmlns="http://www.w3.org/2000/svg" xmlns:xlink="http://www.w3.org/1999/xlink" xml:space="preserve" xmlns:serif="http://www.serif.com/" style="fill-rule:evenodd;clip-rule:evenodd;stroke-linejoin:round;stroke-miterlimit:2;">
    <g transform="matrix(26.9646,0,0,40.1599,-165264,-127508)">
        <g transform="matrix(0.166922,-0.0284503,0.0423724,0.111427,6096.81,3157.08)">
            <path d="M249.706,524.198C249.691,524.222 249.681,524.234 249.676,524.233C249.686,524.222 249.696,524.21 249.706,524.198ZM186.58,554.463C186.467,554.697 186.402,554.78 186.399,554.663C186.46,554.596 186.52,554.53 186.58,554.463ZM194.926,411.723C194.926,411.723 204.73,401.372 206.276,397.267C207.247,394.689 208.596,391.818 209.619,389.176C210.731,386.306 211.866,381.142 212.438,380.25C213.206,379.054 216.554,381.33 218.878,381.982C221.361,382.679 225.401,382.132 225.401,382.132C225.401,382.132 230.867,381.73 231.319,383.523C231.642,384.803 229.999,389.401 229.589,392.415C228.652,399.307 223.818,414.647 229.639,425.221C232.557,435.145 246.702,443.156 259.342,446.731C271.049,450.043 272.153,448.862 282.164,449.758C282.164,449.758 293.512,454.907 295.713,459.267C286.62,452.928 277.173,450.755 267.332,453.224C268.724,455.759 273.74,459.384 281.692,463.893C284.907,467.393 288.421,471.901 292.4,477.976L280.645,469.801C277.38,467.775 274.494,466.501 272.132,466.261C273.615,472.127 274.347,478.517 274.901,485.032C273.478,488.113 268.673,472.579 267.558,463.42C267.088,459.561 260.464,456.736 256.962,454.434L247.465,450.721C245.219,450.323 251.717,473.301 258.583,476.074C251.258,474.544 245.727,468.427 242.305,456.916C239.797,448.999 233.072,442.845 224.418,437.498C223.531,437.341 221.053,445.027 222.612,453.427C224.292,462.483 230.813,470.079 232.447,472.434C235.525,476.87 250.457,488.365 263.658,491.165C274.194,493.4 276.807,501.978 276.51,504.613C276.415,505.457 269.938,497.397 266.899,495.802C263.493,494.013 254.273,492.549 254.273,492.549C254.273,492.549 260.184,504.091 261.504,509.064C262.748,513.755 263.37,519.708 263,523.547L256.406,509.176C254.656,516.509 252.328,521.06 249.706,524.198C250.172,523.422 255.349,510.016 254.149,504.714C252.232,496.241 247.628,491.124 235.452,484.138C235.452,484.138 237.932,492.367 238.282,496.826C238.646,501.46 237.635,511.945 237.635,511.945L231.913,492.651C231.833,492.381 231.597,490.03 231.451,489.522C230.902,487.608 229.702,485.125 228.559,482.917C226.92,479.749 222.077,473.644 222.077,473.644C222.077,473.644 215.895,488.597 217.255,495.132C218.901,503.041 223.04,516.344 232.588,523.238C234.288,524.465 233.501,526.496 234.518,527.463C230.699,524.681 226.844,521.375 222.803,515.411L222.393,523.463C221.035,526.045 219.887,528.929 218.853,531.976C218.641,530.073 218.803,527.333 219.264,523.924L219.388,511.759C215.239,506.606 210.723,498.841 211.69,492.159C211.695,492.143 211.697,492.128 211.696,492.117C211.694,492.131 211.692,492.145 211.69,492.159C211.446,492.973 204.369,499.37 201.9,501.553C199.351,503.806 195.993,511.532 197.027,511.861C196.026,518.052 197.355,523.222 200.319,527.677C203.075,535.437 203.188,539.811 202.626,543.319C201.479,537.264 199.942,532.032 196.842,530.108C195.426,539.079 192.797,547.534 186.58,554.463C187.27,553.027 189.729,545.902 190.287,544.18C191.399,540.75 193.682,530.706 193.713,530.571C193.713,530.571 193.713,530.57 193.713,530.569C193.713,530.569 193.713,530.57 193.713,530.571C193.701,530.606 193.861,527.5 193.601,525.472C193.245,522.701 192.403,517.35 191.581,513.943C189.078,514.693 184.707,520.261 181.436,525.348C180.487,523.141 181.206,520.441 182.831,517.471C182.831,517.471 193.692,502.976 194.659,502.301C195.397,501.785 196.298,499.983 197.326,498.711C199.193,496.399 205.436,490.492 208.629,486.495C212.34,481.852 216.624,473.516 216.58,464.546L210.109,438.01L208.475,436.161C208.015,438.752 207.741,441.311 208,443C209.011,449.59 209.833,455.5 208,463C206.397,469.556 202.6,473.52 198,479C195.297,482.639 193.702,489.158 193,498C192,494 191.037,490.994 191.037,490.994C191.037,490.994 190.734,486.47 191,484L179,492C181.255,488.231 188.054,485 192,480C195.62,475.413 198.581,470.387 201,465C203.404,457.512 202.599,449.29 201,441C193.45,443.983 185.75,459.775 179,475C178.311,468.644 179.884,460.559 186,449C177.805,451.472 170.79,455.124 167,462C163.446,465.842 162.151,473.554 165,485C163.434,488.48 160.566,475.344 161,470C161.05,469.389 152.176,484.054 152,483C152.125,477.434 158,465 158,465C158.806,466.442 163.452,458.574 165,454C156.045,453.964 148.353,456.033 143,462C142.3,458.435 146.293,455.164 152,452L167,449C167.18,450.259 180.187,445.329 187,441C190.284,438.913 198.098,429.898 200.476,427.112L196.986,423.163C195.536,424.106 192.919,425.847 191.478,427.029C183.008,438.319 174.327,442.283 165.517,441.726C165.517,441.726 172.557,439.104 175.6,436.403C179.416,433.017 188.412,421.408 188.412,421.408C188.14,420.787 168.088,420.037 163.21,426.084C158.867,431.467 152.296,445.848 150.049,443.049C151.299,438.868 153.368,434.029 157.938,427.181C159.533,425.689 140.301,428.285 137.023,430.586C135.729,431.494 144.964,423.022 148.788,421.499C152.022,420.211 157.817,420.22 160.318,419.478C162.125,418.942 164.954,416.237 164.954,416.237C156.673,410.819 148.102,409.888 139.352,411.703C139.352,411.703 147.343,407.695 151.23,407.713C156.135,407.736 162.371,410.702 168.78,411.837C175.673,413.058 184.51,414.685 189.807,413.531C191.316,413.202 194.926,411.723 194.926,411.723ZM258.583,476.074C259.11,476.184 259.647,476.27 260.192,476.333C259.656,476.384 259.119,476.29 258.583,476.074ZM234.518,527.463C234.627,527.542 234.736,527.621 234.844,527.7C234.719,527.63 234.611,527.551 234.518,527.463Z" style="fill:url(#_Linear1);"/>
        </g>
        <g id="A" transform="matrix(0.0498805,0,0,0.0265843,6107.9,3193.72)">
            <g transform="matrix(193.231,0,0,193.231,1230.68,750.004)">
                <path d="M0.081,-0L0.081,-0.728L0.245,-0.728L0.403,-0.31C0.408,-0.298 0.413,-0.282 0.419,-0.263C0.424,-0.244 0.43,-0.224 0.436,-0.201C0.443,-0.179 0.449,-0.158 0.454,-0.136C0.46,-0.115 0.465,-0.095 0.469,-0.078L0.445,-0.078C0.45,-0.094 0.455,-0.113 0.46,-0.134C0.466,-0.156 0.472,-0.177 0.478,-0.2C0.484,-0.222 0.49,-0.243 0.496,-0.262C0.501,-0.282 0.507,-0.298 0.511,-0.31L0.668,-0.728L0.832,-0.728L0.832,-0L0.722,-0L0.722,-0.391C0.722,-0.407 0.722,-0.425 0.722,-0.445C0.722,-0.466 0.723,-0.488 0.723,-0.511C0.724,-0.535 0.724,-0.558 0.725,-0.582C0.726,-0.606 0.726,-0.629 0.726,-0.651L0.735,-0.651C0.728,-0.627 0.721,-0.602 0.713,-0.577C0.706,-0.552 0.698,-0.528 0.691,-0.504C0.683,-0.481 0.676,-0.459 0.67,-0.44C0.663,-0.42 0.657,-0.404 0.653,-0.391L0.504,-0L0.408,-0L0.258,-0.391C0.253,-0.404 0.247,-0.42 0.241,-0.439C0.235,-0.458 0.228,-0.479 0.22,-0.502C0.213,-0.525 0.205,-0.55 0.197,-0.575C0.19,-0.6 0.182,-0.625 0.174,-0.651L0.184,-0.651C0.184,-0.631 0.185,-0.609 0.185,-0.586C0.186,-0.562 0.186,-0.539 0.187,-0.515C0.187,-0.491 0.188,-0.469 0.188,-0.448C0.189,-0.426 0.189,-0.407 0.189,-0.391L0.189,-0L0.081,-0Z" style="fill:rgb(98,144,195);fill-rule:nonzero;"/>
            </g>
            <g transform="matrix(193.231,0,0,193.231,1407.02,750.004)">
                <path d="M0.025,-0L0.284,-0.728L0.421,-0.728L0.684,-0L0.564,-0L0.422,-0.405C0.411,-0.438 0.399,-0.476 0.386,-0.521C0.373,-0.566 0.357,-0.619 0.34,-0.681L0.363,-0.681C0.346,-0.618 0.331,-0.564 0.318,-0.519C0.305,-0.474 0.293,-0.436 0.283,-0.405L0.145,-0L0.025,-0ZM0.165,-0.192L0.165,-0.285L0.544,-0.285L0.544,-0.192L0.165,-0.192Z" style="fill:rgb(98,144,195);fill-rule:nonzero;"/>
            </g>
            <g transform="matrix(193.231,0,0,193.231,1536.95,750.004)">
                <path d="M0.383,0.01C0.32,0.01 0.264,-0.005 0.214,-0.035C0.165,-0.065 0.126,-0.108 0.098,-0.163C0.069,-0.219 0.055,-0.286 0.055,-0.363C0.055,-0.441 0.069,-0.508 0.098,-0.564C0.126,-0.62 0.165,-0.662 0.215,-0.692C0.264,-0.722 0.32,-0.737 0.383,-0.737C0.421,-0.737 0.457,-0.732 0.491,-0.721C0.525,-0.71 0.555,-0.694 0.581,-0.673C0.608,-0.651 0.63,-0.626 0.647,-0.595C0.665,-0.565 0.677,-0.531 0.683,-0.492L0.571,-0.492C0.566,-0.515 0.558,-0.536 0.547,-0.554C0.535,-0.571 0.521,-0.586 0.504,-0.599C0.488,-0.611 0.469,-0.62 0.449,-0.627C0.428,-0.633 0.407,-0.636 0.384,-0.636C0.342,-0.636 0.305,-0.625 0.272,-0.604C0.239,-0.583 0.213,-0.552 0.194,-0.512C0.175,-0.471 0.166,-0.422 0.166,-0.363C0.166,-0.305 0.175,-0.255 0.194,-0.215C0.213,-0.174 0.239,-0.143 0.272,-0.123C0.305,-0.102 0.342,-0.092 0.384,-0.092C0.406,-0.092 0.428,-0.095 0.448,-0.101C0.469,-0.108 0.488,-0.117 0.504,-0.129C0.521,-0.141 0.535,-0.156 0.547,-0.174C0.558,-0.192 0.566,-0.212 0.571,-0.236L0.683,-0.236C0.678,-0.2 0.666,-0.167 0.649,-0.137C0.632,-0.107 0.611,-0.081 0.584,-0.059C0.558,-0.037 0.528,-0.02 0.494,-0.008C0.46,0.004 0.423,0.01 0.383,0.01Z" style="fill:rgb(98,144,195);fill-rule:nonzero;"/>
            </g>
            <g transform="matrix(193.231,0,0,193.231,1678.66,750.004)">
                <path d="M0.081,-0L0.081,-0.728L0.192,-0.728L0.192,-0.42L0.552,-0.42L0.552,-0.728L0.664,-0.728L0.664,-0L0.552,-0L0.552,-0.324L0.192,-0.324L0.192,-0L0.081,-0Z" style="fill:rgb(98,144,195);fill-rule:nonzero;"/>
            </g>
            <g transform="matrix(193.231,0,0,193.231,1822.55,750.004)">
                <rect x="0.081" y="-0.728" width="0.112" height="0.728" style="fill:rgb(98,144,195);fill-rule:nonzero;"/>
            </g>
            <g transform="matrix(193.231,0,0,193.231,1875.19,750.004)">
                <path d="M0.081,-0L0.081,-0.728L0.209,-0.728L0.483,-0.295C0.492,-0.28 0.502,-0.263 0.513,-0.243C0.525,-0.223 0.537,-0.201 0.55,-0.176C0.562,-0.151 0.575,-0.124 0.587,-0.095L0.574,-0.095C0.571,-0.122 0.569,-0.15 0.567,-0.177C0.566,-0.204 0.565,-0.23 0.564,-0.253C0.563,-0.277 0.563,-0.297 0.563,-0.314L0.563,-0.728L0.676,-0.728L0.676,-0L0.547,-0L0.301,-0.387C0.288,-0.409 0.275,-0.43 0.263,-0.451C0.25,-0.473 0.237,-0.497 0.221,-0.525C0.206,-0.554 0.188,-0.588 0.166,-0.628L0.184,-0.628C0.185,-0.593 0.187,-0.559 0.188,-0.528C0.19,-0.497 0.191,-0.469 0.192,-0.445C0.193,-0.421 0.194,-0.402 0.194,-0.388L0.194,-0L0.081,-0Z" style="fill:rgb(98,144,195);fill-rule:nonzero;"/>
            </g>
            <g transform="matrix(193.231,0,0,193.231,2021.34,750.004)">
                <path d="M0.081,-0L0.081,-0.728L0.538,-0.728L0.538,-0.632L0.192,-0.632L0.192,-0.415L0.514,-0.415L0.514,-0.32L0.192,-0.32L0.192,-0.096L0.542,-0.096L0.542,-0L0.081,-0Z" style="fill:rgb(98,144,195);fill-rule:nonzero;"/>
            </g>
            <g transform="matrix(193.231,0,0,193.231,2137.87,750.004)">
            </g>
            <g transform="matrix(193.231,0,0,193.231,2189.38,750.004)">
                <path d="M0.081,-0L0.081,-0.728L0.192,-0.728L0.192,-0.096L0.521,-0.096L0.521,-0L0.081,-0Z" style="fill:rgb(98,144,195);fill-rule:nonzero;"/>
            </g>
            <g transform="matrix(193.231,0,0,193.231,2298.64,750.004)">
                <path d="M0.081,-0L0.081,-0.728L0.538,-0.728L0.538,-0.632L0.192,-0.632L0.192,-0.415L0.514,-0.415L0.514,-0.32L0.192,-0.32L0.192,-0.096L0.542,-0.096L0.542,-0L0.081,-0Z" style="fill:rgb(98,144,195);fill-rule:nonzero;"/>
            </g>
            <g transform="matrix(193.231,0,0,193.231,2415.17,750.004)">
                <path d="M0.025,-0L0.284,-0.728L0.421,-0.728L0.684,-0L0.564,-0L0.422,-0.405C0.411,-0.438 0.399,-0.476 0.386,-0.521C0.373,-0.566 0.357,-0.619 0.34,-0.681L0.363,-0.681C0.346,-0.618 0.331,-0.564 0.318,-0.519C0.305,-0.474 0.293,-0.436 0.283,-0.405L0.145,-0L0.025,-0ZM0.165,-0.192L0.165,-0.285L0.544,-0.285L0.544,-0.192L0.165,-0.192Z" style="fill:rgb(98,144,195);fill-rule:nonzero;"/>
            </g>
            <g transform="matrix(193.231,0,0,193.231,2552.16,750.004)">
                <path d="M0.081,-0L0.081,-0.728L0.341,-0.728C0.397,-0.728 0.444,-0.718 0.481,-0.698C0.519,-0.679 0.547,-0.652 0.565,-0.618C0.584,-0.583 0.593,-0.544 0.593,-0.499C0.593,-0.454 0.584,-0.415 0.565,-0.381C0.546,-0.347 0.518,-0.321 0.481,-0.303C0.444,-0.284 0.397,-0.275 0.34,-0.275L0.144,-0.275L0.144,-0.37L0.329,-0.37C0.365,-0.37 0.394,-0.375 0.416,-0.385C0.438,-0.396 0.454,-0.41 0.465,-0.43C0.475,-0.449 0.48,-0.472 0.48,-0.499C0.48,-0.526 0.475,-0.55 0.465,-0.57C0.454,-0.59 0.438,-0.605 0.416,-0.616C0.394,-0.627 0.365,-0.632 0.329,-0.632L0.192,-0.632L0.192,-0L0.081,-0ZM0.494,-0L0.318,-0.329L0.441,-0.329L0.621,-0L0.494,-0Z" style="fill:rgb(98,144,195);fill-rule:nonzero;"/>
            </g>
            <g transform="matrix(193.231,0,0,193.231,2677.37,750.004)">
                <path d="M0.081,-0L0.081,-0.728L0.209,-0.728L0.483,-0.295C0.492,-0.28 0.502,-0.263 0.513,-0.243C0.525,-0.223 0.537,-0.201 0.55,-0.176C0.562,-0.151 0.575,-0.124 0.587,-0.095L0.574,-0.095C0.571,-0.122 0.569,-0.15 0.567,-0.177C0.566,-0.204 0.565,-0.23 0.564,-0.253C0.563,-0.277 0.563,-0.297 0.563,-0.314L0.563,-0.728L0.676,-0.728L0.676,-0L0.547,-0L0.301,-0.387C0.288,-0.409 0.275,-0.43 0.263,-0.451C0.25,-0.473 0.237,-0.497 0.221,-0.525C0.206,-0.554 0.188,-0.588 0.166,-0.628L0.184,-0.628C0.185,-0.593 0.187,-0.559 0.188,-0.528C0.19,-0.497 0.191,-0.469 0.192,-0.445C0.193,-0.421 0.194,-0.402 0.194,-0.388L0.194,-0L0.081,-0Z" style="fill:rgb(98,144,195);fill-rule:nonzero;"/>
            </g>
            <g transform="matrix(193.231,0,0,193.231,2823.52,750.004)">
                <rect x="0.081" y="-0.728" width="0.112" height="0.728" style="fill:rgb(98,144,195);fill-rule:nonzero;"/>
            </g>
            <g transform="matrix(193.231,0,0,193.231,2876.16,750.004)">
                <path d="M0.081,-0L0.081,-0.728L0.209,-0.728L0.483,-0.295C0.492,-0.28 0.502,-0.263 0.513,-0.243C0.525,-0.223 0.537,-0.201 0.55,-0.176C0.562,-0.151 0.575,-0.124 0.587,-0.095L0.574,-0.095C0.571,-0.122 0.569,-0.15 0.567,-0.177C0.566,-0.204 0.565,-0.23 0.564,-0.253C0.563,-0.277 0.563,-0.297 0.563,-0.314L0.563,-0.728L0.676,-0.728L0.676,-0L0.547,-0L0.301,-0.387C0.288,-0.409 0.275,-0.43 0.263,-0.451C0.25,-0.473 0.237,-0.497 0.221,-0.525C0.206,-0.554 0.188,-0.588 0.166,-0.628L0.184,-0.628C0.185,-0.593 0.187,-0.559 0.188,-0.528C0.19,-0.497 0.191,-0.469 0.192,-0.445C0.193,-0.421 0.194,-0.402 0.194,-0.388L0.194,-0L0.081,-0Z" style="fill:rgb(98,144,195);fill-rule:nonzero;"/>
            </g>
            <g transform="matrix(193.231,0,0,193.231,3022.31,750.004)">
                <path d="M0.386,0.01C0.32,0.01 0.263,-0.005 0.213,-0.036C0.163,-0.066 0.125,-0.109 0.097,-0.165C0.069,-0.22 0.055,-0.287 0.055,-0.363C0.055,-0.441 0.069,-0.508 0.097,-0.563C0.125,-0.619 0.164,-0.662 0.213,-0.692C0.263,-0.722 0.318,-0.737 0.381,-0.737C0.42,-0.737 0.457,-0.732 0.491,-0.72C0.525,-0.708 0.556,-0.692 0.582,-0.671C0.609,-0.649 0.631,-0.624 0.649,-0.594C0.666,-0.565 0.678,-0.533 0.684,-0.497L0.569,-0.497C0.563,-0.519 0.554,-0.538 0.542,-0.555C0.531,-0.572 0.517,-0.586 0.502,-0.599C0.486,-0.611 0.468,-0.62 0.448,-0.626C0.428,-0.633 0.406,-0.636 0.382,-0.636C0.341,-0.636 0.305,-0.625 0.272,-0.605C0.239,-0.584 0.213,-0.553 0.194,-0.513C0.175,-0.472 0.166,-0.422 0.166,-0.364C0.166,-0.305 0.175,-0.256 0.194,-0.215C0.213,-0.175 0.239,-0.144 0.273,-0.123C0.306,-0.102 0.344,-0.092 0.387,-0.092C0.426,-0.092 0.46,-0.1 0.489,-0.115C0.518,-0.131 0.541,-0.154 0.557,-0.183C0.573,-0.212 0.581,-0.247 0.581,-0.286L0.61,-0.281L0.403,-0.281L0.403,-0.373L0.69,-0.373L0.69,-0.29C0.69,-0.228 0.677,-0.175 0.651,-0.13C0.624,-0.086 0.589,-0.051 0.543,-0.027C0.497,-0.002 0.445,0.01 0.386,0.01Z" style="fill:rgb(98,144,195);fill-rule:nonzero;"/>
            </g>
            <g transform="matrix(193.231,0,0,193.231,3166.77,750.004)">
            </g>
            <g transform="matrix(193.231,0,0,193.231,3218.28,750.004)">
                <path d="M0.283,0.01C0.234,0.01 0.192,0.001 0.157,-0.017C0.122,-0.035 0.095,-0.059 0.076,-0.089C0.057,-0.119 0.047,-0.153 0.047,-0.191C0.047,-0.222 0.053,-0.249 0.066,-0.271C0.078,-0.294 0.096,-0.315 0.118,-0.335C0.14,-0.354 0.165,-0.374 0.194,-0.395L0.312,-0.478C0.321,-0.485 0.331,-0.493 0.34,-0.501C0.35,-0.51 0.358,-0.52 0.364,-0.532C0.371,-0.544 0.374,-0.557 0.374,-0.572C0.374,-0.593 0.367,-0.611 0.353,-0.624C0.339,-0.638 0.319,-0.645 0.294,-0.645C0.277,-0.645 0.262,-0.642 0.249,-0.635C0.236,-0.628 0.226,-0.619 0.219,-0.606C0.212,-0.594 0.209,-0.58 0.209,-0.564C0.209,-0.546 0.213,-0.529 0.221,-0.513C0.229,-0.497 0.24,-0.48 0.255,-0.462C0.269,-0.444 0.285,-0.425 0.303,-0.403L0.642,-0L0.519,-0L0.24,-0.328C0.216,-0.356 0.194,-0.383 0.174,-0.407C0.154,-0.432 0.138,-0.457 0.126,-0.482C0.114,-0.507 0.108,-0.534 0.108,-0.564C0.108,-0.597 0.115,-0.626 0.13,-0.652C0.146,-0.678 0.167,-0.698 0.195,-0.713C0.223,-0.728 0.255,-0.735 0.292,-0.735C0.329,-0.735 0.361,-0.728 0.388,-0.713C0.415,-0.699 0.436,-0.679 0.451,-0.655C0.465,-0.63 0.473,-0.603 0.473,-0.573C0.473,-0.551 0.469,-0.53 0.46,-0.511C0.452,-0.492 0.441,-0.474 0.426,-0.458C0.412,-0.442 0.395,-0.426 0.376,-0.412L0.23,-0.305C0.203,-0.285 0.184,-0.266 0.172,-0.249C0.161,-0.231 0.155,-0.212 0.155,-0.191C0.155,-0.169 0.16,-0.149 0.171,-0.133C0.181,-0.116 0.196,-0.103 0.215,-0.094C0.234,-0.085 0.256,-0.08 0.28,-0.08C0.308,-0.08 0.336,-0.086 0.362,-0.098C0.388,-0.11 0.412,-0.127 0.433,-0.149C0.454,-0.171 0.47,-0.197 0.483,-0.228C0.495,-0.259 0.501,-0.293 0.501,-0.332L0.598,-0.332C0.598,-0.285 0.593,-0.245 0.582,-0.212C0.572,-0.18 0.559,-0.154 0.544,-0.133C0.529,-0.113 0.514,-0.097 0.501,-0.085L0.477,-0.062C0.452,-0.038 0.422,-0.02 0.387,-0.008C0.352,0.004 0.317,0.01 0.283,0.01Z" style="fill:rgb(98,144,195);fill-rule:nonzero;"/>
            </g>
            <g transform="matrix(193.231,0,0,193.231,3344.52,750.004)">
            </g>
            <g transform="matrix(193.231,0,0,193.231,3396.04,750.004)">
                <path d="M0.081,-0L0.081,-0.728L0.538,-0.728L0.538,-0.632L0.192,-0.632L0.192,-0.415L0.514,-0.415L0.514,-0.32L0.192,-0.32L0.192,-0.096L0.542,-0.096L0.542,-0L0.081,-0Z" style="fill:rgb(98,144,195);fill-rule:nonzero;"/>
            </g>
            <g transform="matrix(193.231,0,0,193.231,3512.56,750.004)">
                <path d="M0.317,-0L0.137,-0L0.137,-0.097L0.311,-0.097C0.366,-0.097 0.412,-0.108 0.448,-0.128C0.485,-0.149 0.512,-0.179 0.53,-0.219C0.548,-0.259 0.558,-0.307 0.558,-0.365C0.558,-0.422 0.548,-0.47 0.53,-0.509C0.512,-0.549 0.485,-0.579 0.45,-0.599C0.414,-0.62 0.37,-0.63 0.317,-0.63L0.133,-0.63L0.133,-0.728L0.324,-0.728C0.396,-0.728 0.457,-0.713 0.508,-0.684C0.559,-0.655 0.598,-0.613 0.626,-0.559C0.653,-0.505 0.667,-0.44 0.667,-0.365C0.667,-0.289 0.653,-0.224 0.626,-0.169C0.598,-0.115 0.558,-0.073 0.506,-0.044C0.454,-0.015 0.391,-0 0.317,-0ZM0.192,-0.728L0.192,-0L0.081,-0L0.081,-0.728L0.192,-0.728Z" style="fill:rgb(98,144,195);fill-rule:nonzero;"/>
            </g>
            <g transform="matrix(193.231,0,0,193.231,3652.01,750.004)">
                <path d="M0.386,0.01C0.32,0.01 0.263,-0.005 0.213,-0.036C0.163,-0.066 0.125,-0.109 0.097,-0.165C0.069,-0.22 0.055,-0.287 0.055,-0.363C0.055,-0.441 0.069,-0.508 0.097,-0.563C0.125,-0.619 0.164,-0.662 0.213,-0.692C0.263,-0.722 0.318,-0.737 0.381,-0.737C0.42,-0.737 0.457,-0.732 0.491,-0.72C0.525,-0.708 0.556,-0.692 0.582,-0.671C0.609,-0.649 0.631,-0.624 0.649,-0.594C0.666,-0.565 0.678,-0.533 0.684,-0.497L0.569,-0.497C0.563,-0.519 0.554,-0.538 0.542,-0.555C0.531,-0.572 0.517,-0.586 0.502,-0.599C0.486,-0.611 0.468,-0.62 0.448,-0.626C0.428,-0.633 0.406,-0.636 0.382,-0.636C0.341,-0.636 0.305,-0.625 0.272,-0.605C0.239,-0.584 0.213,-0.553 0.194,-0.513C0.175,-0.472 0.166,-0.422 0.166,-0.364C0.166,-0.305 0.175,-0.256 0.194,-0.215C0.213,-0.175 0.239,-0.144 0.273,-0.123C0.306,-0.102 0.344,-0.092 0.387,-0.092C0.426,-0.092 0.46,-0.1 0.489,-0.115C0.518,-0.131 0.541,-0.154 0.557,-0.183C0.573,-0.212 0.581,-0.247 0.581,-0.286L0.61,-0.281L0.403,-0.281L0.403,-0.373L0.69,-0.373L0.69,-0.29C0.69,-0.228 0.677,-0.175 0.651,-0.13C0.624,-0.086 0.589,-0.051 0.543,-0.027C0.497,-0.002 0.445,0.01 0.386,0.01Z" style="fill:rgb(98,144,195);fill-rule:nonzero;"/>
            </g>
            <g transform="matrix(193.231,0,0,193.231,3796.46,750.004)">
                <path d="M0.081,-0L0.081,-0.728L0.538,-0.728L0.538,-0.632L0.192,-0.632L0.192,-0.415L0.514,-0.415L0.514,-0.32L0.192,-0.32L0.192,-0.096L0.542,-0.096L0.542,-0L0.081,-0Z" style="fill:rgb(98,144,195);fill-rule:nonzero;"/>
            </g>
            <g transform="matrix(193.231,0,0,193.231,3912.99,750.004)">
            </g>
            <g transform="matrix(193.231,0,0,193.231,3964.5,750.004)">
                <path d="M0.025,-0L0.284,-0.728L0.421,-0.728L0.684,-0L0.564,-0L0.422,-0.405C0.411,-0.438 0.399,-0.476 0.386,-0.521C0.373,-0.566 0.357,-0.619 0.34,-0.681L0.363,-0.681C0.346,-0.618 0.331,-0.564 0.318,-0.519C0.305,-0.474 0.293,-0.436 0.283,-0.405L0.145,-0L0.025,-0ZM0.165,-0.192L0.165,-0.285L0.544,-0.285L0.544,-0.192L0.165,-0.192Z" style="fill:rgb(98,144,195);fill-rule:nonzero;"/>
            </g>
            <g transform="matrix(193.231,0,0,193.231,4101.5,750.004)">
                <rect x="0.081" y="-0.728" width="0.112" height="0.728" style="fill:rgb(98,144,195);fill-rule:nonzero;"/>
            </g>
            <g transform="matrix(193.231,0,0,193.231,4154.15,750.004)">
            </g>
            <g transform="matrix(193.231,0,0,193.231,4205.67,750.004)">
            </g>
        </g>
        <g transform="matrix(0.285956,0,0,0.230579,5695.48,3086.28)">
            <g id="A1" serif:id="A" transform="matrix(0.476509,0,0,0.3549,1068.96,203.524)">
                <g transform="matrix(193.231,0,0,193.231,1230.68,750.004)">
                    <path d="M0.388,0.01C0.32,0.01 0.261,-0.005 0.209,-0.036C0.158,-0.066 0.118,-0.109 0.089,-0.164C0.06,-0.22 0.046,-0.286 0.046,-0.363C0.046,-0.441 0.061,-0.509 0.091,-0.565C0.121,-0.62 0.161,-0.663 0.212,-0.693C0.263,-0.722 0.321,-0.737 0.385,-0.737C0.426,-0.737 0.464,-0.731 0.499,-0.72C0.534,-0.708 0.566,-0.691 0.594,-0.669C0.621,-0.647 0.644,-0.621 0.661,-0.591C0.678,-0.562 0.69,-0.529 0.695,-0.493L0.543,-0.493C0.538,-0.51 0.531,-0.526 0.522,-0.54C0.512,-0.554 0.501,-0.565 0.488,-0.575C0.475,-0.585 0.46,-0.592 0.443,-0.597C0.426,-0.602 0.408,-0.605 0.387,-0.605C0.35,-0.605 0.317,-0.596 0.288,-0.577C0.26,-0.558 0.237,-0.531 0.221,-0.495C0.205,-0.459 0.197,-0.416 0.197,-0.364C0.197,-0.313 0.205,-0.269 0.221,-0.233C0.237,-0.197 0.259,-0.17 0.288,-0.151C0.316,-0.132 0.35,-0.123 0.389,-0.123C0.424,-0.123 0.454,-0.129 0.48,-0.142C0.505,-0.154 0.524,-0.173 0.537,-0.196C0.551,-0.219 0.557,-0.247 0.557,-0.279L0.589,-0.274L0.4,-0.274L0.4,-0.388L0.702,-0.388L0.702,-0.297C0.702,-0.233 0.689,-0.178 0.662,-0.133C0.635,-0.087 0.598,-0.052 0.55,-0.027C0.503,-0.003 0.449,0.01 0.388,0.01Z" style="fill:rgb(184,71,11);fill-rule:nonzero;"/>
                </g>
                <g transform="matrix(193.231,0,0,193.231,1375.7,750.004)">
                    <path d="M0.215,0.011C0.18,0.011 0.149,0.004 0.122,-0.008C0.094,-0.02 0.073,-0.038 0.057,-0.062C0.041,-0.087 0.033,-0.117 0.033,-0.153C0.033,-0.183 0.039,-0.209 0.05,-0.229C0.061,-0.249 0.076,-0.266 0.096,-0.278C0.115,-0.291 0.137,-0.3 0.162,-0.307C0.186,-0.313 0.212,-0.318 0.239,-0.32C0.271,-0.324 0.296,-0.327 0.315,-0.329C0.335,-0.332 0.349,-0.337 0.358,-0.343C0.367,-0.349 0.372,-0.357 0.372,-0.369L0.372,-0.372C0.372,-0.387 0.368,-0.4 0.362,-0.411C0.355,-0.422 0.345,-0.43 0.333,-0.436C0.32,-0.442 0.304,-0.444 0.286,-0.444C0.267,-0.444 0.251,-0.442 0.237,-0.436C0.223,-0.43 0.212,-0.423 0.203,-0.413C0.194,-0.404 0.187,-0.393 0.183,-0.381L0.049,-0.404C0.058,-0.435 0.074,-0.462 0.096,-0.484C0.117,-0.507 0.145,-0.524 0.177,-0.535C0.209,-0.547 0.246,-0.553 0.286,-0.553C0.316,-0.553 0.344,-0.549 0.372,-0.542C0.4,-0.535 0.424,-0.525 0.446,-0.51C0.468,-0.495 0.486,-0.476 0.499,-0.452C0.512,-0.429 0.518,-0.401 0.518,-0.368L0.518,-0L0.379,-0L0.379,-0.076L0.374,-0.076C0.366,-0.059 0.354,-0.044 0.339,-0.031C0.325,-0.018 0.307,-0.008 0.286,-0C0.266,0.007 0.242,0.011 0.215,0.011ZM0.256,-0.092C0.279,-0.092 0.3,-0.097 0.317,-0.106C0.334,-0.115 0.348,-0.127 0.358,-0.143C0.368,-0.159 0.373,-0.176 0.373,-0.195L0.373,-0.254C0.368,-0.251 0.362,-0.248 0.353,-0.246C0.344,-0.243 0.335,-0.241 0.324,-0.239C0.313,-0.237 0.303,-0.235 0.292,-0.233C0.282,-0.232 0.272,-0.23 0.264,-0.229C0.246,-0.227 0.23,-0.223 0.217,-0.217C0.203,-0.211 0.193,-0.203 0.185,-0.194C0.177,-0.184 0.174,-0.172 0.174,-0.157C0.174,-0.143 0.177,-0.131 0.184,-0.121C0.192,-0.112 0.201,-0.104 0.214,-0.099C0.226,-0.095 0.24,-0.092 0.256,-0.092Z" style="fill:rgb(184,71,11);fill-rule:nonzero;"/>
                </g>
                <g transform="matrix(193.231,0,0,193.231,1487.88,750.004)">
                    <path d="M0.368,0.009C0.339,0.009 0.314,0.004 0.293,-0.006C0.273,-0.016 0.256,-0.028 0.243,-0.043C0.23,-0.058 0.22,-0.073 0.214,-0.087L0.206,-0.087L0.206,-0L0.062,-0L0.062,-0.728L0.209,-0.728L0.209,-0.454L0.214,-0.454C0.22,-0.469 0.23,-0.483 0.242,-0.499C0.255,-0.514 0.271,-0.527 0.292,-0.537C0.312,-0.548 0.338,-0.553 0.369,-0.553C0.41,-0.553 0.447,-0.542 0.48,-0.521C0.513,-0.501 0.54,-0.469 0.56,-0.428C0.58,-0.386 0.591,-0.334 0.591,-0.272C0.591,-0.211 0.581,-0.16 0.561,-0.118C0.542,-0.077 0.515,-0.045 0.482,-0.023C0.448,-0.002 0.41,0.009 0.368,0.009ZM0.323,-0.108C0.349,-0.108 0.37,-0.115 0.388,-0.129C0.405,-0.143 0.418,-0.163 0.427,-0.187C0.436,-0.212 0.44,-0.241 0.44,-0.272C0.44,-0.304 0.436,-0.333 0.427,-0.357C0.418,-0.382 0.405,-0.401 0.388,-0.415C0.37,-0.428 0.349,-0.435 0.323,-0.435C0.298,-0.435 0.277,-0.429 0.259,-0.415C0.242,-0.402 0.228,-0.383 0.219,-0.359C0.21,-0.334 0.206,-0.306 0.206,-0.272C0.206,-0.24 0.21,-0.211 0.219,-0.186C0.229,-0.162 0.242,-0.143 0.26,-0.129C0.277,-0.115 0.298,-0.108 0.323,-0.108Z" style="fill:rgb(184,71,11);fill-rule:nonzero;"/>
                </g>
                <g transform="matrix(193.231,0,0,193.231,1609.69,750.004)">
                    <path d="M0.062,-0L0.062,-0.546L0.204,-0.546L0.204,-0.451L0.21,-0.451C0.22,-0.484 0.237,-0.51 0.26,-0.527C0.284,-0.545 0.311,-0.553 0.342,-0.553C0.349,-0.553 0.357,-0.553 0.366,-0.552C0.375,-0.551 0.382,-0.55 0.389,-0.548L0.389,-0.417C0.383,-0.42 0.373,-0.422 0.361,-0.423C0.348,-0.424 0.337,-0.425 0.326,-0.425C0.303,-0.425 0.283,-0.42 0.266,-0.41C0.248,-0.401 0.234,-0.387 0.224,-0.37C0.214,-0.353 0.209,-0.333 0.209,-0.311L0.209,-0L0.062,-0Z" style="fill:rgb(184,71,11);fill-rule:nonzero;"/>
                </g>
                <g transform="matrix(193.231,0,0,193.231,1689.23,750.004)">
                    <path d="M0.062,-0L0.062,-0.546L0.209,-0.546L0.209,-0L0.062,-0ZM0.136,-0.617C0.114,-0.617 0.095,-0.624 0.079,-0.639C0.063,-0.654 0.055,-0.672 0.055,-0.692C0.055,-0.713 0.063,-0.731 0.079,-0.746C0.095,-0.76 0.114,-0.768 0.136,-0.768C0.158,-0.768 0.177,-0.76 0.193,-0.746C0.208,-0.731 0.216,-0.713 0.216,-0.692C0.216,-0.672 0.208,-0.654 0.193,-0.639C0.177,-0.624 0.158,-0.617 0.136,-0.617Z" style="fill:rgb(184,71,11);fill-rule:nonzero;"/>
                </g>
                <g transform="matrix(193.231,0,0,193.231,1741.59,750.004)">
                    <path d="M0.309,0.011C0.254,0.011 0.206,-0.001 0.165,-0.024C0.125,-0.046 0.094,-0.079 0.072,-0.121C0.051,-0.163 0.04,-0.213 0.04,-0.27C0.04,-0.326 0.05,-0.376 0.072,-0.418C0.093,-0.46 0.124,-0.493 0.163,-0.517C0.203,-0.541 0.249,-0.553 0.302,-0.553C0.338,-0.553 0.371,-0.547 0.402,-0.536C0.433,-0.524 0.46,-0.507 0.483,-0.484C0.507,-0.461 0.525,-0.433 0.538,-0.398C0.551,-0.363 0.558,-0.323 0.558,-0.276L0.558,-0.235L0.1,-0.235L0.1,-0.327L0.487,-0.327L0.418,-0.302C0.418,-0.331 0.414,-0.355 0.405,-0.376C0.396,-0.397 0.384,-0.414 0.367,-0.425C0.349,-0.437 0.328,-0.442 0.303,-0.442C0.278,-0.442 0.256,-0.437 0.239,-0.425C0.221,-0.413 0.207,-0.397 0.198,-0.377C0.189,-0.357 0.184,-0.334 0.184,-0.309L0.184,-0.244C0.184,-0.212 0.19,-0.186 0.2,-0.164C0.211,-0.143 0.226,-0.127 0.245,-0.116C0.264,-0.105 0.286,-0.1 0.312,-0.1C0.329,-0.1 0.344,-0.102 0.358,-0.107C0.372,-0.112 0.384,-0.119 0.394,-0.129C0.404,-0.138 0.412,-0.15 0.417,-0.164L0.55,-0.139C0.541,-0.109 0.526,-0.083 0.504,-0.06C0.482,-0.038 0.455,-0.02 0.422,-0.008C0.389,0.004 0.352,0.011 0.309,0.011Z" style="fill:rgb(184,71,11);fill-rule:nonzero;"/>
                </g>
                <g transform="matrix(193.231,0,0,193.231,1856.7,750.004)">
                    <rect x="0.062" y="-0.728" width="0.146" height="0.728" style="fill:rgb(184,71,11);fill-rule:nonzero;"/>
                </g>
                <g transform="matrix(193.231,0,0,193.231,1909.07,750.004)">
                </g>
                <g transform="matrix(193.231,0,0,193.231,1954.83,750.004)">
                </g>
            </g>
            <g id="A2" serif:id="A" transform="matrix(0.468961,0,0,0.33891,1076.48,271.777)">
                <g transform="matrix(193.231,0,0,193.231,1230.68,750.004)">
                    <path d="M0.066,-0L0.066,-0.728L0.295,-0.728L0.412,-0.394C0.417,-0.378 0.423,-0.358 0.429,-0.333C0.436,-0.308 0.442,-0.282 0.449,-0.253C0.455,-0.224 0.461,-0.196 0.467,-0.169C0.473,-0.143 0.477,-0.119 0.481,-0.099L0.452,-0.099C0.456,-0.119 0.461,-0.142 0.466,-0.169C0.472,-0.195 0.478,-0.223 0.484,-0.252C0.491,-0.281 0.497,-0.307 0.504,-0.333C0.51,-0.358 0.516,-0.378 0.521,-0.394L0.637,-0.728L0.866,-0.728L0.866,-0L0.716,-0L0.716,-0.343C0.716,-0.359 0.717,-0.379 0.717,-0.402C0.718,-0.426 0.718,-0.452 0.719,-0.479C0.72,-0.507 0.721,-0.534 0.721,-0.562C0.722,-0.59 0.722,-0.616 0.722,-0.641L0.732,-0.641C0.726,-0.614 0.719,-0.586 0.711,-0.557C0.704,-0.529 0.696,-0.501 0.689,-0.474C0.681,-0.447 0.674,-0.422 0.667,-0.399C0.66,-0.377 0.654,-0.358 0.649,-0.343L0.529,-0L0.403,-0L0.281,-0.343C0.276,-0.358 0.27,-0.376 0.263,-0.399C0.257,-0.421 0.249,-0.446 0.241,-0.473C0.234,-0.499 0.226,-0.527 0.218,-0.556C0.211,-0.585 0.203,-0.613 0.196,-0.641L0.208,-0.641C0.208,-0.618 0.209,-0.592 0.209,-0.564C0.21,-0.537 0.212,-0.428 0.213,-0.404C0.214,-0.38 0.214,-0.359 0.214,-0.343L0.214,-0L0.066,-0Z" style="fill:rgb(184,71,11);fill-rule:nonzero;"/>
                </g>
                <g transform="matrix(193.231,0,0,193.231,1410.7,750.004)">
                    <path d="M0.306,0.011C0.252,0.011 0.204,-0.001 0.164,-0.025C0.125,-0.048 0.094,-0.081 0.072,-0.123C0.051,-0.165 0.04,-0.215 0.04,-0.271C0.04,-0.327 0.051,-0.376 0.072,-0.419C0.094,-0.461 0.125,-0.494 0.164,-0.517C0.204,-0.541 0.252,-0.553 0.306,-0.553C0.339,-0.553 0.369,-0.549 0.396,-0.54C0.423,-0.532 0.448,-0.52 0.469,-0.504C0.49,-0.488 0.507,-0.469 0.521,-0.447C0.535,-0.424 0.544,-0.399 0.549,-0.371L0.413,-0.346C0.41,-0.36 0.405,-0.373 0.399,-0.384C0.393,-0.395 0.386,-0.405 0.377,-0.413C0.368,-0.421 0.358,-0.427 0.346,-0.431C0.335,-0.435 0.322,-0.437 0.308,-0.437C0.282,-0.437 0.26,-0.43 0.242,-0.416C0.225,-0.402 0.211,-0.383 0.202,-0.358C0.193,-0.333 0.189,-0.304 0.189,-0.271C0.189,-0.239 0.193,-0.21 0.202,-0.185C0.211,-0.16 0.225,-0.14 0.242,-0.126C0.26,-0.112 0.282,-0.105 0.308,-0.105C0.322,-0.105 0.335,-0.107 0.347,-0.111C0.359,-0.115 0.369,-0.122 0.378,-0.13C0.387,-0.138 0.395,-0.148 0.401,-0.16C0.407,-0.172 0.411,-0.185 0.414,-0.2L0.55,-0.175C0.545,-0.146 0.536,-0.12 0.522,-0.097C0.508,-0.075 0.491,-0.055 0.47,-0.039C0.449,-0.023 0.424,-0.011 0.397,-0.002C0.369,0.006 0.339,0.011 0.306,0.011Z" style="fill:rgb(184,71,11);fill-rule:nonzero;"/>
                </g>
                <g transform="matrix(193.231,0,0,193.231,1514.77,750.004)">
                    <path d="M0.219,-0L0.024,-0.728L0.187,-0.728L0.271,-0.37C0.278,-0.34 0.284,-0.308 0.29,-0.274C0.296,-0.24 0.301,-0.205 0.307,-0.171C0.312,-0.137 0.317,-0.104 0.323,-0.072L0.296,-0.072C0.302,-0.104 0.308,-0.137 0.314,-0.171C0.32,-0.205 0.326,-0.24 0.332,-0.274C0.338,-0.308 0.345,-0.34 0.352,-0.37L0.441,-0.728L0.596,-0.728L0.685,-0.37C0.692,-0.34 0.699,-0.308 0.705,-0.274C0.711,-0.24 0.717,-0.205 0.723,-0.171C0.729,-0.137 0.735,-0.104 0.741,-0.072L0.714,-0.072C0.719,-0.104 0.725,-0.137 0.73,-0.171C0.736,-0.205 0.741,-0.24 0.747,-0.274C0.753,-0.308 0.76,-0.34 0.766,-0.37L0.851,-0.728L1.014,-0.728L0.818,-0L0.648,-0L0.551,-0.372C0.541,-0.413 0.532,-0.458 0.525,-0.507C0.517,-0.555 0.509,-0.604 0.5,-0.655L0.537,-0.655C0.527,-0.605 0.519,-0.557 0.512,-0.509C0.506,-0.462 0.497,-0.416 0.486,-0.372L0.39,-0L0.219,-0Z" style="fill:rgb(184,71,11);fill-rule:nonzero;"/>
                </g>
                <g transform="matrix(193.231,0,0,193.231,1715.27,750.004)">
                    <path d="M0.062,-0L0.062,-0.546L0.209,-0.546L0.209,-0L0.062,-0ZM0.136,-0.617C0.114,-0.617 0.095,-0.624 0.079,-0.639C0.063,-0.654 0.055,-0.672 0.055,-0.692C0.055,-0.713 0.063,-0.731 0.079,-0.746C0.095,-0.76 0.114,-0.768 0.136,-0.768C0.158,-0.768 0.177,-0.76 0.193,-0.746C0.208,-0.731 0.216,-0.713 0.216,-0.692C0.216,-0.672 0.208,-0.654 0.193,-0.639C0.177,-0.624 0.158,-0.617 0.136,-0.617Z" style="fill:rgb(184,71,11);fill-rule:nonzero;"/>
                </g>
                <g transform="matrix(193.231,0,0,193.231,1767.63,750.004)">
                    <rect x="0.062" y="-0.728" width="0.146" height="0.728" style="fill:rgb(184,71,11);fill-rule:nonzero;"/>
                </g>
                <g transform="matrix(193.231,0,0,193.231,1820,750.004)">
                    <rect x="0.062" y="-0.728" width="0.146" height="0.728" style="fill:rgb(184,71,11);fill-rule:nonzero;"/>
                </g>
                <g transform="matrix(193.231,0,0,193.231,1872.36,750.004)">
                    <path d="M0.062,-0L0.062,-0.546L0.209,-0.546L0.209,-0L0.062,-0ZM0.136,-0.617C0.114,-0.617 0.095,-0.624 0.079,-0.639C0.063,-0.654 0.055,-0.672 0.055,-0.692C0.055,-0.713 0.063,-0.731 0.079,-0.746C0.095,-0.76 0.114,-0.768 0.136,-0.768C0.158,-0.768 0.177,-0.76 0.193,-0.746C0.208,-0.731 0.216,-0.713 0.216,-0.692C0.216,-0.672 0.208,-0.654 0.193,-0.639C0.177,-0.624 0.158,-0.617 0.136,-0.617Z" style="fill:rgb(184,71,11);fill-rule:nonzero;"/>
                </g>
                <g transform="matrix(193.231,0,0,193.231,1924.73,750.004)">
                    <path d="M0.215,0.011C0.18,0.011 0.149,0.004 0.122,-0.008C0.094,-0.02 0.073,-0.038 0.057,-0.062C0.041,-0.087 0.033,-0.117 0.033,-0.153C0.033,-0.183 0.039,-0.209 0.05,-0.229C0.061,-0.249 0.076,-0.266 0.096,-0.278C0.115,-0.291 0.137,-0.3 0.162,-0.307C0.186,-0.313 0.212,-0.318 0.239,-0.32C0.271,-0.324 0.296,-0.327 0.315,-0.329C0.335,-0.332 0.349,-0.337 0.358,-0.343C0.367,-0.349 0.372,-0.357 0.372,-0.369L0.372,-0.372C0.372,-0.387 0.368,-0.4 0.362,-0.411C0.355,-0.422 0.345,-0.43 0.333,-0.436C0.32,-0.442 0.304,-0.444 0.286,-0.444C0.267,-0.444 0.251,-0.442 0.237,-0.436C0.223,-0.43 0.212,-0.423 0.203,-0.413C0.194,-0.404 0.187,-0.393 0.183,-0.381L0.049,-0.404C0.058,-0.435 0.074,-0.462 0.096,-0.484C0.117,-0.507 0.145,-0.524 0.177,-0.535C0.209,-0.547 0.246,-0.553 0.286,-0.553C0.316,-0.553 0.344,-0.549 0.372,-0.542C0.4,-0.535 0.424,-0.525 0.446,-0.51C0.468,-0.495 0.486,-0.476 0.499,-0.452C0.512,-0.429 0.518,-0.401 0.518,-0.368L0.518,-0L0.379,-0L0.379,-0.076L0.374,-0.076C0.366,-0.059 0.354,-0.044 0.339,-0.031C0.325,-0.018 0.307,-0.008 0.286,-0C0.266,0.007 0.242,0.011 0.215,0.011ZM0.256,-0.092C0.279,-0.092 0.3,-0.097 0.317,-0.106C0.334,-0.115 0.348,-0.127 0.358,-0.143C0.368,-0.159 0.373,-0.176 0.373,-0.195L0.373,-0.254C0.368,-0.251 0.362,-0.248 0.353,-0.246C0.344,-0.243 0.335,-0.241 0.324,-0.239C0.313,-0.237 0.303,-0.235 0.292,-0.233C0.282,-0.232 0.272,-0.23 0.264,-0.229C0.246,-0.227 0.23,-0.223 0.217,-0.217C0.203,-0.211 0.193,-0.203 0.185,-0.194C0.177,-0.184 0.174,-0.172 0.174,-0.157C0.174,-0.143 0.177,-0.131 0.184,-0.121C0.192,-0.112 0.201,-0.104 0.214,-0.099C0.226,-0.095 0.24,-0.092 0.256,-0.092Z" style="fill:rgb(184,71,11);fill-rule:nonzero;"/>
                </g>
                <g transform="matrix(193.231,0,0,193.231,2036.91,750.004)">
                    <path d="M0.062,-0L0.062,-0.546L0.198,-0.546L0.206,-0.41L0.195,-0.41C0.203,-0.444 0.216,-0.471 0.232,-0.492C0.249,-0.513 0.268,-0.529 0.29,-0.539C0.312,-0.549 0.336,-0.554 0.36,-0.554C0.399,-0.554 0.431,-0.542 0.455,-0.517C0.479,-0.492 0.497,-0.453 0.508,-0.401L0.491,-0.401C0.499,-0.436 0.513,-0.465 0.531,-0.488C0.55,-0.51 0.571,-0.527 0.596,-0.538C0.622,-0.549 0.648,-0.554 0.676,-0.554C0.709,-0.554 0.739,-0.547 0.765,-0.532C0.792,-0.518 0.812,-0.497 0.827,-0.469C0.842,-0.441 0.85,-0.408 0.85,-0.368L0.85,-0L0.704,-0L0.704,-0.34C0.704,-0.371 0.695,-0.394 0.679,-0.409C0.662,-0.424 0.641,-0.432 0.617,-0.432C0.598,-0.432 0.583,-0.428 0.569,-0.42C0.555,-0.412 0.545,-0.4 0.538,-0.386C0.531,-0.372 0.527,-0.355 0.527,-0.336L0.527,-0L0.385,-0L0.385,-0.344C0.385,-0.371 0.377,-0.392 0.362,-0.408C0.346,-0.424 0.325,-0.432 0.3,-0.432C0.283,-0.432 0.268,-0.428 0.254,-0.42C0.24,-0.412 0.229,-0.401 0.221,-0.386C0.213,-0.37 0.209,-0.352 0.209,-0.33L0.209,-0L0.062,-0Z" style="fill:rgb(184,71,11);fill-rule:nonzero;"/>
                </g>
                <g transform="matrix(193.231,0,0,193.231,2213.25,750.004)">
                    <path d="M0.279,0.011C0.235,0.011 0.196,0.004 0.163,-0.008C0.129,-0.021 0.101,-0.039 0.08,-0.063C0.058,-0.087 0.044,-0.115 0.038,-0.149L0.174,-0.173C0.182,-0.147 0.194,-0.128 0.212,-0.116C0.23,-0.103 0.254,-0.097 0.284,-0.097C0.311,-0.097 0.334,-0.102 0.35,-0.113C0.366,-0.123 0.374,-0.137 0.374,-0.153C0.374,-0.167 0.368,-0.179 0.357,-0.188C0.345,-0.197 0.328,-0.204 0.303,-0.209L0.209,-0.229C0.157,-0.239 0.118,-0.258 0.091,-0.284C0.065,-0.309 0.052,-0.343 0.052,-0.384C0.052,-0.418 0.062,-0.449 0.081,-0.474C0.1,-0.499 0.127,-0.519 0.161,-0.532C0.195,-0.546 0.236,-0.553 0.282,-0.553C0.325,-0.553 0.362,-0.547 0.394,-0.535C0.425,-0.523 0.451,-0.506 0.47,-0.484C0.49,-0.463 0.503,-0.437 0.509,-0.407L0.379,-0.384C0.374,-0.403 0.363,-0.418 0.347,-0.43C0.332,-0.442 0.31,-0.448 0.284,-0.448C0.26,-0.448 0.24,-0.443 0.223,-0.432C0.207,-0.422 0.199,-0.409 0.199,-0.392C0.199,-0.379 0.204,-0.367 0.215,-0.358C0.225,-0.348 0.243,-0.341 0.269,-0.335L0.367,-0.316C0.42,-0.305 0.459,-0.288 0.485,-0.263C0.511,-0.239 0.524,-0.207 0.524,-0.168C0.524,-0.133 0.513,-0.101 0.492,-0.074C0.471,-0.048 0.443,-0.027 0.406,-0.012C0.369,0.003 0.327,0.011 0.279,0.011Z" style="fill:rgb(184,71,11);fill-rule:nonzero;"/>
                </g>
                <g transform="matrix(193.231,0,0,193.231,2321.48,750.004)">
                </g>
                <g transform="matrix(193.231,0,0,193.231,2367.24,750.004)">
                </g>
            </g>
        </g>
        <g transform="matrix(0.218035,0,0,0.151645,6069.22,3145.26)">
            <g>
                <g transform="matrix(0.676711,0.120227,-0.124871,0.651426,303.892,73.8355)">
                    <path d="M164.916,318.899C166.857,320.378 171.163,320.316 169.237,317.747C168.897,317.292 169.11,314.576 168,314C167.189,313.579 166.293,311.736 165,311C164.383,310.649 161.893,310.686 161.252,310.811C160.706,310.917 157.704,312.704 158,313C160,315 160.372,316.892 160,318C159.437,319.679 164.078,318.26 164.916,318.899Z" style="fill:rgb(204,88,3);"/>
                </g>
                <g transform="matrix(0.667117,0.162491,-0.126399,0.480951,300.13,130.084)">
                    <path d="M146.494,310.589C146.738,310.362 149.392,308.637 150.791,308.073C152.95,307.202 154.701,310.611 154.892,311.636C155.251,313.558 155.504,315.837 154.494,317.265C154.08,317.849 153.24,321.011 152.494,322.606C151.66,324.386 150.026,327.962 149.494,327.947C145.652,327.839 140.915,315.774 146.494,310.589Z" style="fill:rgb(204,88,3);"/>
                </g>
                <g transform="matrix(0.556704,0.398897,-0.414359,0.535893,390.139,16.5004)">
                    <path d="M303.612,317.687C303.445,316.52 303.945,315.02 304.612,313.687C305.612,311.687 305.612,308.687 305.612,308.687C305.929,308.449 309.783,311.475 310.612,312.687C311.207,313.557 313.858,315.934 314.612,316.687C315.457,317.532 321.607,320.516 319.612,322.687C315.193,327.497 308.612,322.687 305.612,320.687C305.612,320.687 303.778,318.854 303.612,317.687Z" style="fill:rgb(204,88,3);"/>
                </g>
                <g transform="matrix(0.571874,0.378489,-0.393158,0.550496,379.173,17.8311)">
                    <path d="M288.612,300.687C290.306,300.914 291.498,301.481 292.612,301.687C293.865,301.919 295.872,301.928 297.612,302.687C299.184,303.373 300.238,305.242 301.612,305.687C303.192,306.199 304.278,308.52 304.612,309.687C304.871,310.594 303.612,312.687 303.612,312.687C303.612,312.687 302.802,317.283 301.272,317.061C300.387,316.933 299.319,316.682 297.991,316.099C296.251,315.337 295.567,314.724 293.612,314.687C293.126,314.678 290.983,311.726 290.612,310.687C289.778,308.354 288.612,300.687 288.612,300.687Z" style="fill:rgb(204,88,3);"/>
                </g>
                <g transform="matrix(0.623304,0.293752,-0.305131,0.600008,337.321,26.213)">
                    <path d="M270.612,321.687C270.612,321.687 267.191,316.832 266.612,314.687C266.503,314.286 265.935,312.69 265.612,311.687C265.103,310.109 268.243,307.428 263.559,305.219C263.062,304.985 258.158,303.034 259.612,299.687C259.979,298.841 262.877,299.858 263.612,299.687C265.042,299.354 268.898,300.207 271.612,300.687C274.778,301.247 278.017,301.481 279.612,300.687C280.967,300.013 283.958,300.009 286.612,300.687C287.32,300.868 287.612,301.614 287.612,304.687C287.612,307.687 289.954,311.506 289.612,313.687C289.414,314.946 283.438,316.687 281.612,316.687C276.449,316.687 270.612,321.687 270.612,321.687Z" style="fill:rgb(204,88,3);"/>
                </g>
                <g transform="matrix(0.573021,0.376876,-0.391483,0.551601,385.493,29.8021)">
                    <path d="M267.704,309.55C267.704,309.55 283,320.5 283,323C283,325.5 267,324 267,324C265.371,320.209 262.373,316.542 258,313C260.535,310.787 263.596,309.373 267.704,309.55Z" style="fill:rgb(204,88,3);"/>
                </g>
                <g transform="matrix(0.573021,0.376876,-0.391483,0.551601,385.493,29.8021)">
                    <path d="M264,325C262.576,328.627 256.103,327.931 256,327C256,327 253.973,322.077 254,321C254.037,319.51 258.48,318.24 260,319C261.667,319.833 264,325 264,325" style="fill:rgb(204,88,3);"/>
                </g>
                <g transform="matrix(0.573021,0.376876,-0.391483,0.551601,385.493,29.8021)">
                    <path d="M267,327C270.538,326.586 281.792,326.46 282,325L270.79,338.654C264.187,340.329 262.361,339.062 259,336C259.573,336.478 263.935,327.359 267,327Z" style="fill:rgb(204,88,3);"/>
                </g>
                <g transform="matrix(0.691652,0.0547272,-0.0568279,0.665811,229.072,69.6452)">
                    <path d="M289.612,368.687C286.939,368.536 287.812,362.646 289.612,360.687C290.098,360.158 289.904,357.709 290.612,357.687C294.053,357.578 308.738,355.445 313.743,359.487C315.11,360.591 315.605,364.552 313.612,365.687C311.211,367.054 308,366.786 304.612,367.687C302.467,368.257 290.933,368.762 289.612,368.687Z" style="fill:rgb(204,88,3);"/>
                </g>
                <g transform="matrix(0.582125,0.00967714,-0.0100331,0.560377,259.42,100.938)">
                    <path d="M104,566C104.301,567.743 99.146,567.975 97,567C93.333,565.333 83.52,561.282 82,556C81.431,554.022 79,544 79,544C79,544 76.088,534.796 74,532C59.161,512.129 45,498 38.393,488.106C33.401,480.629 31.926,470.836 33,463C34.074,455.164 38.968,446.026 45,441C51,436 59.945,432 69,432C78,432 83.954,434.07 90,438C110,451 150.136,504.632 179,535L142,534C142,534 125.825,533.946 118,537C106.055,541.661 101.993,554.361 104,566ZM69.5,443C55.426,443 44,454.426 44,468.5C44,482.574 55.426,494 69.5,494C83.574,494 95,482.574 95,468.5C95,454.426 83.574,443 69.5,443Z" style="fill:rgb(204,88,3);"/>
                </g>
                <g transform="matrix(0.578648,-0.000142116,0.0001695,0.565113,261.013,105.109)">
                    <path d="M52.343,613.362L52.327,585.578C52.852,580.482 65.422,555.452 68.426,559.669C77.609,572.561 100.472,572.422 102.635,570.579C105.661,568.001 104.647,563.636 101.629,556.694C94.233,539.685 113.074,536.09 120.784,536.018C136.844,535.867 198.214,535.999 198.214,535.999C204.45,536.58 207.72,540.379 208.262,547.004L208.289,576.657L242.363,576.704C245.343,577.62 247.421,579.568 248.548,582.605L248.548,613.35L52.343,613.362ZM186.616,547.623C182.512,547.623 179.181,551.137 179.181,555.465C179.181,559.794 182.512,563.308 186.616,563.308C190.719,563.308 194.05,559.794 194.05,555.465C194.05,551.137 190.719,547.623 186.616,547.623Z" style="fill:rgb(142,119,106);"/>
                    <path d="M52.343,613.362L52.327,585.578C52.852,580.482 65.422,555.452 68.426,559.669C77.609,572.561 100.472,572.422 102.635,570.579C105.661,568.001 104.647,563.636 101.629,556.694C94.233,539.685 113.074,536.09 120.784,536.018C136.844,535.867 198.214,535.999 198.214,535.999C204.45,536.58 207.72,540.379 208.262,547.004L208.289,576.657L242.363,576.704C245.343,577.62 247.421,579.568 248.548,582.605L248.548,613.35L52.343,613.362ZM186.616,547.623C182.512,547.623 179.181,551.137 179.181,555.465C179.181,559.794 182.512,563.308 186.616,563.308C190.719,563.308 194.05,559.794 194.05,555.465C194.05,551.137 190.719,547.623 186.616,547.623Z" style="fill:rgb(98,144,195);"/>
                </g>
                <g transform="matrix(0.599246,0.00996176,-0.0117053,0.653773,271.164,64.8848)">
                    <ellipse cx="49" cy="457" rx="17" ry="15" style="fill:rgb(98,144,195);"/>
                </g>
                <g transform="matrix(0.462276,0.00768479,-0.00902982,0.504339,317.391,69.5023)">
                    <path d="M49,442C58.383,442 66,448.721 66,457C66,465.279 58.383,472 49,472C39.617,472 32,465.279 32,457C32,448.721 39.617,442 49,442ZM49,448.667C43.787,448.667 39.556,452.401 39.556,457C39.556,461.599 43.787,465.333 49,465.333C54.213,465.333 58.444,461.599 58.444,457C58.444,452.401 54.213,448.667 49,448.667Z" style="fill:rgb(98,144,195);"/>
                </g>
                <g transform="matrix(-0.0297763,-0.661808,0.687491,-0.0286417,133.958,424.04)">
                    <path d="M151.76,351.608C152.741,351.033 155.361,351.298 155.986,351.132C157.359,350.768 160.686,352.469 161.849,350.925C162.946,349.466 163.791,348.214 163.894,346.525C163.945,345.681 164.789,345.732 164.789,345.732C164.789,345.732 166.062,346.277 166.427,346.679C166.938,347.241 168.3,350.197 171.464,349.635C171.699,349.593 170.24,353.691 170.24,353.691L169.14,357.862C169.14,357.862 166.346,363.798 167.042,364.516C168.28,365.794 174.693,364.132 174.693,364.132L184.946,380.457C184.946,380.457 185.818,382.258 187.091,384.899C190.29,391.536 196.016,403.474 196.771,405.448C196.771,405.448 192.429,404.019 191.175,405.4C188.79,408.026 184.909,408.48 183.99,405.274C183.013,401.867 178.322,403.999 175.548,404.047C174.985,404.057 170.558,404.776 170.558,404.776L159.262,392.201C157.819,392.494 138.703,397.117 137.901,397.311C137.898,397.264 137.889,397.263 137.875,397.317L137.901,397.311C137.932,397.819 137.26,403.735 134.421,405.771C133.981,406.087 131.356,404.425 130.878,403.843C129.724,402.437 126.757,402.821 125.081,401.835C124.066,401.238 124.539,396.689 126.763,392.417C128.891,388.33 130.878,385.874 132.471,384.041C134.959,381.179 139.841,379.681 142.204,376.709C144.484,373.842 152.293,365.985 153.36,363.262C153.4,363.161 153.58,359.388 153.198,358.52" style="fill:rgb(204,88,3);fill-opacity:0.99;"/>
                </g>
                <g transform="matrix(-0.0297763,-0.661808,0.687491,-0.0286417,133.621,424.034)">
                    <path d="M151.445,350.776C150.87,348.222 149.491,335.345 149.491,335.345C149.491,335.345 148.871,328.663 148.973,326.974C149.076,325.285 148.487,321.011 147.847,317.581C147.343,314.879 148.787,304.399 143.617,300.554C135.246,294.329 106.889,288.989 97.894,282.655C94.947,280.581 94.254,274.719 94.514,274.512C97.015,272.509 107.547,261.694 109.403,258.134C115.922,245.632 115.956,234.101 113.425,228.191C113.196,227.656 121.279,226.869 122.769,229.17C128.294,237.704 152.195,269.934 163.899,277.056C164.183,277.229 169.765,276.489 170.074,277.15C170.416,277.148 170.757,277.157 171.095,277.179C185.776,278.124 196.889,291.407 195.896,306.822C195.665,310.418 192.963,318.884 189.92,322.674C187.156,326.115 180.246,342.43 180.246,342.43C180.246,342.43 179.114,346.8 178.888,348.501C178.399,352.164 176.62,353.231 173.939,354.593C173.275,354.93 172.293,353.998 172.137,353.269C171.949,352.391 173.329,350.26 172.813,349.326C172.297,348.392 169.913,348.491 169.04,347.665C168.167,346.839 166.71,344.971 167.576,344.37C174.771,339.369 167.58,330.455 164.968,328.79C161.004,326.264 153.315,328.823 153.255,333.011C153.243,333.805 153.098,334.446 152.743,334.888L152.9,336.027C152.934,336.016 152.967,336.007 153,336C153.652,335.859 154.393,335.567 155,336C156.167,336.833 158.833,339.5 160,341C160.738,341.949 162.769,342.906 163,344C163.247,345.168 162.885,346.281 163,347C163.117,347.736 162,349 162,349C162,349 160.663,349.935 160,350C158.644,350.133 157.346,349.956 156,350C155.772,350.008 155.364,349.999 155.085,350.06C154.575,350.171 152.941,350.666 152.941,350.666C152.941,350.666 151.555,351.263 151.445,350.776ZM188.589,302.674C189.083,294.517 182.862,287.493 174.705,286.999C166.548,286.505 159.525,292.726 159.03,300.883C158.536,309.04 164.757,316.063 172.914,316.557C181.071,317.052 188.095,310.831 188.589,302.674Z" style="fill:rgb(204,88,3);fill-opacity:0.99;"/>
                </g>
            </g>
        </g>
        <g transform="matrix(0.18711,0.00604864,-0.00613533,0.0851361,6116.78,3165.5)">
            <path d="M163,157C169.333,161.857 177,168 182,176L185,154L188,174C191.444,168.875 196.505,164.356 202,160L189,181L189,203C197.717,192.2 207.49,185.628 218,182C204.617,193.013 193.873,204.218 191,216L190,226C190,226 191.236,241.615 191.812,248.892C192.361,255.815 194.581,265.958 194.278,269.345C194.151,270.767 192.074,269.506 190.449,269.267C190.143,269.222 188.86,269.548 188.629,269.626C185.918,270.544 187.238,270.086 184.549,270.399C181.756,270.723 177.83,272.296 177.336,269.666C176.449,264.944 176.378,243.169 176,236C175.365,223.968 149.228,212.964 151,211C158.094,211.926 166.832,216.415 177,224L177,213C177.842,204.964 165.267,193.187 151,182C159.367,184.217 167.558,189.045 179,201L179,182L163,157Z" style="fill:rgb(128,165,107);"/>
        </g>
        <g transform="matrix(0.172228,-0.00173811,0.00260182,0.115311,6119.06,3160.77)">
            <path d="M150,214L131,203L152,208C142.089,190.066 125.107,187.345 107,194C117.236,216.529 132.592,221.186 150,214Z" style="fill:url(#_Linear2);"/>
        </g>
        <g transform="matrix(0.172047,0.00556171,-0.00830115,0.11519,6120.12,3162.22)">
            <path d="M185,129L181,149C167.946,135.352 169.623,118.978 185,102C200.478,118.654 199.696,135.139 187,150L185,129Z" style="fill:url(#_Linear3);"/>
        </g>
        <g transform="matrix(0.172047,0.00556171,-0.00830115,0.11519,6119.56,3161.17)">
            <path d="M213,150L200,159C200.185,141.992 210.886,130.433 229,127C228.8,145.568 221.104,157.775 204,162L213,150Z" style="fill:url(#_Linear4);"/>
        </g>
        <g transform="matrix(0.172047,0.00556171,-0.00830115,0.11519,6119.48,3160.62)">
            <path d="M234,172L215,179C219.311,164.501 230.246,155.154 253,155C248.887,180.501 235.436,186.426 218,184L234,172Z" style="fill:url(#_Linear5);"/>
        </g>
        <g transform="matrix(0.172047,0.00556171,-0.00830115,0.11519,6120.76,3160.63)">
            <path d="M136,173L151,184C131.615,187.235 118.628,176.656 116,155C134.068,154.894 148.229,160.892 154,180L136,173Z" style="fill:url(#_Linear6);"/>
        </g>
        <g transform="matrix(0.172047,0.00556171,-0.00830115,0.11519,6120.07,3160.98)">
            <path d="M164,163L156,151L169,159C167.186,140.132 156.931,128.94 140,128C141.398,149.57 150.818,159.107 164,163Z" style="fill:url(#_Linear7);"/>
        </g>
    </g>
    <defs>
        <linearGradient id="_Linear1" x1="0" y1="0" x2="1" y2="0" gradientUnits="userSpaceOnUse" gradientTransform="matrix(22.8361,-84.9941,84.4997,22.843,209.3,439.609)"><stop offset="0" style="stop-color:rgb(78,52,46);stop-opacity:1"/><stop offset="0.33" style="stop-color:rgb(90,61,55);stop-opacity:1"/><stop offset="0.42" style="stop-color:rgb(125,85,79);stop-opacity:1"/><stop offset="0.5" style="stop-color:rgb(169,116,110);stop-opacity:1"/><stop offset="1" style="stop-color:rgb(0,160,110);stop-opacity:1"/></linearGradient>
        <linearGradient id="_Linear2" x1="0" y1="0" x2="1" y2="0" gradientUnits="userSpaceOnUse" gradientTransform="matrix(21.0945,6.44473,-6.42896,21.1553,113.599,197.189)"><stop offset="0" style="stop-color:rgb(65,138,77);stop-opacity:1"/><stop offset="1" style="stop-color:rgb(22,90,33);stop-opacity:1"/></linearGradient>
        <linearGradient id="_Linear3" x1="0" y1="0" x2="1" y2="0" gradientUnits="userSpaceOnUse" gradientTransform="matrix(-0.824214,26.4892,-26.4145,-0.832919,184.633,105.356)"><stop offset="0" style="stop-color:rgb(65,138,77);stop-opacity:1"/><stop offset="1" style="stop-color:rgb(22,90,33);stop-opacity:1"/></linearGradient>
        <linearGradient id="_Linear4" x1="0" y1="0" x2="1" y2="0" gradientUnits="userSpaceOnUse" gradientTransform="matrix(-14.8757,20.4595,-20.4052,-14.9228,224.005,133.693)"><stop offset="0" style="stop-color:rgb(65,138,77);stop-opacity:1"/><stop offset="1" style="stop-color:rgb(22,90,33);stop-opacity:1"/></linearGradient>
        <linearGradient id="_Linear5" x1="0" y1="0" x2="1" y2="0" gradientUnits="userSpaceOnUse" gradientTransform="matrix(-16.5979,12.4928,-12.4615,-16.648,247.281,158.635)"><stop offset="0" style="stop-color:rgb(65,138,77);stop-opacity:1"/><stop offset="1" style="stop-color:rgb(22,90,33);stop-opacity:1"/></linearGradient>
        <linearGradient id="_Linear6" x1="0" y1="0" x2="1" y2="0" gradientUnits="userSpaceOnUse" gradientTransform="matrix(17.1176,14.1232,-14.0791,17.1628,121.373,158.857)"><stop offset="0" style="stop-color:rgb(65,138,77);stop-opacity:1"/><stop offset="1" style="stop-color:rgb(22,90,33);stop-opacity:1"/></linearGradient>
        <linearGradient id="_Linear7" x1="0" y1="0" x2="1" y2="0" gradientUnits="userSpaceOnUse" gradientTransform="matrix(12.8797,17.3944,-17.3421,12.9121,145.012,133.991)"><stop offset="0" style="stop-color:rgb(65,138,77);stop-opacity:1"/><stop offset="1" style="stop-color:rgb(22,90,33);stop-opacity:1"/></linearGradient>
    </defs>
</svg>
