<?xml version="1.0" encoding="UTF-8" standalone="no"?>
<!DOCTYPE svg PUBLIC "-//W3C//DTD SVG 1.1//EN" "http://www.w3.org/Graphics/SVG/1.1/DTD/svg11.dtd">
<svg width="100%" height="100%" viewBox="0 0 10447 3372" version="1.1" xmlns="http://www.w3.org/2000/svg" xmlns:xlink="http://www.w3.org/1999/xlink" xml:space="preserve" xmlns:serif="http://www.serif.com/" style="fill-rule:evenodd;clip-rule:evenodd;stroke-linejoin:round;stroke-miterlimit:2;">
    <g transform="matrix(17.0145,0,0,21.8007,-26092.9,-8552.69)">
        <g id="A" transform="matrix(0.212256,0,0,0.131493,1269.1,448.097)">
            <g transform="matrix(193.231,0,0,193.231,1230.68,750.004)">
                <path d="M0.081,-0L0.081,-0.728L0.245,-0.728L0.403,-0.31C0.408,-0.298 0.413,-0.282 0.419,-0.263C0.424,-0.244 0.43,-0.224 0.436,-0.201C0.443,-0.179 0.449,-0.158 0.454,-0.136C0.46,-0.115 0.465,-0.095 0.469,-0.078L0.445,-0.078C0.45,-0.094 0.455,-0.113 0.46,-0.134C0.466,-0.156 0.472,-0.177 0.478,-0.2C0.484,-0.222 0.49,-0.243 0.496,-0.262C0.501,-0.282 0.507,-0.298 0.511,-0.31L0.668,-0.728L0.832,-0.728L0.832,-0L0.722,-0L0.722,-0.391C0.722,-0.407 0.722,-0.425 0.722,-0.445C0.722,-0.466 0.723,-0.488 0.723,-0.511C0.724,-0.535 0.724,-0.558 0.725,-0.582C0.726,-0.606 0.726,-0.629 0.726,-0.651L0.735,-0.651C0.728,-0.627 0.721,-0.602 0.713,-0.577C0.706,-0.552 0.698,-0.528 0.691,-0.504C0.683,-0.481 0.676,-0.459 0.67,-0.44C0.663,-0.42 0.657,-0.404 0.653,-0.391L0.504,-0L0.408,-0L0.258,-0.391C0.253,-0.404 0.247,-0.42 0.241,-0.439C0.235,-0.458 0.228,-0.479 0.22,-0.502C0.213,-0.525 0.205,-0.55 0.197,-0.575C0.19,-0.6 0.182,-0.625 0.174,-0.651L0.184,-0.651C0.184,-0.631 0.185,-0.609 0.185,-0.586C0.186,-0.562 0.186,-0.539 0.187,-0.515C0.187,-0.491 0.188,-0.469 0.188,-0.448C0.189,-0.426 0.189,-0.407 0.189,-0.391L0.189,-0L0.081,-0Z" style="fill:rgb(98,144,195);fill-rule:nonzero;"/>
            </g>
            <g transform="matrix(193.231,0,0,193.231,1407.02,750.004)">
                <path d="M0.025,-0L0.284,-0.728L0.421,-0.728L0.684,-0L0.564,-0L0.422,-0.405C0.411,-0.438 0.399,-0.476 0.386,-0.521C0.373,-0.566 0.357,-0.619 0.34,-0.681L0.363,-0.681C0.346,-0.618 0.331,-0.564 0.318,-0.519C0.305,-0.474 0.293,-0.436 0.283,-0.405L0.145,-0L0.025,-0ZM0.165,-0.192L0.165,-0.285L0.544,-0.285L0.544,-0.192L0.165,-0.192Z" style="fill:rgb(98,144,195);fill-rule:nonzero;"/>
            </g>
            <g transform="matrix(193.231,0,0,193.231,1536.95,750.004)">
                <path d="M0.383,0.01C0.32,0.01 0.264,-0.005 0.214,-0.035C0.165,-0.065 0.126,-0.108 0.098,-0.163C0.069,-0.219 0.055,-0.286 0.055,-0.363C0.055,-0.441 0.069,-0.508 0.098,-0.564C0.126,-0.62 0.165,-0.662 0.215,-0.692C0.264,-0.722 0.32,-0.737 0.383,-0.737C0.421,-0.737 0.457,-0.732 0.491,-0.721C0.525,-0.71 0.555,-0.694 0.581,-0.673C0.608,-0.651 0.63,-0.626 0.647,-0.595C0.665,-0.565 0.677,-0.531 0.683,-0.492L0.571,-0.492C0.566,-0.515 0.558,-0.536 0.547,-0.554C0.535,-0.571 0.521,-0.586 0.504,-0.599C0.488,-0.611 0.469,-0.62 0.449,-0.627C0.428,-0.633 0.407,-0.636 0.384,-0.636C0.342,-0.636 0.305,-0.625 0.272,-0.604C0.239,-0.583 0.213,-0.552 0.194,-0.512C0.175,-0.471 0.166,-0.422 0.166,-0.363C0.166,-0.305 0.175,-0.255 0.194,-0.215C0.213,-0.174 0.239,-0.143 0.272,-0.123C0.305,-0.102 0.342,-0.092 0.384,-0.092C0.406,-0.092 0.428,-0.095 0.448,-0.101C0.469,-0.108 0.488,-0.117 0.504,-0.129C0.521,-0.141 0.535,-0.156 0.547,-0.174C0.558,-0.192 0.566,-0.212 0.571,-0.236L0.683,-0.236C0.678,-0.2 0.666,-0.167 0.649,-0.137C0.632,-0.107 0.611,-0.081 0.584,-0.059C0.558,-0.037 0.528,-0.02 0.494,-0.008C0.46,0.004 0.423,0.01 0.383,0.01Z" style="fill:rgb(98,144,195);fill-rule:nonzero;"/>
            </g>
            <g transform="matrix(193.231,0,0,193.231,1678.66,750.004)">
                <path d="M0.081,-0L0.081,-0.728L0.192,-0.728L0.192,-0.42L0.552,-0.42L0.552,-0.728L0.664,-0.728L0.664,-0L0.552,-0L0.552,-0.324L0.192,-0.324L0.192,-0L0.081,-0Z" style="fill:rgb(98,144,195);fill-rule:nonzero;"/>
            </g>
            <g transform="matrix(193.231,0,0,193.231,1822.55,750.004)">
                <rect x="0.081" y="-0.728" width="0.112" height="0.728" style="fill:rgb(98,144,195);fill-rule:nonzero;"/>
            </g>
            <g transform="matrix(193.231,0,0,193.231,1875.19,750.004)">
                <path d="M0.081,-0L0.081,-0.728L0.209,-0.728L0.483,-0.295C0.492,-0.28 0.502,-0.263 0.513,-0.243C0.525,-0.223 0.537,-0.201 0.55,-0.176C0.562,-0.151 0.575,-0.124 0.587,-0.095L0.574,-0.095C0.571,-0.122 0.569,-0.15 0.567,-0.177C0.566,-0.204 0.565,-0.23 0.564,-0.253C0.563,-0.277 0.563,-0.297 0.563,-0.314L0.563,-0.728L0.676,-0.728L0.676,-0L0.547,-0L0.301,-0.387C0.288,-0.409 0.275,-0.43 0.263,-0.451C0.25,-0.473 0.237,-0.497 0.221,-0.525C0.206,-0.554 0.188,-0.588 0.166,-0.628L0.184,-0.628C0.185,-0.593 0.187,-0.559 0.188,-0.528C0.19,-0.497 0.191,-0.469 0.192,-0.445C0.193,-0.421 0.194,-0.402 0.194,-0.388L0.194,-0L0.081,-0Z" style="fill:rgb(98,144,195);fill-rule:nonzero;"/>
            </g>
            <g transform="matrix(193.231,0,0,193.231,2021.34,750.004)">
                <path d="M0.081,-0L0.081,-0.728L0.538,-0.728L0.538,-0.632L0.192,-0.632L0.192,-0.415L0.514,-0.415L0.514,-0.32L0.192,-0.32L0.192,-0.096L0.542,-0.096L0.542,-0L0.081,-0Z" style="fill:rgb(98,144,195);fill-rule:nonzero;"/>
            </g>
            <g transform="matrix(193.231,0,0,193.231,2137.87,750.004)">
            </g>
            <g transform="matrix(193.231,0,0,193.231,2189.38,750.004)">
                <path d="M0.081,-0L0.081,-0.728L0.192,-0.728L0.192,-0.096L0.521,-0.096L0.521,-0L0.081,-0Z" style="fill:rgb(98,144,195);fill-rule:nonzero;"/>
            </g>
            <g transform="matrix(193.231,0,0,193.231,2298.64,750.004)">
                <path d="M0.081,-0L0.081,-0.728L0.538,-0.728L0.538,-0.632L0.192,-0.632L0.192,-0.415L0.514,-0.415L0.514,-0.32L0.192,-0.32L0.192,-0.096L0.542,-0.096L0.542,-0L0.081,-0Z" style="fill:rgb(98,144,195);fill-rule:nonzero;"/>
            </g>
            <g transform="matrix(193.231,0,0,193.231,2415.17,750.004)">
                <path d="M0.025,-0L0.284,-0.728L0.421,-0.728L0.684,-0L0.564,-0L0.422,-0.405C0.411,-0.438 0.399,-0.476 0.386,-0.521C0.373,-0.566 0.357,-0.619 0.34,-0.681L0.363,-0.681C0.346,-0.618 0.331,-0.564 0.318,-0.519C0.305,-0.474 0.293,-0.436 0.283,-0.405L0.145,-0L0.025,-0ZM0.165,-0.192L0.165,-0.285L0.544,-0.285L0.544,-0.192L0.165,-0.192Z" style="fill:rgb(98,144,195);fill-rule:nonzero;"/>
            </g>
            <g transform="matrix(193.231,0,0,193.231,2552.16,750.004)">
                <path d="M0.081,-0L0.081,-0.728L0.341,-0.728C0.397,-0.728 0.444,-0.718 0.481,-0.698C0.519,-0.679 0.547,-0.652 0.565,-0.618C0.584,-0.583 0.593,-0.544 0.593,-0.499C0.593,-0.454 0.584,-0.415 0.565,-0.381C0.546,-0.347 0.518,-0.321 0.481,-0.303C0.444,-0.284 0.397,-0.275 0.34,-0.275L0.144,-0.275L0.144,-0.37L0.329,-0.37C0.365,-0.37 0.394,-0.375 0.416,-0.385C0.438,-0.396 0.454,-0.41 0.465,-0.43C0.475,-0.449 0.48,-0.472 0.48,-0.499C0.48,-0.526 0.475,-0.55 0.465,-0.57C0.454,-0.59 0.438,-0.605 0.416,-0.616C0.394,-0.627 0.365,-0.632 0.329,-0.632L0.192,-0.632L0.192,-0L0.081,-0ZM0.494,-0L0.318,-0.329L0.441,-0.329L0.621,-0L0.494,-0Z" style="fill:rgb(98,144,195);fill-rule:nonzero;"/>
            </g>
            <g transform="matrix(193.231,0,0,193.231,2677.37,750.004)">
                <path d="M0.081,-0L0.081,-0.728L0.209,-0.728L0.483,-0.295C0.492,-0.28 0.502,-0.263 0.513,-0.243C0.525,-0.223 0.537,-0.201 0.55,-0.176C0.562,-0.151 0.575,-0.124 0.587,-0.095L0.574,-0.095C0.571,-0.122 0.569,-0.15 0.567,-0.177C0.566,-0.204 0.565,-0.23 0.564,-0.253C0.563,-0.277 0.563,-0.297 0.563,-0.314L0.563,-0.728L0.676,-0.728L0.676,-0L0.547,-0L0.301,-0.387C0.288,-0.409 0.275,-0.43 0.263,-0.451C0.25,-0.473 0.237,-0.497 0.221,-0.525C0.206,-0.554 0.188,-0.588 0.166,-0.628L0.184,-0.628C0.185,-0.593 0.187,-0.559 0.188,-0.528C0.19,-0.497 0.191,-0.469 0.192,-0.445C0.193,-0.421 0.194,-0.402 0.194,-0.388L0.194,-0L0.081,-0Z" style="fill:rgb(98,144,195);fill-rule:nonzero;"/>
            </g>
            <g transform="matrix(193.231,0,0,193.231,2823.52,750.004)">
                <rect x="0.081" y="-0.728" width="0.112" height="0.728" style="fill:rgb(98,144,195);fill-rule:nonzero;"/>
            </g>
            <g transform="matrix(193.231,0,0,193.231,2876.16,750.004)">
                <path d="M0.081,-0L0.081,-0.728L0.209,-0.728L0.483,-0.295C0.492,-0.28 0.502,-0.263 0.513,-0.243C0.525,-0.223 0.537,-0.201 0.55,-0.176C0.562,-0.151 0.575,-0.124 0.587,-0.095L0.574,-0.095C0.571,-0.122 0.569,-0.15 0.567,-0.177C0.566,-0.204 0.565,-0.23 0.564,-0.253C0.563,-0.277 0.563,-0.297 0.563,-0.314L0.563,-0.728L0.676,-0.728L0.676,-0L0.547,-0L0.301,-0.387C0.288,-0.409 0.275,-0.43 0.263,-0.451C0.25,-0.473 0.237,-0.497 0.221,-0.525C0.206,-0.554 0.188,-0.588 0.166,-0.628L0.184,-0.628C0.185,-0.593 0.187,-0.559 0.188,-0.528C0.19,-0.497 0.191,-0.469 0.192,-0.445C0.193,-0.421 0.194,-0.402 0.194,-0.388L0.194,-0L0.081,-0Z" style="fill:rgb(98,144,195);fill-rule:nonzero;"/>
            </g>
            <g transform="matrix(193.231,0,0,193.231,3022.31,750.004)">
                <path d="M0.386,0.01C0.32,0.01 0.263,-0.005 0.213,-0.036C0.163,-0.066 0.125,-0.109 0.097,-0.165C0.069,-0.22 0.055,-0.287 0.055,-0.363C0.055,-0.441 0.069,-0.508 0.097,-0.563C0.125,-0.619 0.164,-0.662 0.213,-0.692C0.263,-0.722 0.318,-0.737 0.381,-0.737C0.42,-0.737 0.457,-0.732 0.491,-0.72C0.525,-0.708 0.556,-0.692 0.582,-0.671C0.609,-0.649 0.631,-0.624 0.649,-0.594C0.666,-0.565 0.678,-0.533 0.684,-0.497L0.569,-0.497C0.563,-0.519 0.554,-0.538 0.542,-0.555C0.531,-0.572 0.517,-0.586 0.502,-0.599C0.486,-0.611 0.468,-0.62 0.448,-0.626C0.428,-0.633 0.406,-0.636 0.382,-0.636C0.341,-0.636 0.305,-0.625 0.272,-0.605C0.239,-0.584 0.213,-0.553 0.194,-0.513C0.175,-0.472 0.166,-0.422 0.166,-0.364C0.166,-0.305 0.175,-0.256 0.194,-0.215C0.213,-0.175 0.239,-0.144 0.273,-0.123C0.306,-0.102 0.344,-0.092 0.387,-0.092C0.426,-0.092 0.46,-0.1 0.489,-0.115C0.518,-0.131 0.541,-0.154 0.557,-0.183C0.573,-0.212 0.581,-0.247 0.581,-0.286L0.61,-0.281L0.403,-0.281L0.403,-0.373L0.69,-0.373L0.69,-0.29C0.69,-0.228 0.677,-0.175 0.651,-0.13C0.624,-0.086 0.589,-0.051 0.543,-0.027C0.497,-0.002 0.445,0.01 0.386,0.01Z" style="fill:rgb(98,144,195);fill-rule:nonzero;"/>
            </g>
            <g transform="matrix(193.231,0,0,193.231,3166.77,750.004)">
            </g>
            <g transform="matrix(193.231,0,0,193.231,3218.28,750.004)">
                <path d="M0.283,0.01C0.234,0.01 0.192,0.001 0.157,-0.017C0.122,-0.035 0.095,-0.059 0.076,-0.089C0.057,-0.119 0.047,-0.153 0.047,-0.191C0.047,-0.222 0.053,-0.249 0.066,-0.271C0.078,-0.294 0.096,-0.315 0.118,-0.335C0.14,-0.354 0.165,-0.374 0.194,-0.395L0.312,-0.478C0.321,-0.485 0.331,-0.493 0.34,-0.501C0.35,-0.51 0.358,-0.52 0.364,-0.532C0.371,-0.544 0.374,-0.557 0.374,-0.572C0.374,-0.593 0.367,-0.611 0.353,-0.624C0.339,-0.638 0.319,-0.645 0.294,-0.645C0.277,-0.645 0.262,-0.642 0.249,-0.635C0.236,-0.628 0.226,-0.619 0.219,-0.606C0.212,-0.594 0.209,-0.58 0.209,-0.564C0.209,-0.546 0.213,-0.529 0.221,-0.513C0.229,-0.497 0.24,-0.48 0.255,-0.462C0.269,-0.444 0.285,-0.425 0.303,-0.403L0.642,-0L0.519,-0L0.24,-0.328C0.216,-0.356 0.194,-0.383 0.174,-0.407C0.154,-0.432 0.138,-0.457 0.126,-0.482C0.114,-0.507 0.108,-0.534 0.108,-0.564C0.108,-0.597 0.115,-0.626 0.13,-0.652C0.146,-0.678 0.167,-0.698 0.195,-0.713C0.223,-0.728 0.255,-0.735 0.292,-0.735C0.329,-0.735 0.361,-0.728 0.388,-0.713C0.415,-0.699 0.436,-0.679 0.451,-0.655C0.465,-0.63 0.473,-0.603 0.473,-0.573C0.473,-0.551 0.469,-0.53 0.46,-0.511C0.452,-0.492 0.441,-0.474 0.426,-0.458C0.412,-0.442 0.395,-0.426 0.376,-0.412L0.23,-0.305C0.203,-0.285 0.184,-0.266 0.172,-0.249C0.161,-0.231 0.155,-0.212 0.155,-0.191C0.155,-0.169 0.16,-0.149 0.171,-0.133C0.181,-0.116 0.196,-0.103 0.215,-0.094C0.234,-0.085 0.256,-0.08 0.28,-0.08C0.308,-0.08 0.336,-0.086 0.362,-0.098C0.388,-0.11 0.412,-0.127 0.433,-0.149C0.454,-0.171 0.47,-0.197 0.483,-0.228C0.495,-0.259 0.501,-0.293 0.501,-0.332L0.598,-0.332C0.598,-0.285 0.593,-0.245 0.582,-0.212C0.572,-0.18 0.559,-0.154 0.544,-0.133C0.529,-0.113 0.514,-0.097 0.501,-0.085L0.477,-0.062C0.452,-0.038 0.422,-0.02 0.387,-0.008C0.352,0.004 0.317,0.01 0.283,0.01Z" style="fill:rgb(98,144,195);fill-rule:nonzero;"/>
            </g>
            <g transform="matrix(193.231,0,0,193.231,3344.52,750.004)">
            </g>
            <g transform="matrix(193.231,0,0,193.231,3396.04,750.004)">
                <path d="M0.081,-0L0.081,-0.728L0.538,-0.728L0.538,-0.632L0.192,-0.632L0.192,-0.415L0.514,-0.415L0.514,-0.32L0.192,-0.32L0.192,-0.096L0.542,-0.096L0.542,-0L0.081,-0Z" style="fill:rgb(98,144,195);fill-rule:nonzero;"/>
            </g>
            <g transform="matrix(193.231,0,0,193.231,3512.56,750.004)">
                <path d="M0.317,-0L0.137,-0L0.137,-0.097L0.311,-0.097C0.366,-0.097 0.412,-0.108 0.448,-0.128C0.485,-0.149 0.512,-0.179 0.53,-0.219C0.548,-0.259 0.558,-0.307 0.558,-0.365C0.558,-0.422 0.548,-0.47 0.53,-0.509C0.512,-0.549 0.485,-0.579 0.45,-0.599C0.414,-0.62 0.37,-0.63 0.317,-0.63L0.133,-0.63L0.133,-0.728L0.324,-0.728C0.396,-0.728 0.457,-0.713 0.508,-0.684C0.559,-0.655 0.598,-0.613 0.626,-0.559C0.653,-0.505 0.667,-0.44 0.667,-0.365C0.667,-0.289 0.653,-0.224 0.626,-0.169C0.598,-0.115 0.558,-0.073 0.506,-0.044C0.454,-0.015 0.391,-0 0.317,-0ZM0.192,-0.728L0.192,-0L0.081,-0L0.081,-0.728L0.192,-0.728Z" style="fill:rgb(98,144,195);fill-rule:nonzero;"/>
            </g>
            <g transform="matrix(193.231,0,0,193.231,3652.01,750.004)">
                <path d="M0.386,0.01C0.32,0.01 0.263,-0.005 0.213,-0.036C0.163,-0.066 0.125,-0.109 0.097,-0.165C0.069,-0.22 0.055,-0.287 0.055,-0.363C0.055,-0.441 0.069,-0.508 0.097,-0.563C0.125,-0.619 0.164,-0.662 0.213,-0.692C0.263,-0.722 0.318,-0.737 0.381,-0.737C0.42,-0.737 0.457,-0.732 0.491,-0.72C0.525,-0.708 0.556,-0.692 0.582,-0.671C0.609,-0.649 0.631,-0.624 0.649,-0.594C0.666,-0.565 0.678,-0.533 0.684,-0.497L0.569,-0.497C0.563,-0.519 0.554,-0.538 0.542,-0.555C0.531,-0.572 0.517,-0.586 0.502,-0.599C0.486,-0.611 0.468,-0.62 0.448,-0.626C0.428,-0.633 0.406,-0.636 0.382,-0.636C0.341,-0.636 0.305,-0.625 0.272,-0.605C0.239,-0.584 0.213,-0.553 0.194,-0.513C0.175,-0.472 0.166,-0.422 0.166,-0.364C0.166,-0.305 0.175,-0.256 0.194,-0.215C0.213,-0.175 0.239,-0.144 0.273,-0.123C0.306,-0.102 0.344,-0.092 0.387,-0.092C0.426,-0.092 0.46,-0.1 0.489,-0.115C0.518,-0.131 0.541,-0.154 0.557,-0.183C0.573,-0.212 0.581,-0.247 0.581,-0.286L0.61,-0.281L0.403,-0.281L0.403,-0.373L0.69,-0.373L0.69,-0.29C0.69,-0.228 0.677,-0.175 0.651,-0.13C0.624,-0.086 0.589,-0.051 0.543,-0.027C0.497,-0.002 0.445,0.01 0.386,0.01Z" style="fill:rgb(98,144,195);fill-rule:nonzero;"/>
            </g>
            <g transform="matrix(193.231,0,0,193.231,3796.46,750.004)">
                <path d="M0.081,-0L0.081,-0.728L0.538,-0.728L0.538,-0.632L0.192,-0.632L0.192,-0.415L0.514,-0.415L0.514,-0.32L0.192,-0.32L0.192,-0.096L0.542,-0.096L0.542,-0L0.081,-0Z" style="fill:rgb(98,144,195);fill-rule:nonzero;"/>
            </g>
            <g transform="matrix(193.231,0,0,193.231,3912.99,750.004)">
            </g>
            <g transform="matrix(193.231,0,0,193.231,3964.5,750.004)">
                <path d="M0.025,-0L0.284,-0.728L0.421,-0.728L0.684,-0L0.564,-0L0.422,-0.405C0.411,-0.438 0.399,-0.476 0.386,-0.521C0.373,-0.566 0.357,-0.619 0.34,-0.681L0.363,-0.681C0.346,-0.618 0.331,-0.564 0.318,-0.519C0.305,-0.474 0.293,-0.436 0.283,-0.405L0.145,-0L0.025,-0ZM0.165,-0.192L0.165,-0.285L0.544,-0.285L0.544,-0.192L0.165,-0.192Z" style="fill:rgb(98,144,195);fill-rule:nonzero;"/>
            </g>
            <g transform="matrix(193.231,0,0,193.231,4101.5,750.004)">
                <rect x="0.081" y="-0.728" width="0.112" height="0.728" style="fill:rgb(98,144,195);fill-rule:nonzero;"/>
            </g>
            <g transform="matrix(193.231,0,0,193.231,4154.15,750.004)">
            </g>
            <g transform="matrix(193.231,0,0,193.231,4205.67,750.004)">
            </g>
        </g>
        <g transform="matrix(1.21683,0,0,1.14051,-485.848,-83.3505)">
            <g id="A1" serif:id="A" transform="matrix(0.476509,0,0,0.3549,1068.96,203.524)">
                <g transform="matrix(193.231,0,0,193.231,1230.68,750.004)">
                    <path d="M0.388,0.01C0.32,0.01 0.261,-0.005 0.209,-0.036C0.158,-0.066 0.118,-0.109 0.089,-0.164C0.06,-0.22 0.046,-0.286 0.046,-0.363C0.046,-0.441 0.061,-0.509 0.091,-0.565C0.121,-0.62 0.161,-0.663 0.212,-0.693C0.263,-0.722 0.321,-0.737 0.385,-0.737C0.426,-0.737 0.464,-0.731 0.499,-0.72C0.534,-0.708 0.566,-0.691 0.594,-0.669C0.621,-0.647 0.644,-0.621 0.661,-0.591C0.678,-0.562 0.69,-0.529 0.695,-0.493L0.543,-0.493C0.538,-0.51 0.531,-0.526 0.522,-0.54C0.512,-0.554 0.501,-0.565 0.488,-0.575C0.475,-0.585 0.46,-0.592 0.443,-0.597C0.426,-0.602 0.408,-0.605 0.387,-0.605C0.35,-0.605 0.317,-0.596 0.288,-0.577C0.26,-0.558 0.237,-0.531 0.221,-0.495C0.205,-0.459 0.197,-0.416 0.197,-0.364C0.197,-0.313 0.205,-0.269 0.221,-0.233C0.237,-0.197 0.259,-0.17 0.288,-0.151C0.316,-0.132 0.35,-0.123 0.389,-0.123C0.424,-0.123 0.454,-0.129 0.48,-0.142C0.505,-0.154 0.524,-0.173 0.537,-0.196C0.551,-0.219 0.557,-0.247 0.557,-0.279L0.589,-0.274L0.4,-0.274L0.4,-0.388L0.702,-0.388L0.702,-0.297C0.702,-0.233 0.689,-0.178 0.662,-0.133C0.635,-0.087 0.598,-0.052 0.55,-0.027C0.503,-0.003 0.449,0.01 0.388,0.01Z" style="fill:rgb(204,88,3);fill-rule:nonzero;"/>
                </g>
                <g transform="matrix(193.231,0,0,193.231,1375.7,750.004)">
                    <path d="M0.215,0.011C0.18,0.011 0.149,0.004 0.122,-0.008C0.094,-0.02 0.073,-0.038 0.057,-0.062C0.041,-0.087 0.033,-0.117 0.033,-0.153C0.033,-0.183 0.039,-0.209 0.05,-0.229C0.061,-0.249 0.076,-0.266 0.096,-0.278C0.115,-0.291 0.137,-0.3 0.162,-0.307C0.186,-0.313 0.212,-0.318 0.239,-0.32C0.271,-0.324 0.296,-0.327 0.315,-0.329C0.335,-0.332 0.349,-0.337 0.358,-0.343C0.367,-0.349 0.372,-0.357 0.372,-0.369L0.372,-0.372C0.372,-0.387 0.368,-0.4 0.362,-0.411C0.355,-0.422 0.345,-0.43 0.333,-0.436C0.32,-0.442 0.304,-0.444 0.286,-0.444C0.267,-0.444 0.251,-0.442 0.237,-0.436C0.223,-0.43 0.212,-0.423 0.203,-0.413C0.194,-0.404 0.187,-0.393 0.183,-0.381L0.049,-0.404C0.058,-0.435 0.074,-0.462 0.096,-0.484C0.117,-0.507 0.145,-0.524 0.177,-0.535C0.209,-0.547 0.246,-0.553 0.286,-0.553C0.316,-0.553 0.344,-0.549 0.372,-0.542C0.4,-0.535 0.424,-0.525 0.446,-0.51C0.468,-0.495 0.486,-0.476 0.499,-0.452C0.512,-0.429 0.518,-0.401 0.518,-0.368L0.518,-0L0.379,-0L0.379,-0.076L0.374,-0.076C0.366,-0.059 0.354,-0.044 0.339,-0.031C0.325,-0.018 0.307,-0.008 0.286,-0C0.266,0.007 0.242,0.011 0.215,0.011ZM0.256,-0.092C0.279,-0.092 0.3,-0.097 0.317,-0.106C0.334,-0.115 0.348,-0.127 0.358,-0.143C0.368,-0.159 0.373,-0.176 0.373,-0.195L0.373,-0.254C0.368,-0.251 0.362,-0.248 0.353,-0.246C0.344,-0.243 0.335,-0.241 0.324,-0.239C0.313,-0.237 0.303,-0.235 0.292,-0.233C0.282,-0.232 0.272,-0.23 0.264,-0.229C0.246,-0.227 0.23,-0.223 0.217,-0.217C0.203,-0.211 0.193,-0.203 0.185,-0.194C0.177,-0.184 0.174,-0.172 0.174,-0.157C0.174,-0.143 0.177,-0.131 0.184,-0.121C0.192,-0.112 0.201,-0.104 0.214,-0.099C0.226,-0.095 0.24,-0.092 0.256,-0.092Z" style="fill:rgb(204,88,3);fill-rule:nonzero;"/>
                </g>
                <g transform="matrix(193.231,0,0,193.231,1487.88,750.004)">
                    <path d="M0.368,0.009C0.339,0.009 0.314,0.004 0.293,-0.006C0.273,-0.016 0.256,-0.028 0.243,-0.043C0.23,-0.058 0.22,-0.073 0.214,-0.087L0.206,-0.087L0.206,-0L0.062,-0L0.062,-0.728L0.209,-0.728L0.209,-0.454L0.214,-0.454C0.22,-0.469 0.23,-0.483 0.242,-0.499C0.255,-0.514 0.271,-0.527 0.292,-0.537C0.312,-0.548 0.338,-0.553 0.369,-0.553C0.41,-0.553 0.447,-0.542 0.48,-0.521C0.513,-0.501 0.54,-0.469 0.56,-0.428C0.58,-0.386 0.591,-0.334 0.591,-0.272C0.591,-0.211 0.581,-0.16 0.561,-0.118C0.542,-0.077 0.515,-0.045 0.482,-0.023C0.448,-0.002 0.41,0.009 0.368,0.009ZM0.323,-0.108C0.349,-0.108 0.37,-0.115 0.388,-0.129C0.405,-0.143 0.418,-0.163 0.427,-0.187C0.436,-0.212 0.44,-0.241 0.44,-0.272C0.44,-0.304 0.436,-0.333 0.427,-0.357C0.418,-0.382 0.405,-0.401 0.388,-0.415C0.37,-0.428 0.349,-0.435 0.323,-0.435C0.298,-0.435 0.277,-0.429 0.259,-0.415C0.242,-0.402 0.228,-0.383 0.219,-0.359C0.21,-0.334 0.206,-0.306 0.206,-0.272C0.206,-0.24 0.21,-0.211 0.219,-0.186C0.229,-0.162 0.242,-0.143 0.26,-0.129C0.277,-0.115 0.298,-0.108 0.323,-0.108Z" style="fill:rgb(204,88,3);fill-rule:nonzero;"/>
                </g>
                <g transform="matrix(193.231,0,0,193.231,1609.69,750.004)">
                    <path d="M0.062,-0L0.062,-0.546L0.204,-0.546L0.204,-0.451L0.21,-0.451C0.22,-0.484 0.237,-0.51 0.26,-0.527C0.284,-0.545 0.311,-0.553 0.342,-0.553C0.349,-0.553 0.357,-0.553 0.366,-0.552C0.375,-0.551 0.382,-0.55 0.389,-0.548L0.389,-0.417C0.383,-0.42 0.373,-0.422 0.361,-0.423C0.348,-0.424 0.337,-0.425 0.326,-0.425C0.303,-0.425 0.283,-0.42 0.266,-0.41C0.248,-0.401 0.234,-0.387 0.224,-0.37C0.214,-0.353 0.209,-0.333 0.209,-0.311L0.209,-0L0.062,-0Z" style="fill:rgb(204,88,3);fill-rule:nonzero;"/>
                </g>
                <g transform="matrix(193.231,0,0,193.231,1689.23,750.004)">
                    <path d="M0.062,-0L0.062,-0.546L0.209,-0.546L0.209,-0L0.062,-0ZM0.136,-0.617C0.114,-0.617 0.095,-0.624 0.079,-0.639C0.063,-0.654 0.055,-0.672 0.055,-0.692C0.055,-0.713 0.063,-0.731 0.079,-0.746C0.095,-0.76 0.114,-0.768 0.136,-0.768C0.158,-0.768 0.177,-0.76 0.193,-0.746C0.208,-0.731 0.216,-0.713 0.216,-0.692C0.216,-0.672 0.208,-0.654 0.193,-0.639C0.177,-0.624 0.158,-0.617 0.136,-0.617Z" style="fill:rgb(204,88,3);fill-rule:nonzero;"/>
                </g>
                <g transform="matrix(193.231,0,0,193.231,1741.59,750.004)">
                    <path d="M0.309,0.011C0.254,0.011 0.206,-0.001 0.165,-0.024C0.125,-0.046 0.094,-0.079 0.072,-0.121C0.051,-0.163 0.04,-0.213 0.04,-0.27C0.04,-0.326 0.05,-0.376 0.072,-0.418C0.093,-0.46 0.124,-0.493 0.163,-0.517C0.203,-0.541 0.249,-0.553 0.302,-0.553C0.338,-0.553 0.371,-0.547 0.402,-0.536C0.433,-0.524 0.46,-0.507 0.483,-0.484C0.507,-0.461 0.525,-0.433 0.538,-0.398C0.551,-0.363 0.558,-0.323 0.558,-0.276L0.558,-0.235L0.1,-0.235L0.1,-0.327L0.487,-0.327L0.418,-0.302C0.418,-0.331 0.414,-0.355 0.405,-0.376C0.396,-0.397 0.384,-0.414 0.367,-0.425C0.349,-0.437 0.328,-0.442 0.303,-0.442C0.278,-0.442 0.256,-0.437 0.239,-0.425C0.221,-0.413 0.207,-0.397 0.198,-0.377C0.189,-0.357 0.184,-0.334 0.184,-0.309L0.184,-0.244C0.184,-0.212 0.19,-0.186 0.2,-0.164C0.211,-0.143 0.226,-0.127 0.245,-0.116C0.264,-0.105 0.286,-0.1 0.312,-0.1C0.329,-0.1 0.344,-0.102 0.358,-0.107C0.372,-0.112 0.384,-0.119 0.394,-0.129C0.404,-0.138 0.412,-0.15 0.417,-0.164L0.55,-0.139C0.541,-0.109 0.526,-0.083 0.504,-0.06C0.482,-0.038 0.455,-0.02 0.422,-0.008C0.389,0.004 0.352,0.011 0.309,0.011Z" style="fill:rgb(204,88,3);fill-rule:nonzero;"/>
                </g>
                <g transform="matrix(193.231,0,0,193.231,1856.7,750.004)">
                    <rect x="0.062" y="-0.728" width="0.146" height="0.728" style="fill:rgb(204,88,3);fill-rule:nonzero;"/>
                </g>
                <g transform="matrix(193.231,0,0,193.231,1909.07,750.004)">
                </g>
                <g transform="matrix(193.231,0,0,193.231,1954.83,750.004)">
                </g>
            </g>
            <g id="A2" serif:id="A" transform="matrix(0.468961,0,0,0.33891,1076.48,271.777)">
                <g transform="matrix(193.231,0,0,193.231,1230.68,750.004)">
                    <path d="M0.066,-0L0.066,-0.728L0.295,-0.728L0.412,-0.394C0.417,-0.378 0.423,-0.358 0.429,-0.333C0.436,-0.308 0.442,-0.282 0.449,-0.253C0.455,-0.224 0.461,-0.196 0.467,-0.169C0.473,-0.143 0.477,-0.119 0.481,-0.099L0.452,-0.099C0.456,-0.119 0.461,-0.142 0.466,-0.169C0.472,-0.195 0.478,-0.223 0.484,-0.252C0.491,-0.281 0.497,-0.307 0.504,-0.333C0.51,-0.358 0.516,-0.378 0.521,-0.394L0.637,-0.728L0.866,-0.728L0.866,-0L0.716,-0L0.716,-0.343C0.716,-0.359 0.717,-0.379 0.717,-0.402C0.718,-0.426 0.718,-0.452 0.719,-0.479C0.72,-0.507 0.721,-0.534 0.721,-0.562C0.722,-0.59 0.722,-0.616 0.722,-0.641L0.732,-0.641C0.726,-0.614 0.719,-0.586 0.711,-0.557C0.704,-0.529 0.696,-0.501 0.689,-0.474C0.681,-0.447 0.674,-0.422 0.667,-0.399C0.66,-0.377 0.654,-0.358 0.649,-0.343L0.529,-0L0.403,-0L0.281,-0.343C0.276,-0.358 0.27,-0.376 0.263,-0.399C0.257,-0.421 0.249,-0.446 0.241,-0.473C0.234,-0.499 0.226,-0.527 0.218,-0.556C0.211,-0.585 0.203,-0.613 0.196,-0.641L0.208,-0.641C0.208,-0.618 0.209,-0.592 0.209,-0.564C0.21,-0.537 0.212,-0.428 0.213,-0.404C0.214,-0.38 0.214,-0.359 0.214,-0.343L0.214,-0L0.066,-0Z" style="fill:rgb(204,88,3);fill-rule:nonzero;"/>
                </g>
                <g transform="matrix(193.231,0,0,193.231,1410.7,750.004)">
                    <path d="M0.306,0.011C0.252,0.011 0.204,-0.001 0.164,-0.025C0.125,-0.048 0.094,-0.081 0.072,-0.123C0.051,-0.165 0.04,-0.215 0.04,-0.271C0.04,-0.327 0.051,-0.376 0.072,-0.419C0.094,-0.461 0.125,-0.494 0.164,-0.517C0.204,-0.541 0.252,-0.553 0.306,-0.553C0.339,-0.553 0.369,-0.549 0.396,-0.54C0.423,-0.532 0.448,-0.52 0.469,-0.504C0.49,-0.488 0.507,-0.469 0.521,-0.447C0.535,-0.424 0.544,-0.399 0.549,-0.371L0.413,-0.346C0.41,-0.36 0.405,-0.373 0.399,-0.384C0.393,-0.395 0.386,-0.405 0.377,-0.413C0.368,-0.421 0.358,-0.427 0.346,-0.431C0.335,-0.435 0.322,-0.437 0.308,-0.437C0.282,-0.437 0.26,-0.43 0.242,-0.416C0.225,-0.402 0.211,-0.383 0.202,-0.358C0.193,-0.333 0.189,-0.304 0.189,-0.271C0.189,-0.239 0.193,-0.21 0.202,-0.185C0.211,-0.16 0.225,-0.14 0.242,-0.126C0.26,-0.112 0.282,-0.105 0.308,-0.105C0.322,-0.105 0.335,-0.107 0.347,-0.111C0.359,-0.115 0.369,-0.122 0.378,-0.13C0.387,-0.138 0.395,-0.148 0.401,-0.16C0.407,-0.172 0.411,-0.185 0.414,-0.2L0.55,-0.175C0.545,-0.146 0.536,-0.12 0.522,-0.097C0.508,-0.075 0.491,-0.055 0.47,-0.039C0.449,-0.023 0.424,-0.011 0.397,-0.002C0.369,0.006 0.339,0.011 0.306,0.011Z" style="fill:rgb(204,88,3);fill-rule:nonzero;"/>
                </g>
                <g transform="matrix(193.231,0,0,193.231,1514.77,750.004)">
                    <path d="M0.219,-0L0.024,-0.728L0.187,-0.728L0.271,-0.37C0.278,-0.34 0.284,-0.308 0.29,-0.274C0.296,-0.24 0.301,-0.205 0.307,-0.171C0.312,-0.137 0.317,-0.104 0.323,-0.072L0.296,-0.072C0.302,-0.104 0.308,-0.137 0.314,-0.171C0.32,-0.205 0.326,-0.24 0.332,-0.274C0.338,-0.308 0.345,-0.34 0.352,-0.37L0.441,-0.728L0.596,-0.728L0.685,-0.37C0.692,-0.34 0.699,-0.308 0.705,-0.274C0.711,-0.24 0.717,-0.205 0.723,-0.171C0.729,-0.137 0.735,-0.104 0.741,-0.072L0.714,-0.072C0.719,-0.104 0.725,-0.137 0.73,-0.171C0.736,-0.205 0.741,-0.24 0.747,-0.274C0.753,-0.308 0.76,-0.34 0.766,-0.37L0.851,-0.728L1.014,-0.728L0.818,-0L0.648,-0L0.551,-0.372C0.541,-0.413 0.532,-0.458 0.525,-0.507C0.517,-0.555 0.509,-0.604 0.5,-0.655L0.537,-0.655C0.527,-0.605 0.519,-0.557 0.512,-0.509C0.506,-0.462 0.497,-0.416 0.486,-0.372L0.39,-0L0.219,-0Z" style="fill:rgb(204,88,3);fill-rule:nonzero;"/>
                </g>
                <g transform="matrix(193.231,0,0,193.231,1715.27,750.004)">
                    <path d="M0.062,-0L0.062,-0.546L0.209,-0.546L0.209,-0L0.062,-0ZM0.136,-0.617C0.114,-0.617 0.095,-0.624 0.079,-0.639C0.063,-0.654 0.055,-0.672 0.055,-0.692C0.055,-0.713 0.063,-0.731 0.079,-0.746C0.095,-0.76 0.114,-0.768 0.136,-0.768C0.158,-0.768 0.177,-0.76 0.193,-0.746C0.208,-0.731 0.216,-0.713 0.216,-0.692C0.216,-0.672 0.208,-0.654 0.193,-0.639C0.177,-0.624 0.158,-0.617 0.136,-0.617Z" style="fill:rgb(204,88,3);fill-rule:nonzero;"/>
                </g>
                <g transform="matrix(193.231,0,0,193.231,1767.63,750.004)">
                    <rect x="0.062" y="-0.728" width="0.146" height="0.728" style="fill:rgb(204,88,3);fill-rule:nonzero;"/>
                </g>
                <g transform="matrix(193.231,0,0,193.231,1820,750.004)">
                    <rect x="0.062" y="-0.728" width="0.146" height="0.728" style="fill:rgb(204,88,3);fill-rule:nonzero;"/>
                </g>
                <g transform="matrix(193.231,0,0,193.231,1872.36,750.004)">
                    <path d="M0.062,-0L0.062,-0.546L0.209,-0.546L0.209,-0L0.062,-0ZM0.136,-0.617C0.114,-0.617 0.095,-0.624 0.079,-0.639C0.063,-0.654 0.055,-0.672 0.055,-0.692C0.055,-0.713 0.063,-0.731 0.079,-0.746C0.095,-0.76 0.114,-0.768 0.136,-0.768C0.158,-0.768 0.177,-0.76 0.193,-0.746C0.208,-0.731 0.216,-0.713 0.216,-0.692C0.216,-0.672 0.208,-0.654 0.193,-0.639C0.177,-0.624 0.158,-0.617 0.136,-0.617Z" style="fill:rgb(204,88,3);fill-rule:nonzero;"/>
                </g>
                <g transform="matrix(193.231,0,0,193.231,1924.73,750.004)">
                    <path d="M0.215,0.011C0.18,0.011 0.149,0.004 0.122,-0.008C0.094,-0.02 0.073,-0.038 0.057,-0.062C0.041,-0.087 0.033,-0.117 0.033,-0.153C0.033,-0.183 0.039,-0.209 0.05,-0.229C0.061,-0.249 0.076,-0.266 0.096,-0.278C0.115,-0.291 0.137,-0.3 0.162,-0.307C0.186,-0.313 0.212,-0.318 0.239,-0.32C0.271,-0.324 0.296,-0.327 0.315,-0.329C0.335,-0.332 0.349,-0.337 0.358,-0.343C0.367,-0.349 0.372,-0.357 0.372,-0.369L0.372,-0.372C0.372,-0.387 0.368,-0.4 0.362,-0.411C0.355,-0.422 0.345,-0.43 0.333,-0.436C0.32,-0.442 0.304,-0.444 0.286,-0.444C0.267,-0.444 0.251,-0.442 0.237,-0.436C0.223,-0.43 0.212,-0.423 0.203,-0.413C0.194,-0.404 0.187,-0.393 0.183,-0.381L0.049,-0.404C0.058,-0.435 0.074,-0.462 0.096,-0.484C0.117,-0.507 0.145,-0.524 0.177,-0.535C0.209,-0.547 0.246,-0.553 0.286,-0.553C0.316,-0.553 0.344,-0.549 0.372,-0.542C0.4,-0.535 0.424,-0.525 0.446,-0.51C0.468,-0.495 0.486,-0.476 0.499,-0.452C0.512,-0.429 0.518,-0.401 0.518,-0.368L0.518,-0L0.379,-0L0.379,-0.076L0.374,-0.076C0.366,-0.059 0.354,-0.044 0.339,-0.031C0.325,-0.018 0.307,-0.008 0.286,-0C0.266,0.007 0.242,0.011 0.215,0.011ZM0.256,-0.092C0.279,-0.092 0.3,-0.097 0.317,-0.106C0.334,-0.115 0.348,-0.127 0.358,-0.143C0.368,-0.159 0.373,-0.176 0.373,-0.195L0.373,-0.254C0.368,-0.251 0.362,-0.248 0.353,-0.246C0.344,-0.243 0.335,-0.241 0.324,-0.239C0.313,-0.237 0.303,-0.235 0.292,-0.233C0.282,-0.232 0.272,-0.23 0.264,-0.229C0.246,-0.227 0.23,-0.223 0.217,-0.217C0.203,-0.211 0.193,-0.203 0.185,-0.194C0.177,-0.184 0.174,-0.172 0.174,-0.157C0.174,-0.143 0.177,-0.131 0.184,-0.121C0.192,-0.112 0.201,-0.104 0.214,-0.099C0.226,-0.095 0.24,-0.092 0.256,-0.092Z" style="fill:rgb(204,88,3);fill-rule:nonzero;"/>
                </g>
                <g transform="matrix(193.231,0,0,193.231,2036.91,750.004)">
                    <path d="M0.062,-0L0.062,-0.546L0.198,-0.546L0.206,-0.41L0.195,-0.41C0.203,-0.444 0.216,-0.471 0.232,-0.492C0.249,-0.513 0.268,-0.529 0.29,-0.539C0.312,-0.549 0.336,-0.554 0.36,-0.554C0.399,-0.554 0.431,-0.542 0.455,-0.517C0.479,-0.492 0.497,-0.453 0.508,-0.401L0.491,-0.401C0.499,-0.436 0.513,-0.465 0.531,-0.488C0.55,-0.51 0.571,-0.527 0.596,-0.538C0.622,-0.549 0.648,-0.554 0.676,-0.554C0.709,-0.554 0.739,-0.547 0.765,-0.532C0.792,-0.518 0.812,-0.497 0.827,-0.469C0.842,-0.441 0.85,-0.408 0.85,-0.368L0.85,-0L0.704,-0L0.704,-0.34C0.704,-0.371 0.695,-0.394 0.679,-0.409C0.662,-0.424 0.641,-0.432 0.617,-0.432C0.598,-0.432 0.583,-0.428 0.569,-0.42C0.555,-0.412 0.545,-0.4 0.538,-0.386C0.531,-0.372 0.527,-0.355 0.527,-0.336L0.527,-0L0.385,-0L0.385,-0.344C0.385,-0.371 0.377,-0.392 0.362,-0.408C0.346,-0.424 0.325,-0.432 0.3,-0.432C0.283,-0.432 0.268,-0.428 0.254,-0.42C0.24,-0.412 0.229,-0.401 0.221,-0.386C0.213,-0.37 0.209,-0.352 0.209,-0.33L0.209,-0L0.062,-0Z" style="fill:rgb(204,88,3);fill-rule:nonzero;"/>
                </g>
                <g transform="matrix(193.231,0,0,193.231,2213.25,750.004)">
                    <path d="M0.279,0.011C0.235,0.011 0.196,0.004 0.163,-0.008C0.129,-0.021 0.101,-0.039 0.08,-0.063C0.058,-0.087 0.044,-0.115 0.038,-0.149L0.174,-0.173C0.182,-0.147 0.194,-0.128 0.212,-0.116C0.23,-0.103 0.254,-0.097 0.284,-0.097C0.311,-0.097 0.334,-0.102 0.35,-0.113C0.366,-0.123 0.374,-0.137 0.374,-0.153C0.374,-0.167 0.368,-0.179 0.357,-0.188C0.345,-0.197 0.328,-0.204 0.303,-0.209L0.209,-0.229C0.157,-0.239 0.118,-0.258 0.091,-0.284C0.065,-0.309 0.052,-0.343 0.052,-0.384C0.052,-0.418 0.062,-0.449 0.081,-0.474C0.1,-0.499 0.127,-0.519 0.161,-0.532C0.195,-0.546 0.236,-0.553 0.282,-0.553C0.325,-0.553 0.362,-0.547 0.394,-0.535C0.425,-0.523 0.451,-0.506 0.47,-0.484C0.49,-0.463 0.503,-0.437 0.509,-0.407L0.379,-0.384C0.374,-0.403 0.363,-0.418 0.347,-0.43C0.332,-0.442 0.31,-0.448 0.284,-0.448C0.26,-0.448 0.24,-0.443 0.223,-0.432C0.207,-0.422 0.199,-0.409 0.199,-0.392C0.199,-0.379 0.204,-0.367 0.215,-0.358C0.225,-0.348 0.243,-0.341 0.269,-0.335L0.367,-0.316C0.42,-0.305 0.459,-0.288 0.485,-0.263C0.511,-0.239 0.524,-0.207 0.524,-0.168C0.524,-0.133 0.513,-0.101 0.492,-0.074C0.471,-0.048 0.443,-0.027 0.406,-0.012C0.369,0.003 0.327,0.011 0.279,0.011Z" style="fill:rgb(204,88,3);fill-rule:nonzero;"/>
                </g>
                <g transform="matrix(193.231,0,0,193.231,2321.48,750.004)">
                </g>
                <g transform="matrix(193.231,0,0,193.231,2367.24,750.004)">
                </g>
            </g>
        </g>
    </g>
</svg>
