<?xml version="1.0" encoding="UTF-8" standalone="no"?><!DOCTYPE svg PUBLIC "-//W3C//DTD SVG 1.1//EN" "http://www.w3.org/Graphics/SVG/1.1/DTD/svg11.dtd"><svg width="100%" height="100%" viewBox="0 0 769 435" version="1.1" xmlns="http://www.w3.org/2000/svg" xmlns:xlink="http://www.w3.org/1999/xlink" xml:space="preserve" xmlns:serif="http://www.serif.com/" style="fill-rule:evenodd;clip-rule:evenodd;stroke-linecap:round;stroke-linejoin:round;stroke-miterlimit:1.5;"><rect id="Arch---Emblem---Highlighted" serif:id="Arch - Emblem - Highlighted" x="0" y="0" width="768.729" height="434.846" style="fill:none;"/><clipPath id="_clip1"><rect x="0" y="0" width="768.729" height="434.846"/></clipPath><g clip-path="url(#_clip1)"><g><ellipse cx="388.01" cy="220.333" rx="376.232" ry="209.291" style="fill:#b9480b;stroke:#a4a4a4;stroke-width:16.27px;"/><g><path d="M470.497,355.452c-0.009,0.03 -0.016,0.045 -0.022,0.046c0.007,-0.016 0.015,-0.031 0.022,-0.046Zm-60.014,49.915c-0.058,0.283 -0.106,0.39 -0.141,0.265c0.047,-0.088 0.094,-0.176 0.141,-0.265Zm-30.188,-155.906c0,-0 7.769,-13.834 8.315,-18.676c0.342,-3.041 1.013,-6.502 1.395,-9.625c0.414,-3.394 0.224,-9.264 0.599,-10.381c0.502,-1.498 4.752,0.031 7.447,0.094c2.879,0.068 7.101,-1.631 7.101,-1.631c0,0 5.807,-1.934 6.789,-0.129c0.701,1.289 0.186,6.688 0.57,10.045c0.879,7.674 -0.138,25.511 9.069,35.291c5.886,9.878 23.397,14.612 38.063,14.987c13.581,0.347 14.452,-1.228 25.535,-3.013c-0,-0 13.698,2.422 17.279,6.51c-11.585,-4.324 -22.408,-4.066 -32.382,1.295c2.203,2.345 8.629,4.868 18.475,7.535c4.442,2.884 9.485,6.77 15.46,12.214l-14.969,-5.568c-4.092,-1.282 -7.565,-1.861 -10.188,-1.469c3.216,5.905 5.765,12.58 8.154,19.439c-0.693,3.707 -10.163,-11.69 -13.886,-21.24c-1.569,-4.024 -9.515,-5.244 -13.938,-6.759l-11.302,-1.387c-2.54,0.189 10.808,23.132 19.002,24.229c-8.349,0.367 -16.017,-4.696 -22.884,-16.144c-4.89,-7.831 -13.861,-12.606 -24.698,-15.982c-1.003,0.075 -1.573,9.027 2.422,17.639c4.307,9.284 13.453,15.666 15.869,17.752c4.551,3.927 23.873,12.196 38.932,11.582c12.018,-0.491 17.204,8.023 17.606,10.94c0.129,0.935 -9.097,-5.96 -12.824,-6.841c-4.179,-0.989 -14.561,-0.031 -14.561,-0.031c-0,0 9.569,10.796 12.364,15.786c2.636,4.706 4.945,10.942 5.6,15.175l-11.087,-13.653c0.121,8.372 -1.149,13.908 -3.125,18.007c0.291,-0.964 2.212,-16.814 -0.543,-22.189c-4.404,-8.592 -10.794,-12.834 -25.894,-17.007c0,0 4.947,8.175 6.55,12.877c1.668,4.888 3.454,16.449 3.454,16.449l-11.495,-19.192c-0.161,-0.268 -1.062,-2.734 -1.359,-3.24c-1.121,-1.909 -3.103,-4.252 -4.946,-6.314c-2.645,-2.958 -9.564,-8.198 -9.564,-8.198c-0,0 -2.583,17.791 0.685,24.45c3.954,8.059 12.089,21.238 24.319,26.033c2.177,0.854 1.884,3.256 3.25,4.017c-4.897,-1.944 -9.979,-4.443 -15.992,-9.751l1.768,8.778c-0.76,3.153 -1.21,6.572 -1.492,10.134c-0.752,-1.989 -1.33,-4.982 -1.768,-8.778l-3.208,-13.125c-5.907,-4.406 -12.929,-11.522 -13.719,-18.978c0.001,-0.019 -0,-0.035 -0.005,-0.048c0.002,0.016 0.004,0.032 0.005,0.048c-0.04,0.943 -5.943,9.772 -8.015,12.799c-2.14,3.125 -3.652,12.362 -2.442,12.432c0.616,6.938 3.476,12.137 7.909,16.117c5.115,7.594 6.439,12.269 6.795,16.2c-2.906,-6.202 -6.007,-11.411 -9.891,-12.629c0.932,10.044 0.409,19.865 -4.416,29.03c0.353,-1.735 1.056,-10.078 1.187,-12.084c0.261,-3.997 -0.027,-15.434 -0.031,-15.588c0,-0 0,-0.001 0,-0.001c0,-0 0,0 0,0.001c-0.003,0.041 -0.684,-3.345 -1.523,-5.457c-1.146,-2.884 -3.528,-8.41 -5.354,-11.852c-2.503,1.496 -5.705,8.689 -7.847,15.062c-1.633,-2.114 -1.598,-5.218 -0.654,-8.861c-0,0 7.773,-18.583 8.634,-19.575c0.657,-0.758 1.137,-2.945 1.9,-4.596c1.387,-3.002 6.521,-11.073 8.879,-16.252c2.741,-6.017 5.088,-16.165 2.575,-25.807l-14.296,-26.778l-2.276,-1.541c0.214,2.915 0.62,5.744 1.365,7.49c2.904,6.814 5.419,12.948 5.495,21.524c0.067,7.496 -2.954,12.805 -6.428,19.966c-1.926,4.659 -1.861,12.113 -0.191,21.821c-2.182,-4.03 -4.051,-7 -4.051,-7c0,0 -1.57,-4.785 -1.961,-7.517l-10.791,11.907c1.405,-4.676 7.877,-10.021 10.774,-16.486c2.658,-5.931 4.482,-12.153 5.621,-18.616c0.544,-8.719 -2.587,-17.346 -6.595,-25.828c-7.353,5.285 -11.349,24.395 -14.472,42.635c-2.492,-6.65 -3.01,-15.784 0.433,-29.904c-8.191,4.912 -14.781,10.77 -16.994,19.211c-2.792,5.111 -2.074,13.767 4.155,25.302c-0.739,4.174 -7.453,-9.174 -8.451,-15.044c-0.115,-0.671 -5.691,17.55 -6.17,16.463c-1.394,-6.024 1.548,-21.019 1.548,-21.019c1.269,1.33 4.136,-8.413 4.555,-13.762c-9.703,2.422 -17.461,6.762 -21.616,14.655c-1.737,-3.644 1.686,-8.262 6.995,-13.235l15.412,-7.35c0.54,1.305 13.265,-7.574 19.451,-14.105c2.981,-3.148 8.962,-14.997 10.771,-18.649l-4.863,-3.291c-1.31,1.414 -3.665,4.006 -4.9,5.675c-6.066,14.477 -14.373,21.128 -24.063,22.95c-0,-0 6.899,-4.757 9.452,-8.499c3.199,-4.693 9.747,-19.658 9.747,-19.658c-0.465,-0.594 -22.375,4.109 -25.994,11.957c-3.222,6.987 -6.383,24.268 -9.585,21.873c0.204,-4.843 1.114,-10.619 4.179,-19.244c1.317,-2.044 -18.788,6.034 -21.703,9.411c-1.151,1.333 6.517,-10.323 10.238,-13.012c3.146,-2.274 9.421,-3.857 11.925,-5.342c1.809,-1.074 4.128,-4.762 4.128,-4.762c-10.453,-3.556 -19.986,-2.203 -28.958,2.154c-0,0 7.548,-6.508 11.761,-7.557c5.315,-1.323 12.88,0.156 20.129,-0.384c7.797,-0.58 17.81,-1.257 23.226,-3.955c1.544,-0.768 5.044,-3.352 5.044,-3.352Zm86.588,51.761c0.601,-0.026 1.205,-0.08 1.813,-0.163c-0.566,0.202 -1.174,0.249 -1.813,0.163Zm-11.929,61.916c0.14,0.056 0.279,0.111 0.419,0.165c-0.156,-0.04 -0.294,-0.095 -0.419,-0.165Z" style="fill:#201e1f;"/><path d="M377.224,79.906c7.491,4.364 16.549,9.863 22.298,16.733l4.515,-17.914l2.844,16.62c4.382,-4.013 10.703,-7.433 17.544,-10.694l-16.609,16.508l-0.875,18.09c11.006,-8.371 23.126,-13.204 36.023,-15.573c-16.676,8.273 -30.159,16.859 -34.114,26.379l-1.611,8.164c0,0 0.879,12.912 1.288,18.929c0.39,5.724 2.68,14.194 2.178,16.961c-0.211,1.162 -2.68,0.004 -4.643,-0.288c-0.369,-0.055 -1.938,0.139 -2.222,0.19c-3.326,0.596 -1.706,0.297 -4.982,0.397c-3.402,0.103 -8.228,1.167 -8.722,-1.024c-0.889,-3.935 -0.108,-21.844 -0.282,-27.76c-0.291,-9.931 -31.567,-20.506 -29.339,-22.017c8.571,1.176 18.995,5.377 31.03,12.208l0.438,-9.045c1.341,-6.558 -13.449,-16.976 -30.314,-27.008c10.063,2.311 19.81,6.759 33.218,17.258l0.756,-15.623l-18.419,-21.491Z" style="fill:#201e1f;"/><path d="M371.613,131.392l-21.406,-11.932l23.538,5.216c-11.371,-19.807 -30.384,-22.551 -50.494,-14.836c11.811,24.919 29.041,29.847 48.362,21.552Z" style="fill:#201e1f;"/><path d="M406.787,63.056l-5.539,22.036c-13.83,-15.885 -11.077,-34.011 6.992,-52.073c16.373,19.358 14.612,37.657 -0.352,53.508l-1.101,-23.471Z" style="fill:#201e1f;"/><path d="M433.301,77.738l-14.988,9.314c1.121,-18.912 13.683,-31.196 34.077,-34.043c-1.222,20.647 -10.466,33.814 -29.776,37.595l10.687,-12.866Z" style="fill:#201e1f;"/><path d="M455.016,98.011l-21.575,6.767c5.591,-15.898 18.293,-25.71 43.688,-24.659c-5.961,28.15 -21.288,34.018 -40.61,30.383l18.497,-12.491Z" style="fill:#201e1f;"/><path d="M353.909,93.979l16.143,13.044c-21.801,2.558 -35.721,-9.909 -37.487,-34.143c20.163,0.852 35.64,8.286 41.05,29.854l-19.706,-8.755Z" style="fill:#201e1f;"/><path d="M381.216,87.723l-8.279,-13.779l14.073,9.598c-1.008,-21.088 -11.847,-34.09 -30.686,-36.046c0.398,24.072 10.395,35.188 24.892,40.227Z" style="fill:#201e1f;"/><path d="M408.588,187.064c1.596,1.754 5.727,2.453 4.338,-0.338c-0.246,-0.493 0.438,-3.047 -0.522,-3.793c-0.702,-0.544 -1.234,-2.46 -2.341,-3.39c-0.528,-0.444 -2.917,-0.847 -3.553,-0.841c-0.541,0.006 -3.728,1.183 -3.498,1.517c1.561,2.26 1.582,4.131 1.031,5.122c-0.835,1.503 3.856,0.966 4.545,1.723Z" style="fill:#3c2116;"/><path d="M384.451,189.794c0.271,-0.101 3.083,-0.685 4.503,-0.749c2.192,-0.1 3.235,2.718 3.232,3.486c-0.005,1.439 -0.174,3.104 -1.382,3.87c-0.495,0.313 -1.852,2.34 -2.841,3.286c-1.105,1.056 -3.285,3.186 -3.785,3.048c-3.604,-0.99 -5.915,-10.616 0.273,-12.941Z" style="fill:#3c2116;"/><path d="M481.902,196.518c0.553,-1.013 1.825,-1.899 3.131,-2.556c1.959,-0.985 3.716,-3.34 3.716,-3.34c0.389,-0.001 1.65,4.626 1.592,6.061c-0.041,1.03 0.654,4.445 0.805,5.476c0.171,1.158 3.263,7.092 0.421,7.631c-6.296,1.193 -8.658,-6.427 -9.848,-9.749c-0,-0 -0.369,-2.51 0.183,-3.523Z" style="fill:#3c2116;"/><path d="M479.754,174.165c1.244,1.122 1.893,2.241 2.679,3.024c0.884,0.881 2.502,2.001 3.487,3.578c0.89,1.424 0.703,3.515 1.566,4.636c0.994,1.288 0.582,3.762 0.203,4.888c-0.295,0.874 -2.477,1.864 -2.477,1.864c0,0 -3.209,3.257 -4.323,2.23c-0.644,-0.594 -1.368,-1.389 -2.118,-2.594c-0.983,-1.58 -1.196,-2.453 -2.756,-3.567c-0.388,-0.276 -0.48,-3.844 -0.202,-4.888c0.623,-2.343 3.941,-9.171 3.941,-9.171Z" style="fill:#3c2116;"/><path d="M454.068,183.137c-0,0 -0.92,-5.737 -0.505,-7.872c0.077,-0.399 0.265,-2.046 0.413,-3.067c0.232,-1.605 4.156,-2.61 0.981,-6.567c-0.337,-0.419 -3.817,-4.243 -1.092,-6.559c0.688,-0.585 2.804,1.555 3.525,1.721c1.404,0.322 4.434,2.731 6.619,4.32c2.549,1.854 5.302,3.453 7.05,3.442c1.486,-0.009 4.123,1.274 6.169,3.012c0.546,0.463 0.482,1.245 -0.844,3.945c-1.294,2.636 -0.878,7.001 -2.12,8.77c-0.718,1.021 -6.735,-0.02 -8.345,-0.806c-4.55,-2.221 -11.851,-0.339 -11.851,-0.339Z" style="fill:#3c2116;"/><path d="M468.025,187.122c0,0 6.332,17.29 4.948,19.31c-1.384,2.019 -13.516,-8.024 -13.516,-8.024c0.778,-3.962 0.379,-8.58 -1.204,-13.855c3.279,-0.388 6.542,0.159 9.772,2.569Z" style="fill:#3c2116;"/><path d="M456.472,197.56c-3.161,2.144 -8.02,-1.991 -7.588,-2.8c-0,-0 1.083,-5.096 1.701,-5.951c0.854,-1.184 5.157,0.242 5.968,1.696c0.889,1.593 -0.081,7.055 -0.081,7.055" style="fill:#3c2116;"/><path d="M457.796,200.832c3.095,1.618 12.283,7.727 13.26,6.663l-16.64,4.843c-6.277,-2.29 -7.055,-4.322 -8.083,-8.651c0.2,0.702 8.782,-4.257 11.463,-2.855Z" style="fill:#3c2116;"/><path d="M454.907,230.371c-2.601,-0.362 -1.275,-6.035 0.643,-7.801c0.518,-0.477 0.525,-2.88 1.219,-2.845c3.373,0.169 17.906,-0.733 22.475,3.609c1.249,1.187 1.415,5.089 -0.626,6.035c-2.457,1.141 -5.576,0.623 -8.962,1.229c-2.143,0.384 -13.463,-0.048 -14.749,-0.227Z" style="fill:#3c2116;"/><path d="M321.79,359.472c0.223,1.435 -4.023,1.552 -5.776,0.721c-2.994,-1.42 -11.014,-4.884 -12.19,-9.24c-0.44,-1.632 -2.299,-9.892 -2.299,-9.892c0,0 -2.266,-7.595 -3.945,-9.919c-11.931,-16.519 -23.386,-28.316 -28.684,-36.53c-4.003,-6.207 -5.077,-14.266 -4.083,-20.682c0.995,-6.416 5.153,-13.846 10.189,-17.886c5.01,-4.018 12.428,-7.174 19.882,-7.046c7.407,0.127 12.278,1.911 17.199,5.222c16.277,10.953 48.551,55.539 71.877,80.872l-30.44,-1.345c0,-0 -13.312,-0.273 -19.796,2.122c-9.897,3.656 -13.421,14.022 -11.934,23.603Zm-26.651,-101.439c-11.584,-0.199 -21.15,9.016 -21.35,20.567c-0.2,11.551 9.043,21.091 20.627,21.29c11.583,0.2 21.15,-9.016 21.349,-20.567c0.2,-11.551 -9.042,-21.091 -20.626,-21.29Z" style="fill:#3c2116;"/><path d="M289.443,407.222l-0.019,-22.996c0.428,-4.219 10.706,-24.937 13.165,-21.448c7.517,10.668 26.222,10.548 27.991,9.023c2.475,-2.134 1.645,-5.747 -0.827,-11.492c-6.054,-14.076 9.359,-17.056 15.667,-17.117c13.14,-0.128 63.35,-0.032 63.35,-0.032c5.102,0.48 7.778,3.623 8.224,9.106l0.028,24.544l27.878,0.031c2.438,0.757 4.139,2.369 5.062,4.883l0.007,25.446l-160.526,0.052Zm109.84,-54.438c-3.357,0 -6.081,2.91 -6.08,6.492c0.001,3.582 2.727,6.49 6.084,6.489c3.357,-0.001 6.082,-2.91 6.081,-6.492c-0.002,-3.583 -2.728,-6.49 -6.085,-6.489Z" style="fill:#8e776a;"/><path d="M289.443,407.222l-0.019,-22.996c0.428,-4.219 10.706,-24.937 13.165,-21.448c7.517,10.668 26.222,10.548 27.991,9.023c2.475,-2.134 1.645,-5.747 -0.827,-11.492c-6.054,-14.076 9.359,-17.056 15.667,-17.117c13.14,-0.128 63.35,-0.032 63.35,-0.032c5.102,0.48 7.778,3.623 8.224,9.106l0.028,24.544l27.878,0.031c2.438,0.757 4.139,2.369 5.062,4.883l0.007,25.446l-160.526,0.052Zm109.84,-54.438c-3.357,0 -6.081,2.91 -6.08,6.492c0.001,3.582 2.727,6.49 6.084,6.489c3.357,-0.001 6.082,-2.91 6.081,-6.492c-0.002,-3.583 -2.728,-6.49 -6.085,-6.489Z" style="fill:#3c2116;"/><path d="M295.026,264.599c7.949,0.137 14.292,6.684 14.155,14.611c-0.137,7.927 -6.702,14.251 -14.652,14.114c-7.95,-0.137 -14.292,-6.683 -14.155,-14.61c0.137,-7.927 6.702,-14.252 14.652,-14.115Z" style="fill:#3c2116;"/><path d="M352.569,174.462c6.132,0.105 11.025,5.156 10.92,11.271c-0.106,6.115 -5.171,10.994 -11.303,10.888c-6.133,-0.105 -11.026,-5.156 -10.92,-11.271c0.105,-6.115 5.17,-10.994 11.303,-10.888Zm-0.085,4.924c-3.407,-0.059 -6.221,2.652 -6.28,6.049c-0.059,3.397 2.66,6.203 6.067,6.262c3.407,0.059 6.22,-2.652 6.279,-6.049c0.059,-3.398 -2.659,-6.203 -6.066,-6.262Z" style="fill:#3c2116;"/><path d="M402.217,204.832c-0.6,-0.927 -0.453,-3.478 -0.64,-4.076c-0.412,-1.316 1.102,-4.613 -0.448,-5.674c-1.465,-1.003 -2.717,-1.77 -4.363,-1.798c-0.823,-0.014 -0.809,-0.835 -0.809,-0.835c0,0 0.476,-1.257 0.852,-1.627c0.525,-0.519 3.341,-1.963 2.661,-5.006c-0.05,-0.226 3.994,1.016 3.994,1.016l4.101,0.891c0,0 5.887,2.46 6.556,1.755c1.191,-1.254 -0.695,-7.401 -0.695,-7.401l15.437,-10.622c-0,0 1.714,-0.921 4.227,-2.266c6.317,-3.378 17.68,-9.43 19.567,-10.244c0,-0 -1.205,4.268 0.19,5.426c2.652,2.201 3.257,5.945 0.18,6.97c-3.271,1.089 -1.001,5.547 -0.838,8.234c0.034,0.545 0.919,4.805 0.919,4.805l-11.748,11.478c0.346,1.386 5.644,19.721 5.866,20.49c-0.045,0.005 -0.045,0.014 0.008,0.025l-0.008,-0.025c0.492,-0.052 6.272,0.352 8.371,3.018c0.325,0.413 -1.18,3.027 -1.726,3.516c-1.318,1.177 -0.82,4.036 -1.707,5.702c-0.538,1.009 -4.979,0.742 -9.226,-1.235c-4.062,-1.891 -6.533,-3.714 -8.382,-5.181c-2.886,-2.292 -4.549,-6.961 -7.537,-9.127c-2.882,-2.089 -10.849,-9.329 -13.54,-10.249c-0.101,-0.035 -3.775,-0.051 -4.604,0.356" style="fill:#3c2116;fill-opacity:0.99;"/><path d="M400.946,205.164c-2.458,0.664 -14.917,2.541 -14.917,2.541c0,0 -6.469,0.881 -8.115,0.853c-1.646,-0.028 -5.776,0.722 -9.082,1.486c-2.606,0.602 -12.854,-0.358 -16.374,4.814c-5.699,8.375 -9.695,36.085 -15.473,45.07c-1.893,2.943 -7.561,3.86 -7.774,3.618c-2.052,-2.341 -13.008,-12.095 -16.546,-13.745c-12.428,-5.795 -23.638,-5.344 -29.276,-2.643c-0.51,0.244 -1.615,-7.557 0.559,-9.098c8.062,-5.713 38.385,-30.232 44.816,-41.876c0.155,-0.282 -0.799,-5.661 -0.17,-5.989c-0.016,-0.331 -0.021,-0.662 -0.014,-0.991c0.301,-14.269 12.744,-25.598 27.77,-25.283c3.505,0.074 11.848,2.338 15.66,5.129c3.462,2.535 19.612,8.547 19.612,8.547c-0,0 4.295,0.914 5.958,1.062c3.581,0.32 4.693,2 6.129,4.541c0.356,0.63 -0.508,1.621 -1.21,1.803c-0.846,0.219 -2.975,-1.03 -3.861,-0.49c-0.886,0.539 -0.69,2.846 -1.456,3.727c-0.767,0.881 -2.52,2.371 -3.142,1.557c-5.163,-6.765 -13.526,0.58 -15.034,3.181c-2.288,3.948 0.523,11.294 4.596,11.177c0.772,-0.023 1.402,0.091 1.846,0.417l1.101,-0.2c-0.012,-0.032 -0.022,-0.064 -0.031,-0.096c-0.165,-0.625 -0.48,-1.332 -0.084,-1.938c0.761,-1.166 3.241,-3.863 4.65,-5.056c0.891,-0.755 1.736,-2.764 2.79,-3.034c1.124,-0.288 2.222,0.015 2.916,-0.126c0.71,-0.145 1.986,0.885 1.986,0.885c-0,0 0.965,1.257 1.056,1.897c0.186,1.309 0.069,2.575 0.169,3.877c0.016,0.221 0.025,0.616 0.096,0.885c0.129,0.489 0.68,2.052 0.68,2.052c-0,0 0.639,1.319 0.169,1.446Zm-48.321,-33.985c-7.949,-0.137 -14.514,6.187 -14.651,14.114c-0.137,7.927 6.205,14.474 14.155,14.611c7.95,0.137 14.515,-6.187 14.652,-14.115c0.137,-7.927 -6.206,-14.473 -14.156,-14.61Z" style="fill:#3c2116;fill-opacity:0.99;"/></g></g></g></svg>