<?xml version="1.0" encoding="UTF-8" standalone="no"?><!DOCTYPE svg PUBLIC "-//W3C//DTD SVG 1.1//EN" "http://www.w3.org/Graphics/SVG/1.1/DTD/svg11.dtd"><svg width="100%" height="100%" viewBox="0 0 5122 4848" version="1.1" xmlns="http://www.w3.org/2000/svg" xmlns:xlink="http://www.w3.org/1999/xlink" xml:space="preserve" xmlns:serif="http://www.serif.com/" style="fill-rule:evenodd;clip-rule:evenodd;stroke-linejoin:round;stroke-miterlimit:2;"><rect id="D3.js-ML---AI---Imagination" serif:id="D3.js ML / AI - Imagination" x="-4671.9" y="-22979.3" width="66065.3" height="73423.2" style="fill:none;"/><rect id="Curtain---Left" serif:id="Curtain - Left" x="-0" y="0" width="5121.59" height="4847.56" style="fill:none;"/><clipPath id="_clip1"><rect x="-0" y="0" width="5121.59" height="4847.56"/></clipPath><g clip-path="url(#_clip1)"><g id="Curtain---Left1" serif:id="Curtain - Left"><g id="Curtain---Left---Color" serif:id="Curtain - Left - Color"><path d="M4574.1,4.455c-5.974,384.148 -3.108,765.72 -34.292,1157.21l-8.989,-1157.14l43.281,-0.073Z" style="fill:#040001;"/><path d="M206.211,12.279l-111.738,4834.82l-80.671,0.143l56.511,-4834.93l135.898,-0.035Z" style="fill:#b1011a;"/><path d="M357.885,11.92l-79.719,4834.86l-183.693,0.32l111.79,-4834.91l151.622,-0.264Z" style="fill:#df0221;"/><path d="M357.788,11.857l-79.62,4834.92l106.091,-0.19l201.421,-4835.15l-227.892,0.422Z" style="fill:#b1011a;"/><path d="M818.78,11.061l-27.488,4834.82l417.54,-0.729l142.239,-4835.06l-532.291,0.963Z" style="fill:#cb0b26;"/><path d="M1501.44,9.833c0,0 -78.43,3655.48 -96.469,4461.32c-2.757,123.169 -11.765,373.684 -11.765,373.684l-184.379,0.321l142.237,-4835.06l150.376,-0.265Z" style="fill:#b6011b;"/><path d="M2205.38,11.271l-67.064,0.11l-95.418,4832.31l20.924,-0.029l141.558,-4832.39Z" style="fill:#010000;"/><path d="M1501.45,9.833l-108.236,4835l593.537,-1.036l34.631,-4834.87l-519.932,0.904Z" style="fill:#d70220;"/><path d="M1986.75,4843.8l56.143,-0.102l97.22,-4834.98l-118.729,0.213c0,-0 -28.419,3560.03 -34.192,4365.84c-1.12,156.344 -0.442,469.027 -0.442,469.027Z" style="fill:#b1011a;"/><path d="M2063.81,4843.68c0,-0 0.576,-191.341 3.328,-285.758c23.486,-805.847 137.586,-4549.32 137.586,-4549.32l407.084,-0.684c-0,-0 -142.321,3845.26 -173.297,4651.11c-2.341,60.907 -12.56,183.99 -12.56,183.99" style="fill:#c3011d;"/><path d="M2611.8,7.909l150.951,-0.271c0,-0 4.798,3126.77 5.662,3932.57c0.322,300.647 -0.48,902.197 -0.48,902.197l-341.968,0.61c12.905,-275.857 20.868,-552.894 31.471,-828.76c16.437,-427.663 40.149,-1153.54 70.947,-1940.32c27.235,-695.758 61.191,-1439.15 83.417,-2066.03Z" style="fill:#b7011b;"/><path d="M3267.73,4841.56l140.876,-0.319l-8.4,-4834.17l-139.036,1.872l6.56,4832.62Z" style="fill:#6e0110;"/><g><path d="M4046.61,5.445l-646.406,1.623c-0,0 1.638,3139.93 3.079,3945.66c0.53,296.404 5.569,888.697 5.569,888.697l635.242,-1.195l2.516,-4834.78Z" style="fill:#e90222;"/><path d="M3679.36,14.288c-0,-0 42.244,1143.13 55.815,1378.61c0.757,13.133 4.654,278.156 8.158,354.72c0.996,21.746 2,55.786 40.85,58.578c27.015,1.941 31.981,-30.343 34.179,-48.831c7.729,-65.029 44.897,-325.607 46.945,-338.56c36.557,-231.131 89.207,-1412.69 89.207,-1412.69l-275.154,8.174Z" style="fill:#c7011d;"/></g><path d="M2762.85,7.721l56.554,-0.208l-51.654,4835.98c0,-0 -1.694,-601.257 -1.999,-902.013c-0.816,-805.962 -2.901,-3933.76 -2.901,-3933.76Z" style="fill:#1e0004;"/><path d="M2821.08,7.423c-0,-0 -5.775,180.112 -7.046,270.553c-1.568,111.653 -0.59,243.95 -2.366,399.363c-11.336,992.501 -30.173,2798.2 -36.481,3371.97c-2.906,264.285 -7.271,793.106 -7.271,793.106l105.415,-0.243c0,0 -5.902,-578.961 -9.035,-868.822c-6.164,-570.397 -24.224,-2320.62 -34.853,-3294.46c-4.386,-401.891 -8.363,-671.468 -8.363,-671.468Z" style="fill:#8c0115;"/><path d="M2815.92,6.577l444.09,0.197c-0,-0 5.727,3165.06 7.001,3970.86c0.455,288.229 0.642,863.925 0.642,863.925l-394.263,0.624l-57.47,-4835.61Z" style="fill:#c6011d;"/><g><path d="M4047.57,6.086l483.298,-1.534c-0,-0 19.89,799.065 23.064,1197.67c6.412,805.138 15.406,3633.16 15.406,3633.16l-525.016,1.283c-0,0 -1.112,-585.324 -1.131,-880.458c-0.031,-477.587 0.326,-2097.51 0.725,-2755.83c0.241,-398.007 3.654,-1194.28 3.654,-1194.28Z" style="fill:#a80119;"/><path d="M4286.91,5.564l100.344,0.122c-0,0 -19.299,2503.4 -81.731,2550.39c-74.309,55.922 -40.697,-2490.93 -18.613,-2550.51Z" style="fill:#5f010e;"/></g><path d="M585.672,11.436l-201.397,4835.15l407.017,-0.706c20.398,-1631.28 23.613,-3232.32 27.538,-4834.79l-233.158,0.347Z" style="fill:#df0221;"/><path d="M4575.73,4.576l500.21,-0.922c6.202,204.081 15.248,407.891 20.929,612.536c9.517,342.796 14.541,686.733 17.141,1029.43c5.529,728.859 5.866,1459.25 1.208,2189.53c-2.133,334.354 -6.718,669.1 -9.84,1002.93l-536.135,1.679c-15.449,-1110.08 -25.128,-3262.8 -25.128,-3262.8c0,0 6.304,-222.636 5.861,-287.362c-0.23,-33.668 -3.49,-77.395 -3.607,-107.914c-0.149,-39.119 0.881,-106.543 3.006,-144.687c4.034,-72.402 5.598,-142.606 9.637,-219.429c4.392,-83.567 3.949,-171.52 7.09,-257.098c4.243,-115.61 5.911,-232.807 4.554,-344.638c-0.893,-73.554 0.108,-144.485 5.074,-211.259Z" style="fill:#d6011f;"/><path d="M70.329,12.316l-64.951,0.145l9.774,4736.41l55.177,-4736.55Z" style="fill:#870114;"/><path id="Curtain---Split---Left" serif:id="Curtain - Split - Left" d="M5098.11,1.727l-21.204,-0.079c0,-0 0.11,28.344 0.636,56.067c0.305,16.057 1.012,32.44 1.237,41.602c0.43,17.494 1.722,37.717 1.809,52.223c0.265,43.902 4.281,97.321 4.634,158.362c0.289,50.046 4.672,105.858 4.997,166.045c0.222,41.048 4.191,85.666 5.901,131.202c1.418,37.79 -0.052,77.059 1.224,117.545c1.277,40.546 1.746,82.778 2.888,125.797c16.332,615.073 19.827,1470.98 18.06,2231.61c-0.467,201.1 -1.289,395.538 -2.292,577.092c-0.402,72.563 -0.832,143.068 -1.281,211.118c-0.465,70.603 -0.95,138.564 -1.443,203.438c-0.208,27.435 -0.418,54.317 -0.628,80.615c-0.286,35.797 -0.703,75.223 -1.114,112.016c-0.531,47.475 -1.052,90.565 -1.27,115.818c-0.119,13.691 0.181,27.7 0.056,41.115c-0.054,5.779 -0.654,12.795 -0.776,19.192c-0.185,9.736 -0.108,25.647 -0.335,39.223c-0.46,27.524 -0.691,55.307 -0.936,72.436c-0.246,17.241 -0.557,51.591 -0.557,51.591c-0.312,26.292 -0.478,48.701 -0.674,64.458c-0.139,11.137 -0.078,23.138 -0.222,33.519c-0.305,21.884 -0.548,40.309 -0.697,54.628c-0.049,4.783 -0.081,9.838 -0.133,14.368c-0.092,7.906 0.026,15.042 -0.117,21.378c-0.345,15.26 -0.297,26.106 -0.421,33.368c-0.04,2.323 0.1,8.12 0.202,6.943l18.966,0.146c0,-0 -0.773,-319.982 -1.979,-762.427c-2.011,-737.671 -5.223,-1815.76 -8.059,-2318.85c-3.288,-583.553 -16.472,-1751.56 -16.472,-1751.56Z" style="fill:#0c0002;"/></g><g id="Curtain---Left---Shadow" serif:id="Curtain - Left - Shadow"><path d="M30.05,4849.11c-5.576,0.01 -8.599,-4.701 -8.614,-13.424c-0.013,-7.392 -2.487,-13.435 -5.497,-13.43c-3.25,0.006 -4.566,-45.958 -3.239,-113.109c1.229,-62.215 2.498,-121.182 2.82,-131.038c0.321,-9.856 -1.106,-44.124 -3.172,-76.151c-2.066,-32.027 -2.153,-117.961 -0.194,-190.966c1.959,-73.005 5.78,-135.446 8.491,-138.758c2.711,-3.313 6.104,-5.075 7.542,-3.917c1.437,1.158 4.377,154.807 6.533,341.442c3.394,293.835 2.768,339.338 -4.67,339.351Z"/><path d="M836.317,4845.73l-34.17,0.06l3.369,-48.718c2.438,-35.249 1.477,-48.716 -3.475,-48.707c-3.765,0.007 -6.849,-1.981 -6.853,-4.416c-0.004,-2.436 8.029,-4.443 17.852,-4.46l17.859,-0.031l1.86,-64.216l3.538,33.976c1.946,18.687 2.747,57.047 1.779,85.244l-1.759,51.268Z"/><path d="M1162.18,4847.13c-9.292,0.016 -15.295,-3.139 -17.393,-9.142c-1.762,-5.042 -1.776,-77.111 -0.032,-160.152c1.744,-83.042 3.051,-177.641 2.903,-210.219c-0.147,-32.579 -1.901,-65.335 -3.896,-72.79c-3.059,-11.428 -1.783,-13.559 8.129,-13.576c11.218,-0.019 11.763,3.269 11.883,71.656c0.086,49.527 2.167,71.672 6.732,71.664c4.696,-0.008 6.205,30.11 5.216,104.146c-0.765,57.287 -0.55,107.18 0.477,110.874c1.028,3.694 1.486,29.396 1.019,57.115c-0.842,49.917 -0.986,50.399 -15.038,50.424Z"/><path d="M1729.61,4846.14c-3.495,0.006 -5.053,-3.519 -3.463,-7.834c1.591,-4.315 4.617,-12.383 6.725,-17.931c2.268,-5.971 1.24,-10.081 -2.522,-10.075c-3.495,0.006 -6.365,-6.037 -6.378,-13.428c-0.013,-7.392 2.656,-13.444 5.93,-13.45c3.274,-0.006 6.342,-8.578 6.818,-19.051c0.51,-11.215 2.559,-4.314 4.986,16.791c2.266,19.707 1.891,36.507 -0.833,37.333c-2.725,0.826 -4.944,7.381 -4.931,14.568c0.012,7.186 -2.837,13.07 -6.332,13.077Z"/><path d="M2331.28,4845.09c-3.402,0.006 -5.977,-13.428 -6.008,-31.347c-0.032,-17.92 2.496,-31.363 5.898,-31.369c3.402,-0.006 5.977,13.429 6.008,31.348c0.031,17.919 -2.497,31.363 -5.898,31.368Z"/><path d="M2687.07,4844.47l-36.098,0.063l3.682,-70.562c2.026,-38.81 5.4,-95.261 7.499,-125.447c2.1,-30.186 6.102,-54.888 8.894,-54.893c2.793,-0.005 5.053,-14.12 5.023,-31.367c-0.031,-17.919 2.496,-31.363 5.898,-31.369c3.775,-0.007 6.323,38.109 6.964,104.143c0.555,57.284 1.626,113.223 2.378,124.309c0.752,11.086 0.106,34.774 -1.436,52.64l-2.804,32.483Z"/><path d="M2996.27,4836.09c-1.409,5.546 -2.578,1.013 -2.597,-10.075c-0.02,-11.087 1.133,-15.625 2.562,-10.084c1.429,5.542 1.444,14.613 0.035,20.159Z"/><path d="M3013.58,4833.69c-1.224,0.925 -3.378,-11.653 -4.786,-27.95c-1.407,-16.298 -5.681,-31.078 -9.497,-32.845c-4.938,-2.286 -5.814,-14.789 -3.038,-43.365c2.145,-22.085 4.905,-36.628 6.132,-32.319c1.228,4.31 5.743,7.83 10.033,7.823c6.174,-0.011 7.34,13.224 5.591,63.48c-1.215,34.922 -3.211,64.252 -4.435,65.176Z"/><path d="M2337.54,4728.61c-2.994,0.006 -6.513,-12.588 -7.818,-27.985c-1.306,-15.397 -4.707,-31.868 -7.559,-36.602c-4.569,-7.587 -3.647,-7.455 7.772,1.106c10.422,7.815 12.966,14.972 13.004,36.593c0.025,14.783 -2.404,26.883 -5.399,26.888Z"/><path d="M2330.84,4589.75c-3.976,4.646 -5.807,-4.712 -5.915,-30.228c-0.091,-21.698 2.303,-36.962 5.798,-36.968c3.389,-0.006 5.936,13.009 5.914,30.228c-0.021,16.631 -2.63,33.267 -5.797,36.968Z"/><path d="M811.042,4508.4c-1.235,10.473 -2.275,1.908 -2.312,-19.035c-0.036,-20.943 0.974,-29.513 2.246,-19.043c1.272,10.469 1.301,27.604 0.066,38.078Z"/><path d="M824.572,4525.18c-3.472,0.006 -5.979,-14.922 -6.015,-35.827c-0.037,-20.906 2.417,-35.843 5.89,-35.849c3.473,-0.006 5.979,14.922 6.016,35.828c0.036,20.905 -2.418,35.842 -5.891,35.848Z"/><path d="M1157.67,4370.05c-3.278,1.531 -8.572,-2.363 -11.764,-8.654c-3.192,-6.291 -4.428,-31.105 -2.745,-55.142c1.683,-24.037 4.38,-50.314 5.994,-58.393c1.615,-8.079 5.481,-13.51 8.592,-12.07c3.147,1.457 5.707,31.213 5.77,67.047c0.067,38.2 -2.314,65.561 -5.847,67.212Z"/><path d="M572.481,4289.31c-1.307,8.01 -2.399,1.46 -2.427,-14.555c-0.028,-16.015 1.041,-22.569 2.376,-14.563c1.334,8.005 1.357,21.108 0.051,29.118Z"/><path d="M1167.67,4216.6c-1.307,8.01 -2.399,1.46 -2.427,-14.555c-0.028,-16.015 1.041,-22.569 2.376,-14.564c1.335,8.006 1.357,21.109 0.051,29.119Z"/><path d="M1149.76,4214.47c-1.347,6.734 -2.442,0.148 -2.435,-14.635c0.008,-14.783 1.11,-20.293 2.449,-12.243c1.339,8.049 1.332,20.145 -0.014,26.878Z"/><path d="M1151.37,4165.52c-8.186,0.015 -11.536,-0.996 -7.446,-2.246c4.091,-1.25 10.788,-1.262 14.883,-0.026c4.095,1.236 0.748,2.258 -7.437,2.272Z"/><path d="M1149.76,4096.14c-9.756,1.938 -10.43,-6.872 -10.661,-139.371c-0.136,-77.792 1.656,-140.014 3.981,-138.27c2.325,1.743 4.449,55.58 4.719,119.636c0.301,71.682 2.764,117.684 6.404,119.632c3.253,1.741 5.927,10.622 5.943,19.735c0.021,12.013 -2.835,17.139 -10.386,18.638Z"/><path d="M25.74,3890.45c-3.275,0.006 -5.961,-4.021 -5.969,-8.949c-0.009,-4.928 2.663,-8.964 5.937,-8.97c3.275,-0.006 5.961,4.022 5.969,8.949c0.009,4.928 -2.663,8.965 -5.937,8.97Z"/><path d="M25.684,3738.13c-3.453,0.006 -5.757,-28.569 -5.779,-71.666c-0.02,-42.215 2.289,-71.681 5.619,-71.687c3.333,-0.005 5.704,29.405 5.778,71.667c0.075,43.05 -2.169,71.68 -5.618,71.686Z"/><path d="M24.864,3388.71c-3.274,0.006 -5.957,-2.006 -5.961,-4.47c-0.004,-2.463 2.671,-4.484 5.945,-4.49c3.275,-0.005 5.957,2.006 5.961,4.47c0.005,2.464 -2.671,4.484 -5.945,4.49Z"/><path d="M24.833,3370.79c-3.402,0.006 -5.977,-13.429 -6.008,-31.348c-0.031,-17.919 2.496,-31.363 5.898,-31.369c3.402,-0.006 5.977,13.429 6.008,31.348c0.031,17.919 -2.497,31.363 -5.898,31.369Z"/><path d="M34.63,3221.82c-1.49,4.314 -2.722,0.789 -2.737,-7.835c-0.015,-8.623 1.204,-12.153 2.709,-7.844c1.505,4.309 1.517,11.365 0.028,15.679Z"/><path d="M24.098,2949.7c-3.473,0.006 -5.979,-14.922 -6.016,-35.828c-0.036,-20.905 2.418,-35.842 5.891,-35.848c3.472,-0.006 5.979,14.922 6.015,35.828c0.037,20.905 -2.418,35.842 -5.89,35.848Z"/><path d="M35.914,2741.37c-3.755,18.302 -4.742,12.97 -5.391,-29.109c-0.535,-34.718 1.091,-49.328 4.988,-44.807c3.181,3.69 5.607,16.79 5.392,29.109c-0.215,12.32 -2.46,32.483 -4.989,44.807Z"/><path d="M32.511,2654.01c-6.912,0.012 -8.919,-5.802 -8.883,-25.743c0.025,-14.167 2.306,-28.452 5.069,-31.743c4.007,-4.774 5.796,-4.476 8.841,1.471c2.1,4.1 3.837,18.377 3.861,31.727c0.032,18.589 -2.049,24.276 -8.888,24.288Z"/><path d="M35.913,2447.94c-2.842,0.005 -5.654,-16.117 -6.247,-35.827c-0.672,-22.291 1.258,-35.84 5.105,-35.847c3.763,-0.007 6.21,14.026 6.248,35.827c0.034,19.711 -2.263,35.843 -5.106,35.847Z"/><path d="M38.721,2304.58c-1.161,0.002 -3.722,-26.704 -5.692,-59.347c-1.969,-32.643 -1.513,-79.514 1.013,-104.157c3.929,-38.319 4.753,-29.728 5.692,59.347c0.603,57.284 0.147,104.155 -1.013,104.157Z"/><path d="M38.097,2017.88c-1.229,0.002 -3.642,-79.118 -5.363,-175.822c-1.721,-96.704 -0.857,-177.745 1.92,-180.09c2.778,-2.347 5.19,76.72 5.363,175.822c0.172,99.047 -0.692,180.088 -1.92,180.09Z"/><path d="M36.859,1525.1c-1.436,0.002 -4.103,-8.561 -5.926,-19.029c-1.822,-10.468 -1.165,-63.387 1.461,-117.596l4.775,-98.564l1.151,117.592c0.633,64.676 -0.024,117.594 -1.461,117.597Z"/><path d="M2042.72,1219.22c-1.034,4.93 -2.276,-9.683 -2.762,-32.473c-0.486,-22.79 1.214,-41.441 3.777,-41.445c2.562,-0.004 3.805,14.609 2.761,32.474c-1.044,17.865 -2.743,36.515 -3.776,41.444Z"/><path d="M33.095,1144.33c-3.361,0.006 -5.699,-23.962 -5.682,-58.227c0.018,-33.168 2.432,-58.241 5.61,-58.247c3.185,-0.005 5.624,24.988 5.682,58.228c0.059,34.195 -2.257,58.241 -5.61,58.246Z"/><path d="M2046.11,834.104l-4.497,179.046l-4.51,-203.822c-2.48,-112.102 -4.853,-338.382 -5.271,-502.845l-0.762,-299.024l36.29,-0.063l0.703,81.754c0.386,44.965 0.531,95.867 0.322,113.114c-0.21,17.248 -1.739,124.987 -3.398,239.422c-1.805,124.433 -5.301,209.13 -8.699,210.717c-3.323,1.553 -7.548,76.973 -10.178,181.701Z"/><path d="M3035.18,1004.32c-1.195,1.029 -2.193,-9.301 -2.217,-22.955c-0.024,-13.654 -1.728,-31.122 -3.788,-38.818c-2.89,-10.796 -1.664,-13.996 5.366,-14.009c7.702,-0.013 8.624,5.698 5.961,36.948c-1.732,20.33 -4.127,37.806 -5.322,38.834Z"/><path d="M3037.07,874.78c-5.522,0.009 -7.741,-33.036 -9.253,-137.737l-2.121,-146.709c-0.073,-4.928 0.315,-22.812 0.863,-39.742c0.548,-16.931 -1.539,-32.047 -4.638,-33.591c-3.199,-1.594 -6.568,-51.205 -7.795,-114.798c-1.189,-61.594 -2.375,-126.101 -2.636,-143.348c-0.261,-17.247 0.063,-81.252 0.721,-142.234l1.195,-110.877l54.65,-0.095l-3.277,70.562c-1.802,38.809 -4.701,78.629 -6.443,88.487c-2.506,14.184 -1.882,16.053 2.993,8.954c5.057,-7.363 5.612,-6.261 3.097,6.155c-1.686,8.318 -3.01,46.238 -2.944,84.265c0.07,40.212 -2.139,68.094 -5.281,66.64c-2.972,-1.376 -4.477,1.028 -3.345,5.341c1.132,4.313 3.538,14.491 5.348,22.618c2.219,9.967 1.193,13.806 -3.154,11.793c-4.559,-2.11 -5.648,18.746 -3.723,71.328c1.703,46.521 0.531,74.865 -3.134,75.791c-3.722,0.94 -5.49,66.234 -4.856,179.331c0.769,137.263 -0.661,177.856 -6.267,177.866Z"/><path d="M35.99,871.058c-1.287,0.002 -3.972,-3.182 -5.966,-7.076c-1.994,-3.893 -3.447,-18.506 -3.229,-32.472c0.219,-13.966 2.526,-34.469 5.129,-45.561c3.722,-15.866 4.91,-8.941 5.568,32.469c0.461,28.95 -0.216,52.638 -1.502,52.64Z"/><path d="M546.91,731.293c-0.452,0.001 -2.609,-1.339 -4.795,-2.978c-2.185,-1.639 -4.005,-20.787 -4.043,-42.551c-0.041,-23.394 2.365,-39.575 5.884,-39.581c3.402,-0.006 5.93,-13.45 5.899,-31.369c-0.03,-17.247 -2.293,-31.355 -5.029,-31.35c-2.735,0.005 -8.212,-45.847 -12.171,-101.893c-3.958,-56.047 -7.134,-166.942 -7.058,-246.433c0.076,-79.492 -1.5,-146.518 -3.502,-148.947c-2.001,-2.429 -0.802,-4.421 2.665,-4.427c3.912,-0.006 6.281,-13.612 6.242,-35.849c-0.047,-27.183 1.888,-35.841 8.012,-35.852c6.064,-0.011 9.032,11.978 11.917,48.137c2.113,26.483 5.779,146.926 8.146,267.652c2.93,149.414 2.153,243.107 -2.436,293.43c-3.707,40.66 -7.229,82.496 -7.826,92.969c-0.596,10.472 -1.454,19.041 -1.905,19.042Z"/><path d="M541.705,282.205c1.268,-9.242 1.241,-24.361 -0.059,-33.598c-1.301,-9.238 -2.338,-1.676 -2.306,16.803c0.032,18.479 1.096,26.037 2.365,16.795Z"/><path d="M547.516,206.157c1.263,-9.177 1.252,-25.304 -0.024,-35.838c-1.276,-10.535 -2.309,-3.027 -2.296,16.684c0.012,19.711 1.056,28.33 2.32,19.154Z"/><path d="M35.996,727.705c-1.146,0.002 -3.345,-44.848 -4.888,-99.666c-1.543,-54.819 -1.196,-119.832 0.77,-144.474c2.221,-27.835 4.072,9.915 4.888,99.666c0.722,79.459 0.376,144.472 -0.77,144.474Z"/><path d="M161.347,639.011c-1.235,10.473 -2.276,1.908 -2.312,-19.035c-0.037,-20.943 0.974,-29.512 2.245,-19.043c1.272,10.469 1.302,27.604 0.067,38.078Z"/><path d="M160.862,573.667c-2.191,1.654 -4.036,-27.398 -4.101,-64.562c-0.066,-38.042 -2.56,-68.218 -5.707,-69.053c-3.466,-0.92 -3.836,-66.165 -0.976,-171.723c2.537,-93.632 3.418,-189.892 1.957,-213.913c-2.249,-36.971 -1.266,-43.675 6.407,-43.689c8.039,-0.014 8.913,31.643 7.733,279.958c-0.731,153.985 -3.122,281.327 -5.313,282.982Z"/><path d="M34.608,369.326c-1.009,0.001 -3.465,-3.183 -5.46,-7.077c-1.994,-3.894 -3.747,-76.463 -3.895,-161.265c-0.148,-84.802 1.741,-154.186 4.196,-154.186c2.456,-0 5.034,72.568 5.729,161.262c0.695,88.694 0.438,161.264 -0.57,161.266Z"/><path d="M2912.68,279.187c-3.274,0.005 -5.958,-3.014 -5.965,-6.71c-0.006,-3.695 2.668,-6.724 5.942,-6.73c3.274,-0.005 5.958,3.014 5.965,6.71c0.006,3.695 -2.667,6.724 -5.942,6.73Z"/><path d="M2934.13,277.936c-1.975,1.492 -3.387,-1.152 -3.137,-5.874c0.277,-5.22 1.686,-6.284 3.592,-2.713c1.726,3.231 1.521,7.095 -0.455,8.587Z"/><path d="M2900.7,238.889c-3.275,0.006 -5.957,-2.005 -5.961,-4.469c-0.005,-2.464 2.671,-4.484 5.945,-4.49c3.274,-0.006 5.957,2.005 5.961,4.469c0.004,2.464 -2.671,4.485 -5.945,4.49Z"/><path d="M983.755,224.316c-3.445,0.006 -5.979,-14.274 -6.013,-33.882c-0.032,-18.641 -2.835,-37.781 -6.227,-42.534c-3.994,-5.595 -4.77,-31.545 -2.202,-73.618c3.052,-50.004 5.816,-64.98 11.993,-64.991c4.949,-0.009 8.294,5.568 8.724,14.544c0.383,8.007 0.173,37.742 -0.468,66.078c-0.65,28.73 -3.82,52.762 -7.166,54.329c-3.927,1.84 -3.722,3.866 0.593,5.864c3.925,1.816 6.62,17.455 6.657,38.626c0.036,20.729 -2.422,35.578 -5.891,35.584Z"/><path d="M1126.49,143.431c-3.401,0.006 -5.976,-13.429 -6.007,-31.348c-0.032,-17.919 2.496,-31.363 5.898,-31.369c3.402,-0.006 5.977,13.429 6.008,31.348c0.031,17.919 -2.497,31.363 -5.899,31.369Z"/><path d="M4543.54,101.629c-3.274,0.006 -5.96,-4.021 -5.969,-8.949c-0.008,-4.928 2.664,-8.964 5.938,-8.97c3.274,-0.006 5.96,4.021 5.969,8.949c0.008,4.928 -2.664,8.964 -5.938,8.97Z"/><path d="M4186.33,93.293c-3.274,0.006 -5.957,-2.125 -5.961,-4.734c-0.005,-2.609 2.673,-3.503 5.95,-1.986c3.276,1.517 5.959,3.647 5.961,4.734c0.002,1.086 -2.675,1.98 -5.95,1.986Z"/><path d="M4454.12,34.588c-3.274,0.006 -5.965,-7.045 -5.98,-15.668c-0.015,-8.624 2.652,-15.684 5.926,-15.69c3.274,-0.006 5.965,7.045 5.98,15.669c0.015,8.623 -2.651,15.684 -5.926,15.689Z"/><path d="M30.906,28.869c-3.274,0.006 -5.96,-4.021 -5.969,-8.949c-0.008,-4.928 2.664,-8.964 5.938,-8.97c3.274,-0.006 5.96,4.021 5.969,8.949c0.008,4.928 -2.664,8.964 -5.938,8.97Z"/></g></g></g></svg>