<?xml version="1.0" encoding="UTF-8" standalone="no"?><!DOCTYPE svg PUBLIC "-//W3C//DTD SVG 1.1//EN" "http://www.w3.org/Graphics/SVG/1.1/DTD/svg11.dtd"><svg width="100%" height="100%" viewBox="0 0 490704 527647" version="1.1" xmlns="http://www.w3.org/2000/svg" xmlns:xlink="http://www.w3.org/1999/xlink" xml:space="preserve" xmlns:serif="http://www.serif.com/" style="fill-rule:evenodd;clip-rule:evenodd;stroke-linecap:round;stroke-linejoin:round;stroke-miterlimit:1.5;"><rect id="Desert-Grass" serif:id="Desert Grass" x="-3.33165e+06" y="-129028" width="5.06326e+06" height="3.53929e+06" style="fill:none;"/><rect id="Grass---V3" serif:id="Grass - V3" x="0" y="0" width="490704" height="527647" style="fill:none;"/><clipPath id="_clip1"><rect x="0" y="0" width="490704" height="527647"/></clipPath><g clip-path="url(#_clip1)"><g><path d="M359857,521422c958.64,-645.926 1659.31,-3507.64 2052.93,-8597.45c412.587,-5089.81 442.706,-12401.6 52.766,-21951.7c-113.004,-2386.44 -250.494,-4912.88 -414.31,-7577.07c-86.679,-1333.16 -175.197,-2701.24 -265.555,-4106.35c-114.959,-1401.1 -231.756,-2837.1 -352.233,-4310.15c-252.449,-2941.95 -534.903,-6025.8 -843.796,-9249.65c-331.541,-3221.85 -736.425,-6577.3 -1150.85,-10076.8c-1732.77,-13983.6 -4230.25,-30195.3 -8238.4,-48431.4c-4023.09,-18217.5 -9569.96,-38492.4 -17764.9,-60090.2c-508.577,-1351.62 -1018.99,-2709.4 -1533.2,-4077.6c-525.476,-1361.92 -1114.98,-2703.25 -1674.37,-4069.31c-1139.58,-2717.81 -2292.27,-5470.41 -3460.02,-8254.01c-1199.71,-2765.03 -2531.39,-5499.16 -3817.78,-8293.07c-651.7,-1392.81 -1307.19,-2793.78 -1966.37,-4203.04c-322.114,-709.841 -674.232,-1401.1 -1035.89,-2090.22c-357.866,-693.391 -717.687,-1386.66 -1077.39,-2082.06c-1444.57,-2775.32 -2904.32,-5583.54 -4380.96,-8422.65c-749.646,-1413.4 -1567.12,-2804.2 -2354.35,-4215.47c-397.412,-703.562 -796.663,-1409.26 -1197.87,-2116.97c-414.426,-697.409 -830.691,-1394.82 -1246.84,-2094.36c-3292.41,-5632.89 -6927.52,-11150.6 -10749.1,-16658.1c-7701.54,-10961.4 -16450.3,-21641 -26365,-31600.5c-4936.61,-5001.28 -10185.9,-9792.74 -15721.5,-14335.4c-5533.65,-4548.61 -11349.9,-8860.89 -17456.1,-12837.7c-12236.9,-7887.73 -25643.6,-14471.1 -40014.6,-18764.8c-14350.2,-4297.72 -29676.2,-6241.78 -45184.7,-4927.32c0,-0 1467.22,26.871 4220.88,74.085c1376.8,-10.296 3071.93,123.56 5064.68,257.165c994.507,82.373 2068.05,98.697 3205.68,253.147c1139.53,131.596 2348.72,271.48 3627.58,419.651c5102.38,689.122 11287.7,1756.96 18250.9,3736.18c6953.85,1987.25 14702.5,4770.86 22850.4,8731.05c8149.82,3941.86 16712.1,8992.74 25342.2,15175c1066.07,796.107 2139.67,1598.49 3218.9,2404.89c540.535,403.327 1082.97,808.663 1625.4,1213.75c534.902,425.929 1069.86,849.85 1606.6,1277.79c1071.7,855.626 2150.99,1717.78 3235.86,2583.95c1064.17,903.091 2133.98,1810.33 3209.47,2723.84c536.742,458.829 1075.44,915.523 1616.03,1376.36c529.212,477.287 1060.38,954.574 1591.49,1436.01c1062.33,960.727 2130.24,1927.73 3203.84,2898.76c1049.11,1006.06 2101.96,2018.27 3160.5,3036.63c529.212,510.187 1058.48,1020.37 1587.75,1532.69c519.843,528.645 1039.69,1057.42 1561.43,1588.19c16744.1,16880.3 32284.7,38109.8 44578.2,61752.5c6091.2,11860.5 11559,24148.9 16410.8,36540.2c4704.91,12469.4 8859.86,24984.1 12400.8,37295.1c894.723,3073.55 1678.28,6161.66 2512.65,9198.29c408.678,1522.4 817.356,3034.5 1222.36,4542.45c399.252,1508.08 745.852,3026.33 1116.94,4528.26c730.792,3005.74 1454,5980.59 2167.89,8918.4c651.586,2958.4 1297.65,5879.89 1932.45,8764.2c1318.35,5752.31 2348.6,11420.2 3450.48,16874.2c559.389,2723.84 992.553,5433.36 1480.44,8074.95c472.709,2647.74 934.153,5244.13 1388.12,7789.03c3435.42,20400.3 5656.08,37541.9 7112.03,49550.5c760.911,5999.18 1263.74,10729 1642.41,13948.7c369.132,3219.71 565.021,4937.49 565.021,4937.49Z" style="fill:url(#_Linear2);"/><path d="M359857,521422c-1077.39,-333.26 -2401.49,-2878.16 -3928.94,-7634.71c-1510.56,-4760.57 -3294.26,-11714.3 -5294.53,-20855c-514.095,-2281.59 -1041.53,-4701.05 -1582.06,-7256.24c-263.715,-1277.54 -536.857,-2590.11 -815.517,-3935.58c-286.362,-1343.46 -580.196,-2717.69 -881.502,-4129.08c-597.095,-2818.52 -1205.46,-5774.91 -1825.08,-8867.04c-646.068,-3081.84 -1320.3,-6297.4 -2022.93,-9648.83c-2817.64,-13384.9 -6081.77,-28876.6 -10396.7,-46225.9c-4328.31,-17337 -9713.2,-36542.2 -17115.3,-57057.7c-457.65,-1285.82 -917.255,-2577.8 -1380.54,-3880.08c-470.871,-1296.12 -1000.14,-2567.51 -1501.13,-3863.63c-1011.41,-2590.23 -2037.99,-5211.23 -3073.88,-7863.12c-1062.22,-2637.45 -2241.35,-5235.84 -3369.55,-7910.33c-570.655,-1333.16 -1145.1,-2672.48 -1721.51,-4022.1c-280.614,-680.959 -589.508,-1343.46 -907.828,-2001.82c-314.527,-660.366 -627.214,-1324.88 -943.58,-1989.39c-1256.27,-2668.34 -2529.55,-5367.57 -3814.1,-8093.54c-649.746,-1357.78 -1350.42,-2674.49 -2030.4,-4026.11c-339.013,-672.798 -681.819,-1347.61 -1024.63,-2024.42c-357.866,-666.519 -717.572,-1335.17 -1075.44,-2005.84c-2825.22,-5402.6 -5963.13,-10739.3 -9255.43,-16117.1c-6646.79,-10704.2 -14220.3,-21342.6 -22880.6,-31534.6c-4311.29,-5118.56 -8918.26,-10095.2 -13802.2,-14905.3c-4881.95,-4816.19 -10038.9,-9475.93 -15499.2,-13890.9c-10943,-8764.2 -23082,-16598.4 -36471.7,-22575c-13372.7,-5972.3 -28022.4,-10048 -43546.1,-11119.9c0,-0 1467.22,26.871 4220.88,74.085c1376.8,-10.296 3071.93,123.56 5064.68,257.165c994.507,82.373 2068.05,98.697 3205.68,253.147c1139.53,131.596 2348.72,271.48 3627.58,419.651c5102.38,689.122 11287.7,1756.96 18250.9,3736.18c6953.85,1987.25 14702.5,4770.86 22850.4,8731.05c8149.82,3941.86 16712.1,8992.74 25342.2,15175c1066.07,796.107 2139.67,1598.49 3218.9,2404.89c540.535,403.327 1082.97,808.663 1625.4,1213.75c534.902,425.929 1069.86,849.85 1606.6,1277.79c1071.7,855.626 2150.99,1717.78 3235.86,2583.95c1064.17,903.091 2133.98,1810.33 3209.47,2723.84c536.742,458.829 1075.44,915.523 1616.03,1376.36c529.212,477.287 1060.38,954.574 1591.49,1436.01c1062.33,960.727 2130.24,1927.73 3203.84,2898.76c1049.11,1006.06 2101.96,2018.27 3160.5,3036.63c529.212,510.187 1058.48,1020.37 1587.75,1532.69c519.843,528.645 1039.69,1057.42 1561.43,1588.19c16744.1,16880.3 32284.7,38109.8 44578.2,61752.5c6091.2,11860.5 11559,24148.9 16410.8,36540.2c4704.91,12469.4 8859.86,24984.1 12400.8,37295.1c894.723,3073.55 1678.28,6161.66 2512.65,9198.29c408.678,1522.4 817.356,3034.5 1222.36,4542.45c399.252,1508.08 745.852,3026.33 1116.94,4528.26c730.792,3005.74 1454,5980.59 2167.89,8918.4c651.586,2958.4 1297.65,5879.89 1932.45,8764.2c1318.35,5752.31 2348.6,11420.2 3450.48,16874.2c559.389,2723.84 992.553,5433.36 1480.44,8074.95c472.709,2647.74 934.153,5244.13 1388.12,7789.03c3435.42,20400.3 5656.08,37541.9 7112.03,49550.5c760.911,5999.18 1263.74,10729 1642.41,13948.7c369.132,3219.71 565.021,4937.49 565.021,4937.49Z" style="fill:url(#_Linear3);"/><path d="M350826,522850c542.375,63.789 1282.59,-357.997 2228.13,-1291.98c472.71,-466.99 996.347,-1061.56 1570.8,-1787.85c561.343,-734.452 1135.79,-1621.09 1774.27,-2635.44c2516.33,-4063.16 5569.4,-10488.1 8144.13,-19643.2c1245,-4577.61 2408.96,-9821.62 3211.37,-15730.3c792.984,-5904.5 1273.28,-12465.3 1252.47,-19602.2c-24.486,-7132.69 -529.27,-14845.6 -1721.51,-23000.8c-1199.71,-8147.03 -3039.85,-16744.6 -5674.93,-25619.8c-2670.72,-8852.6 -6089.24,-18009.8 -10506.1,-27179.2c-2209.28,-4581.63 -4618.23,-9200.3 -7338.04,-13749c-657.333,-1154.23 -1369.27,-2277.44 -2077.42,-3413.09c-706.306,-1137.78 -1412.61,-2289.87 -2169.84,-3376.17c-1497.34,-2203.36 -3011.69,-4433.46 -4546.73,-6692.44c-6337.9,-8817.69 -13559.1,-17425.4 -21612.9,-25632.1c-8051.93,-8212.83 -16932.5,-16024.5 -26515.7,-23404c-9585.02,-7387.84 -19872.6,-14347.7 -30746,-20993c-10886.5,-6647.11 -22304.2,-12987.8 -34305.7,-19219.4c-12012.8,-6211.01 -24799.8,-12158.7 -38500.3,-16415.4c-6848.32,-2112.82 -13924.5,-3777.24 -21174.1,-4692.76c-7245.78,-915.522 -14662.9,-1071.86 -22068.8,-199.529c0,0 1405.08,-6.153 4040.05,-18.584c659.23,14.44 1395.65,-43.196 2205.6,26.746c807.986,49.474 1691.33,102.966 2646.29,160.477c953.007,74.086 1981.43,78.229 3070.03,224.266c1090.56,131.722 2248.88,271.605 3471.29,421.786c4880.11,697.409 10799.9,1785.71 17429.7,3857.47c6633.63,2024.42 13996.2,4867.55 21831.4,8550.23c7840.93,3674.39 16135.8,8218.98 24788.5,13294.3c8648.97,5087.8 17689.7,10646.6 26920.6,16656.1c18435.6,12033.3 37637.7,26107.4 54894.1,43170.8c8624.43,8519.34 16734.8,17775.3 23963.6,27675.1c900.241,1240.49 1826.92,2450.22 2699,3707.17c855.062,1277.66 1706.45,2553.19 2555.88,3822.57c845.636,1275.53 1704.49,2532.6 2533.23,3812.27c802.411,1302.27 1602.87,2602.41 2399.65,3896.53c3128.37,5233.83 5957.39,10619.9 8500.16,16071.8c5085.31,10905.8 9006.78,22081.2 11813.1,32997.4c2761.19,10934.7 4467.64,21593.6 5124.97,31522.2c726.998,9926.59 387.985,19098.1 -431.325,27123.7c-879.548,8029.75 -2318.6,14905.3 -3804.67,20439.5c-393.619,1374.23 -723.205,2695.08 -1111.19,3904.81c-386.146,1209.73 -749.646,2345.38 -1088.66,3398.65c-713.893,2092.35 -1380.65,3845.17 -1906.13,5270.88c-1152.69,2797.93 -1768.52,4291.57 -1768.52,4291.57Z" style="fill:url(#_Linear4);stroke:#1e0d0f;stroke-width:0.88px;"/><path d="M350826,522850c-371.086,-491.728 -542.49,-1460.74 -521.797,-2878.16c11.381,-709.841 69.665,-1530.68 177.036,-2460.65c94.266,-938.125 199.683,-2005.84 365.454,-3172.37c630.893,-4678.32 1732.77,-11228.9 2501.27,-19752.2c346.486,-4271.1 653.54,-9021.37 691.247,-14273.8c26.325,-5252.29 -167.61,-10994.3 -728.953,-17197c-566.861,-6198.7 -1478.48,-12860.4 -2913.74,-19908.7c-1444.57,-7044.28 -3367.71,-14479.5 -5900.94,-22190.3c-2570.93,-7692.35 -5707.01,-15682.9 -9633.99,-23733.3c-1966.37,-4019.96 -4077.81,-8091.4 -6445.27,-12105.3c-570.77,-1022.38 -1190.4,-2009.98 -1802.55,-3015.91c-610.201,-1006.06 -1216.72,-2022.41 -1894.75,-3016.04c-1318.46,-2007.97 -2651.98,-4042.69 -4004.24,-6102.02c-5592.16,-8081.23 -11950.8,-16154.2 -19117.4,-24099.5c-7164.8,-7947.38 -15133.7,-15767.3 -23850.5,-23438.9c-17416.6,-15368.2 -37869.3,-30076 -60376.9,-45129.4c-11231.2,-7476.24 -22999.2,-14788 -35774.9,-20741.8c-6386.87,-2962.55 -13029.9,-5556.92 -19961.1,-7505.12c-6925.57,-1948.33 -14146.8,-3238.3 -21584.7,-3557.11c0,0 1405.08,-6.153 4040.05,-18.584c659.23,14.44 1395.65,-43.196 2205.6,26.746c807.986,49.474 1691.33,102.966 2646.29,160.477c953.007,74.086 1981.43,78.229 3070.03,224.266c1090.56,131.722 2248.88,271.605 3471.29,421.786c4880.11,697.409 10799.9,1785.71 17429.7,3857.47c6633.63,2024.42 13996.2,4867.55 21831.4,8550.23c7840.93,3674.39 16135.8,8218.98 24788.5,13294.3c8648.97,5087.8 17689.7,10646.6 26920.6,16656.1c18435.6,12033.3 37637.7,26107.4 54894.1,43170.8c8624.43,8519.34 16734.8,17775.3 23963.6,27675.1c900.241,1240.49 1826.92,2450.22 2699,3707.17c855.062,1277.66 1706.45,2553.19 2555.88,3822.57c845.636,1275.53 1704.49,2532.6 2533.23,3812.27c802.411,1302.27 1602.87,2602.41 2399.65,3896.53c3128.37,5233.83 5957.39,10619.9 8500.16,16071.8c5085.31,10905.8 9006.78,22081.2 11813.1,32997.4c2761.19,10934.7 4467.64,21593.6 5124.97,31522.2c726.998,9926.59 387.985,19098.1 -431.325,27123.7c-879.548,8029.75 -2318.6,14905.3 -3804.67,20439.5c-393.619,1374.23 -723.205,2695.08 -1111.19,3904.81c-386.146,1209.73 -749.646,2345.38 -1088.66,3398.65c-713.893,2092.35 -1380.65,3845.17 -1906.13,5270.88c-1152.69,2797.93 -1768.52,4291.57 -1768.52,4291.57Z" style="fill:url(#_Linear5);"/><path d="M329680,521422c1022.79,-76.095 2441.03,-1968.79 4239.79,-5836.57c233.481,-481.431 446.384,-999.904 646.067,-1555.3c207.156,-553.508 418.105,-1137.78 632.847,-1752.82c431.21,-1234.47 877.594,-2594.38 1340.99,-4081.74c248.655,-740.73 418.104,-1530.68 621.581,-2345.37c193.935,-820.844 393.618,-1668.43 600.774,-2549.05c403.045,-1763.11 847.59,-3655.81 1130.16,-5700.82c1391.8,-8136.73 2222.49,-18538.5 1292.02,-30935.9c-141.284,-1547.13 -286.247,-3125.03 -435.119,-4733.94c-82.885,-804.394 -141.284,-1621.09 -250.494,-2437.92c-116.798,-814.69 -237.275,-1637.54 -357.867,-2468.68c-250.494,-1662.41 -504.783,-3355.58 -762.75,-5081.65c-327.747,-1709.62 -689.407,-3445.99 -1051.07,-5217.38c-184.508,-884.633 -369.132,-1777.55 -555.595,-2676.5c-210.949,-894.929 -455.811,-1785.84 -685.613,-2691.07c-474.549,-1804.17 -947.374,-3645.51 -1459.63,-5505.31c-1182.81,-3659.95 -2305.38,-7492.82 -3844.22,-11280.4c-736.425,-1907.14 -1444.57,-3865.64 -2339.29,-5764.61c-868.282,-1911.16 -1708.29,-3875.93 -2650.03,-5815.97c-990.713,-1911.28 -1996.49,-3849.31 -3017.32,-5816.1l-386.146,-736.462l-421.898,-715.993c-282.568,-477.287 -566.976,-954.574 -851.384,-1436.01c-572.493,-958.718 -1146.94,-1925.6 -1727.14,-2896.75c-2326.07,-3886.23 -4940.35,-7645.01 -7746.72,-11344c-2800.74,-3703.15 -5804.95,-7342.51 -9006.78,-10860.6c-3196.31,-3532.38 -6565.86,-6986.65 -10091.8,-10360.7c-3531.53,-3363.74 -7209.97,-6657.53 -11016.5,-9899.85c-7616.81,-6490.78 -15666.8,-12751.3 -24199,-19131c-17047.4,-12755.3 -36085.6,-25483.9 -57146.7,-37731.2c-21059.2,-12239.1 -44182.7,-23924.6 -69359.2,-34390.2c0,0 1152.69,600.721 3314.95,1724.06c2160.36,1129.49 5343.45,2746.44 9345.85,4929.33c8031.18,4301.86 19441.3,10617.8 32870.5,18805.9c13425.4,8186.08 28896.4,18184.6 45024.6,29767.3c4051.37,2859.7 8100.85,5892.19 12221.9,8924.68c4087.12,3092.13 8234.54,6204.86 12353.7,9451.31c8259.09,6451.73 16553.9,13173 24700,20130.8c8134.76,6970.2 16083,14263.5 23359,22151.2c3638.9,3939.72 7104.44,8025.61 10338.3,12261.7c794.824,1071.86 1612.3,2116.97 2380.79,3201.13c762.751,1090.44 1538.84,2164.3 2286.53,3256.75c730.792,1106.76 1461.58,2207.5 2186.74,3306.1c681.82,1135.64 1361.68,2267.14 2037.87,3392.49c5396.16,9021.37 9592.61,18515.9 12700.4,27872.6c3113.31,9358.64 5138.07,18575.5 6362.39,27177.1c144.962,1078.01 290.04,2143.71 431.324,3197.11c71.505,528.77 143.124,1051.26 212.789,1573.88c45.179,524.626 90.357,1045.11 135.651,1563.58c177.036,2075.78 350.279,4102.21 519.843,6077.28c135.536,3962.45 361.545,7723.11 242.907,11255.6c-11.266,882.623 -20.692,1752.82 -30.119,2606.56c-3.793,427.938 -9.426,851.733 -13.22,1271.51c-26.325,417.642 -50.812,833.149 -75.298,1244.64c-101.738,1643.82 -197.729,3230.01 -290.04,4754.41c-60.239,1526.54 -258.083,2974.98 -406.839,4361.51c-154.504,1388.79 -303.261,2711.66 -442.591,3966.59c-738.379,4986.97 -1391.92,8891.65 -2028.56,11498.3c-574.448,2625.14 -881.502,4026.11 -881.502,4026.11Z" style="fill:url(#_Linear6);stroke:#1e0d0f;stroke-width:0.88px;"/><path d="M329680,521422c-853.223,-726.165 -1314.67,-3244.32 -1359.85,-7402.16c3.794,-516.465 -13.22,-1067.71 -43.339,-1649.97c-15.06,-576.11 -31.959,-1180.98 -48.973,-1814.6c-22.531,-1261.09 -24.486,-2625.14 -1.839,-4089.9c28.28,-728.299 -22.647,-1499.79 -35.752,-2289.87c-13.22,-787.944 -28.28,-1604.64 -45.294,-2450.22c-22.532,-1682.87 7.588,-3462.43 -114.843,-5367.57c-216.582,-7568.91 -798.618,-16870 -2653.82,-27654.5c-246.701,-1341.33 -499.15,-2711.53 -757.118,-4106.35c-131.857,-697.409 -239.228,-1405.12 -391.779,-2108.8c-161.976,-703.562 -323.953,-1413.28 -487.884,-2129.27c-321.999,-1429.85 -647.907,-2886.45 -981.287,-4371.8c-395.457,-1460.74 -798.617,-2950.24 -1209.13,-4464.35c-201.523,-757.18 -405,-1520.39 -612.155,-2289.87c-226.009,-761.198 -482.137,-1520.26 -725.159,-2289.75c-485.93,-1536.84 -981.287,-3100.42 -1486.07,-4688.61c-1177.18,-3100.42 -2248.82,-6361.32 -3680.28,-9556.29c-683.774,-1612.93 -1326.05,-3279.36 -2139.61,-4875.84c-785.513,-1610.92 -1531.36,-3277.35 -2363.78,-4914.89c-868.283,-1615.07 -1749.79,-3250.6 -2642.55,-4910.87l-333.38,-623.324l-365.454,-602.856c-246.701,-401.192 -491.563,-804.394 -738.264,-1209.73c-489.724,-810.547 -985.08,-1627.25 -1482.28,-2448.22c-1985.22,-3291.66 -4243.47,-6546.28 -6675.07,-9799.01c-2425.97,-3256.63 -5038.29,-6517.53 -7861.68,-9747.53c-2815.8,-3238.17 -5808.63,-6476.46 -8980.45,-9714.63c-3175.56,-3230.01 -6520.63,-6468.3 -10018.2,-9731.21c-6985.81,-6515.52 -14625.2,-13191.5 -22601.8,-20046.4c-15956.8,-13732.6 -33650.3,-28012.5 -53236.6,-42576.2c-19590.1,-14555.6 -41112.7,-29323 -64784.3,-43825c0,0 1152.69,600.721 3314.95,1724.06c2160.36,1129.49 5343.45,2746.44 9345.85,4929.33c8031.18,4301.86 19441.3,10617.8 32870.5,18805.9c13425.4,8186.08 28896.4,18184.6 45024.6,29767.3c4051.37,2859.7 8100.85,5892.19 12221.9,8924.68c4087.12,3092.13 8234.54,6204.86 12353.7,9451.31c8259.09,6451.73 16553.9,13173 24700,20130.8c8134.76,6970.2 16083,14263.5 23359,22151.2c3638.9,3939.72 7104.44,8025.61 10338.3,12261.7c794.824,1071.86 1612.3,2116.97 2380.79,3201.13c762.751,1090.44 1538.84,2164.3 2286.53,3256.75c730.792,1106.76 1461.58,2207.5 2186.74,3306.1c681.82,1135.64 1361.68,2267.14 2037.87,3392.49c5396.16,9021.37 9592.61,18515.9 12700.4,27872.6c3113.31,9358.64 5138.07,18575.5 6362.39,27177.1c144.962,1078.01 290.04,2143.71 431.324,3197.11c71.505,528.77 143.124,1051.26 212.789,1573.88c45.179,524.626 90.357,1045.11 135.651,1563.58c177.036,2075.78 350.279,4102.21 519.843,6077.28c135.536,3962.45 361.545,7723.11 242.907,11255.6c-11.266,882.623 -20.692,1752.82 -30.119,2606.56c-3.793,427.938 -9.426,851.733 -13.22,1271.51c-26.325,417.642 -50.812,833.149 -75.298,1244.64c-101.738,1643.82 -197.729,3230.01 -290.04,4754.41c-60.239,1526.54 -258.083,2974.98 -406.839,4361.51c-154.504,1388.79 -303.261,2711.66 -442.591,3966.59c-738.379,4986.97 -1391.92,8891.65 -2028.56,11498.3c-574.448,2625.14 -881.502,4026.11 -881.502,4026.11Z" style="fill:url(#_Linear7);"/><path d="M361298,522835c337.058,-499.889 435.003,-1444.17 276.82,-2857.57c-79.091,-703.563 -224.169,-1526.54 -433.164,-2466.8c-105.532,-471.009 -227.963,-971.024 -367.293,-1501.8c-69.665,-263.318 -139.445,-538.941 -224.169,-814.691c-92.312,-269.47 -188.302,-545.219 -286.247,-829.131c-403.045,-1135.64 -881.503,-2384.43 -1437.1,-3750.49c-284.407,-676.816 -563.182,-1407.12 -905.989,-2121.11c-357.866,-707.706 -730.792,-1442.16 -1118.78,-2207.5c-1529.41,-3104.44 -3587.97,-6455.87 -6111.89,-10101.4c-5091.06,-7227.36 -12423.5,-15193.3 -22142.2,-22842.5c-4882.06,-3756.64 -10331,-7461.8 -16350.6,-10973.7c-6021.53,-3505.63 -12615.6,-6768.54 -19727.6,-9817.47c-7108.24,-2991.43 -14679.9,-5898.34 -22837.2,-8428.93c-8144.19,-2553.07 -16806.3,-4921.04 -25993.9,-6809.72c-18364,-3830.73 -38767.7,-6178.11 -60923.1,-6412.67c-22157.2,-257.165 -46047.4,1584.18 -71410.3,5591.83c-12679.6,2024.42 -25730.2,4583.76 -39136.9,7645.01c-13408.5,3063.38 -27165.5,6675.99 -41284.1,10712.5c0,0 1354.27,-267.462 3891.29,-771.495c2537.08,-512.321 6262.6,-1230.32 11005.2,-2125.25c9487.13,-1777.55 23061.4,-4199.02 39419.4,-6472.32c8179.94,-1125.35 17053,-2221.94 26457.3,-3151.78c9404.25,-909.369 19337.7,-1652.11 29623.4,-2096.5c20569.5,-899.073 42572.3,-545.094 64443.3,1868.09c21865.4,2376.14 43572.5,6879.66 63437.6,13273.9c1241.21,401.066 2486.21,763.207 3708.57,1195.29c1224.31,425.804 2441.03,847.59 3653.96,1269.38c1212.99,423.795 2418.39,845.455 3618.21,1265.23c1192.24,452.55 2375.05,901.082 3556.01,1349.61c1179.02,446.397 2350.56,890.785 3518.31,1333.04c1162.12,452.676 2309.17,940.26 3452.44,1405.24c2295.95,911.379 4526.04,1931.75 6737.27,2902.9c8824.11,3947.88 16923.1,8439.1 24110.4,13183.2c14401.1,9476.05 24869.6,20363.4 30996.5,29084.4c772.177,1088.31 1501.13,2116.97 2188.58,3083.85c661.127,991.742 1231.78,1966.91 1789.33,2849.41c551.801,890.91 1062.22,1711.75 1529.29,2466.8c465.238,755.045 817.471,1497.66 1169.7,2131.41c1374.9,2569.51 2107.65,3941.73 2107.65,3941.73Z" style="fill:url(#_Linear8);"/><path d="M361298,522835c-549.962,109.12 -1333.52,-217.987 -2331.82,-962.736c-497.196,-374.446 -1050.95,-851.733 -1655.52,-1431.99c-301.422,-287.929 -615.948,-604.865 -943.695,-944.277c-161.977,-170.774 -329.587,-347.7 -502.829,-528.771c-180.83,-174.791 -367.293,-351.718 -559.389,-536.932c-760.911,-738.596 -1576.54,-1573.88 -2444.83,-2503.72c-440.751,-460.837 -868.282,-967.005 -1356.05,-1454.59c-487.884,-485.449 -998.301,-989.482 -1527.57,-1516.24c-2043.5,-2154.01 -4503.39,-4491.1 -7283.43,-7075.05c-5616.53,-5112.53 -12894.2,-10829.8 -22146,-16563.5c-4663.41,-2808.22 -9797.81,-5643.19 -15453.9,-8410.35c-5659.87,-2760.88 -11858.4,-5406.62 -18559.8,-7982.41c-6737.27,-2532.47 -13966,-5128.86 -21686.4,-7467.95c-7718.49,-2361.82 -15907.9,-4678.44 -24615.2,-6676.12c-17401.5,-4046.71 -36793.8,-7260.26 -58167.6,-9111.78c-21371.9,-1868.09 -44713.9,-2382.42 -69939.4,-1491.63c-12611.8,462.972 -25694.5,1273.52 -39238.5,2390.7c-13542.2,1117.06 -27542.2,2590.11 -42001.7,4281.27c0,0 1354.27,-267.462 3891.29,-771.495c2537.08,-512.321 6262.6,-1230.32 11005.2,-2125.25c9487.13,-1777.55 23061.4,-4199.02 39419.4,-6472.32c8179.94,-1125.35 17053,-2221.94 26457.3,-3151.78c9404.25,-909.369 19337.7,-1652.11 29623.4,-2096.5c20569.5,-899.073 42572.3,-545.094 64443.3,1868.09c21865.4,2376.14 43572.5,6879.66 63437.6,13273.9c1241.21,401.066 2486.21,763.207 3708.57,1195.29c1224.31,425.804 2441.03,847.59 3653.96,1269.38c1212.99,423.795 2418.39,845.455 3618.21,1265.23c1192.24,452.55 2375.05,901.082 3556.01,1349.61c1179.02,446.397 2350.56,890.785 3518.31,1333.04c1162.12,452.676 2309.17,940.26 3452.44,1405.24c2295.95,911.379 4526.04,1931.75 6737.27,2902.9c8824.11,3947.88 16923.1,8439.1 24110.4,13183.2c14401.1,9476.05 24869.6,20363.4 30996.5,29084.4c772.177,1088.31 1501.13,2116.97 2188.58,3083.85c661.127,991.742 1231.78,1966.91 1789.33,2849.41c551.801,890.91 1062.22,1711.75 1529.29,2466.8c465.238,755.045 817.471,1497.66 1169.7,2131.41c1374.9,2569.51 2107.65,3941.73 2107.65,3941.73Z" style="fill:url(#_Linear9);"/><path d="M347665,522856c945.535,-573.976 1921.19,-3487.17 1966.37,-8961.72c-5.633,-2721.83 -241.068,-6083.43 -970.021,-9973.81c-725.044,-3888.36 -1945.56,-8293.07 -3795.13,-13022.9c-3646.49,-9506.82 -9974.96,-20106.2 -18725.6,-30728.1c-4360.27,-5336.68 -9313.83,-10691.9 -14717.6,-16143.9c-1350.42,-1363.93 -2729.12,-2732.13 -4132.3,-4108.36c-1391.92,-1357.9 -2804.53,-2738.4 -4241.63,-4141.39c-2883.62,-2783.61 -5861.4,-5657.63 -8933.32,-8622.31c-49281.3,-47225.8 -124843,-114284 -228770,-198661c0,-0 74964.5,69578.6 149931,139159c18740.6,17394.7 37481.3,34789.3 55052.2,51097.7c8784.56,8153.06 17277.2,16034.6 25329.1,23509c4025.05,3742.2 7955.83,7354.82 11702.1,10936.7c3736.85,3590.01 7304.13,7128.54 10615.3,10673.4c6641.16,7064.88 12282.2,14144.1 16648.1,21003.1c4384.75,6844.76 7428.51,13481.7 9345.91,19205.1c1949.35,5721.42 2770.62,10502.6 3207.58,13753.2c97.945,816.699 184.509,1538.85 259.922,2162.3c48.972,625.333 90.357,1152.09 124.27,1575.89c67.826,849.598 103.578,1287.83 103.578,1287.83Z" style="fill:url(#_Linear10);stroke:#1e0d0f;stroke-width:0.88px;"/><path d="M347665,522856c-1096.13,-413.499 -2182.95,-3077.69 -3942.05,-7494.83c-1785.54,-4406.71 -4298.19,-10558.1 -8778.93,-17690.9c-4416.82,-7165.59 -10845.1,-15250.8 -19582.6,-23994.4c-4354.63,-4388.25 -9287.39,-8941.13 -14736.3,-13792.4c-2764.99,-2439.93 -5625.96,-4966.37 -8583.04,-7579.08c-2972.14,-2649.88 -6042.23,-5388.16 -9206.46,-8210.82c-50501.8,-45390.6 -123524,-116261 -217489,-215601c0,-0 74964.5,69578.6 149931,139159c18740.6,17394.7 37481.3,34789.3 55052.2,51097.7c8784.56,8153.06 17277.2,16034.6 25329.1,23509c4025.05,3742.2 7955.83,7354.82 11702.1,10936.7c3736.85,3590.01 7304.13,7128.54 10615.3,10673.4c6641.16,7064.88 12282.2,14144.1 16648.1,21003.1c4384.75,6844.76 7428.51,13481.7 9345.91,19205.1c1949.35,5721.42 2770.62,10502.6 3207.58,13753.2c97.945,816.699 184.509,1538.85 259.922,2162.3c48.972,625.333 90.357,1152.09 124.27,1575.89c67.826,849.598 103.578,1287.83 103.578,1287.83Z" style="fill:#3c5426;"/><path d="M347343,521770c480.297,-1139.66 -210.949,-3653.8 -2154.78,-7558.49c-981.286,-1942.17 -2224.33,-4293.7 -3942.05,-6801.56c-841.957,-1273.52 -1768.64,-2629.29 -2780.04,-4069.43c-1020.83,-1425.71 -2083.16,-2993.31 -3333.8,-4501.39c-1227.99,-1536.84 -2546.45,-3151.78 -3953.43,-4844.95c-706.306,-843.446 -1433.3,-1709.62 -2177.32,-2596.39c-777.81,-843.445 -1572.63,-1709.62 -2388.26,-2594.25c-1640.46,-1765.12 -3373.23,-3602.32 -5198.43,-5511.59c-1864.63,-1841.22 -3847.89,-3713.45 -5916,-5671.94c-8328.75,-7714.95 -18512.7,-15960.7 -30757.2,-23976c-12235.2,-8019.45 -26521.4,-15804.3 -42830.4,-22764.2c-1017.1,-438.235 -2041.72,-880.614 -3071.98,-1325c-1039.69,-409.354 -2086.9,-822.852 -3137.85,-1238.49c-2105.75,-824.987 -4237.83,-1658.14 -6394.46,-2499.57c-2165.99,-806.529 -4371.53,-1563.58 -6594.03,-2353.66c-1113.14,-390.896 -2231.92,-783.801 -3358.29,-1178.84c-1124.41,-394.914 -2269.57,-732.318 -3414.73,-1104.76c-2292.22,-722.146 -4608.86,-1454.46 -6953.85,-2193.06c-2352.45,-668.654 -4731.29,-1345.47 -7136.52,-2030.57c-1203.5,-335.394 -2412.69,-670.663 -3629.42,-1010.2c-1220.52,-308.523 -2448.56,-619.18 -3682.24,-929.837c-2469.25,-609.009 -4955.46,-1277.66 -7483.06,-1841.34c-20200.4,-4690.75 -42223.9,-8136.73 -65921.9,-10301c-23699.9,-2221.81 -49053.4,-3238.17 -76090.8,-3886.23c0,-0 5085.43,578.119 13983,1588.19c8897.57,1022.51 21609.2,2481.12 36839,4505.53c15224.2,2053.3 32970.4,4692.76 51865.5,8422.66c9447.53,1872.23 19170,4069.43 29009.3,6532.09c9824.25,2540.76 19750.2,5414.78 29599,8624.19c9827.99,3299.95 19567.5,6962.04 29037.6,10961.4c2352.46,1047.24 4697.38,2090.22 7029.15,3127.17c1162.12,530.779 2335.5,1016.35 3478.82,1577.9c1147,555.516 2292.16,1108.9 3431.69,1660.27c1139.47,551.373 2277.1,1100.74 3409.1,1647.97c1135.73,545.22 2265.84,1090.31 3371.45,1687.02c2222.49,1166.54 4429.93,2322.65 6618.51,3468.59c17429.7,9395.81 32962.8,19995.1 45627.4,30181c3120.9,2625.02 6125.11,5118.56 8939.07,7558.49c2757.4,2530.59 5392.36,4902.58 7833.4,7182.16c2384.47,2363.83 4614.44,4577.48 6676.91,6624.51c1047.16,999.905 1964.41,2077.91 2887.41,3048.94c909.668,983.455 1779.79,1921.58 2604.85,2812.37c822.989,890.911 1604.71,1734.36 2339.29,2526.45c743.897,779.656 1374.9,1594.47 1998.33,2306.2c1229.94,1448.44 2275.26,2680.77 3122.85,3678.54c1695.07,1997.67 2599.22,3061.24 2599.22,3061.24Z" style="fill:url(#_Linear11);stroke:#1e0d0f;stroke-width:0.88px;"/><path d="M347343,521770c-1002.1,539.067 -3160.56,-296.217 -6403.89,-2491.41c-1629.19,-1088.31 -3476.92,-2577.8 -5742.76,-4225.64c-1116.94,-841.437 -2303.43,-1765.25 -3556.01,-2771.3c-1263.74,-995.636 -2550.24,-2129.27 -4008.03,-3209.41c-11385.6,-8990.48 -27915.1,-22249.9 -51460.5,-36404.3c-11769.9,-7064.75 -25300.8,-14300.4 -40715.2,-21320c-960.594,-444.388 -1928.72,-890.785 -2902.47,-1341.33c-983.126,-421.786 -1972,-847.715 -2966.45,-1273.52c-1990.85,-860.021 -4004.3,-1728.2 -6042.23,-2608.69c-2054.89,-831.14 -4132.36,-1672.58 -6236.22,-2524.31c-1050.95,-425.929 -2109.49,-853.742 -3173.66,-1285.82c-1062.28,-434.092 -2149.04,-814.691 -3232.06,-1230.32c-2169.73,-820.843 -4364,-1649.97 -6580.86,-2489.28c-2237.61,-792.088 -4497.76,-1592.46 -6784.28,-2400.88c-1143.32,-403.327 -2294.12,-808.538 -3448.7,-1218.02c-1163.96,-384.742 -2333.6,-769.36 -3508.88,-1158.25c-2356.25,-767.352 -4720.03,-1602.63 -7136.52,-2347.38c-19288.8,-6132.91 -40513.7,-11780.2 -63635.3,-16975c-23108.5,-5254.3 -48104.1,-10124 -74766.7,-15508c0,-0 5085.43,578.119 13983,1588.19c8897.57,1022.51 21609.2,2481.12 36839,4505.53c15224.2,2053.3 32970.4,4692.76 51865.5,8422.66c9447.53,1872.23 19170,4069.43 29009.3,6532.09c9824.25,2540.76 19750.2,5414.78 29599,8624.19c9827.99,3299.95 19567.5,6962.04 29037.6,10961.4c2352.46,1047.24 4697.38,2090.22 7029.15,3127.17c1162.12,530.779 2335.5,1016.35 3478.82,1577.9c1147,555.516 2292.16,1108.9 3431.69,1660.27c1139.47,551.373 2277.1,1100.74 3409.1,1647.97c1135.73,545.22 2265.84,1090.31 3371.45,1687.02c2222.49,1166.54 4429.93,2322.65 6618.51,3468.59c17429.7,9395.81 32962.8,19995.1 45627.4,30181c3120.9,2625.02 6125.11,5118.56 8939.07,7558.49c2757.4,2530.59 5392.36,4902.58 7833.4,7182.16c2384.47,2363.83 4614.44,4577.48 6676.91,6624.51c1047.16,999.905 1964.41,2077.91 2887.41,3048.94c909.668,983.455 1779.79,1921.58 2604.85,2812.37c822.989,890.911 1604.71,1734.36 2339.29,2526.45c743.897,779.656 1374.9,1594.47 1998.33,2306.2c1229.94,1448.44 2275.26,2680.77 3122.85,3678.54c1695.07,1997.67 2599.22,3061.24 2599.22,3061.24Z" style="fill:url(#_Linear12);stroke:#1e0d0f;stroke-width:0.88px;"/><path d="M351321,523438c1209.13,444.388 3665.23,-687.112 7377.58,-3493.32c1845.78,-1411.39 4072.07,-3188.82 6401.93,-5554.79c1186.6,-1168.54 2444.71,-2446.21 3778.23,-3834.87c1320.3,-1398.96 2776.25,-2865.86 4151.27,-4550.74c1406.86,-1662.28 2881.67,-3441.97 4422.34,-5336.68c768.498,-952.565 1555.74,-1929.87 2363.78,-2933.79c760.911,-1034.81 1538.84,-2096.37 2337.45,-3184.68c1587.69,-2184.9 3237.69,-4491.22 4947.82,-6916.71c1638.74,-2466.8 3292.41,-5077.5 5025.19,-7801.34c6803.14,-10949.1 13920.8,-24198.2 20562,-39901.8c6646.79,-15695.3 12813.3,-33830.6 17906.3,-54305c321.999,-1279.67 645.952,-2565.5 971.86,-3859.61c291.88,-1302.27 583.875,-2610.7 879.548,-3927.42c582.036,-2635.44 1169.7,-5301.64 1764.85,-8000.87c555.595,-2705.38 1058.54,-5451.95 1593.44,-8225.13c261.76,-1386.66 525.475,-2781.47 791.03,-4184.58c267.509,-1403.11 472.825,-2822.66 711.939,-4244.35c457.765,-2847.27 921.048,-5727.57 1388.12,-8638.63c397.412,-2915.21 798.618,-5861.3 1205.46,-8840.3c194.05,-1489.5 389.94,-2987.28 587.669,-4493.23c167.609,-1507.96 335.219,-3022.19 502.829,-4546.6c322.114,-3046.93 702.627,-6122.61 971.975,-9235.34c2337.34,-24893.5 3203.78,-51838.3 2576.57,-80644.8c-566.976,-28821.1 -2550.24,-59489.5 -5104.28,-92141.1c-0,-0 20.692,6196.57 54.605,17036.7c24.486,10841.9 60.353,26329.5 -177.036,44919.5c-265.555,18585.7 -826.783,40282.2 -2350.56,63490.9c-768.499,11603.3 -1832.67,23578.9 -3152.97,35725.3c-1399.39,12138.2 -3124.69,24436.8 -5196.48,36686.2c-2166.05,12232.8 -4708.7,24399.8 -7624.4,36284.9c-777.81,2960.54 -1551.94,5906.63 -2322.28,8840.3c-397.411,1462.75 -749.645,2933.79 -1180.97,4380.09c-423.738,1448.31 -845.636,2890.47 -1267.53,4330.62c-421.898,1438.14 -841.957,2874.14 -1262.02,4304c-414.311,1431.86 -830.576,2857.57 -1303.29,4260.68c-911.622,2816.51 -1817.61,5612.3 -2716.01,8387.62c-7419.09,22114.2 -16278.9,42088.7 -25063.5,58553.4c-2279.05,4071.44 -4443.15,7988.69 -6571.49,11669.2c-2226.29,3620.78 -4311.29,7077.06 -6322.84,10290.6c-2105.7,3151.9 -4075.86,6100.01 -5897.15,8827.99c-885.297,1382.51 -1866.58,2614.85 -2734.87,3841.02c-887.136,1215.88 -1730.93,2372.12 -2533.23,3472.73c-800.457,1098.6 -1559.53,2139.57 -2273.42,3116.87c-698.718,991.617 -1446.52,1847.49 -2092.48,2684.79c-1314.67,1651.98 -2435.4,3057.22 -3343.23,4196.89c-1815.66,2279.58 -2783.72,3495.46 -2783.72,3495.46Z" style="fill:url(#_Linear13);stroke:#1e0d0f;stroke-width:0.88px;"/><path d="M351321,523438c-661.127,-1141.8 -75.413,-3843.16 1757.26,-8011.29c905.989,-2092.23 2190.42,-4495.24 3584.3,-7420.74c719.411,-1446.3 1510.56,-2985.15 2378.84,-4614.53c855.062,-1637.67 1845.78,-3322.55 2763.03,-5209.1c7729.82,-14784 19156.9,-36272.6 30655.6,-66319.8c5738.96,-15020.4 11438.4,-32182.7 16698.9,-51587.3c333.38,-1211.74 670.554,-2429.63 1009.57,-3655.81c308.894,-1234.34 621.582,-2476.97 934.269,-3725.75c630.893,-2499.7 1269.49,-5028.15 1917.39,-7587.5c595.141,-2575.67 1197.87,-5180.34 1808.07,-7813.65c305.215,-1318.72 612.155,-2643.6 922.888,-3976.76c312.687,-1333.16 566.976,-2686.92 858.971,-4040.55c570.654,-2711.66 1148.9,-5451.95 1732.77,-8225.26c533.063,-2787.63 1073.6,-5608.15 1617.93,-8457.56c273.026,-1425.71 546.168,-2859.7 821.149,-4301.86c250.495,-1446.3 500.99,-2900.89 753.439,-4363.64c495.357,-2927.51 1056.59,-5877.75 1523.66,-8877.34c3902.62,-23967.7 7087.54,-50208.8 9590.77,-78684.2c2561.51,-28465.1 4512.82,-59160.4 6786.12,-91923c-0,-0 20.692,6196.57 54.605,17036.7c24.486,10841.9 60.353,26329.5 -177.036,44919.5c-265.555,18585.7 -826.783,40282.2 -2350.56,63490.9c-768.499,11603.3 -1832.67,23578.9 -3152.97,35725.3c-1399.39,12138.2 -3124.69,24436.8 -5196.48,36686.2c-2166.05,12232.8 -4708.7,24399.8 -7624.4,36284.9c-777.81,2960.54 -1551.94,5906.63 -2322.28,8840.3c-397.411,1462.75 -749.645,2933.79 -1180.97,4380.09c-423.738,1448.31 -845.636,2890.47 -1267.53,4330.62c-421.898,1438.14 -841.957,2874.14 -1262.02,4304c-414.311,1431.86 -830.576,2857.57 -1303.29,4260.68c-911.622,2816.51 -1817.61,5612.3 -2716.01,8387.62c-7419.09,22114.2 -16278.9,42088.7 -25063.5,58553.4c-2279.05,4071.44 -4443.15,7988.69 -6571.49,11669.2c-2226.29,3620.78 -4311.29,7077.06 -6322.84,10290.6c-2105.7,3151.9 -4075.86,6100.01 -5897.15,8827.99c-885.297,1382.51 -1866.58,2614.85 -2734.87,3841.02c-887.136,1215.88 -1730.93,2372.12 -2533.23,3472.73c-800.457,1098.6 -1559.53,2139.57 -2273.42,3116.87c-698.718,991.617 -1446.52,1847.49 -2092.48,2684.79c-1314.67,1651.98 -2435.4,3057.22 -3343.23,4196.89c-1815.66,2279.58 -2783.72,3495.46 -2783.72,3495.46Z" style="fill:#3c5426;"/><path d="M343924,521794c-20.807,-1285.83 -1704.61,-3248.47 -5093.01,-5844.85c-1695.07,-1298.13 -3813.98,-2756.86 -6364.23,-4365.65c-1277.08,-804.393 -2659.45,-1647.84 -4149.32,-2528.45c-1495.5,-868.183 -3081.35,-1833.05 -4812.28,-2701.24c-3448.64,-1789.86 -7336.2,-3713.45 -11664.4,-5762.6c-2164.21,-1024.52 -4437.52,-2081.93 -6821.99,-3168.23c-2397.69,-1034.81 -4919.65,-2047.02 -7547.15,-3112.73c-2634.97,-1043.1 -5375.47,-2127.26 -8221.38,-3254.62c-2853.5,-1106.89 -5806.79,-2281.59 -8916.42,-3295.93c-3104,-1040.96 -6315.31,-2118.97 -9635.89,-3232.02c-1663.11,-545.22 -3352.6,-1098.6 -5070.36,-1662.28c-1719.61,-559.66 -3463.7,-1139.79 -5254.87,-1623.23c-3576.76,-1003.92 -7264.58,-2036.73 -11059.8,-3100.42c-1900.44,-520.483 -3829.1,-1047.12 -5786.04,-1582.04c-977.551,-261.309 -1960.74,-541.076 -2957.08,-789.954c-998.243,-232.553 -2004.02,-467.116 -3015.48,-703.688c-4053.21,-925.818 -8213.85,-1878.26 -12487.4,-2855.56c-2139.67,-471.134 -4301.92,-981.32 -6501.83,-1425.71c-2205.54,-409.354 -4439.36,-820.843 -6701.4,-1240.49c-4524.14,-810.672 -9161.28,-1641.81 -13909.5,-2493.55c-4763.31,-722.146 -9647.16,-1370.21 -14640.3,-2055.18c-2495.64,-333.385 -5021.39,-670.788 -7573.53,-1012.21c-2559.61,-277.758 -5149.4,-512.321 -7765.57,-767.477c-2616.17,-246.868 -5262.46,-493.736 -7935.13,-746.757c-1335.36,-121.425 -2678.31,-244.86 -4028.72,-368.294c-1350.48,-119.29 -2706.59,-261.308 -4075.86,-318.819c-5465.88,-290.064 -11046.7,-584.272 -16738.5,-886.767c-1423.88,-65.798 -2851.55,-154.324 -4288.65,-197.52c-1439,-20.593 -2883.62,-41.061 -4335.78,-63.789c-2904.32,-34.908 -5835.01,-71.951 -8795.89,-106.984c-2958.92,-26.746 -5942.38,-76.095 -8955.97,-69.942c-3015.42,80.238 -6057.23,160.477 -9127.31,242.85c-6138.27,197.52 -12382,271.48 -18733.1,789.953c-25398.7,1497.79 -52496.4,4832.64 -80957.7,10768c0,0 5435.76,-584.271 14951.1,-1608.79c2380.68,-240.716 5010.01,-576.11 7882.37,-812.682c2874.2,-211.834 5981.93,-440.244 9302.51,-685.103c3320.58,-244.86 6854.01,-504.034 10579.5,-777.648c3727.42,-205.682 7650.67,-320.954 11743.5,-495.871c2045.46,-82.248 4134.26,-166.63 6262.6,-250.887c2130.18,-65.924 4298.07,-218.113 6505.51,-197.52c4414.93,-26.746 8978.56,-55.627 13670.4,-86.391c2344.93,-2.135 4723.77,-57.636 7130.83,-18.584c2407.12,65.798 4842.46,131.722 7306.02,197.52c2461.72,67.932 4951.67,133.73 7464.26,201.663c1256.27,34.908 2520.07,67.807 3787.66,102.841c1267.59,37.043 2542.71,53.492 3819.73,148.171c20460.3,995.635 42239,3042.66 63931,6038.23c21667.6,3250.47 43225.9,7445.35 63286.9,12286.3c1258.16,269.47 2499.37,615.161 3738.68,940.133c1237.47,325.098 2469.25,652.205 3697.3,975.168c2452.3,648.061 4881.95,1287.96 7287.17,1923.59c2403.33,633.746 4782.16,1261.21 7130.88,1880.39c2344.93,646.052 4640.88,1374.35 6918.04,2043.01c4548.57,1359.78 8972.86,2682.65 13252.1,3964.46c2145.3,606.874 4220.88,1368.07 6273.93,2036.73c2049.25,687.112 4058.84,1361.92 6029,2020.28c3934.57,1333.16 7720.39,2559.34 11299.1,3816.29c3559.69,1322.87 6936.83,2577.8 10110.5,3758.78c3171.71,1178.84 6142.01,2283.59 8888.14,3303.97c2740.5,1045.24 5224.75,2117.09 7486.8,3026.34c9027.59,3694.99 14186.5,5805.8 14186.5,5805.8Z" style="fill:url(#_Linear14);stroke:#1e0d0f;stroke-width:0.88px;"/><path d="M343924,521794c-719.526,991.617 -3098.36,1300.27 -7104.56,876.47c-2002.12,-211.96 -4413.03,-607 -7226.87,-1189.14c-1406.98,-292.198 -2913.74,-629.602 -4522.24,-1016.35c-1612.3,-374.446 -3307.47,-855.877 -5140.03,-1252.92c-3653.96,-847.59 -7709.12,-1876.25 -12169.2,-3092.13c-2230.08,-606.874 -4561.79,-1263.22 -6993.39,-1964.78c-2444.71,-643.917 -4998.75,-1314.58 -7656.36,-2014.12c-2650.03,-726.165 -5405.59,-1483.35 -8270.35,-2269.15c-2859.14,-798.241 -5808.69,-1687.02 -8903.2,-2435.91c-3079.51,-808.537 -6266.39,-1645.83 -9560.59,-2509.87c-1642.41,-444.389 -3313.05,-897.064 -5010.07,-1355.77c-1697.02,-462.972 -3414.73,-954.7 -5179.58,-1355.89c-3514.57,-870.192 -7136.52,-1765.12 -10865.8,-2686.8c-1860.89,-473.144 -3750.01,-952.565 -5667.4,-1440.15c-956.8,-240.716 -1919.29,-504.033 -2893.05,-734.452c-975.653,-220.122 -1958.84,-440.244 -2947.65,-662.501c-3955.32,-909.244 -8017.96,-1841.22 -12188,-2799.93c-2085.01,-479.422 -4192.6,-1006.06 -6334.11,-1475.18c-2147.2,-440.245 -4322.62,-886.642 -6524.42,-1337.18c-4401.65,-927.828 -8910.73,-1878.38 -13529,-2851.42c-4635.25,-860.021 -9377.86,-1738.5 -14231.6,-2637.57c-2427.81,-458.703 -4882.01,-921.675 -7362.53,-1390.67c-2490,-397.048 -5008.17,-800.375 -7552.78,-1207.72c-2546.45,-411.363 -5119.28,-826.996 -7718.49,-1246.65c-1301.5,-213.969 -2608.64,-427.938 -3923.31,-644.042c-1314.67,-213.844 -2633.13,-452.55 -3966.59,-611.018c-5330.29,-722.021 -10769.8,-1460.62 -16320.4,-2213.65c-1388.12,-187.223 -2783.78,-401.192 -4186.97,-571.966c-1405.08,-150.18 -2817.69,-302.37 -4236,-454.559c-2840.28,-310.657 -5706.95,-625.458 -8603.73,-944.403c-2896.78,-320.954 -5821.85,-645.926 -8775.14,-973.033c-2958.98,-242.85 -5944.28,-487.584 -8959.7,-734.452c-6030.9,-477.287 -12178.6,-1127.48 -18448.7,-1380.5c-25072.9,-1596.48 -52067,-2160.16 -80950.2,-958.718c0,0 5435.76,-584.271 14951.1,-1608.79c2380.68,-240.716 5010.01,-576.11 7882.37,-812.682c2874.2,-211.834 5981.93,-440.244 9302.51,-685.103c3320.58,-244.86 6854.01,-504.034 10579.5,-777.648c3727.42,-205.682 7650.67,-320.954 11743.5,-495.871c2045.46,-82.248 4134.26,-166.63 6262.6,-250.887c2130.18,-65.924 4298.07,-218.113 6505.51,-197.52c4414.93,-26.746 8978.56,-55.627 13670.4,-86.391c2344.93,-2.135 4723.77,-57.636 7130.83,-18.584c2407.12,65.798 4842.46,131.722 7306.02,197.52c2461.72,67.932 4951.67,133.73 7464.26,201.663c1256.27,34.908 2520.07,67.807 3787.66,102.841c1267.59,37.043 2542.71,53.492 3819.73,148.171c20460.3,995.635 42239,3042.66 63931,6038.23c21667.6,3250.47 43225.9,7445.35 63286.9,12286.3c1258.16,269.47 2499.37,615.161 3738.68,940.133c1237.47,325.098 2469.25,652.205 3697.3,975.168c2452.3,648.061 4881.95,1287.96 7287.17,1923.59c2403.33,633.746 4782.16,1261.21 7130.88,1880.39c2344.93,646.052 4640.88,1374.35 6918.04,2043.01c4548.57,1359.78 8972.86,2682.65 13252.1,3964.46c2145.3,606.874 4220.88,1368.07 6273.93,2036.73c2049.25,687.112 4058.84,1361.92 6029,2020.28c3934.57,1333.16 7720.39,2559.34 11299.1,3816.29c3559.69,1322.87 6936.83,2577.8 10110.5,3758.78c3171.71,1178.84 6142.01,2283.59 8888.14,3303.97c2740.5,1045.24 5224.75,2117.09 7486.8,3026.34c9027.59,3694.99 14186.5,5805.8 14186.5,5805.8Z" style="fill:url(#_Linear15);stroke:#1e0d0f;stroke-width:0.88px;"/><path d="M354137,523798c440.752,-964.871 -231.756,-3976.76 -1921.19,-8949.29c-1501.13,-5098.09 -4074.02,-12146.5 -6622.31,-21696.5c-1303.4,-4756.55 -2650.03,-10107.7 -3981.71,-16073.8c-365.339,-1477.19 -646.068,-3030.48 -975.654,-4600.21c-323.953,-1569.74 -657.333,-3176.51 -996.346,-4818.2c-303.261,-1656.13 -612.155,-3349.3 -928.521,-5077.5c-322.114,-1724.06 -655.494,-3483.03 -936.108,-5301.64c-301.422,-1810.45 -608.361,-3655.94 -921.049,-5540.47c-284.407,-1892.7 -576.287,-3822.44 -872.076,-5789.23c-148.756,-983.455 -299.467,-1975.07 -452.017,-2976.99c-137.491,-1008.07 -274.981,-2024.42 -416.265,-3050.95c-278.775,-2051.17 -565.022,-4139.38 -855.062,-6264.63c-1118.78,-8523.36 -2190.54,-17703.2 -3346.91,-27537.1c-576.402,-4912.88 -1171.54,-10004.8 -1823.24,-15251c-679.981,-5248.28 -1380.65,-10648.7 -2098.22,-16201.4c-186.463,-1388.67 -372.926,-2785.62 -559.389,-4190.73c-201.522,-1405.12 -404.999,-2818.52 -608.361,-4240.21c-412.471,-2847.27 -830.576,-5729.58 -1254.43,-8650.94c-431.325,-2919.35 -851.269,-5879.89 -1314.67,-8873.32c-476.503,-2989.29 -958.64,-6015.5 -1448.36,-9081.01c-3921.47,-24517.1 -8833.53,-51346.5 -15056.6,-80356.8c-6224.89,-29008.2 -13758.8,-60201.2 -22910.7,-93398.3c-1114.98,-4157.84 -2329.87,-8323.71 -3525.84,-12535c-1207.3,-4207.31 -2425.91,-8449.53 -3655.86,-12728.7c-1275.12,-4262.81 -2561.51,-8560.53 -3857.38,-12897.4c-649.804,-2164.3 -1303.34,-4340.91 -1960.68,-6523.8c-678.083,-2176.61 -1361.74,-4361.51 -2045.46,-6554.44c-1374.96,-4384.36 -2761.19,-8805.39 -4158.74,-13261.6c-1448.42,-4435.59 -2906.21,-8908.1 -4377.22,-13417.8c-738.321,-2250.7 -1478.54,-4511.69 -2222.49,-6782.98c-766.601,-2260.99 -1536.94,-4530.27 -2311.01,-6809.85c-1553.89,-4550.86 -3119.06,-9138.65 -4697.44,-13763.3c0,-0 2109.49,7109.96 5801.16,19550.6c1779.85,6244.03 3940.21,13825.1 6418.89,22523.5c2376.94,8731.3 5141.93,18557.1 7929.44,29349.7c5671.2,21552.6 11933.8,46814.3 18013.6,74055.5c6091.2,27234.6 11995.9,56444.6 17239.5,85790.1c5253.03,29343.5 9841.15,58822.8 13587.4,86537c911.622,6931.15 1857.16,13740.9 2683.94,20421c855.177,6675.99 1693.34,13205.9 2508.86,19563c1681.96,12706.1 3490.03,24694 5578.83,35671.8c2086.96,10977.9 4420.5,20953.8 6991.55,29619.3c152.551,543.085 305.101,1084.16 455.811,1619.08c154.39,532.788 331.426,1055.41 495.357,1575.89c331.426,1038.96 657.333,2061.46 977.493,3065.39c320.16,1004.05 634.687,1989.51 943.581,2958.4c301.421,969.015 670.553,1890.69 990.713,2810.36c661.127,1828.91 1295.81,3585.87 1902.34,5264.72c649.861,1656.13 1309.03,3215.57 1913.6,4707.07c305.101,744.749 602.728,1468.9 890.93,2172.59c143.123,351.718 286.247,699.418 425.692,1040.96c154.389,335.395 305.1,664.511 453.856,987.474c600.889,1294.11 1163.96,2505.85 1687.59,3633.33c525.476,1127.36 1000.14,2178.62 1459.74,3122.9c487.77,927.954 930.475,1771.4 1327.89,2526.45c1587.69,3020.18 2433.44,4628.97 2433.44,4628.97Z" style="fill:url(#_Linear16);"/><path d="M354137,523798c-915.415,41.187 -2953.29,-1987.38 -6066.71,-6278.94c-2911.9,-4400.56 -6963.27,-11089 -10911.1,-20649.3c-2002.12,-4758.56 -4024.93,-10202.2 -5989.46,-16324.8c-525.475,-1522.4 -956.8,-3106.57 -1437.1,-4721.64c-470.871,-1619.08 -951.168,-3275.21 -1442.73,-4968.38c-440.751,-1703.47 -890.929,-3445.99 -1350.42,-5225.55c-459.604,-1779.56 -926.681,-3600.31 -1335.47,-5466.39c-423.738,-1865.95 -855.062,-3770.96 -1295.81,-5711c-419.944,-1944.18 -807.929,-3927.54 -1220.52,-5949.83c-203.362,-1012.21 -408.678,-2034.72 -615.834,-3065.39c-188.417,-1030.8 -378.558,-2069.63 -570.654,-3121.01c-378.674,-2098.38 -781.719,-4240.08 -1149.01,-6414.68c-1489.75,-8706.57 -2849.71,-18009.8 -4207.72,-27870.5c-1333.4,-9807.3 -2749.81,-20215.2 -4249.1,-31221.9c-184.623,-1374.23 -372.925,-2754.73 -561.228,-4147.54c-199.683,-1390.67 -401.205,-2789.76 -604.682,-4199.02c-401.091,-2818.52 -807.929,-5674.08 -1220.4,-8566.68c-410.632,-2894.61 -826.897,-5826.27 -1246.96,-8792.96c-442.59,-2966.56 -892.768,-5968.29 -1346.62,-9008.93c-3603.15,-24323.7 -7822.13,-51009.2 -12913.2,-80021.5c-5089.1,-29008.2 -11056,-60343.4 -18160.5,-93953.6c-856.959,-4211.33 -1810.02,-8432.95 -2734.81,-12704c-932.314,-4271.1 -1872.16,-8581.12 -2819.59,-12926.1c-985.023,-4336.9 -1977.63,-8710.71 -2977.77,-13121.7c-499.093,-2207.5 -1000.14,-4425.3 -1503.03,-6651.38c-523.579,-2219.81 -1049.11,-4449.91 -1578.33,-6688.3c-1052.91,-4478.79 -2115.18,-8996.5 -3186.88,-13551.6c-1109.35,-4544.59 -2230.03,-9126.09 -3358.23,-13744.8c-563.182,-2310.47 -1128.2,-4631.23 -1697.02,-6960.03c-587.669,-2324.78 -1179.07,-4655.59 -1772.38,-6998.95c-1186.6,-4684.47 -2382.58,-9408.12 -3588.03,-14168.7c0,-0 2109.49,7109.96 5801.16,19550.6c1779.85,6244.03 3940.21,13825.1 6418.89,22523.5c2376.94,8731.3 5141.93,18557.1 7929.44,29349.7c5671.2,21552.6 11933.8,46814.3 18013.6,74055.5c6091.2,27234.6 11995.9,56444.6 17239.5,85790.1c5253.03,29343.5 9841.15,58822.8 13587.4,86537c911.622,6931.15 1857.16,13740.9 2683.94,20421c855.177,6675.99 1693.34,13205.9 2508.86,19563c1681.96,12706.1 3490.03,24694 5578.83,35671.8c2086.96,10977.9 4420.5,20953.8 6991.55,29619.3c152.551,543.085 305.101,1084.16 455.811,1619.08c154.39,532.788 331.426,1055.41 495.357,1575.89c331.426,1038.96 657.333,2061.46 977.493,3065.39c320.16,1004.05 634.687,1989.51 943.581,2958.4c301.421,969.015 670.553,1890.69 990.713,2810.36c661.127,1828.91 1295.81,3585.87 1902.34,5264.72c649.861,1656.13 1309.03,3215.57 1913.6,4707.07c305.101,744.749 602.728,1468.9 890.93,2172.59c143.123,351.718 286.247,699.418 425.692,1040.96c154.389,335.395 305.1,664.511 453.856,987.474c600.889,1294.11 1163.96,2505.85 1687.59,3633.33c525.476,1127.36 1000.14,2178.62 1459.74,3122.9c487.77,927.954 930.475,1771.4 1327.89,2526.45c1587.69,3020.18 2433.44,4628.97 2433.44,4628.97Z" style="fill:url(#_Linear17);stroke:#1e0d0f;stroke-width:0.88px;"/><path d="M378066,517988c1100.04,39.052 3137.91,-2090.35 5944.28,-6597.89c2776.25,-4521.98 6287.09,-11451 10003.2,-21071.1c911.622,-2411.17 1890.95,-4970.52 2793.15,-7727.25c459.605,-1378.37 930.475,-2791.77 1414.57,-4242.22c444.43,-1468.9 898.401,-2972.84 1365.48,-4515.83c956.801,-3079.83 1781.74,-6369.48 2700.95,-9801.02c431.325,-1722.05 838.163,-3495.46 1267.53,-5301.77c209.11,-907.235 421.898,-1820.75 636.641,-2746.44c193.935,-929.963 389.824,-1870.1 587.668,-2818.52c382.352,-1903.12 821.15,-3834.87 1165.8,-5828.4c356.027,-1991.52 719.526,-4024.1 1090.61,-6093.86c320.16,-2079.92 645.952,-4201.03 977.493,-6361.19c340.852,-2158.15 583.875,-4371.8 881.503,-6620.49c1101.76,-9002.78 1904.17,-18699 2262.04,-29053.5c357.866,-10352.4 271.187,-21359 -389.94,-32952c-657.333,-11593 -1889.12,-23772.3 -3872.38,-36429c-248.656,-1580.03 -500.99,-3172.37 -755.278,-4773c-282.569,-1592.34 -566.976,-3194.97 -853.223,-4807.9c-549.962,-3230.01 -1239.37,-6466.17 -1883.48,-9751.68c-1389.96,-6542.26 -2898.68,-13212.1 -4703.07,-19941.6c-857.017,-3380.19 -1851.41,-6750.08 -2815.8,-10171.5c-1034.05,-3386.34 -2118.92,-6789.13 -3199.99,-10235.1c-550.077,-1719.92 -1073.6,-3460.43 -1655.63,-5182.35c-606.522,-1711.75 -1216.72,-3433.68 -1828.88,-5163.89c-613.994,-1728.2 -1231.78,-3464.57 -1853.36,-5211.23c-623.42,-1744.65 -1229.83,-3507.76 -1936.13,-5227.68c-10692.5,-27856.1 -24916.6,-56467.2 -43173.2,-84378.9c-18179.4,-27963.2 -40144.6,-55399.5 -65754.3,-81344.5c-0,0 1133.89,1325 3258.44,3808.25c2109.49,2505.85 5292.58,6071 9131.16,10856.4c7805.11,9418.42 18661.5,23245.6 30712,40806.9c1476.64,2222.07 2985.36,4489.09 4524.2,6799.55c766.544,1156.24 1542.52,2322.77 2324.12,3501.61c391.779,588.415 783.558,1180.85 1179.13,1773.28c380.398,606.999 760.911,1216.01 1145.1,1829.04c3049.39,4912.76 6307.78,9899.85 9383.5,15261.1c1557.69,2662.31 3171.82,5334.67 4742.62,8089.39c1537,2781.6 3092.73,5595.85 4665.37,8443.25c776.086,1429.98 1599.07,2837.1 2348.72,4308.02c755.279,1466.89 1516.19,2942.08 2279.05,4423.29c764.705,1481.21 1531.25,2970.71 2301.59,4464.47c762.865,1501.8 1567.12,2981 2284.69,4532.28c1471.01,3073.42 2953.29,6173.97 4446.94,9296.86c372.925,779.783 747.69,1561.57 1122.46,2345.38c352.233,798.366 706.305,1596.48 1058.54,2396.86c708.261,1600.5 1416.41,3207.28 2128.34,4818.08c2932.6,6394.22 5494.1,13103.1 8225.17,19779.2c5141.87,13533.1 9803.56,27570.1 13824.8,41870.5c7914.33,28650.2 12604.2,58506 14047,86699.5c113.004,1761.1 178.876,3518.06 239.114,5266.73c58.399,1748.8 143.124,3489.31 180.83,5221.53c54.605,3468.59 152.55,6902.27 116.798,10301c28.28,6797.29 -209.11,13444.5 -519.843,19906.6c-710.099,12920 -2026.61,25082.9 -3751.9,36194.5c-1736.57,11113.6 -3885.6,21171.9 -6104.3,29969c-2211.23,8803.25 -4571.22,16316.5 -6609.2,22449.4c-1047.16,3055.09 -1973.84,5787.22 -2872.36,8118.15c-871.961,2343.24 -1600.91,4343.05 -2262.04,5927.1c-1282.59,3190.95 -1966.37,4892.41 -1966.37,4892.41Z" style="fill:url(#_Linear18);stroke:#1e0d0f;stroke-width:0.88px;"/><path d="M378066,517988c-740.219,-1030.8 -544.329,-4211.33 440.751,-9525.4c954.961,-5330.52 2661.41,-12817.2 4680.43,-22589.5c487.885,-2450.22 1051.07,-5019.86 1544.47,-7766.31c263.716,-1364.05 534.903,-2765.03 811.838,-4203.16c252.334,-1444.17 512.256,-2923.37 777.81,-4437.6c570.77,-3016.04 1024.63,-6217.29 1584.02,-9527.41c243.023,-1666.42 489.724,-3369.89 742.173,-5108.39c126.11,-868.183 254.288,-1746.66 382.352,-2631.3c113.005,-890.785 226.009,-1789.86 340.853,-2699.23c218.536,-1818.61 499.15,-3657.95 693.085,-5556.8c210.949,-1890.69 425.692,-3818.42 644.228,-5783.07c186.463,-1970.93 374.765,-3976.89 566.861,-6019.77c209.11,-2036.73 323.954,-4129.08 502.944,-6243.91c621.581,-8480.29 1039.69,-17571.6 1135.68,-27261.6c96.106,-9689.9 -131.742,-19980.6 -794.824,-30837.2c-659.172,-10856.4 -1753.46,-22282.8 -3446.69,-34211.1c-210.949,-1491.63 -423.852,-2991.3 -638.48,-4501.39c-241.183,-1503.94 -482.251,-3018.17 -725.159,-4540.57c-457.765,-3053.08 -1045.32,-6112.31 -1580.22,-9225.04c-1167.87,-6198.7 -2416.55,-12535.2 -3919.63,-18952c-708.145,-3221.72 -1542.52,-6441.43 -2335.5,-9716.77c-883.342,-3250.47 -1774.16,-6536.11 -2676.35,-9856.52c-457.766,-1660.27 -885.297,-3343.14 -1373.07,-5011.7c-508.577,-1660.27 -1018.99,-3328.7 -1533.2,-5007.56c-512.256,-1678.73 -1026.47,-3367.76 -1544.47,-5067.08c-517.889,-1697.31 -1017.04,-3415.22 -1615.97,-5098.09c-8954.13,-27210 -20906.7,-55862.3 -36628.1,-84901.4c-15644.1,-29082.2 -34810.5,-58703.7 -57619.5,-88070c-0,0 1133.89,1325 3258.44,3808.25c2109.49,2505.85 5292.58,6071 9131.16,10856.4c7805.11,9418.42 18661.5,23245.6 30712,40806.9c1476.64,2222.07 2985.36,4489.09 4524.2,6799.55c766.544,1156.24 1542.52,2322.77 2324.12,3501.61c391.779,588.415 783.558,1180.85 1179.13,1773.28c380.398,606.999 760.911,1216.01 1145.1,1829.04c3049.39,4912.76 6307.78,9899.85 9383.5,15261.1c1557.69,2662.31 3171.82,5334.67 4742.62,8089.39c1537,2781.6 3092.73,5595.85 4665.37,8443.25c776.086,1429.98 1599.07,2837.1 2348.72,4308.02c755.279,1466.89 1516.19,2942.08 2279.05,4423.29c764.705,1481.21 1531.25,2970.71 2301.59,4464.47c762.865,1501.8 1567.12,2981 2284.69,4532.28c1471.01,3073.42 2953.29,6173.97 4446.94,9296.86c372.925,779.783 747.69,1561.57 1122.46,2345.38c352.233,798.366 706.305,1596.48 1058.54,2396.86c708.261,1600.5 1416.41,3207.28 2128.34,4818.08c2932.6,6394.22 5494.1,13103.1 8225.17,19779.2c5141.87,13533.1 9803.56,27570.1 13824.8,41870.5c7914.33,28650.2 12604.2,58506 14047,86699.5c113.004,1761.1 178.876,3518.06 239.114,5266.73c58.399,1748.8 143.124,3489.31 180.83,5221.53c54.605,3468.59 152.55,6902.27 116.798,10301c28.28,6797.29 -209.11,13444.5 -519.843,19906.6c-710.099,12920 -2026.61,25082.9 -3751.9,36194.5c-1736.57,11113.6 -3885.6,21171.9 -6104.3,29969c-2211.23,8803.25 -4571.22,16316.5 -6609.2,22449.4c-1047.16,3055.09 -1973.84,5787.22 -2872.36,8118.15c-871.961,2343.24 -1600.91,4343.05 -2262.04,5927.1c-1282.59,3190.95 -1966.37,4892.41 -1966.37,4892.41Z" style="fill:url(#_Linear19);"/><path d="M375420,522856c1020.83,-121.425 2938.23,-2740.29 5733.33,-7924.77c698.718,-1296.12 1452.16,-2752.72 2258.25,-4371.81c399.366,-812.681 817.47,-1660.27 1252.59,-2546.91c414.311,-897.064 824.943,-1845.49 1256.27,-2826.8c1717.71,-3937.71 3636.95,-8531.77 5744.6,-13788.2c981.287,-2662.18 2005.91,-5488.86 3073.88,-8486.44c531.109,-1499.79 1075.44,-3040.65 1634.83,-4620.68c276.82,-792.088 557.549,-1594.47 841.957,-2407.03c288.086,-810.673 568.7,-1635.66 824.943,-2481.12c1049.11,-3378.18 2149.04,-6918.84 3299.77,-10622c565.137,-1855.66 1152.69,-3750.49 1725.3,-5696.68c531.224,-1962.77 1073.6,-3966.59 1627.35,-6009.47c4548.57,-16318.7 8835.38,-35680.1 12368.9,-58059.6c3512.68,-22377.5 6162.7,-47822.4 6966.95,-76162c165.771,-3538.53 150.711,-7128.54 178.991,-10759.7c20.692,-3631.2 41.385,-7303.46 60.238,-11021.1c-82.885,-3717.59 -167.609,-7476.24 -254.288,-11280.2c-97.945,-3801.97 -150.711,-7649.15 -403.045,-11531.4c-210.949,-3882.09 -423.853,-7809.5 -638.48,-11778.1c-62.193,-991.617 -94.151,-1987.38 -180.83,-2983.14c-82.885,-995.761 -165.771,-1993.53 -250.495,-2993.43c-167.61,-2001.69 -337.174,-4011.67 -506.738,-6034.09c-171.288,-2022.29 -344.646,-4052.86 -517.888,-6097.87c-92.312,-1018.36 -161.977,-2045.01 -274.981,-3069.53c-114.959,-1022.51 -227.963,-2047.02 -342.807,-3075.68c-465.237,-4108.36 -936.108,-8260.17 -1412.61,-12454.9c-4251.06,-33474.6 -11385.6,-69082.9 -21341.7,-106372c-9942.89,-37311.5 -22622.5,-76289.3 -36933.2,-117401c-0,-0 595.141,1981.23 1710.24,5696.81c1109.35,3719.6 2736.7,9173.56 4808.49,16112.7c4105.98,13897.2 9950.47,33762.7 16361.8,57833.5c796.663,3009.88 1612.3,6081.3 2440.92,9214.74c798.618,3141.48 1612.3,6344.74 2439.19,9601.5c414.311,1627.37 830.576,3271.07 1252.47,4925.06c401.206,1662.28 808.045,3337.12 1216.72,5026.02c813.677,3376.04 1642.41,6805.58 2480.58,10280.6c3224.47,13944.4 6450.9,28709.8 9364.64,44100.5c2870.4,15401.3 5471.57,31411.3 7594.17,47781.4c482.252,4100.07 966.227,8216.97 1450.32,12345.9c263.715,2061.34 442.591,4137.24 642.274,6215.15c197.729,2075.9 393.618,4155.83 591.462,6237.76c186.463,2082.06 419.944,4161.98 568.815,6252.2c144.963,2090.22 290.041,4182.57 435.004,6276.93l435.118,6282.96c131.858,2096.5 323.954,4188.72 384.192,6291.37c173.357,4201.03 346.6,8400.05 519.843,12596.9l131.857,3145.62c39.546,1049.25 35.867,2098.51 56.56,3147.76c28.165,2098.38 56.445,4194.88 86.564,6289.11c28.28,2094.36 56.559,4186.72 86.679,6274.93c9.426,1045.11 35.752,2090.22 33.912,3133.19l-43.339,3127.17c-56.445,4168.13 -113.004,8323.96 -169.449,12463.2c-3.794,2071.76 -113.004,4133.22 -194.05,6192.55c-84.725,2057.32 -167.61,4112.63 -252.334,6161.66c-173.358,4096.18 -295.789,8177.92 -619.742,12218.5c-274.981,4044.7 -549.962,8064.66 -823.104,12055.9l-101.623,1495.65l-139.445,1487.49c-94.151,991.617 -188.302,1981.23 -284.408,2968.7c-188.302,1972.94 -374.765,3941.86 -563.182,5900.35c-655.379,7848.68 -1723.35,15504 -2621.75,23017.4c-118.638,938.124 -224.17,1876.25 -352.234,2808.22c-141.284,927.828 -280.614,1855.66 -419.944,2779.47c-278.774,1845.36 -555.709,3682.56 -830.691,5507.45c-274.981,1826.78 -549.962,3641.37 -821.149,5443.66c-282.568,1800.15 -514.21,3600.31 -853.223,5363.42c-2454.25,14160.5 -5059.1,27485.8 -7936.97,39636.3c-719.526,3038.64 -1422.04,6011.48 -2109.49,8918.4c-173.357,728.299 -342.806,1450.44 -514.209,2168.45c-171.404,718.002 -371.087,1421.69 -555.71,2125.25c-374.766,1407.25 -743.898,2795.91 -1109.35,4166c-728.838,2742.42 -1440.89,5414.9 -2132.02,8013.3c-352.233,1296.12 -670.553,2583.95 -1037.85,3832.86c-371.087,1246.65 -734.586,2476.97 -1092.45,3686.7c-1444.57,4832.64 -2757.4,9373.09 -4041.95,13541.2c-1356.05,4135.23 -2601.05,7935.07 -3725.46,11366.7c-565.137,1713.76 -1098.09,3336.99 -1601.03,4865.54c-542.374,1507.96 -1052.79,2921.36 -1525.62,4236.07c-947.374,2631.29 -1753.46,4867.55 -2407.12,6682.15c-1307.08,3627.06 -2003.96,5562.95 -2003.96,5562.95Z" style="fill:url(#_Linear20);stroke:#1e0d0f;stroke-width:0.88px;"/><path d="M375420,522856c-629.053,-987.474 -357.866,-4464.35 840.003,-10371c299.467,-1477.07 657.333,-3106.45 1071.76,-4888.14c212.789,-886.767 435.004,-1814.6 668.599,-2783.61c216.583,-975.167 442.591,-1991.4 678.026,-3046.8c954.962,-4219.61 2128.34,-9050.12 3520.26,-14487.6c623.421,-2750.71 1297.65,-5655.62 2024.77,-8712.84c367.293,-1526.54 743.898,-3094.14 1130.04,-4700.92c195.889,-802.385 393.618,-1615.07 593.301,-2435.91c207.156,-820.843 406.839,-1653.99 583.875,-2507.86c751.484,-3390.48 1538.84,-6945.46 2363.78,-10663.1c420.059,-1853.65 847.59,-3746.35 1286.39,-5680.23c393.733,-1948.33 794.824,-3937.71 1205.46,-5968.29c3450.6,-16176.8 6855.9,-35120.6 9850.57,-56847.9c2975.93,-21727.3 5433.86,-46285.5 6522.52,-73654.2c201.522,-3419.24 227.963,-6885.82 308.893,-10393.6c77.253,-3507.64 156.344,-7058.6 235.436,-10652.8c-11.266,-3594.16 -22.532,-7229.37 -33.913,-10907.9c-15.06,-3680.55 20.692,-7404.29 -131.858,-11165.1c-105.417,-3762.8 -212.788,-7568.91 -320.159,-11416.1c-31.959,-962.736 -35.753,-1929.74 -92.312,-2894.61c-52.766,-966.88 -107.372,-1933.89 -160.023,-2904.91c-103.692,-1942.17 -209.109,-3896.53 -314.641,-5859.29c-105.417,-1966.78 -208.995,-3941.86 -314.527,-5927.1c-58.399,-991.617 -90.358,-1989.39 -169.449,-2987.28c-77.252,-995.76 -154.505,-1995.54 -233.596,-2997.45c-308.894,-4009.79 -623.421,-8062.65 -939.787,-12156.7c-2934.55,-32732 -8227.13,-68043.7 -15870.3,-105689c-7628.08,-37653.1 -17539,-77628.7 -28512.2,-120156c-0,-0 595.141,1981.23 1710.24,5696.81c1109.35,3719.6 2736.7,9173.56 4808.49,16112.7c4105.98,13897.2 9950.47,33762.7 16361.8,57833.5c796.663,3009.88 1612.3,6081.3 2440.92,9214.74c798.618,3141.48 1612.3,6344.74 2439.19,9601.5c414.311,1627.37 830.576,3271.07 1252.47,4925.06c401.206,1662.28 808.045,3337.12 1216.72,5026.02c813.677,3376.04 1642.41,6805.58 2480.58,10280.6c3224.47,13944.4 6450.9,28709.8 9364.64,44100.5c2870.4,15401.3 5471.57,31411.3 7594.17,47781.4c482.252,4100.07 966.227,8216.97 1450.32,12345.9c263.715,2061.34 442.591,4137.24 642.274,6215.15c197.729,2075.9 393.618,4155.83 591.462,6237.76c186.463,2082.06 419.944,4161.98 568.815,6252.2c144.963,2090.22 290.041,4182.57 435.004,6276.93l435.118,6282.96c131.858,2096.5 323.954,4188.72 384.192,6291.37c173.357,4201.03 346.6,8400.05 519.843,12596.9l131.857,3145.62c39.546,1049.25 35.867,2098.51 56.56,3147.76c28.165,2098.38 56.445,4194.88 86.564,6289.11c28.28,2094.36 56.559,4186.72 86.679,6274.93c9.426,1045.11 35.752,2090.22 33.912,3133.19l-43.339,3127.17c-56.445,4168.13 -113.004,8323.96 -169.449,12463.2c-3.794,2071.76 -113.004,4133.22 -194.05,6192.55c-84.725,2057.32 -167.61,4112.63 -252.334,6161.66c-173.358,4096.18 -295.789,8177.92 -619.742,12218.5c-274.981,4044.7 -549.962,8064.66 -823.104,12055.9l-101.623,1495.65l-139.445,1487.49c-94.151,991.617 -188.302,1981.23 -284.408,2968.7c-188.302,1972.94 -374.765,3941.86 -563.182,5900.35c-655.379,7848.68 -1723.35,15504 -2621.75,23017.4c-118.638,938.124 -224.17,1876.25 -352.234,2808.22c-141.284,927.828 -280.614,1855.66 -419.944,2779.47c-278.774,1845.36 -555.709,3682.56 -830.691,5507.45c-274.981,1826.78 -549.962,3641.37 -821.149,5443.66c-282.568,1800.15 -514.21,3600.31 -853.223,5363.42c-2454.25,14160.5 -5059.1,27485.8 -7936.97,39636.3c-719.526,3038.64 -1422.04,6011.48 -2109.49,8918.4c-173.357,728.299 -342.806,1450.44 -514.209,2168.45c-171.404,718.002 -371.087,1421.69 -555.71,2125.25c-374.766,1407.25 -743.898,2795.91 -1109.35,4166c-728.838,2742.42 -1440.89,5414.9 -2132.02,8013.3c-352.233,1296.12 -670.553,2583.95 -1037.85,3832.86c-371.087,1246.65 -734.586,2476.97 -1092.45,3686.7c-1444.57,4832.64 -2757.4,9373.09 -4041.95,13541.2c-1356.05,4135.23 -2601.05,7935.07 -3725.46,11366.7c-565.137,1713.76 -1098.09,3336.99 -1601.03,4865.54c-542.374,1507.96 -1052.79,2921.36 -1525.62,4236.07c-947.374,2631.29 -1753.46,4867.55 -2407.12,6682.15c-1307.08,3627.06 -2003.96,5562.95 -2003.96,5562.95Z" style="fill:#3c5426;"/><path d="M373538,519237c966.227,-106.985 2847.87,-2448.22 4932.87,-7531.87c1041.53,-2536.74 2103.86,-5756.45 3092.62,-9644.69c987.035,-3886.36 1889.23,-8447.39 2650.14,-13599c774.131,-5161.76 1418.24,-10885.2 2083.05,-17137.4c664.921,-6268.65 1333.52,-13148.3 1998.44,-20639.1c1324.09,-14981.4 2634.97,-32410.9 3748.11,-52325.8c1113.14,-19910.8 2024.77,-42312.9 2352.51,-67216.7c105.417,-6223.44 103.577,-12609.4 135.536,-19143.3c-37.591,-6540.25 -39.546,-13228.7 -173.243,-20077.5c-82.885,-6846.77 -293.834,-13849.9 -491.563,-21003.1c-269.348,-7155.41 -533.063,-14460.9 -941.741,-21918.7c-781.718,-14913.6 -1883.48,-30427.8 -3450.6,-46501.7c-1578.38,-16073.8 -3640.74,-32707.2 -6326.63,-49822.2c-5379.14,-34209 -13304.9,-70432.3 -25336.5,-107326c-0,0 472.709,1783.83 1361.68,5124.72c444.545,1672.83 992.668,3734.17 1636.78,6157.64c329.587,1207.72 653.54,2518.16 990.714,3919.25c342.806,1398.84 706.305,2884.32 1090.61,4456.19c3079.4,12557.9 7095.02,30651.9 10762.2,52653c3723.62,21986.3 6985.81,47892.2 9225.32,75793.6c1154.53,13948.7 1970.05,28401.4 2595.42,43094.7c615.834,14695.4 988.759,29639.8 1101.76,44588.2c126.224,14946.5 41.5,29894.9 -197.729,44604.8c-258.082,14711.9 -672.393,29183.1 -1163.96,43185.1c-1002.09,28000.1 -2344.93,54113.8 -3546.59,76489.1c-617.787,11185.7 -1184.76,21439.4 -1687.59,30528.5c-495.357,9089.3 -1075.55,17009.9 -1979.59,23465.8c-881.502,6457.88 -2000.28,11442.8 -2921.33,14771.5c-237.275,829.131 -446.384,1563.58 -627.214,2195.19c-188.302,631.611 -367.178,1152.09 -499.036,1577.9c-273.141,845.581 -414.425,1281.81 -414.425,1281.81Z" style="fill:url(#_Linear21);stroke:#1e0d0f;stroke-width:0.88px;"/><path d="M373538,519237c-702.513,-911.379 -532.949,-3966.59 -188.303,-9210.73c354.073,-5256.44 789.191,-12693.6 819.31,-22673.7c9.427,-5056.78 20.693,-10712.4 33.913,-16970.8c39.546,-6315.99 131.858,-13230.7 286.247,-20744c303.261,-15030.8 841.957,-32456.3 1516.19,-52278.6c672.393,-19822.3 1474.81,-42039.3 2113.28,-66659.2c182.669,-6155.51 286.362,-12459.1 448.338,-18917.1c94.152,-6453.74 250.495,-13063.9 305.101,-19818.2c105.417,-6758.24 113.004,-13662.6 161.976,-20725.4c-18.853,-7054.58 -5.633,-14267.5 -105.532,-21624.5c-158.183,-14718 -510.416,-30039 -1188.44,-45956.6c-691.246,-15915.3 -1725.3,-32421.1 -3241.49,-49499c-3045.6,-34141.2 -8034.92,-70619.7 -16687.6,-108810c-0,0 472.709,1783.83 1361.68,5124.72c444.545,1672.83 992.668,3734.17 1636.78,6157.64c329.587,1207.72 653.54,2518.16 990.714,3919.25c342.806,1398.84 706.305,2884.32 1090.61,4456.19c3079.4,12557.9 7095.02,30651.9 10762.2,52653c3723.62,21986.3 6985.81,47892.2 9225.32,75793.6c1154.53,13948.7 1970.05,28401.4 2595.42,43094.7c615.834,14695.4 988.759,29639.8 1101.76,44588.2c126.224,14946.5 41.5,29894.9 -197.729,44604.8c-258.082,14711.9 -672.393,29183.1 -1163.96,43185.1c-1002.09,28000.1 -2344.93,54113.8 -3546.59,76489.1c-617.787,11185.7 -1184.76,21439.4 -1687.59,30528.5c-495.357,9089.3 -1075.55,17009.9 -1979.59,23465.8c-881.502,6457.88 -2000.28,11442.8 -2921.33,14771.5c-237.275,829.131 -446.384,1563.58 -627.214,2195.19c-188.302,631.611 -367.178,1152.09 -499.036,1577.9c-273.141,845.581 -414.425,1281.81 -414.425,1281.81Z" style="fill:url(#_Linear22);stroke:#1e0d0f;stroke-width:0.88px;"/><path d="M381457,527627c828.737,207.691 2989.04,-1152.09 6027.05,-4721.64c1518.14,-1779.56 3226.43,-4118.66 5049.67,-7036c1819.45,-2915.21 3742.48,-6414.68 5701.26,-10447.1c1973.96,-4036.41 3983.55,-8578.99 6145.8,-13551.5c2167.89,-4989.1 4495.92,-10480 6978.33,-16479.2c4961.04,-12000.4 10543.8,-26031.3 16601.1,-42181.2c6057.17,-16150 12589.1,-34423.1 19284.9,-54946.9c1693.34,-5120.7 3339.43,-10410 5049.67,-15812.6c1657.47,-5427.21 3380.82,-10969.6 5036.45,-16682.7c1697.02,-5694.67 3330.01,-11560.1 5010.01,-17544.9c1623.56,-6009.47 3288.62,-12142.4 4872.52,-18443.9c3200.1,-12590.8 6289.04,-25778.1 9136.8,-39574.5c2838.44,-13798.5 5420.64,-28207.9 7611.18,-43210c4367.85,-29987.3 7145.94,-62427.3 6697.72,-96685.7c0,-0 -65.986,1623.1 -194.05,4663.88c-62.192,1520.39 -141.284,3396.64 -233.596,5602.13c-35.752,1102.75 -107.371,2287.86 -188.302,3550.84c-77.252,1265.48 -160.137,2608.82 -246.701,4026.24c-689.407,11350.2 -2030.4,27570.1 -4667.32,46921.3c-2587.95,19355.2 -6567.7,41815 -11909.3,65612.1c-2640.6,11907.7 -5693.79,24128.2 -8965.39,36490.7c-3281.03,12360.4 -6825.67,24852.5 -10587,37264.2c-3751.91,12418 -7677.05,24772.2 -11670,36883.7c-4008.15,12103.2 -8084.01,23963.6 -12101.5,35406.4c-8053.77,22883.5 -15898.4,44096.6 -22667.7,62256.5c-3395.88,9074.86 -6511.26,17392.7 -9270.49,24766.1c-2755.56,7375.53 -5277.52,13757.3 -7692.11,18824.5c-2395.85,5077.38 -4608.92,8860.89 -6228.69,11335.7c-410.633,613.152 -774.132,1156.24 -1086.82,1625.36c-318.321,464.982 -600.774,841.437 -821.15,1152.09c-442.705,617.171 -672.393,936.116 -672.393,936.116Z" style="fill:url(#_Linear23);stroke:#1e0d0f;stroke-width:0.88px;"/><path d="M381457,527627c-346.6,-973.158 581.921,-3450.13 2218.7,-7686.19c1649.89,-4246.36 3928.94,-10272.2 6526.32,-18528.2c1312.71,-4184.58 2781.88,-8867.04 4405.44,-14045.4c1661.15,-5217.38 3523.94,-10916.1 5588.25,-17092.2c4126.67,-12354.2 9068.97,-26621.7 14740.1,-42831.4c5669.3,-16209.6 12063.8,-34361.3 18942.2,-54556c1740.36,-5042.47 3450.6,-10231 5251.19,-15528.6c1744.04,-5316.08 3576.71,-10741.3 5364.08,-16320.7c1830.83,-5565.09 3618.21,-11280.4 5481,-17112.8c1802.44,-5851.01 3674.65,-11819.3 5490.31,-17944c3663.39,-12238.9 7324.82,-25035.5 10867.7,-38426.6c3533.37,-13393.2 6933.04,-27382.9 10082.2,-41991.8c6285.25,-29214.1 11560.8,-60960.7 14244.9,-95254c0,-0 -65.986,1623.1 -194.05,4663.88c-62.192,1520.39 -141.284,3396.64 -233.596,5602.13c-35.752,1102.75 -107.371,2287.86 -188.302,3550.84c-77.252,1265.48 -160.137,2608.82 -246.701,4026.24c-689.407,11350.2 -2030.4,27570.1 -4667.32,46921.3c-2587.95,19355.2 -6567.7,41815 -11909.3,65612.1c-2640.6,11907.7 -5693.79,24128.2 -8965.39,36490.7c-3281.03,12360.4 -6825.67,24852.5 -10587,37264.2c-3751.91,12418 -7677.05,24772.2 -11670,36883.7c-4008.15,12103.2 -8084.01,23963.6 -12101.5,35406.4c-8053.77,22883.5 -15898.4,44096.6 -22667.7,62256.5c-3395.88,9074.86 -6511.26,17392.7 -9270.49,24766.1c-2755.56,7375.53 -5277.52,13757.3 -7692.11,18824.5c-2395.85,5077.38 -4608.92,8860.89 -6228.69,11335.7c-410.633,613.152 -774.132,1156.24 -1086.82,1625.36c-318.321,464.982 -600.774,841.437 -821.15,1152.09c-442.705,617.171 -672.393,936.116 -672.393,936.116Z" style="fill:url(#_Linear24);stroke:#1e0d0f;stroke-width:0.88px;"/><path d="M372748,520979c3897.78,-2834.41 1624.54,-36186 -5504.16,-100395c-3479.89,-32139 -7970.91,-72062.4 -12725.8,-120089c-4619.39,-48045.9 -9530.59,-104201 -13043.5,-168950c-0,-0 -15.494,6138.48 -44.411,16877.4c-1.581,2685.12 -28.954,5657.19 -10.603,8892.27c27.755,3235.75 57.861,6733.49 87.958,10472.7c32.187,3737.31 66.333,7715.94 100.516,11909.1c79.533,4192.28 160.939,8599.19 245.933,13197.9c100.14,4598.05 160.195,9391.16 301.281,14346.6c152.58,4954.19 308.505,10075.8 467.54,15341.8c85.154,2631.54 169.786,5300.05 253.835,8001.5c112.673,2699.18 226.703,5431.56 340.519,8194.89c235.253,5523.17 475.463,11166.1 718.182,16906.3c1117.74,22942 2674.23,47379.2 4585.31,71769.1c2004.45,24377.9 4363.8,48702.2 6917.19,71446c671.871,5679.57 1333.26,11265.5 1982.36,16731c325.464,2732.87 649.28,5436.68 967.832,8107.14c345.243,2666.16 687.321,5296.98 1024.1,7896.59c677.666,5193.21 1340.7,10245.2 1979.49,15130.4c648.295,4886.02 1350.99,9588.05 1982.97,14113.9c647.535,4520.92 1266.68,8852.04 1855.41,12972.8c632.723,4111.41 1231.4,8010.08 1793.47,11675.2c564.015,3665.26 1091.79,7094.97 1579.05,10266.1c494.987,3169.49 993.813,6069.23 1421.27,8693.71c1734.77,10495.5 2724.22,16492.3 2724.22,16492.3Z" style="fill:url(#_Linear25);"/><path d="M376865,520555c-2146.6,-371.69 -333.607,-10642.9 -1339.38,-19268.4c-1920.42,-16469.5 -6372.69,-47145.9 -10183.1,-79548.6c-3792.61,-32390.7 -6921.27,-73058.8 -7847.78,-121949c-793.079,-48879.9 603.57,-106010 6585.73,-170789c-0,0 -150.341,6136.66 -415.165,16872.3c-60.568,2684.43 -153.225,5655.18 -205.947,8889.9c-43.336,3235.58 -90.076,6733.14 -142.129,10472.1c-49.923,3737.11 -103.189,7715.53 -161.129,11908.4c-12.583,4193.02 -28.008,8600.65 -44.061,13200.2c-0.895,4599.14 -46.15,9392.41 -13.959,14349.7c43.709,4956.34 87.084,10080.1 130.395,15348.4c27.323,2632.77 53.313,5302.5 77.995,8005.14c53.35,2701 107.327,5435.23 160.41,8200.39c113.862,5527.01 230.048,11173.9 346.607,16918c613.479,22961.1 1632.75,47426.5 3007.56,71852.5c1468.43,24416 1338.57,49438.8 3000.37,73730.9c1647.66,24085.3 6472.36,67888.7 6970.43,72021.4c542.25,4124.32 1641.54,11358.2 2122.96,15034.7c483.359,3676.76 1496.03,15030.8 710.864,18352.2c-1055.82,4466.35 -2760.63,16398.5 -2760.63,16398.5Z" style="fill:url(#_Linear26);"/><path d="M366675,522122c4045.74,-3398.65 -1000.14,-39695.9 -13724.9,-109363c-6272.03,-34877.7 -14248.5,-78190.5 -23134.8,-130343c-8741.22,-52182 -18422.3,-113212 -27233.2,-183747c-0,0 452.017,6710.9 1246.84,18458.4c205.316,2935.8 403.045,6188.28 670.554,9724.8c278.774,3536.52 580.081,7359.09 900.24,11444.8c322.115,4086.01 664.921,8432.95 1024.63,13016.7c406.838,4577.49 834.369,9389.53 1282.71,14413.5c461.444,5019.99 894.608,10255.7 1431.46,15662.5c544.329,5406.74 1107.4,10996.3 1687.59,16742.3c293.719,2872.26 591.347,5783.2 892.769,8731.3c329.586,2942.08 662.966,5921.07 1000.14,8932.97c681.819,6023.79 1376.74,12175.2 2083.05,18431.5c2983.41,25004.6 6562.07,51605.8 10523.1,78130.8c4064.48,26502.4 8511.42,52922.5 13048.7,77598c1171.54,6159.65 2324.23,12214.3 3452.44,18143.6c566.86,2962.55 1128.2,5894.2 1681.96,8790.82c581.921,2886.45 1158.32,5740 1725.3,8554.38c1141.31,5626.74 2252.61,11101.3 3326.21,16396.9c1082.91,5291.35 2213.07,10379.1 3252.75,15279.7c1054.75,4894.3 2064.31,9582.91 3024.91,14045.2c1005.77,4445.89 1960.62,8663.37 2857.18,12627.8c898.401,3964.46 1736.57,7673.76 2512.53,11105.4c787.352,3427.53 1555.74,6560.85 2224.45,9397.82c2700.84,11344 4243.47,17824.6 4243.47,17824.6Z" style="fill:#3c5426;stroke:#1e0d0f;stroke-width:0.88px;"/><path d="M366675,522122c-2378.84,-189.233 -6769.22,-8733.31 -12692.8,-25924.3c-5789.78,-17230.1 -13097.7,-43127.6 -20522.4,-78112.2c-7403.91,-34974.4 -14919.1,-79052.6 -20855.8,-132327c-5793.57,-53276.5 -10025.8,-115778 -10022,-187091c-0,0 452.017,6710.9 1246.84,18458.4c205.316,2935.8 403.045,6188.28 670.554,9724.8c278.774,3536.52 580.081,7359.09 900.24,11444.8c322.115,4086.01 664.921,8432.95 1024.63,13016.7c406.838,4577.49 834.369,9389.53 1282.71,14413.5c461.444,5019.99 894.608,10255.7 1431.46,15662.5c544.329,5406.74 1107.4,10996.3 1687.59,16742.3c293.719,2872.26 591.347,5783.2 892.769,8731.3c329.586,2942.08 662.966,5921.07 1000.14,8932.97c681.819,6023.79 1376.74,12175.2 2083.05,18431.5c2983.41,25004.6 6562.07,51605.8 10523.1,78130.8c4064.48,26502.4 8511.42,52922.5 13048.7,77598c1171.54,6159.65 2324.23,12214.3 3452.44,18143.6c566.86,2962.55 1128.2,5894.2 1681.96,8790.82c581.921,2886.45 1158.32,5740 1725.3,8554.38c1141.31,5626.74 2252.61,11101.3 3326.21,16396.9c1082.91,5291.35 2213.07,10379.1 3252.75,15279.7c1054.75,4894.3 2064.31,9582.91 3024.91,14045.2c1005.77,4445.89 1960.62,8663.37 2857.18,12627.8c898.401,3964.46 1736.57,7673.76 2512.53,11105.4c787.352,3427.53 1555.74,6560.85 2224.45,9397.82c2700.84,11344 4243.47,17824.6 4243.47,17824.6Z" style="fill:url(#_Linear27);"/></g></g><defs><linearGradient id="_Linear2" x1="0" y1="0" x2="1" y2="0" gradientUnits="userSpaceOnUse" gradientTransform="matrix(117515,466481,-466481,117515,251126,63357.4)"><stop offset="0" style="stop-color:#bda77f;stop-opacity:1"/><stop offset="0.39" style="stop-color:#b6a67c;stop-opacity:1"/><stop offset="0.6" style="stop-color:#899d68;stop-opacity:1"/><stop offset="0.77" style="stop-color:#657849;stop-opacity:1"/><stop offset="1" style="stop-color:#182906;stop-opacity:1"/></linearGradient><linearGradient id="_Linear3" x1="0" y1="0" x2="1" y2="0" gradientUnits="userSpaceOnUse" gradientTransform="matrix(229661,393705,-393705,229661,139576,123606)"><stop offset="0" style="stop-color:#b8a66a;stop-opacity:1"/><stop offset="0.35" style="stop-color:#7e9e3b;stop-opacity:1"/><stop offset="0.79" style="stop-color:#4c6a2d;stop-opacity:1"/><stop offset="0.9" style="stop-color:#445e29;stop-opacity:1"/><stop offset="1" style="stop-color:#2a3a1d;stop-opacity:1"/></linearGradient><linearGradient id="_Linear4" x1="0" y1="0" x2="1" y2="0" gradientUnits="userSpaceOnUse" gradientTransform="matrix(94157.7,431286,-1.56858e+06,342449,277065,99913.6)"><stop offset="0" style="stop-color:#b8a66a;stop-opacity:1"/><stop offset="0.26" style="stop-color:#b6a668;stop-opacity:1"/><stop offset="0.5" style="stop-color:#aea562;stop-opacity:1"/><stop offset="0.73" style="stop-color:#9b9957;stop-opacity:1"/><stop offset="0.82" style="stop-color:#728141;stop-opacity:1"/><stop offset="0.91" style="stop-color:#4c6a2d;stop-opacity:1"/><stop offset="0.95" style="stop-color:#425b28;stop-opacity:1"/><stop offset="1" style="stop-color:#2a3a1d;stop-opacity:1"/></linearGradient><linearGradient id="_Linear5" x1="0" y1="0" x2="1" y2="0" gradientUnits="userSpaceOnUse" gradientTransform="matrix(229661,393705,-393705,229661,139576,123606)"><stop offset="0" style="stop-color:#b8a66a;stop-opacity:1"/><stop offset="0.35" style="stop-color:#7e9e3b;stop-opacity:1"/><stop offset="0.79" style="stop-color:#4c6a2d;stop-opacity:1"/><stop offset="0.9" style="stop-color:#445e29;stop-opacity:1"/><stop offset="1" style="stop-color:#2a3a1d;stop-opacity:1"/></linearGradient><linearGradient id="_Linear6" x1="0" y1="0" x2="1" y2="0" gradientUnits="userSpaceOnUse" gradientTransform="matrix(109489,418162,-74578,19527,269034,118299)"><stop offset="0" style="stop-color:#b8a66a;stop-opacity:1"/><stop offset="0.18" style="stop-color:#b6a668;stop-opacity:1"/><stop offset="0.35" style="stop-color:#aea562;stop-opacity:1"/><stop offset="0.56" style="stop-color:#929453;stop-opacity:1"/><stop offset="0.81" style="stop-color:#4c6a2d;stop-opacity:1"/><stop offset="1" style="stop-color:#2a3a1d;stop-opacity:1"/></linearGradient><linearGradient id="_Linear7" x1="0" y1="0" x2="1" y2="0" gradientUnits="userSpaceOnUse" gradientTransform="matrix(229661,393705,-393705,229661,139576,123606)"><stop offset="0" style="stop-color:#b8a66a;stop-opacity:1"/><stop offset="0.35" style="stop-color:#7e9e3b;stop-opacity:1"/><stop offset="0.79" style="stop-color:#4c6a2d;stop-opacity:1"/><stop offset="0.9" style="stop-color:#445e29;stop-opacity:1"/><stop offset="1" style="stop-color:#2a3a1d;stop-opacity:1"/></linearGradient><linearGradient id="_Linear8" x1="0" y1="0" x2="1" y2="0" gradientUnits="userSpaceOnUse" gradientTransform="matrix(117515,466481,-466481,117515,251126,63357.4)"><stop offset="0" style="stop-color:#bda77f;stop-opacity:1"/><stop offset="0.39" style="stop-color:#b6a67c;stop-opacity:1"/><stop offset="0.6" style="stop-color:#899d68;stop-opacity:1"/><stop offset="0.77" style="stop-color:#657849;stop-opacity:1"/><stop offset="1" style="stop-color:#182906;stop-opacity:1"/></linearGradient><linearGradient id="_Linear9" x1="0" y1="0" x2="1" y2="0" gradientUnits="userSpaceOnUse" gradientTransform="matrix(229661,393705,-393705,229661,139576,123606)"><stop offset="0" style="stop-color:#b8a66a;stop-opacity:1"/><stop offset="0.35" style="stop-color:#7e9e3b;stop-opacity:1"/><stop offset="0.79" style="stop-color:#4c6a2d;stop-opacity:1"/><stop offset="0.9" style="stop-color:#445e29;stop-opacity:1"/><stop offset="1" style="stop-color:#2a3a1d;stop-opacity:1"/></linearGradient><linearGradient id="_Linear10" x1="0" y1="0" x2="1" y2="0" gradientUnits="userSpaceOnUse" gradientTransform="matrix(109489,418162,-74578,19527,269034,118299)"><stop offset="0" style="stop-color:#b8a66a;stop-opacity:1"/><stop offset="0.18" style="stop-color:#b6a668;stop-opacity:1"/><stop offset="0.35" style="stop-color:#aea562;stop-opacity:1"/><stop offset="0.56" style="stop-color:#929453;stop-opacity:1"/><stop offset="0.81" style="stop-color:#4c6a2d;stop-opacity:1"/><stop offset="1" style="stop-color:#2a3a1d;stop-opacity:1"/></linearGradient><linearGradient id="_Linear11" x1="0" y1="0" x2="1" y2="0" gradientUnits="userSpaceOnUse" gradientTransform="matrix(94157.7,431286,-1.56858e+06,342449,277065,99913.6)"><stop offset="0" style="stop-color:#b8a66a;stop-opacity:1"/><stop offset="0.26" style="stop-color:#b6a668;stop-opacity:1"/><stop offset="0.5" style="stop-color:#aea562;stop-opacity:1"/><stop offset="0.73" style="stop-color:#9b9957;stop-opacity:1"/><stop offset="0.82" style="stop-color:#728141;stop-opacity:1"/><stop offset="0.91" style="stop-color:#4c6a2d;stop-opacity:1"/><stop offset="0.95" style="stop-color:#425b28;stop-opacity:1"/><stop offset="1" style="stop-color:#2a3a1d;stop-opacity:1"/></linearGradient><linearGradient id="_Linear12" x1="0" y1="0" x2="1" y2="0" gradientUnits="userSpaceOnUse" gradientTransform="matrix(109489,418162,-74578,19527,269034,118299)"><stop offset="0" style="stop-color:#b8a66a;stop-opacity:1"/><stop offset="0.18" style="stop-color:#b6a668;stop-opacity:1"/><stop offset="0.35" style="stop-color:#aea562;stop-opacity:1"/><stop offset="0.56" style="stop-color:#929453;stop-opacity:1"/><stop offset="0.81" style="stop-color:#4c6a2d;stop-opacity:1"/><stop offset="1" style="stop-color:#2a3a1d;stop-opacity:1"/></linearGradient><linearGradient id="_Linear13" x1="0" y1="0" x2="1" y2="0" gradientUnits="userSpaceOnUse" gradientTransform="matrix(94157.7,431286,-1.56858e+06,342449,277065,99913.6)"><stop offset="0" style="stop-color:#b8a66a;stop-opacity:1"/><stop offset="0.26" style="stop-color:#b6a668;stop-opacity:1"/><stop offset="0.5" style="stop-color:#aea562;stop-opacity:1"/><stop offset="0.73" style="stop-color:#9b9957;stop-opacity:1"/><stop offset="0.82" style="stop-color:#728141;stop-opacity:1"/><stop offset="0.91" style="stop-color:#4c6a2d;stop-opacity:1"/><stop offset="0.95" style="stop-color:#425b28;stop-opacity:1"/><stop offset="1" style="stop-color:#2a3a1d;stop-opacity:1"/></linearGradient><linearGradient id="_Linear14" x1="0" y1="0" x2="1" y2="0" gradientUnits="userSpaceOnUse" gradientTransform="matrix(109489,418162,-74578,19527,269034,118299)"><stop offset="0" style="stop-color:#b8a66a;stop-opacity:1"/><stop offset="0.18" style="stop-color:#b6a668;stop-opacity:1"/><stop offset="0.35" style="stop-color:#aea562;stop-opacity:1"/><stop offset="0.56" style="stop-color:#929453;stop-opacity:1"/><stop offset="0.81" style="stop-color:#4c6a2d;stop-opacity:1"/><stop offset="1" style="stop-color:#2a3a1d;stop-opacity:1"/></linearGradient><linearGradient id="_Linear15" x1="0" y1="0" x2="1" y2="0" gradientUnits="userSpaceOnUse" gradientTransform="matrix(94157.7,431286,-1.56858e+06,342449,277065,99913.6)"><stop offset="0" style="stop-color:#b8a66a;stop-opacity:1"/><stop offset="0.26" style="stop-color:#b6a668;stop-opacity:1"/><stop offset="0.5" style="stop-color:#aea562;stop-opacity:1"/><stop offset="0.73" style="stop-color:#9b9957;stop-opacity:1"/><stop offset="0.82" style="stop-color:#728141;stop-opacity:1"/><stop offset="0.91" style="stop-color:#4c6a2d;stop-opacity:1"/><stop offset="0.95" style="stop-color:#425b28;stop-opacity:1"/><stop offset="1" style="stop-color:#2a3a1d;stop-opacity:1"/></linearGradient><linearGradient id="_Linear16" x1="0" y1="0" x2="1" y2="0" gradientUnits="userSpaceOnUse" gradientTransform="matrix(117515,466481,-466481,117515,251126,63357.4)"><stop offset="0" style="stop-color:#bda77f;stop-opacity:1"/><stop offset="0.39" style="stop-color:#b6a67c;stop-opacity:1"/><stop offset="0.6" style="stop-color:#899d68;stop-opacity:1"/><stop offset="0.77" style="stop-color:#657849;stop-opacity:1"/><stop offset="1" style="stop-color:#182906;stop-opacity:1"/></linearGradient><linearGradient id="_Linear17" x1="0" y1="0" x2="1" y2="0" gradientUnits="userSpaceOnUse" gradientTransform="matrix(109489,418162,-74578,19527,269034,118299)"><stop offset="0" style="stop-color:#b8a66a;stop-opacity:1"/><stop offset="0.18" style="stop-color:#b6a668;stop-opacity:1"/><stop offset="0.35" style="stop-color:#aea562;stop-opacity:1"/><stop offset="0.56" style="stop-color:#929453;stop-opacity:1"/><stop offset="0.81" style="stop-color:#4c6a2d;stop-opacity:1"/><stop offset="1" style="stop-color:#2a3a1d;stop-opacity:1"/></linearGradient><linearGradient id="_Linear18" x1="0" y1="0" x2="1" y2="0" gradientUnits="userSpaceOnUse" gradientTransform="matrix(109489,418162,-74578,19527,269034,118299)"><stop offset="0" style="stop-color:#b8a66a;stop-opacity:1"/><stop offset="0.18" style="stop-color:#b6a668;stop-opacity:1"/><stop offset="0.35" style="stop-color:#aea562;stop-opacity:1"/><stop offset="0.56" style="stop-color:#929453;stop-opacity:1"/><stop offset="0.81" style="stop-color:#4c6a2d;stop-opacity:1"/><stop offset="1" style="stop-color:#2a3a1d;stop-opacity:1"/></linearGradient><linearGradient id="_Linear19" x1="0" y1="0" x2="1" y2="0" gradientUnits="userSpaceOnUse" gradientTransform="matrix(117515,466481,-466481,117515,251126,63357.4)"><stop offset="0" style="stop-color:#bda77f;stop-opacity:1"/><stop offset="0.39" style="stop-color:#b6a67c;stop-opacity:1"/><stop offset="0.6" style="stop-color:#899d68;stop-opacity:1"/><stop offset="0.77" style="stop-color:#657849;stop-opacity:1"/><stop offset="1" style="stop-color:#182906;stop-opacity:1"/></linearGradient><linearGradient id="_Linear20" x1="0" y1="0" x2="1" y2="0" gradientUnits="userSpaceOnUse" gradientTransform="matrix(109489,418162,-74578,19527,269034,118299)"><stop offset="0" style="stop-color:#b8a66a;stop-opacity:1"/><stop offset="0.18" style="stop-color:#b6a668;stop-opacity:1"/><stop offset="0.35" style="stop-color:#aea562;stop-opacity:1"/><stop offset="0.56" style="stop-color:#929453;stop-opacity:1"/><stop offset="0.81" style="stop-color:#4c6a2d;stop-opacity:1"/><stop offset="1" style="stop-color:#2a3a1d;stop-opacity:1"/></linearGradient><linearGradient id="_Linear21" x1="0" y1="0" x2="1" y2="0" gradientUnits="userSpaceOnUse" gradientTransform="matrix(109489,418162,-74578,19527,269034,118299)"><stop offset="0" style="stop-color:#b8a66a;stop-opacity:1"/><stop offset="0.18" style="stop-color:#b6a668;stop-opacity:1"/><stop offset="0.35" style="stop-color:#aea562;stop-opacity:1"/><stop offset="0.56" style="stop-color:#929453;stop-opacity:1"/><stop offset="0.81" style="stop-color:#4c6a2d;stop-opacity:1"/><stop offset="1" style="stop-color:#2a3a1d;stop-opacity:1"/></linearGradient><linearGradient id="_Linear22" x1="0" y1="0" x2="1" y2="0" gradientUnits="userSpaceOnUse" gradientTransform="matrix(94157.7,431286,-1.56858e+06,342449,277065,99913.6)"><stop offset="0" style="stop-color:#b8a66a;stop-opacity:1"/><stop offset="0.26" style="stop-color:#b6a668;stop-opacity:1"/><stop offset="0.5" style="stop-color:#aea562;stop-opacity:1"/><stop offset="0.73" style="stop-color:#9b9957;stop-opacity:1"/><stop offset="0.82" style="stop-color:#728141;stop-opacity:1"/><stop offset="0.91" style="stop-color:#4c6a2d;stop-opacity:1"/><stop offset="0.95" style="stop-color:#425b28;stop-opacity:1"/><stop offset="1" style="stop-color:#2a3a1d;stop-opacity:1"/></linearGradient><linearGradient id="_Linear23" x1="0" y1="0" x2="1" y2="0" gradientUnits="userSpaceOnUse" gradientTransform="matrix(94157.7,431286,-1.56858e+06,342449,277065,99913.6)"><stop offset="0" style="stop-color:#b8a66a;stop-opacity:1"/><stop offset="0.26" style="stop-color:#b6a668;stop-opacity:1"/><stop offset="0.5" style="stop-color:#aea562;stop-opacity:1"/><stop offset="0.73" style="stop-color:#9b9957;stop-opacity:1"/><stop offset="0.82" style="stop-color:#728141;stop-opacity:1"/><stop offset="0.91" style="stop-color:#4c6a2d;stop-opacity:1"/><stop offset="0.95" style="stop-color:#425b28;stop-opacity:1"/><stop offset="1" style="stop-color:#2a3a1d;stop-opacity:1"/></linearGradient><linearGradient id="_Linear24" x1="0" y1="0" x2="1" y2="0" gradientUnits="userSpaceOnUse" gradientTransform="matrix(109489,418162,-74578,19527,269034,118299)"><stop offset="0" style="stop-color:#b8a66a;stop-opacity:1"/><stop offset="0.18" style="stop-color:#b6a668;stop-opacity:1"/><stop offset="0.35" style="stop-color:#aea562;stop-opacity:1"/><stop offset="0.56" style="stop-color:#929453;stop-opacity:1"/><stop offset="0.81" style="stop-color:#4c6a2d;stop-opacity:1"/><stop offset="1" style="stop-color:#2a3a1d;stop-opacity:1"/></linearGradient><linearGradient id="_Linear25" x1="0" y1="0" x2="1" y2="0" gradientUnits="userSpaceOnUse" gradientTransform="matrix(84558.5,473565,-473565,84558.5,259707,53149.5)"><stop offset="0" style="stop-color:#bda77f;stop-opacity:1"/><stop offset="0.39" style="stop-color:#b6a67c;stop-opacity:1"/><stop offset="0.6" style="stop-color:#899d68;stop-opacity:1"/><stop offset="0.77" style="stop-color:#657849;stop-opacity:1"/><stop offset="1" style="stop-color:#182906;stop-opacity:1"/></linearGradient><linearGradient id="_Linear26" x1="0" y1="0" x2="1" y2="0" gradientUnits="userSpaceOnUse" gradientTransform="matrix(74134.7,475308,-475308,74134.7,284054,48828.6)"><stop offset="0" style="stop-color:#bda77f;stop-opacity:1"/><stop offset="0.39" style="stop-color:#b6a67c;stop-opacity:1"/><stop offset="0.6" style="stop-color:#899d68;stop-opacity:1"/><stop offset="0.77" style="stop-color:#657849;stop-opacity:1"/><stop offset="1" style="stop-color:#182906;stop-opacity:1"/></linearGradient><linearGradient id="_Linear27" x1="0" y1="0" x2="1" y2="0" gradientUnits="userSpaceOnUse" gradientTransform="matrix(117515,466481,-466481,117515,251126,63357.4)"><stop offset="0" style="stop-color:#bda77f;stop-opacity:1"/><stop offset="0.39" style="stop-color:#b6a67c;stop-opacity:1"/><stop offset="0.6" style="stop-color:#899d68;stop-opacity:1"/><stop offset="0.77" style="stop-color:#657849;stop-opacity:1"/><stop offset="1" style="stop-color:#182906;stop-opacity:1"/></linearGradient></defs></svg>