<?xml version="1.0" encoding="UTF-8" standalone="no"?>
<!DOCTYPE svg PUBLIC "-//W3C//DTD SVG 1.1//EN" "http://www.w3.org/Graphics/SVG/1.1/DTD/svg11.dtd">
<svg width="100%" height="100%" viewBox="0 0 1169 414" version="1.1" xmlns="http://www.w3.org/2000/svg" xmlns:xlink="http://www.w3.org/1999/xlink" xml:space="preserve" xmlns:serif="http://www.serif.com/" style="fill-rule:evenodd;clip-rule:evenodd;stroke-linecap:round;stroke-linejoin:round;stroke-miterlimit:1.5;">
    <g transform="matrix(0.0143621,0,0,0.0114941,-13734.3,-3310.91)">
        <path d="M1.0374e+06,297181L1.0374e+06,314858C1.0374e+06,319736 1.03423e+06,323697 1.03032e+06,323697L963589,323697C959685,323697 956515,319736 956515,314858L956515,297181C956515,292303 959685,288342 963589,288342L1.03032e+06,288342C1.03423e+06,288342 1.0374e+06,292303 1.0374e+06,297181Z" style="fill:rgb(185,72,11);stroke:rgb(164,164,164);stroke-width:510.37px;"/>
    </g>
    <g transform="matrix(0.0246785,0,0,0.0246785,-25257.1,-8494.11)">
        <path d="M1.04713e+06,353759L1.0548e+06,350610L1.0548e+06,347979L1.04706e+06,344989L1.03943e+06,348035L1.03943e+06,350650L1.04713e+06,353759Z" style="fill:rgb(205,186,148);stroke:rgb(37,37,37);stroke-width:33.3px;"/>
    </g>
    <g transform="matrix(0.0246785,0,0,0.0246785,-25257.1,-8494.11)">
        <path d="M1.04712e+06,360127L1.04e+06,357119L1.0399e+06,350836L1.04713e+06,353759L1.04712e+06,360127Z" style="fill:rgb(205,186,148);stroke:rgb(37,37,37);stroke-width:33.3px;"/>
    </g>
    <g transform="matrix(0.0246785,0,0,0.0246785,-25257.1,-8494.11)">
        <path d="M1.05428e+06,357043L1.05426e+06,350835L1.04713e+06,353759L1.04712e+06,360127L1.05428e+06,357043Z" style="fill:rgb(205,186,148);stroke:rgb(37,37,37);stroke-width:33.3px;"/>
    </g>
    <g transform="matrix(0.0246785,0,0,0.0246785,-25257.1,-8494.11)">
        <path d="M1.05159e+06,349288L1.04396e+06,346224L1.03943e+06,348035L1.0471e+06,351074L1.05159e+06,349288Z" style="fill:rgb(205,186,148);stroke:rgb(37,37,37);stroke-width:33.3px;"/>
    </g>
    <g transform="matrix(0.0246785,0,0,0.0246785,-25257.1,-8494.11)">
        <path d="M1.05159e+06,349281L1.0548e+06,347986" style="fill:none;stroke:rgb(37,37,37);stroke-width:33.3px;"/>
    </g>
    <g transform="matrix(0.0246785,0,0,0.0246785,-25257.1,-8494.11)">
        <path d="M1.04196e+06,350665L1.04392e+06,351429" style="fill:rgb(205,186,148);stroke:rgb(37,37,37);stroke-width:33.3px;"/>
    </g>
    <g transform="matrix(0.0246785,0,0,0.0246785,-25257.1,-8494.11)">
        <path d="M1.0471e+06,351074L1.04713e+06,353759" style="fill:none;stroke:rgb(37,37,37);stroke-width:33.3px;"/>
    </g>
    <g transform="matrix(0.00407176,-0.00163132,0.00163132,0.00407176,-4276.91,583.965)">
        <path d="M1.07407e+06,354416L1.06501e+06,354389" style="fill:none;stroke:rgb(37,37,37);stroke-width:187.33px;"/>
    </g>
    <g transform="matrix(0.00407176,-0.00163132,0.00163132,0.00407176,-4276.91,583.965)">
        <path d="M1.06534e+06,348119L1.07438e+06,354400L1.08265e+06,360596L1.07447e+06,363957L1.06527e+06,360965L1.07379e+06,345259L1.06498e+06,354408L1.07447e+06,363957L1.0827e+06,354617L1.07438e+06,354400L1.06527e+06,360965C1.06527e+06,360965 1.07139e+06,356448 1.07438e+06,354400C1.07734e+06,352370 1.08318e+06,348679 1.08318e+06,348679L1.07379e+06,345259L1.0827e+06,354617L1.07438e+06,354400L1.08265e+06,360596L1.07379e+06,345259L1.08318e+06,348679L1.07447e+06,363957L1.06534e+06,348119Z" style="fill:none;stroke:rgb(37,37,37);stroke-width:187.33px;"/>
    </g>
    <g transform="matrix(0.00407176,-0.00163132,0.00163132,0.00407176,-4276.91,583.965)">
        <path d="M1.07379e+06,345259L1.06536e+06,348130" style="fill:none;stroke:rgb(37,37,37);stroke-width:187.33px;"/>
    </g>
    <g transform="matrix(0.00477479,-0.00191298,0.00218835,0.00546211,-5228.88,382.862)">
        <ellipse cx="1.06547e+06" cy="360973" rx="1863.7" ry="1649.18" style="fill:rgb(185,72,11);stroke:rgb(37,37,37);stroke-width:148.68px;"/>
    </g>
    <g transform="matrix(0.00477479,-0.00191298,0.00218835,0.00546211,-5239.37,356.688)">
        <ellipse cx="1.06547e+06" cy="360973" rx="1863.7" ry="1649.18" style="fill:rgb(185,72,11);stroke:rgb(37,37,37);stroke-width:148.68px;"/>
    </g>
    <g transform="matrix(0.00477479,-0.00191298,0.00218835,0.00546211,-5249.85,330.514)">
        <ellipse cx="1.06547e+06" cy="360973" rx="1863.7" ry="1649.18" style="fill:rgb(185,72,11);stroke:rgb(37,37,37);stroke-width:148.68px;"/>
    </g>
    <g transform="matrix(0.00477479,-0.00191298,0.00218835,0.00546211,-5217.11,305.73)">
        <ellipse cx="1.06547e+06" cy="360973" rx="1863.7" ry="1649.18" style="fill:rgb(185,72,11);stroke:rgb(37,37,37);stroke-width:148.68px;"/>
    </g>
    <g transform="matrix(0.00477479,-0.00191298,0.00218835,0.00546211,-5175.73,303.597)">
        <ellipse cx="1.06547e+06" cy="360973" rx="1863.7" ry="1649.18" style="fill:rgb(185,72,11);stroke:rgb(37,37,37);stroke-width:148.68px;"/>
    </g>
    <g transform="matrix(0.00477479,-0.00191298,0.00218835,0.00546211,-5165.68,328.683)">
        <ellipse cx="1.06547e+06" cy="360973" rx="1863.7" ry="1649.18" style="fill:rgb(185,72,11);stroke:rgb(37,37,37);stroke-width:148.68px;"/>
    </g>
    <g transform="matrix(0.00477479,-0.00191298,0.00218835,0.00546211,-5155.63,353.769)">
        <ellipse cx="1.06547e+06" cy="360973" rx="1863.7" ry="1649.18" style="fill:rgb(185,72,11);stroke:rgb(37,37,37);stroke-width:148.68px;"/>
    </g>
    <g transform="matrix(0.00477479,-0.00191298,0.00218835,0.00546211,-5187.37,379.978)">
        <ellipse cx="1.06547e+06" cy="360973" rx="1863.7" ry="1649.18" style="fill:rgb(185,72,11);stroke:rgb(37,37,37);stroke-width:148.68px;"/>
    </g>
    <g transform="matrix(0.00477479,-0.00191298,0.00218835,0.00546211,-5202.24,342.854)">
        <ellipse cx="1.06547e+06" cy="360973" rx="1863.7" ry="1649.18" style="fill:rgb(185,72,11);stroke:rgb(37,37,37);stroke-width:148.68px;"/>
    </g>
    <g transform="matrix(0.136695,0.0511519,-0.0511519,0.136695,491.816,276.967)">
        <g transform="matrix(1,0,0,1,-400,-400)">
            <g transform="matrix(42.1053,0,0,42.1053,147.368,0)">
                <path d="M11.16,16.153C11.159,16.414 10.945,16.627 10.684,16.628L1.316,16.628C1.056,16.627 0.842,16.413 0.841,16.153L0.841,3.046C0.842,2.786 1.056,2.572 1.316,2.571L8.266,2.571L11.159,5.464L11.16,16.153ZM10.05,6.229L8.059,6.229C7.744,6.228 7.486,5.97 7.485,5.655L7.485,3.679L1.95,3.679L1.95,15.519L10.052,15.519L10.05,6.229ZM3.907,4.92C3.907,4.92 3.906,4.92 3.906,4.92C3.341,4.92 2.876,5.385 2.876,5.95C2.876,6.515 3.341,6.98 3.906,6.98C4.471,6.98 4.936,6.515 4.936,5.95C4.936,5.385 4.471,4.92 3.906,4.92L3.907,4.92ZM8.865,8.173L2.995,8.173L2.995,9.281L8.865,9.281L8.865,8.173ZM8.865,10.527L2.995,10.527L2.995,11.636L8.865,11.636L8.865,10.527ZM8.865,12.881L2.995,12.881L2.995,13.99L8.865,13.99L8.865,12.881Z" style="fill:rgb(185,72,11);fill-rule:nonzero;"/>
            </g>
        </g>
    </g>
</svg>
