<?xml version="1.0" encoding="UTF-8" standalone="no"?>
<!DOCTYPE svg PUBLIC "-//W3C//DTD SVG 1.1//EN" "http://www.w3.org/Graphics/SVG/1.1/DTD/svg11.dtd">
<svg width="100%" height="100%" viewBox="0 0 2500 2500" version="1.1" xmlns="http://www.w3.org/2000/svg" xmlns:xlink="http://www.w3.org/1999/xlink" xml:space="preserve" xmlns:serif="http://www.serif.com/" style="fill-rule:evenodd;clip-rule:evenodd;stroke-linecap:round;stroke-linejoin:round;stroke-miterlimit:1.5;">
    <g transform="matrix(0.0710442,0,0,0.101845,-73744.6,-26663.7)">
        <g>
            <g id="Background---Favicon" serif:id="Background - Favicon" transform="matrix(-153.544,0,0,85.7932,1.07677e+06,145322)">
                <ellipse cx="137.857" cy="1500.79" rx="114.59" ry="143.048" style="fill:rgb(32,30,31);"/>
            </g>
            <g transform="matrix(4.70728,0,0,4.70728,-3.51345e+06,-932655)">
                <g>
                    <g transform="matrix(0.347368,0,0,0.242315,606894,170974)">
                        <path d="M1.04713e+06,353759L1.0548e+06,350610L1.0548e+06,347979L1.04706e+06,344989L1.03943e+06,348035L1.03943e+06,350650L1.04713e+06,353759Z" style="fill:rgb(205,186,148);stroke:rgb(37,37,37);stroke-width:7.07px;"/>
                    </g>
                    <g transform="matrix(0.347368,0,0,0.242315,606894,170974)">
                        <path d="M1.04712e+06,360127L1.04e+06,357119L1.0399e+06,350836L1.04713e+06,353759L1.04712e+06,360127Z" style="fill:rgb(205,186,148);stroke:rgb(37,37,37);stroke-width:7.07px;"/>
                    </g>
                    <g transform="matrix(0.347368,0,0,0.242315,606894,170974)">
                        <path d="M1.05428e+06,357043L1.05426e+06,350835L1.04713e+06,353759L1.04712e+06,360127L1.05428e+06,357043Z" style="fill:rgb(205,186,148);stroke:rgb(37,37,37);stroke-width:7.07px;"/>
                    </g>
                    <g transform="matrix(0.347368,0,0,0.242315,606894,170974)">
                        <path d="M1.05159e+06,349288L1.04396e+06,346224L1.03943e+06,348035L1.0471e+06,351074L1.05159e+06,349288Z" style="fill:rgb(205,186,148);stroke:rgb(37,37,37);stroke-width:7.07px;"/>
                    </g>
                    <g transform="matrix(0.347368,0,0,0.242315,606894,170974)">
                        <path d="M1.05159e+06,349281L1.0548e+06,347986" style="fill:none;stroke:rgb(37,37,37);stroke-width:7.07px;"/>
                    </g>
                    <g transform="matrix(0.347368,0,0,0.242315,606894,170974)">
                        <path d="M1.04196e+06,350665L1.04392e+06,351429" style="fill:rgb(205,186,148);stroke:rgb(37,37,37);stroke-width:7.07px;"/>
                    </g>
                    <g transform="matrix(0.347368,0,0,0.242315,606894,170974)">
                        <path d="M1.0471e+06,351074L1.04713e+06,353759" style="fill:none;stroke:rgb(37,37,37);stroke-width:7.07px;"/>
                    </g>
                </g>
                <g>
                    <g>
                        <g transform="matrix(0.057313,-0.0160177,0.022962,0.03998,902206,260110)">
                            <path d="M1.07407e+06,354416L1.06501e+06,354389" style="fill:none;stroke:rgb(37,37,37);stroke-width:39.8px;"/>
                        </g>
                        <g transform="matrix(0.057313,-0.0160177,0.022962,0.03998,902206,260110)">
                            <path d="M1.06534e+06,348119L1.07438e+06,354400L1.08265e+06,360596L1.07447e+06,363957L1.06527e+06,360965L1.07379e+06,345259L1.06498e+06,354408L1.07447e+06,363957L1.0827e+06,354617L1.07438e+06,354400L1.06527e+06,360965C1.06527e+06,360965 1.07139e+06,356448 1.07438e+06,354400C1.07734e+06,352370 1.08318e+06,348679 1.08318e+06,348679L1.07379e+06,345259L1.0827e+06,354617L1.07438e+06,354400L1.08265e+06,360596L1.07379e+06,345259L1.08318e+06,348679L1.07447e+06,363957L1.06534e+06,348119Z" style="fill:none;stroke:rgb(37,37,37);stroke-width:39.8px;"/>
                        </g>
                        <g transform="matrix(0.057313,-0.0160177,0.022962,0.03998,902206,260110)">
                            <path d="M1.07379e+06,345259L1.06536e+06,348130" style="fill:none;stroke:rgb(37,37,37);stroke-width:39.8px;"/>
                        </g>
                    </g>
                    <g>
                        <g transform="matrix(0.0672087,-0.0187833,0.0308027,0.0536316,888806,258135)">
                            <ellipse cx="1.06547e+06" cy="360973" rx="1863.7" ry="1649.18" style="fill:rgb(204,88,3);stroke:rgb(37,37,37);stroke-width:31.59px;"/>
                        </g>
                        <g transform="matrix(0.0672087,-0.0187833,0.0308027,0.0536316,888658,257878)">
                            <ellipse cx="1.06547e+06" cy="360973" rx="1863.7" ry="1649.18" style="fill:rgb(204,88,3);stroke:rgb(37,37,37);stroke-width:31.59px;"/>
                        </g>
                        <g transform="matrix(0.0672087,-0.0187833,0.0308027,0.0536316,888511,257621)">
                            <ellipse cx="1.06547e+06" cy="360973" rx="1863.7" ry="1649.18" style="fill:rgb(204,88,3);stroke:rgb(37,37,37);stroke-width:31.59px;"/>
                        </g>
                        <g transform="matrix(0.0672087,-0.0187833,0.0308027,0.0536316,888972,257378)">
                            <ellipse cx="1.06547e+06" cy="360973" rx="1863.7" ry="1649.18" style="fill:rgb(98,144,195);stroke:rgb(37,37,37);stroke-width:31.59px;"/>
                        </g>
                        <g transform="matrix(0.0672087,-0.0187833,0.0308027,0.0536316,889554,257357)">
                            <ellipse cx="1.06547e+06" cy="360973" rx="1863.7" ry="1649.18" style="fill:rgb(184,71,11);stroke:rgb(37,37,37);stroke-width:31.59px;"/>
                        </g>
                        <g transform="matrix(0.0672087,-0.0187833,0.0308027,0.0536316,889696,257604)">
                            <ellipse cx="1.06547e+06" cy="360973" rx="1863.7" ry="1649.18" style="fill:rgb(184,71,11);stroke:rgb(37,37,37);stroke-width:31.59px;"/>
                        </g>
                        <g transform="matrix(0.0672087,-0.0187833,0.0308027,0.0536316,889837,257850)">
                            <ellipse cx="1.06547e+06" cy="360973" rx="1863.7" ry="1649.18" style="fill:rgb(184,71,11);stroke:rgb(37,37,37);stroke-width:31.59px;"/>
                        </g>
                        <g transform="matrix(0.0672087,-0.0187833,0.0308027,0.0536316,889390,258107)">
                            <ellipse cx="1.06547e+06" cy="360973" rx="1863.7" ry="1649.18" style="fill:rgb(98,144,195);stroke:rgb(37,37,37);stroke-width:31.59px;"/>
                        </g>
                        <g transform="matrix(0.0672087,-0.0187833,0.0308027,0.0536316,889181,257743)">
                            <ellipse cx="1.06547e+06" cy="360973" rx="1863.7" ry="1649.18" style="fill:rgb(98,144,195);stroke:rgb(37,37,37);stroke-width:31.59px;"/>
                        </g>
                    </g>
                </g>
                <g transform="matrix(1.92409,0.502253,-0.720001,1.34219,969329,257096)">
                    <g transform="matrix(1,0,0,1,-400,-400)">
                        <g transform="matrix(42.1053,0,0,42.1053,147.368,0)">
                            <path d="M11.16,16.153C11.159,16.414 10.945,16.627 10.684,16.628L1.316,16.628C1.056,16.627 0.842,16.413 0.841,16.153L0.841,3.046C0.842,2.786 1.056,2.572 1.316,2.571L8.266,2.571L11.159,5.464L11.16,16.153ZM10.05,6.229L8.059,6.229C7.744,6.228 7.486,5.97 7.485,5.655L7.485,3.679L1.95,3.679L1.95,15.519L10.052,15.519L10.05,6.229ZM3.907,4.92C3.907,4.92 3.906,4.92 3.906,4.92C3.341,4.92 2.876,5.385 2.876,5.95C2.876,6.515 3.341,6.98 3.906,6.98C4.471,6.98 4.936,6.515 4.936,5.95C4.936,5.385 4.471,4.92 3.906,4.92L3.907,4.92ZM8.865,8.173L2.995,8.173L2.995,9.281L8.865,9.281L8.865,8.173ZM8.865,10.527L2.995,10.527L2.995,11.636L8.865,11.636L8.865,10.527ZM8.865,12.881L2.995,12.881L2.995,13.99L8.865,13.99L8.865,12.881Z" style="fill:rgb(98,144,195);fill-rule:nonzero;"/>
                        </g>
                    </g>
                </g>
            </g>
        </g>
    </g>
</svg>
