<?xml version="1.0" encoding="UTF-8" standalone="no"?>
<!DOCTYPE svg PUBLIC "-//W3C//DTD SVG 1.1//EN" "http://www.w3.org/Graphics/SVG/1.1/DTD/svg11.dtd">
<svg width="100%" height="100%" viewBox="0 0 2500 2500" version="1.1" xmlns="http://www.w3.org/2000/svg" xmlns:xlink="http://www.w3.org/1999/xlink" xml:space="preserve" xmlns:serif="http://www.serif.com/" style="fill-rule:evenodd;clip-rule:evenodd;stroke-linejoin:round;stroke-miterlimit:2;">
    <g transform="matrix(1,0,0,1,-27329.3,-26802.5)">
        <g id="Background---Favicon" serif:id="Background - Favicon" transform="matrix(-10.9084,0,0,8.7376,30083.2,14939.1)">
            <ellipse cx="137.857" cy="1500.79" rx="114.59" ry="143.048" style="fill:rgb(184,71,11);"/>
        </g>
        <g transform="matrix(0.389376,0,0,0.558186,-339959,-115007)">
            <g>
                <g transform="matrix(-0.0195841,0.858397,-0.799264,-0.00887328,974454,134280)">
                    <path d="M140528,30685.9L141057,30680.6C141046,30710 141024,30744.3 141008,30782.4C140978,30854 140951,30941.9 140947,30959.1C140918,31078.5 140898,31205.6 140887,31348.3C140879,31452.4 140877,31569.2 140878,31660.9C140879,31743.9 140878,31823.7 140882,31913.7C140890,32068.4 140925,32295.3 140948,32409.9C140961,32470.8 140979,32537.1 141001,32602.3C141022,32665.8 141038,32701.5 141055,32708.6C141069,32714.3 141089,32717.9 141092,32686.4C141093,32668.1 141086,32635.5 141075,32614.1C141063,32592 141044,32576.8 141037,32562.3C141032,32551.3 141037,32545.2 141042,32544.4C141063,32540.3 141147,32546.8 141171,32547.4C141175,32547.5 141189,32552.6 141192,32562.4C141195,32571.2 141187,32584.9 141187,32584.9L141123,32758C141114,32776.3 141100,32779.7 141083,32775.9L140522,32780.4C140470,32776.3 140463,32714.5 140450,32664.5C140428,32576.2 140400,32397.9 140386,32250.8C140386,32250.8 140371,32045.2 140369,31930.4C140366,31797.4 140361,31599.4 140370,31447.5C140375,31353.7 140385,31245.5 140398,31153.7C140404,31102.6 140414,31047.1 140421,31004.5C140428,30958.2 140442,30892.1 140455,30842.7C140473,30779.3 140490,30737.6 140490,30737.6C140490,30737.6 140500,30713 140507,30704C140513,30695.7 140528,30685.9 140528,30685.9ZM140619,32389.3C140613,32425.4 140636,32468.1 140654,32490C140665,32504.7 140684,32515.7 140703,32520.7C140710,32522.5 140721,32522.9 140726,32523.3C140743,32524.7 140763,32520 140775,32500C140787,32478.9 140796,32414.2 140795,32378.1C140794,32341.9 140781,32304.3 140764,32277.4C140746,32250.5 140714,32227.7 140693,32230.1C140671,32232.6 140648,32266.7 140636,32298.1C140624,32327.7 140622,32368.7 140619,32389.3Z" style="fill:rgb(205,186,148);"/>
                </g>
                <g transform="matrix(-0.0195841,0.858397,-0.799264,-0.00887328,974454,134280)">
                    <path d="M141646,30338.2C141657,30326.3 141676,30308.5 141693,30297.2C141721,30278.1 141729,30281.9 141749,30280.4C141795,30276.8 141973,30281.6 141973,30281.6C141973,30281.6 141988,30281 141992,30285.6C141996,30290.2 141997,30315.7 141997,30315.7C141997,30315.7 142008,30464.6 142011,30500.3C142011,30510.2 142011,30508.9 142014,30526.2C142014,30530.9 142018,30541.5 142022,30545.2C142079,30597.2 142295,30781.3 142354,30842C142367,30855.7 142379,30882.3 142378,30909C142377,30931.6 142362,30958.7 142362,30958.7C142362,30958.7 142205,31198.1 142170,31250.2C142165,31257.6 142159,31270 142155,31271.3C142151,31272.6 142138,31261.4 142131,31257.4C142097,31235.9 141978,31153.8 141945,31132.9C141942,31131.2 141936,31128.7 141933,31130.2C141931,31131.6 141929,31140.6 141928,31146.4C141921,31170.9 141910,31222.6 141896,31277.2C141875,31355 141847,31439.4 141777,31583.7C141746,31646.1 141714,31708.5 141678,31755.1C141648,31794.6 141613,31821.5 141591,31840.3C141530,31893.3 141443,31910.3 141374,31895.4C141306,31880.5 141256,31833.9 141229,31777.1C141198,31711.2 141170,31559.8 141168,31430.2C141166,31354 141165,31249.9 141170,31151.4C141174,31078.3 141182,31019.4 141186,30977.7C141187,30969 141190,30930.7 141197,30906.1C141205,30877.7 141215,30863.1 141228,30847C141264,30801.4 141356,30699.5 141411,30632.5C141480,30547.7 141590,30397.8 141646,30338.2ZM141945,30772.8C141961,30736.9 141974,30696.4 141977,30642.4C141979,30596 141961,30534.8 141946,30498C141935,30470 141910,30437.4 141892,30419.8C141873,30402.6 141845,30398.5 141823,30398.2C141802,30397.9 141777,30402 141760,30414.1C141743,30425.8 141728,30441.9 141715,30469.9C141699,30507.6 141671,30585.2 141680,30658.7C141683,30682.7 141690,30734.2 141703,30768.3C141717,30803.1 141735,30820.6 141735,30820.6C141767,30860.4 141774,30864 141842,30862.2C141879,30861.1 141924,30818.8 141945,30772.8ZM141787,30738.2C141775,30726.5 141749,30688.4 141743,30658.9C141734,30609.6 141749,30561.7 141760,30542.9C141781,30507.5 141802,30489.8 141831,30493.8C141854,30497.1 141879,30516.3 141888,30530.4C141905,30557.3 141913,30606.8 141910,30649.2C141908,30679.6 141895,30698.8 141888,30712.9C141880,30729.1 141860,30747.8 141843,30752C141826,30756.2 141794,30749.1 141787,30738.2Z" style="fill:rgb(205,186,148);"/>
                </g>
                <g transform="matrix(-0.0195841,0.858397,-0.799264,-0.00887328,974454,134280)">
                    <path d="M141119,30893.6C141105,30882.9 141057,30881 141042,30881.7C141036,30882 141031,30885.2 141027,30891.8C141022,30900.2 141018,30916.9 141015,30929.3C141001,30992.2 140977,31085 140959,31257.7C140947,31380.6 140948,31469.7 140946,31576C140945,31683.2 140946,31820.8 140950,31910.1C140953,31978.1 140963,32042 140971,32111.9C140979,32187.7 140995,32301.5 141004,32355.5C141009,32385.1 141014,32425.1 141023,32442C141032,32457.7 141062,32456.1 141062,32456.1L141288,32451.1C141288,32451.1 141302,32450.1 141304,32444.7C141308,32438.4 141308,32417.5 141310,32404C141320,32342 141353,32126.5 141363,32073C141365,32060.3 141365,32041.9 141363,32033.3C141361,32025.3 141359,32026.8 141349,32021.3C141322,32005.9 141264,31968.5 141221,31908.8C141173,31840.4 141153,31735.4 141142,31675.3C141122,31573.4 141112,31469.3 141109,31313.1C141108,31255.7 141106,31203.8 141108,31153.8C141112,31060.1 141122,30980.8 141125,30938.2C141127,30920.5 141130,30902.4 141119,30893.6Z" style="fill:rgb(205,186,148);"/>
                </g>
                <g transform="matrix(-0.0195841,0.858397,-0.799264,-0.00887328,974454,134280)">
                    <path d="M142081,30288.7C142082,30287.5 142087,30288.7 142087,30288.7L142573,30287.7C142580,30294.9 142581,30318.1 142590,30378.5C142596,30421.4 142598,30488.4 142598,30521.8C142597,30564.4 142591,30653.8 142585,30696.1C142583,30717.5 142574,30749.3 142569,30765.6C142567,30772 142568,30774.4 142565,30776C142563,30777.9 142561,30776.4 142553,30776.9C142521,30779.2 142435,30784.4 142403,30778.1C142375,30772.5 142352,30752.2 142326,30730.8C142282,30693.1 142184,30596.3 142147,30561.1C142135,30548.8 142118,30532.6 142112,30518.2C142105,30500.2 142102,30459.8 142098,30430.2C142094,30397 142085,30319.8 142082,30295.9C142082,30291.4 142081,30289.9 142081,30288.7Z" style="fill:rgb(205,186,148);"/>
                </g>
                <g transform="matrix(-0.0195841,0.858397,-0.799264,-0.00887328,974454,134280)">
                    <path d="M142634,30284L142866,30285.6L143026,30284.9C143026,30284.9 143047,30283.6 143053,30291.6C143059,30299.9 143060,30318.4 143061,30332.6C143063,30399.1 143065,30622.2 143065,30690.8C143065,30707.8 143068,30733.1 143062,30743.9C143056,30754.1 143028,30751 143028,30751L142640,30775.9L142615,30776.1C142615,30776.1 142626,30724.9 142628,30698.3C142632,30657.5 142638,30596.9 142639,30542.3C142640,30472 142632,30385.4 142623,30345.7C142619,30326.4 142613,30303.2 142615,30292.5C142617,30283.4 142634,30284 142634,30284Z" style="fill:rgb(205,186,148);"/>
                </g>
                <g transform="matrix(-0.0195841,0.858397,-0.799264,-0.00887328,974454,134280)">
                    <path d="M143103,30288.6L143656,30292.4C143656,30292.4 143705,30312.2 143719,30344.4C143726,30360.2 143740,30378.9 143747,30412.2C143755,30450.9 143756,30471.9 143756,30499.8C143755,30528.4 143753,30547.1 143743,30588.8C143735,30616.7 143721,30639.5 143713,30653.8C143692,30687.7 143658,30707.7 143627,30713.3C143531,30730.5 143137,30757.1 143137,30757.1L143105,30757.6L143106,30687C143106,30687 143107,30444.3 143103,30385C143102,30364.5 143100,30338.8 143098,30323.8C143097,30311.7 143092,30296.5 143093,30292C143094,30287.1 143103,30288.6 143103,30288.6Z" style="fill:rgb(205,186,148);"/>
                </g>
                <g transform="matrix(-0.0195841,0.858397,-0.799264,-0.00887328,974454,134280)">
                    <path d="M142551,31040.1L142860,31041.7C142860,31041.7 142892,31049.4 142914,31065C142940,31083.5 142958,31111.8 142971,31134.2C142994,31171.7 142999,31278.9 142999,31278.9C142999,31278.9 142997,31317 142989,31352.8C142981,31389.3 142966,31423.6 142955,31442.9C142933,31480.7 142908,31502.7 142880,31512.8C142845,31525.2 142773,31519.4 142744,31520.8C142730,31521.4 142706,31521 142706,31521C142706,31521 142695,31453.8 142691,31438.8C142679,31400.3 142643,31312.7 142613,31237.7C142585,31166.5 142567,31111.3 142554,31079.1C142549,31064.4 142551,31040.1 142551,31040.1Z" style="fill:rgb(205,186,148);"/>
                </g>
                <g transform="matrix(-0.0195841,0.858397,-0.799264,-0.00887328,974454,134280)">
                    <path d="M142680,31615.1C142687,31605.6 142698,31594.7 142708,31592.8C142720,31590.1 142738,31589.3 142750,31591.8C142763,31594.4 142778,31597.6 142784,31600.8C142795,31607.6 142809,31616 142822,31630.5C142837,31647.7 142853,31673.1 142861,31692.5C142875,31727.3 142879,31765.8 142878,31809.9C142877,31854.9 142866,31921.2 142849,31957.3C142842,31973.9 142833,31988.8 142822,32002.6C142811,32017 142788,32032 142768,32033.8C142706,32039.4 142451,32032.2 142451,32032.2L142191,32042.8C142154,32045.6 142121,32017.6 142094,31972.3C142065,31922.3 142054,31848 142055,31812.2C142056,31738.9 142080,31693.4 142107,31656.2C142134,31619.1 142177,31608.3 142208,31602.8C142235,31598.1 142269,31602.4 142293,31616.9C142318,31631.3 142334,31650.4 142358,31678.9C142390,31716.1 142449,31774.1 142505,31772C142567,31769.7 142599,31741.4 142626,31705.3C142652,31671.1 142666,31633.9 142680,31615.1Z" style="fill:rgb(205,186,148);"/>
                </g>
                <g transform="matrix(-0.0195841,0.858397,-0.799264,-0.00887328,974454,134280)">
                    <path d="M142132,32136.4C142132,32136.4 142256,32139 142378,32137C142471,32135.4 142563,32128 142603,32133.4C142637,32138.1 142667,32173.5 142687,32211C142707,32248.5 142717,32307.3 142715,32356.3C142713,32405.3 142696,32467.9 142676,32505.1C142655,32542.3 142624,32575 142593,32579.7C142561,32584.4 142469,32581.1 142397,32582.1C142259,32584.1 142124,32587.1 142124,32587.1C142124,32587.1 142063,32560.9 142044,32524.6C142025,32488.2 142010,32423.5 142010,32368.5C142010,32313.3 142025,32232.2 142046,32193.5C142066,32154.8 142132,32136.4 142132,32136.4Z" style="fill:rgb(205,186,148);"/>
                </g>
                <g transform="matrix(-0.0195841,0.858397,-0.799264,-0.00887328,974454,134280)">
                    <path d="M141959,32650C142013,32644.3 142037,32630.6 142037,32630.6C141971,32546.5 141950,32422.3 141950,32326.2C141949,32220.8 141984,32110.2 142070,32060.1C142010,32023.4 142001,31866.1 142006,31779.5C142010,31697.1 142029,31643.5 142066,31588.6C142080,31567.4 142098,31551.3 142127,31536.3C142147,31526.3 142170,31518.4 142189,31517.1C142216,31515.3 142250,31521.5 142249,31517.5C142249,31517.5 142199,31427.5 142179,31396.5C142164,31372.6 142153,31349.2 142129,31331.6C142101,31310.5 142032,31274.7 141999,31256C141993,31252.3 141980,31243.7 141976,31246.4C141971,31250 141963,31281.2 141960,31288.4C141949,31319.4 141938,31347.9 141914,31419.8C141893,31484.6 141863,31561.3 141832,31623.5C141810,31667.5 141773,31740.6 141738,31789.8C141694,31851.1 141679,31862.7 141651,31888C141619,31916.9 141576,31948 141546,31963.1C141535,31968.5 141517,31977.2 141497,31985.1C141473,31994.2 141468,31993.9 141452,32001.3C141442,32005.6 141425,32007.5 141420,32015.4C141413,32025.3 141408,32068.6 141408,32068.6C141408,32068.6 141361,32331.7 141349,32396.8C141346,32416.1 141342,32441.7 141344,32457.4C141347,32472 141359,32481.6 141366,32490.5C141385,32511.6 141430,32571.9 141452,32596.1C141465,32611.3 141472,32620.2 141495,32635.5C141512,32646.9 141530,32650.8 141544,32650.8C141575,32650.8 141959,32650 141959,32650Z" style="fill:rgb(205,186,148);"/>
                </g>
                <g transform="matrix(-0.0195841,0.858397,-0.799264,-0.00887328,974454,134280)">
                    <path d="M142436,30962.8C142440,30967.9 142447,30980 142452,30990.3C142470,31031.9 142513,31133.2 142544,31212.3C142573,31285.8 142627,31410.2 142639,31465.2C142644,31487.4 142646,31508.4 142645,31526.5C142645,31543.1 142642,31559.3 142637,31574.3C142633,31588.5 142625,31611.2 142617,31626C142610,31639.6 142596,31653.8 142589,31663.1C142572,31682.8 142552,31696.4 142532,31700.8C142507,31706.1 142478,31707.1 142453,31696.6C142418,31682.2 142375,31607.3 142343,31563.6C142265,31456.6 142232,31385.1 142207,31344.4C142202,31336.6 142198,31323.7 142198,31315.4C142198,31307.2 142202,31300.2 142206,31294.5C142226,31262.7 142287,31176.7 142321,31125.1C142350,31081.5 142398,31014 142411,30984.9C142414,30980.6 142420,30964.9 142423,30960.7C142427,30955.9 142432,30959.1 142436,30962.8Z" style="fill:rgb(205,186,148);"/>
                </g>
            </g>
            <g transform="matrix(0.137119,0,0,0.11308,811658,223525)">
                <rect x="973564" y="302090" width="19436" height="1534.42" style="fill:rgb(205,186,148);"/>
            </g>
        </g>
    </g>
</svg>
