<?xml version="1.0" encoding="UTF-8" standalone="no"?><!DOCTYPE svg PUBLIC "-//W3C//DTD SVG 1.1//EN" "http://www.w3.org/Graphics/SVG/1.1/DTD/svg11.dtd"><svg width="100%" height="100%" viewBox="0 0 150034 37008" version="1.1" xmlns="http://www.w3.org/2000/svg" xmlns:xlink="http://www.w3.org/1999/xlink" xml:space="preserve" xmlns:serif="http://www.serif.com/" style="fill-rule:evenodd;clip-rule:evenodd;stroke-linecap:round;stroke-linejoin:round;stroke-miterlimit:1.5;"><rect id="Campfire" x="0" y="0" width="150034" height="37007.9" style="fill:none;"/><clipPath id="_clip1"><rect x="0" y="0" width="150034" height="37007.9"/></clipPath><g clip-path="url(#_clip1)"><g><g><path d="M135272,9861.55c-128.849,-543.818 234.765,-1156.88 602.607,-1698.44c653.065,-961.474 1660.23,-1825.34 2378.24,-2587.27c645.346,-684.816 2248.18,-1945.16 3135.23,-2773.3c553.144,-516.399 856.107,-305.295 856.107,-305.295c0,-0 892.465,98.151 1814.49,740.553c401.765,279.922 536.143,723.585 1069.75,1067.19c462.236,297.646 911.026,398.305 1382.69,679.437c291.51,173.752 591.757,514.303 909.316,719.3c465.256,300.342 1371.92,626.014 1532.41,933.974c363.767,698.04 688.469,1831.51 786.71,3040.51c65.442,805.356 41.279,1538.7 84.494,2216.9c81.753,1283.03 255.62,1467.28 197.651,1989.38c-51.145,460.64 -354.597,474.233 -644.435,1281.79c-307.339,856.32 -432.858,2129.67 -1195.12,2191.9c-717.392,58.563 -1968.07,107.093 -3491.77,-370.559c-1696.81,-531.916 -3181.31,-1612.84 -4291.9,-2355.94c-1934.93,-1294.65 -4768.88,-3260.83 -5126.48,-4770.14Z" style="fill:#514032;stroke:#1e0d0f;stroke-width:0.88px;"/><path d="M149771,9794.27c0,0 -946.183,-1096.84 -1298.42,-886.362c-453.927,271.238 -2075.79,1849.38 -1623.08,2355.44c160.548,179.467 -712.57,118.761 -712.57,118.761c0,0 -1126.86,-1245.8 -1939.77,-1286.58c-591.396,572.822 -714.991,1426.33 -514.633,2474.2c-1516.96,-1677.44 -3022.89,-3123.45 -4433.77,-2573.17c-406.065,680.96 155.346,1806.44 1702.25,3384.71c-0,-0 -543.953,272.23 -1650.84,-492.174c-882.833,-609.678 -2102.26,-2051.75 -2850.82,-2562.04c-805.159,-548.878 -1215.95,-177.034 -1198.9,-746.154c52.783,-1761.63 4816.44,-5594.99 6017.25,-6769.41c335.003,-327.64 1019.37,-428.861 1623.08,-197.936c281.261,107.587 832.576,346.723 1224.15,651.465c448.912,349.362 737.652,772.506 1012.52,971.611c443.529,321.273 1022.72,532.408 1425.14,791.744c445.356,287.007 775.298,710.472 1266.79,870.918c502.33,163.985 934.686,410.416 1167.82,870.918c321.97,635.97 767.334,1892.08 783.79,3024.07Z" style="fill:#706861;stroke:#000;stroke-width:0.88px;"/><path d="M137328,9917.83c339.252,28.833 788.679,103.14 995.058,499.798c236.489,454.528 213.33,1253.01 350.907,1542.9c295.584,622.839 347.363,1727.42 347.363,1727.42c-293.352,-116.806 -716.772,-536.243 -1076.22,-808.399c-637.918,-483.002 -1363.86,-1066.76 -1880,-1658.37c-610.75,-700.038 -950.471,-1394.84 -827.31,-1715.06c0,0 2058.08,408.976 2090.2,411.707Z" style="fill:#2f2821;stroke:#000;stroke-width:0.88px;"/></g><g><path d="M121306,9891.35c-0,-0 10646.8,-943.113 14258.3,-5.794c1317.62,341.971 2558.33,2032.96 3656.89,2967.36c593.874,505.131 1511.69,529.686 2357.75,948.863c783.422,388.145 1230.43,768.068 1990.65,1216.69c1126.43,664.734 2738.77,1638.09 3349.66,2272.22c659.609,684.713 262.051,3155 305.046,4550.36c35.517,1152.68 580.861,906.697 607.637,1445.09c10.19,204.876 -78.994,367.213 -98.869,553.614c-142.45,1335.93 -552.973,1777.64 -1066.58,1868.47c-166.579,29.459 -441.008,-188.602 -651.401,-261.473c-438.881,-152.011 -896.667,-267.358 -1602.52,-360.184c-484.709,-63.744 -809.189,-222.369 -1339.52,-253.836c-653.433,-38.773 -1341.78,89.685 -1956.92,133.833c-467.836,33.575 -1307.96,117.221 -1733.95,131.052c-256.241,8.319 -675.236,-148.639 -860.913,-33.087c-494.36,307.653 -111.796,1423.13 -704.243,1747.95c-995.451,545.778 -14631.2,-43.913 -14631.2,-43.913c0,0 -3955.16,-5829.15 -3844.48,-8306.59c100.038,-2239.29 1964.63,-8570.63 1964.63,-8570.63Z" style="fill:#6d6056;stroke:#1e0d0f;stroke-width:0.88px;"/><path d="M138187,18944.1c-444.365,-1066.26 -1185.56,-1779.05 -2422.03,-2668.57c-1239.3,-891.553 -3083.1,-1827.03 -4103.7,-2392.2c-657.089,-363.875 -1033.78,-768.864 -2019.87,-998.836c-1046.93,-244.16 -3177.75,-75.902 -4261.7,-466.124c-1109.82,-399.534 -4072.21,-2525.18 -4072.21,-2525.18c-0,-0 -933.919,3422.37 -1392.96,5236.48c-691.553,2732.99 -2756.36,11161.4 -2756.36,11161.4c-0,-0 8370.79,552.733 14143.9,759.217c2033.7,72.739 3978.35,-21.919 4798.46,-26.737c692.042,-4.066 1870.63,100.752 2184.58,-675.502c336.644,-832.364 -13.036,-2624.36 146.038,-3674.99c156.347,-1032.61 200.205,-2662.73 -244.16,-3728.99Z" style="fill:#241e18;stroke:#000;stroke-width:0.88px;"/><path d="M140422,19524.4c0,0 81.594,-1078.34 -363.277,-2178.76c-380.172,-940.38 -1284.59,-1884.62 -1409.45,-2321.17c-98.847,-345.597 -83.956,-1379.8 146.886,-1184.47c230.842,195.328 3027.58,1621.81 4261.7,2113.09c451.137,179.589 895.365,-13.514 1480.34,106.903c720.912,148.4 1554.83,600.244 1662.66,727.68c67.431,79.691 819.603,290.436 962.557,1021.27c271.141,1386.18 76.686,3238.54 194.553,4122.21c52.899,396.591 444.739,725.961 512.647,1179.76c73.516,491.274 22.772,1361.86 -134.891,1894.56c-125.344,423.504 -492.239,604.152 -798.803,730.095c-692.178,284.361 -1941.76,-598.381 -3282.71,-680.971c-1338.34,-82.429 -5219.94,205.45 -5219.94,205.45c-390.371,-3331.51 402.534,-5330.2 1987.72,-5735.65Z" style="fill:#49372a;stroke:#000;stroke-width:0.88px;"/><path d="M133792,15281.7c-0,-0 900.304,1257.86 1065.42,2108.65c218.264,1124.62 244.16,4639.04 244.16,4639.04l3307.26,288.552c388.211,-1548.53 780.794,-2491.21 1997.67,-2796.74c0,-0 -1677.03,-1130.89 -2752.35,-1820.1c-498.619,-319.584 -1086.06,-758.259 -1774.48,-1337.43c-833.642,-701.347 -2087.69,-1081.97 -2087.69,-1081.97Z" style="fill:#221810;stroke:#000;stroke-width:0.88px;"/></g><g><path d="M20845.3,6396.97l-4834.62,-6363.38c0,-0 -5809.74,609.821 -7590.78,893.509c-737.746,117.51 -3078.38,652.858 -4004.35,810.857c-1104.06,188.388 -954.02,27.412 -1651.75,560.856c-678.251,518.549 -1325.46,1390.31 -1547.24,2304.29c-197.725,814.824 -321.191,2001.08 -477.588,3002.28c-212.608,1361.05 -770.757,2719.58 -737.046,4218.25c29.657,1318.49 963.316,3816.22 1000.33,4926.27c40.459,1213.49 -307.508,1229.8 6.481,1612.73c646.645,788.62 5740.94,1243.65 5740.94,1243.65c-0,0 6951.16,1016.21 7520.12,-660.715c486.002,-1432.41 3844.87,-3477.43 4317.28,-5529.98c418.066,-1816.42 2258.22,-7018.61 2258.22,-7018.61Z" style="fill:#040100;stroke:#1e0d0f;stroke-width:0.88px;"/><path d="M2955.81,2101.73c-0,-0 5052.89,1802.81 6989.67,3735.55c-0,-0 1107.37,-473.595 1833.48,-620.571c1137.17,-230.18 3825.8,-555.078 5029.54,-780.504c742.506,-139.051 2149.22,-535.683 2149.22,-535.683l-1840.64,-2416.87l-1166.65,-1480.83c-2620.7,284.381 -6161.23,688.909 -8327,1038.73c-1452,234.529 -2841.32,456.581 -4136.97,804.786c-196.997,52.943 -530.644,255.396 -530.644,255.396Z" style="fill:#9a7a5a;stroke:#000;stroke-width:0.88px;"/><path d="M9943.9,5818.66c-0,0 -986.048,5240.05 -1474.11,7307.72c-403.998,1711.54 -1252.95,4199.66 -1454.25,5098.28c-114.261,510.072 -44.595,1437.25 -44.595,1437.25c0,-0 -2154.62,-280.275 -2890.78,-397.086c-556.953,-88.374 -1039.21,-189.346 -1526.21,-303.778c-546.049,-128.307 -1093.39,-321.055 -1391.61,-426.076c-613.217,-215.952 -23.765,-1532.17 -146.08,-2170.69c-190.302,-993.434 -960.314,-2390.19 -985.603,-4016.47c-27.853,-1791.09 741.917,-4561.93 923.783,-6279.05c82.242,-776.505 147.296,-1352.64 474.084,-2087.54c451.843,-1016.14 1507.76,-1880.88 1507.76,-1880.88c0,0 2738.87,633.858 3905.43,1256.16c1215.97,648.664 3159.02,2496.27 3102.18,2462.16Z" style="fill:#9b7550;stroke:#000;stroke-width:0.88px;"/><path d="M45.715,12676.1c670.083,885.399 2370.47,887.677 4141.84,829.119c-139.182,2018.68 -76.95,4039.23 96.287,5797.56c-31.114,15.557 -1364.83,-171.795 -2320.66,-442.744c-453.737,-128.621 -765.974,-318.338 -917.968,-435.617c-331.76,-255.985 41.359,-1357.17 -71.391,-2005.61c-166.584,-958.053 -809.667,-2416.6 -928.113,-3742.71Z" style="fill:#6d5844;stroke:#000;stroke-width:0.88px;"/></g><g><path d="M36569.3,10426.1c0,-0 -8221.2,-1239.66 -11776.8,-2026.22c-2376.61,-525.751 -7464.76,-1175.75 -7745.21,-1215.36c-1696.15,-239.557 -6664.73,1099.83 -7937.68,2918.33c-1272.95,1818.5 -2567.51,3506.36 -3212.2,5416.52c-404.244,1197.74 -520.614,2970.42 -834.289,4469.29c-267.843,1279.87 -751.79,1986.51 -401.226,3144.17c334.772,1105.52 1205.92,1964.5 1995.55,2569.46c434.583,332.946 844.472,588.949 1126.66,766.758c648.495,408.622 191.474,599.211 1003.41,874.647c921.976,312.765 3315.72,661.993 4322.49,675.862c605.767,8.345 446.246,-331.372 1718.13,-592.648c1202.29,-246.979 4117.03,-505.835 5466.26,-304.636c1017.45,151.723 767.99,945.475 1660.8,1288.37c865.611,332.45 1428.09,538.941 2355.32,545.55c260.423,1.856 722.407,389.028 1475.37,561.128c627.454,143.414 1540.88,81.54 1925.05,44.923c1515.6,-144.457 3213.97,-871.115 3213.97,-871.115l7304.26,-4285.85l1910.09,-13257.1l-3569.98,-722.071Z" style="fill:url(#_Linear2);"/><path d="M8449.57,23964.8c0,0 -502.205,247.706 -917.826,165.404c-285.189,-56.474 -619.36,-261.081 -729.678,-378.969c-431.179,-460.768 -707.736,-2097.32 -939.567,-2551.04c-355.943,-696.63 -738.446,-1384.66 -738.446,-1384.66c-0,-0 -525.11,924.061 -579.678,1342.41c-76.273,584.763 -105.922,1523.73 122.038,2166.16c279.669,788.158 1251.84,1764.47 1678.01,2172.26c289.897,277.398 1249.97,809.991 1638.38,1112.06c266.668,207.391 118.099,520.591 692.084,700.366c1420.64,444.952 3972.94,688.209 4574.13,731.668c93.473,6.757 580.055,-302.558 1002.17,-465.603c494.01,-190.814 925.59,-240.417 925.59,-240.417c-2503.71,444.91 -5687.94,-641.582 -6727.2,-3369.65Z" style="fill:#7a6552;stroke:#000;stroke-width:0.88px;"/><path d="M25673.6,12301.7c-683.226,119.814 -2091.57,669.313 -2321.63,908.991c-213.145,222.053 -300.794,705.116 -503.8,999.291c-377.626,547.218 -617.962,972.396 -699.869,1913.91c-0,0 427.131,3386.54 732.224,4973.02c294.394,1530.85 716.969,3544.17 1098.34,4545.89c223.785,587.809 977.358,872.469 1189.86,1464.45c213.565,594.932 -581.327,1903.65 91.528,2105.14c394.485,118.135 1244.79,466.607 2319.04,369.812c1515.14,-136.521 3294.67,-766.433 3294.67,-766.433l7505.3,-4454.36l1769.54,-13058c-2819.32,379.912 -5691.37,182.184 -8075.71,377.89c-2427.67,199.263 -4945.97,365.498 -6399.49,620.396Z" style="fill:#381c07;stroke:#000;stroke-width:0.88px;"/><path d="M11439.5,27503.9c-620.357,-294.924 -1273.44,-837.172 -1769.54,-1403.43c-503.404,-574.592 -1250.88,-2044.12 -1250.88,-2044.12c-0,0 635.721,-651.337 823.752,-854.261c513.574,-554.253 2257.69,-2471.26 2257.69,-2471.26c0,-0 101.492,724.308 274.584,1037.32c610.187,1103.42 3357.06,5595.28 3357.06,5595.28c0,0 -727.056,184.519 -1021.98,270.962c-207.483,60.814 -622.126,384.513 -838.054,395.587c-396.622,20.339 -1234.57,-241.744 -1832.63,-526.069Z" style="fill:#2c2824;stroke:#000;stroke-width:0.88px;"/></g><g><path d="M127648,29576.3c611.907,-610.305 832.889,-681.821 992.292,-1119.33c106.026,-291.002 191.659,-246.978 263.951,-623.613c108.447,-565.006 442.368,-1951.02 386.735,-2766.43c-43.997,-644.852 138.902,-1368.78 50.689,-2064.71c-174.14,-1373.82 -528.963,-1808.97 -924.766,-2941.53c-240.932,-689.417 -423.375,-1412.73 -538.415,-2092.71c-75.407,-445.721 -77.307,-883.965 -203.393,-1242.94c-240.746,-685.414 -368.417,-1166.98 -606.814,-1580.77c-303.587,-526.94 -424.37,-1111.04 -880.304,-1177.33c-898.337,-130.621 -4192.1,832.665 -5388.39,1028.2c-1762.94,288.153 -2102.57,98.891 -2780.13,19.823c-352.765,-41.166 -1342.73,-458.511 -1797.76,-518.638c-681.675,-90.075 -1616.5,-65.53 -2292.28,-21.811c-593.811,38.416 -862.285,261.778 -1762.4,284.125c-1823.74,45.28 -3160.08,219.259 -4724.87,225.613c-776.452,3.153 -2230.79,55.444 -3030.71,-22.892c-874.555,-85.645 -1085.11,-300.734 -1683.25,-249.588c-1161.48,99.316 -2254.89,868.377 -2254.89,868.377c-0,-0 -1501.03,4062.84 -1688.66,5976.02c-175.222,1786.61 79.734,4181.97 562.849,5503.09c368.504,1007.7 881.725,1325.79 2061.25,2606.65c724.655,786.908 1363.01,1785.85 1920.29,2190.78c509.02,369.861 1245.36,308.84 2025.69,605.306c1213.67,461.102 2449.18,1195.07 2449.18,1195.07c-0,0 1421.33,-395.484 3262.5,-328.006c566.038,20.745 722.742,-811.168 1320.61,-920.433c512.402,-93.645 1340.93,89.551 1846.66,54.404c1069.42,-74.324 1729.7,-297.523 2169.61,-367.606c508.094,-80.946 1306.29,-362.984 2708.13,-683.378c1170.37,-267.489 679.646,290.359 2005.24,-8.296c1625.66,-366.259 3543,-1002.23 5062.84,-1471.87c1029.27,-318.046 969.792,141.846 1468.54,-355.591Z" style="fill:#a48d77;stroke:#1e0d0f;stroke-width:0.88px;"/><path d="M100475,15788.5c322.771,422.086 3510.47,1480.34 4751.9,1567.24c1177.46,82.422 2248.62,-972.344 3426.34,-893.829c1489.71,99.314 4275.59,1778.54 5665.99,1530.25c1315.33,-234.88 2991.11,-2456.49 3065.9,-2987.97c29.473,-209.446 -323.742,-301.39 -662.509,-375.685c-520.885,-114.235 -1611.13,-200.839 -2257.67,-163.739c-195.132,11.197 -503.32,-0.741 -736.734,35.031c-718.201,110.069 -930.212,211.615 -1706.39,258.57c-1363.08,82.46 -3362.44,207.418 -4562.65,231.215c-1026.15,20.346 -2320.15,-23.571 -3027.76,-23.571c-383.347,0 -1296,-334.079 -1705.96,-261.734c-876.484,154.674 -2573.23,662.135 -2250.46,1084.22Z" style="fill:#8f6e4c;stroke:#1e0d0f;stroke-width:0.88px;"/><path d="M116638,15093.4c-656.333,307.127 -234.159,1318.87 -849.446,1912.94c-691.228,667.392 -2049.4,1320.33 -2669.57,1906.84c-466.149,440.847 -700.963,1074.81 -1051.44,1612.21c-357.532,548.215 -1217.78,1021.3 -1093.75,1677.08c135.515,716.496 1131.15,1869.48 1906.84,2621.9c794.515,770.679 2296.15,1255.33 2860.25,2002.18c509.04,673.94 715.063,1382.46 524.38,2478.89c-190.684,1096.43 -908.035,2941.48 -908.035,2941.48c-0,-0 537.83,40.161 1376.38,-156.837c680.483,-159.865 1592.34,-559.25 2309.24,-597.34c683.736,-36.328 1276.82,97.895 1646.65,67.335c644.693,-53.272 610.697,263.362 2178.08,-340.613c669.901,-258.139 2962.37,-1037.8 3334.2,-1204.69c537.636,-241.309 773.402,48.207 1260.88,-245.654c268.737,-162.001 783.87,-688.185 1068.21,-1138.3c310.612,-491.7 582.054,-1696.92 723.597,-2722.33c162.281,-1175.65 168.75,-2189.64 120.867,-2886.62c-85.864,-1249.83 -765.566,-2324.13 -1179.25,-3643.78c-248.589,-792.995 -208.897,-1947.74 -426.638,-2514.93c-385.465,-1004.09 -730.566,-3003.1 -1874.67,-2907.76c-1144.1,95.342 -4772.48,1040.84 -6297.95,1183.85c-440.505,41.297 -1035.46,-41.434 -1661.53,-137.854c-341.162,-52.543 -446.793,-231.088 -726.154,-230.098c-246.739,0.875 -406.979,245.28 -571.152,322.104Z" style="fill:#6a5039;stroke:#1e0d0f;stroke-width:0.88px;"/><path d="M100436,15596.8c1047.49,-618.45 2245.99,6321.56 3945.93,7690.67c1394.01,1122.71 3267.68,173.522 4660.31,366.112c817.294,113.026 826.502,1546.9 1620.81,2101.33c814.536,568.554 2700.08,196.404 3266.41,1310c519.08,1020.68 1367.2,5238.84 1367.2,5238.84c0,-0 -257.734,184.279 -896.138,217.698c-795.05,41.618 -2032.58,-56.611 -2375.92,59.693c-377.631,127.92 -417.519,706.309 -808.282,785.513c-406.019,82.297 -1158.34,-35.15 -1932.3,29.511c-576.157,48.135 -1186.07,306.005 -1557.88,241.606c-887.139,-153.654 -1525.73,-722.296 -2317.27,-1027.98c-669.254,-258.457 -1496.57,-210.624 -2176.38,-778.175c-651.679,-544.067 -1435.44,-1736.97 -2072.45,-2493.22c-577.829,-685.993 -1398.94,-952.384 -1749.61,-2044.29c-423.75,-1319.46 -788.508,-3520.89 -602.199,-5681.78c215.868,-2503.71 1065.53,-5683.58 1627.77,-6015.53Z" style="fill:#181209;stroke:#1e0d0f;stroke-width:0.88px;"/></g><g><path d="M94438.2,36852.7c742.377,-28.149 1148.66,-956.667 1520.27,-2232.21c547.465,-1879.16 1741.75,-2551.51 2268.36,-3894.09c219.266,-559.009 -130.242,-1313.8 10.041,-2059.14c149.487,-794.241 784.482,-1577.75 881.261,-2102.21c243.921,-1321.83 -177.64,-3482.85 -45.951,-4446.46c97.479,-713.284 868.926,-1519.39 778.244,-2292.78c-41.445,-353.477 -1401.68,-1600.01 -1788.85,-1803.75c-996.205,-524.25 -1779.04,-826.501 -4188.39,-1341.74c-2289.7,-489.655 -7678.77,-520.382 -10376.2,-793.157c-2599.6,-262.881 -6745.91,-164.393 -8564.41,199.307c-1818.5,363.7 -5244.9,56.011 -7214.94,1238.04c-1623.86,974.314 -3989.3,3878.25 -4605.31,5854.11c-602.176,1931.49 -943.182,4992.71 462.336,6447.97c525.068,543.65 1406.48,1513.07 2374.19,2120.74c764.084,479.804 1697.35,417.182 2594.25,849.032c969.562,466.836 2641.81,1211.27 3614.43,1709.56c1427.64,731.4 2121.89,1190.44 3228.76,1581.04c1228.6,433.549 1549.27,635.863 2952.13,629.755c576.352,-2.51 1462.49,-61.14 2194.2,-66.839c1055.86,-8.222 3061.7,-9.064 4197.68,41.825c895.905,40.134 1249.74,312.644 2618.22,263.51c3077.8,-110.506 5995.03,139.008 7089.68,97.503Z" style="fill:#8c7057;stroke:#1e0d0f;stroke-width:0.88px;"/><path d="M69393.7,20545.1c1464.88,968.314 3947.74,2458.03 3947.74,2458.03l0,11470.8c0,0 -1713.46,-421.459 -2905.37,-967.374c-857.365,-392.686 -2491.76,-823.195 -4056.91,-1635.55c-1403.66,-728.535 -1863.36,-1244.46 -2795.35,-1866.22c-950.048,-633.809 -2977.54,-775.126 -2904.94,-1936.63c78.7,-1259.2 1132.29,-4465.57 2214.61,-7008.49c881.539,-2071.18 2340.32,-4270.37 2340.32,-4270.37c0,-0 3209.61,3127.65 4159.9,3755.81Z" style="fill:url(#_Linear3);stroke:#1e0d0f;stroke-width:0.88px;"/><path d="M73341.4,23003.1l1117.29,521.4c-0,-0 2202.84,-767.585 3351.86,-819.343c1377.99,-62.071 3910.5,173.8 4916.06,446.914c525.495,142.728 -223.457,968.314 1117.29,1191.77c1340.74,223.458 3724.23,95.063 5586.43,74.486c2246.99,-24.828 6219.56,347.6 7895.48,-223.457c1218.92,-415.336 2160.09,-3202.89 2160.09,-3202.89c0,0 579.549,-941.219 263.343,-1397.2c-419.007,-604.228 -2398.14,-2081.25 -2777.38,-2228.16c-1377.99,-533.814 -2508.08,-806.829 -3923.31,-1179.26c-1415.23,-372.429 -3331.41,252.292 -4457.82,19.664c-1142.11,-235.872 -2646.25,22.895 -3805.92,-214.519c-1576.61,-322.771 -4690.02,-984.204 -6378.36,-959.376c-1476.25,21.71 -4063.14,575.229 -5620.39,765.117c-1238.11,150.974 -2466.41,303.139 -3723.09,374.216c-959.606,54.275 -3949.62,566.505 -3855.82,673.71c-0,0 1469.84,1343.73 1533.95,1399.25c877.462,760.018 1312.9,1382.27 2535.14,2291.11c1565.85,1164.33 4065.18,2466.57 4065.18,2466.57Z" style="fill:#a08973;stroke:#1e0d0f;stroke-width:0.88px;"/><path d="M99624.2,20752.9c-0,0 465.81,-521.518 140.927,-1133.87c-316.485,-596.52 -1066.66,-1195.61 -1727.85,-1601.77c-656.171,-403.079 -1420.89,-794.727 -2159.42,-1012.93c-1092.46,-322.772 -3232.18,-928.39 -4585.34,-1002.88c-1259.47,-69.328 -3612.56,422.086 -3724.28,670.372c-111.728,248.285 2028.75,547.175 3053.91,819.342c1402.81,372.429 3968.78,592.138 5437.46,1117.29c1445.2,516.754 3564.6,2144.44 3564.6,2144.44Z" style="fill:#473a2e;stroke:#1e0d0f;stroke-width:0.88px;"/><path d="M97996.2,24641.8c-0,0 -4667.77,-12.414 -6852.68,0c-2162.33,12.286 -6256.8,74.486 -6256.8,74.486c0,-0 -2855.28,3016.67 -3798.77,4171.2c-701.568,858.497 -1663.51,1961.46 -1862.14,2755.97c-171.384,685.535 521.4,819.343 670.371,2011.11c148.971,1191.77 -292.884,2183.09 297.943,2309.06c413.809,88.223 773.266,352.447 1856.53,441.058c954.43,78.072 1748.97,26.587 2638.27,67.565c919.427,42.366 697.328,247.561 2018.9,300.136c980.3,38.999 3525.34,143.017 4897.75,157.195c1041.97,10.764 2701.63,214.552 3336.72,-72.126c488.868,-220.676 704.964,-1459.22 1010.59,-2093.37c338.141,-701.617 612.59,-1348.02 1099.33,-2124.44c355.206,-566.6 1018.25,-1132.79 1196.84,-1690.88c198.629,-620.714 202.638,-1793.88 332.403,-2495.02c130.307,-704.066 814.697,-1462.86 738.268,-2112.96c-76.429,-650.102 -1323.52,-1698.98 -1323.52,-1698.98Z" style="fill:#2d1407;stroke:#1e0d0f;stroke-width:0.88px;"/></g><g><path d="M49166.4,12756.7c2255.15,473.035 4570.55,1505.51 6531.18,2272.63c1960.62,767.125 4413.53,783.517 5649.69,2270.53c871.617,1048.5 1101.69,3252.65 1650.32,5030.91c513.038,1662.88 1438.76,4610.55 1641.49,5638.65c104.881,531.894 44.513,1391.32 -728.117,1851.61c-576.8,343.627 -1840.72,332.92 -2162.98,509.356c-1674.15,916.612 -4547.32,2441.61 -7153.84,3138.7c-1686.04,450.918 -4481.41,942.441 -6757.19,984.26c-2730.32,50.171 -6761.19,-376.551 -9624.73,-683.233c-796.081,-85.259 -1895.34,-7.286 -2948.46,0.081c-2169.58,15.177 -4336.65,-76 -4608.07,-1156.94c-96.284,-383.46 -307.762,-1206.88 -192.4,-1797.59c104.092,-532.987 529.652,-832.202 567.777,-1230.38c63.914,-667.535 -139.311,-1284.27 106.888,-2008.92c297.541,-875.773 1009.07,-1481.94 1600.3,-3080.16c218.869,-591.646 -57.926,-1293.9 249.194,-1987.05c1468.56,-3314.47 5139.02,-7244.03 6510.05,-8514.43c1883.32,-1745.1 7237.03,-1748.14 9668.9,-1238.04Z" style="fill:url(#_Linear4);"/><path d="M48730.4,25376.3c436.484,-44.873 733.666,-1000.24 536.297,-1489.71c-248.286,-615.748 -2085.6,-1688.34 -2026.01,-2204.78c59.589,-516.434 2045.87,-595.886 2383.54,-893.828c337.668,-297.943 -49.657,-595.886 -357.531,-893.829c-254.132,-245.934 -1147.65,-491.645 -834.24,-655.474c436.983,-228.422 2522.58,-655.474 3456.14,-715.062c933.554,-59.589 2145.19,357.531 2145.19,357.531c0,0 274.842,-15.979 412.262,-23.969c854.103,-49.657 4712.35,-273.974 4712.35,-273.974l1251.36,-2204.78c-1879.66,-1639.73 -5705.48,-2671.28 -10130.1,-3515.72c0,-0 -1100.54,-106.131 -1788.76,-166.156c-1855.09,-161.795 -4821.39,-361.957 -6255.7,-72.198c-1717.08,346.884 -3754.08,2621.9 -3754.08,2621.9l-2502.72,2800.66c0,0 2026.01,2453.06 2800.66,3039.02c599.676,453.601 1629.2,-7.108 2204.78,476.709c685.268,576.022 848.958,2458.63 1906.83,2979.43c1291.09,635.611 4777.02,943.485 5839.68,834.24Z" style="fill:#c1af9a;stroke:#000;stroke-width:0.88px;"/><path d="M59933.1,16735.9c-715.063,1132.18 -2026.01,7398.91 -2860.25,9355.4c-347.104,814.043 -2145.19,2383.54 -2145.19,2383.54c-0,-0 6147.55,-1896.9 7627.33,-2562.31c577.715,-259.778 1304.8,-748.75 1251.36,-1430.12c-119.177,-1519.51 -1261.29,-5680.77 -1906.83,-6971.86c-284.393,-568.785 -1251.36,-1906.83 -1966.42,-774.651Z" style="fill:#473324;stroke:#1e0d0f;stroke-width:0.88px;"/><path d="M52007.8,15484.6c-0,-0 -4796.88,1062.66 -6375.98,1191.77c-1038.72,84.927 -2095.53,-238.354 -3098.6,-417.12c-982.029,-175.015 -2333.89,-367.463 -2919.84,-655.474c-367.057,-180.418 -595.885,-1072.59 -595.885,-1072.59c-0,0 448.941,-417.286 792.589,-625.929c556.159,-337.669 1598.79,-1192.71 2544.37,-1400.08c1109.33,-243.279 2880.11,-109.246 4111.61,-59.589c1098.05,44.276 2353.75,-148.971 3277.37,357.531c923.623,506.503 2264.37,2681.49 2264.37,2681.49Z" style="fill:#7e6e61;stroke:#1e0d0f;stroke-width:0.88px;"/><path d="M62614.6,26210.5c478.22,-147.771 1069.31,-854.66 1416.91,-497.128c347.6,357.531 755.869,1963.58 668.688,2642.32c-79.055,615.479 -649.691,1128.11 -1191.77,1430.12c-695.199,387.325 -1662.01,561.35 -2621.9,953.417c-1410.26,576.022 -4191.41,1962.77 -5839.68,2502.72c-468.662,153.527 -1351,494.586 -2040.72,649.597c-839.221,188.61 -1578.13,31.847 -2265.95,129.881c-831.262,118.479 -1533,471.881 -1533,471.881c0,0 978.521,-3064.84 2145.19,-4052.02c1291.09,-1092.46 4270.51,-1956.49 5601.32,-2502.72c772.854,-317.216 1584.52,-530.739 2383.54,-774.651c943.485,-288.011 2494.99,-711.659 3277.37,-953.417Z" style="fill:#020101;stroke:#1e0d0f;stroke-width:0.88px;"/><path d="M49266.7,25197.5l-3694.49,5720.5l-2502.72,3336.96c0,-0 -1693.77,-95.847 -2323.95,-178.766c-754.789,-99.314 -1330.81,-337.668 -2204.78,-417.12c-634.236,-57.657 -1966.42,119.178 -1966.42,119.178c-0,-0 2028.27,-1015.43 3545.34,-1842.62c1093.96,-596.485 890.033,-1130.84 1460.09,-1613.52c1105.76,-936.267 2383.54,-3277.37 2383.54,-3277.37l5303.38,-1847.25Z" style="fill:#150f08;stroke:#1e0d0f;stroke-width:0.88px;"/><path d="M37885.3,28176.9l834.239,5541.73c-1844.36,-99.355 -4293.45,258.403 -4945.85,-59.589c-0,0 1629.95,-1259.58 2240.53,-2073.68c685.268,-913.691 1871.08,-3408.47 1871.08,-3408.47Z" style="fill:#292116;stroke:#1e0d0f;stroke-width:0.88px;"/></g></g></g><defs><linearGradient id="_Linear2" x1="0" y1="0" x2="1" y2="0" gradientUnits="userSpaceOnUse" gradientTransform="matrix(34974.5,0,0,22412.1,4497.36,18362.8)"><stop offset="0" style="stop-color:#a0560f;stop-opacity:1"/><stop offset="1" style="stop-color:#150f0a;stop-opacity:1"/></linearGradient><linearGradient id="_Linear3" x1="0" y1="0" x2="1" y2="0" gradientUnits="userSpaceOnUse" gradientTransform="matrix(10130.1,7150.63,-7150.63,10130.1,62719.8,20742.3)"><stop offset="0" style="stop-color:#262018;stop-opacity:1"/><stop offset="1" style="stop-color:#896b50;stop-opacity:1"/></linearGradient><linearGradient id="_Linear4" x1="0" y1="0" x2="1" y2="0" gradientUnits="userSpaceOnUse" gradientTransform="matrix(34248.8,0,0,21995,30429.8,23459.9)"><stop offset="0" style="stop-color:#a4886c;stop-opacity:1"/><stop offset="0.52" style="stop-color:#744c26;stop-opacity:1"/><stop offset="1" style="stop-color:#2f271b;stop-opacity:1"/></linearGradient></defs></svg>