<?xml version="1.0" encoding="UTF-8" standalone="no"?><!DOCTYPE svg PUBLIC "-//W3C//DTD SVG 1.1//EN" "http://www.w3.org/Graphics/SVG/1.1/DTD/svg11.dtd"><svg width="100%" height="100%" viewBox="0 0 141294 178938" version="1.1" xmlns="http://www.w3.org/2000/svg" xmlns:xlink="http://www.w3.org/1999/xlink" xml:space="preserve" xmlns:serif="http://www.serif.com/" style="fill-rule:evenodd;clip-rule:evenodd;stroke-linejoin:round;stroke-miterlimit:2;"><rect id="Campfire" x="-2.73179e+06" y="-159369" width="3.42249e+06" height="1.24192e+06" style="fill:none;"/><rect id="Flame---3" serif:id="Flame - 3" x="0" y="0" width="141293" height="178937" style="fill:none;"/><clipPath id="_clip1"><rect x="0" y="0" width="141293" height="178937"/></clipPath><g clip-path="url(#_clip1)"><g><path d="M15657,84339.6c0,0 -60704,94368.1 56973.3,94368.1c117677,0 48422.4,-105608 48422.4,-105608c-0,0 4071,30962.1 -17176.9,30962.1c-21246.6,-0 -30112,-41140.9 2915.43,-57045.8c-0,-0 -54644.1,14547.4 -61422.2,47863.4c-6171.2,30334.6 -44421.3,17738.5 -29712.1,-10539.8Z" style="fill:#8c3200;"/><path d="M123598,84974.9c0,0 47221.6,93732.7 -48073,93732.7c-95294.6,0 -69834.7,-76554.5 -55838.5,-84189.3c-4877.18,10603.2 5934.41,29937.3 23139.8,29937.3c17206.6,-0 33269.4,-29725.1 2520.76,-72985.6c-0,-0 25066.6,23694.9 38595.6,51530.7c12110.8,24917.8 51566.9,5874.89 39655.4,-18025.8Z" style="fill:#ae6301;"/><path d="M59124.6,178708c72818.7,4790.48 70411.8,-65315.9 65322.4,-66163.5c-8059.2,37746.7 -43049.6,33717.1 -52635.8,29071.6c-10841.4,-5253.74 -23920.1,-26103.1 -6903.63,-62172.7c-73848.7,25466.4 -54127.8,96083.9 -5782.99,99264.7Z" style="fill:#f3c669;"/><path d="M97584.4,123987c14315.8,12882 22215.8,53659.3 -22812.4,53659.3c-57000.5,0 -51313.3,-47959.1 -35724.1,-60396c-1552.84,5440.09 6766.45,9993.78 13825.4,7624.39c7430.29,-2492.29 20678.5,-14451.7 13468.2,-39687.7c15480.4,9543.44 17813.5,31173.1 16339.7,42797.3c-2124.79,16760.2 19806.3,9181.11 14903.3,-3997.23Z" style="fill:#edc163;"/><path d="M22226.8,129769c-15948.9,28390.9 -5958.99,48514.3 42682.1,48514.3c48642.4,0 57251.6,-16524.7 51691.1,-27780.1c-9216.04,-18656 -50683.1,13571.7 -40292.1,-37746.7c-7778.39,2443.12 -21544.2,12255.7 -23538.3,30536.4c-2545.35,23327.4 -36564,15373 -30542.9,-13523.9Z" style="fill:#efcf7f;"/><path d="M45778.1,174333c9838.47,6529.64 33647.2,4102.06 43360.2,-714.304c666.422,-331.266 1363.9,-723.368 2078.21,-1176.27c14944.7,-9447.69 8310.23,-32177.2 -9333.8,-33319.9c-9124.18,-590.067 -17706.1,-5592.77 -22199,-16095.1c-2638.52,-6166.05 562.898,-12136.7 3775.97,-16212.9c-12487.3,11780.8 -12717.7,19248.6 -10300.4,23986.1c2083.38,4080.08 14889.1,12128.9 7562.29,18641.7c-8588.45,7634.74 -23009.1,-210.939 -21312.6,-14419.3c-4538.15,6089.67 -4454.04,32126.8 6369.19,39309.9Z" style="fill:#fdfefc;"/><path d="M100659,19026.3c-5421.97,-3411.07 -1657.63,-11300.7 3773.38,-12913.1c3768.2,-1118.06 7775.8,-1670.61 8574.22,-6107.8c397.255,5229.14 -1506.25,7470.38 -3470.58,8376.21c-1965.62,907.098 -3149.64,2698.03 -2824.86,4375.11c1127.1,5802.38 -3356.69,7965.99 -6052.16,6269.55Z" style="fill:#fff;"/><path d="M100304,18704c-3658.2,-2300.76 -1118.04,-7624.39 2546.64,-8712.67c2541.47,-754.387 5245.98,-1127.1 5785.6,-4121.47c266.561,3528.83 -1017.12,5040.25 -2342.18,5652.32c-1326.39,612.064 -2126.09,1820.67 -1906.11,2952.94c760.883,3914.46 -2264.54,5374.11 -4083.95,4228.88Z" style="fill:#8c3200;"/><path d="M100187,18411.6c-2551.82,-1604.62 -780.313,-5317.16 1775.39,-6076.76c1772.81,-525.382 3659.51,-785.466 4034.77,-2874.04c186.356,2461.25 -709.111,3514.58 -1633.05,3941.63c-925.223,427.01 -1482.95,1269.42 -1328.97,2058.8c530.555,2730.37 -1580,3748.8 -2848.14,2950.38Z" style="fill:#ae6301;"/><path d="M24820,6918.03c14292.5,4668.85 11929.6,14058.3 10767.6,21254.4c-1162.04,7196.08 5867.12,13532.9 11547.9,6255.3c6477.89,-8302.45 -4556.27,-32077.6 -22315.5,-27509.7Z" style="fill:#8c3200;"/><path d="M29390.5,15153.2c10468.7,3420.12 8737.26,10296.6 7887.09,15567.1c-851.464,5270.56 4297.46,9912.24 8457.75,4582.12c4745.19,-6080.59 -3337.29,-23494.3 -16344.8,-20149.2Z" style="fill:#ae6301;"/><path d="M39239.3,24185.5c3319.18,2872.74 1679.65,5455.57 1159.45,8676.42c-520.199,3220.85 2626.87,6057.33 5168.33,2798.97c2899.92,-3715.15 -2183.02,-13259.9 -6327.78,-11475.4Z" style="fill:#edc163;"/></g></g></svg>