<?xml version="1.0" encoding="UTF-8" standalone="no"?><!DOCTYPE svg PUBLIC "-//W3C//DTD SVG 1.1//EN" "http://www.w3.org/Graphics/SVG/1.1/DTD/svg11.dtd"><svg width="100%" height="100%" viewBox="0 0 135761 185549" version="1.1" xmlns="http://www.w3.org/2000/svg" xmlns:xlink="http://www.w3.org/1999/xlink" xml:space="preserve" xmlns:serif="http://www.serif.com/" style="fill-rule:evenodd;clip-rule:evenodd;stroke-linejoin:round;stroke-miterlimit:2;"><rect id="Campfire" x="-2.31013e+06" y="-147592" width="3.42249e+06" height="1.24192e+06" style="fill:none;"/><rect id="Flame---1" serif:id="Flame - 1" x="-0" y="0" width="135760" height="185549" style="fill:none;"/><clipPath id="_clip1"><rect x="-0" y="0" width="135760" height="185549"/></clipPath><g clip-path="url(#_clip1)"><g><path d="M79680.8,185549c55894.1,-0 67427.7,-51151.5 45994.8,-72311.4c-21434.2,-21159.9 -23584.9,-28912.4 -16302.1,-41582.2c7282.76,-12669.8 -5450.48,-31308.9 -14346.9,-41568c-8895.12,-10260.3 4311.69,-30087.4 4311.69,-30087.4c-0,-0 -17350.3,13073.5 -8642.78,32131.9c8707.5,19059.7 -19709.3,30856 -46069.9,49975.3c-31385.3,22761.9 -68651.9,103442 35055.2,103442Z" style="fill:#5f1004;"/><path d="M121388,74604.6c0,0 35326.9,110945 -49681.5,110945c-85007.1,-0 -41236.7,-87790.6 -41236.7,-87790.6c-0,0 -3280.36,17157.5 12068.1,17157.5c15348.4,-0 39343.5,-64579.6 -2413.38,-79037.8c0,-0 32102.2,4820.25 44171.6,41060.7c10802.5,32442.5 47718.4,28783 37091.9,-2334.42Z" style="fill:#e45d06;"/><path d="M79220.1,185491c-72118.6,1851.76 -81514.5,-41499.4 -78817.8,-82424.2c0,0 15763.8,56389.7 41712.9,56389.7c11070.4,-0 19906,-8205.41 6911.35,-39668.3c-5446.53,-13190 -25743.3,-41129.3 1880.22,-57404.3c-22965,41363.5 45439.7,32314.4 63677.7,80611.3c7784.84,20617.7 -3576.66,41680.6 -35364.4,42495.8Z" style="fill:#ec7202;"/><path d="M81289.2,185314c-72756.6,4787.9 -70352.3,-65259 -65266.7,-66106.6c8051.4,37714.4 43012.1,33688.6 52589.2,29047c10832.3,-5248.57 30672.3,-30755.1 13671.4,-66793.7c73785.3,25444.4 47308.3,100675 -993.818,103853Z" style="fill:#f8b802;"/><path d="M52159.4,182764c-26527.5,-7947.9 -23565.5,-35634.9 -9903.19,-43361.5c13662.3,-7725.32 15961.8,-11368 14594,-18853.9c-1366.49,-7487.22 7749.9,-15167.3 13664.9,-19127c5913.7,-3958.42 2915.43,-15933.3 2915.43,-15933.3c0,0 6078.03,9124.17 -1198.26,17591c-7275.02,8466.81 14887.8,17016.4 24244.8,30500.2c11141.6,16053.7 4901.76,63932.6 -44317.8,49184.6Z" style="fill:#f9fb04;"/><path d="M95029.2,181403c-25491,9558.96 -47475.2,-345.507 -48189.5,-797.121c-14931.7,-9439.92 -8303.75,-32150.1 9326.04,-33291.4c9116.43,-590.077 17691.9,-5587.6 22180.9,-16082.1c2635.91,-6160.86 -562.897,-12125 -3773.4,-16198.6c12477,11770.5 12707.3,19231.8 10291.4,23966.6c-2080.8,4076.18 -3579.26,16338.4 6109.1,17781.2c13614.4,2027.74 22593.7,-30126.2 15642.2,-45189.9c26070.8,44320.4 564.201,65255.1 -11586.7,69811.4Z" style="fill:#fbfcea;"/></g></g></svg>