<?xml version="1.0" encoding="UTF-8" standalone="no"?><!DOCTYPE svg PUBLIC "-//W3C//DTD SVG 1.1//EN" "http://www.w3.org/Graphics/SVG/1.1/DTD/svg11.dtd"><svg width="100%" height="100%" viewBox="0 0 78253 106090" version="1.1" xmlns="http://www.w3.org/2000/svg" xmlns:xlink="http://www.w3.org/1999/xlink" xml:space="preserve" xmlns:serif="http://www.serif.com/" style="fill-rule:evenodd;clip-rule:evenodd;stroke-linejoin:round;stroke-miterlimit:2;"><rect id="Background-Decor" serif:id="Background Decor" x="-39594.4" y="-368522" width="899817" height="575322" style="fill:none;"/><rect id="Cactus-3" serif:id="Cactus 3" x="0" y="0" width="78252.9" height="106089" style="fill:none;"/><clipPath id="_clip1"><rect x="0" y="0" width="78252.9" height="106089"/></clipPath><g clip-path="url(#_clip1)"><g><path d="M41036.8,4079.43c-917.267,-2211.43 -3058.49,-4162.84 -5445.63,-4075.29c-2617.53,94.187 -4801.15,3166.56 -5892.27,5359.41c-1519.35,3051.16 -2011.2,6693.97 -2477.61,10059.5c-565.332,4076.61 -966.718,8246.08 -976.617,12362.5c-9.899,4073.95 -76.322,8114.75 252.991,12178.1c346.263,4296.82 920.092,8576.39 1673.41,12816.2c414.111,2341.43 624.681,4733.27 1013.37,7080.01c414.111,2523.17 900.295,5031.75 1427.48,7531.04c1067.09,5072.88 2021.1,10250.6 2805.5,15380.5c773.099,5054.3 450.859,10396.5 -554.03,15384.4c-518.706,2581.54 -599.255,8370.77 3303.01,7745.95c5058.37,-809.21 4549.57,-10924.4 4460.52,-14524.8c-171.019,-6914.18 -1020.44,-13754.1 -1939.11,-20592.6c-541.307,-4039.47 -1061.44,-8093.53 -1375.2,-12162.2c-643.077,-8315.06 -1865.61,-17504.3 -549.782,-25788.9c288.316,-1824.06 583.706,-3653.42 955.417,-5462.89c412.709,-1999.17 1110.89,-3848.43 1768.11,-5761.38c1885.41,-5484.12 3910.74,-11837.1 1550.44,-17529.5Z" style="fill:#6a913d;fill-rule:nonzero;"/><path d="M32860.6,79299.7c-49.473,-303.794 -101.77,-607.578 -152.645,-911.372c50.875,303.794 101.77,606.252 152.645,910.046l-0,1.326Zm-289.74,-1707.32c-592.202,-3415.96 -1250.81,-6833.26 -1958.9,-10201.5c-527.181,-2499.29 -1013.37,-5007.86 -1427.48,-7531.04c-388.684,-2346.74 -599.254,-4738.58 -1013.37,-7080.01c-753.322,-4239.78 -1327.15,-8519.35 -1673.41,-12816.2c-224.718,-2777.88 -265.715,-5545.14 -265.715,-8319.04c-0,2773.9 40.997,5541.16 265.715,8319.04c346.263,4296.82 920.092,8576.39 1673.41,12816.2c414.111,2341.43 624.681,4733.27 1013.37,7080.01c414.111,2523.17 900.295,5031.75 1427.48,7531.04c555.454,2639.92 1079.81,5307.68 1565.99,7983.42c72.074,395.319 142.745,790.648 213.417,1187.29c0,-1.326 -1.423,-1.326 -1.423,-1.326c60.795,343.59 121.568,688.496 180.917,1032.09Zm-2871.92,-72228.8c595.028,-1199.23 1519.35,-2661.13 2661.33,-3755.56c-1141.99,1094.43 -2064.9,2556.34 -2661.33,3755.56Zm2664.16,-3758.22c2.825,-1.336 4.249,-2.651 5.651,-5.303c-1.402,2.652 -2.826,3.967 -5.651,5.303Z" style="fill:#d6e0c8;fill-rule:nonzero;"/><path d="M32589.2,76044.2c-137.095,-224.191 -274.19,-447.057 -411.285,-672.585l0,2.662c-486.184,-2675.74 -1010.54,-5343.5 -1565.99,-7983.42c-527.181,-2499.29 -1013.37,-5007.86 -1427.48,-7531.04c-388.684,-2346.74 -599.254,-4738.58 -1013.37,-7080.01c-753.322,-4239.78 -1327.15,-8519.35 -1673.41,-12816.2c-224.718,-2777.88 -265.715,-5545.14 -265.715,-8319.04c-0,-1284.14 9.899,-2569.6 12.724,-3859.04c9.899,-4116.4 411.285,-8285.88 976.617,-12362.5c466.408,-3365.56 958.264,-7008.37 2477.61,-10059.5c596.43,-1199.23 1519.35,-2661.13 2661.33,-3755.56c1.423,0 2.825,-1.336 2.825,-2.652c2.825,-1.336 4.249,-2.651 5.651,-5.303c585.129,-557.165 1226.8,-1018.83 1910.86,-1300.05c-1092.51,964.416 -1882.58,2342.74 -2473.36,3703.83c-992.165,2279.08 -1536.32,4759.8 -1964.56,7215.31c-1467.05,8368.12 -1407.7,16976.4 -975.215,25442.6c443.807,8698.45 1342.68,17365.1 2285.39,26017.1c470.635,4335.29 952.592,8670.58 1402.05,13009.9c11.301,118.062 24.025,237.46 35.325,355.522Z" style="fill:#718d43;fill-rule:nonzero;"/><path d="M35107.8,55.881c159.718,-29.189 320.837,-47.751 483.38,-51.739c-162.543,5.303 -323.662,22.55 -483.38,51.739Z" style="fill:#d6e0c8;fill-rule:nonzero;"/><path d="M37062.5,89716l-210.57,-58.369c-631.776,-4380.4 -2248.64,-8523.34 -4156.68,-12472.6c-32.5,-380.735 -69.248,-760.133 -105.997,-1140.87c1601.32,2609.4 3209.71,5200.23 3926.29,8287.2c15.549,66.324 65.022,96.839 115.896,96.839c63.598,-0 131.445,-49.087 134.27,-131.331c151.221,-4348.56 -146.994,-8690.49 -686.899,-13000.6c-530.006,-4230.48 -1358.23,-8409.24 -1949.01,-12627.8c-1199.93,-8569.76 -1400.63,-17188.6 -479.111,-25800.8c466.387,-4351.21 1170.24,-8670.58 2018.26,-12955.5c607.73,-3080.35 1478.37,-6122.21 1854.31,-9246.33c383.013,-3187.79 740.599,-8916.01 -2613.28,-10570.3c65.021,-14.595 131.444,-27.853 197.868,-39.796c159.718,-29.189 320.837,-46.436 483.38,-51.739c50.874,-2.652 101.749,-2.652 154.046,-2.652c2324.97,0 4394.1,1914.26 5291.59,4077.94c760.374,1834.67 1065.66,3738.32 1067.07,5657.9c2.825,4039.46 -1339.85,8154.53 -2617.51,11871.6c-657.224,1912.94 -1355.4,3762.2 -1768.11,5761.38c-371.711,1809.47 -667.101,3638.83 -955.417,5462.89c-426.835,2686.36 -586.552,5466.88 -585.129,8283.23c1.402,5867.51 699.601,11886.2 1134.91,17505.7c313.764,4068.65 833.893,8122.7 1375.2,12162.2c771.696,5748.1 1495.32,11497.5 1809.09,17292.1c-1.423,-0 -1.423,1.326 -1.423,1.326c-65,-1205.87 -148.396,-2409.09 -245.918,-3610.97c-774.521,1908.97 -1963.13,3656.08 -3187.11,5249.31Z" style="fill:#5e7b48;fill-rule:nonzero;"/><path d="M32391.4,76561.6c-70.672,-396.644 -141.343,-791.973 -213.417,-1187.29c72.074,395.319 142.745,791.973 213.417,1187.29Z" style="fill:#b2c39b;fill-rule:nonzero;"/><path d="M32695.2,77185.1c-100.346,-208.272 -202.095,-415.227 -303.865,-623.499c-70.672,-395.319 -141.343,-791.973 -213.417,-1187.29l0,-2.662c137.095,225.528 274.19,448.394 411.285,672.585c36.749,380.735 73.497,760.133 105.997,1140.87Z" style="fill:#678f3c;fill-rule:nonzero;"/><path d="M33351,82340.2l0,-2.651c-156.893,-1012.19 -320.837,-2025.7 -490.432,-3039.22l-0,-10.617c26.849,159.195 52.297,319.705 79.147,478.899c141.343,858.307 278.439,1716.6 411.285,2573.59Zm-643.077,-3951.91c-45.224,-265.313 -90.448,-530.637 -137.095,-795.951c46.647,265.314 91.871,530.638 137.095,795.951Z" style="fill:#b2bf9e;fill-rule:nonzero;"/><path d="M33351,82341.5l0,-1.326c-132.846,-856.981 -269.942,-1715.28 -411.285,-2573.59c141.343,859.633 279.84,1717.93 411.285,2574.91Z" style="fill:#476c32;fill-rule:nonzero;"/><path d="M32860.6,79298.3c-50.875,-303.794 -101.77,-606.252 -152.645,-910.046c-45.224,-265.313 -90.448,-530.637 -137.095,-795.951c-59.349,-343.59 -120.122,-688.496 -180.917,-1032.09c-0,0 1.423,0 1.423,1.326c161.12,908.71 316.589,1817.43 469.234,2726.14l-0,10.617Z" style="fill:#95a87b;fill-rule:nonzero;"/><path d="M32939.8,79766.6c-26.85,-159.194 -52.298,-319.704 -79.147,-478.899l-0,-1.325c26.849,160.52 52.297,319.704 79.147,480.224Z" style="fill:#95a87b;fill-rule:nonzero;"/><path d="M35107.8,95779.9c-48.049,-505.425 -97.522,-990.963 -142.746,-1445.98c-404.211,-4039.47 -832.469,-8033.82 -1614.04,-11992.4c-131.445,-856.981 -269.942,-1715.28 -411.285,-2574.91c-26.85,-160.52 -52.298,-319.704 -79.147,-480.224c-48.05,-700.439 -103.172,-1400.88 -165.369,-2101.32c1908.03,3949.25 3524.9,8092.19 4156.68,12472.6l210.57,58.369c1223.98,-1593.23 2412.59,-3340.35 3187.11,-5249.31c97.522,1201.89 180.918,2405.11 245.918,3610.97c-344.841,740.234 -717.976,1465.88 -1123.61,2175.6c-856.494,1503.03 -1852.89,2930.43 -3013.25,4262.34c-367.485,421.846 -797.144,839.724 -1250.83,1264.23Z" style="fill:#3b5e2c;fill-rule:nonzero;"/><path d="M32860.6,79287.7c-152.645,-908.71 -308.114,-1817.43 -469.234,-2726.14c161.12,908.71 318.013,1817.43 469.234,2724.82l-0,1.325Z" style="fill:#7c935f;fill-rule:nonzero;"/><path d="M32860.6,79286.4c-151.221,-907.385 -308.114,-1816.11 -469.234,-2724.82c101.77,208.272 203.519,415.227 303.865,623.499c62.197,700.438 117.319,1400.88 165.369,2101.32Z" style="fill:#466a31;fill-rule:nonzero;"/><path d="M65855.3,22221.9c-315.187,-3216.98 -2183.62,-5632.7 -6737.44,-4851.33c-4110.03,704.407 -7038.5,3759.55 -9178.3,7381.13c-3789.19,6423.34 -4914.23,14638.9 -5211.02,22054.5c-333.561,8338.94 626.105,16696.4 -257.239,25020.8c-864.969,8153.22 -2693.83,16470.9 -8112.61,22688.7c-1820.41,2089.37 -5177.11,4087.21 -5421.63,7249.8c-223.294,2881.35 2667,3591.08 4871.83,3049.83c5579.9,-1373.02 11007.2,-7401.04 13811.3,-12342.6c3083.92,-5436.36 5021.62,-11574.5 6022.29,-17802.8c565.331,-3532.7 894.644,-7127.75 1126.44,-10701.6c346.263,-5348.81 503.156,-10834.2 1270.6,-16136.6c562.506,-3896.2 1396.38,-7788.4 2949.65,-11388.8c2008.38,-4655 5401.83,-8770.09 4866.18,-14221Z" style="fill:#64873c;fill-rule:nonzero;"/><path d="M41272.9,86276.2l0,-1.326c1414.77,-3567.19 2257.12,-7405.02 2806.92,-11270.7c-549.804,3867 -1392.15,7703.5 -2806.92,11272Zm2808.33,-11276c1.423,-11.933 2.825,-22.55 4.249,-33.157c-1.424,10.607 -2.826,21.224 -4.249,33.157Zm7.074,-53.065c1.402,-6.629 2.825,-14.585 2.825,-22.55c-1.423,7.965 -1.423,14.595 -2.825,22.55Zm7.073,-46.425c0,-6.63 1.402,-13.269 2.826,-21.224c-1.424,6.629 -2.826,14.594 -2.826,21.224Zm7.052,-54.391c0,-2.652 1.424,-5.303 1.424,-9.291c-0,3.988 -1.424,6.639 -1.424,9.291Z" style="fill:#d6e0c8;fill-rule:nonzero;"/><path d="M40543.6,89815.5c303.865,-1167.39 551.206,-2346.73 729.276,-3539.34c1414.77,-3568.52 2257.12,-7405.02 2806.92,-11272c0,-1.336 1.402,-2.661 1.402,-3.987c1.423,-11.933 2.825,-22.55 4.249,-33.157c1.401,-6.639 1.401,-13.269 2.825,-19.908c1.402,-7.955 1.402,-14.585 2.825,-22.55c1.423,-7.955 2.825,-15.92 4.248,-23.875c0,-6.63 1.402,-14.595 2.826,-21.224c1.401,-10.617 2.825,-22.55 4.226,-33.167c0,-2.652 1.424,-5.303 1.424,-9.291c139.92,-1002.9 261.466,-2008.46 367.463,-3010.03c296.813,-2796.45 385.859,-5596.88 385.859,-8398.64c-1.423,-4202.63 -202.117,-8409.24 -202.117,-12614.5c0,-1335.88 19.776,-2671.75 73.497,-4007.63c296.792,-7415.63 1421.83,-15631.2 5211.02,-22054.5c2139.8,-3621.58 5068.27,-6676.73 9178.3,-7381.13c585.129,-100.826 1123.61,-147.261 1621.12,-147.261c381.589,-0 737.751,27.873 1072.71,80.928c-245.917,82.244 -491.834,172.463 -739.174,271.953c-1426.07,570.424 -2723.53,1432.72 -3896.61,2455.51c-1204.16,1050.65 -2235.92,2305.62 -3177.21,3614.96c-1060.01,1473.83 -2047.93,3004.72 -2894.53,4624.48c-3334.11,6359.68 -4491.64,13636 -4526.96,20822.1c-33.923,6914.19 667.102,13813.8 378.764,20729.3c-279.84,6772.24 -1660.67,13760.7 -5763.62,19170.5c-210.592,278.583 -426.834,551.862 -648.727,822.479Z" style="fill:#72933b;fill-rule:nonzero;"/><path d="M37769.2,98052.3l-144.147,-197.655c257.218,-571.759 507.384,-1146.17 749.074,-1724.57c185.144,-75.615 370.288,-152.555 554.031,-233.483c3059.89,-1342.5 5396.16,-3662.7 6832.13,-6797.43c1438.8,-3130.75 1981.53,-6711.22 2709.4,-10079.4c11.301,-53.055 24.025,-107.445 35.325,-160.51c-402.81,3551.28 -893.242,7107.86 -2039.48,10477.4c-576.631,1698.04 -1322.88,3381.48 -2378.67,4815.52c-48.049,-84.906 -103.171,-181.744 -159.696,-281.235c-165.368,-274.604 -330.736,-549.209 -330.736,-549.209c-0,-0 50.896,226.843 89.046,453.687l50.874,310.423l25.448,131.331c-0,0 -317.991,-119.388 -636.003,-238.786c-305.289,-131.331 -623.279,-262.662 -623.279,-262.662c-0,-0 254.392,238.786 508.806,477.572c254.393,226.844 496.083,465.63 496.083,465.63l-750.497,405.936c0,0 292.565,-23.875 585.129,-35.818c11.301,-1.326 22.623,-2.652 32.5,-3.978c-24.024,27.863 -49.451,55.717 -74.899,82.254c-1500.97,1622.42 -3404.76,2620.01 -5530.45,2945.02Z" style="fill:#577f39;fill-rule:nonzero;"/><path d="M65855.3,22221.9c-115.895,-1182 -440.96,-2256.53 -1033.16,-3104.21c592.202,847.68 917.267,1920.9 1033.16,3104.21Z" style="fill:#d6e0c8;fill-rule:nonzero;"/><path d="M50152.9,67023.4c5.65,-428.486 2.825,-855.645 -8.476,-1281.48c383.013,-4879.19 556.856,-9775.64 1108.06,-14636.3c387.261,-3425.24 1000.64,-6822.64 1984.33,-10116.6c1115.14,-3736.99 2698.1,-7298.88 4423.79,-10762.6c1594.27,-3199.74 3533.38,-6256.2 4293.77,-9828.69c209.169,-975.044 337.789,-2054.88 122.948,-3044.52c1239.51,258.674 2134.17,891.464 2744.73,1764.37c592.202,847.68 917.267,1922.21 1033.16,3104.21c38.151,393.993 56.525,781.367 56.525,1162.08c-4.227,4887.16 -3059.89,8739.58 -4922.7,13059c-1240.91,2876.04 -2022.5,5937.81 -2573.71,9039.37l-0,1.325c152.644,-858.297 322.261,-1713.95 515.88,-2564.29c-877.693,1183.32 -1674.82,2425.01 -2399.87,3710.47l-504.559,-202.968l565.332,-594.319l-1057.19,459.001c-210.593,246.751 -118.721,553.187 -118.721,553.187c-0,-0 238.865,197.664 477.708,392.677c72.074,58.368 145.571,118.062 210.592,169.801c-1724.29,3234.22 -3010.44,6733.76 -3974.34,10324.8c-347.687,1298.74 -661.451,2606.75 -946.942,3921.4l-227.564,201.643c-192.218,401.958 -76.322,830.443 -76.322,830.443l70.672,68.986c-291.141,1416.8 -554.031,2841.55 -797.123,4268.95Zm6018.04,-19739.6c-5.651,-9.281 -11.301,-19.898 -16.951,-29.189c-113.071,-184.396 -214.841,-370.117 -214.841,-370.117l442.384,14.594c-70.672,127.354 -141.344,256.033 -210.592,384.712Z" style="fill:#577f39;fill-rule:nonzero;"/><path d="M40496.9,88077.7l0,-1.326c275.592,-594.309 534.255,-1196.58 777.347,-1806.81c-1.424,1.325 -1.424,3.977 -1.424,5.303c-241.668,608.904 -500.331,1209.85 -775.923,1802.84Z" style="fill:#b2bf9e;fill-rule:nonzero;"/><path d="M40495.5,88079l-0,-1.326c-0,-0 -0,-1.326 1.423,-1.326l0,1.326l-1.423,1.326Z" style="fill:#3b5e2c;fill-rule:nonzero;"/><path d="M39371.9,90253.3c405.635,-709.719 778.77,-1435.37 1123.61,-2175.6l-0,1.326c-98.924,212.259 -200.694,423.182 -303.865,632.789c-2.826,6.629 -5.651,11.933 -8.476,17.236c-2.825,5.314 -5.65,10.617 -8.475,15.921c-5.651,11.942 -11.322,22.559 -16.973,34.492c-247.319,498.797 -508.807,989.638 -785.822,1473.84Z" style="fill:#2b441d;fill-rule:nonzero;"/><path d="M35216.7,97164.8c-29.675,-472.259 -67.825,-936.573 -108.822,-1384.96c453.684,-424.508 883.343,-842.386 1250.83,-1264.23c1161.76,-1331.9 2156.75,-2760.63 3013.25,-4262.34c277.015,-484.202 538.503,-975.043 785.822,-1473.84c-692.527,1392.92 -1491.07,2731.44 -2413.99,3998.34c992.166,-923.305 1934.88,-1910.28 2799.85,-2962.28c-561.104,2153.05 -1311.6,4258.36 -2169.5,6314.57c-1031.74,413.901 -2090.35,738.909 -3157.44,1034.74Zm4941.07,-8385.37c5.651,-11.933 11.322,-22.55 16.973,-34.492c-4.249,11.942 -11.322,22.559 -16.973,34.492Zm25.448,-50.413c2.825,-5.303 5.65,-10.607 8.476,-17.236c-2.826,5.303 -5.651,11.933 -8.476,17.236Z" style="fill:#476c32;fill-rule:nonzero;"/><path d="M40174.7,88745c2.825,-5.304 5.65,-10.607 8.475,-15.921c-2.825,5.314 -5.65,10.617 -8.475,15.921Z" style="fill:#38592a;fill-rule:nonzero;"/><path d="M40496.9,88077.7c275.592,-592.984 534.255,-1193.93 775.923,-1802.84l0,1.326c-241.668,608.904 -500.331,1209.85 -775.923,1801.51Z" style="fill:#95a87b;fill-rule:nonzero;"/><path d="M40495.5,88079l1.423,-1.326l-1.423,1.326Z" style="fill:#496e33;fill-rule:nonzero;"/><path d="M40191.7,88711.8c103.171,-209.607 204.941,-420.53 303.865,-632.789c-98.924,212.259 -200.694,423.182 -303.865,632.789Z" style="fill:#38592a;fill-rule:nonzero;"/><path d="M37743.7,92777.8c922.917,-1266.89 1721.46,-2605.42 2413.99,-3998.34c5.651,-11.933 12.724,-22.55 16.973,-34.492c2.825,-5.304 5.65,-10.607 8.475,-15.921c2.825,-5.303 5.65,-11.933 8.476,-17.236c103.171,-209.607 204.941,-420.53 303.865,-632.789l1.423,-1.326c275.592,-591.658 534.255,-1192.61 775.923,-1801.51c-178.07,1192.61 -425.411,2371.94 -729.276,3539.34c-864.969,1051.99 -1807.68,2038.97 -2799.85,2962.28Z" style="fill:#547937;fill-rule:nonzero;"/><path d="M48505,78859.2c139.921,-1235.05 268.54,-2470.11 411.286,-3697.21c312.34,-2699.6 767.448,-5388.6 1223.96,-8065.66c4.248,-23.876 8.475,-49.077 12.724,-72.963c-2.825,192.361 -8.476,384.712 -15.549,577.073c-142.746,3802 -833.872,7556.25 -1632.42,11258.8Z" style="fill:#476c32;fill-rule:nonzero;"/><path d="M35233.6,99916.2c25.448,-387.363 35.325,-777.389 35.325,-1167.4c0,-530.638 -19.776,-1062.59 -52.297,-1583.95c1067.09,-295.828 2125.7,-620.836 3157.44,-1034.74c-241.69,578.399 -491.856,1152.81 -749.074,1724.57l144.147,197.655c2125.7,-325.008 4029.48,-1322.6 5530.45,-2945.02c25.448,-26.537 50.875,-54.391 74.899,-82.254c281.264,-33.167 552.629,-55.716 552.629,-55.716c292.565,-191.025 317.991,-537.267 317.991,-537.267c-0,-0 -66.423,-118.062 -158.295,-279.908c1055.79,-1434.05 1802.04,-3117.48 2378.67,-4815.52c1146.23,-3369.53 1636.67,-6926.11 2039.48,-10477.4c798.546,-3702.51 1489.67,-7456.76 1632.42,-11258.8c7.073,-192.361 12.724,-384.712 15.549,-577.073c243.092,-1427.4 505.982,-2852.16 797.123,-4268.95l920.092,903.406l-466.408,-1014.84l1345.53,-201.642l-1291.8,-492.168l521.509,-1002.9l-795.7,707.068c285.491,-1314.64 599.255,-2622.66 946.942,-3921.4c963.893,-3591.08 2250.05,-7090.62 3974.34,-10324.8c152.645,122.04 268.54,214.901 268.54,214.901c0,-0 -97.521,-164.498 -202.116,-338.277c69.248,-128.679 139.92,-257.358 210.592,-384.712l898.893,30.515l-749.074,-299.806c725.049,-1285.47 1522.17,-2527.16 2399.87,-3710.47c-193.619,850.342 -363.236,1706 -515.88,2564.29c-1023.26,1886.42 -1881.16,3896.2 -2613.28,5945.77l-505.982,-149.903l438.157,-554.513l-866.393,480.224c-161.119,225.518 -56.524,480.225 -56.524,480.225l726.451,500.122c-770.273,2253.87 -1397.8,4540.92 -1937.71,6751.01c-846.595,3467.71 -1554.67,6993.78 -2162.42,10521.2l-609.153,-221.55l440.96,-862.275l-870.62,787.986c-159.696,351.556 -55.123,724.325 -55.123,724.325l137.095,130.005l301.04,286.538l159.718,147.251l149.819,139.296l137.095,100.816c0,1.326 0,3.988 -1.423,6.64c-684.052,4120.38 -870.62,8297.81 -1710.14,12397c-822.571,3999.66 -2060.68,8490.16 -4288.12,11895.5c-1088.26,1664.88 -2693.83,3402.7 -4384.2,4355.2c-274.19,153.881 -556.856,293.177 -845.193,421.846c-590.779,-263.988 -1180.13,-525.324 -1758.19,-797.277l-318.012,47.761c-907.368,273.279 -1806.26,571.76 -2689.61,899.429Zm15996.3,-29230.1l-70.65,-115.411l-154.068,-298.48c-107.42,-216.237 -211.993,-435.125 -211.993,-435.125l596.429,-102.142c-53.699,317.052 -107.42,634.105 -159.718,951.158Zm4330.52,-18566.9l-301.061,-443.08l465.006,-27.853c-55.123,156.532 -110.245,314.4 -163.945,470.933Z" style="fill:#3b5e2c;fill-rule:nonzero;"/><path d="M35195.5,100400c-190.794,1950.09 -788.647,3766.18 -2241.57,4933.59c-5285.91,4242.43 -4867.58,-10631.3 -5314.19,-13100.1c-706.675,-3904.15 -1854.31,-7651.77 -3599.8,-11176.5c-3646.45,-7371.85 -8815.06,-14002.1 -13620.5,-20560.8c-2351.82,-3207.69 -4649.91,-6441.91 -6477.37,-10019.7c-3800.49,-7446.14 -6156.56,-19951.9 -826.82,-27260.1c2794.2,-3833.84 6495.77,-1126.27 8032.07,2024.38c1662.11,3408.01 2152.55,7508.5 3170.16,11161.9c4225.9,15177.5 14496.7,27469.7 18348.1,42860.8c1243.75,4964.09 1789.31,9979.92 2299.52,15070c175.267,1761.7 432.485,3989.05 230.368,6066.49Z" style="fill:#5e8a41;fill-rule:nonzero;"/><path d="M3115.24,23216.8c183.743,-252.055 370.31,-474.921 559.703,-671.25c-189.393,197.665 -375.96,420.531 -559.703,671.25Z" style="fill:#d6e0c8;fill-rule:nonzero;"/><path d="M29313.1,104336c-214.841,-492.167 -397.16,-1065.25 -551.206,-1690.08c63.598,15.921 128.598,31.841 193.62,47.751c168.193,45.11 339.212,88.883 463.583,120.724c-7.074,139.297 -14.147,277.257 -22.623,416.553l-250.166,441.754c0,0 98.945,-76.95 233.215,-180.418c-19.797,281.234 -42.399,563.794 -66.423,843.713Zm-596.451,-1881.11c-846.595,-3624.23 -826.798,-8845.69 -1076.96,-10221.4c-706.675,-3904.15 -1854.31,-7651.77 -3599.8,-11176.5c-3646.45,-7371.85 -8815.06,-14002.1 -13620.5,-20560.8c-2351.82,-3207.69 -4649.91,-6441.91 -6477.37,-10019.7c-2211.9,-4333.96 -3934.76,-10381.9 -3937.59,-16120.7c-1.423,-4121.73 883.344,-8085.56 3110.77,-11139.4c183.743,-250.719 370.31,-473.585 559.703,-671.25c180.896,-184.405 363.215,-346.241 548.38,-486.863c42.399,2.651 83.375,6.639 124.372,11.942c-1838.78,5874.13 -1532.07,12200.6 -35.347,18200.8c890.417,3584.45 2203.42,7045.52 3715.69,10385.9c1495.34,3304.53 3188.53,6566.62 5114.92,9615.12c2159.6,3419.95 4590.56,6639.57 6818.01,10010.4c2059.25,3117.48 3823.11,6392.83 5243.52,9884.42c2754.63,6762.95 4401.19,14219.7 4249.95,21604.8c-197.868,-131.331 -371.712,-236.125 -371.712,-236.125c0,-0 152.644,191.025 279.841,382.05c29.696,43.784 57.948,87.557 86.221,128.679c-1.402,38.471 -2.825,76.941 -4.249,115.421c-1.402,55.716 -2.825,112.759 -5.65,168.475l-722.224,124.692Z" style="fill:#668f3a;fill-rule:nonzero;"/><path d="M11147.3,25241.2c-643.055,-1318.63 -1666.34,-2560.33 -2843.65,-3276.68c1178.73,716.349 2202,1958.04 2843.65,3276.68Zm-6926.83,-3182.49l-1.402,-0c329.313,-250.72 665.678,-431.138 1004.89,-549.21c-339.212,118.072 -674.175,298.49 -1003.49,549.21Zm1004.91,-550.526c1.402,0 4.227,-1.336 5.65,-1.336c-1.423,0 -4.248,1.336 -5.65,1.336Z" style="fill:#d6e0c8;fill-rule:nonzero;"/><path d="M33197,100737c40.976,-818.501 28.252,-1638.34 -7.074,-2434.29c-148.395,-3274.02 -706.674,-6587.83 -1382.25,-9782.27c-825.396,-3902.83 -2021.1,-7718.09 -3591.32,-11358.2c-1549.04,-3591.08 -3563.07,-6900.92 -5712.77,-10123.2c-2138.4,-3206.36 -4387.04,-6334.46 -6374.2,-9653.59c-2006.96,-3356.27 -3673.3,-6825.3 -4794.08,-10624.6c-1126.46,-3808.64 -1557.52,-7728.71 -1988.58,-11675.3c-378.785,-3431.87 -736.371,-7117.14 -2159.6,-10273.1c-563.929,-1250.98 -1464.25,-2577.57 -2839.42,-2742.06c12.724,-43.783 26.849,-86.231 40.975,-130.015c-55.123,37.144 -110.245,76.941 -165.347,118.073l-2.846,-0c329.313,-250.72 664.276,-431.138 1003.49,-549.21c-0,-0 -0,-1.316 1.423,-1.316c1.402,0 4.227,-1.336 5.65,-1.336c340.614,-118.072 681.227,-172.463 1021.84,-172.463c705.273,0 1402.05,234.809 2050.78,630.138c1177.31,716.349 2200.6,1958.04 2843.65,3276.68c1662.11,3408.01 2152.55,7508.5 3170.16,11161.9c4225.9,15177.5 14496.7,27469.7 18348.1,42860.8c1243.75,4964.09 1789.31,9979.92 2299.52,15070c128.62,1301.38 303.865,2854.82 303.865,4414.88c0,390.015 -9.877,780.041 -35.325,1167.4c-688.3,254.697 -1368.13,527.976 -2036.63,821.153Zm1139.16,-1075.86l-152.644,-787.996l686.877,-226.843l-648.727,-286.548c-0,0 89.046,-179.092 165.368,-358.174l114.472,-238.787l38.172,-107.455l-76.322,95.512l-203.518,214.911c-139.921,155.207 -279.862,310.423 -279.862,310.423c-0,0 -101.749,298.481 -50.875,608.904l407.059,776.053Z" style="fill:#4f7b3d;fill-rule:nonzero;"/><path d="M4347.69,22070.6c-40.997,-5.303 -81.973,-9.291 -124.372,-11.942c55.102,-41.132 110.224,-80.929 165.347,-118.073c-14.126,43.784 -28.251,86.232 -40.975,130.015Z" style="fill:#649940;fill-rule:nonzero;"/><path d="M13232,61685.2l-313.764,1229.74l-117.297,-940.551l-1232.45,592.993l920.092,-1033.42l-872.043,-279.908l1249.4,-102.142c0,0 303.866,172.453 366.062,533.289Z" style="fill:#cfc6b5;fill-rule:nonzero;"/><path d="M10020.9,56958.6l-248.742,835.747l-53.721,-650.025l-863.546,371.443l661.451,-683.193l-592.203,-216.226l860.743,-34.493c-0,0 207.745,126.028 236.018,376.747Z" style="fill:#cfc6b5;fill-rule:nonzero;"/><path d="M7106.55,52261.1l-428.236,1191.28l-28.273,-949.842l-1284.73,456.349l1016.19,-925.957l-833.872,-379.408l1247.98,43.784c0,-0 285.491,197.654 310.939,563.794Z" style="fill:#cfc6b5;fill-rule:nonzero;"/><path d="M4521.54,47213.5c0,0 -104.595,213.585 -204.942,427.16c-100.346,214.911 -200.693,429.822 -200.693,429.822c0,-0 9.899,-177.767 19.776,-355.533c14.147,-177.757 26.85,-355.523 26.85,-355.523l-996.393,241.438l831.046,-614.207l-600.678,-348.894l938.467,130.005c-0,0 196.444,171.127 186.567,445.732Z" style="fill:#cfc6b5;fill-rule:nonzero;"/><path d="M2647.43,42070.3c0,0 -187.969,246.742 -360.411,498.797c-176.668,257.358 -353.337,514.717 -353.337,514.717c-0,-0 50.896,-230.821 101.77,-460.326c46.626,-228.17 113.07,-455.023 113.07,-455.023c0,-0 -336.386,13.268 -675.598,26.537c-339.19,7.955 -676.978,17.246 -676.978,17.246c-0,0 306.69,-144.599 613.38,-289.199c308.114,-140.622 616.227,-278.583 616.227,-278.583l-108.822,-98.164l-236.04,-212.259c-166.77,-163.172 -333.54,-325.018 -333.54,-325.018c0,0 293.966,124.702 582.304,234.809c142.745,57.042 288.316,110.107 402.788,147.251l185.166,63.682c0,0 213.417,269.292 130.021,615.533Z" style="fill:#cfc6b5;fill-rule:nonzero;"/><path d="M1988.8,36546.4c-0,-0 -203.519,168.475 -407.037,339.602c-192.218,173.779 -387.261,347.558 -387.261,347.558c-0,-0 86.221,-179.082 169.595,-358.165c94.696,-177.766 189.393,-355.532 189.393,-355.532l-1133.51,-241.449l1132.09,-218.878l-463.561,-660.643c0,0 227.543,152.565 455.086,306.446c226.141,145.926 452.282,294.503 452.282,294.503c0,0 127.197,270.617 -7.073,546.558Z" style="fill:#cfc6b5;fill-rule:nonzero;"/><path d="M2435.41,31070.2l-168.172,83.58c-98.945,51.738 -231.791,124.691 -364.659,193.676c-265.694,145.926 -532.832,294.503 -532.832,294.503c0,0 144.169,-181.734 285.513,-363.488l196.444,-248.067l94.697,-107.446c-0,0 -306.69,-148.597 -614.804,-293.187c-306.69,-151.229 -613.402,-302.458 -613.402,-302.458c0,0 336.387,13.259 674.175,31.841c334.963,14.595 669.927,34.493 669.927,34.493c-0,-0 -89.046,-220.214 -179.494,-437.777c-93.273,-224.202 -168.194,-447.068 -168.194,-447.068c0,0 204.942,241.448 428.258,478.909c219.068,233.473 440.96,466.946 440.96,466.946c0,-0 76.322,342.274 -148.417,615.543Z" style="fill:#cfc6b5;fill-rule:nonzero;"/><path d="M4182.32,25872.6c0,0 -248.742,34.493 -498.908,84.896c-252.99,50.423 -505.981,103.477 -505.981,103.477c-0,0 158.294,-111.433 319.414,-222.865c156.893,-111.433 320.837,-212.26 320.837,-212.26c0,0 -220.49,-200.316 -439.558,-397.98c-216.242,-205.62 -433.908,-408.588 -433.908,-408.588c-0,0 272.788,99.511 542.73,199.001c271.365,104.793 539.905,210.923 539.905,210.923c0,-0 -21.199,-200.316 -39.574,-400.633c-16.95,-200.316 -22.622,-405.935 -22.622,-405.935c-0,-0 104.595,261.346 223.316,508.077c118.721,249.404 248.742,488.2 248.742,488.2l-38.15,165.824l-216.243,287.863Z" style="fill:#cfc6b5;fill-rule:nonzero;"/><path d="M29860.1,96945.9l-586.531,619.521l234.617,-604.926l-931.414,-94.187l886.168,-286.538l-433.886,-482.886l782.997,386.038c-0,-0 130.021,217.562 48.049,462.978Z" style="fill:#cfc6b5;fill-rule:nonzero;"/><path d="M28915.9,91269.5l-775.923,985.66l271.365,-911.372l-1349.75,11.943l1235.26,-551.861l-701.025,-618.185l1190.06,425.834c-0,-0 224.718,289.189 130.021,657.981Z" style="fill:#cfc6b5;fill-rule:nonzero;"/><path d="M27451.7,85557.2l-508.807,799.939l135.672,-705.752l-1017.61,107.455l894.666,-506.752l-559.702,-419.204l915.865,238.786c-0,0 180.896,205.62 139.92,485.528Z" style="fill:#cfc6b5;fill-rule:nonzero;"/><path d="M25505.5,80155.3l-86.221,175.114c-55.123,106.12 -130.021,248.068 -203.518,388.69c-146.994,281.234 -296.813,559.816 -296.813,559.816c-0,0 29.674,-236.134 55.122,-473.595c31.098,-238.786 48.049,-473.585 48.049,-473.585l-1328.55,286.538l1110.91,-791.974l-795.721,-465.63c0,0 306.69,41.122 617.629,84.906c312.362,45.099 623.301,90.199 623.301,90.199c-0,-0 268.518,244.1 255.816,619.521Z" style="fill:#cfc6b5;fill-rule:nonzero;"/><path d="M22943.1,74879.5c0,-0 -93.294,260.01 -186.567,520.02c-94.696,254.707 -189.393,512.066 -189.393,512.066l-14.126,-823.815l-1095.34,411.239l847.997,-811.871l-733.525,-291.851c0,-0 268.54,-3.978 535.657,-10.607c269.942,-0 542.73,-2.652 542.73,-2.652c-0,-0 261.466,173.779 292.564,497.471Z" style="fill:#cfc6b5;fill-rule:nonzero;"/><path d="M19628.8,70195.3l-264.291,1245.66l-154.068,-937.899l-1205.58,650.035l876.27,-1074.54l-881.92,-238.787l1242.33,-161.846c0,0 310.939,157.869 387.261,517.379Z" style="fill:#cfc6b5;fill-rule:nonzero;"/><path d="M16184.5,65688.9l-243.092,1058.61l-117.319,-802.58l-1043.06,537.267l764.622,-906.059l-749.073,-216.236l1062.84,-118.063c0,0 265.715,136.635 325.086,447.058Z" style="fill:#cfc6b5;fill-rule:nonzero;"/><path d="M17582.3,61429.2l40.976,886.16l-264.292,-754.829l-689.702,200.316l392.911,-607.578l-628.951,-397.981l798.546,181.744c-0,0 237.442,196.339 350.512,492.168Z" style="fill:#cfc6b5;fill-rule:nonzero;"/><path d="M14457.4,57092.6l25.426,610.239l-180.896,-521.356l-474.883,135.319l275.592,-415.227l-433.887,-278.583l549.782,127.354c0,-0 162.543,137.96 238.866,342.254Z" style="fill:#cfc6b5;fill-rule:nonzero;"/><path d="M11523.3,52840.8l0,884.834l-230.368,-765.446l-701.024,159.194l428.236,-583.702l-599.255,-441.755l782.997,236.135c0,0 216.243,212.249 319.414,510.74Z" style="fill:#cfc6b5;fill-rule:nonzero;"/><path d="M8907.16,48238.9l-81.973,660.643l-101.77,-594.32l-541.307,45.11l377.362,-390.016l-399.984,-397.98l556.856,266.649c-0,0 142.767,180.409 190.816,409.914Z" style="fill:#cfc6b5;fill-rule:nonzero;"/><path d="M7078.27,43403.5c-0,0 -70.672,208.282 -127.197,417.879c-60.773,210.933 -121.546,423.182 -121.546,423.182c0,0 -2.825,-202.968 -5.65,-401.958c-5.65,-200.316 1.402,-400.622 1.402,-400.622l-708.077,-80.928l576.632,-409.914c0,0 -108.822,-153.881 -223.294,-307.771c-105.997,-157.859 -210.592,-314.401 -210.592,-314.401c-0,-0 163.944,124.701 327.889,249.403c172.442,119.388 340.614,238.786 340.614,238.786c-0,0 149.819,270.618 149.819,586.344Z" style="fill:#cfc6b5;fill-rule:nonzero;"/><path d="M6101.66,38194c0,-0 -90.448,164.508 -171.018,330.331c-83.396,169.791 -166.77,335.615 -166.77,335.615c-0,-0 28.251,-168.475 56.524,-338.266c29.675,-168.476 62.197,-335.635 62.197,-335.635l-586.553,-181.734l545.556,-253.391c-0,-0 -72.074,-145.926 -139.921,-293.167c-67.846,-148.578 -134.27,-297.155 -134.27,-297.155c0,0 121.546,131.331 243.092,260.01c124.393,128.68 247.341,254.707 247.341,254.707c-0,0 87.623,254.707 43.822,518.685Z" style="fill:#cfc6b5;fill-rule:nonzero;"/><path d="M6012.61,32960.6c0,-0 -132.847,171.127 -260.064,343.59c-127.197,175.094 -254.393,350.209 -254.393,350.209c-0,0 65.021,-188.373 128.62,-378.083c63.598,-187.037 135.671,-374.095 135.671,-374.095l-638.828,-335.614l677,-172.463l-199.291,-742.887l462.159,705.742c0,0 52.298,307.762 -50.874,603.601Z" style="fill:#cfc6b5;fill-rule:nonzero;"/><path d="M6845.08,27731.2c-0,0 -137.096,120.724 -271.366,241.428c-135.693,126.028 -271.365,249.404 -271.365,249.404c0,-0 84.798,-147.242 168.194,-293.167c86.199,-144.61 173.843,-289.2 173.843,-289.2l-481.957,-396.644l597.853,-21.234c-0,-0 -14.147,-161.836 -25.448,-325.008c-7.074,-164.508 -15.549,-330.332 -15.549,-330.332c0,0 62.196,172.463 130.021,340.939c67.847,165.823 135.694,331.647 135.694,331.647c-0,-0 -9.899,263.998 -139.92,492.167Z" style="fill:#cfc6b5;fill-rule:nonzero;"/><path d="M32432.4,94520.9l-298.236,533.289l121.568,-545.232l-473.482,-151.229l436.733,-200.316l-236.04,-477.573l409.884,415.227c-0,0 74.898,208.272 39.573,425.834Z" style="fill:#cfc6b5;fill-rule:nonzero;"/><path d="M31667.8,89246.4l-326.487,821.153l69.248,-802.581l-702.426,-124.701l603.503,-380.735l-63.62,-99.49l-148.396,-216.237c-108.822,-157.868 -214.819,-315.726 -214.819,-315.726c0,-0 165.347,124.701 332.138,250.719c168.172,127.353 333.54,254.707 333.54,254.707c0,-0 132.847,290.525 117.319,612.891Z" style="fill:#cfc6b5;fill-rule:nonzero;"/><path d="M30262.9,83966.6l-166.77,647.374l-22.623,-607.577l-538.481,-26.528l418.337,-342.264l-364.638,-439.103l532.831,325.018c0,0 125.795,201.642 141.344,443.08Z" style="fill:#cfc6b5;fill-rule:nonzero;"/><path d="M28337.9,79023.7c0,-0 -31.098,220.214 -66.423,439.102c-31.098,217.553 -70.672,435.115 -70.672,435.115c-0,0 -21.199,-198.99 -52.298,-397.97c-28.273,-197.665 -56.546,-396.655 -56.546,-396.655l-713.727,43.773l504.559,-509.403l-537.08,-522.683l743.423,344.916c0,0 195.043,249.404 248.764,563.805Z" style="fill:#cfc6b5;fill-rule:nonzero;"/><path d="M25945.1,74204.2c-0,0 -14.126,188.374 -25.427,378.083c-12.724,187.048 -31.098,379.399 -31.098,379.399c0,-0 -32.5,-169.802 -72.073,-338.277c-36.749,-165.824 -76.323,-334.299 -76.323,-334.299l-604.926,91.535l394.334,-469.618l-496.082,-408.587l660.027,241.438c0,0 183.743,195.013 251.568,460.326Z" style="fill:#cfc6b5;fill-rule:nonzero;"/><path d="M23251.2,69666c-0,-0 -4.249,221.54 -5.65,443.08c-5.672,224.192 -9.899,445.732 -9.899,445.732c-0,-0 -52.298,-195.013 -105.997,-387.364c-55.123,-193.677 -111.669,-386.038 -111.669,-386.038l-702.426,155.217l428.236,-579.725l-606.328,-436.451l787.245,229.506c0,-0 224.718,213.574 326.488,516.043Z" style="fill:#cfc6b5;fill-rule:nonzero;"/><path d="M20293.1,65225.9l22.601,758.807l-216.242,-650.026l-593.604,160.51l346.285,-514.707l-534.255,-348.893l682.651,167.149c-0,0 197.868,173.779 292.564,427.16Z" style="fill:#cfc6b5;fill-rule:nonzero;"/><path d="M20553.1,59699.3l790.071,325.018l-600.678,-510.74l391.509,-630.127l-669.926,204.293l-171.019,-757.481l-79.147,858.297c0,0 107.42,301.143 339.19,510.74Z" style="fill:#cfc6b5;fill-rule:nonzero;"/><path d="M17539.9,55206.2l548.381,218.889l-419.782,-346.242l268.539,-435.125l-462.159,140.622l-121.546,-518.694l-50.874,589.005c-0,0 74.898,206.946 237.441,351.545Z" style="fill:#cfc6b5;fill-rule:nonzero;"/><path d="M14562,50905.4l801.371,298.481l-619.03,-488.19l378.764,-639.409l-668.504,220.214c0,0 -46.647,-189.709 -90.469,-379.408c-42.399,-191.025 -86.199,-379.409 -86.199,-379.409l-70.672,864.937c-0,-0 114.472,299.816 354.739,502.784Z" style="fill:#cfc6b5;fill-rule:nonzero;"/><path d="M11745.2,46206.6l571.003,323.682l-411.285,-440.428l363.215,-429.812l-521.51,70.311l-35.346,-594.319l-161.12,636.767c0,-0 43.822,242.764 195.043,433.799Z" style="fill:#cfc6b5;fill-rule:nonzero;"/><path d="M10046.3,41050.1c0,0 158.295,155.207 316.589,310.424c158.295,152.554 315.166,302.458 315.166,302.458l-391.488,-707.068l603.503,-413.902l-688.3,-100.815l151.22,-764.121c0,0 -105.996,185.722 -209.168,370.117c-103.172,188.374 -207.767,378.083 -207.767,378.083c-0,0 -22.623,328.996 110.245,624.824Z" style="fill:#cfc6b5;fill-rule:nonzero;"/><path d="M9565.78,35535.5l423.988,626.15l-207.745,-661.958l559.681,-256.043l-572.405,-187.038l216.242,-626.15l-438.135,577.063c0,0 -56.546,263.998 18.374,527.976Z" style="fill:#cfc6b5;fill-rule:nonzero;"/><path d="M9250.6,30225.2l91.871,100.805l192.218,228.19c134.27,169.791 268.54,339.602 268.54,339.602c0,0 -72.095,-188.373 -142.745,-374.095c-74.921,-187.057 -163.967,-368.791 -163.967,-368.791l614.826,-379.419l-691.148,-128.679l161.142,-764.1l-425.433,741.55c-0,0 -29.675,313.085 94.696,604.937Z" style="fill:#cfc6b5;fill-rule:nonzero;"/><path d="M8035.11,25070c0,-0 148.396,100.805 296.813,200.316c151.221,106.129 303.865,212.239 303.865,212.239l-414.11,-533.28l214.819,-233.472l210.592,-237.461c0,0 -151.221,18.562 -299.616,34.493c-148.418,21.214 -296.813,42.448 -296.813,42.448l-52.298,-664.631c-0,0 -50.874,164.508 -83.374,362.173c-40.997,183.049 -87.644,355.512 -87.644,355.512l46.647,155.217l161.119,306.446Z" style="fill:#cfc6b5;fill-rule:nonzero;"/><path d="M33957.4,93465l363.237,481.56l-190.816,-520.031l439.558,-233.472l-464.985,-120.725l149.798,-514.717l-330.715,485.538c0,0 -36.748,216.227 33.923,421.847Z" style="fill:#cfc6b5;fill-rule:nonzero;"/><path d="M33271.9,88246.2c-0,-0 154.046,153.891 306.69,310.423c154.068,155.217 302.463,313.075 302.463,313.075c0,0 -87.622,-180.418 -182.319,-358.174c-91.871,-179.093 -185.144,-356.859 -185.144,-356.859l592.181,-421.856l-693.951,-84.896c0,0 31.098,-189.709 62.196,-383.386c32.5,-193.687 57.948,-387.364 57.948,-387.364c0,0 -91.871,193.677 -192.217,387.364c-96.12,189.699 -192.218,379.409 -192.218,379.409c-0,-0 -12.724,318.378 124.371,602.264Z" style="fill:#cfc6b5;fill-rule:nonzero;"/><path d="M31954.6,82992.9l504.58,416.553l-330.736,-504.111l412.708,-364.803l-527.181,-5.314l33.924,-589.006l-234.617,604.927c0,-0 15.549,240.112 141.322,441.754Z" style="fill:#cfc6b5;fill-rule:nonzero;"/><path d="M30229,78002.2c-0,-0 178.07,122.05 357.586,242.764c173.822,124.701 347.665,250.729 347.665,250.729c0,-0 -118.721,-157.869 -237.442,-317.053c-124.371,-157.868 -245.917,-314.401 -245.917,-314.401l505.982,-530.637l-695.374,54.39l-19.776,-780.03l-244.516,826.456c0,-0 45.224,314.411 231.792,567.782Z" style="fill:#cfc6b5;fill-rule:nonzero;"/><path d="M28093.4,73066l631.776,375.431l-450.859,-508.088l402.788,-484.202l-592.181,90.209l-57.948,-664.62l-163.944,720.337c-0,-0 56.524,266.639 230.368,470.933Z" style="fill:#cfc6b5;fill-rule:nonzero;"/><path d="M25711.9,68339.4l758.973,393.993l-558.279,-559.817l442.383,-592.983l-685.475,143.264l-111.669,-770.74l-144.147,850.342c-0,-0 81.972,309.097 298.214,535.941Z" style="fill:#cfc6b5;fill-rule:nonzero;"/><path d="M23046.3,63684.4l664.276,305.12l-496.082,-455.023l353.337,-526.66l-579.479,152.565l-125.794,-654.013l-89.025,733.605c0,0 83.375,257.359 272.767,444.406Z" style="fill:#cfc6b5;fill-rule:nonzero;"/><path d="M21207.5,55864.1l641.654,137.961l-438.135,-302.458l470.635,-522.683l-637.405,240.113l-4.249,-545.222l-237.442,654.003c0,-0 38.151,212.259 204.942,338.286Z" style="fill:#cfc6b5;fill-rule:nonzero;"/><path d="M19423.9,52866l442.384,95.513l-302.463,-206.946l323.662,-362.162l-439.558,167.149l-2.825,-376.746l-163.945,451.035l142.745,232.157Z" style="fill:#cfc6b5;fill-rule:nonzero;"/><path d="M17743.4,49907.8l641.653,160.52l-432.484,-315.727l487.607,-500.122l-645.902,210.923l26.85,-549.2l-274.191,644.722l35.347,126.018l161.12,222.866Z" style="fill:#cfc6b5;fill-rule:nonzero;"/><path d="M16174.6,46757.1l473.481,159.195l-306.712,-265.314l392.912,-350.219l-497.485,122.04l38.15,-408.588l-230.368,469.618l130.022,273.268Z" style="fill:#cfc6b5;fill-rule:nonzero;"/><path d="M14864.4,43570.6l609.154,256.022l-381.611,-378.072l554.031,-423.182l-669.926,112.759l90.469,-537.267l-347.687,594.309c-0,-0 1.402,217.562 145.57,375.431Z" style="fill:#cfc6b5;fill-rule:nonzero;"/><path d="M13740.8,40231.6l504.558,260.01l-302.442,-348.893l496.083,-323.682l-578.055,50.413l55.101,-226.854l55.123,-225.517l-332.138,484.202c-0,-0 -12.703,185.721 101.77,330.321Z" style="fill:#cfc6b5;fill-rule:nonzero;"/><path d="M12888.6,36854.1c0,0 139.92,90.199 281.243,179.083c141.343,86.231 285.512,173.799 285.512,173.799l-165.368,-216.247l-159.718,-218.878l610.577,-328.996l-675.577,0l172.42,-513.401l-435.31,530.647c0,0 -32.5,212.26 86.221,393.993Z" style="fill:#cfc6b5;fill-rule:nonzero;"/><path d="M12313.3,33346.6l223.295,181.733l228.966,176.451l-121.546,-200.316l-115.896,-202.968l546.957,-217.562l-575.23,-68.986l98.945,-212.259l103.172,-210.923l-216.243,200.316l-209.168,206.936c-0,-0 -46.648,181.754 36.748,347.578Z" style="fill:#cfc6b5;fill-rule:nonzero;"/><path d="M31994.2,80559.9l566.754,351.545l-325.064,-435.115l607.752,-331.647l-679.826,6.629l163.945,-518.695l-424.009,539.919c-0,-0 -31.098,210.933 90.448,387.364Z" style="fill:#cfc6b5;fill-rule:nonzero;"/><path d="M31161.8,77162.5l395.736,218.888l-233.215,-286.548l407.059,-257.358l-465.007,37.144l87.645,-360.836l-267.139,387.374l74.921,261.336Z" style="fill:#cfc6b5;fill-rule:nonzero;"/><path d="M30169.6,73928.3l597.853,277.256l-367.463,-390.015l563.93,-412.565l-671.35,99.49l103.172,-537.267l-360.412,592.983c0,0 -5.65,212.259 134.27,370.118Z" style="fill:#cfc6b5;fill-rule:nonzero;"/><path d="M28940,70679.5l466.408,179.093l-298.215,-274.605l407.037,-335.635l-501.733,106.129l53.699,-407.261l-244.494,460.326l117.298,271.953Z" style="fill:#cfc6b5;fill-rule:nonzero;"/><path d="M27591.6,67572.6l623.28,208.281l-202.117,-175.115l-204.92,-172.452l515.859,-472.27l-657.203,175.115l40.997,-542.58l-291.163,627.475c0,0 18.375,212.26 175.267,351.546Z" style="fill:#cfc6b5;fill-rule:nonzero;"/><path d="M26055.3,64481.7l542.73,153.89l-360.411,-281.234l426.835,-424.518l-554.031,172.463l16.951,-464.304l-227.543,547.874c-0,-0 19.797,180.418 155.469,295.829Z" style="fill:#cfc6b5;fill-rule:nonzero;"/><path d="M24446.9,61484.9l638.829,155.207l-429.66,-313.075l481.957,-510.73l-643.077,224.192l9.899,-547.884l-251.567,650.026c-0,-0 31.098,209.607 193.619,342.264Z" style="fill:#cfc6b5;fill-rule:nonzero;"/><path d="M22736.8,58484.2l549.782,122.05l-374.537,-261.346l405.635,-443.08l-548.38,201.642l-0,-468.282l-206.344,561.143c0,-0 32.5,181.744 173.844,287.873Z" style="fill:#cfc6b5;fill-rule:nonzero;"/><path d="M28549.9,40605.7l-877.694,878.195l364.66,-871.565l-1342.7,-180.419l1301.7,-370.117l-596.429,-726.966l1106.66,612.881c0,0 169.595,314.401 43.801,657.991Z" style="fill:#cfc6b5;fill-rule:nonzero;"/><path d="M28195.1,34778l-626.126,571.759l277.015,-586.354l-921.494,-167.139l907.368,-210.943l-390.086,-518.685l744.826,456.339c-0,-0 103.193,221.55 8.497,455.023Z" style="fill:#cfc6b5;fill-rule:nonzero;"/><path d="M28072.2,29122.8l-952.592,785.335l442.362,-830.434l-1324.3,-315.737l1325.73,-234.788l-521.53,-785.355l1041.64,720.337c-0,-0 35.347,84.916 50.896,206.955c15.527,124.692 14.125,289.2 -62.197,453.687Z" style="fill:#cfc6b5;fill-rule:nonzero;"/><path d="M28284.2,23317.6l-750.475,545.222l368.886,-602.264l-986.515,-299.827l1009.12,-115.4c0,-0 -93.273,-155.217 -189.392,-307.782c-86.2,-153.881 -176.669,-306.425 -176.669,-306.425c-0,-0 187.991,147.241 375.96,295.818c192.218,147.262 384.436,294.503 384.436,294.503c-0,-0 98.923,256.043 -35.347,496.155Z" style="fill:#cfc6b5;fill-rule:nonzero;"/><path d="M28795.8,17688.9l-1040.21,647.384l542.73,-761.469l-1274.85,-496.135l1341.28,-50.423c-0,0 -108.822,-212.239 -220.491,-423.182c-107.399,-214.89 -204.92,-429.801 -204.92,-429.801c-0,-0 233.193,218.878 466.386,433.789c240.289,216.226 480.556,432.473 480.556,432.473c-0,0 107.398,344.906 -90.47,647.364Z" style="fill:#cfc6b5;fill-rule:nonzero;"/><path d="M29802.1,12057.5l-932.816,449.72l518.706,-596.961l-1037.39,-549.21l1150.46,96.839l-274.19,-764.121c0,0 178.071,210.923 357.586,419.195c180.896,202.967 361.813,409.923 361.813,409.923l-0,177.767c-15.549,103.477 -50.896,236.124 -144.169,356.848Z" style="fill:#cfc6b5;fill-rule:nonzero;"/><path d="M31493.9,6777.71c-0,-0 -289.739,74.288 -578.077,148.577c-289.718,80.928 -580.88,163.172 -580.88,163.172c-0,-0 179.493,-147.262 357.586,-290.536l243.092,-193.676l113.07,-87.548c0,0 -267.116,-214.91 -534.255,-431.137c-265.714,-220.214 -530.006,-440.428 -530.006,-440.428c0,-0 325.065,92.85 650.151,188.373c323.662,99.49 644.478,196.329 644.478,196.329c0,-0 -38.15,-236.125 -74.898,-470.934c-36.749,-240.112 -73.497,-481.56 -73.497,-481.56c-0,-0 158.294,289.199 316.589,578.399c162.543,279.908 326.487,559.816 326.487,559.816c0,0 -1.423,348.894 -279.84,561.153Z" style="fill:#cfc6b5;fill-rule:nonzero;"/><path d="M34429.4,2399.96c-0,-0 -230.368,-72.953 -480.534,-132.667c-252.991,-62.346 -503.157,-92.851 -503.157,-92.851c0,0 180.896,-57.042 370.289,-88.883c180.917,-33.157 364.659,-66.334 364.659,-66.334c0,0 -134.27,-271.953 -252.99,-547.873c-120.145,-277.257 -228.967,-561.153 -228.967,-561.153c0,0 213.418,206.956 416.936,419.195c203.518,212.259 397.16,432.473 397.16,432.473l35.325,-112.749l89.046,-252.055l111.647,-249.403l60.773,-108.781l-25.448,172.463c-11.301,107.445 -18.374,240.112 -16.951,376.746c-1.423,278.593 29.675,537.267 29.675,537.267l-86.199,124.692c-56.546,68.985 -149.819,120.724 -281.264,149.913Z" style="fill:#cfc6b5;fill-rule:nonzero;"/><path d="M35701.4,85611.6c0,-0 -200.693,233.483 -404.212,466.966l-272.766,321.03l-110.246,179.092l33.923,-160.52l96.099,-310.423c74.898,-224.192 149.819,-445.732 149.819,-445.732l-1352.58,-70.311l1266.36,-474.921l-650.129,-673.902l1153.29,520.021c0,-0 196.467,295.829 90.448,648.7Z" style="fill:#cfc6b5;fill-rule:nonzero;"/><path d="M34840.7,79806.4l-566.755,648.7l216.243,-615.533l-931.393,-54.391l874.868,-325.018l-450.859,-464.304l794.298,355.523c-0,0 137.095,210.933 63.598,455.023Z" style="fill:#cfc6b5;fill-rule:nonzero;"/><path d="M33924.9,74175l-811.27,949.832l302.464,-899.429l-1352.58,-62.345l1262.11,-484.202l-658.604,-667.283l1160.36,505.437c-0,-0 200.693,299.806 97.521,657.99Z" style="fill:#cfc6b5;fill-rule:nonzero;"/><path d="M32949.7,68385.8l-602.102,728.302l217.666,-683.192l-1021.86,-30.515l949.788,-383.386l-504.58,-496.145l879.117,368.791c0,0 156.871,224.202 81.973,496.145Z" style="fill:#cfc6b5;fill-rule:nonzero;"/><path d="M31868.4,62759.7l-782.997,979.021l277.015,-911.362l-1355.4,-13.268l1249.4,-527.986l-678.423,-646.048l1171.68,465.63c-0,-0 209.169,294.502 118.721,654.013Z" style="fill:#cfc6b5;fill-rule:nonzero;"/><path d="M30798.5,57051.4l-681.227,823.814l247.319,-774.727l-1160.36,-34.493l1076.99,-429.811l-568.178,-563.804l993.589,419.204c0,0 175.267,256.033 91.871,559.817Z" style="fill:#cfc6b5;fill-rule:nonzero;"/><path d="M29848.8,51413.4l-818.343,937.899l310.938,-894.116l-1351.15,-82.253l1270.6,-464.304l-644.5,-680.541l1147.66,527.986c-0,-0 193.62,302.458 84.797,655.329Z" style="fill:#cfc6b5;fill-rule:nonzero;"/><path d="M29081.3,45666.6l-729.297,777.379l292.564,-756.155l-1151.88,-112.759l1099.59,-356.848l-532.832,-600.949l966.74,486.864c-0,0 158.294,262.662 55.122,562.468Z" style="fill:#cfc6b5;fill-rule:nonzero;"/><path d="M32259.9,41269l-938.466,766.762l428.258,-786.66l-1328.55,-240.123l1317.23,-273.269l-554.031,-704.426l1072.74,623.498c0,0 155.47,301.143 2.825,614.218Z" style="fill:#cfc6b5;fill-rule:nonzero;"/><path d="M32254.3,35856.5l-665.678,490.832l316.589,-522.673l-910.215,-216.226l915.866,-137.971l-364.66,-504.11l720.822,469.618c0,-0 100.347,213.575 -12.724,420.53Z" style="fill:#cfc6b5;fill-rule:nonzero;"/><path d="M32431,30604.6l-989.341,673.901l481.957,-742.886l-1307.35,-371.444l1334.2,-141.937c0,-0 -125.794,-189.71 -251.589,-379.419c-121.546,-188.373 -243.092,-376.747 -243.092,-376.747c0,0 251.589,180.418 504.58,363.488c254.393,181.734 511.632,362.152 511.632,362.152c-0,0 132.847,317.053 -40.997,612.892Z" style="fill:#cfc6b5;fill-rule:nonzero;"/><path d="M32850.7,25216l-774.522,473.585l395.758,-542.57l-972.39,-319.704l1013.37,-63.682l-350.512,-586.354l746.249,579.714c-0,0 86.22,242.764 -57.948,459.011Z" style="fill:#cfc6b5;fill-rule:nonzero;"/><path d="M33452.8,19989.2l-1040.24,577.063l544.132,-696.451l-1272.01,-490.851l1341.28,-15.911c-0,0 -110.246,-199 -217.666,-399.316c-104.595,-200.296 -207.767,-400.612 -207.767,-400.612c0,-0 234.617,205.619 469.233,412.555c238.865,205.619 477.709,409.923 477.709,409.923c-0,0 104.595,325.008 -94.675,603.6Z" style="fill:#cfc6b5;fill-rule:nonzero;"/><path d="M34385.6,14727.9l-924.319,427.17l507.383,-558.501l-1057.19,-500.123l1144.81,74.289c-0,0 -81.973,-176.43 -162.522,-355.533c-84.797,-179.082 -158.294,-356.848 -158.294,-356.848c-0,-0 189.392,192.361 378.764,384.722c193.641,188.373 385.859,379.398 385.859,379.398c-0,-0 70.671,283.896 -114.494,505.426Z" style="fill:#cfc6b5;fill-rule:nonzero;"/><path d="M35678.8,9669.66c-0,0 -286.914,84.916 -559.703,184.406c-275.592,98.154 -555.432,196.329 -555.432,196.329c-0,-0 161.119,-149.893 319.414,-297.155c155.469,-151.229 326.488,-290.515 326.488,-290.515l-1163.18,-719.021l1325.71,238.797l-281.242,-871.586c-0,-0 196.445,252.055 394.313,501.458c197.868,248.067 395.736,493.483 395.736,493.483c0,0 43.822,335.635 -202.095,563.804Z" style="fill:#cfc6b5;fill-rule:nonzero;"/><path d="M37681.5,4928.45c-0,-0 -244.494,10.607 -494.66,29.169c-252.991,18.582 -498.929,53.075 -498.929,53.075c-0,-0 155.469,-98.175 319.435,-183.07c159.697,-83.58 320.816,-168.476 320.816,-168.476c0,0 -210.592,-210.923 -419.761,-423.182c-210.592,-212.259 -409.862,-431.137 -409.862,-431.137c0,-0 264.292,123.355 525.758,248.067c260.065,127.344 520.108,254.707 520.108,254.707c-0,0 -19.776,-191.025 -25.427,-379.419l-5.672,-266.629l5.672,-122.06l52.276,161.856c36.749,96.838 86.221,226.833 138.519,348.894c52.297,122.039 108.822,240.112 151.221,334.298l74.92,149.894l-39.574,147.261l-214.84,246.752Z" style="fill:#cfc6b5;fill-rule:nonzero;"/><path d="M37560,83329.8c-0,0 -237.442,180.419 -477.709,362.163c-240.267,173.789 -480.534,348.893 -480.534,348.893l449.436,-760.133l-1320.06,-302.468l1324.3,-218.888l-535.656,-719.011c-0,0 264.291,161.846 528.583,321.04c264.291,168.476 527.181,334.299 527.181,334.299c-0,0 146.994,319.705 -15.549,634.105Z" style="fill:#cfc6b5;fill-rule:nonzero;"/><path d="M37316.9,77756.8l-602.08,581.04l250.166,-566.445l-927.166,-87.558l890.417,-270.627l-421.184,-448.384l771.675,360.837c-0,-0 122.969,202.968 38.172,431.137Z" style="fill:#cfc6b5;fill-rule:nonzero;"/><path d="M36563.6,72463.7l-822.57,892.789l315.187,-839.724l-1349.75,-38.481l1267.78,-470.933l-650.151,-608.904l1149.06,451.035c-0,0 196.444,278.583 90.447,614.218Z" style="fill:#cfc6b5;fill-rule:nonzero;"/><path d="M35625.1,67088.4l-603.482,691.147l221.893,-642.06l-1020.44,-7.965l951.169,-374.095l-500.31,-452.372l874.847,326.344c-0,0 152.644,205.62 76.322,459.001Z" style="fill:#cfc6b5;fill-rule:nonzero;"/><path d="M34649.9,61881.5l-809.869,908.72l303.887,-845.038l-1351.17,-21.224l1260.71,-486.864l-655.78,-602.264l1154.71,440.418c0,-0 199.27,273.279 97.522,606.252Z" style="fill:#cfc6b5;fill-rule:nonzero;"/><path d="M33760.9,56571.2l-703.85,754.83l268.54,-715.034l-1156.11,-46.425l1091.11,-386.038l-544.153,-533.289l973.813,404.61c-0,-0 162.521,238.786 70.65,521.346Z" style="fill:#cfc6b5;fill-rule:nonzero;"/><path d="M33034.5,51320.6l-859.319,854.319l350.512,-825.13l-1346.93,-110.107l1288.98,-399.307l-621.877,-647.373l1129.26,518.694c-0,0 182.34,283.886 59.371,608.904Z" style="fill:#cfc6b5;fill-rule:nonzero;"/><path d="M32514.3,45974.4l-757.571,691.148l320.837,-688.496l-1146.23,-147.252l1117.96,-287.873l-496.082,-579.715l937.064,489.516c0,-0 134.249,250.719 24.025,522.672Z" style="fill:#cfc6b5;fill-rule:nonzero;"/><path d="M33989.9,41010.3l949.767,722.989l-440.96,-754.83l1325.73,-260.01l-1322.9,-244.1c0,0 135.694,-172.453 272.789,-344.906c139.92,-173.789 278.417,-346.241 278.417,-346.241c0,-0 -268.54,153.88 -538.482,307.771c-264.291,156.533 -531.408,313.075 -531.408,313.075c0,0 -148.417,302.458 7.052,606.252Z" style="fill:#cfc6b5;fill-rule:nonzero;"/><path d="M34163.7,35639l624.703,541.254l-274.191,-541.254l921.516,-120.724l-900.316,-225.518l200.693,-226.854l206.344,-225.517c-0,-0 -193.62,94.186 -384.415,188.373c-187.99,96.859 -377.362,193.697 -377.362,193.697c0,-0 -113.07,200.316 -16.972,416.543Z" style="fill:#cfc6b5;fill-rule:nonzero;"/><path d="M34714.9,30449.3l850.843,855.656l-343.438,-814.524l1342.68,-62.346l-1274.85,-437.776l651.552,-598.297c0,-0 -288.316,111.433 -575.23,222.866c-288.316,114.084 -576.632,228.169 -576.632,228.169l-84.819,180.418c-31.077,110.118 -48.049,261.347 9.899,425.834Z" style="fill:#cfc6b5;fill-rule:nonzero;"/><path d="M35711.3,25150.9c-0,0 134.27,181.755 282.666,360.837c144.168,180.418 288.337,359.5 288.337,359.5c0,0 -49.472,-160.5 -100.347,-321.02c-53.72,-163.172 -91.871,-322.376 -91.871,-322.376l1021.84,74.288l-917.267,-443.08l535.678,-395.308l-900.316,237.46c-0,0 -172.42,193.677 -118.721,449.699Z" style="fill:#cfc6b5;fill-rule:nonzero;"/><path d="M37362.1,20165.6l634.601,1037.39l-149.819,-874.217l1325.73,257.358l-1153.31,-717.685l749.074,-448.383l-1209.81,191.025c-0,-0 -241.69,217.562 -196.466,554.513Z" style="fill:#cfc6b5;fill-rule:nonzero;"/><path d="M38939.4,15277.2c0,-0 156.893,198.98 313.764,400.632c155.47,208.271 312.362,409.903 312.362,409.903l-197.868,-721.652l1156.11,84.895l-1045.87,-492.167l578.055,-458.99c-0,-0 -251.589,71.636 -500.332,147.241c-247.34,72.973 -497.506,141.958 -497.506,141.958l-80.549,140.622c-39.573,84.896 -69.248,206.935 -38.172,347.558Z" style="fill:#cfc6b5;fill-rule:nonzero;"/><path d="M39851,10343.6l137.095,120.704l296.813,273.289c217.644,202.968 432.485,407.251 432.485,407.251c-0,0 -87.644,-198.98 -175.267,-396.644l-122.969,-273.269l-59.35,-119.408c-0,-0 333.54,-39.797 668.525,-76.941c332.116,-43.763 667.079,-86.231 667.079,-86.231c0,-0 -326.466,-84.896 -654.377,-167.14c-326.466,-80.928 -651.552,-160.52 -651.552,-160.52c-0,0 145.57,-165.823 291.162,-330.311c144.148,-167.16 288.316,-338.287 288.316,-338.287c0,0 -274.19,152.565 -546.957,294.503c-272.788,139.286 -548.38,278.573 -548.38,278.573c-0,-0 -163.967,271.953 -22.623,574.431Z" style="fill:#cfc6b5;fill-rule:nonzero;"/><path d="M39544.3,5464.38c-0,-0 228.966,68.985 462.159,153.88l320.838,123.376l141.322,63.682l-77.724,-84.896l-176.669,-173.799c-130.043,-120.704 -260.064,-242.764 -260.064,-242.764c-0,0 255.816,-137.95 505.982,-287.863c251.567,-147.262 500.331,-305.11 500.331,-305.11c-0,0 -285.491,45.1 -566.755,99.49c-282.665,53.055 -561.104,118.073 -561.104,118.073l38.172,-107.466l76.3,-242.764c50.896,-177.766 83.396,-367.455 83.396,-367.455l-86.221,143.274l-207.745,297.154c-162.543,214.891 -333.562,399.297 -333.562,399.297c0,-0 -50.874,245.415 141.344,413.891Z" style="fill:#cfc6b5;fill-rule:nonzero;"/><path d="M37940.2,82171.7l1013.39,615.533l-508.807,-703.09l1293.21,-405.936l-1339.85,-92.861l474.883,-752.177l-996.414,741.56c-0,0 -121.546,314.401 63.598,596.971Z" style="fill:#cfc6b5;fill-rule:nonzero;"/><path d="M37424.3,76890.6l699.601,417.878l-353.337,-481.56l887.592,-286.538l-921.516,-55.716l322.24,-521.347l-682.651,516.043c0,0 -81.972,216.227 48.071,411.24Z" style="fill:#cfc6b5;fill-rule:nonzero;"/><path d="M36929.6,71771.3l1023.26,599.623l-520.108,-695.135l1287.56,-427.16l-1339.85,-71.637l463.583,-758.807l-986.516,757.481c0,0 -117.319,315.727 72.074,595.635Z" style="fill:#cfc6b5;fill-rule:nonzero;"/><path d="M36338.9,66519.3l775.923,443.08l-397.138,-520.02l968.141,-332.973l-1011.96,-41.122l346.264,-578.399l-742,581.05c-0,0 -83.396,238.787 60.773,448.384Z" style="fill:#cfc6b5;fill-rule:nonzero;"/><path d="M35734,61404l1031.74,570.434l-534.255,-679.215l1276.26,-468.282l-1338.43,-27.853l435.309,-774.727l-958.264,789.312c0,-0 -108.822,319.714 87.645,590.331Z" style="fill:#cfc6b5;fill-rule:nonzero;"/><path d="M34965.1,56210.4l894.645,470.933l-472.059,-573.085l1085.46,-413.891l-1147.64,-13.269c0,0 93.273,-165.823 186.546,-332.973c96.12,-167.149 190.816,-331.647 190.816,-331.647l-826.819,679.215c0,0 -83.374,277.257 89.046,514.717Z" style="fill:#cfc6b5;fill-rule:nonzero;"/><path d="M34378.6,50990.3l1007.71,620.846l-503.156,-705.742l1294.63,-397.981l-1337.03,-102.152l480.534,-745.538l-1003.47,726.966c-0,0 -122.97,318.389 60.773,603.601Z" style="fill:#cfc6b5;fill-rule:nonzero;"/><path d="M34046.4,45682.6l838.12,578.399l-405.635,-628.812l1123.61,-278.583l-1140.58,-151.229c-0,0 108.843,-155.206 217.666,-309.097c114.472,-153.881 226.141,-307.762 226.141,-307.762l-890.418,578.389c0,0 -115.895,263.988 31.098,518.695Z" style="fill:#cfc6b5;fill-rule:nonzero;"/><path d="M46683.2,52352.7l-937.043,789.322l426.835,-817.175l-1329.98,-260.011l1318.65,-277.266l-561.104,-737.583l1076.99,656.665c-0,-0 155.469,319.704 5.65,646.048Z" style="fill:#cfc6b5;fill-rule:nonzero;"/><path d="M46561.6,46664.2l-648.727,535.941l298.215,-558.491l-914.442,-187.048l910.193,-180.418l-378.764,-512.065l736.35,461.662c0,0 104.595,217.553 -2.825,440.419Z" style="fill:#cfc6b5;fill-rule:nonzero;"/><path d="M46688.8,41246.5c0,-0 -254.392,165.823 -508.806,331.647c-254.393,165.824 -503.157,340.938 -503.157,340.938c0,0 124.393,-193.687 251.589,-384.712c128.62,-188.373 255.816,-376.746 255.816,-376.746l-1290.4,-432.474l1337.05,-95.512c0,-0 -114.494,-200.316 -224.739,-404.61c-110.245,-201.642 -220.469,-405.936 -220.469,-405.936c-0,0 240.267,204.294 483.359,405.936c241.69,200.316 484.782,397.981 484.782,397.981c-0,-0 118.721,327.659 -65.022,623.488Z" style="fill:#cfc6b5;fill-rule:nonzero;"/><path d="M47616,35810.1l-833.871,368.791l467.81,-498.786l-913.019,-482.876l1007.72,95.502c0,-0 -63.598,-164.488 -130.021,-328.996c-59.371,-164.487 -120.144,-327.659 -120.144,-327.659c-0,-0 156.892,179.082 315.187,359.5c163.945,179.083 326.466,356.849 326.466,356.849c-0,-0 52.298,262.662 -120.123,457.675Z" style="fill:#cfc6b5;fill-rule:nonzero;"/><path d="M49177.7,30628.5l-1141.99,364.803l681.227,-591.657l-1140.56,-770.76l1317.23,271.953c-0,0 -56.525,-222.866 -110.224,-447.047c-53.721,-226.854 -107.42,-452.372 -107.42,-452.372c-0,0 179.494,262.662 358.988,526.66c183.742,254.707 366.061,510.73 366.061,510.73c-0,-0 4.227,83.579 -16.972,204.304c-24.025,116.736 -77.724,263.977 -206.344,383.386Z" style="fill:#cfc6b5;fill-rule:nonzero;"/><path d="M51502.7,25790.4c-0,0 -250.166,14.595 -501.734,29.189c-251.589,21.214 -505.981,42.448 -505.981,42.448l664.276,-355.533c-0,0 -203.54,-220.214 -405.635,-440.428c-199.292,-221.53 -399.985,-444.396 -399.985,-444.396l1047.29,513.381l-12.724,-793.31c-0,0 98.945,256.043 197.868,513.402c104.595,254.707 207.767,506.762 207.767,506.762l-55.123,159.184l-236.018,269.301Z" style="fill:#cfc6b5;fill-rule:nonzero;"/><path d="M54821.2,21797.3c-0,0 -289.739,-64.997 -578.055,-131.331c-296.792,-57.042 -592.181,-116.736 -592.181,-116.736l866.371,-184.386c-0,0 -165.368,-311.749 -327.89,-623.498c-161.119,-317.053 -320.837,-634.105 -320.837,-634.105c-0,-0 255.816,226.833 514.457,452.351c255.816,230.841 511.632,462.978 511.632,462.978c-0,-0 53.721,-224.182 107.42,-451.035c56.525,-229.506 114.473,-457.675 114.473,-457.675c-0,-0 36.748,325.028 70.671,650.036c43.822,321.04 86.221,640.744 86.221,640.744l-107.42,163.172c-72.074,88.883 -182.319,188.374 -344.862,229.485Z" style="fill:#cfc6b5;fill-rule:nonzero;"/><path d="M59088.2,18877.5c-0,0 -216.242,-133.982 -440.982,-260.01c-226.119,-122.06 -453.684,-241.448 -453.684,-241.448c0,-0 189.393,11.943 374.537,26.537c185.144,22.55 370.31,43.764 370.31,43.764c-0,-0 -60.773,-298.47 -120.144,-595.625c-56.525,-301.142 -113.071,-602.285 -113.071,-602.285c0,0 156.893,253.391 313.764,509.414c154.067,256.043 306.712,510.75 306.712,510.75c-0,-0 90.448,-171.148 190.794,-339.623c97.522,-169.791 204.942,-334.299 204.942,-334.299c-0,0 -62.196,271.953 -104.595,543.906c-42.399,270.618 -79.147,545.222 -79.147,545.222c-0,0 -171.019,214.911 -449.436,193.697Z" style="fill:#cfc6b5;fill-rule:nonzero;"/><path d="M40279.3,95933.7c0,0 -282.665,96.849 -566.754,193.687c-279.841,96.838 -563.908,210.923 -563.908,210.923c-0,0 163.944,-157.858 327.889,-311.739c161.12,-153.891 334.963,-303.794 334.963,-303.794l-1154.71,-736.257l1327.13,236.135l-265.694,-900.755c0,-0 193.62,257.358 385.838,514.717c195.043,256.033 390.086,508.088 390.086,508.088c-0,-0 38.15,348.883 -214.841,588.995Z" style="fill:#cfc6b5;fill-rule:nonzero;"/><path d="M42270.7,90708.3l-805.62,212.249l493.258,-380.724l-763.199,-562.478l903.119,222.866l-148.395,-628.802l493.257,733.605c0,0 9.899,245.416 -172.42,403.284Z" style="fill:#cfc6b5;fill-rule:nonzero;"/><path d="M44257.9,85505.4c-0,0 -279.841,111.443 -561.105,222.876c-135.671,54.391 -285.49,102.142 -392.911,137.96l-182.319,61.02l107.421,-92.86l231.791,-210.923c161.12,-157.869 322.239,-317.053 322.239,-317.053c0,-0 -295.389,-173.789 -592.181,-348.894c-296.813,-171.137 -593.626,-340.938 -593.626,-340.938c0,0 332.138,42.458 667.102,86.232c332.138,39.796 665.699,79.592 665.699,79.592c0,-0 -77.745,-220.215 -156.892,-440.429l-110.224,-299.806l-56.546,-135.309c-0,0 221.892,234.799 426.834,473.585c206.344,242.775 415.534,488.19 415.534,488.19c-0,0 50.874,364.814 -190.816,636.757Z" style="fill:#cfc6b5;fill-rule:nonzero;"/><path d="M45467.7,79835.6l-792.896,453.687l419.783,-549.199l-958.264,-382.06l1016.21,-19.898l-323.663,-627.476l717.976,636.757c-0,-0 73.497,263.997 -79.148,488.189Z" style="fill:#cfc6b5;fill-rule:nonzero;"/><path d="M46098,74273.2l-1021.84,668.597l517.282,-757.481l-1290.4,-420.53l1339.87,-115.41l-481.957,-799.929l1003.47,780.03c-0,0 121.546,336.951 -66.424,644.723Z" style="fill:#cfc6b5;fill-rule:nonzero;"/><path d="M46493.8,68600.7l-849.42,610.23l415.534,-668.598l-1119.38,-314.401l1140.58,-144.6l-433.908,-667.272l880.519,631.454c-0,-0 113.07,283.886 -33.924,553.187Z" style="fill:#cfc6b5;fill-rule:nonzero;"/><path d="M46680.3,63007.8l-969.565,741.571l462.182,-794.625l-1317.25,-326.344l1329.95,-210.933l-524.334,-762.785l1044.46,708.394c-0,0 141.322,326.344 -25.448,644.722Z" style="fill:#cfc6b5;fill-rule:nonzero;"/><path d="M46753.8,57335.3l-818.344,655.329l383.034,-691.148l-1134.93,-248.077l1132.11,-210.923l-465.006,-642.071l908.791,583.703c0,-0 127.197,275.93 -5.65,553.187Z" style="fill:#cfc6b5;fill-rule:nonzero;"/><path d="M49815.2,53703.1l-944.116,730.954l436.711,-761.459l-1325.7,-263.998l1321.48,-240.112l-545.555,-701.765l1062.84,632.79c-0,-0 149.819,298.48 -5.651,603.59Z" style="fill:#cfc6b5;fill-rule:nonzero;"/><path d="M49854.7,48380.9l-669.926,477.563l322.239,-512.056l-908.792,-214.91l918.691,-128.68l-360.411,-497.471l716.573,464.304c0,0 97.522,208.282 -18.374,411.25Z" style="fill:#cfc6b5;fill-rule:nonzero;"/><path d="M50117.6,43270.8l-1014.79,616.869l511.632,-707.078l-1291.8,-421.856l1337.03,-76.94c0,-0 -118.721,-192.351 -236.04,-382.05c-111.647,-192.361 -221.893,-384.712 -221.893,-384.712c0,-0 241.691,192.351 483.381,386.037c247.319,188.374 496.083,379.399 496.083,379.399c-0,-0 121.546,310.423 -63.598,590.331Z" style="fill:#cfc6b5;fill-rule:nonzero;"/><path d="M50897.8,38115.7l-799.948,364.803c0,0 107.42,-122.039 214.819,-242.763l217.666,-238.777l-924.341,-437.776l1013.39,75.604l-269.963,-615.523l664.276,667.262c-0,-0 55.123,241.448 -115.896,427.17Z" style="fill:#cfc6b5;fill-rule:nonzero;"/><path d="M52299.8,33271c0,-0 -284.089,75.625 -566.754,149.913c-286.914,78.256 -570.982,157.869 -570.982,157.869l676.979,-535.951l-1134.91,-768.088l1308.76,302.458l-254.392,-871.566c-0,-0 189.392,256.023 378.763,512.065c190.816,253.371 380.209,504.09 380.209,504.09c0,0 35.325,332.983 -217.666,549.21Z" style="fill:#cfc6b5;fill-rule:nonzero;"/><path d="M54343.5,28540.4c0,0 -247.34,30.505 -491.834,68.985c-245.939,38.46 -493.258,75.605 -493.258,75.605c0,-0 152.623,-99.49 306.69,-196.329l210.592,-132.667l97.522,-59.694l-887.592,-772.075l1085.46,401.968l-124.371,-761.469c-0,0 131.423,234.809 265.693,472.27c137.095,234.808 271.365,468.281 271.365,468.281c0,0 -4.227,281.244 -240.267,435.125Z" style="fill:#cfc6b5;fill-rule:nonzero;"/><path d="M56913,24238.3c0,-0 -291.162,-9.291 -582.303,-19.898c-295.39,-7.975 -586.553,-6.64 -586.553,-6.64c0,0 192.218,-87.547 390.086,-165.823c199.292,-79.592 394.335,-159.184 394.335,-159.184c-0,-0 -224.718,-266.65 -448.034,-533.3c-221.893,-269.301 -442.384,-537.266 -442.384,-537.266l1175.91,673.901c0,-0 -8.475,-229.485 -4.248,-452.351c2.847,-225.538 5.672,-451.056 5.672,-451.056c-0,0 105.997,299.806 214.819,599.633c107.42,294.503 227.543,592.973 226.141,591.657c-0,0 -48.049,328.996 -343.439,460.327Z" style="fill:#cfc6b5;fill-rule:nonzero;"/><path d="M60214.6,20561l-146.994,-50.423l-322.24,-96.839c-243.092,-66.313 -484.782,-133.982 -484.782,-133.982c0,-0 178.071,-26.538 354.739,-53.055c176.669,-26.538 351.936,-43.784 351.936,-43.784c0,0 -130.021,-270.617 -260.064,-539.918c-125.773,-274.605 -252.991,-549.21 -252.991,-549.21c-0,-0 207.767,206.956 416.935,415.227c203.54,210.923 408.461,421.846 408.461,421.846c-0,0 45.245,-181.734 90.469,-364.804c49.451,-183.07 113.071,-366.14 113.071,-366.14c-0,0 5.65,277.257 32.5,545.222c25.447,271.954 63.598,537.267 63.598,537.267l-84.798,124.712c-59.371,67.649 -146.994,137.95 -279.84,153.881Z" style="fill:#cfc6b5;fill-rule:nonzero;"/><path d="M46122.1,89932.3l-773.099,252.045l449.458,-393.993l-808.445,-486.854l914.442,149.904c-0,-0 -49.473,-147.252 -101.77,-293.177c-50.875,-145.926 -107.421,-293.177 -107.421,-293.177c0,-0 141.344,163.171 285.513,327.669c138.497,164.498 278.417,331.647 278.417,331.647c-0,0 31.098,238.787 -137.095,405.936Z" style="fill:#cfc6b5;fill-rule:nonzero;"/><path d="M47377.1,84794.4l-1076.96,504.1l585.129,-647.374l-1246.58,-543.896l1338.45,46.425l-407.058,-801.255l927.165,841.051c0,-0 94.697,332.973 -120.144,600.949Z" style="fill:#cfc6b5;fill-rule:nonzero;"/><path d="M48236.4,79478.7l-787.224,431.147l412.687,-514.717l-963.892,-355.523l1011.94,-25.212l-334.964,-589.005l729.298,598.297c0,-0 83.374,245.415 -67.847,455.013Z" style="fill:#cfc6b5;fill-rule:nonzero;"/><path d="M48854.1,74291.8l-1028.91,592.983l527.181,-695.135l-1283.33,-440.429l1341.28,-59.694l-456.509,-769.423l978.04,772.075c-0,0 114.472,319.715 -77.746,599.623Z" style="fill:#cfc6b5;fill-rule:nonzero;"/><path d="M49459,69010.6c-0,0 -217.666,132.657 -435.31,261.337c-217.666,127.353 -439.558,254.706 -439.558,254.706c-0,0 113.07,-147.251 226.141,-297.154c108.822,-149.903 219.067,-301.132 219.067,-301.132l-1102.41,-367.466l1143.39,-66.334l-401.387,-651.351l849.42,647.374c0,-0 101.77,275.931 -59.349,520.02Z" style="fill:#cfc6b5;fill-rule:nonzero;"/><path d="M49805.3,63718.9l-975.215,683.192l469.233,-740.234l-1314.4,-323.692l1328.55,-183.07l-515.88,-720.337l1037.39,673.911c0,0 138.519,311.75 -29.674,610.23Z" style="fill:#cfc6b5;fill-rule:nonzero;"/><path d="M49875.9,58371.4l-814.095,620.847l378.786,-652.688l-1133.51,-226.843l1133.51,-204.294l-469.234,-600.949l911.617,541.245c0,-0 128.598,261.346 -7.074,522.682Z" style="fill:#cfc6b5;fill-rule:nonzero;"/><path d="M61755.1,20230.6l172.42,-90.199l366.062,-224.202l180.917,-139.286l146.994,-144.589l79.147,-135.319l15.528,-49.087l2.825,41.132l-16.951,136.634l-158.295,340.939c-137.095,229.485 -305.288,435.125 -305.288,435.125c-0,-0 299.638,169.791 593.604,359.5c296.813,192.341 582.304,391.341 582.304,391.341c0,0 -343.439,-17.246 -681.227,-47.751c-337.788,-26.537 -674.175,-66.333 -674.175,-66.333l35.347,168.475c18.374,102.142 42.398,238.776 66.423,375.431c25.426,140.602 45.224,278.572 60.773,383.366l22.601,175.114c0,0 -162.521,-311.749 -339.19,-612.871c-179.494,-302.478 -361.813,-587.69 -361.813,-587.69c0,0 -5.672,-104.793 18.374,-242.764l65,-230.821l128.62,-236.145Z" style="fill:#cfc6b5;fill-rule:nonzero;"/><path d="M58931.3,26697.8l884.767,-267.965l-595.027,474.921l679.825,692.484l-896.068,-274.605l25.448,782.682l-364.66,-911.362c0,0 39.574,-302.458 265.715,-496.155Z" style="fill:#cfc6b5;fill-rule:nonzero;"/><path d="M55847.3,33147.6l195.043,-78.256c118.721,-47.771 269.963,-111.433 432.485,-171.127c319.435,-116.757 637.426,-233.493 637.426,-233.493c0,-0 -209.168,184.406 -416.935,370.127c-207.767,187.038 -404.212,382.051 -404.212,382.051l1065.66,918.001l-1327.13,-274.605l131.423,1119.65c-0,0 -162.522,-313.085 -323.641,-626.15c-158.295,-315.737 -316.589,-631.474 -316.589,-631.474c-0,0 22.601,-453.687 326.466,-774.727Z" style="fill:#cfc6b5;fill-rule:nonzero;"/><path d="M53345.7,40149.4l897.47,-508.087l-539.905,659.316l881.941,569.108l-1027.51,-61.02c0,0 48.049,206.946 94.696,412.565c43.822,204.294 108.822,412.565 108.822,412.565l-97.521,-135.308l-209.169,-298.481c-146.994,-217.562 -292.564,-437.776 -292.564,-437.776c-0,-0 -19.776,-342.254 183.742,-612.882Z" style="fill:#cfc6b5;fill-rule:nonzero;"/><path d="M51953.6,47326.2l161.119,-139.286c93.273,-83.58 231.792,-192.361 368.887,-298.48c274.19,-214.911 546.957,-425.844 546.957,-425.844c-0,-0 -149.819,242.774 -298.215,484.212c-77.724,120.714 -148.396,244.09 -195.043,338.276l-81.972,155.217c-0,-0 320.837,132.657 641.653,267.965c320.838,130.006 643.077,262.662 643.077,262.662l-1342.68,167.15l457.933,1024.13c-0,-0 -244.516,-245.416 -491.856,-488.19c-245.918,-249.393 -489.01,-500.123 -489.01,-500.123c0,0 -114.494,-443.08 79.148,-847.69Z" style="fill:#cfc6b5;fill-rule:nonzero;"/><path d="M51456.1,54670.2l866.393,-786.67l-436.733,862.285l1108.06,408.588l-1146.21,184.395l404.211,864.937l-852.245,-822.479c-0,0 -101.77,-364.814 56.524,-711.056Z" style="fill:#cfc6b5;fill-rule:nonzero;"/><path d="M50955.7,61855l1023.26,-908.711l-521.509,1002.9l1291.8,492.168l-1345.53,201.642l466.408,1014.84l-990.764,-972.392c-0,0 -115.896,-428.485 76.322,-830.443Z" style="fill:#cfc6b5;fill-rule:nonzero;"/><path d="M50398.9,69161.9l870.62,-787.986l-440.96,862.275l1112.31,404.61l-1147.63,196.339c-0,-0 104.573,218.888 211.993,435.125l154.068,298.48l74.899,123.376l-142.746,-104.804l-149.819,-139.296l-159.718,-147.251l-301.04,-286.538l-137.095,-130.005c0,-0 -104.573,-372.769 55.123,-724.325Z" style="fill:#cfc6b5;fill-rule:nonzero;"/><path d="M63386.1,19647l89.046,-144.61c50.896,-76.94 113.071,-202.967 156.893,-332.962c45.224,-130.016 72.073,-270.638 76.322,-380.735l-8.497,-185.721l56.546,119.388l65.021,266.649l8.476,261.326l-8.476,118.073c0,-0 302.442,-153.881 624.681,-261.346c319.436,-111.433 652.976,-188.374 652.976,-188.374c0,0 -262.89,224.202 -539.905,420.531c-274.19,197.664 -568.156,374.095 -568.156,374.095c-0,-0 175.245,75.624 350.512,185.721c166.77,110.117 339.19,246.752 339.19,246.752c0,-0 -298.215,-94.187 -580.88,-143.274c-141.322,-25.202 -291.141,-35.808 -398.562,-38.46l-176.668,-2.652c-0,0 -195.043,-111.433 -138.519,-314.401Z" style="fill:#cfc6b5;fill-rule:nonzero;"/><path d="M63496.4,23751.4c0,0 182.32,-75.625 364.66,-152.565c180.896,-79.592 361.813,-157.868 361.813,-157.868l-385.859,401.968l864.991,356.849l-920.092,-51.739c-0,-0 74.899,127.363 139.92,254.707c66.423,128.679 132.847,257.358 132.847,257.358c-0,0 -156.871,-139.286 -312.341,-279.908c-151.242,-139.286 -318.012,-273.269 -318.012,-273.269c-0,-0 -66.423,-199.001 72.073,-355.533Z" style="fill:#cfc6b5;fill-rule:nonzero;"/><path d="M62197.5,28078.7c0,-0 279.841,-46.415 562.507,-92.851c281.264,-50.423 562.506,-102.142 562.506,-102.142l-674.154,444.396l1103.81,814.523l-1280.48,-395.328l219.067,826.466l-713.748,-1008.2l18.374,-179.083l202.116,-307.781Z" style="fill:#cfc6b5;fill-rule:nonzero;"/><path d="M60131.2,32428.6l857.896,-106.129l-524.335,311.749l811.249,644.712l-961.068,-328.975l156.871,630.117l-527.181,-776.043c0,0 -9.877,-241.448 186.568,-375.431Z" style="fill:#cfc6b5;fill-rule:nonzero;"/><path d="M58206.2,36838.2c0,0 279.841,-61.03 562.506,-114.105c284.089,-53.054 565.353,-107.445 565.353,-107.445c0,-0 -168.193,112.769 -336.386,226.854c-172.421,112.748 -334.964,230.821 -334.964,230.821l1136.34,765.436l-1300.28,-330.311l274.191,814.523c-0,0 -193.62,-240.112 -388.663,-480.224c-195.043,-241.449 -387.261,-484.213 -387.261,-484.213c0,0 -38.172,-322.356 209.169,-521.336Z" style="fill:#cfc6b5;fill-rule:nonzero;"/><path d="M56617.6,41523.7l937.043,-297.154l-528.605,456.349l1027.51,545.232l-1137.74,-160.52c0,-0 73.497,167.149 145.571,332.973c70.672,167.149 152.644,332.973 152.644,332.973c0,-0 -185.144,-187.048 -374.537,-370.118c-180.917,-188.373 -364.659,-376.746 -364.659,-376.746c-0,-0 -55.101,-270.628 142.767,-462.989Z" style="fill:#cfc6b5;fill-rule:nonzero;"/><path d="M55535,46291.5l1057.19,-459.001l-565.332,594.319l1253.63,502.774l-1341.28,-45.109c0,-0 101.77,185.721 214.841,370.117c110.245,184.396 219.067,367.466 219.067,367.466c0,-0 -240.267,-191.025 -479.132,-384.702c-238.843,-195.013 -477.708,-392.677 -477.708,-392.677c-0,-0 -91.872,-306.436 118.721,-553.187Z" style="fill:#cfc6b5;fill-rule:nonzero;"/><path d="M54867.9,51205.2l866.393,-480.224l-438.157,554.513l1108.08,327.67l-1144.83,68.975l404.233,595.645l-852.245,-586.354c-0,-0 -104.595,-254.707 56.524,-480.225Z" style="fill:#cfc6b5;fill-rule:nonzero;"/><path d="M78247.5,38313.4c-354.761,-2984.82 -4597.64,-3573.83 -6798.23,-3405.36c-3243.64,248.067 -5794.72,1855.9 -8171.99,4088.55c-5322.66,4999.91 -7951.49,12870.6 -9677.21,19939.9c-945.519,3874.97 -1718.64,7818.92 -2373.02,11760.2c-684.052,4120.38 -870.62,8297.81 -1710.14,12397c-822.571,3999.66 -2060.68,8490.16 -4288.12,11895.5c-1088.26,1664.88 -2693.83,3402.7 -4384.2,4355.2c-1660.69,931.26 -3606.87,1323.93 -5341.06,2096c-1714.39,764.121 -1917.91,3945.27 394.334,3957.22c1543.37,6.629 3018.92,287.873 4567.94,57.042l200.693,-26.527c353.338,-23.886 702.448,-61.03 1043.06,-108.781c326.488,-35.819 650.129,-83.58 982.267,-163.172c237.441,-49.088 469.233,-96.839 688.3,-147.252c3024.57,-701.764 5493.7,-2633.28 7424.34,-5125.94c2033.8,-2625.32 3237.99,-5842.3 4135.45,-9057.95c1085.46,-3877.61 1936.3,-7826.88 2801.27,-11762.9c931.393,-4239.78 1427.48,-8547.21 2553.91,-12748.5c1057.19,-3925.38 2508.71,-7806.98 4286.7,-11428.6c1766.69,-3595.06 4059.13,-6863.78 6745.91,-9754.41c1400.63,-1507.01 3069.79,-2649.2 4671.13,-3897.51c773.098,-603.6 2398.44,-1652.93 2248.64,-2919.82Z" style="fill:#63884a;fill-rule:nonzero;"/><path d="M74855.5,35215.8c-914.442,-240.113 -1874.11,-332.984 -2688.18,-332.984c-255.816,0 -497.506,9.292 -717.997,25.222c221.914,-15.93 463.583,-26.537 720.822,-26.537c812.672,-0 1770.91,94.186 2685.36,334.299Z" style="fill:#d6e0c8;fill-rule:nonzero;"/><path d="M40666.5,100066c-221.893,-100.826 -443.785,-200.316 -667.101,-299.816c288.337,-128.669 571.003,-267.965 845.193,-421.846c1690.37,-952.494 3295.93,-2690.32 4384.2,-4355.2c2227.45,-3405.36 3465.55,-7895.85 4288.12,-11895.5c839.521,-4099.16 1026.09,-8276.59 1710.14,-12397c654.377,-3941.3 1427.5,-7885.24 2373.02,-11760.2c1725.71,-7069.38 4354.54,-14940 9677.21,-19939.9c2377.26,-2232.65 4928.35,-3840.48 8171.99,-4088.55c220.491,-15.93 462.181,-25.222 717.997,-25.222c814.074,0 1773.74,92.871 2688.18,332.984c484.782,127.343 956.84,297.154 1387.9,514.717c-2392.79,234.808 -4740.36,741.57 -6962.15,1794.87c-3103.72,1471.2 -5545.98,3946.61 -7565.66,6782.86c-4358.77,6123.53 -6874.53,13588.2 -8420.75,20995.9c-774.5,3711.8 -1235.26,7479.31 -1664.92,11252.1c-419.761,3670.67 -880.519,7355.93 -1947.61,10890c-928.567,3063.09 -2392.79,5819.75 -4394.1,8242.09c-1334.2,1613.14 -2830.95,3297.9 -4621.66,4377.75Z" style="fill:#638d37;fill-rule:nonzero;"/><path d="M78247.5,38313.4c-83.395,-692.483 -373.135,-1254.95 -799.969,-1709.98c426.834,455.023 717.975,1017.49 799.969,1709.98Z" style="fill:#d6e0c8;fill-rule:nonzero;"/><path d="M43141.3,103539c-344.862,-651.352 -922.917,-1764.36 -1320.08,-2503.28c725.049,-234.798 1431.72,-535.941 2098.82,-866.262c2887.47,-1436.7 5283.11,-3633.52 6857.58,-6569.26c1727.11,-3223.61 2382.91,-6965.92 3030.22,-10558.3c754.724,-4180.08 1298.88,-8398.64 1978.68,-12590.7c654.399,-4032.82 1421.85,-8084.22 2662.76,-11968.5c1014.79,-3170.55 2495.99,-6155.37 4375.74,-8852.33c1859.96,-2675.73 4126.98,-5013.18 6559.35,-7111.84c1120.79,-968.404 2282.57,-1846.61 3495.22,-2681.03c1051.54,-721.662 2127.08,-1501.69 2898.77,-2561.65c350.512,-482.877 511.632,-1016.16 489.031,-1533.53c450.859,230.822 855.07,514.718 1180.13,860.959c426.834,455.023 716.574,1017.49 799.969,1709.98c5.651,54.391 8.476,108.781 9.878,161.836c1.423,1193.93 -1519.35,2179.58 -2258.52,2757.98c-1601.34,1248.31 -3270.51,2390.51 -4671.13,3897.51c-2686.78,2890.64 -4979.23,6159.35 -6745.91,9754.41c-1777.99,3621.58 -3229.51,7503.18 -4286.7,11428.6c-1126.44,4201.31 -1622.52,8508.74 -2553.91,12748.5c-864.969,3935.98 -1715.81,7885.24 -2801.27,11762.9c-897.47,3215.66 -2101.65,6432.63 -4135.45,9057.95c-1013.37,1308.02 -2175.15,2462.14 -3488.15,3365.55c-142.745,-116.736 -289.739,-228.169 -438.135,-339.602c7.074,6.629 12.724,13.269 19.798,19.898c-449.457,-339.602 -908.792,-665.946 -1342.7,-1022.8c-725.049,298.481 -1450.1,608.904 -2162.42,979.021c-81.972,217.563 -166.77,435.115 -251.567,654.004Z" style="fill:#50873a;fill-rule:nonzero;"/><path d="M53942.1,64609l-1052.94,571.759l558.258,-697.776l-1262.11,-510.74l1342.68,-2.652l-414.11,-817.185l937.043,843.713c-0,-0 96.119,332.973 -108.822,612.881Z" style="fill:#cfc6b5;fill-rule:nonzero;"/><path d="M54972.5,59240.3l-753.322,335.625l418.359,-447.058l-843.77,-419.204l921.494,72.963c-0,-0 -62.175,-145.926 -125.795,-291.852c-59.349,-145.925 -120.122,-290.515 -120.122,-290.515l603.503,628.802c-0,-0 52.298,232.147 -100.347,411.239Z" style="fill:#cfc6b5;fill-rule:nonzero;"/><path d="M56363.2,54171.4c0,-0 -281.263,91.535 -562.506,183.07c-281.264,94.186 -565.353,188.373 -565.353,188.373l658.626,-587.68l-1154.71,-741.56l1324.3,257.358l-260.043,-884.834c0,-0 190.795,254.707 383.013,509.403c193.641,252.055 387.261,501.459 387.261,501.459l-14.126,200.316l-196.467,374.095Z" style="fill:#cfc6b5;fill-rule:nonzero;"/><path d="M58364.5,49179.5l-872.044,176.43l539.905,-379.398l-807.021,-660.643l972.39,311.749l-124.372,-681.866l497.485,822.489l-28.251,148.577l-178.092,262.662Z" style="fill:#cfc6b5;fill-rule:nonzero;"/><path d="M60792.6,44578.8l-185.144,3.978c-108.844,6.639 -254.414,14.594 -399.985,22.559c-295.39,23.876 -589.356,43.774 -589.356,43.774c0,0 193.62,-102.152 384.414,-204.294c189.393,-104.803 388.684,-196.338 388.684,-196.338c0,-0 -234.616,-253.371 -470.656,-506.752c-233.193,-260.01 -464.985,-518.695 -464.985,-518.695c0,0 305.289,151.229 607.73,301.132c302.464,151.229 604.927,305.12 604.927,305.12c-0,0 -14.147,-232.157 -19.798,-464.314c-1.402,-228.169 -2.825,-459 -2.825,-459c0,-0 114.494,297.164 230.39,596.971c117.297,295.828 250.144,590.331 250.144,590.331c-0,0 -39.574,334.299 -333.54,485.528Z" style="fill:#cfc6b5;fill-rule:nonzero;"/><path d="M64092.8,40678.7c0,0 -241.669,-68.985 -486.184,-126.028c-245.917,-54.39 -490.433,-111.432 -490.433,-111.432c0,-0 179.494,-34.493 358.988,-70.312c178.092,-38.47 360.411,-63.681 360.411,-63.681c0,-0 -135.693,-266.64 -274.19,-533.29c-132.847,-270.617 -265.715,-539.918 -265.715,-539.918c0,-0 214.841,198.99 431.083,396.655c216.243,200.316 428.236,401.948 428.236,401.948c0,-0 38.172,-195.003 86.221,-383.376c48.049,-191.035 96.098,-379.409 96.098,-379.409c0,0 29.675,274.605 59.372,549.21c31.098,269.301 76.322,545.222 76.322,545.222c-0,0 -106.019,262.672 -380.209,314.411Z" style="fill:#cfc6b5;fill-rule:nonzero;"/><path d="M68225.5,37969.8c0,0 -248.764,-164.508 -504.58,-314.401c-258.641,-149.913 -518.684,-298.49 -518.684,-298.49c0,-0 216.242,23.885 429.66,45.099c214.819,26.538 426.834,61.03 426.834,61.03c0,0 -67.847,-348.893 -132.868,-699.103c-62.175,-350.229 -122.969,-701.774 -122.969,-701.774c-0,-0 178.092,299.806 354.76,600.948c175.246,301.122 349.089,604.916 349.089,604.916c0,0 113.071,-198.98 223.316,-396.644c113.071,-198.98 236.04,-390.026 236.04,-390.026c0,0 -65.021,315.737 -117.319,634.126c-52.297,321.02 -94.696,636.757 -94.696,636.757c-0,-0 -209.169,250.719 -528.583,217.562Z" style="fill:#cfc6b5;fill-rule:nonzero;"/><path d="M72995.5,36663.1c0,0 -159.718,-201.652 -330.736,-393.993c-166.77,-197.664 -344.841,-387.373 -344.841,-387.373c0,-0 169.595,74.288 336.365,156.532c166.77,80.928 327.89,164.508 327.89,164.508c-0,-0 32.522,-302.458 65.021,-604.936c35.347,-302.458 74.921,-603.58 74.921,-603.58c-0,-0 67.825,293.166 138.497,586.333c63.598,294.503 130.021,589.006 130.021,589.006c0,0 135.693,-131.331 275.614,-257.358c141.322,-127.344 291.141,-246.732 291.141,-246.732c-0,0 -137.095,234.809 -258.641,480.225c-121.546,242.764 -233.194,486.843 -233.194,486.843c0,0 -221.892,147.262 -472.058,30.525Z" style="fill:#cfc6b5;fill-rule:nonzero;"/><path d="M42745.6,99901.6c-0,-0 -199.292,-62.356 -397.16,-124.702c-193.62,-64.998 -388.663,-130.005 -388.663,-130.005l600.678,-61.02l-388.684,-890.148l671.35,673.911l165.347,-611.555c-0,-0 24.046,220.214 43.822,439.102c22.623,224.192 40.997,447.058 40.997,447.058c-0,0 -111.669,217.563 -347.687,257.359Z" style="fill:#cfc6b5;fill-rule:nonzero;"/><path d="M46669,96058.4l-189.392,7.965c-111.647,3.978 -258.641,10.607 -414.111,6.629c-305.288,-3.977 -599.254,-25.201 -599.254,-25.201c-0,0 204.92,-76.94 409.862,-156.543l279.84,-123.375l124.371,-58.369c0,0 -230.368,-262.662 -459.334,-523.998c-233.193,-253.381 -467.81,-508.087 -467.81,-508.087c-0,-0 303.865,149.903 609.153,301.142c306.691,144.589 613.381,290.515 613.381,290.515c-0,-0 -19.776,-233.473 -40.976,-470.933c-24.024,-228.18 -48.049,-457.675 -48.049,-457.675c0,-0 145.571,281.234 285.491,575.737c139.92,290.525 272.767,594.319 272.767,594.319l-66.423,206.946c-55.123,114.084 -152.644,253.381 -309.516,340.928Z" style="fill:#cfc6b5;fill-rule:nonzero;"/><path d="M49142.4,90907.3c-0,-0 -214.841,70.301 -431.083,140.612c-214.819,65.007 -431.062,131.331 -431.062,131.331l257.218,-216.227c128.62,-112.759 254.414,-221.54 254.414,-221.54l-870.619,-562.478l1000.64,184.395c-0,0 -52.298,-167.149 -105.997,-332.973c-55.123,-167.149 -111.647,-332.973 -111.647,-332.973c-0,0 154.046,188.374 305.267,375.421c149.819,189.709 298.214,382.06 298.214,382.06c0,0 28.273,269.302 -165.346,452.372Z" style="fill:#cfc6b5;fill-rule:nonzero;"/><path d="M50605.2,85632.8c-0,-0 -274.191,122.05 -546.958,245.425c-275.613,119.388 -548.38,238.787 -548.38,238.787c0,-0 152.644,-160.52 303.865,-321.041c154.068,-165.823 305.289,-327.669 305.289,-327.669l-1223.96,-602.265l1341.28,91.535l-373.135,-841.06l891.819,899.429c-0,-0 74.92,347.567 -149.819,616.859Z" style="fill:#cfc6b5;fill-rule:nonzero;"/><path d="M51685,80192.4l-910.194,478.899l487.608,-591.658l-1075.56,-451.035l1150.46,7.955l-356.162,-700.439l802.773,725.64c-0,0 80.571,289.2 -98.923,530.638Z" style="fill:#cfc6b5;fill-rule:nonzero;"/><path d="M52485,74805.2l-1043.04,594.309l546.957,-708.394l-1273.43,-482.886l1341.28,-35.818l-436.733,-803.907l961.089,814.524c0,-0 105.997,334.299 -96.119,622.172Z" style="fill:#cfc6b5;fill-rule:nonzero;"/><path d="M53222.7,69367.5l-894.645,500.123l470.635,-602.275l-1084.04,-425.834l1149.06,-11.942l-358.988,-696.451c0,-0 200.693,183.059 401.387,363.477c203.518,179.093 404.211,354.197 404.211,354.197c0,0 84.82,278.593 -87.622,518.705Z" style="fill:#cfc6b5;fill-rule:nonzero;"/><path d="M57116.5,63244l-1064.26,419.205l576.653,-571.76l-1238.1,-561.142l1332.8,112.759c-0,-0 -97.522,-189.71 -195.043,-379.409c-93.295,-189.699 -187.97,-380.734 -187.97,-380.734l898.872,827.792c-0,-0 89.046,302.468 -122.948,533.289Z" style="fill:#cfc6b5;fill-rule:nonzero;"/><path d="M58276.9,58555.8l-747.672,244.09l416.936,-367.466l-831.047,-435.115l911.617,128.669l-243.092,-535.941l596.43,606.253c-0,-0 50.874,209.607 -103.172,359.51Z" style="fill:#cfc6b5;fill-rule:nonzero;"/><path d="M59636.5,54114.4c-0,-0 -277.016,63.671 -552.608,127.353c-277.015,66.323 -555.454,133.983 -555.454,133.983l644.5,-482.877l-1151.88,-738.908l1301.68,310.413c-0,-0 -77.724,-204.294 -142.745,-405.936c-63.599,-202.968 -127.197,-403.274 -127.197,-403.274c0,-0 187.97,237.45 378.786,478.899c189.392,236.124 392.911,474.91 392.911,474.91c-0,0 49.472,310.424 -187.991,505.437Z" style="fill:#cfc6b5;fill-rule:nonzero;"/><path d="M61513.4,49813.6c-0,0 -211.994,14.595 -421.163,27.863c-209.19,19.898 -419.782,37.145 -419.782,37.145l515.88,-287.874l-773.098,-688.496l939.868,397.971l-114.472,-634.105c-0,-0 114.472,204.293 233.193,408.587c118.721,200.316 238.865,400.633 238.865,400.633c0,-0 -2.825,228.169 -199.291,338.276Z" style="fill:#cfc6b5;fill-rule:nonzero;"/><path d="M64044.8,46140.2c-0,-0 -277.015,-54.391 -556.856,-99.491c-279.84,-42.457 -561.104,-86.231 -561.104,-86.231c-0,-0 192.217,-51.739 383.034,-104.804c187.969,-53.064 381.588,-96.838 381.588,-96.838c0,-0 -200.693,-283.886 -401.386,-566.456c-199.292,-285.212 -398.561,-569.108 -398.561,-569.108c-0,0 275.592,197.665 551.205,401.958c272.767,201.643 545.555,404.61 545.555,404.61c0,0 8.476,-214.91 16.951,-429.811c12.724,-213.585 26.85,-425.834 26.85,-425.834c-0,0 89.046,298.481 176.669,598.287c93.294,297.154 189.392,596.971 189.392,596.971c0,-0 -63.598,299.806 -353.337,376.747Z" style="fill:#cfc6b5;fill-rule:nonzero;"/><path d="M67366.1,43057.3c-0,-0 -224.718,-92.861 -449.457,-184.396c-230.368,-87.557 -459.335,-177.767 -459.335,-177.767l675.577,-26.527l-496.083,-1095.77l794.319,870.239l166.77,-713.697c0,0 28.252,267.965 59.35,535.941c35.347,266.64 67.847,531.963 67.847,531.963c-0,0 -105.997,236.125 -358.988,260.011Z" style="fill:#cfc6b5;fill-rule:nonzero;"/><path d="M71117.2,40636.2c-0,0 -245.917,-149.903 -489.009,-299.806c-250.166,-144.6 -498.908,-291.851 -498.908,-291.851l785.822,98.164l-373.135,-1361.07l761.797,1159.44c0,0 79.148,-197.664 156.893,-394.003c81.973,-200.316 163.945,-395.319 163.945,-395.319c-0,0 -14.147,314.401 -28.273,630.128c-8.476,314.401 -16.951,626.15 -16.951,626.15c0,-0 -163.945,258.684 -462.181,228.169Z" style="fill:#cfc6b5;fill-rule:nonzero;"/><path d="M75247,38849.3c-0,-0 -185.166,-161.836 -371.712,-323.692c-192.218,-159.184 -383.034,-318.368 -383.034,-318.368c0,-0 163.967,49.087 326.488,96.838c161.12,50.403 320.838,99.49 320.838,99.49l-139.921,-1203.21l491.835,1089.13c-0,0 91.871,-155.216 182.319,-310.413c96.119,-152.565 189.392,-305.13 189.392,-305.13c0,0 -59.349,262.662 -107.398,525.324c-48.071,261.346 -94.697,524.008 -94.697,524.008c0,0 -168.193,193.677 -414.11,126.028Z" style="fill:#cfc6b5;fill-rule:nonzero;"/><path d="M47439.3,99839.2c-0,-0 -288.338,-75.615 -563.93,-167.15c-134.27,-43.773 -275.614,-96.838 -373.135,-136.634l-162.522,-72.963c0,0 193.62,2.652 395.737,-13.269l277.015,-27.853l127.196,-17.246c0,-0 -166.77,-310.423 -340.613,-612.881c-173.844,-303.794 -354.761,-599.623 -354.761,-599.623c0,-0 255.816,226.843 513.055,452.371c261.467,220.214 520.108,440.418 520.108,440.418c-0,0 19.797,-217.552 39.573,-435.114c18.375,-212.259 19.798,-428.486 19.798,-428.486c0,0 101.748,302.458 182.319,602.264c84.798,303.794 155.469,618.195 155.469,618.195l-90.447,171.127c-72.096,88.883 -183.743,188.374 -344.862,226.844Z" style="fill:#cfc6b5;fill-rule:nonzero;"/><path d="M50552.9,95809.1c-0,-0 -197.869,11.932 -395.737,26.527c-196.466,11.943 -392.911,21.224 -392.911,21.224l497.485,-256.033l-706.675,-628.802l863.568,346.242c-0,0 -25.448,-145.925 -56.546,-291.851c-33.924,-148.577 -67.826,-295.829 -67.826,-295.829c0,0 117.298,184.396 233.194,367.466c117.297,183.07 223.316,368.791 223.316,368.791c-0,0 -7.074,226.844 -197.868,342.265Z" style="fill:#cfc6b5;fill-rule:nonzero;"/><path d="M52415.7,91277.4c0,0 -267.116,86.221 -546.957,164.498c-281.264,72.963 -561.104,148.577 -561.104,148.577c-0,0 162.521,-126.027 325.064,-250.729c158.295,-126.028 308.114,-261.336 308.114,-261.336c-0,-0 -298.215,-165.824 -596.43,-331.647c-298.215,-163.172 -596.429,-327.67 -596.429,-327.67l1320.06,210.933l-342.037,-778.715c0,0 214.841,216.237 429.66,433.799c212.015,224.192 425.432,445.732 425.432,445.732c0,0 65,322.366 -165.368,546.558Z" style="fill:#cfc6b5;fill-rule:nonzero;"/><path d="M53498.4,86377l-792.896,382.06l416.936,-466.966l-962.491,-340.928l1009.14,-3.988l-337.788,-545.222l732.101,561.143c0,-0 81.973,225.528 -65,413.901Z" style="fill:#cfc6b5;fill-rule:nonzero;"/><path d="M54116,81653l-1030.34,512.066l532.831,-619.511l-1276.26,-445.742l1337.03,-11.933l-450.859,-719.01l972.39,740.234c-0,0 110.245,294.503 -84.798,543.896Z" style="fill:#cfc6b5;fill-rule:nonzero;"/><path d="M54784.5,76857.4l-886.168,428.486l457.932,-526.65l-1088.29,-391.342l1144.81,1.326l-378.764,-618.195l825.396,640.745c-0,0 91.871,250.719 -74.921,465.63Z" style="fill:#cfc6b5;fill-rule:nonzero;"/><path d="M55477,72142.7l-1044.46,482.877l549.783,-606.242l-1264.93,-480.235l1337.03,26.538l-429.66,-732.28l951.19,766.772c0,0 103.172,298.481 -98.944,542.57Z" style="fill:#cfc6b5;fill-rule:nonzero;"/><path d="M56295.4,67388.2l-897.47,388.689l477.709,-505.425l-1069.91,-441.755l1143.41,54.391l-349.089,-634.115l794.298,677.888c-0,0 80.549,257.359 -98.945,460.327Z" style="fill:#cfc6b5;fill-rule:nonzero;"/><path d="M58675.4,63957.7c0,0 187.97,208.272 377.362,417.879c189.393,209.597 381.611,417.869 381.611,417.869l-264.292,-713.698l1329.95,185.722l-1218.31,-574.411l669.926,-376.757l-1154.71,168.475c0,0 -207.767,191.036 -121.546,474.921Z" style="fill:#cfc6b5;fill-rule:nonzero;"/><path d="M59951.7,59821.4l486.184,614.207l-149.797,-505.436l905.945,191.035l-812.672,-455.023l480.533,-225.518l-802.773,61.02c0,0 -152.644,119.399 -107.42,319.715Z" style="fill:#cfc6b5;fill-rule:nonzero;"/><path d="M61496.5,55926.5l647.304,939.225l-172.421,-746.864l1288.98,379.399l-1127.86,-748.19l720.801,-269.302l-1170.24,-9.291c0,0 -238.865,157.869 -186.567,455.023Z" style="fill:#cfc6b5;fill-rule:nonzero;"/><path d="M63349.4,52036.9l423.988,752.178l-77.724,-575.737l948.365,372.769l-805.62,-639.419l554.031,-161.846l-876.27,-78.266c0,-0 -185.144,106.129 -166.77,330.321Z" style="fill:#cfc6b5;fill-rule:nonzero;"/><path d="M65531.6,48429.9c-0,-0 103.172,265.324 221.892,533.289c118.721,262.662 236.04,527.986 236.04,527.986c0,-0 -11.3,-192.361 -21.199,-386.038c-11.322,-195.013 -11.322,-383.386 -11.322,-383.386l1194.28,650.026l-958.242,-977.696l756.147,-104.793c0,-0 -284.089,-67.659 -566.754,-136.645c-286.915,-63.671 -573.829,-128.679 -573.829,-128.679c0,0 -264.291,107.456 -277.015,405.936Z" style="fill:#cfc6b5;fill-rule:nonzero;"/><path d="M68217,45075c-0,-0 63.598,244.09 127.196,486.864c66.423,238.786 131.445,477.562 131.445,477.562l67.825,-659.306l932.816,712.371l-692.549,-956.471l655.801,11.943c-0,-0 -233.194,-95.513 -466.409,-191.025c-236.018,-91.535 -470.635,-184.396 -470.635,-184.396c0,-0 -237.441,53.065 -285.49,302.458Z" style="fill:#cfc6b5;fill-rule:nonzero;"/><path d="M71322.1,42248c-0,-0 32.5,285.211 63.598,575.737c32.521,285.211 73.497,574.411 73.497,574.411c-0,-0 40.997,-188.373 90.448,-370.117c50.895,-185.722 100.346,-370.118 100.346,-370.118l955.439,989.638l-644.5,-1235.05c-0,0 186.568,26.528 377.384,63.672c187.969,37.144 375.938,72.963 375.938,72.963c0,-0 -251.567,-153.881 -505.981,-310.423c-254.393,-149.904 -511.632,-299.807 -511.632,-299.807c-0,0 -278.418,25.202 -374.537,309.098Z" style="fill:#cfc6b5;fill-rule:nonzero;"/><path d="M74855.5,39888c-0,0 -14.126,249.394 -28.274,497.471c-12.702,248.067 -16.95,497.471 -16.95,497.471c-0,-0 60.773,-151.239 130.021,-298.491c67.847,-151.229 135.693,-299.806 135.693,-299.806c0,-0 166.77,244.09 334.964,488.19c163.944,248.067 330.714,493.483 330.714,493.483c0,-0 -91.871,-282.56 -185.144,-566.446c-89.046,-287.874 -179.494,-573.085 -179.494,-573.085c0,-0 158.295,57.042 312.341,115.41c155.469,58.368 305.288,123.376 305.288,123.376c0,0 -183.742,-177.766 -377.362,-346.242c-195.043,-167.149 -390.086,-332.973 -390.086,-332.973l-138.497,14.585l-233.214,187.057Z" style="fill:#cfc6b5;fill-rule:nonzero;"/><path d="M51702,96175.2c-0,0 154.067,234.799 298.214,480.225c148.418,246.741 288.338,502.774 288.338,502.774c-0,0 -29.675,-192.351 -60.773,-384.712c-31.098,-185.721 -62.197,-374.095 -62.197,-374.095c0,0 316.589,112.759 634.602,225.518c320.837,104.804 641.653,210.923 641.653,210.923c0,-0 -275.592,-196.329 -551.205,-396.645c-277.016,-191.025 -554.031,-384.712 -554.031,-384.712c-0,0 186.567,-55.716 358.988,-128.679c173.843,-71.637 350.512,-144.6 350.512,-144.6c0,0 -289.739,2.652 -579.479,7.966c-284.067,3.977 -578.055,-13.269 -578.055,-13.269c0,-0 -228.966,124.702 -186.567,399.306Z" style="fill:#cfc6b5;fill-rule:nonzero;"/><path d="M53081.4,92340l518.684,578.399l-178.071,-489.516l917.267,132.657l-840.945,-395.319l464.985,-260.01l-797.123,119.388c0,-0 -142.745,126.028 -84.797,314.401Z" style="fill:#cfc6b5;fill-rule:nonzero;"/><path d="M54103.3,88392.1l797.123,789.321l-296.791,-696.461l1338.43,98.175l-1252.23,-489.516l643.077,-427.16l-1139.16,256.033c0,0 -190.794,200.316 -90.448,469.608Z" style="fill:#cfc6b5;fill-rule:nonzero;"/><path d="M54924.4,84242.5l627.527,574.411l-245.917,-518.694l1010.54,35.818l-956.819,-334.299l476.285,-336.961l-853.668,220.215c-0,-0 -144.148,156.542 -57.948,359.51Z" style="fill:#cfc6b5;fill-rule:nonzero;"/><path d="M55652.3,80167.2l846.617,738.909l-339.212,-677.889l1341.28,17.247l-1277.68,-413.891l626.105,-461.663l-1129.26,318.389c-0,-0 -185.144,209.597 -67.847,478.898Z" style="fill:#cfc6b5;fill-rule:nonzero;"/><path d="M56302.4,75981.9l730.7,622.162l-296.791,-575.737l1146.21,1.326l-1095.34,-340.928l528.583,-401.959l-961.068,286.538c0,-0 -154.068,181.744 -52.298,408.598Z" style="fill:#cfc6b5;fill-rule:nonzero;"/><path d="M56942.7,71840.2l853.669,734.932l-344.862,-676.563l1341.26,14.594l-1276.26,-415.227l624.703,-457.674l-1127.84,313.075c-0,-0 -187.991,217.562 -70.672,486.863Z" style="fill:#cfc6b5;fill-rule:nonzero;"/><path d="M57744.1,67612.4l686.878,676.563l-258.641,-598.287l1143.41,91.535l-1068.49,-429.822c-0,0 139.92,-90.209 279.841,-179.082c139.92,-88.883 281.242,-176.44 281.242,-176.44l-982.267,202.968c-0,-0 -169.595,173.778 -81.973,412.565Z" style="fill:#cfc6b5;fill-rule:nonzero;"/></g></g></svg>