<?xml version="1.0" encoding="UTF-8" standalone="no"?><!DOCTYPE svg PUBLIC "-//W3C//DTD SVG 1.1//EN" "http://www.w3.org/Graphics/SVG/1.1/DTD/svg11.dtd"><svg width="100%" height="100%" viewBox="0 0 65481 99783" version="1.1" xmlns="http://www.w3.org/2000/svg" xmlns:xlink="http://www.w3.org/1999/xlink" xml:space="preserve" xmlns:serif="http://www.serif.com/" style="fill-rule:evenodd;clip-rule:evenodd;stroke-linejoin:round;stroke-miterlimit:2;"><rect id="Background-Decor" serif:id="Background Decor" x="-531078" y="-175989" width="899817" height="575322" style="fill:none;"/><rect id="Cactus-1" serif:id="Cactus 1" x="0" y="0" width="65480.1" height="99782.5" style="fill:none;"/><clipPath id="_clip1"><rect x="0" y="0" width="65480.1" height="99782.5"/></clipPath><g clip-path="url(#_clip1)"><g><path d="M46341.2,10698c-835.294,-3865.68 -2176.57,-7444.82 -5815.96,-9713.29c-1011.96,-631.454 -3189.91,-1204.55 -4788.43,-899.419c-1598.47,-305.13 -3776.47,267.965 -4788.43,899.419c-3637.93,2268.48 -4980.63,5847.61 -5814.5,9713.29c-2545.44,11786.7 -1304.53,24175.7 -195.043,36035.4c1232.45,13198.2 2412.59,26371.3 4023.79,39537.7c429.682,3528.72 329.313,11256.1 4659.81,13086.8c751.92,317.053 1457.17,441.755 2114.38,423.183c657.245,18.572 1361.07,-106.13 2114.37,-423.183c4330.5,-1830.69 4228.75,-9558.07 4661.23,-13086.8c1611.24,-13166.4 2788.53,-26339.4 4022.41,-39537.7c1109.49,-11859.7 2348.97,-24248.7 -193.62,-36035.4Z" style="fill:#5c7b39;fill-rule:nonzero;"/><path d="M28381.8,81368c-2.846,-15.921 -4.27,-30.515 -5.65,-46.436c1.38,15.921 2.804,30.515 5.65,46.436Zm-24.024,-205.62c-81.994,-716.359 -162.565,-1434.04 -243.092,-2151.73c80.527,717.685 161.098,1434.04 243.092,2151.73Z" style="fill:#abbf8c;fill-rule:nonzero;"/><path d="M38283.7,97422.4c-200.693,-344.916 -407.037,-696.461 -508.785,-846.364l-89.068,-35.819l0,1.326c-542.687,-214.901 -1085.42,-431.137 -1628.15,-657.981l-152.645,23.876c-457.932,124.702 -910.215,258.684 -1356.8,404.61c-166.792,-2698.29 -503.179,-5393.91 -716.596,-8081.58c-216.221,-2734.1 -292.564,-5575.65 -1017.61,-8238.11l-12.724,11.943c521.552,2578.89 457.932,5289.11 636.024,7903.82c190.816,2850.83 381.589,5680.45 801.35,8508.73c-457.933,156.543 -907.368,326.344 -1348.31,509.414c-122.969,-740.235 -175.288,-1492.41 -236.061,-2178.26c-347.687,-3913.44 -421.141,-7849.43 -575.209,-11772.1c-52.319,-1363.73 -101.748,-2734.1 -220.491,-4097.83c433.908,-689.832 651.552,-1514.97 554.031,-2483.38c-319.436,-3155.96 -2787.11,-4753.17 -5256.24,-6431.3c9.877,99.49 19.797,197.655 29.675,297.155c-0,-0 -1.424,-0 -1.424,-1.326c-527.159,-5175.02 -1016.19,-10352.7 -1499.57,-15533c1144.81,5286.46 2251.49,10623.3 4131.23,15728c22.645,59.704 73.497,87.557 124.393,87.557c62.196,-0 124.35,-42.448 131.423,-119.388c210.614,-2082.74 169.595,-4182.73 374.559,-6264.15c278.417,3234.22 349.067,6575.9 1987.18,9502.35l42.399,0c1.38,29.189 1.38,59.704 2.803,88.883l132.847,-41.121l-0,-47.762l46.669,0c1294.61,-2291.01 1506.6,-4994.61 1818.96,-7566.86c15.571,802.581 25.448,1603.85 26.871,2406.43c4.227,3686.59 240.246,7385.12 329.313,11074.4c96.099,3943.95 155.448,7890.56 452.24,11826.5c93.294,1265.57 212.037,2529.81 370.331,3788.74c5.65,41.122 28.252,57.042 56.503,57.042c60.773,0 149.841,-76.94 145.571,-141.948c-504.559,-7902.49 -130,-15803.6 -479.111,-23704.8c-130.043,-2931.76 -269.963,-5890.06 -325.086,-8836.41c204.963,-1009.54 425.454,-2017.74 614.847,-3028.6c358.988,-1928.86 678.38,-3861.7 956.798,-5801.17c481.957,-3352.29 784.442,-6724.48 972.411,-10100.6c662.853,-11953.9 664.276,-24197 -1017.61,-36076.6c-226.141,-1610.46 -354.761,-3263.4 -734.926,-4851.33c-254.436,-1065.24 -792.896,-2045.59 -1744.09,-2670.42c226.141,-21.214 452.282,-33.157 674.153,-33.157c333.54,0 657.202,26.538 961.068,83.58c303.908,-58.378 628.951,-84.916 963.914,-84.916c1406.28,0 2972.27,462.978 3799.11,967.089c-175.288,-106.13 -385.859,-210.923 -620.497,-310.414c787.245,711.046 1481.2,1526.9 2062.1,2435.62c2432.39,3807.3 3134.79,8431.78 3389.23,12792.3c285.491,4903.07 -5.65,9845.96 -212.037,14746.4c-334.963,8047.1 -961.067,16075.6 -1577.3,24106.8c-289.717,3791.39 -742,7615.95 -770.251,11420.6c-11.301,1468.54 67.846,3047.18 -404.233,4469.28c-409.884,1235.05 -1192.86,2292.34 -1984.33,3336.37c-788.669,1034.74 -1376.6,2096.01 -1325.75,3408.01c38.172,928.608 257.24,1845.28 346.307,2769.91c83.374,923.305 128.577,1847.93 132.847,2773.9c5.65,1954.07 -125.816,3901.49 -240.289,5848.93c-110.245,1897.02 -118.699,3811.29 -289.717,5701.68c-93.295,1022.8 -260.087,2041.61 -722.246,2955.64Zm-1816.16,-96794.5l-33.902,33.157c1379.45,1261.59 1534.9,3396.06 1872.71,5099.42c361.792,1814.77 583.706,3693.22 781.552,5531.87c180.939,1662.2 199.313,3301.88 224.718,4972.06c32.522,2015.09 253.013,3977.11 101.792,6000.15c-132.847,1781.61 -25.448,3577.82 -146.994,5364.73c-131.467,1910.27 -146.994,3832.51 -193.62,5748.1c-91.871,3766.18 -401.386,7548.29 -401.386,11311.8c-0,1720.58 -89.068,3417.29 -166.792,5133.9c-89.024,1935.49 93.295,3880.27 59.35,5818.41c-63.577,3422.6 -446.632,6809.39 -349.111,10238.6c50.896,1871.82 -213.374,3725.06 -264.27,5594.23c-50.895,1835.99 9.878,3674.65 32.522,5509.32c45.202,3924.05 24.024,7848.1 79.147,11772.1c39.552,2682.36 120.123,5368.7 227.522,8051.07l139.92,-42.458c308.135,-7873.3 291.141,-15744 268.54,-23621.2c-5.651,-1794.87 98.945,-3575.16 257.239,-5364.72c165.368,-1865.18 -120.123,-3739.65 -2.847,-5607.49c216.264,-3445.15 426.835,-6882.35 339.234,-10335.5c-93.295,-3733.03 120.122,-7524.42 312.319,-11256.1c197.889,-3828.54 217.687,-7662.38 353.337,-11493.6c124.393,-3507.5 411.307,-7053.47 255.816,-10565c-155.448,-3488.91 -169.595,-6996.43 -951.147,-10427c-325.086,-1423.43 -537.08,-2840.22 -995.013,-4238.44c-416.957,-1274.85 -662.852,-2360.01 -1800.63,-3227.59Zm3469.8,1633.04l-28.251,27.853c870.62,1073.2 1064.24,2593.48 1447.25,3865.68c405.613,1339.85 647.325,2673.08 874.846,4048.75c470.657,2849.51 849.442,5679.11 928.589,8565.78c158.295,5765.35 -8.497,11614.3 -302.441,17373c-271.387,5301.05 -881.964,10545.1 -931.436,15856.7c-50.853,5429.72 -50.853,10855.5 -488.988,16273.3l97.522,-17.247c551.184,-5584.94 662.852,-11192.4 846.595,-16795.9c183.742,-5631.36 1088.26,-11200.4 1337.01,-16829.1c250.166,-5664.54 380.209,-11412.6 169.595,-17077.2c-108.822,-2862.78 -576.632,-5729.54 -1190.01,-8532.61c-298.215,-1370.37 -747.651,-2592.17 -1283.35,-3892.22c-409.841,-993.626 -685.454,-2068.16 -1476.93,-2866.75Zm-593.626,2446.22l-55.122,23.885c269.963,1700.68 500.331,3453.11 877.693,5137.88c402.81,1801.49 472.08,3617.59 644.522,5450.94c361.791,3878.94 398.54,7748.61 486.184,11638.2c80.527,3571.18 -90.448,7121.13 -275.614,10685.7c-84.797,1613.13 -240.288,3228.91 -244.515,4847.36c-5.65,1894.36 89.024,3774.15 -77.724,5667.18c-5.65,50.413 19.798,70.311 52.276,70.311c52.319,-0 124.393,-50.413 132.847,-106.13c582.325,-3478.31 572.405,-7094.6 812.693,-10607.4c236.018,-3462.4 358.988,-6931.43 284.068,-10401.8c-84.798,-3864.35 -166.749,-7716.77 -528.583,-11570.5c-169.595,-1801.51 -203.497,-3674.66 -688.301,-5428.39c-497.485,-1797.54 -944.117,-3608.32 -1420.42,-5407.18Zm1173.11,-3729.05c-1.423,0 -1.423,0 -2.847,-1.315c1.424,1.315 1.424,1.315 2.847,1.315Zm-8.497,-5.303c-2.804,-1.316 -4.227,-2.652 -7.074,-3.967c2.847,1.315 4.27,2.651 7.074,3.967Z" style="fill:#446c33;fill-rule:nonzero;"/><path d="M32094.7,98315.2c-2784.3,-2803.09 -2760.28,-8992.95 -3131.99,-12044.1c-200.693,-1634.36 -394.313,-3268.72 -580.859,-4903.07c186.546,1634.35 380.166,3268.71 580.859,4903.07c371.712,3051.15 347.688,9241.01 3131.99,12044.1Zm-3718.5,-16993.6c-5.65,-53.065 -12.724,-106.129 -18.374,-159.184c5.65,53.055 12.724,106.119 18.374,159.184Z" style="fill:#abbf8c;fill-rule:nonzero;"/><path d="M32094.7,98315.2c-2784.3,-2803.09 -2760.28,-8992.95 -3131.99,-12044.1c-200.693,-1634.36 -394.313,-3268.72 -580.859,-4903.07c-2.846,-15.921 -4.27,-30.515 -5.65,-46.436c-5.65,-53.065 -12.724,-106.129 -18.374,-159.184c-81.994,-717.685 -162.565,-1434.04 -243.092,-2151.73c67.803,610.23 137.073,1220.46 206.343,1832.02c14.105,122.05 28.252,244.089 42.399,366.139c193.62,1687.42 392.89,3374.84 599.233,5062.27c371.712,3051.15 347.688,9241.01 3131.99,12044.1Z" style="fill:#718f4b;fill-rule:nonzero;"/><path d="M32094.7,98315.2c-2784.3,-2803.09 -2760.28,-8992.95 -3131.99,-12044.1c-206.343,-1687.42 -405.613,-3374.84 -599.233,-5062.27c1454.33,-413.891 2773,-1181.99 3495.2,-2330.81c118.743,1363.73 168.172,2734.1 220.491,4097.83c154.068,3922.72 227.522,7858.71 575.209,11772.1c60.773,685.844 113.092,1438.02 236.061,2178.26c-145.57,61.02 -289.761,123.376 -432.485,187.048c-128.619,400.632 -253.012,799.938 -363.257,1201.9Zm-1697.42,-17021.5l-38.172,11.933c0,2292.35 228.988,4644.39 470.657,6924.8c267.117,2614.71 457.933,5265.23 1182.98,7808.3c19.754,72.963 67.846,100.816 121.546,100.816c115.896,-0 264.27,-132.657 247.319,-256.023c-572.405,-4871.24 -1615.47,-9706.65 -1984.33,-14589.8Zm-2076.2,-451.045c-69.27,-611.556 -138.54,-1221.79 -206.343,-1832.02c67.803,610.23 137.073,1220.46 206.343,1832.02Z" style="fill:#2f5025;fill-rule:nonzero;"/><path d="M40525.3,984.686c-2.804,-2.652 -5.65,-3.988 -8.454,-6.64c2.804,2.652 5.65,3.988 8.454,6.64Zm-11.301,-7.955c-1.423,-1.336 -4.227,-2.652 -5.65,-3.988c1.423,1.336 4.227,2.652 5.65,3.988Zm-12.724,-7.955c0,-0 -1.38,-0 -1.38,-1.336c0,1.336 1.38,1.336 1.38,1.336Z" style="fill:#abbf8c;fill-rule:nonzero;"/><path d="M38641.3,98036.6c-94.717,-160.51 -224.717,-386.038 -357.607,-614.207c462.159,-914.024 628.951,-1932.84 722.246,-2955.64c171.018,-1890.39 179.472,-3804.66 289.717,-5701.68c114.473,-1947.44 245.939,-3894.86 240.289,-5848.93c-4.27,-925.966 -49.473,-1850.6 -132.847,-2773.9c-89.067,-924.631 -308.135,-1841.31 -346.307,-2769.91c-50.852,-1311.99 537.08,-2373.27 1325.75,-3408.01c791.472,-1044.03 1574.45,-2101.32 1984.33,-3336.37c472.079,-1422.1 392.932,-3000.74 404.233,-4469.28c28.251,-3804.65 480.534,-7629.21 770.251,-11420.6c616.228,-8031.17 1242.33,-16059.7 1577.3,-24106.8c206.387,-4900.4 497.528,-9843.29 212.037,-14746.4c-254.436,-4360.5 -956.841,-8984.98 -3389.23,-12792.3c-580.902,-908.71 -1274.85,-1724.57 -2062.1,-2435.62c234.638,99.491 445.209,204.284 620.497,310.414c0,1.336 1.38,1.336 1.38,1.336c2.847,1.315 4.27,2.651 7.074,3.967c1.423,1.336 4.227,2.652 5.65,3.988c1.424,1.315 1.424,1.315 2.847,1.315c2.804,2.652 5.65,3.988 8.454,6.64c3639.39,2268.48 4980.67,5847.61 5815.96,9713.29c1102.41,5110.01 1493.88,10334.1 1492.5,15579.4c0,6851.84 -669.926,13739.5 -1298.88,20456c-775.945,8300.46 -1529.25,16590.3 -2382.91,24874.9l0,1.326c4.227,-41.122 8.497,-83.569 12.724,-124.701c-556.877,322.366 -1170.26,583.702 -1735.59,952.493c-1495.34,976.37 -3223.86,2478.06 -3058.49,4363.15c166.791,1928.85 1707.34,4031.51 3688.82,4848.68c90.491,-784.019 179.516,-1569.35 267.16,-2353.37l1.38,-0c-260.043,2325.51 -531.386,4649.7 -815.497,6975.21c-337.767,2755.32 -349.11,8070.97 -2399.87,11139.4c-67.847,-45.099 -135.694,-92.861 -200.694,-141.938c-381.589,131.331 -763.221,286.538 -1132.09,453.687c-49.472,104.804 -93.294,209.608 -138.497,314.401Zm6871.71,-81602.5l-69.27,22.55c-12.724,1725.9 238.865,3431.89 185.166,5161.77c-62.196,1948.75 -114.516,3896.19 -131.467,5843.62c-32.478,3898.84 91.872,7763.19 -272.766,11651.4c-709.522,7596.05 -1108.06,15196.1 -1426.07,22817.3c-2.804,63.672 31.098,88.883 74.92,88.883c66.423,0 155.448,-59.704 161.098,-131.341c288.338,-3803.33 456.509,-7630.54 1002.09,-11406c278.417,-1940.8 260.043,-3882.92 394.313,-5831.68c128.62,-1894.37 340.614,-3783.43 514.479,-5675.15c346.264,-3768.84 243.092,-7487.26 210.57,-11268c-15.527,-1922.23 -60.773,-3844.45 -118.699,-5768c-55.123,-1854.58 -418.38,-3658.75 -524.356,-5505.36Z" style="fill:#2f5025;fill-rule:nonzero;"/><path d="M31858.6,78878c-49.472,-562.478 -110.245,-1123.62 -187.969,-1682.12c-84.798,-606.252 -179.516,-1191.27 -342.037,-1743.13c-96.098,-968.414 -537.08,-1935.49 -1113.71,-2592.16c-835.294,-947.18 -1896.73,-1800.18 -3028.82,-2600.11c-9.878,-99.5 -19.798,-197.665 -29.675,-297.155c2469.14,1678.13 4936.8,3275.34 5256.24,6431.3c97.521,968.404 -120.123,1793.54 -554.031,2483.38Z" style="fill:#203a1a;fill-rule:nonzero;"/><path d="M28363.4,81208.8c-14.147,-122.05 -28.294,-244.089 -42.399,-366.139c14.105,122.05 28.252,244.089 42.399,366.139Z" style="fill:#305025;fill-rule:nonzero;"/><path d="M28363.4,81208.8c-14.147,-122.05 -28.294,-244.089 -42.399,-366.139c-69.27,-611.556 -138.54,-1221.79 -206.343,-1832.02c1276.23,-164.498 2309.37,-664.62 2874.75,-1680.79c250.166,-449.719 358.988,-959.133 358.988,-1480.48c-0,-131.331 -7.074,-263.988 -19.798,-396.645c162.521,551.861 257.239,1136.88 342.037,1743.13c77.724,558.501 138.497,1119.64 187.969,1682.12c-722.202,1148.82 -2040.88,1916.92 -3495.2,2330.81Z" style="fill:#172a16;fill-rule:nonzero;"/><path d="M43059.4,81649.2c-1981.49,-817.175 -3522.03,-2919.83 -3688.82,-4848.68c-165.369,-1885.09 1563.15,-3386.78 3058.49,-4363.15c565.331,-368.791 1178.71,-630.127 1735.59,-952.493c-4.227,41.132 -8.497,83.579 -12.724,124.701c-1075.54,594.309 -2128.52,1268.22 -2801.25,2210.1c-573.828,805.242 -842.368,1711.3 -843.791,2616.03c-0,128.679 5.65,257.358 16.994,387.363c295.368,1277.5 1424.65,2042.95 2802.68,2472.76c-87.644,784.018 -176.669,1569.35 -267.16,2353.37Z" style="fill:#172a16;fill-rule:nonzero;"/><path d="M59339.8,74197.8c480.534,-500.132 934.239,-1024.13 1380.83,-1561.4c2101.65,-3155.95 3448.58,-6837.24 4125.58,-10530.5c358.987,-1947.43 585.129,-3921.4 626.104,-5899.34c38.172,-1898.35 29.675,-4073.95 -1050.09,-5752.09c-1998.48,-3109.53 -6170.68,-3148 -8591.77,-1087.8l-211.993,281.234c-624.725,888.812 -1125.01,1804.16 -1541.97,2739.41l-29.675,155.207l-101.748,157.868c-1174.53,2777.88 -1638.11,5737.49 -2306.61,8744.87c-489.031,2188.87 -1078.39,4657.65 -2460.64,6530.8c-880.497,1189.94 -2097.42,2021.72 -3408.98,2757.98c-1517.94,851.668 -3401.95,1663.54 -4418.14,3085.64c-655.779,919.327 -913.018,1972.64 -826.797,3003.4c664.276,2878.7 5562.91,3154.63 7991.07,2846.87c4348.87,-549.21 7917.57,-2444.91 10824.8,-5472.18Z" style="fill:#668840;fill-rule:nonzero;"/><path d="M30214.9,72860.6c-2528.49,-2872.07 -7147.32,-4873.89 -9509.01,-7180.83c-6611.66,-6468.45 -6912.7,-14453.2 -7554.36,-22924.8c-374.558,-4960.11 -347.687,-9997.17 -425.432,-14969.2c-90.448,-5452.28 176.668,-11689.9 -1703.09,-16907.4c-708.076,-1976.61 -3181.44,-3092.27 -5240.69,-2452.86c-2989.24,931.281 -4035.11,4672.25 -4584.91,7248.49c-823.972,3864.35 -660.027,7481.96 -862.144,11383.5c-197.868,3868.31 -459.334,7752.58 -262.89,11627.5c414.111,8080.26 873.467,16213.6 3141.89,24055c1862.79,6433.95 6255.48,11534.7 13074.9,13649.3c2965.2,919.327 12467.1,4949.51 14700.3,940.561c774.521,-1394.25 193.619,-3368.21 -774.522,-4469.28Z" style="fill:#698944;fill-rule:nonzero;"/><path d="M27056.1,79074.3c-787.203,-0 -1633.8,-92.861 -2497.39,-244.09c863.589,151.229 1710.18,244.09 2497.39,244.09c1755.39,-0 3218.21,-459.001 3933.38,-1744.46c-565.375,1016.17 -1598.52,1516.29 -2874.75,1680.79c-337.81,43.774 -692.571,63.672 -1058.63,63.672Zm-2503.04,-244.09c-4.226,-1.326 -8.453,-2.652 -12.723,-2.652c4.27,0 8.497,1.326 12.723,2.652Zm-286.914,-127.354c-134.27,0 -268.54,-1.326 -402.81,-5.303c-3010.4,-624.824 -6099.99,-1850.6 -7574.11,-2308.27c-6819.43,-2114.57 -11212.1,-7215.31 -13074.9,-13649.3c-429.66,-1489.76 -794.298,-2987.48 -1108.06,-4494.48c135.672,314.401 271.365,627.476 412.687,935.247c624.703,1366.38 1356.83,2736.75 2204.82,4048.74c920.092,2220.72 2097.42,4340.6 3581.45,6293.34c1970.21,2594.81 4881.7,4311.41 7903.45,5649.94c3141.87,1391.6 6854.76,2345.42 10325.9,2516.54l43.823,-115.411c-3466.95,-431.147 -6933.9,-1386.28 -10077.2,-2848.19c-1646.57,-766.762 -3171.56,-1727.22 -4635.79,-2765.94c-1452.92,-1032.09 -2432.39,-2296.33 -3541.85,-3628.22c-585.129,-703.091 -1084.06,-1516.29 -1540.57,-2340.1c1484.02,1721.92 3228.11,3222.28 5264.74,4307.44c1062.84,563.804 2216.12,979.021 3407.6,1220.46l148.375,-180.418c-93.252,-126.017 -186.546,-249.393 -282.644,-371.443c474.883,309.097 962.49,602.274 1455.75,880.857c2997.72,1687.42 6228.61,3045.84 9602.27,3901.5l438.178,-72.963c-5709.95,-1765.69 -11882.1,-5132.58 -15706.6,-9656.24c-137.096,-209.607 -274.191,-419.204 -411.286,-628.801c2521.41,2845.53 5736.8,5307.68 9739.4,5762.69l90.448,-208.271c-1113.71,-1309.34 -2425.31,-2446.23 -3686.02,-3626.89c-995.013,-929.934 -1899.53,-1903.65 -2705.15,-2960.94c3416.06,4210.59 8669.49,7111.84 13541.3,9562.04l100.369,-153.881c-5472.5,-3102.89 -11042.5,-6745.7 -14420.4,-11969.8c-1721.46,-2662.46 -2939.77,-5580.95 -3718.52,-8600.27c-784.399,-3035.24 -1003.47,-6128.84 -1375.18,-9221.12c-366.061,-3052.47 -520.129,-6128.83 -585.129,-9207.85c168.172,5618.1 890.396,11256.1 2153.95,16738.9l117.297,-50.414c-1257.88,-6626.3 -1590.02,-13293.7 -1455.75,-20015.6c60.773,-3090.93 271.365,-6176.59 313.763,-9264.89c40.976,-2877.38 -411.285,-5768 -975.215,-8585.68l-50.874,18.582c651.553,6142.09 -130.043,12302.8 -141.343,18454.2c-18.375,-2207.45 -8.476,-4413.56 -19.776,-6610.39c-15.549,-3106.87 18.374,-6215.07 35.325,-9319.28c1.423,-462.998 4.248,-921.989 1.423,-1378.33c67.825,-1597.23 187.969,-4888.5 -1101.01,-6485.7c145.57,-15.91 291.141,-22.55 436.733,-22.55c1635.24,0 3267.66,925.957 3926.29,2377.26c-442.384,-976.379 -1328.55,-1713.96 -2358.89,-2092.05c268.54,404.62 494.681,835.757 688.301,1285.48c-39.574,-87.568 -81.973,-173.799 -125.795,-260.01l-26.85,17.246c489.031,1310.66 435.31,2673.08 363.237,4038.12c-76.322,1455.27 90.447,2894.63 26.849,4348.56c-60.773,1479.15 60.773,2937.07 33.924,4416.23c-29.675,1509.64 -171.019,3012.68 -186.568,4526.3c-28.251,2844.22 178.092,5672.49 325.086,8511.4c156.871,2995.43 285.491,5966.99 630.353,8951.81c641.653,5546.48 1680.47,11453.8 4850.61,16281.2c2628.85,4004.98 6006.74,7345.32 9966.95,10113.9c472.079,456.349 939.889,915.35 1399.2,1382.31c992.166,1012.19 2145.47,1966.01 2395.64,3396.06c210.613,1211.18 -575.209,2182.24 -1698.84,2659.82c-901.718,382.06 -1924.98,502.774 -2938.37,502.774Zm7082.32,-2853.49c1.423,-1095.76 -477.731,-2241.93 -1133.51,-2988.8c-2528.49,-2872.07 -7147.32,-4873.89 -9509.01,-7180.83c-6611.66,-6468.45 -6912.7,-14453.2 -7554.36,-22924.8c-374.558,-4960.11 -347.687,-9997.17 -425.432,-14969.2c-90.448,-5452.28 176.668,-11689.9 -1703.09,-16907.4c0,-3.968 -1.402,-7.955 -2.825,-11.923c1.423,3.968 1.423,7.955 2.825,11.923c1879.76,5217.49 1612.64,11455.1 1703.09,16907.4c77.745,4972.06 50.874,10009.1 425.432,14969.2c641.654,8471.6 942.694,16456.3 7554.36,22924.8c2361.69,2306.94 6980.53,4308.76 9509.01,7180.83c655.779,746.875 1134.93,1893.05 1133.51,2988.8Zm-7428.59,-6217.72c-2170.88,-1743.14 -4136.88,-3683.94 -5808.85,-5852.91c377.362,455.023 773.098,902.081 1184.36,1341.18c1469.9,1568.03 3055.69,3032.58 4624.48,4511.73Zm-13546.9,-50905.2c-14.147,-630.117 -29.696,-1262.91 -48.049,-1897.01c-36.748,-1395.57 -354.761,-2795.12 -439.558,-4198.64c-45.224,-740.255 -158.295,-1484.46 -392.911,-2194.19c380.187,1078.52 592.181,2224.69 716.574,3307.18c192.196,1660.89 199.27,3321.78 163.944,4982.66Zm644.479,-7865.35c-0,-1.315 -1.402,-2.651 -1.402,-5.303c0,2.652 1.402,3.988 1.402,5.303Zm-4.227,-10.606l0,-2.652l0,2.652Zm-5.672,-18.562c-1.402,-0 -1.402,-1.336 -1.402,-1.336c0,-0 0,1.336 1.402,1.336Zm-56.524,-137.971l-0,-1.336l-0,1.336Zm-9.899,-25.201c-1.402,-1.336 -1.402,-2.652 -2.825,-3.988c1.423,1.336 1.423,2.652 2.825,3.988Zm-4.227,-9.291c-1.423,-2.652 -2.825,-5.304 -2.825,-6.64c-0,1.336 1.402,3.988 2.825,6.64Zm-5.672,-10.607c-1.402,-3.988 -2.825,-7.956 -4.227,-11.943c1.402,3.987 2.825,7.955 4.227,11.943Zm-5.65,-13.279c-1.402,-3.968 -2.825,-6.619 -4.227,-10.607c1.402,3.988 2.825,6.639 4.227,10.607Z" style="fill:#4a7235;fill-rule:nonzero;"/><path d="M24558.7,78830.2l-5.651,-0l5.651,-0Zm-18.374,-2.652c-224.718,-39.796 -450.859,-83.58 -678.381,-130.005l1.38,-0c226.142,46.425 452.283,90.209 677.001,130.005Zm-13521.5,-67962.5l0,-1.316l0,1.316Z" style="fill:#b9caa0;fill-rule:nonzero;"/><path d="M11020.2,10866.5c-1.402,-1.336 -1.402,-2.652 -2.825,-5.324c1.423,1.336 1.423,2.672 1.423,2.672l0,1.316c0,1.336 1.402,1.336 1.402,1.336Zm-4.227,-10.627c-1.423,-1.316 -1.423,-3.967 -2.825,-5.303c1.402,1.336 1.402,3.987 2.825,5.303Zm-2.825,-7.955c-2.847,-5.304 -4.248,-10.607 -5.672,-15.91c1.424,5.303 2.825,10.606 5.672,15.91Zm-7.074,-17.246c-1.423,-2.652 -1.423,-5.304 -2.825,-9.292c1.402,3.988 1.402,6.64 2.825,9.292Zm-2.825,-9.292c-16.972,-42.447 -33.923,-84.895 -52.297,-127.343c18.374,42.448 35.325,84.896 52.297,127.343Zm-52.297,-128.679c-2.825,-7.955 -7.074,-15.91 -9.899,-23.865c2.825,7.955 7.074,15.91 9.899,23.865Zm-12.724,-27.853c-0,-1.316 -1.402,-3.968 -1.402,-5.303c-0,1.335 1.402,3.987 1.402,5.303Zm-4.227,-11.943c-1.424,-1.316 -1.424,-2.652 -2.847,-3.967c1.423,1.315 1.423,2.651 2.847,3.967Zm-7.074,-15.91l-1.423,-1.336l1.423,1.336Zm-5.65,-11.943l-0,-1.316l-0,1.316Z" style="fill:#4a7235;fill-rule:nonzero;"/><path d="M27056.1,79074.3c-787.203,-0 -1633.8,-92.861 -2497.39,-244.09l-5.651,-0c-4.226,-1.326 -8.453,-2.652 -12.723,-2.652c-224.718,-39.796 -450.859,-83.58 -677.001,-130.005c134.27,3.977 268.54,5.303 402.81,5.303c1013.39,0 2036.65,-120.714 2938.37,-502.774c1123.63,-477.573 1909.45,-1448.64 1698.84,-2659.82c-250.166,-1430.06 -1403.47,-2383.88 -2395.64,-3396.06c-459.313,-466.955 -927.123,-925.956 -1399.2,-1382.31c879.116,615.533 1789.29,1203.21 2724.95,1763.04l49.472,-50.413c-1375.22,-884.835 -2703.77,-1830.69 -3963.06,-2842.88c-1568.8,-1479.15 -3154.59,-2943.7 -4624.48,-4511.73c-411.264,-439.102 -807,-886.16 -1184.36,-1341.18c-864.97,-1123.62 -1650.79,-2308.26 -2340.52,-3556.58c-2958.14,-5342.17 -3920.64,-11257.4 -4577.84,-17168.7c-316.589,-2842.88 -385.859,-5681.78 -525.779,-8533.94c-156.871,-3231.57 -371.712,-6436.61 -288.316,-9674.82c55.122,-2052.23 38.15,-4077.92 -5.651,-6118.23c35.326,-1660.89 28.252,-3321.78 -163.944,-4982.66c-124.393,-1082.49 -336.387,-2228.66 -716.574,-3307.18c-69.249,-209.608 -149.819,-417.879 -241.69,-619.511c-193.62,-449.72 -419.761,-880.857 -688.301,-1285.48c1030.34,378.083 1916.51,1115.67 2358.89,2092.05l-0,1.316c1.402,3.988 2.825,6.639 4.227,10.607l1.423,1.336c1.402,3.987 2.825,7.955 4.227,11.943c1.423,1.315 1.423,2.651 2.847,3.967c-0,1.336 1.402,3.988 2.825,6.64c-0,1.335 1.402,3.987 1.402,5.303c1.423,1.336 1.423,2.652 2.825,3.988c2.825,7.955 7.074,15.91 9.899,23.865l-0,1.336c18.374,42.448 35.325,84.896 52.297,127.343c1.402,3.988 1.402,6.64 2.825,9.292c0,-0 0,1.336 1.402,1.336c1.424,5.303 2.825,10.606 5.672,15.91l0,2.652c1.402,1.336 1.402,3.987 2.825,5.303c0,2.652 1.402,3.988 1.402,5.303c1.423,2.672 1.423,3.988 2.825,5.324c1.423,3.968 2.825,7.955 2.825,11.923c1879.76,5217.49 1612.64,11455.1 1703.09,16907.4c77.745,4972.06 50.874,10009.1 425.432,14969.2c641.654,8471.6 942.694,16456.3 7554.36,22924.8c2361.69,2306.94 6980.53,4308.76 9509.01,7180.83c655.779,746.875 1134.93,1893.05 1133.51,2988.8c-0,521.346 -108.822,1030.76 -358.988,1480.48c-715.172,1285.46 -2177.99,1744.46 -3933.38,1744.46Z" style="fill:#355a2a;fill-rule:nonzero;"/><path d="M45768.8,70734.1c8.454,-5.314 16.951,-9.291 25.405,-14.595c-8.454,5.304 -16.951,9.281 -25.405,14.595Zm29.675,-17.246c597.853,-335.635 1170.26,-695.136 1705.91,-1095.77c-5.65,5.303 -11.3,10.617 -16.951,15.92c-528.626,395.319 -1098.18,748.2 -1688.96,1079.85Zm18613.8,-20276.9c-1.38,-1.326 -1.38,-3.978 -2.803,-5.303c-0,-0 -1.423,-1.326 -1.423,-2.652c-39.553,-59.704 -79.148,-118.072 -118.7,-175.115c0,0 -1.423,-1.326 -1.423,-2.652c-4.27,-5.303 -8.497,-10.617 -11.301,-15.92c-1.423,-1.326 -1.423,-1.326 -1.423,-2.652c-4.227,-5.303 -8.497,-10.617 -12.724,-15.92c-1.423,-2.652 -2.847,-3.978 -4.227,-5.304c-1.423,-3.977 -4.27,-7.965 -7.074,-11.942c-1.423,-1.326 -4.27,-3.978 -5.65,-6.63c-1.423,-2.651 -4.27,-5.303 -5.65,-7.965c-4.27,-5.303 -8.497,-11.933 -12.724,-17.246c-0,-1.326 -1.424,-2.652 -1.424,-2.652c-398.582,-545.222 -869.196,-984.325 -1385.1,-1322.6c599.276,392.667 1136.36,920.653 1571.64,1594.55Z" style="fill:#abbf8c;fill-rule:nonzero;"/><path d="M46844.4,79768.1c-1127.86,-0 -2404.09,-126.028 -3517.8,-472.269c-1378.03,-429.812 -2507.31,-1195.26 -2802.68,-2472.76c-11.344,-130.005 -16.994,-258.684 -16.994,-387.363c1.423,-904.733 269.963,-1810.79 843.791,-2616.03c1016.19,-1422.1 2900.2,-2233.97 4418.14,-3085.64c8.454,-5.314 16.951,-9.291 25.405,-14.595c1.423,-1.325 2.847,-1.325 4.27,-2.651c590.779,-331.648 1160.34,-684.529 1688.96,-1079.85c-1424.69,1402.2 -3556.02,2292.34 -4726.28,3941.3l77.767,179.093c67.804,11.933 134.27,23.875 202.074,34.492l-0,70.301c56.546,-14.584 113.092,-29.179 169.638,-46.425c378.742,50.413 756.104,74.289 1133.51,74.289c1348.31,-0 2682.51,-303.794 3967.24,-774.728c-1878.31,1164.74 -4214.6,1867.83 -6297.88,2186.21l-25.448,99.5c2480.44,-110.107 4925.55,-1185.98 7039.92,-2346.74c121.546,-66.323 241.668,-136.634 360.411,-210.923c-976.638,711.056 -2029.58,1305.37 -3250.73,1656.91c-131.423,37.145 -117.319,240.112 21.221,240.112c4.227,0 8.454,0 14.104,-1.325c1452.94,-122.05 2808.33,-551.862 4155.25,-1017.49c-18.375,11.933 -38.172,23.876 -56.503,35.819c-1944.78,1228.41 -4644.28,2172.95 -7138.87,2172.95c-517.282,-0 -1026.07,-41.132 -1516.52,-127.354l-57.926,111.433c408.46,167.15 849.399,221.54 1297.45,221.54c667.08,0 1354,-119.398 1991.41,-168.475c1331.36,-102.152 2590.68,-431.147 3816.06,-900.755c-702.448,340.928 -1428.92,640.735 -2177.99,899.429c-108.822,37.145 -138.497,212.249 0,236.125c303.865,51.739 609.154,75.614 913.019,75.614c308.135,0 614.804,-25.201 921.515,-70.301c-237.441,59.694 -473.46,118.063 -706.675,175.105c-1100.99,266.65 -2610.48,611.555 -3955.98,611.555c-565.331,0 -1102.41,-61.02 -1568.8,-214.9l-77.724,116.736c530.007,204.294 1143.39,270.627 1772.34,270.627c821.148,0 1669.17,-114.094 2398.44,-188.383c1882.58,-195.003 3700.17,-787.986 5471.08,-1390.26c3003.37,-1024.13 5803.2,-3874.96 7154.35,-6513.56c1635.26,-3195.75 2620.36,-6964.59 3263.45,-10452.2c336.387,-1832.01 604.884,-3759.55 408.461,-5615.45c-93.295,-866.262 -463.583,-1626.39 -856.516,-2378.57c-158.294,-627.475 -399.963,-1224.44 -758.951,-1757.73c-291.141,-433.799 -647.325,-729.627 -1041.64,-919.327c1055.79,10.617 2108.72,297.155 3018.9,894.126c515.902,338.276 986.516,777.379 1385.1,1322.6c-754.724,-1030.76 -1765.26,-1679.46 -2857.8,-1992.54c517.283,469.618 949.767,998.919 1307.33,1573.34c-383.012,-423.183 -829.601,-758.817 -1339.85,-921.979l-33.902,51.729c729.276,339.612 1182.98,1248.32 1605.55,1862.53c530.007,766.772 645.902,1904.99 763.221,2799.1c267.117,2008.46 146.994,3955.89 -145.57,5951.08c-528.583,3625.57 -1505.22,7118.48 -2999.14,10498.6c-1435.95,3244.83 -4435.09,5884.75 -7897.77,7175.52c-1905.18,711.045 -4453.47,1411.48 -6849.11,1411.48c-1602.74,-0 -3137.64,-314.401 -4365.82,-1147.5l-159.718,161.846c1277.66,882.183 2915.72,1205.87 4611.76,1205.87c2093.15,0 4275.38,-494.819 5977.06,-1040.04c928.546,-298.48 1813.31,-651.362 2648.61,-1063.93c-1694.61,963.101 -3596.99,1672.83 -5479.58,2098.66c-1013.34,228.169 -2087.5,386.037 -3147.52,386.037c-1486.85,0 -2946.82,-307.771 -4180.7,-1160.77c-408.46,-285.222 -802.773,-644.722 -1119.36,-1051.98c631.754,2195.5 3813.22,2803.08 6282.35,2803.08c617.608,-0 1191.44,-37.144 1669.17,-98.164c-477.73,61.02 -1051.56,98.164 -1670.59,98.164Zm3430.2,-4128.34c1482.62,-619.52 2860.6,-1594.56 3974.36,-2483.38c2580.76,-2056.22 4227.33,-4871.23 5359.41,-7824.22c1288.96,-3349.63 2026.73,-6979.18 2235.92,-10535.8c43.822,-752.178 77.724,-1568.04 32.522,-2383.89c504.558,1708.65 24.024,3701.18 -241.712,5412.48c-488.988,3145.35 -1396.4,6281.4 -2462.06,9302.04c-1158.91,3281.98 -3594.15,5895.36 -6765.69,7607.99c-665.7,360.826 -1389.33,655.329 -2132.75,904.732Zm14134.9,-25205.2c-0,-0 -1.423,-1.326 -1.423,-2.652c-0,1.326 1.423,2.652 1.423,2.652Zm-120.123,-177.767c0,0 -1.423,-1.326 -1.423,-2.652c-0,1.326 1.423,2.652 1.423,2.652Zm-12.724,-18.572c-1.423,-1.326 -1.423,-1.326 -1.423,-2.652c-0,1.326 -0,1.326 1.423,2.652Zm-14.147,-18.572c-1.423,-2.652 -2.847,-3.978 -4.227,-5.304c1.38,1.326 2.804,2.652 4.227,5.304Zm-11.301,-17.246c-1.423,-1.326 -4.27,-3.978 -5.65,-6.63c1.38,2.652 4.227,5.304 5.65,6.63Zm-11.3,-14.595c-4.27,-5.303 -8.497,-11.933 -12.724,-17.246c4.227,5.313 8.454,11.943 12.724,17.246Z" style="fill:#446c33;fill-rule:nonzero;"/><path d="M64422.2,50454.5c-4.27,-5.304 -7.074,-10.617 -9.921,-14.595c2.847,3.978 5.651,9.291 9.921,14.595Z" style="fill:#abbf8c;fill-rule:nonzero;"/><path d="M64422.2,50454.5c-4.27,-6.63 -8.497,-13.269 -12.724,-19.898c1.423,1.325 1.423,3.977 2.803,5.303c2.847,3.978 5.651,9.291 9.921,14.595Zm-14.147,-22.55c-39.553,-59.704 -77.724,-118.072 -118.7,-175.115c39.552,57.043 79.147,115.411 118.7,175.115Zm-120.123,-177.767c-4.27,-5.303 -8.497,-10.617 -11.301,-15.92c2.804,5.303 7.031,10.617 11.301,15.92Zm-12.724,-18.572c-4.227,-5.303 -8.497,-10.617 -12.724,-15.92c4.227,5.303 8.497,10.617 12.724,15.92Zm-16.951,-21.224c-1.423,-3.977 -4.27,-7.965 -7.074,-11.942c2.804,3.977 5.651,7.965 7.074,11.942Zm-12.724,-18.572c-1.423,-2.651 -4.27,-5.303 -5.65,-7.965c1.38,2.662 4.227,5.314 5.65,7.965Zm-18.374,-25.211c-1.424,-1.326 -1.424,-2.652 -1.424,-2.652c0,-0 1.424,1.326 1.424,2.652Z" style="fill:#718f4b;fill-rule:nonzero;"/><path d="M46845.8,79768.1c-2469.14,-0 -5650.6,-607.578 -6282.35,-2803.08c316.589,407.262 710.902,766.762 1119.36,1051.98c1233.88,852.994 2693.85,1160.77 4180.7,1160.77c1060.01,0 2134.17,-157.868 3147.52,-386.037c1882.58,-425.834 3784.96,-1135.56 5479.58,-2098.66c2640.15,-1304.04 4775.71,-3205.04 6203.2,-5848.93c1981.49,-3668.03 3092.39,-7914.43 3674.72,-11965.8c308.092,-2153.05 390.086,-4345.91 -251.589,-6456.5c-250.165,-822.489 -736.349,-1894.37 -1441.64,-2673.08c-357.565,-574.422 -790.049,-1103.72 -1307.33,-1573.34c1092.53,313.075 2103.07,961.775 2857.8,1992.54c0,-0 0,1.326 1.424,2.652c4.227,5.313 8.454,11.943 12.724,17.246c1.38,2.662 4.227,5.314 5.65,7.965c1.38,2.652 4.227,5.304 5.65,6.63c2.804,3.977 5.651,7.965 7.074,11.942c1.38,1.326 2.804,2.652 4.227,5.304c4.227,5.303 8.497,10.617 12.724,15.92c-0,1.326 -0,1.326 1.423,2.652c2.804,5.303 7.031,10.617 11.301,15.92c-0,1.326 1.423,2.652 1.423,2.652c40.976,57.043 79.147,115.411 118.7,175.115c-0,1.326 1.423,2.652 1.423,2.652c4.227,6.629 8.454,13.268 12.724,19.898c915.822,1422.1 1061.39,3202.39 1060.01,4868.58c0,298.48 -4.27,594.309 -9.92,883.508c-40.975,1977.94 -267.117,3951.91 -626.104,5899.34c-677.001,3693.23 -2023.93,7374.51 -4125.58,10530.5c-446.589,537.266 -900.294,1061.27 -1380.83,1561.4c-2907.27,3027.27 -6475.97,4922.97 -10824.8,5472.18c-477.73,61.02 -1051.56,98.164 -1669.17,98.164Z" style="fill:#2f5025;fill-rule:nonzero;"/><path d="M6782.97,65991.5c-751.898,-871.566 -1437.37,-1801.51 -2059.25,-2761.96c-630.353,-1524.24 -1140.56,-3096.26 -1541.95,-4693.46c518.684,1642.32 1291.78,3223.6 2216.12,4692.14c180.917,436.45 377.362,864.936 593.604,1277.51c252.991,484.202 514.457,986.977 791.472,1485.77Z" style="fill:#4a7235;fill-rule:nonzero;"/></g></g></svg>