<?xml version="1.0" encoding="UTF-8" standalone="no"?><!DOCTYPE svg PUBLIC "-//W3C//DTD SVG 1.1//EN" "http://www.w3.org/Graphics/SVG/1.1/DTD/svg11.dtd"><svg width="100%" height="100%" viewBox="0 0 91580 96141" version="1.1" xmlns="http://www.w3.org/2000/svg" xmlns:xlink="http://www.w3.org/1999/xlink" xml:space="preserve" xmlns:serif="http://www.serif.com/" style="fill-rule:evenodd;clip-rule:evenodd;stroke-linejoin:round;stroke-miterlimit:2;"><rect id="Background-Decor" serif:id="Background Decor" x="-225289" y="-299522" width="899817" height="575322" style="fill:none;"/><rect id="Cactus-2" serif:id="Cactus 2" x="0" y="0" width="91579.4" height="96140.5" style="fill:none;"/><clipPath id="_clip1"><rect x="0" y="0" width="91579.4" height="96140.5"/></clipPath><g clip-path="url(#_clip1)"><g><path d="M15120.1,94622.5c139.921,466.959 284.089,952.49 431.062,1443.33l41569.5,0c2822.47,-3423.93 2648.63,-16063.7 2606.23,-18260.5c-193.641,-10275.8 -4160.9,-25441.3 -15884.7,-29372c-3687.42,-1233.73 -7982.59,-1536.19 -11804.3,-697.787c-6556.54,1442 -11651.7,7082.66 -14701.7,12377.1c-3702.97,6427.32 -4799.73,14910.9 -4664.04,22081.1c81.972,4278.25 1218.31,8344.24 2447.91,12428.8Z" style="fill:#5a7936;fill-rule:nonzero;"/><path d="M22482.2,96065.8l-4292.35,0c-2760.28,-9722.57 -3844.31,-20093.8 -1137.74,-29849.6c28.251,22.553 56.525,43.779 84.798,65.003c-1556.1,10080.7 934.217,20462.6 5345.29,29784.6Z" style="fill:#779b3a;fill-rule:nonzero;"/><path d="M57120.6,96065.8l-8776.89,0c332.138,-343.586 643.077,-724.317 921.494,-1148.83c1712.99,-2601.44 2125.68,-5887.4 2323.54,-8877.53c195.043,-2943.7 29.696,-5887.4 -42.399,-8829.77c-93.273,-3998.34 -333.54,-8001.98 -1021.84,-11952.6c-33.924,-187.047 -66.445,-374.097 -101.77,-562.473c446.61,169.804 901.718,314.401 1361.05,428.488c1625.37,404.61 3363.78,879.528 5059.8,879.528c70.672,0 139.921,0 209.169,-2.654c254.414,-3.977 575.252,-11.938 925.764,-27.858c-65.021,-232.152 -132.868,-464.304 -202.117,-695.133l4.227,0c1293.23,4303.46 1875.53,8746.2 1946.2,12528.3c7.052,362.158 16.951,1009.53 16.951,1853.24c0,4264.98 -267.116,13548.5 -2623.18,16407.2Z" style="fill:#507837;fill-rule:nonzero;"/><path d="M55307.3,61448.5c0,-0 657.224,-619.516 1298.88,-1270.87c650.15,-650.028 1263.53,-1325.26 1263.53,-1325.26c0,0 -186.545,522.675 -401.386,1038.72c-213.417,509.411 -425.411,1017.49 -425.411,1017.49c-0,-0 1163.18,-256.033 2327.77,-508.083c1171.68,-240.112 2343.34,-477.573 2343.34,-477.573c0,0 -1069.91,498.797 -2138.4,998.922c-1075.56,489.51 -2149.7,977.695 -2149.7,977.695c0,0 585.129,196.336 1173.08,412.57c586.531,213.58 1174.49,447.06 1174.49,447.06c0,0 -1020.44,-70.308 -2036.63,-107.452c-1014.79,-42.453 -2021.1,-53.065 -2021.1,-53.065c0,-0 -179.494,-102.147 -319.414,-294.503c-142.745,-192.356 -238.843,-477.573 -89.046,-855.65Z" style="fill:#cfc6b5;fill-rule:nonzero;"/><path d="M58001.1,71973.6c0,-0 545.556,-328.993 1092.51,-657.989c541.328,-339.605 1082.63,-676.558 1082.63,-676.558c-0,0 -227.543,310.421 -456.509,620.842c-233.215,306.443 -466.408,610.232 -466.408,610.232c-0,-0 825.395,1.326 1649.39,2.652c825.396,3.98 1650.79,11.94 1650.79,11.94l-3201.24,705.745c0,-0 361.813,216.234 722.203,435.122c361.834,224.192 725.049,447.06 725.049,447.06c0,0 -678.402,-168.478 -1356.8,-336.953c-675.577,-156.537 -1354,-315.729 -1354,-315.729c-0,-0 -416.936,-376.752 -87.623,-846.364Z" style="fill:#cfc6b5;fill-rule:nonzero;"/><path d="M58549.5,82668.6c-0,0 864.969,-363.485 1728.54,-725.644c859.298,-375.424 1721.44,-746.869 1721.44,-746.869c-0,0 -405.614,399.303 -812.672,802.586c-407.037,396.651 -815.497,793.301 -815.497,793.301l4729.06,730.95l-4764.38,343.586c-0,-0 466.386,395.324 934.218,790.648c464.984,403.282 928.567,806.565 928.567,806.565c0,0 -929.991,-388.691 -1859.96,-777.381c-934.24,-375.425 -1868.46,-750.85 -1868.46,-750.85c-0,0 -507.384,-647.375 79.147,-1266.89Z" style="fill:#cfc6b5;fill-rule:nonzero;"/><path d="M57300.1,93441.8c-0,-0 176.668,-26.532 435.31,-63.677c258.641,-41.124 603.503,-102.147 951.19,-169.803c695.374,-131.332 1383.67,-297.156 1383.67,-297.156c-0,0 -353.337,242.766 -717.976,465.633c-360.411,228.173 -729.297,431.141 -729.297,431.141c-0,0 845.172,305.116 1680.47,631.456c838.12,322.362 1667.76,665.948 1667.76,665.948c0,-0 -894.665,-126.026 -1783.66,-271.951c-888.994,-143.271 -1772.34,-307.768 -1772.34,-307.768c-0,-0 66.423,88.881 169.595,218.887l168.193,224.193l91.871,128.68l104.596,108.78c288.315,295.829 497.484,720.337 497.484,720.337c0,0 -524.334,-582.372 -1161.76,-931.265c-155.469,-95.514 -325.064,-151.231 -467.831,-250.725c-141.322,-95.515 -275.592,-185.723 -388.663,-263.991c-231.791,-152.558 -385.837,-253.379 -385.837,-253.379c-0,0 -66.423,-124.699 -66.423,-279.91c2.825,-149.905 59.349,-352.873 323.641,-505.43Z" style="fill:#cfc6b5;fill-rule:nonzero;"/><path d="M15928.5,93800l-2854.95,2344.08l1071.31,-1969.98l-4747.43,586.352l4452.04,-1626.4c-0,0 -571.003,-250.725 -1141.99,-501.451c-569.58,-260.011 -1136.34,-518.695 -1136.34,-518.695c0,-0 1010.54,118.066 2018.26,236.132c1011.96,103.474 2023.93,208.275 2023.93,208.275c0,-0 684.052,481.551 315.166,1241.69Z" style="fill:#cfc6b5;fill-rule:nonzero;"/><path d="M13941.4,83127.6c0,-0 -575.23,260.01 -1153.31,542.574c-575.23,278.584 -1149.04,579.72 -1149.04,579.72c0,-0 258.641,-287.87 521.509,-574.414c261.488,-278.582 522.955,-555.84 522.955,-555.84c-0,-0 -821.169,-74.289 -1645.14,-148.578c-822.571,-83.576 -1643.72,-167.15 -1643.72,-167.15c0,-0 812.672,-102.147 1625.34,-202.968c816.92,-95.515 1636.67,-191.029 1636.67,-191.029l-1344.1,-1021.47c0,-0 655.801,232.153 1311.58,465.634c655.801,222.866 1311.6,447.06 1311.6,447.06c-0,-0 90.448,108.78 138.497,263.99c50.895,149.905 55.122,350.22 -132.847,562.475Z" style="fill:#cfc6b5;fill-rule:nonzero;"/><path d="M14467.1,72501.6c-0,-0 -897.47,249.398 -1799.19,520.023c-903.141,271.951 -1799.19,565.125 -1799.19,565.125c0,-0 446.611,-362.157 903.12,-713.702c449.457,-347.568 900.316,-695.133 900.316,-695.133c-0,-0 -1150.48,-310.423 -2299.54,-620.844c-1146.21,-322.361 -2293.85,-643.396 -2293.85,-643.396c-0,-0 1192.86,47.758 2388.54,96.84c1192.88,59.697 2382.91,118.068 2382.91,118.068c0,-0 -416.935,-441.755 -822.57,-895.449c-397.16,-458.998 -797.123,-919.325 -797.123,-919.325c-0,0 860.721,517.369 1727.11,1008.21c864.969,492.165 1752.54,964.429 1752.54,964.429c-0,0 104.595,172.458 125.794,408.59c24.025,238.787 -46.647,537.267 -368.886,806.566Z" style="fill:#cfc6b5;fill-rule:nonzero;"/><path d="M17480.4,62198c0,-0 -176.669,1.326 -443.785,2.654c-267.138,2.652 -621.878,9.286 -973.813,25.204c-703.85,25.207 -1417.58,71.637 -1417.58,71.637c-0,0 397.138,-172.458 792.874,-346.242c392.911,-171.129 802.795,-322.361 802.795,-322.361c-0,0 -771.697,-437.774 -1544.8,-878.2c-768.871,-448.388 -1539.14,-898.1 -1539.14,-898.1c-0,-0 859.319,262.664 1715.81,525.329c852.245,270.624 1705.91,542.575 1705.91,542.575c0,-0 -214.819,-393.998 -405.635,-790.648c-190.794,-404.61 -384.435,-809.22 -384.435,-809.22c-0,0 513.055,542.576 1040.24,1055.97c261.466,256.03 527.181,510.734 725.049,700.438c204.942,189.702 340.614,317.053 340.614,317.053c-0,0 173.843,562.476 -414.111,803.914Z" style="fill:#cfc6b5;fill-rule:nonzero;"/><path d="M23328.8,53605.7c-0,0 -877.693,-282.56 -1787.89,-531.958c-904.543,-245.421 -1826.06,-451.04 -1826.06,-451.04c-0,-0 580.902,-84.906 1164.61,-137.966c587.954,-53.065 1158.96,-91.535 1158.96,-91.535c0,0 -773.119,-859.633 -1527.84,-1736.51c-754.725,-872.897 -1486.85,-1761.71 -1486.85,-1761.71c-0,0 952.613,679.215 1906.61,1358.42c937.065,695.135 1875.53,1387.61 1875.53,1387.61c0,-0 -16.972,-144.6 -43.822,-363.483c-25.448,-218.889 -59.349,-517.374 -76.322,-806.569c-40.975,-581.045 -59.35,-1184.64 -59.35,-1184.64c0,-0 356.163,903.411 751.899,1772.33c196.445,435.12 405.635,864.937 568.157,1188.62c163.945,321.035 271.365,537.266 271.365,537.266c-0,0 -12.724,191.031 -132.847,387.364c-117.319,193.682 -339.211,391.346 -756.147,433.794Z" style="fill:#cfc6b5;fill-rule:nonzero;"/><path d="M31903.6,48267.5c-0,0 -463.583,-591.657 -999.24,-1166.07c-521.53,-547.879 -1108.06,-1077.19 -1108.06,-1077.19c-0,0 464.985,179.093 898.893,372.775c443.785,216.231 855.07,440.428 855.07,440.428c0,-0 -152.644,-949.837 -267.116,-1908.97c-117.319,-957.797 -197.868,-1924.88 -197.868,-1924.88c-0,0 358.987,899.429 691.126,1812.12c334.963,908.715 647.303,1824.06 647.303,1824.06c0,-0 224.718,-436.446 481.958,-879.526c132.846,-220.215 264.291,-443.081 364.638,-608.904c104.595,-159.194 175.267,-267.971 175.267,-267.971c-0,0 -49.473,198.986 -120.145,494.814c-67.846,303.789 -152.644,705.748 -226.141,1107.7c-149.797,803.916 -241.669,1597.22 -241.669,1597.22c0,-0 -101.77,126.027 -271.365,205.619c-176.668,74.289 -384.435,141.948 -682.65,-21.224Z" style="fill:#cfc6b5;fill-rule:nonzero;"/><path d="M42093.9,48361.7c-0,0 -117.298,-850.342 -299.617,-1715.28c-87.622,-435.12 -189.392,-870.245 -271.365,-1196.58c-80.57,-331.647 -142.745,-545.227 -142.745,-545.227c-0,0 89.046,111.433 216.242,285.217c122.948,173.784 286.914,403.284 452.261,631.454c155.469,228.174 309.537,456.348 425.433,626.15c113.049,169.806 183.72,286.542 183.72,286.542c0,0 462.182,-1029.43 961.09,-2052.23c494.659,-1020.15 1024.66,-2031.01 1024.66,-2031.01c0,0 -209.168,1106.38 -446.61,2203.46c-234.617,1099.75 -500.332,2188.87 -500.332,2188.87c0,-0 521.531,-332.973 1061.44,-607.578c539.905,-289.195 1125.01,-558.496 1125.01,-558.496c-0,-0 -737.752,680.541 -1396.38,1396.9c-330.736,355.528 -647.325,715.033 -877.693,989.633c-233.193,282.565 -388.663,470.943 -388.663,470.943c0,0 -185.166,75.615 -414.11,68.98c-231.792,-6.634 -504.58,-100.821 -712.347,-441.754Z" style="fill:#cfc6b5;fill-rule:nonzero;"/><path d="M50530.2,53613.7c-0,0 363.236,-660.642 698.199,-1355.77c323.642,-676.558 614.804,-1388.94 614.804,-1388.94c0,0 4.227,472.269 -9.899,928.613c-22.622,470.939 -62.196,923.305 -62.196,923.305c0,-0 862.144,-520.021 1739.84,-1021.47c877.693,-506.757 1762.46,-988.307 1762.46,-988.307c0,-0 -726.472,680.54 -1450.1,1358.43c-736.371,664.62 -1471.3,1333.22 -1471.3,1333.22c0,0 524.356,2.657 1064.24,25.207c527.182,29.184 1067.09,78.271 1067.09,78.271c-0,0 -849.421,188.373 -1676.24,408.588c-836.696,222.866 -1652.19,480.224 -1652.19,480.224c0,0 -169.616,-33.167 -329.312,-148.577c-155.47,-118.068 -313.764,-301.137 -295.39,-632.785Z" style="fill:#cfc6b5;fill-rule:nonzero;"/><path d="M22803.1,68150.4c-2052.2,-0 -4095.9,-669.926 -5666.12,-1869.16c42.398,-279.908 89.046,-559.819 138.496,-839.73c-77.723,257.359 -151.22,516.043 -223.294,774.727c-549.804,-429.814 -1040.24,-927.284 -1448.7,-1483.13c-53.699,-156.537 -105.997,-314.401 -151.22,-473.59c1054.36,740.235 2217.55,1359.75 3503.7,1829.37c1064.24,388.69 2163.82,596.964 3267.66,596.964c866.371,-0 1735.59,-128.679 2593.49,-397.976c3567.3,-1126.28 5571.43,-2902.58 6566.44,-6333.14c1088.26,-3750.26 1151.86,-7554.92 1011.94,-11412.6c-1.401,-62.351 -4.227,-124.701 -7.052,-187.052c70.672,-15.916 135.672,-39.796 196.445,-66.329c1055.79,4844.7 1397.8,10139.1 -999.239,14532.8c-1580.12,2897.27 -4692.31,5088.8 -8193.19,5310.34c-196.445,11.94 -392.911,18.572 -589.356,18.572Z" style="fill:#385f2d;fill-rule:nonzero;"/><path d="M17137,66281.3c-28.273,-21.224 -56.547,-42.45 -84.798,-65.003c72.074,-258.684 145.571,-517.368 223.294,-774.727c-49.45,279.911 -96.098,559.822 -138.496,839.73Z" style="fill:#446e34;fill-rule:nonzero;"/><path d="M32388.4,48355.1c-8.475,-228.17 -16.972,-456.344 -28.273,-683.193c28.273,-5.303 55.123,-10.612 83.396,-15.92c48.049,210.928 96.098,421.856 141.322,632.784c-60.773,26.533 -125.773,50.413 -196.445,66.329Z" style="fill:#718243;fill-rule:nonzero;"/><path d="M50422.8,64694.7c-1419,-537.269 -2761.68,-1322.61 -3954.56,-2180.91c91.871,-209.602 190.816,-435.122 293.987,-657.988c117.298,-256.033 238.844,-509.411 350.513,-733.606c921.494,781.362 1924.98,1488.43 3010.42,2106.62c108.843,488.185 207.766,977.695 299.638,1465.88Z" style="fill:#385f2d;fill-rule:nonzero;"/><path d="M56843.6,66002.7c-1696.02,0 -3434.43,-474.918 -5059.8,-879.528c-459.334,-114.087 -914.442,-258.684 -1361.05,-428.488c-91.872,-488.185 -190.795,-977.695 -299.638,-1465.88c915.865,522.675 1889.66,983.001 2919.99,1371.69c1238.08,466.959 2693.83,684.519 4230.15,684.519c166.77,-0 334.963,-2.652 503.156,-7.961c69.249,230.829 137.096,462.981 202.117,695.133c-350.512,15.92 -671.35,23.881 -925.764,27.858c-69.248,2.654 -138.497,2.654 -209.169,2.654Z" style="fill:#2e4d23;fill-rule:nonzero;"/><path d="M46119.1,62255.1c-148.396,-114.084 -295.39,-230.826 -439.559,-348.891c305.289,-238.786 501.755,-393.998 501.755,-393.998c0,0 -33.923,339.608 -62.196,742.889Zm-1002.07,-835.749c-120.144,-110.108 -238.865,-222.866 -354.761,-335.628c453.684,-80.92 826.819,-159.189 826.819,-159.189c0,0 -187.969,195.008 -472.058,494.817Zm-648.727,-628.805c-1509.47,-1552.11 -2650.03,-3390.76 -3427.38,-5368.7c192.218,-180.416 504.558,-469.613 822.571,-752.175c40.997,-37.144 81.972,-74.291 124.371,-108.781c1019.04,2031.01 2354.64,3906.8 3996.96,5529.22c-267.117,128.679 -569.58,273.279 -876.27,412.57c-216.243,100.821 -433.908,197.662 -640.252,287.868Zm-3468.35,-5472.18c-100.347,-260.011 -195.043,-525.329 -282.688,-790.646c494.682,-147.253 859.32,-256.03 859.32,-256.03c-0,0 -182.319,326.339 -367.464,655.332c-73.497,137.965 -146.994,277.259 -209.168,391.344Zm-426.835,-1245.67c-50.896,-167.149 -98.945,-335.625 -144.169,-504.105c9.899,1.326 21.2,3.983 31.099,5.308c429.659,72.963 859.319,144.6 859.319,144.6c-0,0 -313.764,148.577 -746.249,354.197Zm-200.693,-716.359c-474.905,-1843.96 -657.224,-3760.88 -552.629,-5643.31c292.564,1911.61 818.322,3784.76 1573.07,5561.06c-90.47,6.634 -180.917,14.595 -272.789,22.555c-257.217,22.55 -517.282,42.448 -747.65,59.694Z" style="fill:#385f2d;fill-rule:nonzero;"/><path d="M50959.8,24065.2c-7030,4263.66 -10885.6,11496.2 -11394.4,19189.1c-70.671,1065.25 -59.371,2138.46 87.623,3117.48c746.249,7796.36 5324.09,15182.8 13390.1,18228.7c4843.55,1828.04 13015.5,-167.152 16271.9,-4040.79c4699.39,-5590.24 6736.01,-11993.7 6808.11,-19087c122.948,-12065.3 -11828.3,-25493.1 -25163.3,-17407.5Z" style="fill:#5f8237;fill-rule:nonzero;"/><path d="M57780.6,65277c4347.47,-132.657 9202.32,-1943.45 11534.4,-4717.35c4699.39,-5590.24 6736.01,-11993.7 6808.11,-19087l-0,-23.876l-0,23.876c-72.095,7093.27 -2108.72,13496.7 -6808.11,19087c-2332.04,2773.9 -7186.89,4584.69 -11534.4,4717.35Zm18342.5,-23849.4l-0,-2.651l-0,2.651Z" style="fill:#c8d5b5;fill-rule:nonzero;"/><path d="M50123.1,63228.8c-1085.44,-618.19 -2088.93,-1325.26 -3010.42,-2106.62l-0,-1.325c921.494,781.361 1924.98,1488.43 3010.42,2107.95Z" style="fill:#2e4e24;fill-rule:nonzero;"/><path d="M57273.3,65285c-1536.32,-0 -2992.07,-217.56 -4230.15,-684.519c-1030.34,-388.692 -2004.13,-849.018 -2919.99,-1371.69c915.865,522.675 1889.66,981.675 2919.99,1371.69c1238.08,466.959 2693.83,684.519 4230.15,684.519c166.77,-0 334.963,-2.652 503.156,-7.961c-168.193,5.309 -336.386,7.961 -503.156,7.961Z" style="fill:#253f1b;fill-rule:nonzero;"/><path d="M57273.3,65285c-1536.32,-0 -2992.07,-217.56 -4230.15,-684.519c-1030.34,-390.018 -2004.13,-849.018 -2919.99,-1371.69c-1085.44,-619.518 -2088.93,-1326.59 -3010.42,-2107.95c77.724,-156.538 149.819,-301.135 211.994,-423.183c563.929,224.195 1146.23,417.877 1745.49,579.72c1212.66,323.687 2462.06,480.225 3711.47,480.225c3315.71,-0 6624.37,-1099.74 9213.62,-3061.76c1171.66,-890.143 2118.6,-1962.03 2874.75,-3146.67c3218.21,-3278 4009.68,-9040.7 3500.88,-13069.6c-477.709,-3817.93 -3024.57,-6873.06 -4979.25,-10133.8c-1328.53,-2218.06 -2454.99,-4685.51 -2016.83,-7277.67c97.521,-566.456 271.343,-1111.68 500.31,-1639.66c310.938,-53.064 597.853,-104.803 836.718,-147.251c-11.322,140.617 -21.2,281.234 -28.273,421.851c-2.826,1.331 -5.651,3.983 -8.476,6.635c-179.494,145.925 -354.761,297.154 -486.205,415.221c-130.022,119.394 -214.819,196.339 -214.819,196.339c-0,0 203.518,-110.107 507.383,-279.913c60.773,-31.836 124.371,-65.003 190.816,-100.821c-104.595,2903.9 775.923,5638 4080.33,7200.73c1062.84,502.774 2122.85,722.989 3156.01,722.989c838.12,-0 1659.27,-144.595 2450.74,-403.279l135.694,76.94c-0,-0 467.81,-87.557 1037.39,-181.744c1671.99,3114.83 2616.11,6644.88 2590.68,10068.8l-0,47.756c-72.095,7093.27 -2108.72,13496.7 -6808.11,19087c-2332.04,2773.9 -7186.89,4584.69 -11534.4,4717.35l-4.227,0c-168.193,5.309 -336.386,7.961 -503.156,7.961Zm15609,-35047.1c-310.939,-508.083 -643.077,-1002.9 -993.59,-1481.8c2.826,0 5.651,1.326 8.476,1.326c349.089,476.247 679.825,969.735 990.764,1475.17c-1.423,1.326 -4.249,3.983 -5.65,5.309Zm-10810.7,-7236.54c29.675,-61.02 60.773,-123.371 93.273,-184.396c79.147,-74.289 163.945,-148.577 251.589,-221.54c125.773,19.898 250.144,38.47 361.813,53.065c-8.475,63.676 -15.549,126.027 -22.623,189.704c-192.218,45.099 -426.834,100.816 -684.052,163.167Zm742,-624.825l-117.297,0c42.398,-31.835 86.199,-63.671 131.444,-95.512c-4.248,31.841 -8.497,63.677 -14.147,95.512Zm798.546,-9.286c-204.942,-71.631 -412.687,-137.965 -621.877,-198.985c1.423,0 1.423,0 1.423,-1.326c209.169,62.346 416.936,128.68 623.279,200.311l-2.825,0Z" style="fill:#507837;fill-rule:nonzero;"/><path d="M61846.9,63953.1c0,-0 510.209,717.685 1072.71,1422.1c556.878,697.784 1164.61,1361.08 1164.61,1361.08c-0,0 -114.473,-65.002 -288.316,-157.863c-171.019,-95.515 -392.911,-214.908 -617.651,-359.505c-449.435,-277.257 -867.794,-559.822 -867.794,-559.822c-0,-0 226.141,1130.26 419.782,2269.79c200.693,1136.89 366.04,2281.73 366.04,2281.73c-0,0 -426.813,-1079.85 -829.623,-2167.65c-402.81,-1087.8 -781.595,-2179.59 -781.595,-2179.59c-0,0 -173.844,516.043 -378.764,1041.37c-103.172,262.665 -213.417,524.003 -298.215,709.725c-89.046,192.356 -145.592,318.381 -145.592,318.381c0,-0 29.696,-234.806 73.497,-590.332c40.997,-352.873 87.644,-825.137 121.546,-1305.36c72.095,-956.469 84.819,-1899.67 84.819,-1899.67c0,-0 80.549,-147.252 233.193,-240.113c154.046,-87.555 367.464,-149.905 671.35,55.717Z" style="fill:#cfc6b5;fill-rule:nonzero;"/><path d="M54200.6,64134.8c-0,0 -50.874,591.66 -29.675,1185.97c19.776,582.371 87.623,1178.01 87.623,1178.01c-0,0 -149.819,-302.463 -277.016,-598.291c-122.969,-310.424 -209.19,-622.17 -209.19,-622.17c0,-0 -320.816,728.297 -674.153,1448.63c-350.513,721.665 -733.525,1432.72 -733.525,1432.72c0,0 211.994,-765.441 445.187,-1522.92c231.792,-757.484 486.206,-1507.01 486.206,-1507.01l-187.991,145.925c-118.721,79.595 -279.841,189.702 -436.712,297.158c-327.889,214.905 -657.202,428.488 -657.202,428.488c-0,-0 452.26,-500.125 880.518,-1009.53c429.638,-510.737 835.273,-1030.76 835.273,-1030.76c12.724,10.612 363.237,-262.664 470.657,173.781Z" style="fill:#cfc6b5;fill-rule:nonzero;"/><path d="M47533.9,60291.7c0,-0 -405.613,764.115 -771.675,1564.05c-368.886,798.605 -699.601,1631.7 -699.601,1631.7c0,0 11.301,-510.737 42.399,-1004.23c28.251,-493.491 76.322,-971.064 76.322,-971.064c0,0 -932.816,738.912 -1886.83,1457.92c-949.767,721.662 -1922.16,1424.76 -1922.16,1424.76c-0,0 788.647,-883.508 1594.27,-1749.77c802.773,-868.916 1622.52,-1720.58 1622.52,-1720.58c0,0 -566.754,119.391 -1154.71,213.58c-299.638,51.736 -583.706,86.229 -802.773,112.759c-219.068,26.532 -366.062,42.453 -366.062,42.453c0,-0 929.97,-368.792 1843.01,-790.648c920.092,-419.202 1804.84,-876.874 1804.84,-876.874c0,-0 179.494,-7.961 344.862,70.308c168.194,75.615 312.341,245.418 275.592,595.638Z" style="fill:#cfc6b5;fill-rule:nonzero;"/><path d="M42892.4,53780.8c0,-0 -520.107,433.794 -1028.91,888.817c-511.632,453.692 -1011.96,931.265 -1011.96,931.265c0,-0 178.092,-336.953 357.586,-673.909c185.145,-328.993 367.464,-655.332 367.464,-655.332c-0,0 -884.746,262.662 -1766.69,526.655c-888.994,250.724 -1777.99,504.103 -1777.99,504.103c0,-0 819.746,-401.956 1638.07,-801.26c823.994,-390.018 1649.39,-782.685 1649.39,-782.685c-0,0 -429.66,-71.637 -859.319,-144.6c-433.908,-82.248 -867.795,-165.823 -867.795,-165.823c0,-0 768.85,-45.105 1527.82,-111.433c760.375,-65.003 1512.3,-153.886 1512.3,-153.886l223.295,143.274c100.346,102.147 165.368,256.027 36.748,494.814Z" style="fill:#cfc6b5;fill-rule:nonzero;"/><path d="M40783.7,46141c0,-0 -212.015,80.923 -524.356,229.5c-315.187,145.926 -730.699,340.933 -1149.06,537.267c-832.47,396.65 -1663.52,815.854 -1663.52,815.854c0,0 364.638,-368.791 730.7,-738.909c183.742,-180.418 367.485,-360.836 505.981,-496.144c138.519,-130.006 231.792,-216.237 231.792,-216.237c-0,-0 -1225.38,13.269 -2453.59,-1.326c-1226.78,-10.612 -2459.22,-50.408 -2459.22,-50.408c0,0 1204.18,-209.602 2408.34,-396.65c1211.26,-189.704 2423.89,-351.55 2423.89,-351.55c0,0 -510.208,-244.09 -1024.66,-526.655c-504.58,-279.908 -997.838,-592.983 -997.838,-592.983c-0,-0 973.813,289.194 1950.43,521.351c989.34,230.826 1977.28,395.319 1977.28,395.319c0,0 137.095,96.844 210.592,248.073c83.374,159.194 98.924,371.448 -166.77,623.498Z" style="fill:#cfc6b5;fill-rule:nonzero;"/><path d="M41587.9,38277c-0,0 -787.246,54.391 -1584.37,135.314c-799.969,76.94 -1587.19,183.07 -1587.19,183.07c-0,-0 100.346,-49.083 250.166,-123.371c152.644,-68.985 358.987,-164.498 562.506,-257.359c409.862,-179.092 818.322,-354.202 818.322,-354.202c-0,0 -983.69,-342.259 -1968.78,-681.866c-980.865,-355.523 -1961.73,-707.073 -1961.73,-707.073c0,-0 1030.32,173.784 2059.25,344.916c1027.49,185.721 2053.58,370.117 2053.58,370.117c-0,-0 -329.291,-347.568 -661.43,-695.13c-326.487,-359.506 -652.975,-721.668 -652.975,-721.668c-0,0 719.399,462.978 1450.1,900.755c727.875,439.103 1465.65,852.999 1465.65,852.999c-1.424,-0 76.322,122.045 94.696,279.908c12.703,155.212 -43.822,340.933 -337.788,473.59Z" style="fill:#cfc6b5;fill-rule:nonzero;"/><path d="M44848.5,31005.9c0,-0 -907.368,-222.866 -1806.26,-391.342c-905.945,-177.766 -1833.11,-319.709 -1833.11,-319.709c0,-0 530.007,-91.535 1047.29,-163.172c511.632,-78.266 1047.29,-119.393 1047.29,-119.393c0,-0 -961.067,-711.051 -1909.43,-1438.02c-951.191,-725.645 -1886.81,-1473.84 -1886.81,-1473.84c0,0 1072.71,550.536 2146.88,1102.4c1065.66,565.125 2129.9,1128.92 2129.9,1128.92c0,0 -60.773,-127.348 -149.797,-315.727c-93.295,-192.356 -204.942,-444.406 -309.537,-699.112c-214.819,-509.409 -414.111,-1036.06 -414.111,-1036.06c0,0 597.853,778.705 1222.56,1520.27c616.227,744.217 1281.9,1467.21 1281.9,1467.21c-0,-0 46.647,168.475 -0,342.259c-48.049,175.109 -186.568,354.202 -566.755,395.324Z" style="fill:#cfc6b5;fill-rule:nonzero;"/><path d="M50566.9,25218c0,0 -640.251,-419.204 -1311.6,-821.157c-667.101,-404.61 -1361.05,-785.345 -1361.05,-785.345c-0,0 443.785,88.883 887.592,177.767c431.061,99.495 862.144,196.333 862.144,196.333c0,0 -538.482,-845.038 -1078.39,-1690.07c-522.954,-849.022 -1045.89,-1699.36 -1045.89,-1699.36c-0,-0 685.475,741.565 1372.37,1488.43c675.577,750.847 1349.73,1504.35 1349.73,1504.35c0,-0 -35.325,-464.305 -55.101,-937.9c-21.199,-472.264 -25.448,-955.14 -25.448,-955.14c0,-0 247.341,793.299 521.531,1568.03c271.365,776.053 573.807,1532.21 573.807,1532.21c-0,0 -18.374,144.6 -111.647,267.971c-91.872,126.027 -269.942,216.236 -578.056,153.885Z" style="fill:#cfc6b5;fill-rule:nonzero;"/><path d="M54816.9,22769.1c0,-0 -562.528,-675.233 -1177.33,-1330.57c-613.402,-657.991 -1280.5,-1294.75 -1280.5,-1294.75c0,0 491.856,229.501 955.439,468.287c464.985,238.786 904.543,486.859 904.543,486.859c0,-0 -318.012,-1114.34 -603.503,-2236.63c-288.316,-1115.66 -539.905,-2240.61 -539.905,-2240.61c-0,-0 513.055,1046.67 999.239,2103.97c487.608,1054.64 949.767,2118.56 949.767,2118.56c0,0 130.043,-527.981 295.39,-1065.25c80.571,-273.273 171.018,-537.266 244.515,-729.622c76.322,-195.008 125.795,-325.013 125.795,-325.013c-0,-0 -14.147,236.135 -33.923,594.309c-15.55,355.528 -28.273,823.815 -25.448,1306.69c2.825,960.454 67.846,1901.01 67.846,1901.01c0,-0 -67.846,155.211 -210.592,258.684c-139.92,103.473 -354.739,149.903 -671.328,-15.92Z" style="fill:#cfc6b5;fill-rule:nonzero;"/><path d="M60283.7,22148.3c0,0 -113.07,-575.742 -269.963,-1154.14c-151.221,-579.719 -346.264,-1159.43 -346.264,-1159.43c0,0 214.841,279.908 405.635,557.165c196.445,277.256 370.289,551.861 370.289,551.861c-0,0 154.067,-780.036 327.911,-1560.07c172.42,-777.384 367.463,-1542.83 367.463,-1542.83c-0,0 -31.098,790.648 -65.022,1583.95c-48.049,791.973 -96.098,1582.62 -96.098,1582.62c0,-0 233.193,-290.525 489.009,-579.72c131.445,-143.274 262.89,-287.868 361.835,-395.324l170.997,-175.109c-0,-0 -80.549,145.925 -200.693,366.14c-115.896,222.865 -265.694,520.02 -409.862,818.506c-289.74,595.635 -535.657,1199.24 -535.657,1199.24c-5.65,7.96 -323.663,287.868 -569.58,-92.861Z" style="fill:#cfc6b5;fill-rule:nonzero;"/><path d="M67079.1,24814.7c-0,0 84.797,-205.619 210.592,-508.083c125.773,-309.097 277.015,-712.376 419.761,-1124.95c286.914,-819.832 520.107,-1679.46 520.107,-1679.46c0,0 48.049,505.426 69.249,994.942c12.723,242.764 15.549,489.51 12.723,676.558c-2.825,185.721 -5.65,309.097 -5.65,309.097c0,0 856.494,-819.832 1739.84,-1618.44c881.92,-801.26 1789.29,-1579.97 1789.29,-1579.97c-0,0 -698.178,943.208 -1417.58,1869.16c-717.976,927.287 -1458.57,1842.63 -1458.57,1842.63c-0,0 545.555,-157.863 1119.36,-293.177c285.512,-67.654 575.23,-132.657 794.298,-179.087c219.089,-43.779 367.484,-74.289 367.484,-74.289c0,0 -224.717,115.411 -565.353,286.543c-336.365,173.784 -778.748,409.918 -1215.48,654.008c-873.445,485.533 -1703.07,1009.54 -1703.07,1009.54c-0,0 -172.442,13.264 -346.285,-38.475c-172.421,-57.042 -337.789,-196.333 -330.715,-546.553Z" style="fill:#cfc6b5;fill-rule:nonzero;"/><path d="M72192.6,30917c-0,0 487.607,-466.955 962.49,-957.792c480.534,-489.515 928.568,-992.29 928.568,-992.29c0,0 -134.27,347.568 -296.791,693.805c-158.295,340.933 -318.013,680.54 -318.013,680.54c0,0 860.743,-322.361 1721.46,-643.396c867.794,-311.749 1734.19,-622.167 1734.19,-622.167c0,-0 -785.822,455.018 -1573.07,907.384c-794.297,447.063 -1590.02,894.12 -1590.02,894.12c-0,0 438.135,41.127 870.62,82.249c443.806,53.065 883.343,106.13 883.343,106.13c0,-0 -766.024,96.838 -1519.35,216.231c-754.724,116.742 -1500.97,256.033 -1500.97,256.033l-230.39,-131.331c-107.399,-91.535 -183.721,-244.095 -72.073,-489.516Z" style="fill:#cfc6b5;fill-rule:nonzero;"/><path d="M74776.2,38273c0,0 836.697,-372.769 1657.87,-791.973c809.846,-411.244 1612.62,-867.588 1612.62,-867.588c-0,-0 -337.789,390.015 -682.651,758.807c-357.564,374.1 -725.049,725.645 -725.049,725.645c-0,-0 1225.38,-41.127 2453.59,-57.043c1226.78,-17.246 2457.81,-10.611 2457.81,-10.611c-0,-0 -1198.53,226.843 -2398.46,453.692c-1204.16,210.928 -2411.17,419.199 -2411.17,419.199c-0,0 518.706,236.135 1040.21,501.453c260.064,133.983 521.531,271.949 716.574,372.77c190.816,106.129 318.012,177.766 318.012,177.766c-0,0 -247.341,-58.373 -616.227,-147.251c-373.114,-84.906 -872.043,-192.356 -1368.13,-290.526c-994.991,-200.316 -1984.33,-351.545 -1984.33,-351.545c0,0 -144.169,-99.495 -223.316,-258.684c-86.221,-159.19 -107.42,-376.752 152.644,-634.111Z" style="fill:#cfc6b5;fill-rule:nonzero;"/><path d="M74494.9,46403.7c0,-0 771.697,-133.988 1544.8,-286.548c774.522,-149.903 1551.87,-322.361 1551.87,-322.361c-0,0 -381.611,226.849 -760.396,452.371c-381.589,222.866 -758.973,433.794 -758.973,433.794c0,0 1010.56,249.399 2019.68,497.471c1009.14,260.011 2018.28,520.021 2018.28,520.021c-0,-0 -1047.29,-78.266 -2091.77,-155.212c-1047.29,-86.226 -2090.33,-172.453 -2090.33,-172.453c-0,0 368.887,315.727 737.773,630.128c364.638,327.664 732.101,655.334 732.101,655.334c-1.401,-0 -770.273,-388.69 -1546.2,-754.829c-773.098,-367.466 -1551.87,-713.703 -1551.87,-713.703c0,0 -378.763,-462.983 195.043,-784.013Z" style="fill:#cfc6b5;fill-rule:nonzero;"/><path d="M72145.9,54164.2c0,-0 233.215,18.572 583.727,50.408c351.915,29.189 823.973,62.351 1279.08,82.249c915.844,46.43 1847.24,61.025 1847.24,61.025c-0,-0 -496.083,152.557 -996.393,307.769c-241.69,78.269 -511.653,137.965 -705.273,187.047c-192.218,46.431 -322.239,76.943 -322.239,76.943c-0,0 1058.59,574.414 2117.2,1148.83c1051.54,589.006 2101.65,1178.01 2101.65,1178.01c0,0 -1151.88,-388.689 -2305.17,-777.381c-1147.66,-403.282 -2293.87,-807.892 -2293.87,-807.892c0,0 316.589,460.327 626.105,939.225c308.113,474.919 607.752,969.735 607.752,969.735c-0,0 -736.372,-677.886 -1486.85,-1323.93c-751.899,-648.702 -1517.94,-1269.55 -1517.94,-1269.55c-0,-0 -70.672,-159.19 -46.648,-340.934c22.623,-183.067 137.095,-382.055 511.632,-481.55Z" style="fill:#cfc6b5;fill-rule:nonzero;"/><path d="M67651.5,60901.9c-0,-0 661.451,355.525 1390.73,648.7c363.236,145.925 740.598,287.871 1023.26,374.1c281.264,86.226 469.233,144.597 469.233,144.597c0,-0 -110.224,3.98 -278.417,7.96c-169.617,2.652 -398.561,-6.634 -620.476,-22.552c-442.362,-26.533 -853.647,-83.575 -855.07,-83.575c1.423,-0 699.623,744.215 1351.17,1508.33c654.377,764.116 1280.48,1554.76 1280.48,1554.76c-0,0 -802.774,-638.09 -1580.12,-1298.73c-780.172,-656.663 -1534.9,-1335.88 -1534.9,-1335.88c-0,0 115.895,444.406 193.619,912.693c66.424,453.692 104.596,925.959 104.596,925.959c-0,-0 -303.866,-766.77 -657.203,-1493.74c-358.988,-738.911 -791.473,-1439.35 -791.473,-1439.35l40.976,-249.398c49.472,-118.067 192.218,-202.968 463.583,-153.883Z" style="fill:#cfc6b5;fill-rule:nonzero;"/><path d="M69908.6,31864.2c-1033.16,-0 -2093.18,-220.215 -3156.01,-722.989c-3304.41,-1562.72 -4184.93,-4296.82 -4080.33,-7200.73c279.841,-145.926 614.804,-315.727 952.592,-476.247c161.12,-78.266 323.663,-152.555 480.534,-224.192c206.344,571.759 477.709,1116.99 821.169,1630.38l1.402,1.326c1.423,2.656 4.248,5.308 5.65,7.96c1.423,3.982 4.249,6.634 5.65,9.286c1.424,1.326 1.424,2.652 2.825,3.982c207.767,309.093 442.384,606.247 705.274,890.138c1310.18,1415.47 3873.99,2670.42 5849.84,2927.78c131.445,17.246 261.488,31.835 391.509,45.104c350.513,478.899 682.651,973.718 993.59,1481.8c-371.712,375.425 -689.724,679.209 -689.724,679.209c-111.648,245.421 -35.326,397.981 72.073,489.516l94.696,54.391c-791.472,258.684 -1612.62,403.279 -2450.74,403.279Zm-7225.04,-8161.18c7.073,-140.617 16.951,-281.234 28.273,-421.851c418.337,-75.62 689.702,-126.028 689.702,-126.028c0,0 -360.411,257.359 -717.975,547.879Zm72.073,-864.931c7.074,-63.677 14.148,-126.028 22.623,-189.704c299.617,39.796 521.531,62.35 521.531,62.35c-0,0 -210.592,47.757 -544.154,127.354Z" style="fill:#24411c;fill-rule:nonzero;"/><path d="M62827.7,22281c7.052,-51.739 15.528,-102.147 22.602,-153.886c46.647,13.269 93.294,26.533 139.92,41.127c-55.123,37.144 -108.822,74.289 -162.522,112.759Z" style="fill:#2d5126;fill-rule:nonzero;"/><path d="M62813.6,22376.5c5.65,-31.835 9.899,-63.671 14.147,-95.512c53.7,-38.47 107.399,-75.615 162.522,-112.759c209.19,61.02 416.935,127.354 621.877,198.985c-138.497,2.657 -279.84,5.309 -422.586,6.635c-125.794,1.326 -251.589,2.651 -375.96,2.651Z" style="fill:#24411c;fill-rule:nonzero;"/><path d="M72359.4,31461l-94.696,-54.391c-107.399,-91.535 -183.721,-244.095 -72.073,-489.516c-0,0 318.012,-303.784 689.724,-679.209c166.77,271.948 329.313,547.878 484.782,827.792c-329.313,151.229 -665.7,283.886 -1007.74,395.324Z" style="fill:#567032;fill-rule:nonzero;"/><path d="M71497.2,28710.9c8915.41,1163.42 15573.7,-6975.2 14618.3,-14898.9c-431.062,-3581.79 -2332.02,-7312.15 -6331.8,-8341.59c-3505.1,-903.406 -7342.36,64.998 -10108.3,2251.22c-4706.44,3722.41 -8661,13051 -4028.03,18061.5c1310.18,1415.47 3873.99,2670.42 5849.84,2927.78Z" style="fill:#6a913d;fill-rule:nonzero;"/><path d="M71888.7,28756c-130.021,-13.269 -260.064,-27.858 -391.509,-45.104c-1975.86,-257.359 -4539.67,-1512.31 -5849.84,-2927.78c-262.89,-283.891 -497.507,-581.045 -705.274,-890.138c207.767,309.093 442.384,606.247 705.274,890.138c1310.18,1415.47 3873.99,2670.42 5849.84,2927.78c131.445,17.246 261.488,31.835 391.509,45.104Zm-6949.45,-3867.01c-1.401,-2.652 -4.227,-5.304 -5.65,-9.286c1.423,3.982 4.249,6.634 5.65,9.286Zm-11.3,-17.246l-1.402,-1.326c-0,1.326 1.402,1.326 1.402,1.326Z" style="fill:#1e3519;fill-rule:nonzero;"/><path d="M79783.7,5470.43c-117.319,-30.515 -236.04,-58.378 -353.337,-84.905c117.297,26.527 236.018,54.39 353.337,84.905Z" style="fill:#c8d5b5;fill-rule:nonzero;"/><path d="M73197.5,28822.4c-429.659,-0 -866.371,-21.224 -1308.76,-66.329c-130.021,-13.269 -260.064,-27.858 -391.509,-45.104c-1975.86,-257.359 -4539.67,-1512.31 -5849.84,-2927.78c-262.89,-283.891 -497.507,-581.045 -705.274,-890.138c-1.401,-1.33 -1.401,-2.656 -2.825,-3.982c-1.401,-2.652 -4.227,-5.304 -5.65,-9.286c-1.402,-2.652 -4.227,-5.304 -5.65,-7.96c-0,-0 -1.402,-0 -1.402,-1.326c-342.037,-513.392 -614.825,-1058.62 -821.169,-1630.38c528.604,-238.786 994.991,-427.16 1154.71,-490.836c301.04,400.627 645.902,772.075 1041.64,1103.72c1026.09,860.954 2285.39,1227.09 3571.55,1227.09c1841.59,-0 3739.72,-748.195 5095.12,-1867.84c1724.29,-1423.43 2850.72,-3457.09 3765.17,-5396.56c922.918,-1954.07 1523.6,-4181.41 1537.72,-6322.52c16.95,-2402.46 -1296.05,-4643.06 -3397.7,-5758.73l8.497,-13.268c-0,-0 19.776,-236.135 56.524,-583.693c53.699,-1.336 107.42,-1.336 161.12,-1.336c781.573,0 1563.17,80.928 2330.62,249.404c117.297,26.527 236.018,54.39 353.337,84.905c3999.78,1029.43 5900.74,4759.8 6331.8,8341.59c60.773,506.757 91.871,1013.51 91.871,1520.27c2.825,6894.28 -5514.88,13491.4 -13009.9,13490.1Zm-9354.97,-6461.81c-275.592,-1147.5 -322.239,-2371.94 -183.72,-3614.96c206.343,1257.61 613.38,2496.64 1297.45,3564.54c-261.467,15.92 -664.276,37.144 -1113.73,50.413Zm12568.9,-16847.7c-255.816,-110.107 -522.933,-204.294 -798.546,-281.234c233.215,-29.189 466.408,-53.065 701.024,-68.985c39.574,137.96 72.074,257.358 97.522,350.219Z" style="fill:#507837;fill-rule:nonzero;"/><path d="M80426.8,6267.71c-0,-0 214.819,-841.061 344.862,-1715.28c141.322,-870.24 192.218,-1765.69 192.218,-1765.69c-0,-0 89.024,452.371 135.672,892.79c50.874,441.754 59.349,868.924 59.349,868.924c0,-0 518.706,-1098.42 1081.23,-2180.92c559.681,-1083.82 1163.18,-2150.39 1163.18,-2150.39c-0,0 -419.782,1142.19 -876.292,2268.47c-455.086,1128.92 -945.518,2240.6 -945.518,2240.6c-0,0 368.886,-390.015 773.098,-745.538c399.985,-351.545 845.172,-677.889 845.172,-677.889c-0,-0 -682.629,744.212 -1280.48,1530.88c-299.638,387.364 -592.202,795.952 -799.969,1106.38c-204.921,309.097 -342.016,514.717 -342.016,514.717c-12.724,-1.326 -397.159,423.182 -350.512,-187.047Z" style="fill:#cfc6b5;fill-rule:nonzero;"/><path d="M82938.3,8934.16c-0,-0 480.555,-394.003 942.715,-815.86c464.984,-417.868 908.77,-864.936 908.77,-864.936c-0,-0 -165.347,263.998 -342.016,514.717c-173.843,254.707 -354.761,493.493 -354.761,493.493c0,0 767.448,-409.913 1536.32,-817.175c778.748,-394.003 1556.1,-789.322 1556.1,-789.322c0,0 -732.123,470.934 -1460,940.551c-739.175,457.675 -1475.53,918.001 -1475.53,918.001c0,0 366.062,-86.231 739.175,-156.542c374.537,-74.289 754.724,-128.68 754.724,-128.68c0,0 -679.825,216.237 -1346.93,465.64c-667.101,242.764 -1317.23,513.382 -1317.23,513.382c0,-0 -415.534,65.007 -141.343,-273.269Z" style="fill:#cfc6b5;fill-rule:nonzero;"/><path d="M84521.2,12699c0,0 879.095,-297.154 1752.54,-638.088c877.694,-336.955 1722.89,-713.702 1722.89,-713.702c0,-0 -364.659,282.56 -754.745,549.199c-383.013,266.65 -774.501,510.74 -774.501,510.74c0,-0 1277.66,-145.926 2555.34,-269.296c1280.48,-124.702 2559.56,-228.175 2559.56,-228.175c0,0 -1255.03,250.724 -2514.34,501.454c-1260.71,233.477 -2520.01,468.286 -2520.01,468.286c-0,0 542.73,94.187 1086.86,213.58c549.803,115.411 1084.06,256.028 1084.06,256.028c0,-0 -1031.76,-76.941 -2076.22,-112.759c-1041.64,-37.144 -2076.2,-34.488 -2076.2,-34.488l-231.791,-126.027c-76.322,-83.575 -90.448,-202.968 186.567,-376.752Z" style="fill:#cfc6b5;fill-rule:nonzero;"/><path d="M84493,17095.3c0,0 709.5,-5.303 1414.75,-34.493c708.098,-29.184 1419.02,-80.917 1419.02,-80.917c-0,-0 -342.037,98.164 -684.074,193.681c-337.789,92.861 -684.052,172.453 -684.052,172.453c-0,0 945.518,197.665 1889.63,397.981c945.54,212.254 1888.23,424.508 1888.23,424.508c0,-0 -962.491,-116.742 -1926.38,-230.826c-959.666,-124.702 -1920.76,-249.399 -1920.76,-249.399c-0,0 363.236,195.008 729.297,390.016c361.813,201.642 712.326,412.57 712.326,412.57c-0,0 -725.05,-278.587 -1462.82,-533.289c-736.35,-258.685 -1479.77,-492.168 -1479.77,-492.168c0,0 -392.911,-256.027 104.595,-370.117Z" style="fill:#cfc6b5;fill-rule:nonzero;"/><path d="M83106.5,21233c-0,-0 896.068,267.97 1807.68,493.493c901.718,228.174 1827.46,420.53 1827.46,420.53c-0,0 -480.556,11.938 -951.191,3.978c-479.132,-9.286 -951.19,-38.47 -951.19,-38.47c-0,-0 1105.24,612.881 2200.6,1244.34c1096.76,631.454 2179.38,1281.49 2179.38,1281.49c0,-0 -1157.53,-518.695 -2315.07,-1036.07c-1153.29,-531.958 -2303.75,-1063.92 -2303.75,-1063.92c0,0 366.04,382.056 720.801,785.34c356.163,401.958 696.776,823.814 696.776,823.814c0,0 -778.748,-656.665 -1578.7,-1276.18c-801.372,-623.499 -1623.94,-1209.85 -1623.94,-1209.85l-100.347,-233.483c-12.724,-112.759 55.123,-214.905 391.488,-195.007Z" style="fill:#cfc6b5;fill-rule:nonzero;"/><path d="M80288.2,24707.3c0,-0 633.178,453.697 1294.63,884.834c658.625,433.799 1344.1,841.061 1344.1,841.061c0,0 -390.086,-126.027 -766.046,-263.993c-377.362,-136.639 -742,-286.542 -742,-286.542c-0,-0 699.601,794.625 1400.63,1589.26c685.475,806.563 1372.37,1610.48 1372.37,1610.48c0,-0 -778.77,-728.297 -1557.52,-1457.92c-764.623,-740.235 -1530.65,-1480.47 -1530.65,-1480.47c0,-0 186.546,407.266 354.739,827.792c173.844,420.53 320.838,839.73 320.838,839.73c-0,-0 -426.835,-726.971 -894.666,-1442c-463.561,-715.033 -953.994,-1407.51 -953.994,-1407.51l-15.549,-212.254c24.024,-92.861 115.896,-145.926 373.113,-42.453Z" style="fill:#cfc6b5;fill-rule:nonzero;"/><path d="M76596.6,26951.9c0,-0 467.832,762.789 986.516,1501.7c513.055,733.606 1078.39,1445.98 1078.39,1445.98c0,0 -371.711,-286.543 -717.975,-585.023c-351.914,-306.446 -678.402,-624.824 -678.402,-624.824c-0,-0 392.911,1150.15 756.147,2306.93c366.04,1156.79 702.427,2324.18 702.427,2324.18c-0,0 -504.559,-1109.03 -983.691,-2226.01c-481.957,-1114.34 -941.291,-2243.26 -941.291,-2243.26c-0,-0 -0,512.065 -29.675,1034.74c-28.273,521.347 -86.221,1053.31 -86.221,1053.31c0,0 -89.046,-981.678 -236.04,-1947.43c-139.92,-968.414 -334.963,-1915.6 -334.963,-1915.6l79.147,-233.483c65.022,-90.209 178.092,-120.719 405.635,108.782Z" style="fill:#cfc6b5;fill-rule:nonzero;"/><path d="M71866.1,28344.8c-0,-0 -98.924,862.285 -105.997,1744.47c-16.951,880.852 60.773,1777.63 60.773,1777.63c-0,0 -152.644,-440.428 -261.466,-872.896c-113.071,-431.143 -179.494,-855.651 -179.494,-855.651c-0,0 -361.813,1162.09 -766.047,2302.96c-398.561,1143.52 -835.273,2277.75 -835.273,2277.75c0,0 255.816,-1184.64 542.709,-2360c285.512,-1178.01 599.276,-2345.41 599.276,-2345.41c0,-0 -310.939,425.839 -657.224,839.735c-175.245,212.254 -353.337,408.587 -487.586,555.839c-138.518,147.251 -230.389,245.42 -230.389,245.42c-0,0 532.831,-833.1 1007.71,-1702.01c481.958,-871.571 893.243,-1763.04 893.243,-1763.04l193.641,-149.903c94.675,-41.122 204.92,17.246 226.12,305.115Z" style="fill:#cfc6b5;fill-rule:nonzero;"/><path d="M66738.5,26179.8c0,0 -344.862,504.105 -662.874,1033.41c-319.414,526.66 -610.555,1075.86 -610.555,1075.86c-0,0 79.147,-301.132 175.245,-589.005c91.871,-287.869 197.868,-567.777 197.868,-567.777c0,-0 -607.73,606.247 -1232.43,1197.91c-620.454,591.658 -1256.48,1174.03 -1256.48,1174.03c-0,0 558.279,-643.396 1116.56,-1285.46c566.755,-639.418 1149.06,-1266.89 1149.06,-1266.89c-0,-0 -312.362,183.07 -645.902,347.567c-329.313,167.15 -678.424,314.401 -678.424,314.401c0,0 595.028,-376.751 1156.13,-786.665c566.755,-405.941 1096.76,-845.038 1096.76,-845.038l149.819,-43.779c74.899,0 125.773,45.105 45.224,241.438Z" style="fill:#cfc6b5;fill-rule:nonzero;"/><path d="M65319.5,22725.4c0,-0 -856.494,334.304 -1694.61,738.909c-418.359,198.99 -832.469,412.57 -1143.41,577.068c-303.865,169.806 -507.383,279.913 -507.383,279.913c-0,0 84.797,-76.945 214.819,-196.339c131.444,-118.067 306.711,-269.296 486.205,-415.221c360.39,-293.177 726.451,-554.514 726.451,-554.514c0,0 -1257.88,236.135 -2521.41,439.103c-1266.36,204.294 -2539.79,375.421 -2539.79,375.421c0,-0 1233.86,-342.259 2473.36,-655.334c1239.51,-317.053 2486.09,-603.596 2486.09,-603.596c-0,0 -556.878,-54.39 -1096.76,-151.234c-545.555,-91.535 -1092.53,-217.557 -1092.53,-217.557c-0,-0 1045.89,46.43 2079.05,31.836c1033.16,-7.96 2069.13,-83.575 2069.13,-83.575l236.04,91.535c86.221,65.003 91.872,167.149 -175.245,343.585Z" style="fill:#cfc6b5;fill-rule:nonzero;"/><path d="M65292.6,18571.8c-0,-0 -709.5,7.96 -1420.4,39.801c-708.099,26.532 -1417.6,79.592 -1417.6,79.592c0,0 339.212,-103.473 681.227,-193.682c344.862,-86.226 692.55,-172.453 692.55,-172.453c-0,0 -946.942,-198.99 -1895.31,-397.98c-944.117,-210.923 -1889.64,-420.526 -1889.64,-420.526c0,0 962.491,114.085 1923.56,226.844c961.089,120.724 1922.16,244.095 1922.16,244.095c-0,-0 -364.638,-187.048 -723.626,-388.69c-357.586,-205.624 -716.574,-409.918 -716.574,-409.918c0,-0 732.123,275.93 1467.05,529.311c734.948,254.702 1472.72,489.511 1472.72,489.511c0,0 395.737,258.684 -96.119,374.095Z" style="fill:#cfc6b5;fill-rule:nonzero;"/><path d="M65655.8,13711.2c0,-0 -917.267,-212.254 -1833.11,-391.346c-920.092,-183.07 -1851.49,-338.277 -1851.49,-338.277c0,0 479.111,-27.858 954.016,-43.779c472.058,-18.572 949.767,-17.246 949.767,-17.246c-0,0 -1136.34,-563.799 -2272.67,-1124.95c-1127.86,-577.063 -2257.12,-1152.81 -2257.12,-1152.81c-0,-0 1188.63,452.371 2378.67,904.732c1184.38,465.635 2368.77,928.618 2368.77,928.618c0,0 -391.488,-366.14 -774.5,-744.222c-381.611,-379.399 -757.571,-773.392 -757.571,-773.392c0,0 828.221,596.961 1671.99,1166.07c845.194,571.759 1700.26,1115.66 1700.26,1115.66l114.494,236.129c16.951,118.067 -50.895,232.157 -391.509,234.809Z" style="fill:#cfc6b5;fill-rule:nonzero;"/><path d="M68465.6,9613.36c0,0 -702.448,-359.5 -1423.25,-700.438c-722.224,-340.929 -1451.52,-656.655 -1451.52,-656.655c-0,-0 397.159,71.637 794.319,160.52c394.313,92.861 784.399,184.396 784.399,184.396c-0,-0 -812.672,-692.484 -1625.34,-1387.62c-805.62,-704.416 -1611.22,-1408.83 -1611.22,-1408.83c-0,0 881.92,616.859 1763.86,1233.73c874.847,623.499 1746.89,1250.98 1746.89,1250.98c-0,-0 -244.516,-378.083 -477.709,-766.773c-233.193,-391.341 -453.684,-789.322 -453.684,-789.322c0,0 548.381,659.317 1119.36,1301.39c568.178,640.744 1158.96,1262.91 1158.96,1262.91c-0,-0 227.542,453.697 -325.065,315.726Z" style="fill:#cfc6b5;fill-rule:nonzero;"/><path d="M72114.9,7031.82c-0,-0 -585.129,-689.822 -1215.48,-1338.52c-626.126,-654.013 -1300.28,-1281.49 -1300.28,-1281.49c0,0 414.111,233.483 807.022,480.225c390.086,244.089 767.448,516.043 767.448,516.043c0,-0 -571.003,-1077.19 -1117.96,-2171.63c-548.381,-1089.13 -1068.51,-2194.18 -1068.51,-2194.18c0,-0 678.424,1026.78 1331.38,2060.19c657.224,1036.06 1290.4,2082.74 1290.4,2082.74c-0,-0 -81.972,-509.404 -137.095,-1029.43c-56.546,-517.368 -84.798,-1048.01 -84.798,-1048.01c0,0 248.743,953.82 546.957,1887.74c296.813,935.248 641.654,1843.96 641.654,1843.96l-39.574,246.741c-49.451,96.849 -158.294,140.623 -421.162,-54.39Z" style="fill:#cfc6b5;fill-rule:nonzero;"/><path d="M76465.1,5714.52c0,0 -189.371,-729.628 -423.987,-1453.94c-230.39,-729.628 -504.58,-1432.72 -504.58,-1432.72c-0,-0 221.892,309.097 426.834,643.396c204.942,331.647 387.261,661.969 387.261,661.969c-0,-0 -35.325,-1030.76 -48.049,-2062.85c-14.147,-1033.41 -2.825,-2066.82 -2.825,-2066.82c-0,0 122.948,1025.46 248.742,2050.9c104.595,1026.78 211.994,2053.57 211.994,2053.57c-0,0 118.721,-423.182 265.715,-847.69c144.168,-424.508 316.589,-846.364 316.589,-846.364c-0,-0 -159.697,822.478 -272.767,1651.6c-117.319,829.118 -187.969,1655.59 -187.969,1655.59l-118.721,169.801c-74.921,54.39 -172.442,61.03 -298.237,-176.431Z" style="fill:#cfc6b5;fill-rule:nonzero;"/><path d="M23432,22541l-279.841,-236.129c-3134.81,-2573.59 -8388.23,-4507.75 -11836.8,-1591.91c-2894.55,2448.88 -4740.38,6392.83 -5660.47,9880.43c-1246.56,4730.62 -739.175,9454.6 84.798,14207.8c1359.65,7829.52 4425.22,18082.7 13216.3,21287.8c1902.36,695.133 3913.56,810.546 5861.15,198.988c3567.3,-1126.28 5571.43,-2902.58 6566.44,-6333.14c1088.26,-3750.26 1151.86,-7554.92 1011.94,-11412.6c-199.27,-5580.96 -948.343,-11224.3 -2999.12,-16492.2c-1341.28,-3445.15 -3055.67,-6988.47 -5964.34,-9508.99Z" style="fill:#5f8237;fill-rule:nonzero;"/><path d="M14259.4,62351.9c-0,0 -513.034,685.847 -986.516,1402.21c-480.533,715.031 -914.42,1467.21 -914.42,1467.21c0,-0 81.972,-481.551 190.795,-945.857c107.42,-466.958 236.018,-921.979 236.018,-921.979c-0,0 -1004.89,598.292 -2025.33,1172.7c-1019.01,578.394 -2053.58,1135.56 -2053.58,1135.56c0,0 893.221,-738.909 1785.04,-1476.49c907.39,-721.663 1811.93,-1444.65 1811.93,-1444.65c0,0 -558.279,47.757 -1127.86,67.655c-565.353,23.88 -1140.58,22.552 -1140.58,22.552c0,-0 952.614,-256.03 1881.18,-549.207c934.217,-291.849 1844.41,-623.496 1844.41,-623.496c-0,-0 173.843,14.592 319.414,107.453c148.417,90.209 269.963,258.684 179.494,586.351Z" style="fill:#cfc6b5;fill-rule:nonzero;"/><path d="M10294.9,55652.6c-0,0 -480.534,367.466 -961.089,734.931c-474.884,378.078 -948.344,757.481 -948.344,757.481c-0,0 178.07,-285.216 354.739,-567.779c182.341,-278.585 363.236,-555.841 363.236,-555.841c0,-0 -792.895,195.007 -1585.77,386.037c-795.721,187.05 -1591.44,375.424 -1591.44,375.424l2984.99,-1261.58c-0,0 -378.764,-76.943 -760.375,-151.231c-380.187,-82.249 -760.396,-163.172 -760.396,-163.172c0,-0 677,-31.839 1354,-63.677c675.576,-42.45 1351.15,-84.901 1351.15,-84.901c0,0 452.283,176.436 199.292,594.312Z" style="fill:#cfc6b5;fill-rule:nonzero;"/><path d="M7479.53,47991.6c0,-0 -774.5,432.468 -1550.44,867.588c-771.675,445.732 -1543.37,891.469 -1543.37,891.469c-0,-0 322.239,-374.1 644.479,-748.195c327.911,-367.466 652.975,-736.257 652.975,-736.257c0,-0 -1184.38,106.124 -2370.19,210.928c-1185.81,99.49 -2370.19,197.659 -2370.19,197.659l4582.09,-1192.6c-0,0 -530.007,-193.682 -1060.01,-388.694c-528.583,-200.312 -1055.76,-401.954 -1055.76,-401.954c0,0 979.442,100.821 1958.88,200.317c980.865,88.878 1960.33,175.109 1960.33,175.109c-0,0 613.402,364.809 151.22,924.631Z" style="fill:#cfc6b5;fill-rule:nonzero;"/><path d="M6490.19,39741.5c-0,0 -623.279,258.685 -1246.58,517.374c-619.031,269.296 -1239.51,538.593 -1239.51,538.593c0,-0 277.016,-250.725 552.629,-502.78c278.418,-245.415 559.681,-492.162 559.681,-492.162c0,0 -898.892,-15.92 -1797.79,-31.836c-898.893,-23.88 -1797.79,-45.104 -1797.79,-45.104l3547.52,-510.74c0,0 -377.362,-187.047 -754.724,-371.443c-377.362,-193.682 -751.92,-384.712 -751.92,-384.712c-0,0 725.049,153.886 1448.7,309.098c727.874,144.594 1454.33,286.542 1454.33,286.542c-0,0 424.009,313.075 25.448,687.17Z" style="fill:#cfc6b5;fill-rule:nonzero;"/><path d="M6357.34,31849.6c0,0 -886.169,115.411 -1772.34,270.622c-887.592,151.234 -1772.36,340.934 -1772.36,340.934c0,-0 433.908,-258.685 876.292,-496.145c440.96,-240.113 886.169,-460.327 886.169,-460.327c-0,0 -1146.23,-305.115 -2289.64,-608.904c-1141.99,-325.012 -2282.55,-647.373 -2282.55,-647.373c-0,-0 1182.96,116.741 2365.94,233.477c1180.16,132.662 2358.89,263.993 2358.89,263.993c-0,0 -414.111,-354.202 -818.344,-730.948c-405.635,-372.774 -798.546,-765.447 -798.546,-765.447c-0,0 849.442,474.921 1715.81,914.024c863.568,444.406 1739.84,847.69 1739.84,847.69c-0,0 105.997,131.331 134.27,298.48c24.024,168.476 -22.623,372.775 -343.439,539.924Z" style="fill:#cfc6b5;fill-rule:nonzero;"/><path d="M9379.08,24209.8c-0,0 -749.074,-135.309 -1510.87,-236.13c-760.396,-107.455 -1532.07,-177.766 -1532.07,-177.766c-0,-0 425.411,-98.164 849.42,-175.11c425.411,-78.266 846.595,-140.617 846.595,-140.617c0,0 -845.193,-534.615 -1687.54,-1069.23c-833.871,-550.535 -1669.17,-1098.41 -1669.17,-1098.41c0,-0 927.145,395.324 1852.91,791.973c918.668,405.936 1837.34,814.524 1837.34,814.524c0,-0 -238.843,-386.038 -460.736,-790.648c-223.316,-401.953 -428.258,-815.849 -428.258,-815.849c0,-0 548.381,600.943 1126.44,1172.7c576.654,573.085 1175.91,1116.99 1175.91,1116.99c0,0 50.896,131.336 26.871,270.627c-25.447,137.966 -120.144,289.195 -426.834,336.951Z" style="fill:#cfc6b5;fill-rule:nonzero;"/><path d="M14315.9,20598.8c-0,0 -325.064,-756.155 -819.746,-1448.63c-479.132,-697.787 -1126.43,-1305.36 -1126.43,-1305.36c-0,-0 473.46,209.597 873.445,486.854c407.036,269.301 734.948,590.331 734.948,590.331c-0,0 -154.068,-1109.03 -212.016,-2226.01c-66.423,-1115.66 -43.8,-2240.61 -43.8,-2240.61c-0,0 306.69,1081.17 537.058,2179.58c238.865,1093.11 407.058,2195.51 407.058,2195.51c0,0 204.942,-472.269 498.908,-923.309c285.491,-453.692 651.553,-883.509 651.553,-883.509c-0,0 -375.939,864.937 -609.154,1756.4c-248.742,887.487 -337.788,1784.26 -337.788,1784.26l-155.47,195.008c-96.098,68.98 -210.592,75.614 -398.561,-160.521Z" style="fill:#cfc6b5;fill-rule:nonzero;"/><path d="M19880.3,20844.3c-0,0 254.414,-672.58 459.334,-1366.38c210.592,-689.826 375.96,-1403.53 375.96,-1403.53c0,0 52.298,407.267 77.724,810.546c29.697,401.958 31.098,797.282 31.098,797.282c0,0 665.7,-722.993 1352.58,-1428.74c682.651,-707.073 1389.33,-1398.23 1389.33,-1398.23c-0,-0 -534.255,811.871 -1088.29,1611.81c-551.205,802.586 -1120.79,1593.23 -1120.79,1593.23c-0,-0 436.733,-172.458 891.819,-319.71c453.706,-148.577 924.341,-273.274 924.341,-273.274c-0,0 -720.801,415.222 -1403.45,868.914c-688.3,448.389 -1339.85,935.243 -1339.85,935.243c0,-0 -139.92,31.841 -277.015,-3.978c-135.693,-38.47 -269.963,-140.617 -272.788,-423.182Z" style="fill:#cfc6b5;fill-rule:nonzero;"/><path d="M24205.1,24761.7c0,0 465.006,-712.376 876.292,-1460.57c418.337,-746.869 778.748,-1529.56 778.748,-1529.56c0,0 -35.325,482.877 -105.997,953.815c-65.021,473.595 -162.543,931.265 -162.543,931.265c0,-0 954.016,-665.946 1927.81,-1310.67c975.215,-646.048 1965.98,-1265.56 1965.98,-1265.56c0,-0 -826.819,806.563 -1669.17,1590.58c-840.945,786.671 -1701.69,1558.75 -1701.69,1558.75c-0,0 552.629,-84.906 1116.56,-139.296c565.332,-57.042 1139.16,-87.552 1139.16,-87.552c0,-0 -935.641,307.766 -1844.43,656.66c-910.193,346.241 -1792.11,740.239 -1792.11,740.239c0,0 -169.616,-2.656 -320.837,-80.923c-149.819,-78.271 -277.015,-228.174 -207.767,-557.17Z" style="fill:#cfc6b5;fill-rule:nonzero;"/><path d="M27732.8,29615.7c-0,0 462.159,-387.364 924.34,-776.053c455.086,-396.65 913.019,-793.3 913.019,-793.3c-0,0 -165.368,289.195 -327.89,579.72c-169.616,283.891 -337.81,570.434 -337.81,570.434l3137.64,-891.469l-2922.8,1386.28c-0,-0 384.435,59.699 768.871,120.724c384.414,63.671 768.85,130.005 768.85,130.005c-0,-0 -675.577,61.02 -1349.75,120.719c-674.153,68.98 -1345.5,137.965 -1345.5,137.965c-0,0 -463.583,-157.863 -228.966,-585.028Z" style="fill:#cfc6b5;fill-rule:nonzero;"/><path d="M30231.6,36926.5c-0,-0 767.448,-440.429 1527.82,-898.103c760.396,-457.67 1513.7,-932.591 1513.7,-932.591c-0,-0 -309.516,382.06 -619.053,764.115c-317.99,375.426 -634.579,750.852 -634.579,750.852c-0,-0 1182.96,-131.336 2365.94,-265.319c1182.98,-123.376 2364.54,-246.746 2364.54,-246.746c0,-0 -1136.34,326.338 -2274.09,651.356c-1139.16,317.053 -2278.32,634.105 -2278.32,634.105c0,0 532.832,183.07 1065.68,367.466c531.409,193.682 1064.24,387.364 1064.24,387.364c-0,-0 -983.69,-84.901 -1965.96,-169.801c-980.866,-67.655 -1963.15,-136.64 -1963.15,-136.64c-0,0 -614.804,-343.585 -166.77,-906.058Z" style="fill:#cfc6b5;fill-rule:nonzero;"/><path d="M31663.4,43925.6c0,0 621.877,-263.993 1245.16,-529.312c619.052,-270.622 1240.93,-541.249 1240.93,-541.249l-1112.31,1005.55l3596.97,57.047l-3543.27,539.918l1519.35,745.544c-0,-0 -729.277,-145.926 -1455.75,-293.177c-729.276,-137.966 -1458.57,-277.257 -1458.57,-277.257c-0,0 -426.834,-322.361 -32.5,-707.068Z" style="fill:#cfc6b5;fill-rule:nonzero;"/><path d="M31849.9,52675.8c-0,0 855.07,-270.622 1710.14,-542.575c852.245,-286.543 1707.34,-571.76 1707.34,-571.76c-0,0 -399.985,302.464 -798.547,606.253c-399.984,294.502 -801.371,591.657 -801.371,591.657c0,-0 1182.96,130.01 2364.54,260.015c1181.56,139.291 2363.12,279.909 2363.12,279.909c0,-0 -1185.81,66.328 -2373.01,132.656c-1187.21,59.7 -2374.44,119.394 -2374.44,119.394c-0,-0 472.058,294.502 944.116,590.331c467.832,305.117 935.642,611.561 935.642,611.561c-0,-0 -929.991,-311.749 -1865.61,-598.292c-932.816,-291.851 -1871.28,-562.473 -1871.28,-562.473c0,-0 -515.88,-466.961 59.372,-916.676Z" style="fill:#cfc6b5;fill-rule:nonzero;"/><path d="M30090.3,61392.8c0,0 187.97,-1.326 474.884,-22.552c289.739,-19.898 671.35,-49.082 1054.36,-76.94c767.448,-62.351 1536.32,-155.212 1536.32,-155.212c0,-0 -392.911,183.07 -785.822,351.545c-197.868,83.575 -392.911,164.498 -542.73,225.52c-145.571,55.717 -245.917,92.861 -245.917,92.861c-0,0 955.417,327.667 1903.78,680.541c949.767,348.893 1885.41,726.971 1885.41,726.971c0,-0 -1000.66,-181.744 -1992.83,-386.038c-992.166,-201.642 -1981.53,-425.834 -1981.53,-425.834c-0,0 326.488,321.033 630.374,667.275c306.691,346.239 592.181,719.01 592.181,719.01c-1.401,0 -661.451,-498.799 -1351.15,-937.899c-691.126,-447.06 -1407.7,-841.058 -1407.7,-841.058c1.402,-0 -79.147,-106.127 -93.294,-236.132c-14.126,-131.331 42.42,-279.911 323.662,-382.058Z" style="fill:#cfc6b5;fill-rule:nonzero;"/><path d="M26000.1,65664.4c0,0 566.755,636.762 1204.18,1227.09c628.929,598.292 1338.43,1132.91 1338.43,1132.91c0,-0 -490.432,-160.518 -945.518,-360.831c-457.933,-197.662 -888.994,-427.163 -888.994,-427.163c-0,0 394.313,1055.96 746.248,2122.54c357.565,1065.25 674.154,2147.75 674.154,2147.75c-0,0 -565.332,-985.655 -1099.59,-1981.92c-537.059,-994.941 -1044.46,-2003.15 -1044.46,-2003.15c0,0 -83.395,517.369 -209.168,1037.39c-111.669,520.023 -298.215,1037.39 -298.215,1037.39c-0,-0 36.748,-932.591 -52.298,-1845.28c-60.773,-921.981 -190.816,-1825.39 -190.816,-1825.39l169.617,-260.011c120.123,-106.127 301.04,-167.149 596.429,-1.326Z" style="fill:#cfc6b5;fill-rule:nonzero;"/><path d="M19668.3,65945.6c-0,0 -137.095,700.439 -220.491,1416.8c-87.623,716.36 -122.969,1442 -122.969,1442c-0,0 -122.948,-393.995 -219.068,-785.339c-97.521,-391.344 -168.172,-782.688 -168.172,-782.688c0,0 -530.006,815.852 -1085.46,1619.76c-552.629,803.914 -1127.86,1590.58 -1127.86,1590.58c-0,0 385.859,-883.508 792.896,-1756.4c405.635,-875.548 832.469,-1740.48 832.469,-1740.48c0,-0 -398.583,232.152 -823.994,447.06c-422.586,214.906 -864.969,409.916 -864.969,409.916c-0,-0 640.251,-520.023 1238.1,-1069.23c600.657,-546.556 1160.36,-1126.28 1160.36,-1126.28c0,-0 131.445,-50.411 269.942,-38.47c139.92,17.243 286.914,95.512 339.212,372.771Z" style="fill:#cfc6b5;fill-rule:nonzero;"/><path d="M21576.3,65314.2c-3782.12,-1051.99 -10994.4,-6146.09 -13375.9,-22054.5c-2380.09,-15908.5 5042.82,-21823.7 5042.82,-21823.7c-4061.96,5388.6 -3536.2,17155.4 -175.246,28001.6c2972.27,9588.58 8508.35,15876.6 8508.35,15876.6Z" style="fill:#7ea043;fill-rule:nonzero;"/><path d="M49662.4,60481.4c-1690.37,-720.336 -4770.06,-2943.7 -6699.29,-6928.77c5.65,-115.416 -43.822,-201.643 -107.42,-266.645l-25.427,-14.595c-1499.57,-3256.77 -2224.62,-7645.13 -872.043,-13300.4c3082.52,-12885.2 16529.1,-16827.8 16529.1,-16827.8c-9525.96,3942.62 -13996.4,16165.8 -13378.8,23633.2c619.03,7467.37 4553.81,13705 4553.81,13705Z" style="fill:#7ea043;fill-rule:nonzero;"/><path d="M42963.1,53552.6c-43.822,-92.866 -89.046,-187.053 -132.847,-281.24l25.427,14.595c63.598,65.002 113.07,151.229 107.42,266.645Z" style="fill:#d7d3ba;fill-rule:nonzero;"/><path d="M70253.5,24326.6c-0,-0 -7005.98,-1972.64 -3502.3,-9597.87c3500.88,-7625.23 9524.58,-8413.22 9524.58,-8413.22c-7984.02,4865.93 -7143.07,7756.56 -8545.12,10648.5c-2307.99,4769.09 2522.84,7362.57 2522.84,7362.57Z" style="fill:#82a93f;fill-rule:nonzero;"/></g></g></svg>