<?xml version="1.0" encoding="UTF-8" standalone="no"?><!DOCTYPE svg PUBLIC "-//W3C//DTD SVG 1.1//EN" "http://www.w3.org/Graphics/SVG/1.1/DTD/svg11.dtd"><svg width="100%" height="100%" viewBox="0 0 25814 19514" version="1.1" xmlns="http://www.w3.org/2000/svg" xmlns:xlink="http://www.w3.org/1999/xlink" xml:space="preserve" xmlns:serif="http://www.serif.com/" style="fill-rule:evenodd;clip-rule:evenodd;stroke-linecap:round;stroke-linejoin:round;stroke-miterlimit:1.5;"><rect id="Click-Me" serif:id="Click Me" x="0" y="0" width="25813.2" height="19513.5" style="fill:none;"/><g><g><path d="M4325.23,2711.17l751.989,-151.706c-0,-0 -62.14,-356.489 -143.853,-562.971c-31.089,-78.559 -144.768,-245.264 -244.379,-345.682c-122.722,-123.714 -219.762,-177.102 -358.832,-231.574c-122.096,-47.824 -203.212,-71.255 -477.568,-73.62c-199.348,-1.718 -435.149,35.588 -558.164,96.809c-151.977,75.634 -351.688,206.495 -486.944,410.146c-187.14,281.771 -234.193,417.455 -269.206,649.043c-39.455,260.965 -47.053,354.889 -48.61,722.124c-1.439,339.277 -7.53,501.147 53.695,741.163c62.283,244.164 100.102,417.829 320.005,723.82c229.586,319.466 486.912,343.759 739.558,396.119c252.646,52.359 534.676,14.575 776.316,-81.962c120.631,-48.193 335.416,-196.907 455.581,-372.375c55.478,-81.009 114.955,-174.105 153.557,-270.202c80.293,-199.88 110.735,-394.758 110.735,-394.758l-730.456,-161.45l-37.751,103.212c0,-0 -86.404,299.958 -243.298,437.608c-38.66,33.918 -104.618,52.503 -170.24,56.105c-31.158,1.71 -62.241,0.042 -90.29,-4.966c-89.363,-15.956 -214.4,-80.348 -275.648,-146.876c-77.872,-84.585 -179.418,-371.444 -179.418,-371.444c0,-0 -49.953,-438.672 -48.566,-644.533c1.332,-197.786 -27.895,-414.415 39.319,-604.152c67.214,-189.737 128.016,-431.693 250.437,-518.053c57.213,-40.361 206.573,-91.309 328.447,-68.794c93.334,17.243 175.519,114.047 220.515,164.645c105.382,118.5 163.069,504.324 163.069,504.324Z" style="fill:#2f1206;"/><path d="M5529.1,1427.43l738.62,-25.987l10.422,2961.72l1202.53,-12.789l4.615,679.494l-1959.23,-5.319l3.049,-3597.12Z" style="fill:#2f1206;"/><path d="M7910.26,1423.24l739.03,-0.41l7.509,3588.1l-749.178,-8.056l2.639,-3579.64Z" style="fill:#2f1206;"/><path d="M11751,2574.25c0,0 -74.816,-495.342 -179.668,-658.213c-115.465,-179.356 -277.904,-383.272 -491.079,-461.646c-106.194,-39.042 -337.191,-109.97 -517.417,-111.315c-215.562,-1.607 -305.292,-0.663 -480.014,43.514c-176.533,44.634 -388.735,163.033 -539.38,345.368c-244.216,295.589 -260.531,470.07 -322.357,724.473c-62.447,256.96 -53.046,574.697 -44.078,850.281c9.307,286.023 36.34,652.147 108.171,890.6c60.497,200.832 173.852,390.879 309.612,537.484c151.895,164.029 375.615,318.74 596.38,352.271c207.011,31.443 467.209,35.058 696.509,-16.411c161.1,-36.16 407.487,-127.016 532.038,-280.141c257.532,-316.617 354.861,-819.342 354.861,-819.342l-752.508,-185.087c-0,-0 -62.192,278.092 -121.039,397.038c-30.858,62.372 -87.299,118.095 -138.886,155.838c-66.858,48.915 -106.23,64.066 -220.244,63.299c-116.63,-0.785 -205.83,-43.262 -256.186,-65.397c-122.178,-53.704 -190.777,-219.262 -243.439,-343.447c-52.663,-124.184 -60.925,-218.626 -72.537,-401.658c-25.223,-397.583 4.956,-611.848 35.865,-845.233c25.346,-191.386 92.249,-447.363 189.843,-562.668c90.559,-106.994 199.415,-125.433 307.454,-122.895c104.173,2.447 270.993,71.753 336.655,183.491c114.509,194.865 154.756,442.986 154.756,442.986l756.688,-113.19Z" style="fill:#2f1206;"/><path d="M12177.1,1401.99l791.724,2.266c0,0 -23.669,1316.22 -29.04,1573.25c-0.357,17.09 29.058,17.256 34.829,6.922c148.122,-265.271 887.691,-1552.09 887.691,-1552.09l848.66,-0.392l-1000.62,1548.18l1025.73,2028.7l-789.221,8.993l-716.41,-1536.76l-265.446,353.357l-0,1184.03l-771.781,0.546l-16.111,-3617Z" style="fill:#2f1206;"/></g><g><path d="M16365.3,5023.45l32.996,-3581.18l1031.13,-32.223l580.396,2211.42l40.687,0.321l554.364,-2193.31l1001.73,-7.76l22.027,3598.28l-642.225,-1.843l-7.865,-2503.13l-2.42,-88.956l-82.33,-1.682l-592.118,2379.95l-602.037,2.23l-627.088,-2388.42l-69.387,-5.28l7.372,2599.07l-645.228,12.515Z" style="fill:#2f1206;"/><path d="M20240.5,5042.86l4.756,-3636.8l1997.13,7.669l10.968,599.034l-1275.41,9.512l-0.683,857.976l1001.52,-3.3l2.139,635.626l-1009.19,4.37l12.812,874.86l1318.61,-17.271l6.986,667.165l-2069.63,1.16Z" style="fill:#2f1206;"/></g></g><g><path d="M2351.68,10120l3432.82,-21.531c-74.58,120.677 -216.366,260.999 -318.862,417.429c-192.215,293.36 -371.223,653.937 -398.007,724.457c-185.996,489.703 -317.197,1010.86 -387.878,1595.83c-51.595,427.011 -60.513,905.847 -53.825,1282.03c6.048,340.216 -5.364,667.487 24.051,1036.77c50.534,634.421 278.299,1564.63 428.261,2034.41c79.722,249.741 198.984,521.795 338.687,789.074c136.081,260.349 244.296,407.074 352.615,435.905c88.077,23.444 222.551,38.258 238.561,-91.047c9.257,-74.769 -36.342,-208.691 -108.896,-296.571c-74.673,-90.447 -201.569,-152.727 -246.089,-212.145c-33.742,-45.034 1.785,-70.139 30.034,-73.501c141.744,-16.869 685.176,9.937 838.993,12.496c25.917,0.432 115.31,21.085 135.611,61.179c18.367,36.274 -31.047,92.39 -31.047,92.39l-418.133,709.683c-53.705,75.404 -146.674,89.106 -258.134,73.752l-3632.3,18.438c-336.544,-17.086 -383.045,-270.215 -466.891,-475.43c-147.899,-361.986 -329.098,-1093.28 -420.5,-1696.49c0,-0 -95.848,-843.19 -108.854,-1313.62c-15.086,-545.693 -47.101,-1357.39 8.437,-1980.33c34.31,-384.823 97.958,-828.361 178.579,-1204.62c44.914,-209.619 104.517,-437.271 150.176,-612.048c49.565,-189.732 137.495,-460.896 225.115,-663.46c112.391,-259.833 221.717,-431.069 221.717,-431.069c-0,-0 67.936,-100.655 110.958,-137.531c39.778,-34.096 134.801,-74.446 134.801,-74.446Zm591.212,6985.04c-36.714,148.15 111.614,323.157 225.649,413.17c76.267,60.202 195.765,105.107 319.912,125.693c44.745,7.42 113.522,8.924 148.152,10.722c109.978,5.712 242.853,-13.554 316.219,-95.684c77.343,-86.582 141.211,-351.66 132.001,-499.831c-9.209,-148.171 -90.908,-302.612 -203.095,-412.951c-112.187,-110.339 -319.742,-203.885 -460.524,-193.652c-140.783,10.234 -288.563,149.867 -368.331,278.809c-74.89,121.056 -89.08,289.379 -109.983,373.724Z" style="fill:#b54717;"/><path d="M9601.18,8694.22c72.862,-48.742 194.863,-121.753 301.94,-168.096c180.53,-78.132 237.417,-62.556 361.831,-68.628c302.945,-14.785 1455.84,4.667 1455.84,4.667c0,-0 94.246,-2.253 121.207,16.458c26.961,18.711 32.516,123.65 32.516,123.65c0,-0 72.496,610.32 88.814,756.812c4.52,40.576 5.654,35.401 20.971,106.303c4.153,19.221 28.52,62.583 54.787,77.732c369.589,213.153 1766.62,968.351 2150.87,1217.02c86.71,56.114 159.313,165.358 154.645,274.996c-3.942,92.602 -102.965,203.539 -102.965,203.539c0,0 -1019.16,981.82 -1242.95,1195.48c-31.843,30.401 -73.468,81.342 -99.815,86.492c-28.008,5.474 -111.452,-40.732 -152.178,-56.813c-223.568,-88.276 -991.811,-424.916 -1211.4,-510.859c-17.324,-6.78 -55.834,-17.207 -72.876,-11.132c-17.041,6.074 -27.738,43.007 -37.293,66.582c-40.731,100.492 -115.038,312.672 -207.088,536.369c-131.301,319.086 -317.485,665.076 -771.116,1256.85c-196.04,255.742 -405.618,511.682 -638.721,702.78c-197.526,161.931 -422.164,272.192 -563.376,349.515c-396.969,217.367 -958.87,287.158 -1404.26,225.795c-443.006,-61.034 -770.094,-252.018 -944.048,-484.866c-201.886,-270.238 -378.202,-891.197 -396.494,-1422.77c-10.753,-312.489 -14.762,-739.263 16.785,-1143.19c23.419,-299.86 77.542,-541.319 104.412,-712.366c5.563,-35.411 21.17,-192.748 67.298,-293.471c53.386,-116.569 120.468,-176.19 202.27,-242.389c231.088,-187.006 827.171,-604.767 1184.25,-879.651c451.733,-347.745 1160.33,-962.107 1526.14,-1206.82Zm1935.42,1782.14c102.511,-147.189 190.956,-312.973 206.19,-534.485c13.09,-190.345 -103.973,-441.531 -196.644,-592.324c-70.608,-114.893 -232.134,-248.446 -354.123,-320.782c-118.836,-70.466 -300.627,-87.027 -443.524,-88.426c-138.574,-1.357 -298.776,15.728 -411.381,65.183c-109.531,48.105 -206.338,113.945 -286.522,229.073c-107.477,154.317 -290.814,472.672 -230.421,773.882c19.788,98.694 64.301,309.908 151.122,449.35c89.009,142.959 208.061,214.615 208.061,214.615c202.913,163.185 251.281,178.154 689.277,170.424c239.642,-4.229 536.451,-177.677 667.965,-366.51Zm-1019.1,-141.604c-77.901,-48.004 -251.179,-204.434 -286.665,-325.349c-59.341,-202.188 36.011,-398.57 108.943,-475.864c136.67,-144.841 271.26,-217.511 456.85,-201.233c153.981,13.507 314.073,92.245 373.025,150.073c112.496,110.349 164.409,313.584 144.456,487.316c-14.303,124.545 -97.569,203.187 -143.975,261.213c-53.051,66.333 -182.864,143.031 -291.636,160.338c-108.772,17.308 -318.705,-11.851 -360.998,-56.494Z" style="fill:#b34617;stroke:#000;stroke-width:5.45px;"/><path d="M6183.11,10972c-90.462,-43.863 -401.69,-51.768 -498.859,-48.824c-34.664,1.05 -68.506,14.269 -95.558,41.149c-34.859,34.638 -57.321,103.221 -75.995,153.935c-95.001,258.005 -249.481,638.564 -364.246,1346.61c-81.673,503.89 -74.58,869.296 -82.623,1305.14c-8.113,439.641 -2.281,1004.03 24.047,1370.32c20.03,278.683 81.868,540.827 133.918,827.439c56.412,310.634 156.93,777.376 214.454,998.75c31.601,121.612 62.8,285.547 124.355,354.832c57.086,64.254 251.309,57.708 251.309,57.708l1463.92,-20.603c-0,0 90.941,-4.095 108.183,-25.921c20.531,-25.991 25.978,-111.554 39.752,-167.141c62.951,-254.056 277.719,-1137.93 337.958,-1357.2c14.343,-52.207 17.612,-127.494 2.814,-162.807c-13.7,-32.691 -28.771,-26.64 -91.604,-49.074c-177.44,-63.354 -552.521,-216.52 -826.461,-461.518c-313.433,-280.321 -443.14,-710.947 -516.889,-957.656c-124.861,-417.686 -193.366,-844.489 -213.483,-1485.26c-7.389,-235.341 -16.439,-448.176 -3.465,-653.094c24.329,-384.262 87.185,-709.546 109.849,-884.117c9.391,-72.328 32.406,-146.902 -41.376,-182.678Z" style="fill:#b34617;stroke:#000;stroke-width:5.45px;"/><path d="M12422.2,8491.52c5.609,-4.913 39.119,-0.053 39.119,-0.053l3145.34,-4.277c44.545,29.696 50.734,124.677 109.121,372.396c41.452,175.869 52.036,450.497 51.661,587.717c-0.478,174.68 -43.435,541.127 -78.15,714.83c-17.539,87.761 -76.846,218.006 -108.998,284.675c-12.684,26.301 -6.71,36.072 -21.142,42.708c-16.84,7.742 -29.87,1.523 -79.897,3.748c-208.521,9.276 -767.256,30.751 -973.061,4.969c-183.821,-23.028 -332.758,-106.362 -495.875,-194.187c-286.905,-154.476 -925.665,-551.502 -1160.2,-695.724c-82.064,-50.463 -192.25,-116.676 -229.291,-175.942c-46.095,-73.752 -63.41,-239.362 -88.112,-360.611c-27.798,-136.437 -86.831,-452.882 -105.042,-550.821c-3.476,-18.694 -11.074,-24.514 -5.465,-29.428Z" style="fill:#b34617;stroke:#000;stroke-width:5.45px;"/><path d="M16006,8472.11l1503.69,6.407l1033.92,-2.58c-0,0 135.127,-5.59 174.231,27.498c39.949,33.803 47.759,109.513 50.616,167.897c13.344,272.771 28.165,1187.64 29.452,1468.73c0.32,70.074 15.93,173.818 -21.731,217.81c-35.906,41.943 -216.605,29.315 -216.605,29.315l-2515,102.089l-164.687,0.892c0,-0 69.837,-210.092 85.985,-319.044c24.843,-167.62 67.126,-415.986 70.498,-639.657c4.351,-288.591 -43.652,-643.756 -101.963,-806.267c-28.471,-79.351 -67.236,-174.445 -52.36,-218.105c12.712,-37.311 123.961,-34.986 123.961,-34.986Z" style="fill:#b34617;stroke:#000;stroke-width:5.45px;"/><path d="M19043.2,8491.03l3584.66,15.474c-0,0 316.8,81.218 407.146,213.391c44.289,64.794 139.953,141.492 184.029,277.911c51.232,158.566 59.548,244.772 55.201,359.236c-4.454,117.283 -15.048,193.954 -85.093,365.049c-46.866,114.475 -137.487,207.782 -193.785,266.438c-133.477,139.068 -352.553,220.858 -556.339,243.975c-622.106,70.567 -3176.3,179.431 -3176.3,179.431l-205.197,2.264l4.853,-289.605c-0,0 4.454,-995.029 -16.208,-1238.31c-7.146,-84.137 -23.513,-189.576 -33.524,-251.092c-8.085,-49.686 -39.141,-111.664 -33.965,-130.375c5.506,-19.902 64.525,-13.783 64.525,-13.783Z" style="fill:#b34617;stroke:#000;stroke-width:5.45px;"/><path d="M15467.9,11572.6l1999.02,6.355c-0,-0 207.404,31.814 349.696,95.627c169.299,75.925 284.091,192.125 371.909,284.039c146.74,153.584 181.695,593.028 181.695,593.028c0,0 -11.26,156.507 -64.399,303.093c-54.268,149.7 -151.177,290.352 -223.524,369.462c-141.829,155.088 -299.945,245.336 -482.366,286.568c-226.238,51.135 -698.142,27.298 -886.146,32.914c-84.403,2.521 -241.879,0.781 -241.879,0.781c-0,0 -72.194,-275.301 -101.771,-337.136c-75.468,-157.776 -310.032,-516.786 -500.944,-824.658c-181.041,-291.955 -301.828,-518.32 -382.319,-650.021c-37.052,-60.625 -18.969,-160.052 -18.969,-160.052Z" style="fill:#b34617;stroke:#000;stroke-width:5.45px;"/><path d="M16301.6,13930.5c44.523,-39.036 120.197,-83.638 178.89,-91.47c82.099,-10.954 195.55,-14.515 278.541,-4.052c82.676,10.424 179.997,23.551 215.324,36.688c74.954,27.874 164.644,62.311 248.455,121.961c99.152,70.569 199.088,174.779 251.296,254.326c93.488,142.446 120.645,300.321 113.916,481.438c-6.858,184.584 -82.227,456.106 -189.089,604.416c-48.882,67.841 -104.811,129.213 -175.678,185.506c-74.435,59.126 -224.338,120.53 -352.022,127.894c-400.953,23.124 -2050.46,-6.18 -2050.46,-6.18l-1687.62,43.1c-237.966,11.728 -457.187,-103.125 -627.711,-288.789c-188.266,-204.98 -260.039,-509.888 -256.791,-656.463c6.661,-300.594 165.78,-487.504 338.749,-639.827c172.97,-152.322 451.913,-196.576 653.913,-219.034c173.596,-19.299 395.876,-1.694 554.282,57.683c158.405,59.378 264.299,137.556 420.347,254.422c203.65,152.516 587.47,390.309 953.024,381.666c403.822,-9.548 608.928,-125.272 785.462,-273.529c166.93,-140.191 259.492,-292.885 347.168,-369.756Z" style="fill:#b34617;stroke:#000;stroke-width:5.45px;"/><path d="M12751.4,16068.3c0,0 799.934,10.425 1593.68,2.092c602.346,-6.324 1197.85,-36.57 1456.46,-14.587c224.636,19.094 417.056,164.584 546.223,318.199c129.167,153.614 194.678,394.751 182.378,595.754c-12.299,201.003 -123.986,457.569 -256.178,610.265c-132.051,152.532 -331.882,286.624 -536.978,305.913c-204.707,19.253 -805.215,5.655 -1271.88,9.966c-891.702,8.239 -1766.29,20.357 -1766.29,20.357c-0,-0 -395.259,-107.521 -517.599,-256.151c-122.963,-149.389 -221.613,-414.523 -220.183,-640.182c1.435,-226.325 97.065,-559.167 228.793,-717.771c131.727,-158.604 561.573,-233.855 561.573,-233.855Z" style="fill:#b34617;stroke:#000;stroke-width:5.45px;"/><path d="M11629.4,18174.4c347.889,-23.666 504.015,-79.572 504.015,-79.572c-424.659,-344.87 -564.496,-854.474 -565.638,-1248.21c-1.255,-432.589 222.451,-886.065 779.484,-1091.39c-389.595,-150.339 -444.162,-795.447 -413.677,-1150.45c29.028,-338.033 149.326,-557.747 386.852,-782.962c91.635,-86.885 211.217,-152.892 399.349,-214.387c125.471,-41.013 278.184,-73.398 399.633,-78.675c175.906,-7.644 394.762,17.833 391.102,1.364c-0,-0 -323.789,-369.016 -453.376,-496.054c-99.837,-97.873 -171.302,-194.136 -324.144,-266.175c-183.643,-86.556 -631.08,-233.154 -841.849,-309.791c-42.297,-15.379 -127.138,-50.536 -151.367,-39.341c-31.406,14.511 -86.676,142.545 -102.903,172.181c-69.626,127.156 -144.18,243.786 -297.719,538.667c-138.331,265.674 -333.899,580.392 -533.411,835.468c-140.862,180.094 -379.545,479.872 -609.276,681.776c-286.195,251.529 -379.22,298.774 -561.847,402.855c-207.865,118.464 -489.701,246.015 -685.343,307.93c-68.98,21.83 -185.379,57.818 -316.698,90.085c-151.192,37.15 -187.743,36.254 -292.451,66.274c-61.61,17.664 -172.307,25.374 -205.874,58.168c-41.271,40.322 -78.877,217.792 -78.877,217.792c0,0 -304.386,1079.11 -377.797,1345.86c-21.869,79.464 -50.151,184.402 -31.733,248.46c17.212,59.866 91.872,99.241 142.239,135.891c118.99,86.585 414.621,333.997 553.142,433.111c87.163,62.366 129.397,98.646 277.986,161.573c110.169,46.656 230.889,62.533 317.241,62.533c202.819,0 2692.94,-2.971 2692.94,-2.971Z" style="fill:#b34617;stroke:#000;stroke-width:5.45px;"/><path d="M14718.1,11255.7c29.601,20.613 76.28,70.385 105.408,112.814c117.041,170.491 393.434,585.89 596.84,910.132c189.115,301.46 535.454,811.488 615.678,1037.3c32.236,90.734 43.141,176.822 41.127,251.338c-1.836,67.937 -24.23,134.279 -53.21,195.753c-27.406,58.135 -76.815,151.459 -129.046,212.138c-48.025,55.791 -134.124,113.766 -184.345,151.936c-106.254,80.756 -237.012,136.809 -369.259,154.764c-161.244,21.892 -347.834,25.758 -513.621,-17.371c-226.448,-58.909 -499.744,-365.962 -707.412,-545.116c-508.942,-439.059 -725.026,-731.964 -885.123,-899.072c-30.583,-31.921 -58.017,-84.662 -58.99,-118.78c-0.96,-33.664 29.059,-62.392 53.153,-85.923c133.196,-130.085 523.935,-483.038 746.024,-694.585c187.428,-178.532 497.685,-455.589 586.51,-574.699c13.191,-17.688 53.663,-82.205 76.154,-99.512c25.607,-19.704 58.064,-6.469 80.112,8.885Z" style="fill:#b34617;stroke:#000;stroke-width:5.45px;"/></g></svg>