<?xml version="1.0" encoding="UTF-8" standalone="no"?><!DOCTYPE svg PUBLIC "-//W3C//DTD SVG 1.1//EN" "http://www.w3.org/Graphics/SVG/1.1/DTD/svg11.dtd"><svg width="100%" height="100%" viewBox="0 0 77838 78813" version="1.1" xmlns="http://www.w3.org/2000/svg" xmlns:xlink="http://www.w3.org/1999/xlink" xml:space="preserve" xmlns:serif="http://www.serif.com/" style="fill-rule:evenodd;clip-rule:evenodd;stroke-linecap:round;stroke-linejoin:round;stroke-miterlimit:1.5;"><rect id="Moons" x="-245192" y="-274050" width="461685" height="384497" style="fill:none;"/><rect id="Moon---Stylized---Yellow" serif:id="Moon - Stylized - Yellow" x="-0" y="-0" width="77837.3" height="78812.9" style="fill:none;"/><clipPath id="_clip1"><rect x="-0" y="-0" width="77837.3" height="78812.9"/></clipPath><g clip-path="url(#_clip1)"><g><g><ellipse cx="38347.2" cy="61728.7" rx="946.295" ry="882.499" style="fill:#ffcb55;"/><ellipse cx="41016" cy="62132.7" rx="574.156" ry="457.199" style="fill:#ffcb55;"/><ellipse cx="38070.8" cy="59400.2" rx="606.054" ry="531.626" style="fill:#ffcb55;"/><path d="M46890.5,76178.7c447.711,-51.659 795.468,-229.907 776.095,-397.798c-19.372,-167.892 -398.584,-262.258 -846.295,-210.599c-447.711,51.659 -795.468,229.906 -776.096,397.798c19.372,167.891 398.585,262.258 846.296,210.599Z" style="fill:#ffcb55;"/><ellipse cx="47174.2" cy="61119.9" rx="775.288" ry="636.844" style="fill:#ffcb55;"/><path d="M56173.1,73036.6c690.693,-371.487 1182.04,-802.141 1096.54,-961.1c-85.495,-158.958 -715.661,13.589 -1406.35,385.076c-690.693,371.487 -1182.04,802.141 -1096.54,961.1c85.495,158.958 715.661,-13.589 1406.35,-385.076Z" style="fill:#ffcb55;"/><path d="M54880.2,75216.3l8067.76,-10978.8c358.624,134.401 709.444,143.92 1051.23,8.969l730.955,4620.76l-388.328,-4810.56c412.641,-356.503 585.165,-794.475 526.44,-1310.91c0,0 6362.13,-1376.8 6362.13,-1376.8c8.675,-121.458 -6398.57,1190.42 -6398.57,1190.42c-61.289,-158.015 -139.467,-312.653 -242.843,-462.25l10936.3,-11345.7l-11067.8,11220.9c-22.072,-22.602 -88.454,-81.495 -88.454,-81.495l7357.67,-9474.19l-7440.08,9418.83l-82.179,-59.5l4940.36,-8164.88c-0,-0 -5014.25,8111.24 -5038.6,8098.78c-48.631,-24.876 5774.37,-12374.4 5774.37,-12374.4l-6010.01,12275.9c-205.788,-59.509 -396.745,-67.108 -580.085,-48.046l-10692.4,-31522.3l10597.1,31554.6c-172.86,28.48 -293.715,74.341 -432.906,158.935l-22147.4,-25050.1l21978.2,25171.8c-160.616,91.219 -291.7,310.813 -262.255,320.628l-11034.4,-6620.83l10941.4,6749.73c0,-0 -99.479,269.208 -146.305,489.144l-29081.8,-1478.66l29086.6,1624.69c-0,0 0.272,173.499 15.584,247.834c14.266,69.257 54.192,204.487 54.192,204.487l-6678,4012.64l6849.39,-3689.9c54.35,88.316 112.655,157.654 175.422,212.3l-7632.75,11268.1Z" style="fill:#ffcb55;"/><path d="M43324.2,67685c88.365,87.738 199.016,253.638 356.815,245.266c157.799,-8.372 475.584,-176.866 589.981,-295.499c65.762,-68.198 114.396,-258.451 50.843,-279.636c-63.554,-21.184 -324.124,131.344 -432.165,152.529c-71.169,13.954 -183.1,39.169 -216.082,-25.422c-50.843,-99.567 46.606,-478.77 -88.975,-571.982c-135.581,-93.212 -525.376,-10.592 -724.511,12.711c-161.29,18.874 -366.492,137.699 -470.297,127.107c-80.967,-8.262 -161.002,-237.267 -152.528,-190.661c4.135,22.741 0.591,128.753 49.197,238.023c51.008,114.672 145.579,53.422 160.682,128.148c14.874,73.59 -78.501,282.432 -24.506,352.747c53.995,70.316 169.629,-21.082 257.367,-34.979c77.162,-12.223 337.119,-26.022 425.249,-2.848c106.279,27.947 154.496,80.519 218.93,144.496Z" style="fill:#ffcb55;"/><path d="M46125.7,73282.9c124.989,-156.765 687.457,-322.364 738.3,-474.892c50.842,-152.529 88.975,-228.793 216.082,-279.636c127.107,-50.843 547.944,74.607 741.208,85.456c125.355,7.038 297.598,-1.217 418.375,-20.357c142.703,-22.615 286.429,-89.989 484.696,-73.682c198.267,16.307 504.903,221.103 689.287,322.507c168.113,92.456 287.428,165.277 437.838,218.238c120.158,42.309 266.15,-72.197 402.147,-93.103c160.541,-24.68 279.242,-139.78 561.102,-54.972c-0,0 -463.706,388.033 -658.802,450.834c-274.656,88.412 -772.876,83.23 -999.55,178.56c-174.182,73.254 -116.732,234.288 -245.958,346.566c-117.991,102.517 -246.563,202.399 -394.032,254.214c-196.43,69.018 -644.728,147.18 -784.546,159.891c-139.818,12.71 -263.549,121.148 -530.475,32.173c-266.925,-88.975 -503.683,-88.402 -680.562,-230.338c-152.329,-122.236 -283.622,-199.759 -349.474,-355.758c-60.388,-143.058 -138.684,-348.997 -45.636,-465.701Z" style="fill:#ffcb55;"/><path d="M39334.3,71953.9c94.568,92.382 245.978,240.877 245.978,454.841c0,213.963 -142.539,420.553 -324.072,503.547c-275.315,125.87 -938.085,192 -1282.26,128.023c-306.512,-56.977 -690.124,-624.554 -678.65,-824.265c11.473,-199.711 406.353,-410.488 636.857,-432.571c225.593,-21.612 530.258,51.792 726.647,65.791c160.65,11.451 251.902,-9.905 354.07,5.186c70.011,10.34 243.233,23.061 321.428,99.448Z" style="fill:#ffcb55;"/><path d="M63067.3,54886.1c99.337,243.656 265.398,771.828 62.976,1077.34c-202.422,305.508 -1016.98,785.698 -1277.51,755.709c-260.525,-29.988 -314.879,-449.827 -348.616,-854.671c-33.737,-404.845 -54.354,-440.456 22.491,-618.513c76.846,-178.056 236.159,-438.206 393.599,-548.788c149.837,-105.243 368.54,-129.604 551.038,-114.707c183.68,14.995 511.845,97.165 596.021,303.634Z" style="fill:#ffcb55;stroke:#000;stroke-width:6.05px;"/><path d="M59932,52639.2c128.576,197.549 165.686,825.058 26.989,1014.36c-119.717,163.398 -566.032,86.217 -715.225,-49.481c-149.192,-135.698 -199.048,-561.909 -179.931,-764.706c16.882,-179.077 170.934,-407.093 294.637,-452.076c123.702,-44.983 444.955,54.354 573.53,251.903Z" style="fill:#ffcb55;stroke:#000;stroke-width:6.05px;"/><path d="M64956.5,56143.4c125.502,16.489 79.342,189.207 137.324,389.093c60.647,209.076 157.591,224.773 105.582,382.36c-27.212,82.453 -151.923,73.943 -251.065,217.613c-120.818,175.082 -94.413,407.18 -216.755,497.613c-122.343,90.432 -316.3,97.374 -445.329,-17.993c-159.314,-142.446 -320.995,-459.274 -222.665,-674.742c111.707,-244.781 636.131,-827.681 892.908,-793.944Z" style="fill:#ffcb55;stroke:#000;stroke-width:6.05px;"/></g><g><ellipse cx="29213.9" cy="58464.5" rx="510.361" ry="574.156" style="fill:#b35204;"/><ellipse cx="23685" cy="55423.6" rx="616.686" ry="467.831" style="fill:#b35204;"/><path d="M29569,69474.4c188.042,-121.271 201.272,-435.936 29.526,-702.243c-171.746,-266.308 -463.848,-384.059 -651.889,-262.788c-188.042,121.271 -201.272,435.935 -29.526,702.243c171.746,266.307 463.848,384.059 651.889,262.788Z" style="fill:#b35204;"/><path d="M18894.8,67814.4c162.296,-193.186 46.005,-558.419 -259.527,-815.097c-305.533,-256.677 -685.35,-308.224 -847.646,-115.038c-162.296,193.186 -46.005,558.419 259.527,815.097c305.533,256.677 685.35,308.224 847.646,115.038Z" style="fill:#b35204;"/><path d="M31219.8,75535c257.085,60.342 486.49,21.205 511.967,-87.342c25.478,-108.547 -162.558,-245.663 -419.643,-306.004c-257.084,-60.342 -486.489,-21.205 -511.966,87.342c-25.478,108.547 162.558,245.663 419.642,306.004Z" style="fill:#b35204;"/><path d="M28680.3,75735.8c270.384,97.848 533.675,56.33 587.591,-92.657c53.916,-148.987 -121.828,-349.386 -392.212,-447.234c-270.384,-97.849 -533.674,-56.33 -587.591,92.657c-53.916,148.987 121.828,349.386 392.212,447.234Z" style="fill:#b35204;"/><ellipse cx="31848.4" cy="65605.5" rx="346.111" ry="387.644" style="fill:#b35204;"/><ellipse cx="24649.3" cy="65453.2" rx="373.8" ry="290.733" style="fill:#b35204;"/><path d="M1397.33,48592.5c-231.952,-112.352 -150.562,70.058 -176.162,362.851c-60.47,691.598 652.151,2676.7 1079.8,3907.82c805.057,2317.6 1745.74,4247.3 3080.61,6568.99c1890.36,3287.84 4255.46,6118.36 6146.7,7997.12c842.046,836.489 1616.68,1587.62 2229.83,1932.73c588.147,331.035 862.938,-546.163 813.286,-893.721c-49.651,-347.559 -1119.5,-1594.77 -1548.92,-2502.62c-411.797,-870.605 -368.333,-2011.35 -773.367,-2944.51c-422.036,-972.337 -990.403,-2186.13 -1619.03,-3092.87c-682.704,-984.749 -2155.69,-2825.98 -2705.99,-2904.6c-550.301,-78.615 -264.806,2279.82 -595.814,2432.91c-331.008,153.092 -1038.54,-1158.53 -1390.23,-1514.36c-222.729,-225.349 -572.224,-340.338 -719.943,-620.64c-240.974,-457.255 -597.635,-1556.04 -725.901,-2122.89c-97.464,-430.731 -6.488,-861.648 -43.693,-1278.22c-35.904,-402.006 167.299,-826.44 74.676,-1208.51c-99.303,-409.623 -670.491,-1249.23 -670.491,-1249.23c0,0 -391.946,-789.123 -801.172,-1267.5c-183.112,-214.053 -612.365,-396.979 -923.018,-706.917c-354.918,-354.102 -589.953,-827.426 -731.162,-895.824Zm6944.99,11041.2c-187.784,0 -340.241,-247.742 -340.241,-552.892c0,-305.149 152.457,-552.891 340.241,-552.891c187.784,-0 340.241,247.742 340.241,552.891c0,305.15 -152.457,552.892 -340.241,552.892Zm1471.87,2247.58c-218.568,85.593 -512.414,-142.146 -655.782,-508.248c-143.367,-366.102 -82.313,-732.821 136.256,-818.413c218.568,-85.593 512.414,142.146 655.781,508.248c143.368,366.102 82.314,732.821 -136.255,818.413Z" style="fill:#b35204;"/><path d="M20308.3,61158.8c-144.325,-586.918 -421.585,-1302.08 -467.186,-1580.16c-120.615,-735.528 37.998,-1449.37 -30.64,-1861.19c-22.284,-133.702 141.866,-555.438 439.463,-791.3c141.804,-112.387 305.719,-37.185 448.336,-110.419c152.548,-78.333 279.433,-305.75 287.52,-453.27c7.47,-136.245 -135.551,-436.92 -372.703,-602.039c-314.023,-218.64 -781.538,194.901 -988.554,90.144c-207.016,-104.758 -156.751,-255.325 -253.543,-718.69c-75.57,-361.773 120.093,-333.517 -164.466,-1225.95c-58.43,-183.249 382.34,-930.772 288.797,-1193.86c-309.504,-870.478 -1091.76,-959.935 -1444.93,-1163.27c-273.405,-157.407 -179.642,-460.068 -104.16,-760.467c172.985,-688.437 1140.89,-646.348 1838.49,-335.7c743.276,330.989 1200.23,1263.92 2621.17,2321.63c1219.54,907.803 1960.21,465.778 2337.69,159.633c377.48,-306.144 145.722,-1497.58 423.699,-1996.5c165.38,-296.829 642.159,-166.539 1019.89,-326.324c257.173,-108.788 485.079,-501.865 472.53,-670.714c-30.978,-416.851 -1192.95,-593.259 -1523.13,-1348.91c-316.372,-724.06 -102.919,-1285.27 -8.733,-1888.67c70.079,-448.949 -490.038,-1251.24 573.854,-1731.71c1063.89,-480.467 1010.79,-61.228 1601.69,-279.678c228.769,-84.574 792.976,-560.879 1130.81,-685.396c515.335,-189.937 792.165,-55.412 812.894,-345.625c11.008,-154.106 -243.472,-566.831 -732.474,-651.074c-391.517,-67.448 -955.649,198.207 -1488.67,65.196c-876.869,-218.819 -482.441,-1033.1 -800.388,-1431.98c-317.946,-398.885 -1107.29,-274.944 -1107.29,-961.326c0,-686.382 -480.467,-1201.17 68.638,-2333.7c549.106,-1132.53 -42.665,-839.63 -199.051,-2498.43c-62.327,-661.118 356.096,-1090.72 207.38,-1325.24c-148.717,-234.514 -218.729,-729.215 -1346.77,-328.941c-2127.78,755.02 -2774.13,1721.67 -3466.23,2127.78c-216.39,126.973 -396.711,491.358 -741.293,391.238c-299.135,-86.916 -212.475,-677.393 -531.318,-1355.73c-273.277,-581.392 -961.024,-1241.9 -1129.73,-1540.81c-192.222,-340.584 -142.67,-869.298 -477.243,-1071.8c-434.708,-263.113 -2135.87,-408.169 -2679.8,-138.018c-543.923,270.152 -205.513,1194.21 -691.7,1668.96c-459.006,448.206 -1401.65,959.889 -1990.56,1156.21c-834.265,278.108 -1395.11,-201.271 -1818.48,467.453c-423.379,668.724 -34.912,1539.17 -165.697,2175.85c-59.541,289.855 -344.948,344.34 -377.845,592.89c-26.676,201.546 188.861,585.109 219.596,892.46c37.612,376.124 603.646,571.081 631.416,939.281c22.907,303.722 -413.629,1114.83 -380.379,1419.2c74.358,680.662 663.174,892.047 608.209,1423.61c-69.675,673.83 -976.149,1609.57 -1058.04,2333.38c-22.976,203.088 374.276,-216.333 604.773,-125.129c135.429,53.587 54.545,303.857 128.817,473.968c69.296,158.715 296.288,239.42 349.238,247.61c288.433,44.614 210.052,-688.947 647.773,-328.77c81.726,67.247 320.175,343.981 399.301,639.167c101.716,379.456 43.821,789.402 147.74,824.041c617.744,205.915 960.935,566.265 1166.85,892.297c49.965,79.111 178.004,195.73 282.366,346.602c102.371,147.995 181.959,330.868 142.721,347.883c-31.816,13.796 -155.279,-61.165 -289.366,-149.239c-172.229,-113.129 -361.985,-247.894 -397.561,-243.996c-243.624,26.693 -991.484,-116.773 -1339.72,-52.117c-286.439,53.183 -488.013,358.207 -749.692,440.053c-280.952,87.874 -456.788,-71.991 -717.867,111.961c-416.884,293.731 -650.365,775.019 -774.621,914.808c-274.553,308.872 -955.215,1613 -1098.21,2299.38c-124.732,598.715 58.557,1234.95 240.233,1818.91c240.234,772.18 960.935,2333.7 1201.17,2814.17c240.233,480.468 1063.89,2299.38 1613,3294.63c549.106,995.253 1378.48,2247.9 2127.78,2814.17c648.568,490.139 1670.2,795.059 2368.02,583.424c697.822,-211.634 1029.57,-1601.56 1818.91,-1853.23c187.518,-59.788 411.037,-67.103 648.16,-46.187l69.943,139.886c-0,0 475.452,358.914 581.778,562.705c102.138,195.765 313.417,266.291 247.798,477.124c-65.951,211.901 -724.802,315.523 -756.739,585.241c-14.213,120.029 383.577,302.978 510.443,507.746c158.214,255.365 513.452,384.929 503.791,525.32c-3.096,44.987 -332.805,-51.707 -455.951,-47.488c-472.272,16.184 -211.822,264.182 -105.805,364.516c125.201,118.491 653.322,392.898 851.956,587.189c235.854,230.696 244.417,385.733 502.197,500.844c257.779,115.111 826.099,-10.165 1044.48,189.821c218.383,199.985 490.388,197.638 518.409,417.799c14.803,116.312 -546.87,201.224 -653.451,403.025c-116.696,220.955 223.862,557.793 321.112,641.15c186.069,159.488 392.642,716.194 698.328,937.706c232.82,168.71 285.182,231.874 1135.79,391.362c850.604,159.488 1931.58,580.36 2472.07,877.185c293.82,161.36 1146.64,1024.42 916.95,1127.89c-229.696,103.473 -1444.52,-347.567 -2295.12,-507.055c-850.603,-159.489 -376.196,1399.34 -1306.54,442.415c-930.347,-956.929 -637.952,-1010.09 -1887.28,-1329.07c-1249.32,-318.976 -1329.07,-930.347 -2658.14,-824.022c-1329.07,106.326 -824.022,983.511 -824.022,983.511c0,-0 462.246,544.094 417.944,774.466c-44.302,230.371 -359.93,373.864 -265.669,590.344c94.261,216.48 710.417,466.4 831.235,708.536c111.892,224.246 -70.883,571.499 -106.325,744.278c-20.84,101.593 -289.239,318.525 -289.239,318.525c1204.43,784.148 2457.14,1485.52 3744.82,2126.96c0,-0 556.662,-347.827 819.557,-567.14c338.646,-282.507 769.3,-933.963 1212.32,-1127.9c443.022,-193.938 1109.73,376.732 1636.35,345.345c668.964,-39.872 2445.49,286.44 2445.49,286.44c0,0 1150.55,-381.602 1562.56,-607.543c344.193,-188.752 631.779,-635.619 419.56,-965.86c-273.717,-425.94 -1808.38,-1211.26 -2061.86,-1589.78c-132.29,-197.547 -1089.84,-26.582 -1302.49,-744.278c-212.651,-717.697 -159.488,-1063.26 -531.627,-1488.56c-372.139,-425.301 -877.185,-956.928 -1382.23,-1488.56c-505.046,-531.627 -1249.32,-558.208 -1408.81,-983.51c-159.489,-425.302 -655.709,-1234.12 -642.419,-1513.22c11.733,-246.381 -22.115,-294.309 722.163,-161.402c744.278,132.906 2671.43,1377.8 2950.53,1435.39c279.105,57.593 -458.2,-686.012 -396.177,-872.081c25.223,-75.668 238.193,-240.849 502.674,-166.676c385.89,108.222 1008.5,663.507 1206.34,627.864c197.847,-35.642 178.598,-496.8 -19.261,-841.72c-284.49,-495.936 -1143.15,-1309.91 -1049.08,-1654.82c45.694,-167.544 268.302,-601.463 550.967,-553.993c314.68,52.846 697.537,591.807 862.97,451.439c204.639,-173.635 -10.879,-929.165 -223.041,-1322.78c-169.369,-314.219 -504.048,-732.775 -1111.35,-530.201c-272.602,90.93 -257.38,1133.44 -817.371,1133.44c-489.233,-0 -837.49,-199.711 -1009.38,-328.105c-111.488,-83.279 -169.157,-388.855 -62.766,-401.43c56.196,-6.642 215.837,7.611 371.289,102.82c138.855,85.045 274.367,253.94 329.824,223.163c117.541,-65.232 64.915,-655.889 -103.107,-766.913c-123.293,-81.468 -917.851,68.065 -1494.25,-126.355c-157.799,-53.226 -230.033,-494.53 108.907,-664.231c414.835,-207.702 1033.46,-17.756 879.128,-264.944c-53.882,-86.303 -284.644,-79.866 -407.164,-120.358c-636.381,-210.325 -1764.67,254.38 -1998.26,427.749c-233.589,173.369 386.31,338.028 596.725,612.465c107.625,140.372 -13.068,339.513 -129.421,414.852c-116.353,75.34 -336.272,18.621 -568.7,37.186c-196.677,15.709 -319.433,142.353 -273.976,205.024c64.015,88.257 539.657,176.303 648.679,308.894c141.057,171.553 432.066,416.935 429.026,638.763c-3.04,221.827 -528.32,891.189 -787.507,760.25c-394.157,-199.124 -1666.66,-1398.88 -2250.45,-1959.09Zm782.111,-11632.4c-102.695,-0 -186.07,-95.286 -186.07,-212.651c0,-117.365 83.375,-212.651 186.07,-212.651c102.695,0 186.069,95.286 186.069,212.651c0,117.365 -83.374,212.651 -186.069,212.651Zm-8745.27,-8506.03c-146.706,0 -265.813,-178.66 -265.813,-398.72c-0,-220.06 119.107,-398.72 265.813,-398.72c146.707,-0 265.814,178.66 265.814,398.72c-0,220.06 -119.107,398.72 -265.814,398.72Zm482.367,15395.5c-67.603,0 -122.487,-24.393 -122.487,-54.438c-0,-30.046 54.884,-54.439 122.487,-54.439c67.602,0 122.487,24.393 122.487,54.439c-0,30.045 -54.885,54.438 -122.487,54.438Zm4355.44,-9946.36c-132.036,-0 -239.232,-113.152 -239.232,-252.523c-0,-139.371 107.196,-252.523 239.232,-252.523c132.036,0 239.232,113.152 239.232,252.523c0,139.371 -107.196,252.523 -239.232,252.523Zm-5808.03,-8931.34c-110.03,-0 -199.36,-256.08 -199.36,-571.499c-0,-315.419 89.33,-571.499 199.36,-571.499c110.03,-0 199.36,256.08 199.36,571.499c0,315.419 -89.33,571.499 -199.36,571.499Zm7974.41,12147.7c-212.724,-0 -385.429,-172.705 -385.429,-385.43c-0,-212.724 172.705,-385.429 385.429,-385.429c212.725,-0 385.43,172.705 385.43,385.429c-0,212.725 -172.705,385.43 -385.43,385.43Zm-3734.68,-5582.09c-102.695,0 -186.07,-131.017 -186.07,-292.395c0,-161.377 83.375,-292.394 186.07,-292.394c102.695,-0 186.069,131.017 186.069,292.394c0,161.378 -83.374,292.395 -186.069,292.395Zm2751.17,-983.51c-80.688,0 -146.197,-83.375 -146.197,-186.069c-0,-102.695 65.509,-186.07 146.197,-186.07c80.689,0 146.198,83.375 146.198,186.07c-0,102.694 -65.509,186.069 -146.198,186.069Zm2541.34,27584.7c-573.676,-288.696 -958.876,-683.149 -859.658,-880.308c99.218,-197.159 645.523,-122.842 1219.2,165.854c573.676,288.696 958.875,683.149 859.657,880.308c-99.218,197.159 -645.523,122.842 -1219.2,-165.854Zm980.691,-19663.4c-161.378,-0 -292.395,-125.063 -292.395,-279.104c-0,-154.042 131.017,-279.105 292.395,-279.105c161.377,0 292.395,125.063 292.395,279.105c-0,154.041 -131.018,279.104 -292.395,279.104Zm-8665.66,4843.6c-37.556,0 -68.048,-24.393 -68.048,-54.438c0,-30.046 30.492,-54.439 68.048,-54.439c37.557,0 68.049,24.393 68.049,54.439c-0,30.045 -30.492,54.438 -68.049,54.438Zm-4089.7,-3701.82c-26.29,0 -47.634,-103.67 -47.634,-231.364c0,-127.693 21.344,-231.363 47.634,-231.363c26.29,-0 47.634,103.67 47.634,231.363c-0,127.694 -21.344,231.364 -47.634,231.364Zm-47.634,-762.14c-52.579,0 -95.267,-76.228 -95.267,-170.12c-0,-93.892 42.688,-170.121 95.267,-170.121c52.58,0 95.268,76.229 95.268,170.121c-0,93.892 -42.688,170.12 -95.268,170.12Zm6226.41,3279.92c-63.847,0 -115.682,-45.737 -115.682,-102.072c-0,-56.335 51.835,-102.072 115.682,-102.072c63.846,-0 115.681,45.737 115.681,102.072c0,56.335 -51.835,102.072 -115.681,102.072Zm-1292.92,830.188c-48.823,0 -88.462,-57.933 -88.462,-129.291c-0,-71.358 39.639,-129.292 88.462,-129.292c48.824,0 88.463,57.934 88.463,129.292c0,71.358 -39.639,129.291 -88.463,129.291Zm4981.13,-2286.42c-116.427,-0 -210.95,-118.917 -210.95,-265.388c0,-146.472 94.523,-265.389 210.95,-265.389c116.426,0 210.949,118.917 210.949,265.389c0,146.471 -94.523,265.388 -210.949,265.388Zm-4273.43,1837.3c-56.335,0 -102.072,-57.933 -102.072,-129.291c-0,-71.358 45.737,-129.292 102.072,-129.292c56.335,0 102.072,57.934 102.072,129.292c0,71.358 -45.737,129.291 -102.072,129.291Zm1566.42,-5688.67c-95.36,-0 -172.779,-95.286 -172.779,-212.651c-0,-117.365 77.419,-212.651 172.779,-212.651c95.359,0 172.778,95.286 172.778,212.651c0,117.365 -77.419,212.651 -172.778,212.651Zm7789.29,18860.4c-52.901,112.08 -275.083,118.478 -495.847,14.278c-220.764,-104.199 -357.047,-279.791 -304.146,-391.871c52.901,-112.081 275.083,-118.479 495.847,-14.279c220.765,104.2 357.048,279.791 304.146,391.872Zm-5290.65,-25824.7c-110.03,0 -199.36,-77.42 -199.36,-172.779c-0,-95.359 89.33,-172.779 199.36,-172.779c110.03,0 199.36,77.42 199.36,172.779c-0,95.359 -89.33,172.779 -199.36,172.779Zm-5940.93,2844.2c-102.694,-0 -186.069,-154.839 -186.069,-345.558c-0,-190.718 83.375,-345.557 186.069,-345.557c102.695,-0 186.07,154.839 186.07,345.557c-0,190.719 -83.375,345.558 -186.07,345.558Zm-1448.68,-5768.15c-51.347,0 -93.034,-83.375 -93.034,-186.069c-0,-102.695 41.687,-186.07 93.034,-186.07c51.348,0 93.035,83.375 93.035,186.07c0,102.694 -41.687,186.069 -93.035,186.069Zm451.883,4970.71c-124.7,0 -225.941,-172.705 -225.941,-385.429c-0,-212.725 101.241,-385.43 225.941,-385.43c124.701,0 225.942,172.705 225.942,385.43c-0,212.724 -101.241,385.429 -225.942,385.429Zm2498.65,4013.79c-212.725,-0 -385.43,-285.857 -385.43,-637.953c-0,-352.095 172.705,-637.952 385.43,-637.952c212.724,-0 385.429,285.857 385.429,637.952c0,352.096 -172.705,637.953 -385.429,637.953Zm8253.51,744.278c-366.766,-0 -664.534,-428.786 -664.534,-956.929c0,-528.143 297.768,-956.929 664.534,-956.929c366.766,0 664.534,428.786 664.534,956.929c0,528.143 -297.768,956.929 -664.534,956.929Zm-10125.1,3588.96c-153.983,-0 -278.998,-64.032 -278.998,-142.902c0,-78.869 125.015,-142.901 278.998,-142.901c153.983,0 278.998,64.032 278.998,142.901c-0,78.87 -125.015,142.902 -278.998,142.902Z" style="fill:#b35204;"/><ellipse cx="18230.6" cy="60866.2" rx="136.096" ry="95.267" style="fill:#b35204;"/><ellipse cx="17842.7" cy="58668.3" rx="115.682" ry="61.243" style="fill:#b35204;"/><circle cx="15229.6" cy="59117.4" r="74.853" style="fill:#b95104;"/><ellipse cx="15848.9" cy="58457.3" rx="163.316" ry="108.877" style="fill:#b95104;"/><ellipse cx="11003.9" cy="57109.9" rx="81.658" ry="13.61" style="fill:#b95104;"/><ellipse cx="11112.7" cy="57137.2" rx="176.925" ry="163.316" style="fill:#b95104;"/><ellipse cx="12861.6" cy="58954.1" rx="115.682" ry="129.292" style="fill:#b95104;"/><ellipse cx="20208.2" cy="61111.6" rx="170.121" ry="180.753" style="fill:#b35204;"/><path d="M22649.8,62610.9c111.81,-36.908 155.753,-208.751 98.067,-383.504c-57.686,-174.754 -195.295,-286.667 -307.105,-249.759c-111.81,36.908 -155.752,208.751 -98.067,383.504c57.686,174.754 195.295,286.667 307.105,249.759Z" style="fill:#b35204;"/><path d="M21920.7,60795.1c-30.838,38.474 63.442,-74.737 87.486,-116.963c201.292,-353.517 46.777,-919.766 -389.446,-1340.97c-488.327,-471.518 -1145.94,-583.864 -1467.61,-250.726c-321.671,333.139 -186.368,986.417 301.96,1457.93c332.389,320.949 681.051,272.862 964.26,422.79c115.18,60.975 185.898,267.243 291.938,388.377c146.176,166.982 322.716,233.448 443.056,88.402c147.114,-177.318 -166.378,-730.266 -231.64,-648.842Z" style="fill:#b35204;"/><path d="M15504.9,70440.6c406.783,327.191 784.815,533.43 843.663,460.268c58.847,-73.163 -223.632,-398.199 -630.415,-725.39c-406.783,-327.191 -784.815,-533.431 -843.662,-460.268c-58.848,73.162 223.632,398.198 630.414,725.39Z" style="fill:#b35204;"/><path d="M31257.4,20009.6c239.016,15.456 443.524,-133.724 456.405,-332.927c12.881,-199.203 -170.712,-373.479 -409.728,-388.934c-239.016,-15.456 -443.524,133.724 -456.405,332.928c-12.881,199.203 170.712,373.478 409.728,388.933Z" style="fill:#d56e0e;"/><path d="M28592.6,21180.4c105.425,6.817 196.262,-68.752 202.721,-168.65c6.46,-99.898 -73.888,-186.537 -179.313,-193.354c-105.426,-6.817 -196.262,68.753 -202.722,168.651c-6.459,99.897 73.888,186.536 179.314,193.353Z" style="fill:#d56e0e;"/><path d="M28494.2,23682.6c105.426,6.817 200.155,-128.95 211.409,-302.995c11.254,-174.044 -65.201,-320.88 -170.627,-327.697c-105.425,-6.817 -200.154,128.95 -211.408,302.994c-11.255,174.044 65.201,320.881 170.626,327.698Z" style="fill:#d56e0e;"/><path d="M29045.4,24692.9c216.824,-70.492 352.136,-252.976 301.979,-407.255c-50.158,-154.279 -266.913,-222.303 -483.736,-151.811c-216.824,70.491 -352.136,252.976 -301.979,407.255c50.158,154.278 266.913,222.302 483.736,151.811Z" style="fill:#d56e0e;"/></g><g><path d="M27744.2,16506.7c57.193,85.226 213.514,80.676 348.865,-10.154c135.35,-90.83 198.804,-233.766 141.611,-318.992c-57.193,-85.226 -213.514,-80.676 -348.864,10.154c-135.351,90.83 -198.805,233.765 -141.612,318.992Z" style="fill:#d56e0e;"/><path d="M30733,7993.8c480.334,-18.906 861.058,-269.161 849.669,-558.498c-11.388,-289.337 -410.605,-508.892 -890.939,-489.985c-480.334,18.906 -861.058,269.161 -849.669,558.498c11.388,289.337 410.605,508.892 890.939,489.985Z" style="fill:#d56e0e;"/><path d="M30456.5,6633.95c428.611,-16.87 768.393,-238.781 758.298,-495.241c-10.094,-256.46 -366.268,-450.977 -794.878,-434.106c-428.611,16.87 -768.393,238.781 -758.299,495.241c10.095,256.461 366.268,450.977 794.879,434.106Z" style="fill:#d56e0e;"/><path d="M26762.8,4438.48c497.981,-117.887 870.032,-349.816 830.312,-517.601c-39.72,-167.785 -476.265,-208.297 -974.246,-90.41c-497.982,117.887 -870.032,349.816 -830.313,517.601c39.72,167.785 476.265,208.297 974.247,90.41Z" style="fill:#d56e0e;"/><path d="M48704.4,6521.8c421.868,169.347 843.199,110.467 940.291,-131.404c97.092,-241.871 -166.584,-575.728 -588.453,-745.075c-421.868,-169.348 -843.198,-110.467 -940.29,131.404c-97.093,241.871 166.584,575.728 588.452,745.075Z" style="fill:#d56e0e;"/><ellipse cx="51795.6" cy="8530.34" rx="614.998" ry="450.266" style="fill:#d56e0e;"/><path d="M55836.8,11257.6c465.343,388.377 962.961,560.125 1110.54,383.294c147.583,-176.83 -110.398,-635.706 -575.741,-1024.08c-465.343,-388.376 -962.961,-560.124 -1110.54,-383.294c-147.583,176.831 110.398,635.706 575.741,1024.08Z" style="fill:#d56e0e;"/><ellipse cx="59658.8" cy="12450.9" rx="812.676" ry="527.141" style="fill:#d56e0e;"/><path d="M58316.1,8471.77c288.749,213.461 584.366,303.991 659.736,202.038c75.37,-101.953 -97.867,-358.028 -386.615,-571.489c-288.749,-213.46 -584.367,-303.99 -659.736,-202.037c-75.37,101.953 97.867,358.028 386.615,571.488Z" style="fill:#d56e0e;"/><path d="M55731.8,8695.22c301.47,203.401 642.556,225.764 761.207,49.906c118.651,-175.858 -29.775,-483.769 -331.246,-687.171c-301.47,-203.401 -642.556,-225.764 -761.207,-49.906c-118.651,175.858 29.775,483.769 331.246,687.171Z" style="fill:#d56e0e;"/><path d="M51065.3,4993.79c654.901,220.343 1277.61,128.72 1389.72,-204.475c112.104,-333.196 -328.579,-782.599 -983.48,-1002.94c-654.902,-220.343 -1277.61,-128.721 -1389.72,204.475c-112.105,333.195 328.578,782.598 983.48,1002.94Z" style="fill:#d56e0e;"/><path d="M47985.4,3685.49c332.499,122.997 633.177,139.779 671.029,37.454c37.851,-102.324 -201.366,-285.257 -533.865,-408.253c-332.499,-122.996 -633.177,-139.779 -671.028,-37.454c-37.852,102.325 201.365,285.257 533.864,408.253Z" style="fill:#d56e0e;"/><path d="M45698.7,3156.16c392.866,216.411 756.935,310.215 812.5,209.344c55.565,-100.87 -218.28,-358.463 -611.146,-574.875c-392.865,-216.411 -756.934,-310.216 -812.499,-209.345c-55.565,100.871 218.28,358.464 611.145,574.876Z" style="fill:#d56e0e;"/><path d="M49007,3130.28c239.524,142.709 496.282,154.013 573.012,25.228c76.73,-128.784 -55.438,-349.202 -294.962,-491.911c-239.525,-142.709 -496.283,-154.013 -573.013,-25.228c-76.73,128.784 55.438,349.202 294.963,491.911Z" style="fill:#d56e0e;"/><path d="M45867,4561.58c215.809,166.796 454.214,220.448 532.052,119.737c77.838,-100.711 -34.178,-317.892 -249.987,-484.688c-215.809,-166.796 -454.214,-220.448 -532.052,-119.737c-77.838,100.711 34.178,317.893 249.987,484.688Z" style="fill:#d56e0e;"/><path d="M61419.5,11144.9c140.872,174.497 347.136,241.981 460.324,150.604c113.187,-91.376 90.711,-307.232 -50.161,-481.729c-140.872,-174.498 -347.137,-241.982 -460.324,-150.605c-113.188,91.376 -90.711,307.232 50.161,481.73Z" style="fill:#d56e0e;"/><path d="M60180.7,8981.88c470.664,331.718 885.584,437.52 925.987,236.12c40.402,-201.399 -308.915,-634.222 -779.578,-965.939c-470.664,-331.718 -885.584,-437.52 -925.987,-236.121c-40.402,201.399 308.915,634.223 779.578,965.94Z" style="fill:#d56e0e;"/><path d="M52937.2,7240.84c295.571,117.559 589.078,78.387 655.025,-87.42c65.948,-165.808 -120.476,-395.866 -416.046,-513.425c-295.57,-117.56 -589.077,-78.388 -655.025,87.42c-65.948,165.807 120.476,395.865 416.046,513.425Z" style="fill:#d56e0e;"/><path d="M51550.2,6392.94c185.176,153.473 389.865,212.498 456.809,131.726c66.943,-80.772 -29.046,-270.95 -214.222,-424.423c-185.175,-153.473 -389.864,-212.498 -456.808,-131.726c-66.944,80.772 29.046,270.95 214.221,424.423Z" style="fill:#d56e0e;"/><path d="M51974.6,3704.35c190.087,147.346 385.222,214.326 435.488,149.48c50.265,-64.845 -63.253,-237.118 -253.34,-384.465c-190.087,-147.346 -385.223,-214.326 -435.488,-149.48c-50.265,64.845 63.252,237.118 253.34,384.465Z" style="fill:#d56e0e;"/><path d="M50563.1,3268.92c216.519,104.706 429.386,113.038 475.057,18.594c45.672,-94.444 -93.034,-256.128 -309.554,-360.834c-216.52,-104.706 -429.386,-113.038 -475.057,-18.594c-45.672,94.444 93.034,256.128 309.554,360.834Z" style="fill:#d56e0e;"/><path d="M51881.3,7122.59c180.336,85.292 363.161,77.544 408.014,-17.291c44.854,-94.835 -65.141,-241.076 -245.477,-326.368c-180.336,-85.292 -363.161,-77.544 -408.015,17.291c-44.853,94.836 65.142,241.076 245.478,326.368Z" style="fill:#d56e0e;"/><path d="M50033,8419.83c293.769,12.405 536.794,-84.608 542.364,-216.507c5.57,-131.898 -228.411,-249.055 -522.18,-261.461c-293.768,-12.405 -536.793,84.608 -542.363,216.507c-5.57,131.899 228.411,249.056 522.179,261.461Z" style="fill:#d56e0e;"/><path d="M46331.7,6288.55c172.644,75.422 346.905,58.605 388.902,-37.529c41.997,-96.134 -64.071,-235.416 -236.715,-310.837c-172.644,-75.421 -346.905,-58.604 -388.903,37.53c-41.997,96.134 64.072,235.415 236.716,310.836Z" style="fill:#d56e0e;"/><path d="M44406.6,6831c184.194,39.585 351.632,-11.546 373.674,-114.111c22.043,-102.566 -109.603,-217.975 -293.796,-257.56c-184.194,-39.586 -351.631,11.545 -373.674,114.111c-22.043,102.565 109.603,217.974 293.796,257.56Z" style="fill:#d56e0e;"/><path d="M43295.5,7407.15c137.044,29.452 260.174,-1.851 274.79,-69.862c14.617,-68.01 -84.779,-147.138 -221.824,-176.591c-137.044,-29.453 -260.174,1.851 -274.79,69.861c-14.617,68.011 84.779,147.139 221.824,176.592Z" style="fill:#d56e0e;"/><path d="M44560.9,7788.87c170.09,36.554 323.454,-4.827 342.264,-92.353c18.811,-87.526 -104.009,-188.264 -274.1,-224.819c-170.09,-36.555 -323.453,4.827 -342.264,92.353c-18.811,87.526 104.009,188.264 274.1,224.819Z" style="fill:#d56e0e;"/><path d="M47358.8,10155c170.09,36.555 323.454,-4.827 342.264,-92.353c18.811,-87.526 -104.009,-188.264 -274.1,-224.819c-170.09,-36.554 -323.453,4.828 -342.264,92.353c-18.81,87.526 104.009,188.264 274.1,224.819Z" style="fill:#d56e0e;"/><path d="M41482.4,2708.19c173.835,6.956 317.873,-60.02 321.453,-149.473c3.579,-89.453 -134.647,-167.725 -308.481,-174.681c-173.835,-6.956 -317.873,60.02 -321.453,149.473c-3.58,89.453 134.646,167.725 308.481,174.681Z" style="fill:#d56e0e;"/><path d="M42400.9,2805.56c194.605,95.642 391.159,94.83 438.655,-1.811c47.496,-96.641 -71.937,-252.75 -266.541,-348.392c-194.605,-95.641 -391.159,-94.83 -438.655,1.811c-47.496,96.641 71.937,252.75 266.541,348.392Z" style="fill:#d56e0e;"/><path d="M48213.6,8760.27c220.899,95.119 433.925,94.117 475.415,-2.237c41.491,-96.354 -104.167,-251.807 -325.066,-346.926c-220.899,-95.119 -433.925,-94.117 -475.415,2.237c-41.491,96.354 104.167,251.807 325.066,346.926Z" style="fill:#d56e0e;"/><path d="M49704.6,7698.99c195.661,43.811 369.776,11.215 388.575,-72.743c18.799,-83.959 -124.79,-187.692 -320.451,-231.502c-195.661,-43.811 -369.776,-11.216 -388.575,72.743c-18.799,83.959 124.79,187.692 320.451,231.502Z" style="fill:#d56e0e;"/><path d="M54132.6,8582.28c216.247,105.269 429.09,114.155 475.008,19.83c45.917,-94.324 -92.368,-256.369 -308.614,-361.639c-216.246,-105.269 -429.09,-114.155 -475.008,-19.83c-45.917,94.324 92.368,256.369 308.614,361.639Z" style="fill:#d56e0e;"/><path d="M53012.7,10010.5c153.831,127.495 333.073,165.429 400.017,84.657c66.943,-80.772 -3.599,-249.859 -157.43,-377.354c-153.832,-127.496 -333.073,-165.429 -400.017,-84.657c-66.944,80.772 3.598,249.858 157.43,377.354Z" style="fill:#d56e0e;"/><path d="M36374,2419.34c348.891,5.373 633.624,-86.23 635.445,-204.432c1.82,-118.202 -279.957,-218.529 -628.848,-223.902c-348.891,-5.373 -633.624,86.23 -635.445,204.432c-1.82,118.202 279.957,218.529 628.848,223.902Z" style="fill:#d56e0e;"/><path d="M33589.5,4366.17c295.766,-11.642 531.618,-129.622 526.356,-263.299c-5.261,-133.678 -249.657,-232.755 -545.423,-221.113c-295.766,11.642 -531.618,129.622 -526.356,263.299c5.261,133.677 249.657,232.755 545.423,221.113Z" style="fill:#d56e0e;"/><path d="M35796.5,6095.2c295.766,-11.642 531.618,-129.622 526.357,-263.299c-5.262,-133.677 -249.658,-232.755 -545.424,-221.113c-295.766,11.642 -531.618,129.622 -526.356,263.299c5.261,133.677 249.658,232.755 545.423,221.113Z" style="fill:#d56e0e;"/><path d="M32590.3,9397.24c452.493,-162.259 740.509,-515.282 642.77,-787.848c-97.739,-272.567 -544.458,-362.123 -996.952,-199.865c-452.493,162.259 -740.509,515.282 -642.77,787.849c97.739,272.566 544.458,362.123 996.952,199.864Z" style="fill:#d56e0e;"/><path d="M36601.9,11591.2c479.178,-38.291 849.484,-303.718 826.419,-592.359c-23.065,-288.641 -430.823,-491.893 -910.001,-453.602c-479.179,38.291 -849.485,303.718 -826.42,592.359c23.065,288.641 430.823,491.893 910.002,453.602Z" style="fill:#d56e0e;"/><path d="M58129.9,10522.6c-73.771,136.508 81.342,363.527 346.168,506.642c264.826,143.115 539.724,148.478 613.494,11.97c73.771,-136.508 -81.342,-363.527 -346.168,-506.642c-264.826,-143.115 -539.724,-148.478 -613.494,-11.97Z" style="fill:#d56e0e;"/><path d="M61161,12306.1c-46.062,73.679 53.27,218.976 221.681,324.261c168.411,105.284 342.535,130.943 388.597,57.264c46.063,-73.68 -53.269,-218.977 -221.68,-324.261c-168.411,-105.285 -342.536,-130.944 -388.598,-57.264Z" style="fill:#d56e0e;"/></g><g><ellipse cx="44322.3" cy="54128.5" rx="553.777" ry="429.177" style="fill:#ffcb55;"/><path d="M33879,46286.6c-118.512,83.577 -194.475,212.128 -194.475,356.197c-0,116.847 49.969,223.487 132.08,304.203c11.111,-195.742 30.082,-434.211 62.395,-660.4Zm-62.395,660.4c-14.037,247.276 -15.529,426.364 -15.529,426.364c-0,0 71.139,886 106.24,1460.64c11.47,-4.484 23.458,-6.862 35.792,-6.862c82.625,-0 149.706,106.72 149.706,238.169c0,131.449 -67.081,238.169 -149.706,238.169c-8.405,-0 -16.649,-1.105 -24.678,-3.227c-22.201,248.873 -92.842,590.2 -14.397,852.954c128.211,429.444 480.467,1132.53 789.339,1578.68c290.113,419.052 703.542,880.856 1063.89,1098.21c318.926,192.367 735.024,123.372 1098.21,205.914c629.184,142.997 1881.83,457.588 2676.89,652.063c253.054,61.898 176.051,357.429 512.703,440.23c591.981,145.602 860.492,-565.542 1369.91,-593.155c229.391,-12.434 -589.192,903.276 -250.191,1003.76c257.365,76.289 914.542,30.458 1342.85,-236.949c231.449,-144.504 308.983,-502.994 418.21,-602.906c215.342,-196.979 82.689,-922.382 265.217,-1150.1c189.441,-236.344 571.129,-221.339 871.431,-267.964c516.644,-80.213 1024.63,-179.418 1377.52,-340.966c-49.889,-103.272 -78.405,-222.793 -78.405,-350.124c0,-390.591 268.325,-707.702 598.825,-707.702c101.144,0 196.464,29.699 280.053,82.114c336.38,-497.65 784.248,-1106.79 876.402,-1360.21c137.277,-377.51 134.06,-1382.42 278.671,-1701.68c81.321,-179.53 294.004,-167.602 588.995,-213.849c343.027,-53.777 743.844,-33.038 718.153,-126.435c-13.313,-48.396 121.838,-203.904 -16.581,-306.548c-122.73,-91.01 -513.134,-129.186 -630.444,-181.934c-457.622,-205.764 -917.786,-245.939 -1002.21,-380.091c-206.857,-328.686 -1096.84,-114.168 -1515.26,-281.141c-380.426,-151.813 -605.435,-316.194 -714.112,-544.988c-105.386,-221.864 508.197,-621.862 62.049,-827.776c-446.148,-205.915 -1801.75,-1195.45 -2265.06,-1510.04c-176.043,-119.535 -34.319,-343.191 -514.787,-377.51c-480.467,-34.319 -783.619,-45.758 -1063.89,-34.319c-208.581,8.514 -417.621,162.369 -617.743,102.958c-128.655,-38.195 -477.026,-27.644 -725.416,-147.261c-458.371,-220.739 -619.535,-500.747 -853.263,-607.76c-166.746,-76.345 -394.683,535.471 -572.137,581.764c-161.534,42.139 -134.7,-329.96 -468.378,-328.511c-252.47,1.096 -466.885,486.99 -745.243,582.008c-252.608,86.229 -346.055,-49.689 -495.893,93.403c-74.625,71.265 -430.68,73.486 -527.369,250.594c-117.977,216.105 184.509,476.185 29.173,605.335c-78.732,65.46 -324.944,-0.642 -424.239,134.22c-106.071,144.064 -69.682,491.449 -299.725,629.805c-808.562,486.299 -1015.98,202.007 -1272.83,595.176c-90.514,138.553 -150.549,398.499 -190.347,677.073c88.482,-62.398 200.681,-99.726 322.691,-99.726c285.433,-0 517.167,204.292 517.167,455.923c0,251.631 -231.734,455.923 -517.167,455.923c-152.889,0 -290.371,-58.614 -385.086,-151.72Zm90.711,1887.01c-65.366,25.551 -113.914,119.48 -113.914,231.307c-0,118.077 54.128,216.201 125.028,234.942c4.738,-53.107 7.269,-102.005 5.676,-145.031c-3.094,-83.523 -9.07,-194.841 -16.79,-321.218Zm11532.7,3106.02c103.147,213.52 297.661,357.578 520.42,357.578c330.5,-0 598.825,-317.111 598.825,-707.702c-0,-271.058 -129.223,-506.729 -318.772,-625.588c-164.706,243.67 -302.682,460.61 -359.085,595.977c-65.418,157.004 -223.965,280.202 -441.388,379.735Zm-9870.55,-1928.84c-138.96,-0 -251.778,-143.31 -251.778,-319.827c-0,-176.517 112.818,-319.827 251.778,-319.827c138.961,-0 251.779,143.31 251.779,319.827c-0,176.517 -112.818,319.827 -251.779,319.827Zm2844.42,3211.88c-131.449,0 -238.169,-73.179 -238.169,-163.316c-0,-90.136 106.72,-163.315 238.169,-163.315c131.449,-0 238.168,73.179 238.168,163.315c0,90.137 -106.719,163.316 -238.168,163.316Zm564.8,-204.145c-67.602,0 -122.487,-33.54 -122.487,-74.853c0,-41.312 54.885,-74.853 122.487,-74.853c67.602,0 122.487,33.541 122.487,74.853c-0,41.313 -54.885,74.853 -122.487,74.853Zm2728.74,217.755c-153.983,-0 -278.998,-118.917 -278.998,-265.388c0,-146.472 125.015,-265.389 278.998,-265.389c153.983,0 278.998,118.917 278.998,265.389c-0,146.471 -125.015,265.388 -278.998,265.388Zm-5981.44,-2585.83c-82.625,0 -149.706,-67.081 -149.706,-149.706c0,-82.625 67.081,-149.706 149.706,-149.706c82.626,-0 149.707,67.081 149.707,149.706c-0,82.625 -67.081,149.706 -149.707,149.706Zm3048.56,-7539.75c-120.182,0 -217.754,-91.474 -217.754,-204.144c-0,-112.671 97.572,-204.145 217.754,-204.145c120.182,-0 217.755,91.474 217.755,204.145c-0,112.67 -97.573,204.144 -217.755,204.144Zm2211.57,2490.57c-63.847,-0 -115.682,-42.688 -115.682,-95.268c-0,-52.58 51.835,-95.268 115.682,-95.268c63.846,0 115.682,42.688 115.682,95.268c-0,52.58 -51.836,95.268 -115.682,95.268Zm1218.06,-68.049c-67.602,0 -122.486,-39.639 -122.486,-88.462c-0,-48.824 54.884,-88.463 122.486,-88.463c67.603,-0 122.487,39.639 122.487,88.463c0,48.823 -54.884,88.462 -122.487,88.462Zm20.415,8220.23c-93.892,-0 -170.121,-85.376 -170.121,-190.536c0,-105.159 76.229,-190.535 170.121,-190.535c93.892,0 170.121,85.376 170.121,190.535c-0,105.16 -76.229,190.536 -170.121,190.536Zm-5607.18,-6655.12c-214.074,0 -387.875,-192.096 -387.875,-428.704c-0,-236.608 173.801,-428.704 387.875,-428.704c214.074,0 387.875,192.096 387.875,428.704c-0,236.608 -173.801,428.704 -387.875,428.704Zm-1599.13,-1374.58c-127.694,0 -231.365,-76.228 -231.365,-170.12c0,-93.892 103.671,-170.121 231.365,-170.121c127.693,0 231.364,76.229 231.364,170.121c-0,93.892 -103.671,170.12 -231.364,170.12Z" style="fill:#f58626;"/><ellipse cx="38175.7" cy="42240.1" rx="204.145" ry="244.974" style="fill:#d56e0e;"/><ellipse cx="36126.4" cy="66713.1" rx="470.711" ry="276.889" style="fill:#ffcb55;"/><ellipse cx="34492.7" cy="63196.6" rx="553.777" ry="387.644" style="fill:#ffcb55;"/><ellipse cx="32665.3" cy="64484.1" rx="470.711" ry="373.8" style="fill:#ffcb55;"/><path d="M31520.6,69449.3c479.166,348.053 1025.48,414.083 1219.22,147.362c193.738,-266.721 -37.994,-765.838 -517.161,-1113.89c-479.167,-348.053 -1025.48,-414.083 -1219.22,-147.362c-193.738,266.72 37.994,765.838 517.161,1113.89Z" style="fill:#ffcb55;"/><ellipse cx="42695.9" cy="74668.5" rx="744.277" ry="297.711" style="fill:#ffcb55;"/><ellipse cx="37826.2" cy="75370.2" rx="552.891" ry="212.65" style="fill:#ffcb55;"/></g><g><path d="M61630.2,28990.6c-40.987,-15.341 -76.271,-25.669 -100.209,-31.424c-331.196,-79.624 -724.251,222.578 -951.62,180.473c-311.643,-57.712 -614.998,-109.822 -944.461,-109.822c-120.251,0 -205.389,5.852 -276.774,20.76c190.318,150.21 323.117,488.132 323.117,880.52c-0,531.805 -243.931,963.563 -544.386,963.563c-300.455,0 -544.386,-431.758 -544.386,-963.563c0,-94.535 7.708,-185.908 22.072,-272.257c-322.324,331.25 -1218.13,1194.71 -1416.09,1663.87c-164.164,389.06 146.193,1012.11 190.122,1341.57c43.928,329.464 27.939,780.347 269.545,1505.17c241.606,724.819 153.75,878.569 571.07,1757.14c417.32,878.569 724.819,856.605 856.604,1098.21c131.786,241.607 417.32,527.142 505.177,724.82c87.857,197.678 1516.87,1043.71 2004.19,1050.59c354.681,5.011 580.507,-66.178 772.437,-133.366c192.495,-67.386 289.225,-135.475 618.688,-113.511c7.481,0.499 -363.737,-241.483 -363.737,-407.368c0,-287.667 454.61,-521.217 1014.56,-521.217c35.439,0 70.456,0.936 104.962,2.761c59.876,-103.129 159.941,-257.339 285.67,-383.068c307.499,-307.5 508.943,-613.488 593.034,-988.39c87.857,-391.696 -87.857,-1164.1 -65.893,-1361.78c21.964,-197.678 257.596,-555.784 323.489,-1082.92c65.892,-527.141 -243.552,-965.182 -345.453,-1069.57c-150.089,-153.75 -544.942,-295.581 -768.748,-505.177c-230.624,-215.982 -472.318,-574.789 -614.998,-790.712c-47.225,-71.467 -199.592,-175.805 -261.75,-164.146c-278.767,52.291 -525.598,-14.581 -550.857,-149.24c-24.526,-130.752 168.809,-277.645 435.249,-333.929c-198.383,-188.668 -485.409,-412.681 -663.571,-609.743c-91.56,-101.273 23.421,-565.943 -91.985,-879.287c-11.238,-30.514 -26.732,-58.83 -45.357,-85.037c45.909,93.111 72.974,207.448 72.974,330.971c-0,312.473 -173.192,566.161 -386.514,566.161c-213.323,0 -386.514,-253.688 -386.514,-566.161c-0,-299.589 159.203,-545.141 360.34,-564.881Zm339.714,233.91c-70.225,-142.429 -184.546,-235.19 -313.54,-235.19c-8.796,-0 -17.524,0.431 -26.174,1.28c108.04,40.438 255.713,115.713 339.714,233.91Zm-580.29,8551.2c-84.127,0 -152.428,-92.693 -152.428,-206.866c0,-114.173 68.301,-206.867 152.428,-206.867c84.128,0 152.429,92.694 152.429,206.867c-0,114.173 -68.301,206.866 -152.429,206.866Zm2538.89,-2781.46c-386.577,192.714 -990.351,-232.398 -1347.45,-948.731c-357.104,-716.334 -333.176,-1454.37 53.401,-1647.08c386.576,-192.715 990.351,232.398 1347.45,948.731c357.104,716.334 333.176,1454.37 -53.401,1647.08Zm-2391.91,-2607.96c-129.196,0 -234.086,-114.647 -234.086,-255.861c-0,-141.214 104.89,-255.861 234.086,-255.861c129.195,-0 234.086,114.647 234.086,255.861c-0,141.214 -104.891,255.861 -234.086,255.861Zm-1186.76,1045.22c-87.132,0 -157.872,-80.497 -157.872,-179.647c-0,-99.15 70.74,-179.647 157.872,-179.647c87.131,-0 157.871,80.497 157.871,179.647c0,99.15 -70.74,179.647 -157.871,179.647Zm952.675,185.091c-204.309,0 -370.183,-156.115 -370.183,-348.407c0,-192.291 165.874,-348.406 370.183,-348.406c204.309,-0 370.182,156.115 370.182,348.406c0,192.292 -165.873,348.407 -370.182,348.407Zm1241.2,4017.57c-60.091,0 -108.878,-92.694 -108.878,-206.867c0,-114.172 48.787,-206.866 108.878,-206.866c60.09,-0 108.877,92.694 108.877,206.866c-0,114.173 -48.787,206.867 -108.877,206.867Zm-2629.38,-489.947c-195.296,-0 -353.851,-187.827 -353.851,-419.177c0,-231.35 158.555,-419.177 353.851,-419.177c195.295,-0 353.851,187.827 353.851,419.177c-0,231.35 -158.556,419.177 -353.851,419.177Zm-473.616,-2994.12c-186.282,-0 -337.519,-207.342 -337.519,-462.728c-0,-255.387 151.237,-462.728 337.519,-462.728c186.282,-0 337.519,207.341 337.519,462.728c0,255.386 -151.237,462.728 -337.519,462.728Z" style="fill:#d56e0e;"/><path d="M52875,26637.1c405.37,466.193 978.394,632.592 1278.83,371.354c300.435,-261.238 215.242,-851.82 -190.128,-1318.01c-405.37,-466.194 -978.394,-632.592 -1278.83,-371.354c-300.435,261.237 -215.242,851.819 190.128,1318.01Z" style="fill:#d56e0e;"/><path d="M58232.2,44264.2c-98.106,-54.31 -284.563,-320.915 -504.748,-339.072c-227.556,-18.765 -455.736,87.495 -578.529,232.613c-241.606,285.535 178.773,1235.38 -84.798,1652.7c-263.57,417.32 461.249,834.64 461.249,834.64c-0,0 21.964,87.857 -0,285.535c-21.964,197.678 -32.015,165.418 77.806,1000.06c35.004,266.028 -600.93,827.057 -393.449,688.352c157.034,-104.98 -341.78,208.355 -259.054,616.095c19.852,97.848 176.809,147.327 219.148,230.206c67.709,132.543 38.454,280.444 164.873,320.209c150.825,47.442 373,-53.091 492.007,-6.999c281.132,108.884 608.195,420.812 810.76,109.887c69.103,-106.07 346.509,-144.222 401.554,-286.94c36.254,-93.996 -526.726,-384.364 -500.47,-490.875c51.276,-208.003 -44.777,-519.126 35.854,-725.991c65.084,-166.977 531.267,-167.622 633.725,-505.611c67.497,-222.659 -146.912,-452.687 -126.419,-627.628c14.36,-122.586 238.212,-242.219 284.862,-121.181c43.984,114.121 246.231,172.601 340.391,314.703c157.73,238.039 199.057,373.123 278.404,408.213c79.347,35.089 156.004,-114.33 197.678,-197.678c47.589,-95.179 -1.661,-282.094 87.857,-373.392c124.329,-126.801 561.816,-234.115 658.118,-387.414c120.304,-191.506 169.495,-893.795 455.03,-388.618c285.535,505.177 283.984,-479.781 471.374,-647.293c185.034,-165.406 407.878,-318.684 652.966,-357.778c272.049,-43.394 652.833,240.071 979.324,97.413c187.658,-81.996 50.625,-525.382 173.721,-613.443c337.262,-241.273 959.723,-611.608 870.526,-931.607c-89.198,-320 -1076.25,-856.605 -1405.71,-988.39c-329.464,-131.786 -1686.32,-512.802 -1905.96,146.124c-219.642,658.927 -290.458,1039.94 -641.886,1061.91c-242.563,15.16 -1214.96,253.567 -1828.86,244.935c-275.522,-3.873 -500.384,-244.301 -517.337,-253.686Zm1586.02,1114.08c-91.338,0 -165.493,-140.504 -165.493,-313.566c-0,-173.062 74.155,-313.566 165.493,-313.566c91.338,-0 165.493,140.504 165.493,313.566c0,173.062 -74.155,313.566 -165.493,313.566Zm1589.61,635.843c-40.861,-0 -74.036,-81.961 -74.036,-182.914c-0,-100.953 33.175,-182.913 74.036,-182.913c40.862,-0 74.037,81.96 74.037,182.913c-0,100.953 -33.175,182.914 -74.037,182.914Zm-1197.65,374.537c-57.688,0 -104.522,-103.426 -104.522,-230.819c-0,-127.393 46.834,-230.82 104.522,-230.82c57.687,0 104.522,103.427 104.522,230.82c-0,127.393 -46.835,230.819 -104.522,230.819Zm-1332.66,-348.407c-62.494,0 -113.232,-72.203 -113.232,-161.138c-0,-88.934 50.738,-161.138 113.232,-161.138c62.495,0 113.232,72.204 113.232,161.138c0,88.935 -50.737,161.138 -113.232,161.138Zm-1070.14,256.171c-58.28,-38.24 -45.644,-160.655 28.199,-273.196c73.843,-112.54 181.11,-172.863 239.39,-134.623c58.28,38.24 45.644,160.655 -28.199,273.196c-73.843,112.54 -181.11,172.863 -239.39,134.623Zm451.716,1372.63c-134.604,-0 -243.885,-58.544 -243.885,-130.653c-0,-72.109 109.281,-130.652 243.885,-130.652c134.604,-0 243.885,58.543 243.885,130.652c-0,72.109 -109.281,130.653 -243.885,130.653Zm-561.806,-2499.82c-50.477,0 -91.457,-163.922 -91.457,-365.827c-0,-201.906 40.98,-365.827 91.457,-365.827c50.476,-0 91.456,163.921 91.456,365.827c0,201.905 -40.98,365.827 -91.456,365.827Z" style="fill:#ffcb55;"/><path d="M60333.9,43026.9l-37.27,-511.08c33.285,-168.266 150.553,-177.78 236.983,-498.515c45.501,-168.849 -70.308,-483.467 -160.503,-630.485c-53.23,-86.765 -122.095,-62.76 -207.932,-165.257c-83.356,-99.535 -92.909,-241.003 -163.143,-241.003c-219.642,0 -543.89,-134.02 -829.425,261.335c-86.262,119.44 -56.642,382.772 -85.856,438.48c-67.487,128.69 -432.25,300.995 -500.98,465.406c-68.729,164.412 4.806,377.981 88.602,521.062c83.797,143.081 95.053,138.485 471.754,308.634c306.925,138.632 439.474,409.771 598.668,483.314c123.663,57.129 244.769,12.032 356.493,-42.056c114.374,-55.371 161.346,-264.675 232.609,-389.835Zm-541.622,141.047c-50.477,-0 -91.457,-39.029 -91.457,-87.102c-0,-48.073 40.98,-87.102 91.457,-87.102c50.476,0 91.456,39.029 91.456,87.102c0,48.073 -40.98,87.102 -91.456,87.102Zm-135.008,-618.422c-134.604,-0 -243.885,-119.039 -243.885,-265.661c0,-146.622 109.281,-265.66 243.885,-265.66c134.604,-0 243.885,119.038 243.885,265.66c-0,146.622 -109.281,265.661 -243.885,265.661Zm-483.415,-139.363c-12.018,-0 -21.775,-29.272 -21.775,-65.327c-0,-36.054 9.757,-65.326 21.775,-65.326c12.019,0 21.776,29.272 21.776,65.326c-0,36.055 -9.757,65.327 -21.776,65.327Zm374.538,-583.582c-26.44,0 -47.906,-85.864 -47.906,-191.624c-0,-105.76 21.466,-191.623 47.906,-191.623c26.44,-0 47.906,85.863 47.906,191.623c-0,105.76 -21.466,191.624 -47.906,191.624Z" style="fill:#d56e0e;"/></g><g><path d="M32069.4,21264.6c326.134,21.088 605.963,-194.53 624.499,-481.2c18.537,-286.669 -231.193,-536.53 -557.327,-557.619c-326.134,-21.088 -605.963,194.53 -624.499,481.2c-18.537,286.669 231.193,536.53 557.327,557.619Z" style="fill:#d56e0e;"/><path d="M33040.9,22717.6c162.371,10.499 302.267,-105.786 312.207,-259.516c9.941,-153.73 -113.814,-287.063 -276.185,-297.563c-162.371,-10.499 -302.267,105.786 -312.207,259.516c-9.941,153.73 113.814,287.064 276.185,297.563Z" style="fill:#d56e0e;"/><path d="M33350.2,24024.9c162.371,10.5 302.267,-105.786 312.207,-259.516c9.941,-153.73 -113.814,-287.063 -276.185,-297.563c-162.372,-10.499 -302.267,105.786 -312.208,259.516c-9.94,153.73 113.814,287.064 276.186,297.563Z" style="fill:#d56e0e;"/><path d="M34193.6,24010.8c162.372,10.499 302.267,-105.786 312.208,-259.516c9.94,-153.73 -113.814,-287.063 -276.186,-297.563c-162.371,-10.499 -302.267,105.786 -312.207,259.516c-9.941,153.73 113.814,287.064 276.185,297.563Z" style="fill:#d56e0e;"/><path d="M33882.9,23323.8c162.372,10.5 299.441,-62.08 305.901,-161.978c6.459,-99.898 -120.121,-189.526 -282.493,-200.026c-162.371,-10.499 -299.441,62.081 -305.9,161.979c-6.46,99.898 120.121,189.526 282.492,200.025Z" style="fill:#d56e0e;"/><path d="M45979,26777.5c180.651,7.229 330.988,-78.644 335.51,-191.645c4.522,-113 -138.473,-210.611 -319.124,-217.84c-180.651,-7.229 -330.988,78.644 -335.51,191.644c-4.521,113.001 138.473,210.612 319.124,217.841Z" style="fill:#d56e0e;"/><path d="M44427.2,24920.1c180.65,7.229 332.231,-109.71 338.284,-260.975c6.053,-151.266 -135.699,-279.943 -316.35,-287.172c-180.651,-7.229 -332.231,109.71 -338.284,260.975c-6.053,151.266 135.699,279.943 316.35,287.172Z" style="fill:#d56e0e;"/><path d="M45892.3,22267.3c124.57,4.985 229.18,-77.805 233.46,-184.765c4.28,-106.959 -93.38,-197.844 -217.95,-202.828c-124.57,-4.985 -229.179,77.805 -233.459,184.764c-4.281,106.96 93.379,197.844 217.949,202.829Z" style="fill:#d56e0e;"/><path d="M42110.9,20889.8c124.57,4.985 229.18,-77.805 233.46,-184.764c4.28,-106.96 -93.38,-197.844 -217.95,-202.829c-124.569,-4.985 -229.179,77.805 -233.459,184.765c-4.28,106.959 93.38,197.844 217.949,202.828Z" style="fill:#d56e0e;"/><path d="M41450.3,20496.2c124.57,4.985 229.18,-77.806 233.46,-184.765c4.28,-106.959 -93.38,-197.844 -217.95,-202.829c-124.569,-4.984 -229.179,77.806 -233.459,184.765c-4.281,106.96 93.379,197.844 217.949,202.829Z" style="fill:#d56e0e;"/><path d="M38215.1,36146.4c85.692,121.768 206.874,205.058 306.03,356.985c73.682,112.896 117.154,307.525 220.499,351.745c242.419,103.727 292.067,76.397 588.272,-17.273c75.392,-23.842 66.213,-416.734 197.381,-468.427c48.872,-19.26 131.175,37.904 125.765,131.308c-7.969,137.572 -111.958,333.565 -22.706,314.658c527.061,-111.648 905.894,-686.006 1019.02,-1171.01c113.123,-485.007 -374.599,-1247.12 -340.28,-1739.03c29.21,-418.68 458.743,-740.096 973.53,-740.096c514.786,0 853.647,226.918 1029.57,-68.638c285.992,-480.467 686.382,-2814.17 686.382,-2814.17c-0,-0 -114.397,-646.343 -274.553,-823.658c-160.156,-177.316 -462.329,-147.717 -686.382,-240.234c-480.048,-198.223 -1770.64,-485.799 -2193.91,-949.107c-418.442,-458.024 -531.713,-1238.89 -345.705,-1830.74c188.755,-600.584 857.977,-1241.21 960.935,-1750.27c89.107,-440.588 -171.596,-789.339 -343.191,-1304.13c-171.596,-514.786 -1132.53,-2127.78 -1132.53,-2127.78c0,0 -1094.33,-992.572 -1407.08,-1407.08c-236.422,-313.344 -227.738,-770.683 -469.432,-1079.98c-251.499,-321.845 -683.86,-684.217 -1039.56,-851.089c-333.433,-156.425 -1010.16,170.923 -1094.65,-150.144c-177.716,-675.275 145.486,-1448.08 -7.511,-1515.1c-121.281,-53.126 -485.901,196.164 -632.516,647.564c-179.605,552.968 -144.664,1347.3 -323.834,1496.4c-347.656,289.307 -397.503,702.444 -605.077,848.176c-107.226,75.281 -750.976,87.069 -969.603,182.463c-122.79,53.578 -110.198,307.572 -71.401,351.322c149.578,168.673 529.443,606.931 1021.53,921.655c392.328,250.922 919.454,284.187 1137.66,487.174c382.004,355.353 795.949,740.531 960.935,1235.49c188.755,566.265 1098.21,2470.97 171.595,2162.1c-305.263,-101.754 -1362.27,164.276 -2038.12,-29.558c-405.048,-116.167 -510.065,-424.5 -810.891,-416.102c-720.888,20.125 -695.585,358.973 -1045.53,387.685c-176.141,14.453 -444.702,347.31 -543.284,422.096c-165.876,125.837 -504.123,665.452 -744.357,287.942c-240.233,-377.51 -396.792,-690.755 -646.241,-663.891c-370.694,39.922 -773.708,411.988 -1577.92,903.42c-590.344,360.743 -984.034,726.183 -1062.36,961.643c-114.702,344.798 505.265,836.892 693.991,787.378c208.526,-54.709 -57.598,-831.971 235.881,-1056.99c130.984,-100.428 441.617,-283.192 733.795,-337.187c362.465,-66.984 708.65,9.657 791.198,44.084c208.299,86.871 284.154,335.154 269.192,436.676c-38.487,261.142 -560.748,1143.78 -1350.09,1040.82c-789.34,-102.957 -1140.28,398.441 -1414.84,741.632c-274.553,343.191 -1175.94,651.912 -1540.1,1204.48c-234.218,355.393 -297.517,1249.54 108.592,1312.46c406.11,62.918 1510.63,-448.123 1642.08,-305.194c131.452,142.93 -196.983,468.394 -853.369,1162.77c-177.506,187.78 -136.647,597.958 -216.457,831.831c-67.541,197.919 -259.804,231.272 -348.797,291.89c-142.884,97.326 -259.425,-204.93 -252.535,-419.686c5.224,-162.82 242.036,-609.614 -448.339,-261.586c-282.033,142.176 -246.158,512.705 -191.896,737.21c54.262,224.506 274.462,430.824 517.469,609.823c412.229,303.649 810.79,699.708 839.578,1041.57c45.759,543.386 284.626,1261.18 570.618,1541.45c285.993,280.272 1431.64,-46.341 1887.55,308.872c455.908,355.212 521.864,1444.89 847.896,1822.4c230.342,266.712 696.463,374.018 1108.29,442.656c411.83,68.638 1210.67,885.8 1656.82,1040.24c357.397,123.715 687.738,66.908 1020.07,-113.62c463.308,-251.674 1647.32,-1441.4 1647.32,-1441.4c-0,-0 460.129,-483.191 728.962,-711.985c268.833,-228.794 702.517,-75.079 1114.35,-315.313c411.83,-240.233 463.422,-309.327 703.656,-515.241c109.206,-93.606 211.628,-796.578 366.235,-863.515c185.5,-80.311 39.983,477.191 162.411,651.16Zm-6040.27,123.556c-75.114,-0 -136.096,-97.573 -136.096,-217.754c-0,-120.182 60.982,-217.755 136.096,-217.755c75.114,0 136.097,97.573 136.097,217.755c-0,120.181 -60.983,217.754 -136.097,217.754Zm455.923,-1292.92c-71.358,0 -129.291,-82.326 -129.291,-183.73c-0,-101.403 57.933,-183.73 129.291,-183.73c71.358,-0 129.292,82.327 129.292,183.73c-0,101.404 -57.934,183.73 -129.292,183.73Zm2381.69,-4804.2c-108.915,-0 -197.34,-94.523 -197.34,-210.95c-0,-116.426 88.425,-210.949 197.34,-210.949c108.914,-0 197.339,94.523 197.339,210.949c0,116.427 -88.425,210.95 -197.339,210.95Zm-1045.25,4468.05c-36.056,61.578 -115.323,82.299 -176.901,46.244c-61.579,-36.056 -82.3,-115.323 -46.244,-176.902c36.056,-61.579 115.323,-82.3 176.901,-46.244c61.579,36.056 82.3,115.323 46.244,176.902Zm-3248.6,-1501.15c-90.137,-0 -163.316,-60.983 -163.316,-136.096c0,-75.114 73.179,-136.097 163.316,-136.097c90.136,0 163.316,60.983 163.316,136.097c-0,75.113 -73.18,136.096 -163.316,136.096Zm-694.092,27.219c-90.137,0 -163.316,-94.523 -163.316,-210.949c0,-116.426 73.179,-210.95 163.316,-210.95c90.136,0 163.316,94.524 163.316,210.95c-0,116.426 -73.18,210.949 -163.316,210.949Zm7403.65,462.728c-82.625,0 -149.706,-70.13 -149.706,-156.511c-0,-86.38 67.081,-156.511 149.706,-156.511c82.625,0 149.706,70.131 149.706,156.511c0,86.381 -67.081,156.511 -149.706,156.511Zm-3436.44,1673.99c-108.915,-0 -197.34,-85.376 -197.34,-190.535c0,-105.159 88.425,-190.535 197.34,-190.535c108.915,-0 197.34,85.376 197.34,190.535c-0,105.159 -88.425,190.535 -197.34,190.535Zm6866.07,-5130.84c-90.136,-0 -163.316,-103.671 -163.316,-231.364c0,-127.693 73.18,-231.364 163.316,-231.364c90.137,-0 163.316,103.671 163.316,231.364c-0,127.693 -73.179,231.364 -163.316,231.364Zm-7811.94,-1143.21c-105.16,0 -190.536,-94.523 -190.536,-210.949c0,-116.426 85.376,-210.95 190.536,-210.95c105.159,0 190.535,94.524 190.535,210.95c-0,116.426 -85.376,210.949 -190.535,210.949Zm7335.6,3865.14c-67.602,0 -122.486,-57.933 -122.486,-129.291c-0,-71.358 54.884,-129.292 122.486,-129.292c67.603,0 122.487,57.934 122.487,129.292c0,71.358 -54.884,129.291 -122.487,129.291Zm-4246.21,-612.434c-67.602,0 -122.486,-76.228 -122.486,-170.12c-0,-93.892 54.884,-170.121 122.486,-170.121c67.603,0 122.487,76.229 122.487,170.121c0,93.892 -54.884,170.12 -122.487,170.12Zm-7140.51,-5387.88c393.879,-128.054 660.059,-396.886 594.038,-599.958c-66.021,-203.072 -439.401,-263.977 -833.281,-135.923c-393.879,128.054 -660.059,396.886 -594.038,599.958c66.021,203.072 439.401,263.977 833.281,135.923Zm11897.1,7184.35c131.449,-0 238.169,-134.162 238.169,-299.413c0,-165.25 -106.72,-299.412 -238.169,-299.412c-131.449,0 -238.169,134.162 -238.169,299.412c0,165.251 106.72,299.413 238.169,299.413Z" style="fill:#d56e0e;stroke:#000;stroke-width:6.05px;"/><path d="M45773.3,33737c37.051,3.705 261.229,179.877 276.045,343.901c13.965,154.596 -105.734,344.822 -92.914,460.141c10.25,92.199 -55.675,274.042 -25.856,346.034c22.309,53.859 76.109,119.6 113.823,179.614c48.509,77.193 144.358,128.736 177.232,283.542c38.435,180.997 151.142,539.792 -21.592,683.737c-172.734,143.945 -417.44,273.495 -431.834,546.99c-9.917,188.416 -29.922,465.721 -184.217,575.366c-69.672,49.51 -273.077,143.044 -412.354,74.784c-131.038,-64.222 -215.851,-259.865 -342.882,-315.941c-117.313,-51.786 -279.455,36.638 -341.655,-35.928c-84.337,-98.394 -376.309,-236.136 -441.178,-541.254c-34.776,-163.571 -53.884,-281.803 -141.797,-384.787c-251.903,-295.087 -155.791,-268.096 -292.538,-707.127c-83.762,-268.922 -43.826,-535.04 40.567,-682.973c53.383,-93.578 332.183,-218.809 469.435,-211.533c146.088,7.744 263.149,481.111 407.094,257.997c143.945,-223.114 128.152,-634.355 250.505,-850.272c122.353,-215.917 922.144,-29.488 994.116,-22.291Z" style="fill:#d56e0e;stroke:#000;stroke-width:6.05px;"/><path d="M32949.5,18975.9c156.347,-50.83 240.173,-224.693 187.076,-388.013c-53.097,-163.32 -223.139,-254.648 -379.486,-203.818c-156.348,50.83 -240.174,224.693 -187.077,388.013c53.097,163.32 223.139,254.648 379.487,203.818Z" style="fill:#d56e0e;"/><path d="M34513.5,22923.1c156.347,-50.83 240.173,-224.693 187.076,-388.013c-53.097,-163.321 -223.139,-254.649 -379.487,-203.818c-156.347,50.83 -240.173,224.692 -187.076,388.013c53.097,163.32 223.139,254.648 379.487,203.818Z" style="fill:#d56e0e;"/></g><g><path d="M59181.5,49209.9c219.158,67.434 455.178,-66.612 526.731,-299.153c71.552,-232.541 -48.285,-476.083 -267.443,-543.518c-219.158,-67.434 -455.179,66.611 -526.731,299.152c-71.553,232.542 48.284,476.084 267.443,543.519Z" style="fill:#ffcb55;"/><path d="M62473.4,46645.5c200.417,9.792 233.334,458.176 233.334,554.906c0,96.731 76.508,395.372 23.319,502.367c-68.35,137.491 -215.341,357.271 -307.466,412.546c-92.124,55.274 -325.629,286.333 -439.391,318.333c-119.469,33.605 -355.298,-46.257 -475.349,-98.709c-153.788,-67.192 -199.823,-360.712 -199.823,-464.186c-0,-184.25 -1.071,-557.191 92.988,-750.384c88.959,-182.716 220.777,-296.245 471.368,-408.775c202.879,-91.106 506.341,-70.725 601.02,-66.098Z" style="fill:#ffcb55;stroke:#000;stroke-width:6.05px;"/><path d="M63497.6,46120.6c134.642,61.831 254.196,176.696 313.381,421.501c37.233,154.008 -66.623,292.541 -80.066,384.434c-19.229,131.431 -44.403,273.64 -168.755,383.286c-83.153,73.318 -245.722,148.213 -319.506,68.124c-94.363,-102.427 -206.754,-481.549 -246.675,-682.687c-28.101,-141.585 -16.571,-373.094 67.032,-468.87c83.604,-95.777 299.948,-167.62 434.589,-105.788Z" style="fill:#d56e0e;stroke:#000;stroke-width:6.05px;"/><path d="M64569.2,45001.1c112.853,26.869 175.037,221.866 188.856,386.923c13.818,165.056 -112.853,448.34 -211.887,538.929c-96.325,88.111 -308.617,239.524 -391.529,-9.213c-82.912,-248.736 -32.244,-506.685 41.456,-654.084c51.168,-102.337 260.252,-289.425 373.104,-262.555Z" style="fill:#d56e0e;stroke:#000;stroke-width:6.05px;"/><path d="M46778.2,37729c143.945,82.768 -45.583,622.561 -131.949,615.363c-86.367,-7.197 -225.002,57.247 -298.686,130.75c-81.768,81.569 -146.343,225.514 -191.926,358.663c-35.506,103.716 -96.163,295.086 -87.566,380.254c2.451,24.281 -16.192,105.742 14.73,133.008c24.88,21.939 96.652,-8.126 124.416,-2.259c74.233,15.687 246.164,-46.741 306.25,-36.628c155.936,26.244 75.92,195.458 171.168,265.739c52.018,38.383 163.268,1.872 209.679,51.529c71.315,76.303 71.174,241.77 104.6,303.535c24.197,44.711 85.813,240.317 166.205,272.263c72.506,28.813 165.881,-99 162.468,-177.499c-5.205,-119.704 -218.567,-792.98 -127.819,-942.179c34.745,-57.125 186.484,71.622 275.361,95.303c88.878,23.681 188.578,6.072 257.902,46.783c72.172,42.384 135.148,80.77 199.124,195.526c56.258,100.913 153.741,178.731 148.743,283.091c-4.998,104.36 -150.288,145.615 -190.727,319.078c-45.582,195.525 245.905,597.37 109.158,842.076c-136.748,244.706 -255.603,217.942 -311.88,323.875c-61.177,115.156 -33.808,238.315 -19.193,307.083c10.39,48.891 34.343,76.969 106.881,105.522c68.761,27.066 169.415,7.598 209.274,-33.366c93.764,-96.363 61.047,-380.493 210.443,-590.359c46.531,-65.365 234.075,-186.51 345.891,-245.841c127.351,-67.574 209.616,-313.753 388.226,-459.487c218.316,-178.132 509.805,-368.259 545.791,-663.345c35.986,-295.087 7.197,-442.63 -43.183,-651.35c-50.381,-208.719 345.467,-381.453 554.187,-251.903c55.875,34.682 31.524,135.45 82.488,206.76c139.41,195.061 336.933,441.853 428.516,587.336c40.314,64.04 261.515,289.772 239.376,397.911c-17.065,83.36 -122.015,148.498 -397.715,330.209c-633.356,417.439 -439.032,546.99 -532.597,618.962c-37.158,28.584 -546.69,194.203 -782.336,330.593c-357.705,207.036 -591.213,579.061 -625.924,696.211c-57.578,194.326 -434.231,481.017 -707.726,524.2c-273.495,43.183 -683.738,367.059 -1057.99,-539.793c-374.256,-906.851 -215.917,-863.668 -374.256,-1230.73c-158.339,-367.059 -339.47,-500.207 -477.417,-569.78c-112.697,-56.839 -258.055,156.62 -350.265,152.34c-89.903,-4.172 -160.207,-98.575 -202.997,-178.019c-59.803,-111.031 -37.995,-257.216 -45.356,-317.452c-11.612,-95.019 55.296,-133.109 172.58,-124.543c113.022,8.255 193.83,-65.171 205.322,-112.904c18.906,-78.536 -165.257,-58.221 -201.729,-129.272c-73.172,-142.545 -52.56,-134.185 136.955,-610.844c111.916,-281.486 -2.422,-429.919 16.306,-543.032c9.354,-56.502 34.167,-175.126 88.131,-229.863c67.273,-68.235 166.558,-70.416 183.452,-114.764c29.527,-77.507 276.73,129.383 506.627,109.239c218.411,-19.137 418.863,-268.317 488.991,-227.993Z" style="fill:#d56e0e;stroke:#000;stroke-width:6.05px;"/><path d="M48599.1,38094.8c92.364,-80.369 335.071,-221.916 422.237,-170.336c54.256,32.106 250.757,200.678 277.075,349.357c15.964,90.187 -118.637,163.955 -133.13,221.624c-33.217,132.177 -221.915,272.296 -331.073,239.908c-109.158,-32.387 -284.691,-327.474 -323.876,-434.233c-25.797,-70.284 54.762,-176.732 88.767,-206.32Z" style="fill:#d56e0e;stroke:#000;stroke-width:6.05px;"/><path d="M48162.5,38615.4c111.557,10.396 311.481,240.709 333.473,381.455c21.992,140.746 -35.533,342.216 -191.927,299.884c-159.539,-43.183 -386.652,-253.503 -410.243,-367.059c-23.591,-113.557 157.14,-324.676 268.697,-314.28Z" style="fill:#d56e0e;stroke:#000;stroke-width:6.05px;"/><path d="M48352,36981.7c73.172,110.358 57.578,617.363 -47.982,707.729c-105.559,90.365 -292.288,-165.537 -383.853,-247.106c-81.107,-72.253 -40.511,-271.706 26.39,-343.068c71.973,-76.77 332.273,-227.913 405.445,-117.555Z" style="fill:#d56e0e;stroke:#000;stroke-width:6.05px;"/><path d="M49100.5,36573.8c92.364,32.387 271.095,235.109 347.866,381.453c76.77,146.344 220.715,546.99 112.757,496.609c-107.959,-50.38 -170.65,-11.648 -251.903,-35.986c-117.012,-35.049 -345.588,-46.546 -450.164,-174.307c-98.07,-119.813 -57.897,-340.558 -17.657,-451.852c38.227,-105.726 166.736,-248.305 259.101,-215.917Z" style="fill:#d56e0e;stroke:#000;stroke-width:6.05px;"/><path d="M51749.1,40215.6c201.523,-91.165 443.83,-497.809 539.793,-503.807c95.963,-5.998 -7.909,226.489 -34.299,327.25c-20.068,76.622 -181.618,320.501 -124.04,277.318c33.635,-25.226 91.386,0.619 184.224,62.699c66.086,44.192 178.844,118.301 182.835,153.218c9.596,83.968 -185.293,98.435 -321.195,135.605c-140.347,38.385 -336.996,-60.54 -485.739,-34.15c-137.738,24.438 -265.148,164.287 -418.433,215.917c-153.285,51.63 -404.113,57.877 -501.276,93.864c-97.162,35.986 -127.745,352.207 -142.239,436.838c-27.705,161.772 9.596,374.257 -23.991,533.795c-17.53,83.266 -58.573,159.945 -93.564,237.509c-71.972,159.539 -151.359,531.75 -338.27,719.724c-78.723,79.17 -227.83,47.497 -383.885,138.251c-262.453,152.631 -348.09,314.282 -450.845,263.651c-61.246,-30.178 -58.712,-150.215 -57.802,-289.966c0.617,-94.715 -15.726,-204.97 9.258,-277.473c33.052,-95.914 90.131,-78.75 186.354,-132.503c85.3,-47.652 209.068,-165.162 259.725,-256.842c32.771,-59.306 89.965,-131.163 114.603,-224.537c22.515,-85.328 11.907,-190.603 51.588,-280.372c28.555,-64.599 119.83,-86.443 159.973,-142.064c47.987,-66.489 43.49,-163.234 51.916,-193.566c35.986,-129.55 -1.662,-261.902 78.307,-355.907c95.02,-111.698 385.053,-148.949 491.812,-255.708c80.019,-80.019 33.786,-265.926 94.763,-354.857c60.977,-88.932 133.552,-164.555 271.096,-178.732c137.544,-14.176 296.147,61.9 488.195,51.69c106.037,-5.638 139.449,-134.415 211.136,-166.845Z" style="fill:#d56e0e;stroke:#000;stroke-width:6.05px;"/><path d="M51418,41331.2c83.967,85.167 268.696,371.857 172.733,460.623c-95.963,88.766 -573.38,51.581 -657.348,-33.586c-83.967,-85.168 15.195,-334.273 95.964,-405.445c80.769,-71.173 310.279,-101.083 388.651,-21.592Z" style="fill:#d56e0e;stroke:#000;stroke-width:6.05px;"/><path d="M54516.3,45024.8c41.529,-8.987 187.692,31.122 277.554,39.93c86.895,8.519 186.608,-1.522 261.617,12.923c105.749,20.366 224.127,53.833 289.966,26.359c22.766,-9.5 56.136,-30.438 62.097,-63.818c11.278,-63.151 -14.719,-152.585 31.176,-165.118c97.544,-26.636 484.794,-46.041 491.991,69.114c3.905,62.484 18.635,292.26 -99.094,439.563c-99.244,124.173 -323.274,172.411 -419.107,186.597c-254.782,37.713 -597.13,97.594 -769.24,158.627c-105.362,37.362 -153.733,72.452 -263.419,207.568c-109.686,135.117 -324.164,332.033 -316.391,437.304c3.421,46.329 155.002,63.5 247.424,123.92c117.587,76.872 187.862,195.253 263.004,222.411c78.456,28.356 100.162,-45.279 160.581,-74.047c48.769,-23.22 142.024,-5.973 161.279,30.576c19.343,36.715 -71.425,65.455 -116.501,142.302c-50.368,85.867 -58.571,219.203 -94.09,235.531c-68.607,31.539 -222.721,-115.467 -291.933,-24.815c-140.841,184.471 -238.091,524.245 -309.035,535.696c-86.407,13.947 -51.084,-265.971 -67.698,-451.872c-9.87,-110.441 -67.876,-151.933 -98.99,-176.878c-83.488,-66.934 -229.448,-63.384 -315.815,-26.198c-86.367,37.186 -73.652,135.308 -96.443,221.675c-22.791,86.367 35.478,182.071 28.789,273.495c-7.197,98.362 -28.789,251.903 -71.973,316.678c-43.183,64.775 -350.697,131.47 -514.746,196.341c-164.049,64.871 -369.973,312.604 -469.548,192.886c-54.391,-65.394 -55.072,-177.573 -68.675,-317.135c-11.3,-115.939 -48.647,-253.629 23.686,-372.96c87.397,-144.184 362.689,-128.56 406.578,-205.241c109.585,-191.466 121.203,-289.329 193.175,-390.09c71.972,-100.761 208.431,-153.206 270.328,-255.646c61.896,-102.441 328.176,-75.488 386.635,-160.931c45.61,-66.662 -16.879,-197.278 0.97,-301.059c17.321,-100.706 -7.285,-209.389 3.348,-276.734c21.592,-136.748 52.681,-209.267 106.232,-288.466c49.081,-72.589 104.522,-135.729 192.042,-131.452c93.371,4.562 212.289,9.352 303.699,-30.028c78.975,-34.023 93.348,-178.881 126.623,-269.965c21.866,-59.853 64.98,-80.784 93.904,-87.043Z" style="fill:#ffcb55;stroke:#000;stroke-width:6.05px;"/><path d="M55453.9,46466.8c30.935,-89.795 186.181,-187.707 265.846,-228.808c79.507,-41.02 233.779,23.186 285.843,-36.224c82.571,-94.22 -15.028,-285.914 15.022,-321.974c37.328,-44.794 223.286,-65.01 268.677,54.483c42.126,110.898 71.662,249.144 58.797,334.168c-27.59,182.33 -130.414,356.983 -173.598,436.152c-19.923,36.526 -254.682,253.986 -306.128,376.262c-60.065,142.761 -132.291,353.789 -174.935,396.433c-79.17,79.17 -202.1,-95.081 -226.569,-125.519c-75.019,-93.321 -3.358,-216.281 -2.446,-388.343c0.766,-144.605 -48.459,-386.471 -10.509,-496.63Z" style="fill:#d56e0e;stroke:#000;stroke-width:6.05px;"/></g><ellipse cx="38920.7" cy="39411.5" rx="38918.7" ry="39406.4" style="fill:#ffc451;fill-opacity:0.47;"/><g><path d="M8708.66,43271.3c3.39,-64.401 211.845,223.708 264.383,213.54c52.538,-10.169 3.39,-216.93 50.843,-274.551c47.453,-57.622 174.56,-125.413 233.877,-71.18c59.317,54.232 120.328,269.467 122.023,396.574c1.627,122.059 50.843,271.162 20.337,355.9c-27.096,75.266 -113.847,152.459 -193.203,142.36c-93.212,-11.864 -311.042,-129.316 -366.068,-213.54c-83.044,-127.107 -135.581,-484.702 -132.192,-549.103Z" style="fill:#b95104;"/><path d="M5548.87,40855.9l292.855,318.886c-0,0 145.061,393.007 52.063,553.17c-97.618,168.121 -444.705,498.938 -637.772,455.552c-193.068,-43.386 -430.605,-488.091 -520.631,-715.867c-79.773,-201.834 -93.28,-481.583 -19.524,-650.788c73.756,-169.205 334.072,-315.633 462.06,-364.442c97.839,-37.311 244.046,4.339 305.87,71.587c61.825,67.248 65.079,331.902 65.079,331.902Z" style="fill:#b95104;"/><path d="M7879.71,47503.8c40.675,193.203 128.802,281.331 213.54,376.238c78.267,87.658 206.761,205.066 294.889,193.202c88.128,-11.863 152.528,-189.813 233.877,-264.382c76.972,-70.558 284.72,40.674 254.214,-183.035c-30.505,-223.708 -55.927,-462.67 -122.022,-549.103c-54.046,-70.674 -245.826,117.991 -274.552,30.506c-37.285,-113.549 77.959,-542.324 50.843,-711.8c-17.27,-107.936 -149.139,-240.656 -213.54,-305.057c-57.92,-57.92 -77.959,-152.529 -101.686,-223.709c-21.862,-65.585 81.349,-71.18 -40.674,-203.371c-122.023,-132.192 -310.142,177.95 -335.563,274.551c-25.421,96.602 126.994,200.55 183.034,305.057c62.706,116.939 167.782,267.773 193.203,396.575c24.426,123.755 18.643,269.467 -40.674,376.237c-59.317,106.77 -266.078,183.034 -315.226,264.383c-38.72,64.088 -20.337,30.505 20.337,223.708Z" style="fill:#b95104;"/><ellipse cx="8940.77" cy="35271" rx="150.94" ry="246.27" style="fill:#b95104;"/><ellipse cx="9226.76" cy="34055.6" rx="135.051" ry="222.437" style="fill:#b95104;"/><ellipse cx="9075.82" cy="32800.4" rx="206.549" ry="619.647" style="fill:#b95104;"/><ellipse cx="4047.15" cy="39862.8" rx="119.163" ry="341.6" style="fill:#b95104;"/><ellipse cx="3578.45" cy="42730.6" rx="158.884" ry="460.763" style="fill:#b95104;"/><ellipse cx="2521.87" cy="42182.5" rx="119.163" ry="309.823" style="fill:#b95104;"/><ellipse cx="3038.24" cy="43771.3" rx="95.33" ry="230.381" style="fill:#b95104;"/><ellipse cx="2498.03" cy="43755.4" rx="95.33" ry="230.381" style="fill:#b95104;"/><ellipse cx="10283.3" cy="42818" rx="158.884" ry="246.27" style="fill:#b95104;"/><path d="M7266.92,26535.2c102.679,38.367 238.372,-70.532 302.829,-243.032c64.457,-172.5 33.426,-343.698 -69.253,-382.066c-102.678,-38.367 -238.372,70.532 -302.829,243.032c-64.457,172.501 -33.426,343.699 69.253,382.066Z" style="fill:#f68823;"/><path d="M12617.5,20211.8c131.098,70.966 330.735,-43.593 445.533,-255.664c114.797,-212.071 101.563,-441.861 -29.535,-512.827c-131.098,-70.966 -330.735,43.594 -445.532,255.665c-114.798,212.07 -101.564,441.86 29.534,512.826Z" style="fill:#f68823;"/><path d="M10431.1,20292.3c133.699,75.326 357.567,-68.207 499.609,-320.326c142.043,-252.118 148.817,-517.961 15.118,-593.286c-133.699,-75.326 -357.567,68.207 -499.609,320.325c-142.043,252.119 -148.817,517.962 -15.118,593.287Z" style="fill:#f68823;"/><path d="M8909.86,19956.9c100.84,56.813 285.551,-79.601 412.223,-304.437c126.672,-224.837 147.644,-453.5 46.805,-510.313c-100.84,-56.813 -285.551,79.601 -412.223,304.437c-126.672,224.837 -147.645,453.5 -46.805,510.313Z" style="fill:#f68823;"/><path d="M15417.4,19544.1c132.246,74.507 330.19,-25.773 441.757,-223.798c111.566,-198.024 94.777,-419.285 -37.469,-493.792c-132.246,-74.507 -330.191,25.774 -441.757,223.798c-111.567,198.024 -94.777,419.285 37.469,493.792Z" style="fill:#f68823;"/><path d="M18344.1,12932.3c84.582,126.04 390.962,68.848 683.753,-127.636c292.791,-196.485 461.831,-458.334 377.249,-584.374c-84.583,-126.04 -390.962,-68.849 -683.753,127.636c-292.792,196.484 -461.831,458.333 -377.249,584.374Z" style="fill:#f68823;"/><path d="M21508.7,13985.8c165.544,246.685 683.788,189.374 1156.58,-127.901c472.788,-317.276 722.232,-775.139 556.689,-1021.82c-165.544,-246.684 -683.788,-189.373 -1156.58,127.902c-472.788,317.275 -722.232,775.139 -556.689,1021.82Z" style="fill:#f68823;"/><path d="M25049.6,14662.8c91.503,-122.722 70.679,-293.273 -46.473,-380.623c-117.151,-87.349 -286.552,-58.632 -378.055,64.09c-91.503,122.722 -70.679,293.273 46.473,380.623c117.151,87.35 286.552,58.632 378.055,-64.09Z" style="fill:#d56e0e;"/><path d="M23549.7,9198.01c57.193,85.226 213.514,80.677 348.864,-10.153c135.351,-90.831 198.805,-233.766 141.612,-318.992c-57.193,-85.226 -213.514,-80.676 -348.864,10.154c-135.351,90.83 -198.805,233.765 -141.612,318.991Z" style="fill:#f68823;"/><path d="M21966.1,7743.82c77.641,115.697 298.036,104.027 491.86,-26.042c193.823,-130.07 288.149,-329.602 210.508,-445.298c-77.641,-115.697 -298.036,-104.028 -491.86,26.042c-193.823,130.07 -288.149,329.601 -210.508,445.298Z" style="fill:#f68823;"/><path d="M25474.7,9614.85c58.581,87.295 229.141,75.626 380.641,-26.042c151.5,-101.668 226.939,-255.081 168.357,-342.376c-58.581,-87.295 -229.14,-75.626 -380.64,26.042c-151.501,101.668 -226.939,255.082 -168.358,342.376Z" style="fill:#d56e0e;"/><path d="M20336.5,12775.3c46.329,69.036 184.851,57.367 309.143,-26.042c124.293,-83.41 187.59,-207.176 141.261,-276.212c-46.328,-69.036 -184.85,-57.367 -309.143,26.042c-124.292,83.409 -187.589,207.176 -141.261,276.212Z" style="fill:#f68823;"/><path d="M23976.2,17933.3c76.092,113.388 277.339,111.851 449.126,-3.431c171.788,-115.282 249.481,-300.933 173.389,-414.322c-76.092,-113.388 -277.339,-111.851 -449.126,3.431c-171.788,115.282 -249.48,300.934 -173.389,414.322Z" style="fill:#f68823;"/><path d="M25457,22540.7c198.004,12.804 371.467,-173.354 387.122,-415.451c15.654,-242.097 -132.39,-449.044 -330.394,-461.847c-198.004,-12.804 -371.468,173.354 -387.123,415.451c-15.654,242.097 132.391,449.044 330.395,461.847Z" style="fill:#d56e0e;"/><path d="M25962.2,28365.5c325.149,21.025 606.867,-236.23 628.716,-574.122c21.849,-337.892 -224.392,-629.287 -549.542,-650.311c-325.149,-21.025 -606.867,236.23 -628.716,574.122c-21.849,337.892 224.392,629.287 549.542,650.311Z" style="fill:#d56e0e;"/><path d="M24096.6,16710.9c91.503,-122.722 101.52,-270.278 22.356,-329.303c-79.165,-59.026 -217.725,-7.313 -309.227,115.409c-91.503,122.722 -101.52,270.278 -22.356,329.303c79.164,59.026 217.724,7.313 309.227,-115.409Z" style="fill:#f68823;"/><path d="M2782.22,31724.7c319.038,96.19 756.851,-418.732 977.074,-1149.16c220.224,-730.43 139.999,-1401.54 -179.039,-1497.73c-319.038,-96.19 -756.85,418.732 -977.074,1149.16c-220.224,730.429 -139.999,1401.54 179.039,1497.73Z" style="fill:#b95104;"/><path d="M6842.9,48716.1c-0,0 -62.91,391.558 -91.11,553.17c-21.308,122.109 -58.571,263.569 13.015,377.457c71.587,113.888 266.824,299.363 331.902,377.457c65.079,78.095 216.93,271.162 279.839,260.316c62.91,-10.847 59.656,-314.548 110.634,-423.013c40.03,-85.17 188.729,-156.189 195.237,-227.776c6.508,-71.586 65.079,-302.616 104.126,-396.98c20.999,-50.749 13.016,-162.697 130.157,-169.205c117.142,-6.508 531.478,226.691 696.344,325.394c122.347,73.247 199.575,231.03 292.855,266.823c63.077,24.204 78.094,39.047 201.744,-19.524c123.65,-58.571 299.362,-222.352 390.473,-331.902c73.726,-88.647 97.618,-45.555 156.189,-325.394c58.571,-279.839 -32.539,-429.52 -32.539,-429.52l19.523,-468.567c0,-0 13.016,-156.19 19.524,-266.824c6.508,-110.634 182.221,-91.11 -78.095,-273.331c-260.315,-182.22 -227.776,-195.236 -396.981,-260.315c-169.204,-65.079 -312.378,-403.489 -234.283,-45.555c78.094,357.933 -21.693,651.873 -6.508,800.469c4.525,44.28 124.621,55.727 97.618,91.111c-31.455,41.216 -260.315,65.079 -286.347,156.189c-26.031,91.11 -260.315,403.489 -260.315,403.489c-0,-0 143.173,247.299 -84.602,91.11c-227.776,-156.189 -287.432,-107.38 -409.997,-149.681c-107.652,-37.154 -130.158,-58.571 -325.394,-104.126c-195.237,-45.556 -241.876,183.305 -286.347,299.362c-38.599,100.735 52.063,325.394 19.524,396.981c-32.54,71.587 -19.524,357.933 -84.603,260.315c-65.079,-97.618 -156.189,-240.791 -208.252,-390.473c-52.063,-149.681 -188.729,-455.551 -188.729,-455.551l-84.602,78.094Z" style="fill:#b95104;"/><path d="M20434.7,31611.7c105.903,6.848 196.314,-56.1 201.77,-140.482c5.456,-84.382 -76.094,-158.449 -181.998,-165.297c-105.903,-6.848 -196.314,56.1 -201.77,140.482c-5.456,84.382 76.094,158.449 181.998,165.297Z" style="fill:#f68823;"/><path d="M11012,31589.7c105.904,6.848 196.314,-56.1 201.77,-140.482c5.457,-84.382 -76.094,-158.449 -181.998,-165.297c-105.903,-6.848 -196.313,56.1 -201.77,140.482c-5.456,84.381 76.094,158.449 181.998,165.297Z" style="fill:#b95104;"/><path d="M12813.1,31809.4c105.904,6.848 196.314,-56.1 201.771,-140.482c5.456,-84.382 -76.095,-158.449 -181.998,-165.297c-105.904,-6.848 -196.314,56.1 -201.77,140.482c-5.457,84.381 76.094,158.449 181.997,165.297Z" style="fill:#b95104;"/><path d="M11981.4,27328.3c14.597,174.97 137.808,307.734 274.972,296.29c137.163,-11.443 236.671,-162.788 222.073,-337.759c-14.598,-174.97 -137.809,-307.733 -274.972,-296.29c-137.163,11.444 -236.671,162.788 -222.073,337.759Z" style="fill:#b95104;"/><path d="M6353.35,37654.6c17.485,209.58 143.04,370.441 280.203,358.998c137.164,-11.444 234.327,-190.887 216.842,-400.466c-17.485,-209.58 -143.04,-370.442 -280.204,-358.998c-137.163,11.443 -234.326,190.886 -216.841,400.466Z" style="fill:#b95104;"/><path d="M16635.5,27048.9c392.225,-526.044 342.617,-1227.54 -110.711,-1565.55c-453.329,-338.006 -1139.81,-185.343 -1532.04,340.702c-392.224,526.045 -342.616,1227.55 110.712,1565.55c453.328,338.006 1139.81,185.343 1532.03,-340.702Z" style="fill:#f68823;"/><path d="M10663.3,21817.6c161.848,-217.069 206.987,-457.619 100.736,-536.841c-106.251,-79.222 -323.914,32.692 -485.763,249.761c-161.849,217.068 -206.987,457.619 -100.736,536.84c106.251,79.222 323.914,-32.692 485.763,-249.76Z" style="fill:#f68823;"/><path d="M10039.9,20935.4c181.441,-243.346 222.012,-520.496 90.543,-618.521c-131.469,-98.025 -385.513,19.957 -566.955,263.304c-181.442,243.346 -222.013,520.496 -90.543,618.521c131.469,98.025 385.513,-19.958 566.955,-263.304Z" style="fill:#f68823;"/><path d="M19661.6,27056.5c-0,-0 1085.72,137.467 1805.17,-106.534c991.522,-336.278 1573.22,-1560.09 2060.48,-1798.75c504.347,-247.027 552.4,-395.357 1067.19,-704.229c514.787,-308.872 317.988,-410.566 317.988,-856.714c-0,-446.148 -274.553,-755.02 -137.277,-1304.13c137.277,-549.105 857.978,-1715.95 857.978,-1715.95c-0,-0 240.233,-857.978 -102.958,-995.254c-343.191,-137.277 13.337,-269.023 -810.322,-337.661c-219.837,-18.32 -513.649,459.701 -618.772,482.108c-288.737,61.544 -405.939,-245.206 -733.009,-521.957c-446.148,-377.51 -369.443,372.284 -723.645,553.926c-146.319,75.035 -350.052,104.406 -576.396,186.146c-463.813,167.497 -1022.58,402.414 -1376.85,632.692c-686.382,446.148 -789.339,377.51 -1132.53,652.062c-343.191,274.553 -750.213,545.269 -857.978,960.935c-120.117,463.308 137.277,1818.91 137.277,1818.91c-0,0 63.696,505.58 63.696,768.693c0,194.475 39.261,295.199 -63.696,809.986c-102.958,514.786 -61.775,660.071 75.501,906.024c137.276,245.954 623.464,474.747 748.157,569.697Z" style="fill:#ffcb55;stroke:#000;stroke-width:6.05px;"/><path d="M1727.58,48213.8c51.477,75.972 91.011,150.643 105.067,227.584c33.158,181.512 183.181,538.271 271.038,578.539c87.857,40.268 582.809,35.344 666.247,-178.937c86.469,-222.066 -189.52,-806.938 -147.432,-1153.46c62.615,-515.53 387.857,-811.735 295.911,-1205.79c-153.75,-658.927 -731.165,-1615.79 -857.484,-2254.99c-118.814,-601.233 165.463,-1294.72 99.571,-1580.25c-65.893,-285.535 -67.015,-1062.53 -17.571,-1466.62c25.182,-205.804 -15.228,-474.718 314.235,-957.931c329.463,-483.213 551.57,-1331.06 785.855,-1700.79c53.394,-84.262 227.866,-764.064 216.886,-1033.02c-13.833,-338.854 -80.244,-692.607 -299.886,-1000.11c-219.642,-307.499 -169.379,-1073.62 -349.085,-901.996c-91.277,87.175 -281.659,461.995 -401.408,937.402c-126.541,502.377 -182.035,1756.63 -357.841,2076.86c-335.828,611.707 -846.481,-245.303 -846.481,-245.303c-0,0 -355.205,-1355.06 -313.969,-3233.21c11.439,-520.997 215.576,-1122.79 269.528,-1697.9c111.524,-1188.81 565.972,-2182.35 800.11,-3541.7c61.21,-355.373 258.299,-698.182 327.958,-1055.72c138.92,-713.028 680.443,-978.934 853.375,-1539.65c216.004,-700.372 274.326,-1969.02 442.648,-2662.58c69.047,-284.504 481.402,-648.837 550.525,-920.103c366.758,-1439.3 1723.34,-3611.38 1895.71,-4287.8c104.424,-409.804 497.266,-1610.19 313.274,-1229.41c-271.831,562.559 -761.405,1030.14 -1353.49,2062.59c-1090.72,1901.95 -2529.31,4967.84 -3595.34,8760.18c-713.103,2536.82 -991.363,5234.52 -1146.13,7384.41c-151.466,2103.96 -44.083,3715.49 -34.051,3780.7c43.929,285.535 -16.838,1081.32 11.13,1616.86c27.885,533.948 140.034,1287.43 156.678,1596.36c30.607,568.104 231.95,1556.32 439.306,2711.92c56.455,314.621 373.371,1205.39 556.988,1604.78c8.132,17.689 16.793,35.087 25.897,52.217c42.922,-70.34 107.592,-115.147 179.877,-115.147c129.101,0 233.916,142.929 233.916,318.976c-0,103.032 -35.901,194.72 -91.56,253.051Zm-546.392,-5590.58c-140.838,0 -255.181,-505.013 -255.181,-1127.05c-0,-622.035 114.343,-1127.05 255.181,-1127.05c140.838,0 255.18,505.014 255.18,1127.05c0,622.035 -114.342,1127.05 -255.18,1127.05Zm372.138,3976.57c-146.706,0 -265.813,-114.342 -265.813,-255.181c-0,-140.838 119.107,-255.18 265.813,-255.18c146.707,-0 265.814,114.342 265.814,255.18c-0,140.839 -119.107,255.181 -265.814,255.181Z" style="fill:#a63c04;stroke:#000;stroke-width:6.05px;"/><path d="M5861.62,42374.4c87.521,123.269 229.304,106.077 380.164,62.743c172.39,-49.518 380.442,-90.74 654.175,-359.851c270.625,-266.056 546.601,-613.561 606.931,-505.268c115.971,208.172 -166.624,753.94 -282.557,1304.65c-33.181,157.617 -227.668,363.793 -169.942,465.422c57.727,101.629 535.449,48.611 516.301,144.351c-21.592,107.958 19.105,429.776 -38.509,690.968c-35.291,159.996 -240.325,-64.923 -287.157,123.771c-43.118,173.731 91.779,566.28 276.161,724.987c50.737,43.671 216.904,100.482 339.801,17.265c158.776,-107.512 284.519,-366.012 404.742,-325.205c170.684,57.935 144.331,682.855 235.382,664.133c200.892,-41.308 153.392,-424.567 203.458,-641.427c45.263,-196.059 157.258,-310.459 208.131,-266.872c26.488,22.696 -1.307,131.831 19.222,237.113c18.9,96.92 87.687,186.602 77.883,291.285c-10.155,108.425 -101.913,164.161 -176.599,275.305c-54.121,80.54 -86.915,221.081 -132.708,283.071c-102.131,138.256 -509.485,-65.83 -711.651,31.773c-317.307,153.192 -462.48,592.431 -678.954,767.487c-539.539,436.31 -467.673,646.099 -667.913,990.222c-183.226,314.885 138.081,933.038 -97.183,1383.67c-124.389,238.261 -840.407,378.119 -915.513,514.326c-115.038,208.626 -533.997,400.555 -693.224,343.119c-218.666,-78.876 -702.534,-687.736 -843.684,-1013.17c-124.605,-287.292 50.423,-557.034 -3.214,-939.446c-115.616,-824.294 -324.63,-694.417 -380.135,-1066.33c-60.476,-405.222 4.099,-771.674 157.848,-1430.6c153.75,-658.926 614.998,-636.962 790.712,-1251.96c175.714,-614.999 292.018,-725.031 494.341,-1164.4c222.513,-483.213 623.779,-477.772 713.691,-351.135Z" style="fill:#b95104;stroke:#000;stroke-width:6.05px;"/></g></g></g></svg>